<svg width="430" height="431" viewBox="0 0 430 431" fill="none" xmlns="http://www.w3.org/2000/svg">
<path d="M368.54 322.139C359.737 326.484 349.569 327.154 340.273 324.001C330.976 320.849 323.312 314.133 318.967 305.331C318.109 303.582 317.387 301.769 316.808 299.909C316.808 299.909 316.808 299.909 316.808 299.86C314.212 291.452 314.698 282.394 318.177 274.312C321.657 266.229 327.903 259.651 335.795 255.758L352.167 288.949L370.564 256.813C376.396 260.142 381.212 264.994 384.498 270.85C387.783 276.706 389.414 283.346 389.215 290.058C389.016 296.77 386.995 303.301 383.368 308.953C379.742 314.604 374.646 319.162 368.627 322.139H368.54Z" stroke="#263238" stroke-linecap="round" stroke-linejoin="round"/>
<path d="M336.221 238.688C341.655 236.007 347.665 234.701 353.722 234.885C359.779 235.069 365.699 236.737 370.961 239.743L352.564 271.869L336.221 238.688Z" stroke="#263238" stroke-linecap="round" stroke-linejoin="round"/>
<path d="M336.221 238.688V246.724L352.593 279.905L370.961 247.78V239.743L352.593 271.879L336.221 238.688Z" stroke="#263238" stroke-linecap="round" stroke-linejoin="round"/>
<path d="M132.458 219.808H31.9946C29.5423 219.808 27.1904 220.782 25.4563 222.516C23.7222 224.25 22.748 226.602 22.748 229.054V267.018C22.748 269.471 23.7219 271.824 25.4557 273.56C27.1895 275.296 29.5414 276.272 31.9946 276.275H132.458C134.913 276.275 137.267 275.299 139.003 273.563C140.739 271.828 141.714 269.473 141.714 267.018V229.054C141.711 226.601 140.735 224.249 138.999 222.515C137.264 220.781 134.911 219.808 132.458 219.808V219.808ZM72.4277 268.471C72.4277 268.708 72.3342 268.935 72.1674 269.104C72.0006 269.273 71.7741 269.369 71.5369 269.371H63.1424C63.0242 269.371 62.9071 269.348 62.7978 269.303C62.6886 269.257 62.5893 269.191 62.5057 269.107C62.4221 269.024 62.3557 268.924 62.3105 268.815C62.2652 268.706 62.242 268.589 62.242 268.471V248.932C62.2445 248.695 62.3405 248.468 62.5091 248.301C62.6777 248.135 62.9053 248.041 63.1424 248.041H71.4982C71.7344 248.041 71.961 248.135 72.1281 248.302C72.2951 248.469 72.389 248.696 72.389 248.932L72.4277 268.471ZM89.1102 269.371H80.7544C80.5156 269.371 80.2866 269.276 80.1177 269.107C79.9488 268.938 79.854 268.709 79.854 268.471V242.193C79.8565 241.956 79.9525 241.729 80.1211 241.563C80.2897 241.396 80.5173 241.302 80.7544 241.302H89.1102C89.2272 241.302 89.343 241.325 89.4511 241.37C89.5592 241.415 89.6574 241.48 89.7401 241.563C89.8228 241.646 89.8884 241.744 89.9332 241.852C89.9779 241.96 90.001 242.076 90.001 242.193V268.471C90.001 268.591 89.9768 268.711 89.9298 268.822C89.8827 268.933 89.8138 269.034 89.7271 269.118C89.6403 269.202 89.5376 269.268 89.425 269.311C89.3124 269.355 89.1922 269.375 89.0715 269.371H89.1102ZM106.538 268.471C106.538 268.708 106.445 268.935 106.278 269.104C106.111 269.273 105.885 269.369 105.647 269.371H97.282C97.0449 269.369 96.8183 269.273 96.6516 269.104C96.4848 268.935 96.3912 268.708 96.3913 268.471V265.324C96.3913 265.088 96.4851 264.861 96.6522 264.694C96.8192 264.527 97.0458 264.433 97.282 264.433H105.647C105.884 264.433 106.11 264.527 106.277 264.694C106.444 264.861 106.538 265.088 106.538 265.324V268.471ZM123.066 268.471C123.066 268.708 122.972 268.935 122.806 269.104C122.639 269.273 122.412 269.369 122.175 269.371H113.781C113.542 269.371 113.313 269.276 113.144 269.107C112.975 268.938 112.88 268.709 112.88 268.471V239.676L104.389 260.347C104.324 260.5 104.219 260.631 104.084 260.727C103.949 260.824 103.791 260.881 103.625 260.893C103.46 260.905 103.295 260.871 103.148 260.795C103.001 260.72 102.877 260.605 102.791 260.463L87.7256 235.144C87.6645 235.04 87.5824 234.949 87.4846 234.878C87.3869 234.807 87.2755 234.756 87.1574 234.73C87.0393 234.704 86.9171 234.702 86.7983 234.725C86.6795 234.748 86.5667 234.795 86.467 234.864L71.566 244.914C71.4218 245.007 71.2536 245.057 71.0819 245.057C70.9101 245.057 70.7419 245.007 70.5977 244.914L54.4962 236.045V268.48C54.4962 268.717 54.4026 268.945 54.2358 269.114C54.0691 269.282 53.8425 269.378 53.6054 269.381H45.269C45.1507 269.381 45.0336 269.357 44.9244 269.312C44.8151 269.267 44.7159 269.201 44.6322 269.117C44.5486 269.033 44.4823 268.934 44.4371 268.825C44.3918 268.716 44.3685 268.599 44.3685 268.48V228.396C44.3711 228.159 44.4671 227.932 44.6356 227.765C44.8042 227.599 45.0318 227.505 45.269 227.505H53.6248C53.861 227.505 54.0876 227.599 54.2546 227.766C54.4217 227.933 54.5155 228.16 54.5155 228.396V233.876L70.5396 242.696C70.6839 242.79 70.852 242.839 71.0238 242.839C71.1955 242.839 71.3637 242.79 71.5079 242.696L86.9995 232.278C87.1 232.21 87.2135 232.162 87.3331 232.139C87.4526 232.116 87.5756 232.118 87.6944 232.144C87.8133 232.17 87.9255 232.221 88.0241 232.292C88.1228 232.364 88.2057 232.454 88.2679 232.559L102.549 256.445C102.635 256.587 102.759 256.701 102.906 256.777C103.053 256.853 103.218 256.887 103.383 256.875C103.549 256.863 103.707 256.805 103.842 256.709C103.976 256.613 104.082 256.481 104.147 256.329L112.919 234.97V228.386C112.921 228.149 113.017 227.922 113.186 227.756C113.355 227.589 113.582 227.495 113.819 227.495H115.998L116.966 225.239C117.011 225.131 117.077 225.033 117.16 224.951C117.243 224.868 117.342 224.803 117.45 224.758C117.558 224.714 117.675 224.691 117.792 224.691C117.909 224.692 118.025 224.715 118.133 224.76C118.241 224.805 118.339 224.871 118.422 224.954C118.504 225.037 118.57 225.136 118.614 225.244C118.659 225.353 118.681 225.469 118.681 225.586C118.681 225.703 118.657 225.819 118.612 225.927L117.973 227.495H122.214C122.45 227.495 122.677 227.589 122.844 227.756C123.011 227.923 123.105 228.15 123.105 228.386L123.066 268.471Z" stroke="#263238" stroke-linecap="round" stroke-linejoin="round"/>
<path d="M71.4984 248.041H63.133C62.641 248.041 62.2422 248.44 62.2422 248.932V268.48C62.2422 268.972 62.641 269.371 63.133 269.371H71.4984C71.9904 269.371 72.3892 268.972 72.3892 268.48V248.932C72.3892 248.44 71.9904 248.041 71.4984 248.041Z" stroke="#263238" stroke-linecap="round" stroke-linejoin="round"/>
<path d="M89.0717 241.302H80.7062C80.2142 241.302 79.8154 241.701 79.8154 242.193V268.48C79.8154 268.972 80.2142 269.371 80.7062 269.371H89.0717C89.5636 269.371 89.9624 268.972 89.9624 268.48V242.193C89.9624 241.701 89.5636 241.302 89.0717 241.302Z" stroke="#263238" stroke-linecap="round" stroke-linejoin="round"/>
<path d="M105.609 264.433H97.2433C96.7513 264.433 96.3525 264.832 96.3525 265.324V268.48C96.3525 268.972 96.7513 269.371 97.2433 269.371H105.609C106.101 269.371 106.5 268.972 106.5 268.48V265.324C106.5 264.832 106.101 264.433 105.609 264.433Z" stroke="#263238" stroke-linecap="round" stroke-linejoin="round"/>
<path d="M44.7172 229.693V229.586C44.7695 229.475 44.8441 229.375 44.9363 229.294C45.0286 229.213 45.1366 229.151 45.2537 229.113C45.3707 229.075 45.4943 229.061 45.6169 229.072C45.7395 229.084 45.8583 229.121 45.9662 229.18L54.4769 233.866V228.386C54.4769 228.269 54.4539 228.153 54.4091 228.045C54.3643 227.937 54.2987 227.839 54.216 227.756C54.1333 227.673 54.0351 227.608 53.927 227.563C53.819 227.518 53.7031 227.495 53.5862 227.495H45.2691C45.0319 227.495 44.8044 227.589 44.6358 227.755C44.4672 227.922 44.3712 228.149 44.3687 228.386V268.47C44.3687 268.589 44.3919 268.706 44.4372 268.815C44.4824 268.924 44.5488 269.024 44.6324 269.107C44.716 269.191 44.8153 269.257 44.9245 269.302C45.0338 269.348 45.1508 269.371 45.2691 269.371H53.6249C53.862 269.368 54.0886 269.272 54.2553 269.104C54.4221 268.935 54.5157 268.708 54.5156 268.47V236.035L45.0948 230.845C44.8981 230.736 44.7498 230.557 44.6797 230.343C44.6097 230.13 44.6231 229.897 44.7172 229.693V229.693Z" stroke="#263238" stroke-linecap="round" stroke-linejoin="round"/>
<path d="M122.137 227.486H117.896L112.88 239.666V268.461C112.88 268.7 112.975 268.929 113.144 269.098C113.313 269.267 113.542 269.362 113.781 269.362H122.137C122.374 269.359 122.6 269.263 122.767 269.094C122.934 268.926 123.027 268.698 123.027 268.461V228.377C123.027 228.14 122.934 227.914 122.766 227.747C122.599 227.58 122.373 227.486 122.137 227.486Z" stroke="#263238" stroke-linecap="round" stroke-linejoin="round"/>
<path d="M113.781 227.486C113.544 227.486 113.316 227.579 113.148 227.746C112.979 227.913 112.883 228.139 112.88 228.377V234.961L115.959 227.486H113.781Z" stroke="#263238" stroke-linecap="round" stroke-linejoin="round"/>
<path d="M89.0717 241.302H80.7062C80.2142 241.302 79.8154 241.701 79.8154 242.193V268.48C79.8154 268.972 80.2142 269.371 80.7062 269.371H89.0717C89.5636 269.371 89.9624 268.972 89.9624 268.48V242.193C89.9624 241.701 89.5636 241.302 89.0717 241.302Z" stroke="#263238" stroke-linecap="round" stroke-linejoin="round"/>
<path d="M71.4984 248.041H63.133C62.641 248.041 62.2422 248.44 62.2422 248.932V268.48C62.2422 268.972 62.641 269.371 63.133 269.371H71.4984C71.9904 269.371 72.3892 268.972 72.3892 268.48V248.932C72.3892 248.44 71.9904 248.041 71.4984 248.041Z" stroke="#263238" stroke-linecap="round" stroke-linejoin="round"/>
<path d="M105.609 264.433H97.2433C96.7513 264.433 96.3525 264.832 96.3525 265.324V268.48C96.3525 268.972 96.7513 269.371 97.2433 269.371H105.609C106.101 269.371 106.5 268.972 106.5 268.48V265.324C106.5 264.832 106.101 264.433 105.609 264.433Z" stroke="#263238" stroke-linecap="round" stroke-linejoin="round"/>
<path d="M287.742 254.596L272.56 269.797C281.298 280.04 286.577 292.781 287.645 306.203H309.101C307.974 287.091 300.451 268.914 287.742 254.596Z" fill="url(#paint0_linear)"/>
<path opacity="0.2" d="M287.742 254.596L272.56 269.797C281.298 280.04 286.577 292.781 287.645 306.203H309.101C307.974 287.091 300.451 268.914 287.742 254.596Z" fill="white"/>
<path d="M174.75 352.958C164.881 341.351 159.463 326.613 159.463 311.378C159.463 296.143 164.881 281.404 174.75 269.797L159.578 254.596C145.711 270.253 138.055 290.444 138.055 311.358C138.055 332.273 145.711 352.464 159.578 368.121L174.75 352.958Z" fill="url(#paint1_linear)"/>
<g opacity="0.4">
<path opacity="0.4" d="M174.75 352.958C164.881 341.351 159.463 326.613 159.463 311.378C159.463 296.143 164.881 281.404 174.75 269.797L159.578 254.596C145.711 270.253 138.055 290.444 138.055 311.358C138.055 332.273 145.711 352.464 159.578 368.121L174.75 352.958Z" fill="white"/>
</g>
<path d="M182.07 262.468C193.679 252.6 208.419 247.183 223.655 247.183C238.891 247.183 253.631 252.6 265.24 262.468L280.412 247.295C264.758 233.432 244.57 225.778 223.66 225.778C202.749 225.778 182.562 233.432 166.907 247.295L182.07 262.468Z" fill="url(#paint2_linear)"/>
<path opacity="0.2" d="M182.07 262.468C193.679 252.6 208.419 247.183 223.655 247.183C238.891 247.183 253.631 252.6 265.24 262.468L280.412 247.295C264.758 233.432 244.57 225.778 223.66 225.778C202.749 225.778 182.562 233.432 166.907 247.295L182.07 262.468Z" fill="black"/>
<path d="M309.1 316.562H287.645C286.696 328.337 282.515 339.621 275.563 349.172C268.612 358.723 259.159 366.17 248.246 370.692C237.333 375.215 225.384 376.637 213.714 374.803C202.044 372.969 191.107 367.949 182.108 360.297L166.926 375.469C178.94 386.106 193.701 393.152 209.527 395.803C225.352 398.454 241.604 396.602 256.428 390.46C271.252 384.318 284.051 374.133 293.364 361.067C302.677 348 308.13 332.579 309.1 316.562Z" fill="url(#paint3_linear)"/>
<path d="M348.573 207.851H100.359C97.7034 207.851 95.157 206.796 93.2794 204.918C91.4019 203.041 90.3472 200.494 90.3472 197.839V36.8426C90.3472 35.5283 90.6062 34.2269 91.1094 33.0128C91.6127 31.7987 92.3503 30.6957 93.28 29.7668C94.2098 28.838 95.3135 28.1014 96.5281 27.5994C97.7427 27.0973 99.0443 26.8396 100.359 26.8408H348.573C349.887 26.8396 351.189 27.0973 352.403 27.5994C353.618 28.1014 354.722 28.838 355.651 29.7668C356.581 30.6957 357.319 31.7987 357.822 33.0128C358.325 34.2269 358.584 35.5283 358.584 36.8426V197.839C358.584 200.494 357.53 203.041 355.652 204.918C353.775 206.796 351.228 207.851 348.573 207.851Z" fill="#263238"/>
<path d="M348.573 202.061H100.359C97.7034 202.061 95.157 201.006 93.2794 199.128C91.4019 197.251 90.3472 194.704 90.3472 192.049V31.0525C90.3497 28.399 91.4056 25.8551 93.2829 23.9796C95.1601 22.1042 97.7051 21.0508 100.359 21.0508H348.573C351.226 21.0508 353.771 22.1042 355.649 23.9796C357.526 25.8551 358.582 28.399 358.584 31.0525V192.049C358.584 194.704 357.53 197.251 355.652 199.128C353.775 201.006 351.228 202.061 348.573 202.061Z" fill="url(#paint4_linear)"/>
<path d="M358.991 36.3292V30.5198C358.991 29.2056 358.732 27.9042 358.229 26.6901C357.725 25.476 356.988 24.373 356.058 23.4441C355.128 22.5152 354.024 21.7787 352.81 21.2766C351.595 20.7746 350.294 20.5168 348.979 20.5181H100.736C99.4218 20.5168 98.1202 20.7746 96.9056 21.2766C95.691 21.7787 94.5873 22.5152 93.6575 23.4441C92.7277 24.373 91.9901 25.476 91.4869 26.6901C90.9836 27.9042 90.7246 29.2056 90.7246 30.5198V191.536V197.345C90.7246 200 91.7794 202.547 93.6569 204.424C95.5344 206.302 98.0809 207.357 100.736 207.357H348.979C351.635 207.357 354.181 206.302 356.059 204.424C357.936 202.547 358.991 200 358.991 197.345V36.3292V36.3292Z" stroke="#263238" stroke-miterlimit="10"/>
<path d="M106.304 37.0264V185.049H341.582V37.0264H106.304ZM338.968 66.0731H312.487V39.6503H338.968V66.0731ZM167.07 97.8019H193.55V124.283H167.07V97.8019ZM164.465 124.283H137.994V97.8019H164.465V124.283ZM251.721 95.2361H225.26V68.697H251.731L251.721 95.2361ZM254.307 68.697H280.778V95.178H254.307V68.697ZM225.26 97.7438H251.741V124.225H225.26V97.7438ZM222.655 124.225H196.155V97.8019H222.636L222.655 124.225ZM222.655 95.178H196.155V68.697H222.636L222.655 95.178ZM193.609 95.178H167.07V68.697H193.55L193.609 95.178ZM193.609 126.868V153.339H167.07V126.887L193.609 126.868ZM196.213 126.868H222.694V153.339H196.155L196.213 126.868ZM225.26 126.868H251.741V153.339H225.26V126.868ZM254.307 126.868H280.778V153.339H254.307V126.868ZM254.307 124.263V97.8019H280.778V124.283L254.307 124.263ZM283.353 97.7825H309.883V124.263H283.402L283.353 97.7825ZM283.353 95.178V68.697H309.883V95.178H283.353ZM283.353 66.1312V39.6503H309.883V66.1119L283.353 66.1312ZM280.749 66.1312H254.307V39.6503H280.778L280.749 66.1312ZM251.702 66.1312H225.26V39.6503H251.731L251.702 66.1312ZM222.655 66.1312H196.155V39.6503H222.636L222.655 66.1312ZM193.609 66.1312H167.07V39.6503H193.55L193.609 66.1312ZM164.562 66.1312H137.994V39.6503H164.465L164.562 66.1312ZM164.562 68.7357V95.2167H137.994V68.697L164.562 68.7357ZM135.515 95.2167H108.908V68.697H135.389L135.515 95.2167ZM135.515 97.8212V124.302H108.908V97.8019L135.515 97.8212ZM135.515 126.868V153.339H108.908V126.887L135.515 126.868ZM138.12 126.868H164.591V153.339H137.994L138.12 126.868ZM164.591 155.915V182.396H137.994V155.963L164.591 155.915ZM167.195 155.915H193.676V182.396H167.07L167.195 155.915ZM196.242 155.915H222.723V182.396H196.155L196.242 155.915ZM225.289 155.915H251.77V182.396H225.26L225.289 155.915ZM254.336 155.915H280.807V182.396H254.307L254.336 155.915ZM283.382 155.915H309.883V182.396H283.402L283.382 155.915ZM283.382 153.31V126.887H309.883V153.359L283.382 153.31ZM312.429 126.839H338.91V153.31H312.487L312.429 126.839ZM312.429 124.234V97.8019H338.91V124.283L312.429 124.234ZM312.429 95.1877V68.697H338.91V95.178L312.429 95.1877ZM135.389 39.6503V66.1119H108.908V39.6503H135.389ZM108.908 155.963H135.389V182.444H108.908V155.963ZM312.487 182.444V155.963H338.968V182.444H312.487Z" fill="white"/>
<path opacity="0.8" d="M106.304 37.0264V185.049H341.582V37.0264H106.304ZM338.968 66.0731H312.487V39.6503H338.968V66.0731ZM167.07 97.8019H193.55V124.283H167.07V97.8019ZM164.465 124.283H137.994V97.8019H164.465V124.283ZM251.721 95.2361H225.26V68.697H251.731L251.721 95.2361ZM254.307 68.697H280.778V95.178H254.307V68.697ZM225.26 97.7438H251.741V124.225H225.26V97.7438ZM222.655 124.225H196.155V97.8019H222.636L222.655 124.225ZM222.655 95.178H196.155V68.697H222.636L222.655 95.178ZM193.609 95.178H167.07V68.697H193.55L193.609 95.178ZM193.609 126.868V153.339H167.07V126.887L193.609 126.868ZM196.213 126.868H222.694V153.339H196.155L196.213 126.868ZM225.26 126.868H251.741V153.339H225.26V126.868ZM254.307 126.868H280.778V153.339H254.307V126.868ZM254.307 124.263V97.8019H280.778V124.283L254.307 124.263ZM283.353 97.7825H309.883V124.263H283.402L283.353 97.7825ZM283.353 95.178V68.697H309.883V95.178H283.353ZM283.353 66.1312V39.6503H309.883V66.1119L283.353 66.1312ZM280.749 66.1312H254.307V39.6503H280.778L280.749 66.1312ZM251.702 66.1312H225.26V39.6503H251.731L251.702 66.1312ZM222.655 66.1312H196.155V39.6503H222.636L222.655 66.1312ZM193.609 66.1312H167.07V39.6503H193.55L193.609 66.1312ZM164.562 66.1312H137.994V39.6503H164.465L164.562 66.1312ZM164.562 68.7357V95.2167H137.994V68.697L164.562 68.7357ZM135.515 95.2167H108.908V68.697H135.389L135.515 95.2167ZM135.515 97.8212V124.302H108.908V97.8019L135.515 97.8212ZM135.515 126.868V153.339H108.908V126.887L135.515 126.868ZM138.12 126.868H164.591V153.339H137.994L138.12 126.868ZM164.591 155.915V182.396H137.994V155.963L164.591 155.915ZM167.195 155.915H193.676V182.396H167.07L167.195 155.915ZM196.242 155.915H222.723V182.396H196.155L196.242 155.915ZM225.289 155.915H251.77V182.396H225.26L225.289 155.915ZM254.336 155.915H280.807V182.396H254.307L254.336 155.915ZM283.382 155.915H309.883V182.396H283.402L283.382 155.915ZM283.382 153.31V126.887H309.883V153.359L283.382 153.31ZM312.429 126.839H338.91V153.31H312.487L312.429 126.839ZM312.429 124.234V97.8019H338.91V124.283L312.429 124.234ZM312.429 95.1877V68.697H338.91V95.178L312.429 95.1877ZM135.389 39.6503V66.1119H108.908V39.6503H135.389ZM108.908 155.963H135.389V182.444H108.908V155.963ZM312.487 182.444V155.963H338.968V182.444H312.487Z" fill="white"/>
<path d="M225.114 126.5L223.013 124.66L225.114 122.821L227.215 124.66L225.114 126.5Z" fill="#263238"/>
<path d="M231.408 120.981L229.307 119.142L233.509 115.462L235.6 117.302L231.408 120.981ZM239.802 113.623L237.701 111.773L241.894 108.094L243.995 109.934L239.802 113.623ZM248.187 106.255L246.086 104.415L250.288 100.736L252.37 102.585L248.187 106.255ZM256.582 98.896L254.48 97.0564L256.33 95.4298L259.728 93.9387L261.055 96.2722L258.092 97.5696L256.582 98.896ZM266.361 93.9387L265.034 91.615L270.34 89.2816L271.666 91.615L266.361 93.9387ZM277.011 89.2912L275.607 86.9578L280.913 84.6244L282.24 86.9578L277.011 89.2912ZM287.662 84.6341L286.258 82.3007L289.482 80.887L290.789 79.7445L292.89 81.5842L291.244 83.0268L287.662 84.6341ZM297.16 77.9049L295.059 76.0653L299.261 72.3764L301.352 74.2257L297.16 77.9049ZM305.554 70.5367L303.376 68.6971L307.559 65.0178L309.66 66.8575L305.554 70.5367ZM313.939 63.1782L311.838 61.3386L316.04 57.6593L318.132 59.499L313.939 63.1782ZM322.334 55.8197L320.146 53.9801L324.338 50.3008L326.439 52.1404L322.334 55.8197ZM330.719 48.4612L328.618 46.6119L332.82 42.9326L334.921 44.7722L330.719 48.4612Z" fill="#263238"/>
<path d="M341.573 47.8996H338.6V39.631H329.189V37.0361H341.573V47.8996Z" fill="#263238"/>
<g opacity="0.5">
<path opacity="0.5" d="M303.037 106.458L301.197 104.618L304.828 100.987L306.668 102.827L303.037 106.458ZM310.299 99.196L308.459 97.3563L312.09 93.7255L313.929 95.5651L310.299 99.196ZM317.56 91.9343L315.721 90.0947L319.351 86.4638L321.191 88.3034L317.56 91.9343ZM324.822 84.6726L322.982 82.833L326.613 79.2021L328.453 81.0417L324.822 84.6726ZM332.084 77.4109L330.244 75.5713L333.875 71.9404L335.714 73.7801L332.084 77.4109Z" fill="black"/>
<path opacity="0.5" d="M297.18 112.344H294.042V109.74H296.105L297.567 108.278L299.406 110.117L297.18 112.344Z" fill="black"/>
<path opacity="0.5" d="M253.561 126.888H251.044V124.283H252.477L254.171 122.589L256.011 124.428L253.561 126.888ZM246.144 126.888H241.245V124.283H246.144V126.888ZM236.346 126.888H231.437V124.283H236.346V126.888ZM259.477 120.981L257.637 119.142L261.084 115.656L262.924 117.496L259.477 120.981ZM266.409 114.059L264.57 112.209L267.019 109.76H269.527V112.364H268.104L266.409 114.059ZM289.163 112.345H284.263V109.74H289.163V112.345ZM279.364 112.345H274.465V109.74H279.364V112.345Z" fill="black"/>
<path opacity="0.5" d="M226.538 124.283H223.933V126.887H226.538V124.283Z" fill="black"/>
<path opacity="0.5" d="M341.572 76.9753H338.968V68.7163H330.699L330.709 66.1118H341.572V76.9753Z" fill="black"/>
<g opacity="0.2">
<path opacity="0.2" d="M303.037 106.458L301.197 104.618L304.828 100.987L306.668 102.827L303.037 106.458ZM310.299 99.196L308.459 97.3563L312.09 93.7255L313.929 95.5651L310.299 99.196ZM317.56 91.9343L315.721 90.0947L319.351 86.4638L321.191 88.3034L317.56 91.9343ZM324.822 84.6726L322.982 82.833L326.613 79.2021L328.453 81.0417L324.822 84.6726ZM332.084 77.4109L330.244 75.5713L333.875 71.9404L335.714 73.7801L332.084 77.4109Z" fill="black"/>
<path opacity="0.2" d="M297.18 112.344H294.042V109.74H296.105L297.567 108.278L299.406 110.117L297.18 112.344Z" fill="black"/>
<path opacity="0.2" d="M253.561 126.888H251.044V124.283H252.477L254.171 122.589L256.011 124.428L253.561 126.888ZM246.144 126.888H241.245V124.283H246.144V126.888ZM236.346 126.888H231.437V124.283H236.346V126.888ZM259.477 120.981L257.637 119.142L261.084 115.656L262.924 117.496L259.477 120.981ZM266.409 114.059L264.57 112.209L267.019 109.76H269.527V112.364H268.104L266.409 114.059ZM289.163 112.345H284.263V109.74H289.163V112.345ZM279.364 112.345H274.465V109.74H279.364V112.345Z" fill="black"/>
<path opacity="0.2" d="M226.538 124.283H223.933V126.887H226.538V124.283Z" fill="black"/>
<path opacity="0.2" d="M341.572 76.9753H338.968V68.7163H330.699L330.709 66.1118H341.572V76.9753Z" fill="black"/>
</g>
</g>
<g opacity="0.3">
<path opacity="0.3" d="M224.861 124.668L223.02 126.51L224.861 128.351L226.703 126.51L224.861 124.668Z" fill="black"/>
<path opacity="0.3" d="M263.785 141.43H258.373V138.826H263.775L263.785 141.43ZM252.97 141.43H247.529V138.826H252.941L252.97 141.43ZM242.155 141.43H237.934L236.326 139.813L238.176 137.974L239.018 138.826H242.155V141.43ZM269.633 139.891L267.794 138.051L271.618 134.227L273.458 136.066L269.633 139.891ZM232.502 136.018L228.629 132.203L230.478 130.354L234.303 134.178L232.502 136.018ZM277.282 132.271L275.443 130.431L279.267 126.558L281.107 128.408L277.282 132.271ZM311.722 126.916H306.435V124.312H310.647L310.734 124.215L310.822 124.312H311.18V124.67L312.574 126.064L311.722 126.916ZM301.072 126.916H295.659V124.312H301.072V126.916ZM290.256 126.916H284.805V124.312H290.218L290.256 126.916ZM316.399 122.24L314.559 120.391L318.383 116.576L320.223 118.415L316.399 122.24ZM324.048 114.591L322.208 112.751L326.032 108.927L327.872 110.766L324.048 114.591ZM331.696 106.942L329.857 105.102L333.73 101.278L335.569 103.117L331.696 106.942Z" fill="black"/>
<path opacity="0.3" d="M341.572 106.061H338.968V97.8018H330.699V95.1973H341.572V106.061Z" fill="black"/>
<g opacity="0.3">
<path opacity="0.3" d="M224.861 124.668L223.02 126.51L224.861 128.351L226.703 126.51L224.861 124.668Z" fill="black"/>
<path opacity="0.3" d="M263.785 141.43H258.373V138.826H263.775L263.785 141.43ZM252.97 141.43H247.529V138.826H252.941L252.97 141.43ZM242.155 141.43H237.934L236.326 139.813L238.176 137.974L239.018 138.826H242.155V141.43ZM269.633 139.891L267.794 138.051L271.618 134.227L273.458 136.066L269.633 139.891ZM232.502 136.018L228.629 132.203L230.478 130.354L234.303 134.178L232.502 136.018ZM277.282 132.271L275.443 130.431L279.267 126.558L281.107 128.408L277.282 132.271ZM311.722 126.916H306.435V124.312H310.647L310.734 124.215L310.822 124.312H311.18V124.67L312.574 126.064L311.722 126.916ZM301.072 126.916H295.659V124.312H301.072V126.916ZM290.256 126.916H284.805V124.312H290.218L290.256 126.916ZM316.399 122.24L314.559 120.391L318.383 116.576L320.223 118.415L316.399 122.24ZM324.048 114.591L322.208 112.751L326.032 108.927L327.872 110.766L324.048 114.591ZM331.696 106.942L329.857 105.102L333.73 101.278L335.569 103.117L331.696 106.942Z" fill="black"/>
<path opacity="0.3" d="M341.572 106.061H338.968V97.8018H330.699V95.1973H341.572V106.061Z" fill="black"/>
</g>
</g>
<path d="M122.957 185.049H107.611V182.444H121.34L135.622 153.891L150.687 138.825H179.773L194.315 124.283H223.933V126.887H195.39L180.847 141.43H151.772L137.761 155.44L122.957 185.049Z" fill="url(#paint5_linear)"/>
<g opacity="0.3">
<path opacity="0.3" d="M122.957 185.049H107.611V182.444H121.34L135.622 153.891L150.687 138.825H179.773L194.315 124.283H223.933V126.887H195.39L180.847 141.43H151.772L137.761 155.44L122.957 185.049Z" fill="#263238"/>
</g>
<path d="M161.415 161.133H145.972C143.432 161.133 141.373 163.192 141.373 165.732V181.176C141.373 183.716 143.432 185.775 145.972 185.775H161.415C163.955 185.775 166.014 183.716 166.014 181.176V165.732C166.014 163.192 163.955 161.133 161.415 161.133Z" fill="url(#paint6_linear)"/>
<path opacity="0.3" d="M161.415 161.133H145.972C143.432 161.133 141.373 163.192 141.373 165.732V181.176C141.373 183.716 143.432 185.775 145.972 185.775H161.415C163.955 185.775 166.014 183.716 166.014 181.176V165.732C166.014 163.192 163.955 161.133 161.415 161.133Z" fill="black"/>
<path d="M161.415 159.41H145.972C143.432 159.41 141.373 161.469 141.373 164.009V179.452C141.373 181.992 143.432 184.051 145.972 184.051H161.415C163.955 184.051 166.014 181.992 166.014 179.452V164.009C166.014 161.469 163.955 159.41 161.415 159.41Z" fill="url(#paint7_linear)"/>
<path opacity="0.8" d="M161.415 159.41H145.972C143.432 159.41 141.373 161.469 141.373 164.009V179.452C141.373 181.992 143.432 184.051 145.972 184.051H161.415C163.955 184.051 166.014 181.992 166.014 179.452V164.009C166.014 161.469 163.955 159.41 161.415 159.41Z" fill="white"/>
<path d="M147.162 168.027C147.101 167.135 147.393 166.255 147.976 165.577C148.622 165.021 149.447 164.715 150.299 164.715C151.152 164.715 151.977 165.021 152.623 165.577C153.206 166.255 153.498 167.135 153.436 168.027V174.805C153.457 175.441 153.321 176.073 153.04 176.644C153.053 176.694 153.078 176.741 153.111 176.781C153.145 176.821 153.186 176.854 153.233 176.877C153.359 176.913 153.49 176.929 153.62 176.925H153.804V178.765H153.524C153.133 178.781 152.744 178.701 152.391 178.532C152.107 178.387 151.879 178.152 151.742 177.864C151.522 177.944 151.295 178.002 151.064 178.038C150.812 178.087 150.556 178.109 150.299 178.106C149.874 178.136 149.447 178.076 149.046 177.929C148.646 177.782 148.281 177.552 147.976 177.254C147.395 176.575 147.103 175.696 147.162 174.805V168.027ZM149.225 174.988C149.195 175.336 149.299 175.683 149.515 175.957C149.732 176.144 150.008 176.247 150.295 176.247C150.581 176.247 150.858 176.144 151.074 175.957C151.29 175.683 151.394 175.336 151.364 174.988V167.891C151.391 167.544 151.288 167.199 151.074 166.923C150.858 166.736 150.581 166.633 150.295 166.633C150.008 166.633 149.732 166.736 149.515 166.923C149.301 167.199 149.198 167.544 149.225 167.891V174.988Z" fill="black"/>
<path d="M156.041 166.488C156.369 166.496 156.695 166.453 157.01 166.362C157.242 166.288 157.457 166.166 157.639 166.004C157.797 165.852 157.928 165.676 158.026 165.481C158.132 165.275 158.223 165.061 158.297 164.842H159.682V178.01H157.62V167.989H156.022L156.041 166.488Z" fill="black"/>
<path d="M248.817 162.102H233.373C230.833 162.102 228.774 164.161 228.774 166.701V182.144C228.774 184.684 230.833 186.743 233.373 186.743H248.817C251.357 186.743 253.416 184.684 253.416 182.144V166.701C253.416 164.161 251.357 162.102 248.817 162.102Z" fill="url(#paint8_linear)"/>
<path opacity="0.3" d="M248.817 162.102H233.373C230.833 162.102 228.774 164.161 228.774 166.701V182.144C228.774 184.684 230.833 186.743 233.373 186.743H248.817C251.357 186.743 253.416 184.684 253.416 182.144V166.701C253.416 164.161 251.357 162.102 248.817 162.102Z" fill="black"/>
<path d="M248.817 160.378H233.373C230.833 160.378 228.774 162.437 228.774 164.977V180.421C228.774 182.961 230.833 185.02 233.373 185.02H248.817C251.357 185.02 253.416 182.961 253.416 180.421V164.977C253.416 162.437 251.357 160.378 248.817 160.378Z" fill="url(#paint9_linear)"/>
<path opacity="0.8" d="M248.817 160.378H233.373C230.833 160.378 228.774 162.437 228.774 164.977V180.421C228.774 182.961 230.833 185.02 233.373 185.02H248.817C251.357 185.02 253.416 182.961 253.416 180.421V164.977C253.416 162.437 251.357 160.378 248.817 160.378Z" fill="white"/>
<path d="M234.835 169.17C234.773 168.28 235.062 167.4 235.639 166.72C236.291 166.171 237.115 165.869 237.968 165.869C238.82 165.869 239.645 166.171 240.296 166.72C240.87 167.402 241.158 168.28 241.1 169.17V175.947C241.121 176.584 240.984 177.216 240.703 177.787C240.718 177.839 240.744 177.887 240.779 177.929C240.814 177.971 240.858 178.005 240.906 178.029C241.031 178.049 241.159 178.049 241.284 178.029H241.477V179.869H241.197C240.806 179.885 240.417 179.805 240.064 179.636C239.778 179.494 239.549 179.258 239.415 178.968C239.194 179.045 238.967 179.107 238.737 179.152C238.481 179.195 238.222 179.218 237.963 179.22C237.537 179.247 237.11 179.184 236.709 179.036C236.309 178.887 235.945 178.656 235.639 178.358C235.06 177.679 234.771 176.799 234.835 175.909V169.17ZM236.878 176.17C236.852 176.518 236.955 176.863 237.169 177.138C237.385 177.326 237.662 177.429 237.948 177.429C238.235 177.429 238.511 177.326 238.728 177.138C238.941 176.863 239.045 176.518 239.018 176.17V169.073C239.048 168.725 238.944 168.379 238.728 168.105C238.511 167.917 238.235 167.814 237.948 167.814C237.662 167.814 237.385 167.917 237.169 168.105C236.953 168.379 236.849 168.725 236.878 169.073V176.17Z" fill="black"/>
<path d="M246.561 169.247C246.609 168.828 246.506 168.406 246.27 168.056C246.172 167.95 246.052 167.867 245.918 167.814C245.784 167.76 245.64 167.737 245.496 167.746C245.352 167.739 245.208 167.761 245.074 167.811C244.939 167.861 244.815 167.938 244.711 168.037C244.495 168.311 244.391 168.657 244.421 169.005V170.419H242.484V169.141C242.422 168.255 242.699 167.38 243.259 166.691C243.899 166.14 244.715 165.837 245.559 165.837C246.403 165.837 247.219 166.14 247.858 166.691C248.418 167.38 248.695 168.255 248.633 169.141C248.644 169.8 248.536 170.456 248.313 171.077C248.102 171.63 247.825 172.157 247.49 172.646C247.176 173.108 246.826 173.545 246.445 173.953C246.067 174.35 245.728 174.727 245.428 175.076C245.116 175.406 244.846 175.774 244.624 176.17C244.45 176.51 244.392 176.898 244.46 177.274H248.333V179.152H242.368V177.535C242.355 176.959 242.457 176.386 242.668 175.85C242.862 175.372 243.116 174.919 243.424 174.505C243.723 174.105 244.047 173.723 244.392 173.362C244.735 173.002 245.058 172.624 245.36 172.229C245.67 171.823 245.924 171.376 246.115 170.903C246.375 170.387 246.527 169.824 246.561 169.247Z" fill="black"/>
<path d="M336.518 161.133H321.075C318.535 161.133 316.476 163.192 316.476 165.732V181.176C316.476 183.716 318.535 185.775 321.075 185.775H336.518C339.058 185.775 341.117 183.716 341.117 181.176V165.732C341.117 163.192 339.058 161.133 336.518 161.133Z" fill="url(#paint10_linear)"/>
<path opacity="0.3" d="M336.518 161.133H321.075C318.535 161.133 316.476 163.192 316.476 165.732V181.176C316.476 183.716 318.535 185.775 321.075 185.775H336.518C339.058 185.775 341.117 183.716 341.117 181.176V165.732C341.117 163.192 339.058 161.133 336.518 161.133Z" fill="black"/>
<path d="M336.518 159.41H321.075C318.535 159.41 316.476 161.469 316.476 164.009V179.452C316.476 181.992 318.535 184.051 321.075 184.051H336.518C339.058 184.051 341.117 181.992 341.117 179.452V164.009C341.117 161.469 339.058 159.41 336.518 159.41Z" fill="url(#paint11_linear)"/>
<path opacity="0.8" d="M336.518 159.41H321.075C318.535 159.41 316.476 161.469 316.476 164.009V179.452C316.476 181.992 318.535 184.051 321.075 184.051H336.518C339.058 184.051 341.117 181.992 341.117 179.452V164.009C341.117 161.469 339.058 159.41 336.518 159.41Z" fill="white"/>
<path d="M322.547 168.201C322.489 167.312 322.777 166.434 323.35 165.752C324.002 165.202 324.827 164.901 325.679 164.901C326.531 164.901 327.356 165.202 328.008 165.752C328.581 166.434 328.869 167.312 328.811 168.201V174.979C328.838 175.616 328.702 176.249 328.414 176.819C328.449 176.922 328.522 177.008 328.618 177.061C328.746 177.081 328.877 177.081 329.005 177.061H329.189V178.9H328.908C328.517 178.916 328.128 178.837 327.775 178.668C327.489 178.526 327.26 178.29 327.127 178C326.905 178.077 326.679 178.139 326.449 178.184C326.193 178.227 325.934 178.25 325.674 178.252C325.248 178.279 324.821 178.216 324.421 178.067C324.021 177.919 323.656 177.688 323.35 177.39C322.775 176.709 322.487 175.83 322.547 174.94V168.201ZM324.609 175.163C324.582 175.511 324.686 175.856 324.9 176.131C325.116 176.319 325.393 176.422 325.679 176.422C325.965 176.422 326.242 176.319 326.458 176.131C326.672 175.856 326.776 175.511 326.749 175.163V168.066C326.779 167.718 326.675 167.372 326.458 167.098C326.242 166.91 325.965 166.807 325.679 166.807C325.393 166.807 325.116 166.91 324.9 167.098C324.683 167.372 324.58 167.718 324.609 168.066V175.163Z" fill="black"/>
<path d="M334.127 168.279C334.175 167.86 334.072 167.438 333.837 167.088C333.738 166.98 333.616 166.897 333.48 166.843C333.344 166.789 333.198 166.767 333.052 166.778C332.91 166.772 332.768 166.794 332.635 166.844C332.502 166.894 332.381 166.97 332.278 167.068C332.061 167.343 331.958 167.689 331.987 168.037V168.889H330.051V168.172C329.991 167.286 330.272 166.41 330.835 165.723C331.473 165.173 332.287 164.87 333.13 164.87C333.972 164.87 334.786 165.173 335.424 165.723C335.988 166.41 336.268 167.286 336.209 168.172V168.511C336.209 169.905 335.725 170.815 334.766 171.212C335.254 171.406 335.652 171.776 335.879 172.248C336.115 172.792 336.227 173.38 336.209 173.972V174.998C336.27 175.885 335.989 176.762 335.424 177.448C334.789 178.003 333.974 178.31 333.13 178.31C332.286 178.31 331.47 178.003 330.835 177.448C330.27 176.762 329.989 175.885 330.051 174.998V173.943H331.987V175.202C331.96 175.549 332.064 175.894 332.278 176.17C332.381 176.268 332.502 176.344 332.635 176.394C332.768 176.444 332.91 176.466 333.052 176.46C333.197 176.466 333.34 176.442 333.475 176.391C333.61 176.339 333.733 176.261 333.837 176.16C334.071 175.813 334.173 175.395 334.127 174.979V173.943C334.17 173.487 334.057 173.03 333.807 172.645C333.667 172.509 333.497 172.407 333.31 172.347C333.124 172.287 332.927 172.269 332.733 172.297H332.036V170.36H332.849C333.179 170.376 333.503 170.269 333.759 170.06C333.884 169.909 333.978 169.734 334.034 169.546C334.091 169.359 334.109 169.161 334.088 168.966L334.127 168.279Z" fill="black"/>
<path d="M294.604 116.189C294.604 116.895 294.604 117.602 294.604 118.319C294.61 124.418 293.786 130.489 292.154 136.366C290.59 142.046 288.279 147.494 285.28 152.565H285.503C284.815 153.746 284.089 154.898 283.334 156.031H283.101C273.876 169.715 259.969 179.556 243.995 183.703L242.668 184.022L241.913 184.197C237.042 185.297 232.064 185.849 227.07 185.843C223.572 185.845 220.079 185.577 216.623 185.039C214.443 184.704 212.281 184.258 210.146 183.703C208.509 183.277 206.902 182.802 205.305 182.26V182.406C204.065 181.992 202.845 181.537 201.645 181.04C190.419 176.445 180.634 168.918 173.314 159.246C172.433 158.103 171.61 156.931 170.826 155.731C170.303 154.947 169.8 154.143 169.316 153.33C168.541 152.052 167.805 150.754 167.118 149.457C166.759 148.769 166.421 148.082 166.091 147.385C165.907 147.027 165.743 146.659 165.578 146.291C165.336 145.758 165.104 145.226 164.871 144.683C161.407 136.404 159.626 127.517 159.633 118.541C159.633 117.244 159.633 115.956 159.74 114.668C159.827 113.197 159.953 111.764 160.137 110.282C161.232 101.335 164.11 92.6983 168.6 84.8821C173.09 77.066 179.102 70.2292 186.279 64.7758C190.824 61.3101 195.789 58.4312 201.054 56.207C202.516 55.597 204.007 55.0258 205.518 54.5223C219.987 49.6396 235.681 49.7863 250.056 54.9386C251.515 55.4615 252.954 56.036 254.374 56.6621C256.673 57.6681 258.913 58.8027 261.084 60.0605H261.2C261.859 60.4382 262.517 60.8351 263.137 61.2611C263.756 61.6872 264.444 62.0938 265.073 62.5295L265.199 62.7425C266.561 63.672 267.887 64.6402 269.178 65.6472C273.575 69.1467 277.523 73.176 280.933 77.6435C281.591 78.5052 282.22 79.3863 282.869 80.2771L283.189 80.7515C283.711 81.5358 284.234 82.3104 284.728 83.114C285.338 84.0822 285.929 85.1182 286.49 86.1445L286.539 86.2414C286.726 86.5553 286.897 86.8784 287.052 87.2096C287.139 87.3839 287.226 87.5678 287.323 87.7421C287.594 88.2746 287.855 88.8168 288.107 89.359C288.111 89.3847 288.111 89.4108 288.107 89.4365V89.4946L288.165 89.6108L288.214 89.7076L288.281 89.8625C288.285 89.8882 288.285 89.9143 288.281 89.94L288.562 90.55C291.283 96.4945 293.113 102.807 293.994 109.285L294.168 111.338C294.236 112.025 294.294 112.722 294.352 113.41C294.41 114.097 294.43 114.668 294.459 115.346C294.459 115.404 294.459 115.462 294.459 115.52C294.594 115.714 294.604 115.956 294.604 116.189Z" fill="#263238"/>
<path d="M294.604 116.189C294.604 116.895 294.604 117.602 294.604 118.319C294.61 124.418 293.786 130.489 292.154 136.366C290.59 142.046 288.279 147.494 285.28 152.565H285.503C284.815 153.746 284.089 154.898 283.334 156.031H283.101C273.876 169.715 259.969 179.556 243.995 183.703L242.668 184.022L241.913 184.197C237.042 185.297 232.064 185.849 227.07 185.843C223.572 185.845 220.079 185.577 216.623 185.039C214.443 184.704 212.281 184.258 210.146 183.703C208.509 183.277 206.902 182.802 205.305 182.26V182.406C204.065 181.992 202.845 181.537 201.645 181.04C190.419 176.445 180.634 168.918 173.314 159.246C172.433 158.103 171.61 156.931 170.826 155.731C170.303 154.947 169.8 154.143 169.316 153.33C168.541 152.052 167.805 150.754 167.118 149.457C166.759 148.769 166.421 148.082 166.091 147.385C165.907 147.027 165.743 146.659 165.578 146.291C165.336 145.758 165.104 145.226 164.871 144.683C161.407 136.404 159.626 127.517 159.633 118.541C159.633 117.244 159.633 115.956 159.74 114.668C159.827 113.197 159.953 111.764 160.137 110.282C161.232 101.335 164.11 92.6983 168.6 84.8821C173.09 77.066 179.102 70.2292 186.279 64.7758C190.824 61.3101 195.789 58.4312 201.054 56.207C202.516 55.597 204.007 55.0258 205.518 54.5223C219.987 49.6396 235.681 49.7863 250.056 54.9386C251.515 55.4615 252.954 56.036 254.374 56.6621C256.673 57.6681 258.913 58.8027 261.084 60.0605H261.2C261.859 60.4382 262.517 60.8351 263.137 61.2611C263.756 61.6872 264.444 62.0938 265.073 62.5295L265.199 62.7425C266.561 63.672 267.887 64.6402 269.178 65.6472C273.575 69.1467 277.523 73.176 280.933 77.6435C281.591 78.5052 282.22 79.3863 282.869 80.2771L283.189 80.7515C283.711 81.5358 284.234 82.3104 284.728 83.114C285.338 84.0822 285.929 85.1182 286.49 86.1445L286.539 86.2414L288.117 89.359C288.12 89.3847 288.12 89.4108 288.117 89.4365V89.4946L288.175 89.6108L288.223 89.7076L288.291 89.8625C288.295 89.8882 288.295 89.9143 288.291 89.94L288.572 90.55C291.292 96.4945 293.122 102.807 294.004 109.285L294.178 111.338C294.246 112.025 294.304 112.722 294.362 113.41C294.42 114.097 294.439 114.668 294.468 115.346C294.468 115.404 294.468 115.462 294.468 115.52C294.594 115.714 294.604 115.956 294.604 116.189Z" fill="url(#paint12_linear)"/>
<path d="M237.392 110.379H236.027H233.219H224.815H216.343H208.258H207.832C207.832 110.931 207.832 111.493 207.832 112.044C207.832 112.674 207.832 113.303 207.832 113.923L208.093 114.174C208.006 114.271 207.919 114.349 207.832 114.436V114.814C210.659 114.814 213.496 114.814 216.314 114.814H217.04H224.786L233.161 114.746L241.439 114.649L249.601 114.533C249.65 113.071 249.698 111.628 249.737 110.137H250.841L237.392 110.379ZM294.585 115.482C294.585 115.753 294.537 116.024 294.517 116.295C293.975 123.227 293.2 129.976 292.193 136.366C293.825 130.489 294.649 124.418 294.643 118.318C294.643 117.602 294.643 116.895 294.643 116.188C294.604 115.956 294.595 115.714 294.585 115.482ZM237.392 110.379H236.027H233.219H224.815H216.343H208.258H207.832C207.832 110.931 207.832 111.493 207.832 112.044C207.832 112.674 207.832 113.303 207.832 113.923L208.093 114.174C208.006 114.271 207.919 114.349 207.832 114.436V114.814C210.659 114.814 213.496 114.814 216.314 114.814H217.04H224.786L233.161 114.746L241.439 114.649L249.601 114.533C249.65 113.071 249.698 111.628 249.737 110.137H250.841L237.392 110.379ZM237.392 110.379H236.027H233.219H224.815H216.343H208.258H207.832C207.832 110.931 207.832 111.493 207.832 112.044C207.832 112.674 207.832 113.303 207.832 113.923L208.093 114.174C208.006 114.271 207.919 114.349 207.832 114.436V114.814C210.659 114.814 213.496 114.814 216.314 114.814H217.04H224.786L233.161 114.746L241.439 114.649L249.601 114.533C249.65 113.071 249.698 111.628 249.737 110.137H250.841L237.392 110.379ZM237.392 110.379H236.027H233.219H224.815H216.343H208.258H207.832C207.832 110.931 207.832 111.493 207.832 112.044C207.832 112.674 207.832 113.303 207.832 113.923L208.093 114.174C208.006 114.271 207.919 114.349 207.832 114.436V114.814C210.659 114.814 213.496 114.814 216.314 114.814H217.04H224.786L233.161 114.746L241.439 114.649L249.601 114.533C249.65 113.071 249.698 111.628 249.737 110.137H250.841L237.392 110.379ZM237.392 110.379H236.027H233.219H224.815H216.343H208.258H207.832C207.832 110.931 207.832 111.493 207.832 112.044C207.832 112.674 207.832 113.303 207.832 113.923L208.093 114.174C208.006 114.271 207.919 114.349 207.832 114.436V114.814C210.659 114.814 213.496 114.814 216.314 114.814H217.04H224.786L233.161 114.746L241.439 114.649L249.601 114.533C249.65 113.071 249.698 111.628 249.737 110.137H250.841L237.392 110.379ZM237.392 110.379H236.027H233.219H224.815H216.343H208.258H207.832C207.832 110.931 207.832 111.493 207.832 112.044C207.832 112.674 207.832 113.303 207.832 113.923L208.093 114.174C208.006 114.271 207.919 114.349 207.832 114.436V114.814C210.659 114.814 213.496 114.814 216.314 114.814H217.04H224.786L233.161 114.746L241.439 114.649L249.601 114.533C249.65 113.071 249.698 111.628 249.737 110.137H250.841L237.392 110.379ZM237.392 110.379H236.027H233.219H224.815H216.343H208.258H207.832C207.832 110.931 207.832 111.493 207.832 112.044C207.832 112.674 207.832 113.303 207.832 113.923L208.093 114.174C208.006 114.271 207.919 114.349 207.832 114.436V114.814C210.659 114.814 213.496 114.814 216.314 114.814H217.04H224.786L233.161 114.746L241.439 114.649L249.601 114.533C249.65 113.071 249.698 111.628 249.737 110.137H250.841L237.392 110.379ZM237.392 110.379H236.027H233.219H224.815H216.343H208.258H207.832C207.832 110.931 207.832 111.493 207.832 112.044C207.832 112.674 207.832 113.303 207.832 113.923L208.093 114.174C208.006 114.271 207.919 114.349 207.832 114.436V114.814C210.659 114.814 213.496 114.814 216.314 114.814H217.04H224.786L233.161 114.746L241.439 114.649L249.601 114.533C249.65 113.071 249.698 111.628 249.737 110.137H250.841L237.392 110.379ZM237.392 110.379H236.027H233.219H224.815H216.343H208.258H207.832C207.832 110.931 207.832 111.493 207.832 112.044C207.832 112.674 207.832 113.303 207.832 113.923L208.093 114.174L207.822 114.436V114.823C210.65 114.823 213.486 114.823 216.304 114.823H217.03H224.776L233.151 114.755L241.429 114.659L249.592 114.542C249.64 113.08 249.688 111.638 249.727 110.147H250.831L237.392 110.379ZM237.392 110.379H236.027H233.219H224.815H216.343H208.258H207.832C207.832 110.931 207.832 111.493 207.832 112.044C207.832 112.674 207.832 113.303 207.832 113.923L208.093 114.174L207.822 114.436V114.823C210.65 114.823 213.486 114.823 216.304 114.823H217.03H224.776L233.151 114.755L241.429 114.659L249.592 114.542C249.64 113.08 249.688 111.638 249.727 110.147H250.831L237.392 110.379ZM249.708 110.243H250.812L237.392 110.398H236.027H233.219H224.815H216.343H208.258H207.832C207.832 110.95 207.832 111.512 207.832 112.064C207.832 112.693 207.832 113.322 207.832 113.942L208.093 114.194L207.822 114.455V114.843H205.566V116.673C205.566 131.07 205.566 144.703 205.489 156.186C219.722 156.186 233.945 155.847 247.52 155.218C248.217 149.883 248.827 144.093 249.32 137.973C249.427 136.637 249.533 135.291 249.63 133.926C250.085 127.681 250.434 121.155 250.676 114.475H249.572C249.621 113.177 249.669 111.715 249.708 110.243ZM250.87 74.0996C250.87 73.4413 250.87 72.7829 250.821 72.1632C250.744 69.8007 250.666 67.4673 250.569 65.1532C236.046 64.8434 220.826 64.6788 205.557 64.6691C205.557 78.7568 205.557 93.7159 205.557 108.239V110.582H205.963C206.144 110.592 206.325 110.592 206.506 110.582H206.932H215.016H223.488H231.892H234.7H236.065L249.485 110.427C251.16 98.2956 251.179 85.9991 250.87 74.0996ZM237.392 110.379H236.027H233.219H224.815H216.343H208.258H207.832C207.832 110.931 207.832 111.493 207.832 112.044C207.832 112.674 207.832 113.303 207.832 113.923L208.093 114.174L207.822 114.436V114.823C210.65 114.823 213.486 114.823 216.304 114.823H217.03H224.776L233.151 114.755L241.429 114.659L249.592 114.542C249.64 113.08 249.688 111.638 249.727 110.147H250.831L237.392 110.379ZM237.392 110.379H236.027H233.219H224.815H216.343H208.258H207.832C207.832 110.931 207.832 111.493 207.832 112.044C207.832 112.674 207.832 113.303 207.832 113.923L208.093 114.174L207.822 114.436V114.823C210.65 114.823 213.486 114.823 216.304 114.823H217.03H224.776L233.151 114.755L241.429 114.659L249.592 114.542C249.64 113.08 249.688 111.638 249.727 110.147H250.831L237.392 110.379ZM237.392 110.379H236.027H233.219H224.815H216.343H208.258H207.832C207.832 110.931 207.832 111.493 207.832 112.044C207.832 112.674 207.832 113.303 207.832 113.923L208.093 114.174L207.822 114.436V114.823C210.65 114.823 213.486 114.823 216.304 114.823H217.03H224.776L233.151 114.755L241.429 114.659L249.592 114.542C249.64 113.08 249.688 111.638 249.727 110.147H250.831L237.392 110.379ZM237.392 110.379H236.027H233.219H224.815H216.343H208.258H207.832C207.832 110.931 207.832 111.493 207.832 112.044C207.832 112.674 207.832 113.303 207.832 113.923L208.093 114.174C208.006 114.271 207.919 114.349 207.832 114.436V114.814C210.659 114.814 213.496 114.814 216.314 114.814H217.04H224.786L233.161 114.746L241.439 114.649L249.601 114.533C249.65 113.071 249.698 111.628 249.737 110.137H250.841L237.392 110.379ZM237.392 110.379H236.027H233.219H224.815H216.343H208.258H207.832C207.832 110.931 207.832 111.493 207.832 112.044C207.832 112.674 207.832 113.303 207.832 113.923L208.093 114.174C208.006 114.271 207.919 114.349 207.832 114.436V114.814C210.659 114.814 213.496 114.814 216.314 114.814H217.04H224.786L233.161 114.746L241.439 114.649L249.601 114.533C249.65 113.071 249.698 111.628 249.737 110.137H250.841L237.392 110.379ZM237.392 110.379H236.027H233.219H224.815H216.343H208.258H207.832C207.832 110.931 207.832 111.493 207.832 112.044C207.832 112.674 207.832 113.303 207.832 113.923L208.093 114.174C208.006 114.271 207.919 114.349 207.832 114.436V114.814C210.659 114.814 213.496 114.814 216.314 114.814H217.04H224.786L233.161 114.746L241.439 114.649L249.601 114.533C249.65 113.071 249.698 111.628 249.737 110.137H250.841L237.392 110.379ZM237.392 110.379H236.027H233.219H224.815H216.343H208.258H207.832C207.832 110.931 207.832 111.493 207.832 112.044C207.832 112.674 207.832 113.303 207.832 113.923L208.093 114.174C208.006 114.271 207.919 114.349 207.832 114.436V114.814C210.659 114.814 213.496 114.814 216.314 114.814H217.04H224.786L233.161 114.746L241.439 114.649L249.601 114.533C249.65 113.071 249.698 111.628 249.737 110.137H250.841L237.392 110.379ZM237.392 110.379H236.027H233.219H224.815H216.343H208.258H207.832C207.832 110.931 207.832 111.493 207.832 112.044C207.832 112.674 207.832 113.303 207.832 113.923L208.093 114.174C208.006 114.271 207.919 114.349 207.832 114.436V114.814C210.659 114.814 213.496 114.814 216.314 114.814H217.04H224.786L233.161 114.746L241.439 114.649L249.601 114.533C249.65 113.071 249.698 111.628 249.737 110.137H250.841L237.392 110.379ZM237.392 110.379H236.027H233.219H224.815H216.343H208.258H207.832C207.832 110.931 207.832 111.493 207.832 112.044C207.832 112.674 207.832 113.303 207.832 113.923L208.093 114.174C208.006 114.271 207.919 114.349 207.832 114.436V114.814C210.659 114.814 213.496 114.814 216.314 114.814H217.04H224.786L233.161 114.746L241.439 114.649L249.601 114.533C249.65 113.071 249.698 111.628 249.737 110.137H250.841L237.392 110.379ZM237.392 110.379H236.027H233.219H224.815H216.343H208.258H207.832C207.832 110.931 207.832 111.493 207.832 112.044C207.832 112.674 207.832 113.303 207.832 113.923L208.093 114.174C208.006 114.271 207.919 114.349 207.832 114.436V114.814C210.659 114.814 213.496 114.814 216.314 114.814H217.04H224.786L233.161 114.746L241.439 114.649L249.601 114.533C249.65 113.071 249.698 111.628 249.737 110.137H250.841L237.392 110.379ZM294.285 111.347L294.111 109.295H294.004C282.986 109.663 270.641 109.953 257.56 110.156H255.052C255.052 109.295 255.11 108.423 255.13 107.552C255.517 93.4545 255.401 78.9311 254.781 65.2113H256.418L260.436 65.3178L269.15 65.5793C267.859 64.5529 266.532 63.5847 265.17 62.6746L265.044 62.4616C264.396 62.0259 263.747 61.5999 263.108 61.1932H262.914L258.664 61.0576L254.617 60.9511C254.539 59.5085 254.462 58.0465 254.375 56.6619C252.961 56.0164 251.522 55.4419 250.056 54.9385C250.172 56.8749 250.279 58.8436 250.376 60.8446C235.94 60.4864 220.758 60.3024 205.557 60.2928C205.557 58.3563 205.557 56.4198 205.557 54.4834C204.046 54.9869 202.555 55.5581 201.093 56.1681C201.093 57.5236 201.093 58.8791 201.093 60.254H192.921C190.661 61.5855 188.482 63.0501 186.395 64.6401C191.237 64.6401 196.175 64.582 201.083 64.5723C201.035 79.4152 201.025 95.236 201.083 110.447C187.644 110.447 174.264 110.35 161.386 110.185H160.195C160.011 111.628 159.885 113.09 159.798 114.571C160.37 114.571 160.951 114.571 161.531 114.571C168.842 114.688 176.326 114.775 183.907 114.823H186.521H190.956H195.323H201.054C201.054 129.898 201.18 144.199 201.296 156.157C191.062 156.157 180.848 155.924 170.904 155.566C171.688 156.767 172.511 157.938 173.392 159.081C182.552 159.41 191.924 159.584 201.306 159.613C201.403 168.327 201.529 175.579 201.674 180.721V181.011C202.875 181.508 204.095 181.963 205.334 182.376V182.231C205.392 177.051 205.431 169.267 205.46 159.759C219.528 159.759 233.587 159.41 247.016 158.79C246.674 161.133 246.306 163.364 245.912 165.481C245.796 166.159 245.67 166.817 245.544 167.466C244.131 174.727 242.436 180.508 240.471 184.197C232.667 184.623 224.679 184.913 216.643 185.039C220.099 185.577 223.592 185.845 227.09 185.843C232.084 185.849 237.062 185.297 241.933 184.197L242.688 184.022L244.015 183.703C246.861 178.571 249.185 169.722 250.966 158.577C262.314 157.958 273.158 157.106 283.121 156.031H283.354C284.109 154.898 284.835 153.746 285.522 152.565H285.3C274.882 153.678 263.466 154.501 251.48 155.169C253.305 141.68 254.452 128.108 254.917 114.504C268.278 114.252 280.904 113.903 292.203 113.448H293.055L294.449 113.39C294.411 112.703 294.353 112.006 294.285 111.299V111.347Z" fill="url(#paint13_linear)"/>
<path opacity="0.8" d="M237.392 110.379H236.027H233.219H224.815H216.343H208.258H207.832C207.832 110.931 207.832 111.493 207.832 112.044C207.832 112.674 207.832 113.303 207.832 113.923L208.093 114.174C208.006 114.271 207.919 114.349 207.832 114.436V114.814C210.659 114.814 213.496 114.814 216.314 114.814H217.04H224.786L233.161 114.746L241.439 114.649L249.601 114.533C249.65 113.071 249.698 111.628 249.737 110.137H250.841L237.392 110.379ZM294.604 116.188C294.604 115.956 294.604 115.714 294.604 115.482C294.604 115.753 294.556 116.024 294.537 116.295C293.994 123.227 293.22 129.976 292.213 136.366C293.844 130.489 294.668 124.418 294.662 118.318C294.643 117.602 294.633 116.895 294.604 116.188ZM237.392 110.379H236.027H233.219H224.815H216.343H208.258H207.832C207.832 110.931 207.832 111.493 207.832 112.044C207.832 112.674 207.832 113.303 207.832 113.923L208.093 114.174C208.006 114.271 207.919 114.349 207.832 114.436V114.814C210.659 114.814 213.496 114.814 216.314 114.814H217.04H224.786L233.161 114.746L241.439 114.649L249.601 114.533C249.65 113.071 249.698 111.628 249.737 110.137H250.841L237.392 110.379ZM237.392 110.379H236.027H233.219H224.815H216.343H208.258H207.832C207.832 110.931 207.832 111.493 207.832 112.044C207.832 112.674 207.832 113.303 207.832 113.923L208.093 114.174C208.006 114.271 207.919 114.349 207.832 114.436V114.814C210.659 114.814 213.496 114.814 216.314 114.814H217.04H224.786L233.161 114.746L241.439 114.649L249.601 114.533C249.65 113.071 249.698 111.628 249.737 110.137H250.841L237.392 110.379ZM237.392 110.379H236.027H233.219H224.815H216.343H208.258H207.832C207.832 110.931 207.832 111.493 207.832 112.044C207.832 112.674 207.832 113.303 207.832 113.923L208.093 114.174C208.006 114.271 207.919 114.349 207.832 114.436V114.814C210.659 114.814 213.496 114.814 216.314 114.814H217.04H224.786L233.161 114.746L241.439 114.649L249.601 114.533C249.65 113.071 249.698 111.628 249.737 110.137H250.841L237.392 110.379ZM237.392 110.379H236.027H233.219H224.815H216.343H208.258H207.832C207.832 110.931 207.832 111.493 207.832 112.044C207.832 112.674 207.832 113.303 207.832 113.923L208.093 114.174C208.006 114.271 207.919 114.349 207.832 114.436V114.814C210.659 114.814 213.496 114.814 216.314 114.814H217.04H224.786L233.161 114.746L241.439 114.649L249.601 114.533C249.65 113.071 249.698 111.628 249.737 110.137H250.841L237.392 110.379ZM237.392 110.379H236.027H233.219H224.815H216.343H208.258H207.832C207.832 110.931 207.832 111.493 207.832 112.044C207.832 112.674 207.832 113.303 207.832 113.923L208.093 114.174C208.006 114.271 207.919 114.349 207.832 114.436V114.814C210.659 114.814 213.496 114.814 216.314 114.814H217.04H224.786L233.161 114.746L241.439 114.649L249.601 114.533C249.65 113.071 249.698 111.628 249.737 110.137H250.841L237.392 110.379ZM237.392 110.379H236.027H233.219H224.815H216.343H208.258H207.832C207.832 110.931 207.832 111.493 207.832 112.044C207.832 112.674 207.832 113.303 207.832 113.923L208.093 114.174C208.006 114.271 207.919 114.349 207.832 114.436V114.814C210.659 114.814 213.496 114.814 216.314 114.814H217.04H224.786L233.161 114.746L241.439 114.649L249.601 114.533C249.65 113.071 249.698 111.628 249.737 110.137H250.841L237.392 110.379ZM237.392 110.379H236.027H233.219H224.815H216.343H208.258H207.832C207.832 110.931 207.832 111.493 207.832 112.044C207.832 112.674 207.832 113.303 207.832 113.923L208.093 114.174C208.006 114.271 207.919 114.349 207.832 114.436V114.814C210.659 114.814 213.496 114.814 216.314 114.814H217.04H224.786L233.161 114.746L241.439 114.649L249.601 114.533C249.65 113.071 249.698 111.628 249.737 110.137H250.841L237.392 110.379ZM237.392 110.379H236.027H233.219H224.815H216.343H208.258H207.832C207.832 110.931 207.832 111.493 207.832 112.044C207.832 112.674 207.832 113.303 207.832 113.923L208.093 114.174L207.822 114.436V114.823C210.65 114.823 213.486 114.823 216.304 114.823H217.03H224.776L233.151 114.755L241.429 114.659L249.592 114.542C249.64 113.08 249.688 111.638 249.727 110.147H250.831L237.392 110.379ZM237.392 110.379H236.027H233.219H224.815H216.343H208.258H207.832C207.832 110.931 207.832 111.493 207.832 112.044C207.832 112.674 207.832 113.303 207.832 113.923L208.093 114.174L207.822 114.436V114.823C210.65 114.823 213.486 114.823 216.304 114.823H217.03H224.776L233.151 114.755L241.429 114.659L249.592 114.542C249.64 113.08 249.688 111.638 249.727 110.147H250.831L237.392 110.379ZM237.392 110.379H236.027H233.219H224.815H216.343H208.258H207.832C207.832 110.931 207.832 111.493 207.832 112.044C207.832 112.674 207.832 113.303 207.832 113.923L208.093 114.174L207.822 114.436V114.823C210.65 114.823 213.486 114.823 216.304 114.823H217.03H224.776L233.151 114.755L241.429 114.659L249.592 114.542C249.64 113.08 249.688 111.638 249.727 110.147H250.831L237.392 110.379ZM237.392 110.379H236.027H233.219H224.815H216.343H208.258H207.832C207.832 110.931 207.832 111.493 207.832 112.044C207.832 112.674 207.832 113.303 207.832 113.923L208.093 114.174L207.822 114.436V114.823C210.65 114.823 213.486 114.823 216.304 114.823H217.03H224.776L233.151 114.755L241.429 114.659L249.592 114.542C249.64 113.08 249.688 111.638 249.727 110.147H250.831L237.392 110.379ZM237.392 110.379H236.027H233.219H224.815H216.343H208.258H207.832C207.832 110.931 207.832 111.493 207.832 112.044C207.832 112.674 207.832 113.303 207.832 113.923L208.093 114.174L207.822 114.436V114.823C210.65 114.823 213.486 114.823 216.304 114.823H217.03H224.776L233.151 114.755L241.429 114.659L249.592 114.542C249.64 113.08 249.688 111.638 249.727 110.147H250.831L237.392 110.379ZM237.392 110.379H236.027H233.219H224.815H216.343H208.258H207.832C207.832 110.931 207.832 111.493 207.832 112.044C207.832 112.674 207.832 113.303 207.832 113.923L208.093 114.174L207.822 114.436V114.823C210.65 114.823 213.486 114.823 216.304 114.823H217.03H224.776L233.151 114.755L241.429 114.659L249.592 114.542C249.64 113.08 249.688 111.638 249.727 110.147H250.831L237.392 110.379ZM237.392 110.379H236.027H233.219H224.815H216.343H208.258H207.832C207.832 110.931 207.832 111.493 207.832 112.044C207.832 112.674 207.832 113.303 207.832 113.923L208.093 114.174C208.006 114.271 207.919 114.349 207.832 114.436V114.814C210.659 114.814 213.496 114.814 216.314 114.814H217.04H224.786L233.161 114.746L241.439 114.649L249.601 114.533C249.65 113.071 249.698 111.628 249.737 110.137H250.841L237.392 110.379ZM237.392 110.379H236.027H233.219H224.815H216.343H208.258H207.832C207.832 110.931 207.832 111.493 207.832 112.044C207.832 112.674 207.832 113.303 207.832 113.923L208.093 114.174C208.006 114.271 207.919 114.349 207.832 114.436V114.814C210.659 114.814 213.496 114.814 216.314 114.814H217.04H224.786L233.161 114.746L241.439 114.649L249.601 114.533C249.65 113.071 249.698 111.628 249.737 110.137H250.841L237.392 110.379ZM237.392 110.379H236.027H233.219H224.815H216.343H208.258H207.832C207.832 110.931 207.832 111.493 207.832 112.044C207.832 112.674 207.832 113.303 207.832 113.923L208.093 114.174C208.006 114.271 207.919 114.349 207.832 114.436V114.814C210.659 114.814 213.496 114.814 216.314 114.814H217.04H224.786L233.161 114.746L241.439 114.649L249.601 114.533C249.65 113.071 249.698 111.628 249.737 110.137H250.841L237.392 110.379ZM237.392 110.379H236.027H233.219H224.815H216.343H208.258H207.832C207.832 110.931 207.832 111.493 207.832 112.044C207.832 112.674 207.832 113.303 207.832 113.923L208.093 114.174C208.006 114.271 207.919 114.349 207.832 114.436V114.814C210.659 114.814 213.496 114.814 216.314 114.814H217.04H224.786L233.161 114.746L241.439 114.649L249.601 114.533C249.65 113.071 249.698 111.628 249.737 110.137H250.841L237.392 110.379ZM237.392 110.379H236.027H233.219H224.815H216.343H208.258H207.832C207.832 110.931 207.832 111.493 207.832 112.044C207.832 112.674 207.832 113.303 207.832 113.923L208.093 114.174C208.006 114.271 207.919 114.349 207.832 114.436V114.814C210.659 114.814 213.496 114.814 216.314 114.814H217.04H224.786L233.161 114.746L241.439 114.649L249.601 114.533C249.65 113.071 249.698 111.628 249.737 110.137H250.841L237.392 110.379ZM237.392 110.379H236.027H233.219H224.815H216.343H208.258H207.832C207.832 110.931 207.832 111.493 207.832 112.044C207.832 112.674 207.832 113.303 207.832 113.923L208.093 114.174C208.006 114.271 207.919 114.349 207.832 114.436V114.814C210.659 114.814 213.496 114.814 216.314 114.814H217.04H224.786L233.161 114.746L241.439 114.649L249.601 114.533C249.65 113.071 249.698 111.628 249.737 110.137H250.841L237.392 110.379ZM237.392 110.379H236.027H233.219H224.815H216.343H208.258H207.832C207.832 110.931 207.832 111.493 207.832 112.044C207.832 112.674 207.832 113.303 207.832 113.923L208.093 114.174C208.006 114.271 207.919 114.349 207.832 114.436V114.814C210.659 114.814 213.496 114.814 216.314 114.814H217.04H224.786L233.161 114.746L241.439 114.649L249.601 114.533C249.65 113.071 249.698 111.628 249.737 110.137H250.841L237.392 110.379ZM294.285 111.347L294.111 109.295H294.004C282.986 109.663 270.641 109.953 257.56 110.156H255.052C255.052 109.295 255.11 108.423 255.13 107.552C255.517 93.4545 255.401 78.9311 254.781 65.2113H256.418L260.436 65.3178L269.15 65.5793C267.859 64.5529 266.532 63.5847 265.17 62.6746L265.044 62.4616C264.396 62.0259 263.747 61.5999 263.108 61.1932H262.914L258.664 61.0576L254.617 60.9511C254.539 59.5085 254.462 58.0465 254.375 56.6619C252.961 56.0164 251.522 55.4419 250.056 54.9385C250.172 56.8749 250.279 58.8436 250.376 60.8446C235.94 60.4864 220.758 60.3024 205.557 60.2928C205.557 58.3563 205.557 56.4198 205.557 54.4834C204.046 54.9869 202.555 55.5581 201.093 56.1681C201.093 57.5236 201.093 58.8791 201.093 60.254H192.921C190.661 61.5855 188.482 63.0501 186.395 64.6401C191.237 64.6401 196.175 64.582 201.083 64.5723C201.035 79.4152 201.025 95.236 201.083 110.447C187.644 110.447 174.264 110.35 161.386 110.185H160.195C160.011 111.628 159.885 113.09 159.798 114.571C160.37 114.571 160.951 114.571 161.531 114.571C168.842 114.688 176.326 114.775 183.907 114.823H186.521H190.956H195.323H201.054C201.054 129.898 201.18 144.199 201.296 156.157C191.062 156.157 180.848 155.924 170.904 155.566C171.688 156.767 172.511 157.938 173.392 159.081C182.552 159.41 191.924 159.584 201.306 159.613C201.403 168.327 201.529 175.579 201.674 180.721V181.011C202.875 181.508 204.095 181.963 205.334 182.376V182.231C205.392 177.051 205.431 169.267 205.46 159.759C219.528 159.759 233.587 159.41 247.016 158.79C246.674 161.133 246.306 163.364 245.912 165.481C245.796 166.159 245.67 166.817 245.544 167.466C244.131 174.727 242.436 180.508 240.471 184.197C232.667 184.623 224.679 184.913 216.643 185.039C220.099 185.577 223.592 185.845 227.09 185.843C232.084 185.849 237.062 185.297 241.933 184.197L242.688 184.022L244.015 183.703C246.861 178.571 249.185 169.722 250.966 158.577C262.314 157.958 273.158 157.106 283.121 156.031H283.354C284.109 154.898 284.835 153.746 285.522 152.565H285.3C274.882 153.678 263.466 154.501 251.48 155.169C253.305 141.68 254.452 128.108 254.917 114.504C268.278 114.252 280.904 113.903 292.203 113.448H293.055L294.449 113.39C294.411 112.703 294.353 112.006 294.285 111.299V111.347ZM249.63 134.101C249.533 135.466 249.427 136.812 249.32 138.148C248.827 144.267 248.217 150.057 247.52 155.392C233.964 156.031 219.722 156.36 205.489 156.36C205.489 144.877 205.547 131.244 205.566 116.847V115.017H207.832C210.659 115.017 213.496 115.017 216.314 115.017H217.04H224.786L233.161 114.949L241.439 114.852L249.601 114.736H250.705C250.434 121.301 250.085 127.826 249.63 134.072V134.101ZM250.812 110.253L237.392 110.408H236.027H233.219H224.815H216.343H208.258H207.832C207.651 110.418 207.47 110.418 207.29 110.408H206.864V108.065C206.864 93.5416 206.864 78.6116 206.864 64.4949C222.133 64.4949 237.382 64.6691 251.877 64.979C251.973 67.293 252.051 69.6264 252.128 71.9889C252.128 72.6376 252.128 73.296 252.177 73.9254C251.179 85.9991 251.16 98.2956 250.812 110.224V110.253Z" fill="white"/>
<path d="M250.676 114.62C250.434 121.301 250.085 127.827 249.63 134.072C249.533 135.437 249.427 136.783 249.32 138.119C248.827 144.238 248.217 150.028 247.519 155.363C233.964 156.002 219.722 156.331 205.489 156.331C205.489 144.848 205.547 131.216 205.566 116.818V114.988H207.832C210.659 114.988 213.496 114.988 216.314 114.988H217.04H224.786L233.161 114.92L241.439 114.823L249.601 114.707L250.676 114.62Z" fill="url(#paint14_linear)"/>
<path d="M250.812 110.224L237.392 110.379H236.027H233.219H224.815H216.343H208.258H207.832C207.651 110.389 207.47 110.389 207.29 110.379H206.864V108.036C206.864 93.5126 206.864 78.5825 206.864 64.4658C222.133 64.4658 237.382 64.6401 251.877 64.9499C251.973 67.264 252.051 69.5974 252.128 71.9599C252.128 72.6086 252.128 73.267 252.177 73.8963C251.179 85.9992 251.16 98.2956 250.812 110.224Z" fill="url(#paint15_linear)"/>
<path d="M205.344 114.339L201.693 111.183L205.344 108.007L208.994 111.183L205.344 114.339Z" fill="#263238"/>
<path d="M265.238 62.6942L265.112 62.4812C264.463 62.0455 263.815 61.6195 263.175 61.2128C262.536 60.8061 261.868 60.3898 261.239 60.0122H261.123L258.76 60.9804L257.928 61.3387L255.071 63.9142L256.504 65.1728L258.605 67.0318L260.542 65.2794L260.949 64.9114L265.509 62.975L265.238 62.6942ZM250.821 72.1344L248.381 69.9752C246.135 72.0021 243.846 74.0483 241.516 76.1138L245.108 79.3477L250.869 74.1483L251.944 73.1801L250.821 72.1344ZM234.468 82.3879L227.283 88.7588L230.905 91.9636C233.319 89.8335 235.71 87.7099 238.079 85.5927L234.468 82.3879ZM220.002 95.1782L212.673 101.617L216.313 104.812L223.633 98.3927L220.002 95.1782Z" fill="#263238"/>
<g opacity="0.5">
<path opacity="0.5" d="M279.316 85.5537H275.511L271.734 89.6009L274.571 92.6992C275.443 91.731 276.304 90.7628 277.157 89.872H279.316C279.345 88.439 279.335 86.9964 279.316 85.5537ZM266.312 95.449C264.466 97.3854 262.591 99.3574 260.687 101.365C261.668 102.398 262.636 103.427 263.592 104.453C265.489 102.478 267.358 100.51 269.198 98.5473C268.229 97.521 267.281 96.485 266.312 95.449ZM216.342 110.505C216.342 111.996 216.342 113.487 216.342 114.968H217.068H224.814C224.814 113.497 224.814 112.006 224.872 110.515L216.342 110.505ZM237.392 110.379H236.026H233.218C233.218 111.87 233.16 113.342 233.131 114.813L241.41 114.717C241.458 113.255 241.497 111.812 241.526 110.302L237.392 110.379ZM257.598 110.127L255.168 107.561L254.926 107.31C253.958 108.278 252.99 109.246 252.07 110.214H250.811H249.707C249.707 111.686 249.62 113.119 249.572 114.61H250.676L253.687 114.562L257.831 110.369L257.598 110.127Z" fill="black"/>
<path opacity="0.5" d="M207.832 114.998H203.31V110.524H207.832C207.832 112.025 207.832 113.507 207.832 114.998Z" fill="black"/>
<g opacity="0.2">
<path opacity="0.2" d="M279.316 85.5537H275.511L271.734 89.6009L274.571 92.6992C275.443 91.731 276.304 90.7628 277.157 89.872H279.316C279.345 88.439 279.335 86.9964 279.316 85.5537ZM266.312 95.449C264.466 97.3854 262.591 99.3574 260.687 101.365C261.668 102.398 262.636 103.427 263.592 104.453C265.489 102.478 267.358 100.51 269.198 98.5473C268.229 97.521 267.281 96.485 266.312 95.449ZM216.342 110.505C216.342 111.996 216.342 113.487 216.342 114.968H217.068H224.814C224.814 113.497 224.814 112.006 224.872 110.515L216.342 110.505ZM237.392 110.379H236.026H233.218C233.218 111.87 233.16 113.342 233.131 114.813L241.41 114.717C241.458 113.255 241.497 111.812 241.526 110.302L237.392 110.379ZM257.598 110.127L255.168 107.561L254.926 107.31C253.958 108.278 252.99 109.246 252.07 110.214H250.811H249.707C249.707 111.686 249.62 113.119 249.572 114.61H250.676L253.687 114.562L257.831 110.369L257.598 110.127Z" fill="black"/>
<path opacity="0.2" d="M207.832 114.998H203.31V110.524H207.832C207.832 112.025 207.832 113.507 207.832 114.998Z" fill="black"/>
</g>
</g>
<g opacity="0.3">
<path opacity="0.3" d="M204.927 117.486L201.732 114.339L204.927 111.183L208.122 114.339L204.927 117.486Z" fill="black"/>
<path opacity="0.3" d="M294.585 115.481C294.585 115.423 294.585 115.365 294.585 115.307L293.035 113.448C292.91 113.293 292.784 113.129 292.648 112.974L292.183 113.487C290.45 115.423 288.669 117.36 286.868 119.296C287.662 120.264 288.436 121.145 289.201 122.065C290.993 120.129 292.764 118.192 294.478 116.256C294.513 116.225 294.542 116.189 294.565 116.149C294.604 115.956 294.594 115.714 294.585 115.481ZM214.667 120.807L211.472 123.905C213.641 126.016 215.79 128.101 217.921 130.16L221.116 127.129C218.986 125.051 216.836 122.943 214.667 120.807ZM280.894 125.58C278.854 127.678 276.769 129.759 274.639 131.825C275.453 132.716 276.246 133.607 277.031 134.488C279.122 132.435 281.184 130.373 283.218 128.301L280.894 125.58ZM228.765 134.536L227.399 133.21L224.214 136.182L226.799 138.651L233.78 138.525C233.848 137.179 233.916 135.814 233.983 134.439L228.765 134.536ZM249.63 134.033C247.403 134.11 245.147 134.178 242.852 134.236C242.765 135.601 242.678 136.957 242.581 138.293C244.834 138.235 247.067 138.164 249.281 138.08L251.276 138.012C251.392 136.676 251.499 135.33 251.605 133.974C250.976 134.033 250.308 134.062 249.63 134.071V134.033ZM260.203 133.655C260.087 135.01 259.961 136.347 259.825 137.663C262.624 137.547 265.393 137.412 268.113 137.266C268.259 135.95 268.404 134.623 268.539 133.287C265.799 133.461 263.02 133.568 260.203 133.694V133.655Z" fill="black"/>
<g opacity="0.3">
<path opacity="0.3" d="M204.927 117.486L201.732 114.339L204.927 111.183L208.122 114.339L204.927 117.486Z" fill="black"/>
<path opacity="0.3" d="M294.585 115.481C294.585 115.423 294.585 115.365 294.585 115.307L293.035 113.448C292.91 113.293 292.784 113.129 292.648 112.974L292.183 113.487C290.45 115.423 288.669 117.36 286.868 119.296C287.662 120.264 288.436 121.145 289.201 122.065C290.993 120.129 292.764 118.192 294.478 116.256C294.513 116.225 294.542 116.189 294.565 116.149C294.604 115.956 294.594 115.714 294.585 115.481ZM214.667 120.807L211.472 123.905C213.641 126.016 215.79 128.101 217.921 130.16L221.116 127.129C218.986 125.051 216.836 122.943 214.667 120.807ZM280.894 125.58C278.854 127.678 276.769 129.759 274.639 131.825C275.453 132.716 276.246 133.607 277.031 134.488C279.122 132.435 281.184 130.373 283.218 128.301L280.894 125.58ZM228.765 134.536L227.399 133.21L224.214 136.182L226.799 138.651L233.78 138.525C233.848 137.179 233.916 135.814 233.983 134.439L228.765 134.536ZM249.63 134.033C247.403 134.11 245.147 134.178 242.852 134.236C242.765 135.601 242.678 136.957 242.581 138.293C244.834 138.235 247.067 138.164 249.281 138.08L251.276 138.012C251.392 136.676 251.499 135.33 251.605 133.974C250.976 134.033 250.308 134.062 249.63 134.071V134.033ZM260.203 133.655C260.087 135.01 259.961 136.347 259.825 137.663C262.624 137.547 265.393 137.412 268.113 137.266C268.259 135.95 268.404 134.623 268.539 133.287C265.799 133.461 263.02 133.568 260.203 133.694V133.655Z" fill="black"/>
</g>
</g>
<path d="M247.2 171.203C246.987 172.123 246.754 172.994 246.522 173.846V174.03L246.29 174.873C245.999 175.899 245.709 176.877 245.399 177.777C245.341 177.913 245.302 178.048 245.254 178.184L245.079 178.687C245.031 178.852 244.963 179.017 244.905 179.181C244.83 179.418 244.742 179.651 244.644 179.878C244.237 180.953 243.821 181.931 243.385 182.783C243.211 183.151 243.027 183.5 242.843 183.838L242.756 183.964L242 184.139C237.13 185.239 232.151 185.791 227.157 185.785C223.66 185.787 220.167 185.519 216.71 184.981C214.53 184.646 212.368 184.2 210.233 183.645C210.233 183.316 210.233 182.977 210.301 182.618C210.368 182.26 210.359 181.708 210.388 181.224C210.417 180.74 210.446 180.256 210.475 179.714C210.504 179.172 210.533 178.649 210.552 178.087C210.552 177.806 210.552 177.526 210.552 177.235C210.62 175.725 210.688 174.088 210.756 172.336C210.833 169.683 214.086 167.233 218.017 167.175C225.947 167.04 233.8 166.798 241.487 166.439C242.917 166.321 244.348 166.661 245.573 167.408C246.227 167.77 246.741 168.34 247.036 169.027C247.33 169.714 247.388 170.48 247.2 171.203Z" fill="url(#paint16_linear)"/>
<g opacity="0.3">
<path opacity="0.3" d="M247.2 171.203C246.987 172.123 246.754 172.994 246.522 173.846V174.03L246.29 174.873C245.999 175.899 245.709 176.877 245.399 177.777C245.341 177.913 245.302 178.048 245.254 178.184L245.079 178.687C245.031 178.852 244.963 179.017 244.905 179.181C244.83 179.418 244.742 179.651 244.644 179.878C244.237 180.953 243.821 181.931 243.385 182.783C243.211 183.151 243.027 183.5 242.843 183.838L242.756 183.964L242 184.139C237.13 185.239 232.151 185.791 227.157 185.785C223.66 185.787 220.167 185.519 216.71 184.981C214.53 184.646 212.368 184.2 210.233 183.645C210.233 183.316 210.233 182.977 210.301 182.618C210.368 182.26 210.359 181.708 210.388 181.224C210.417 180.74 210.446 180.256 210.475 179.714C210.504 179.172 210.533 178.649 210.552 178.087C210.552 177.806 210.552 177.526 210.552 177.235C210.62 175.725 210.688 174.088 210.756 172.336C210.833 169.683 214.086 167.233 218.017 167.175C225.947 167.04 233.8 166.798 241.487 166.439C242.917 166.321 244.348 166.661 245.573 167.408C246.227 167.77 246.741 168.34 247.036 169.027C247.33 169.714 247.388 170.48 247.2 171.203Z" fill="black"/>
</g>
<path d="M247.626 169.393C247.49 170.012 247.345 170.622 247.2 171.213C246.987 172.133 246.754 173.004 246.522 173.856V174.04L246.29 174.882C245.999 175.909 245.709 176.887 245.399 177.787C245.292 178.097 245.196 178.397 245.079 178.697C244.963 178.997 244.963 179.026 244.905 179.191C244.83 179.428 244.742 179.66 244.644 179.888C244.237 180.963 243.821 181.941 243.385 182.793C243.057 183.363 242.578 183.832 242 184.148C237.13 185.249 232.151 185.801 227.157 185.794C223.66 185.797 220.167 185.528 216.71 184.991C214.53 184.655 212.368 184.209 210.233 183.655C210.233 183.325 210.233 182.986 210.301 182.628C210.368 182.27 210.359 181.718 210.388 181.234C210.417 180.75 210.446 180.266 210.475 179.724C210.504 179.181 210.533 178.659 210.552 178.097C210.552 177.816 210.552 177.535 210.552 177.245C210.62 175.734 210.688 174.098 210.756 172.346C210.756 171.745 210.775 171.135 210.814 170.516C210.891 167.756 214.174 165.22 218.143 165.161C226.131 165.026 234.061 164.784 241.816 164.426C243.259 164.307 244.702 164.646 245.941 165.394C246.618 165.787 247.149 166.39 247.453 167.111C247.757 167.833 247.818 168.634 247.626 169.393Z" fill="url(#paint17_linear)"/>
<g opacity="0.8">
<path opacity="0.8" d="M247.626 169.393C247.49 170.012 247.345 170.622 247.2 171.213C246.987 172.133 246.754 173.004 246.522 173.856V174.04L246.29 174.882C245.999 175.909 245.709 176.887 245.399 177.787C245.292 178.097 245.196 178.397 245.079 178.697C244.963 178.997 244.963 179.026 244.905 179.191C244.83 179.428 244.742 179.66 244.644 179.888C244.237 180.963 243.821 181.941 243.385 182.793C243.057 183.363 242.578 183.832 242 184.148C237.13 185.249 232.151 185.801 227.157 185.794C223.66 185.797 220.167 185.528 216.71 184.991C214.53 184.655 212.368 184.209 210.233 183.655C210.233 183.325 210.233 182.986 210.301 182.628C210.368 182.27 210.359 181.718 210.388 181.234C210.417 180.75 210.446 180.266 210.475 179.724C210.504 179.181 210.533 178.659 210.552 178.097C210.552 177.816 210.552 177.535 210.552 177.245C210.62 175.734 210.688 174.098 210.756 172.346C210.756 171.745 210.775 171.135 210.814 170.516C210.891 167.756 214.174 165.22 218.143 165.161C226.131 165.026 234.061 164.784 241.816 164.426C243.259 164.307 244.702 164.646 245.941 165.394C246.618 165.787 247.149 166.39 247.453 167.111C247.757 167.833 247.818 168.634 247.626 169.393Z" fill="white"/>
</g>
<path d="M227.709 180.498C228.097 178.736 228.474 176.732 228.823 174.514C228.93 174.072 228.908 173.608 228.761 173.178C228.613 172.748 228.346 172.368 227.99 172.084C226.996 171.438 225.809 171.154 224.63 171.281C223.37 171.244 222.127 171.581 221.058 172.249C220.646 172.531 220.302 172.902 220.053 173.334C219.803 173.766 219.654 174.249 219.615 174.747C219.396 176.967 219.163 178.959 218.918 180.721C218.842 181.066 218.884 181.427 219.036 181.747C219.189 182.066 219.444 182.325 219.76 182.483C220.726 182.913 221.787 183.087 222.839 182.986C223.217 182.986 223.575 182.986 223.904 182.919C224.233 182.851 224.553 182.831 224.873 182.773C225.079 182.99 225.351 183.133 225.647 183.18C226.14 183.283 226.645 183.319 227.148 183.287H227.525C227.642 182.89 227.758 182.473 227.864 182.038H227.613C227.438 182.049 227.264 182.049 227.09 182.038C227.041 182.03 226.995 182.011 226.954 181.983C226.914 181.954 226.881 181.916 226.857 181.873C227.289 181.524 227.589 181.04 227.709 180.498ZM225.821 174.476C225.502 176.79 225.163 178.871 224.805 180.692C224.78 180.855 224.717 181.01 224.619 181.144C224.521 181.277 224.392 181.384 224.243 181.457C223.892 181.621 223.508 181.704 223.12 181.699C222.761 181.733 222.4 181.67 222.074 181.515C221.952 181.439 221.858 181.324 221.809 181.189C221.76 181.054 221.758 180.906 221.803 180.769C222.113 178.959 222.404 176.896 222.675 174.563C222.687 174.371 222.742 174.185 222.836 174.017C222.93 173.85 223.06 173.705 223.217 173.595C223.576 173.378 223.989 173.267 224.408 173.275C224.798 173.232 225.191 173.324 225.521 173.537C225.651 173.652 225.747 173.8 225.8 173.965C225.853 174.13 225.86 174.307 225.821 174.476Z" fill="black"/>
<path d="M239.076 171.648C238.134 171.011 236.989 170.745 235.862 170.903C234.604 170.888 233.37 171.249 232.318 171.939C231.904 172.231 231.554 172.603 231.287 173.034C231.021 173.465 230.845 173.946 230.769 174.446C230.701 174.863 230.624 175.269 230.556 175.666L233.374 175.56C233.461 175.115 233.548 174.669 233.635 174.204C233.665 174.011 233.734 173.826 233.837 173.659C233.94 173.493 234.076 173.349 234.235 173.236C234.597 173.015 235.012 172.898 235.436 172.897C235.814 172.853 236.195 172.946 236.511 173.159C236.753 173.352 236.811 173.749 236.695 174.321C236.575 174.91 236.309 175.459 235.92 175.918C235.523 176.387 235.067 176.804 234.564 177.158C234.042 177.539 233.499 177.892 232.938 178.213C232.385 178.525 231.849 178.864 231.331 179.23C230.851 179.55 230.409 179.923 230.014 180.343C229.659 180.698 229.402 181.138 229.268 181.621C229.172 182.018 229.065 182.396 228.958 182.754C231.67 182.657 234.361 182.541 237.033 182.405C237.198 181.989 237.353 181.544 237.508 181.079C235.736 181.166 233.955 181.253 232.163 181.321C232.177 181.156 232.225 180.995 232.305 180.85C232.385 180.705 232.495 180.578 232.628 180.479C233.009 180.154 233.417 179.862 233.848 179.607C234.339 179.297 234.89 178.975 235.504 178.639C236.12 178.281 236.712 177.884 237.276 177.448C237.831 177.021 238.335 176.53 238.776 175.986C239.222 175.448 239.531 174.81 239.677 174.127C239.832 173.701 239.858 173.238 239.751 172.797C239.644 172.356 239.409 171.957 239.076 171.648Z" fill="black"/>
<path d="M203.301 110.524V114.998H201.054H195.323H190.956H186.521H183.907C176.326 114.949 168.842 114.862 161.531 114.746C160.951 114.746 160.37 114.746 159.798 114.746C159.885 113.274 160.011 111.841 160.195 110.36H161.357C174.196 110.524 187.577 110.602 201.054 110.621L203.301 110.524Z" fill="#263238"/>
<path d="M203.3 117.602C205.926 117.602 208.054 115.474 208.054 112.848C208.054 110.223 205.926 108.094 203.3 108.094C200.675 108.094 198.546 110.223 198.546 112.848C198.546 115.474 200.675 117.602 203.3 117.602Z" fill="#263238"/>
<path opacity="0.2" d="M294.73 118.396C294.715 134.845 288.681 150.719 277.768 163.026C266.854 175.333 251.814 183.22 235.485 185.202C219.156 187.183 202.666 183.122 189.126 173.782C175.586 164.443 165.93 150.472 161.981 134.505C158.032 118.537 160.063 101.676 167.689 87.1021C175.315 72.5282 188.011 61.2484 203.381 55.3903C218.751 49.5322 235.734 49.5006 251.126 55.3015C266.518 61.1023 279.255 72.3347 286.936 86.8802C292.058 96.5954 294.733 107.413 294.73 118.396Z" fill="white"/>
<path opacity="0.2" d="M294.73 118.396C294.73 136.307 287.615 153.485 274.95 166.15C262.285 178.815 245.107 185.93 227.196 185.93L294.73 118.396Z" fill="white"/>
<path opacity="0.2" d="M161.541 134.226C158.782 122.721 159.092 110.694 162.438 99.3459C165.783 87.9979 172.049 77.7266 180.608 69.5586C189.167 61.3907 199.72 55.612 211.212 52.8C222.704 49.988 234.733 50.2413 246.096 53.5344L161.541 134.226Z" fill="white"/>
<path opacity="0.2" d="M286.936 86.8802L193.87 177.138C188.262 173.946 183.14 169.969 178.659 165.326L275.22 70.9238C279.891 75.6361 283.838 81.013 286.936 86.8802Z" fill="white"/>
<path d="M265.993 186.637L238.757 206.582H215.636L188.409 186.637H265.993Z" fill="#C9CCCD" stroke="#263238" stroke-linecap="round" stroke-linejoin="round"/>
<path d="M227.196 39.9116C209.872 39.9119 193.034 45.6436 179.308 56.2133C165.582 66.783 155.738 81.5968 151.31 98.3459C146.883 115.095 148.121 132.838 154.831 148.81C161.542 164.782 173.348 178.085 188.409 186.646C198.857 192.585 210.529 196.045 222.526 196.761C234.522 197.476 246.523 195.427 257.602 190.772C268.682 186.117 278.544 178.98 286.43 169.911C294.316 160.842 300.014 150.084 303.085 138.465C306.156 126.847 306.519 114.678 304.144 102.897C301.77 91.1162 296.722 80.0379 289.39 70.516C282.058 60.9941 272.637 53.2829 261.854 47.9768C251.071 42.6707 239.214 39.9114 227.196 39.9116ZM227.196 185.93C213.839 185.93 200.782 181.969 189.677 174.548C178.571 167.128 169.915 156.58 164.803 144.24C159.692 131.9 158.354 118.321 160.96 105.221C163.566 92.1205 169.998 80.0872 179.443 70.6424C188.888 61.1977 200.921 54.7657 214.021 52.1599C227.121 49.5541 240.7 50.8915 253.04 56.003C265.381 61.1144 275.928 69.7704 283.349 80.8762C290.769 91.9821 294.73 105.039 294.73 118.396C294.731 127.265 292.985 136.047 289.592 144.242C286.199 152.436 281.224 159.881 274.953 166.152C268.681 172.424 261.236 177.398 253.042 180.792C244.848 184.185 236.065 185.931 227.196 185.93Z" fill="#C9CCCD" stroke="#263238" stroke-linecap="round" stroke-linejoin="round"/>
<path d="M232.721 206.582H220.636C217.874 206.582 215.636 208.821 215.636 211.582V339.128C215.636 341.89 217.874 344.128 220.636 344.128H232.721C235.482 344.128 237.721 341.89 237.721 339.128V211.582C237.721 208.821 235.482 206.582 232.721 206.582Z" fill="#263238"/>
<path d="M212.363 60.3024C217.024 59.1788 221.802 58.6132 226.596 58.6177" stroke="#263238" stroke-miterlimit="10"/>
<path d="M166.285 118.919C166.284 107.328 169.623 95.9813 175.902 86.2383C182.182 76.4952 191.136 68.7681 201.693 63.9819" stroke="#263238" stroke-miterlimit="10"/>
<defs>
<linearGradient id="paint0_linear" x1="290.83" y1="306.203" x2="290.83" y2="254.596" gradientUnits="userSpaceOnUse">
<stop stop-color="#FF3B30"/>
<stop offset="0.541667" stop-color="#FF5E3A"/>
<stop offset="1" stop-color="#FF9500"/>
</linearGradient>
<linearGradient id="paint1_linear" x1="156.402" y1="368.121" x2="156.402" y2="254.596" gradientUnits="userSpaceOnUse">
<stop stop-color="#FF3B30"/>
<stop offset="0.541667" stop-color="#FF5E3A"/>
<stop offset="1" stop-color="#FF9500"/>
</linearGradient>
<linearGradient id="paint2_linear" x1="223.66" y1="262.468" x2="223.66" y2="225.778" gradientUnits="userSpaceOnUse">
<stop stop-color="#FF3B30"/>
<stop offset="0.541667" stop-color="#FF5E3A"/>
<stop offset="1" stop-color="#FF9500"/>
</linearGradient>
<linearGradient id="paint3_linear" x1="238.013" y1="396.979" x2="238.013" y2="316.562" gradientUnits="userSpaceOnUse">
<stop stop-color="#FF3B30"/>
<stop offset="0.541667" stop-color="#FF5E3A"/>
<stop offset="1" stop-color="#FF9500"/>
</linearGradient>
<linearGradient id="paint4_linear" x1="224.466" y1="202.061" x2="224.466" y2="21.0508" gradientUnits="userSpaceOnUse">
<stop stop-color="#FF3B30"/>
<stop offset="0.541667" stop-color="#FF5E3A"/>
<stop offset="1" stop-color="#FF9500"/>
</linearGradient>
<linearGradient id="paint5_linear" x1="165.772" y1="185.049" x2="165.772" y2="124.283" gradientUnits="userSpaceOnUse">
<stop stop-color="#FF3B30"/>
<stop offset="0.541667" stop-color="#FF5E3A"/>
<stop offset="1" stop-color="#FF9500"/>
</linearGradient>
<linearGradient id="paint6_linear" x1="153.693" y1="185.775" x2="153.693" y2="161.133" gradientUnits="userSpaceOnUse">
<stop stop-color="#FF3B30"/>
<stop offset="0.541667" stop-color="#FF5E3A"/>
<stop offset="1" stop-color="#FF9500"/>
</linearGradient>
<linearGradient id="paint7_linear" x1="153.693" y1="184.051" x2="153.693" y2="159.41" gradientUnits="userSpaceOnUse">
<stop stop-color="#FF3B30"/>
<stop offset="0.541667" stop-color="#FF5E3A"/>
<stop offset="1" stop-color="#FF9500"/>
</linearGradient>
<linearGradient id="paint8_linear" x1="241.095" y1="186.743" x2="241.095" y2="162.102" gradientUnits="userSpaceOnUse">
<stop stop-color="#FF3B30"/>
<stop offset="0.541667" stop-color="#FF5E3A"/>
<stop offset="1" stop-color="#FF9500"/>
</linearGradient>
<linearGradient id="paint9_linear" x1="241.095" y1="185.02" x2="241.095" y2="160.378" gradientUnits="userSpaceOnUse">
<stop stop-color="#FF3B30"/>
<stop offset="0.541667" stop-color="#FF5E3A"/>
<stop offset="1" stop-color="#FF9500"/>
</linearGradient>
<linearGradient id="paint10_linear" x1="328.797" y1="185.775" x2="328.797" y2="161.133" gradientUnits="userSpaceOnUse">
<stop stop-color="#FF3B30"/>
<stop offset="0.541667" stop-color="#FF5E3A"/>
<stop offset="1" stop-color="#FF9500"/>
</linearGradient>
<linearGradient id="paint11_linear" x1="328.797" y1="184.051" x2="328.797" y2="159.41" gradientUnits="userSpaceOnUse">
<stop stop-color="#FF3B30"/>
<stop offset="0.541667" stop-color="#FF5E3A"/>
<stop offset="1" stop-color="#FF9500"/>
</linearGradient>
<linearGradient id="paint12_linear" x1="227.119" y1="185.843" x2="227.119" y2="50.9644" gradientUnits="userSpaceOnUse">
<stop stop-color="#FF3B30"/>
<stop offset="0.541667" stop-color="#FF5E3A"/>
<stop offset="1" stop-color="#FF9500"/>
</linearGradient>
<linearGradient id="paint13_linear" x1="227.221" y1="185.843" x2="227.221" y2="54.4834" gradientUnits="userSpaceOnUse">
<stop stop-color="#FF3B30"/>
<stop offset="0.541667" stop-color="#FF5E3A"/>
<stop offset="1" stop-color="#FF9500"/>
</linearGradient>
<linearGradient id="paint14_linear" x1="228.082" y1="156.331" x2="228.082" y2="114.62" gradientUnits="userSpaceOnUse">
<stop stop-color="#FF3B30"/>
<stop offset="0.541667" stop-color="#FF5E3A"/>
<stop offset="1" stop-color="#FF9500"/>
</linearGradient>
<linearGradient id="paint15_linear" x1="229.52" y1="110.386" x2="229.52" y2="64.4658" gradientUnits="userSpaceOnUse">
<stop stop-color="#FF3B30"/>
<stop offset="0.541667" stop-color="#FF5E3A"/>
<stop offset="1" stop-color="#FF9500"/>
</linearGradient>
<linearGradient id="paint16_linear" x1="228.771" y1="185.785" x2="228.771" y2="166.417" gradientUnits="userSpaceOnUse">
<stop stop-color="#FF3B30"/>
<stop offset="0.541667" stop-color="#FF5E3A"/>
<stop offset="1" stop-color="#FF9500"/>
</linearGradient>
<linearGradient id="paint17_linear" x1="228.984" y1="185.794" x2="228.984" y2="164.402" gradientUnits="userSpaceOnUse">
<stop stop-color="#FF3B30"/>
<stop offset="0.541667" stop-color="#FF5E3A"/>
<stop offset="1" stop-color="#FF9500"/>
</linearGradient>
</defs>
</svg>
