<svg width="430" height="359" viewBox="0 0 430 359" fill="none" xmlns="http://www.w3.org/2000/svg">
<g opacity="0.1">
<path d="M48.5436 70.4819C31.9232 92.8251 21.2365 125.655 29.3411 153.152C43.1897 200.146 101.956 203.687 142.206 209.125C169.945 212.877 197.526 234.683 221.25 248.215C252.867 266.258 303.73 294.725 340.195 276.239C370.422 260.926 386.673 223.88 395.948 193.148C410.481 145.026 411.883 86.9758 380.244 45.0508C337.181 -11.861 261.847 -2.37568 199.254 7.36255C157.361 13.8863 116.637 20.2415 79.3919 42.4476C67.3667 49.6743 56.8841 59.2007 48.5436 70.4819Z" fill="url(#paint0_linear)"/>
<path opacity="0.4" d="M48.5436 70.4819C31.9232 92.8251 21.2365 125.655 29.3411 153.152C43.1897 200.146 101.956 203.687 142.206 209.125C169.945 212.877 197.526 234.683 221.25 248.215C252.867 266.258 303.73 294.725 340.195 276.239C370.422 260.926 386.673 223.88 395.948 193.148C410.481 145.026 411.883 86.9758 380.244 45.0508C337.181 -11.861 261.847 -2.37568 199.254 7.36255C157.361 13.8863 116.637 20.2415 79.3919 42.4476C67.3667 49.6743 56.8841 59.2007 48.5436 70.4819Z" fill="white"/>
</g>
<g opacity="0.5">
<path d="M0 338.979C0 342.731 96.2336 345.777 215 345.777C333.766 345.777 430 342.731 430 338.979C430 335.227 333.766 332.181 215.053 332.181C96.339 332.181 0 335.227 0 338.979Z" fill="url(#paint1_linear)"/>
<path opacity="0.6" d="M0 338.979C0 342.731 96.2336 345.777 215 345.777C333.766 345.777 430 342.731 430 338.979C430 335.227 333.766 332.181 215.053 332.181C96.339 332.181 0 335.227 0 338.979Z" fill="white"/>
</g>
<path d="M213.662 2.26172H73.9437C64.9829 2.26172 60.5025 2.26172 57.0799 4.00561C54.0693 5.53959 51.6216 7.98728 50.0876 10.9979C48.3438 14.4205 48.3438 18.9009 48.3438 27.8617V218.832C48.3438 227.793 48.3438 232.273 50.0876 235.696C51.6216 238.706 54.0693 241.154 57.0799 242.688C60.5025 244.432 64.9829 244.432 73.9437 244.432H213.662C222.622 244.432 227.103 244.432 230.525 242.688C233.536 241.154 235.984 238.706 237.518 235.696C239.262 232.273 239.262 227.793 239.262 218.832V27.8617C239.262 18.9009 239.262 14.4205 237.518 10.9979C235.984 7.98728 233.536 5.53959 230.525 4.00561C227.103 2.26172 222.622 2.26172 213.662 2.26172Z" fill="white" stroke="#263238" stroke-width="0.75" stroke-linecap="round" stroke-linejoin="round"/>
<path d="M224.812 2.26172H62.793C54.8129 2.26172 48.3438 8.73088 48.3438 16.711H239.262C239.262 8.73088 232.792 2.26172 224.812 2.26172Z" fill="#263238" stroke="#263238" stroke-width="0.75" stroke-linecap="round" stroke-linejoin="round"/>
<path d="M86.0528 171.163H53.7817V239.657H86.0528V171.163Z" fill="#FDDAD5"/>
<path opacity="0.6" d="M86.0528 171.163H53.7817V239.657H86.0528V171.163Z" fill="white"/>
<path d="M121.243 171.163H88.9722V239.657H121.243V171.163Z" fill="#FDDAD5"/>
<path opacity="0.6" d="M121.243 171.163H88.9722V239.657H121.243V171.163Z" fill="white"/>
<path d="M158.636 171.163H126.365V239.657H158.636V171.163Z" fill="#FDDAD5"/>
<path opacity="0.6" d="M158.636 171.163H126.365V239.657H158.636V171.163Z" fill="white"/>
<path d="M196.019 171.163H163.748V239.657H196.019V171.163Z" fill="#FDDAD5"/>
<path opacity="0.6" d="M196.019 171.163H163.748V239.657H196.019V171.163Z" fill="white"/>
<path d="M234.318 171.163H202.047V239.657H234.318V171.163Z" fill="white" stroke="#263238" stroke-width="0.75" stroke-linecap="round" stroke-linejoin="round"/>
<path d="M233.802 7.97363H53.792V24.5729H233.802V7.97363Z" fill="url(#paint2_linear)"/>
<path opacity="0.6" d="M233.802 7.97363H53.792V24.5729H233.802V7.97363Z" fill="white"/>
<path d="M231.273 11.1992H57.0278V18.5451H231.273V11.1992Z" fill="white"/>
<path d="M231.262 11.1992H211.533V18.5451H231.262V11.1992Z" fill="#263238" stroke="#263238" stroke-width="0.75" stroke-linecap="round" stroke-linejoin="round"/>
<path d="M133.911 39.4545H97.0239C96.6465 39.4545 96.2846 39.3046 96.0178 39.0378C95.751 38.7709 95.6011 38.409 95.6011 38.0317C95.6011 37.6543 95.751 37.2924 96.0178 37.0256C96.2846 36.7588 96.6465 36.6089 97.0239 36.6089H133.911C134.288 36.6089 134.65 36.7588 134.917 37.0256C135.184 37.2924 135.334 37.6543 135.334 38.0317C135.334 38.409 135.184 38.7709 134.917 39.0378C134.65 39.3046 134.288 39.4545 133.911 39.4545Z" fill="#263238"/>
<path d="M133.911 49.3721H97.0241C96.8277 49.389 96.6299 49.365 96.4433 49.3014C96.2566 49.2379 96.0852 49.1362 95.9399 49.003C95.7947 48.8697 95.6787 48.7076 95.5993 48.5272C95.52 48.3467 95.479 48.1517 95.479 47.9545C95.479 47.7574 95.52 47.5624 95.5993 47.3819C95.6787 47.2014 95.7947 47.0394 95.9399 46.9061C96.0852 46.7728 96.2566 46.6712 96.4433 46.6076C96.6299 46.5441 96.8277 46.5201 97.0241 46.537H133.911C134.266 46.5676 134.597 46.7302 134.837 46.9927C135.078 47.2552 135.212 47.5984 135.212 47.9545C135.212 48.3107 135.078 48.6539 134.837 48.9164C134.597 49.1788 134.266 49.3414 133.911 49.3721Z" fill="#263238"/>
<path d="M133.911 59.2997H97.0239C96.6465 59.2997 96.2846 59.1498 96.0178 58.8829C95.751 58.6161 95.6011 58.2542 95.6011 57.8769C95.6011 57.4995 95.751 57.1376 96.0178 56.8708C96.2846 56.604 96.6465 56.4541 97.0239 56.4541H133.911C134.288 56.4541 134.65 56.604 134.917 56.8708C135.184 57.1376 135.334 57.4995 135.334 57.8769C135.334 58.2542 135.184 58.6161 134.917 58.8829C134.65 59.1498 134.288 59.2997 133.911 59.2997Z" fill="#263238"/>
<path d="M133.912 69.2174H57.3547C56.9998 69.1867 56.6693 69.0241 56.4286 68.7617C56.1878 68.4992 56.0542 68.156 56.0542 67.7998C56.0542 67.4437 56.1878 67.1005 56.4286 66.838C56.6693 66.5755 56.9998 66.413 57.3547 66.3823H133.912C134.266 66.413 134.597 66.5755 134.838 66.838C135.078 67.1005 135.212 67.4437 135.212 67.7998C135.212 68.156 135.078 68.4992 134.838 68.7617C134.597 69.0241 134.266 69.1867 133.912 69.2174Z" fill="#263238"/>
<path d="M133.911 79.1454H57.3544C56.9771 79.1454 56.6152 78.9955 56.3484 78.7287C56.0815 78.4618 55.9316 78.1 55.9316 77.7226C55.9316 77.3453 56.0815 76.9834 56.3484 76.7165C56.6152 76.4497 56.9771 76.2998 57.3544 76.2998H133.911C134.289 76.2998 134.651 76.4497 134.917 76.7165C135.184 76.9834 135.334 77.3453 135.334 77.7226C135.334 78.1 135.184 78.4618 134.917 78.7287C134.651 78.9955 134.289 79.1454 133.911 79.1454Z" fill="#263238"/>
<path d="M133.911 89.0731H57.3544C56.9771 89.0731 56.6152 88.9232 56.3484 88.6564C56.0815 88.3896 55.9316 88.0277 55.9316 87.6503C55.9316 87.273 56.0815 86.9111 56.3484 86.6443C56.6152 86.3774 56.9771 86.2275 57.3544 86.2275H133.911C134.289 86.2275 134.651 86.3774 134.917 86.6443C135.184 86.9111 135.334 87.273 135.334 87.6503C135.334 88.0277 135.184 88.3896 134.917 88.6564C134.651 88.9232 134.289 89.0731 133.911 89.0731Z" fill="#263238"/>
<path d="M133.912 98.9908H57.3547C56.9998 98.9602 56.6693 98.7976 56.4286 98.5351C56.1878 98.2727 56.0542 97.9295 56.0542 97.5733C56.0542 97.2171 56.1878 96.8739 56.4286 96.6114C56.6693 96.349 56.9998 96.1864 57.3547 96.1558H133.912C134.266 96.1864 134.597 96.349 134.838 96.6114C135.078 96.8739 135.212 97.2171 135.212 97.5733C135.212 97.9295 135.078 98.2727 134.838 98.5351C134.597 98.7976 134.266 98.9602 133.912 98.9908Z" fill="#263238"/>
<path d="M133.912 107.812H57.3547C56.9998 107.781 56.6693 107.618 56.4286 107.356C56.1878 107.093 56.0542 106.75 56.0542 106.394C56.0542 106.038 56.1878 105.695 56.4286 105.432C56.6693 105.17 56.9998 105.007 57.3547 104.977H133.912C134.266 105.007 134.597 105.17 134.838 105.432C135.078 105.695 135.212 106.038 135.212 106.394C135.212 106.75 135.078 107.093 134.838 107.356C134.597 107.618 134.266 107.781 133.912 107.812Z" fill="#263238"/>
<path d="M133.911 117.771H57.3544C56.9771 117.771 56.6152 117.621 56.3484 117.355C56.0815 117.088 55.9316 116.726 55.9316 116.349C55.9316 115.971 56.0815 115.609 56.3484 115.343C56.6152 115.076 56.9771 114.926 57.3544 114.926H133.911C134.289 114.926 134.651 115.076 134.917 115.343C135.184 115.609 135.334 115.971 135.334 116.349C135.334 116.726 135.184 117.088 134.917 117.355C134.651 117.621 134.289 117.771 133.911 117.771Z" fill="#263238"/>
<path d="M133.912 127.657H57.3547C56.9998 127.627 56.6693 127.464 56.4286 127.202C56.1878 126.939 56.0542 126.596 56.0542 126.24C56.0542 125.884 56.1878 125.54 56.4286 125.278C56.6693 125.015 56.9998 124.853 57.3547 124.822H133.912C134.266 124.853 134.597 125.015 134.838 125.278C135.078 125.54 135.212 125.884 135.212 126.24C135.212 126.596 135.078 126.939 134.838 127.202C134.597 127.464 134.266 127.627 133.912 127.657Z" fill="#263238"/>
<path d="M133.911 137.585H57.3544C56.9771 137.585 56.6152 137.435 56.3484 137.169C56.0815 136.902 55.9316 136.54 55.9316 136.163C55.9316 135.785 56.0815 135.423 56.3484 135.156C56.6152 134.89 56.9771 134.74 57.3544 134.74H133.911C134.289 134.74 134.651 134.89 134.917 135.156C135.184 135.423 135.334 135.785 135.334 136.163C135.334 136.54 135.184 136.902 134.917 137.169C134.651 137.435 134.289 137.585 133.911 137.585Z" fill="#263238"/>
<path d="M133.912 147.502H57.3547C56.9998 147.471 56.6693 147.309 56.4286 147.046C56.1878 146.784 56.0542 146.441 56.0542 146.085C56.0542 145.728 56.1878 145.385 56.4286 145.123C56.6693 144.86 56.9998 144.698 57.3547 144.667H133.912C134.266 144.698 134.597 144.86 134.838 145.123C135.078 145.385 135.212 145.728 135.212 146.085C135.212 146.441 135.078 146.784 134.838 147.046C134.597 147.309 134.266 147.471 133.912 147.502Z" fill="#263238"/>
<path d="M133.912 157.43H57.3547C56.9998 157.4 56.6693 157.237 56.4286 156.975C56.1878 156.712 56.0542 156.369 56.0542 156.013C56.0542 155.657 56.1878 155.313 56.4286 155.051C56.6693 154.788 56.9998 154.626 57.3547 154.595H133.912C134.266 154.626 134.597 154.788 134.838 155.051C135.078 155.313 135.212 155.657 135.212 156.013C135.212 156.369 135.078 156.712 134.838 156.975C134.597 157.237 134.266 157.4 133.912 157.43Z" fill="#263238"/>
<path d="M232.453 39.4545H155.928C155.55 39.4545 155.188 39.3046 154.922 39.0378C154.655 38.7709 154.505 38.409 154.505 38.0317C154.505 37.6543 154.655 37.2924 154.922 37.0256C155.188 36.7588 155.55 36.6089 155.928 36.6089H232.453C232.83 36.6089 233.192 36.7588 233.459 37.0256C233.726 37.2924 233.876 37.6543 233.876 38.0317C233.876 38.409 233.726 38.7709 233.459 39.0378C233.192 39.3046 232.83 39.4545 232.453 39.4545Z" fill="#263238"/>
<path d="M232.453 49.3721H155.928C155.732 49.389 155.534 49.365 155.347 49.3014C155.16 49.2379 154.989 49.1362 154.844 49.003C154.698 48.8697 154.582 48.7076 154.503 48.5272C154.424 48.3467 154.383 48.1517 154.383 47.9545C154.383 47.7574 154.424 47.5624 154.503 47.3819C154.582 47.2014 154.698 47.0394 154.844 46.9061C154.989 46.7728 155.16 46.6712 155.347 46.6076C155.534 46.5441 155.732 46.5201 155.928 46.537H232.453C232.65 46.5201 232.847 46.5441 233.034 46.6076C233.221 46.6712 233.392 46.7728 233.537 46.9061C233.683 47.0394 233.799 47.2014 233.878 47.3819C233.957 47.5624 233.998 47.7574 233.998 47.9545C233.998 48.1517 233.957 48.3467 233.878 48.5272C233.799 48.7076 233.683 48.8697 233.537 49.003C233.392 49.1362 233.221 49.2379 233.034 49.3014C232.847 49.365 232.65 49.389 232.453 49.3721Z" fill="#263238"/>
<path d="M232.453 59.2997H155.928C155.55 59.2997 155.188 59.1498 154.922 58.8829C154.655 58.6161 154.505 58.2542 154.505 57.8769C154.505 57.4995 154.655 57.1376 154.922 56.8708C155.188 56.604 155.55 56.4541 155.928 56.4541H232.453C232.83 56.4541 233.192 56.604 233.459 56.8708C233.726 57.1376 233.876 57.4995 233.876 57.8769C233.876 58.2542 233.726 58.6161 233.459 58.8829C233.192 59.1498 232.83 59.2997 232.453 59.2997Z" fill="#263238"/>
<path d="M232.453 69.2168H155.928C155.732 69.2337 155.534 69.2097 155.347 69.1461C155.16 69.0826 154.989 68.981 154.844 68.8477C154.698 68.7144 154.582 68.5524 154.503 68.3719C154.424 68.1914 154.383 67.9964 154.383 67.7993C154.383 67.6021 154.424 67.4071 154.503 67.2266C154.582 67.0461 154.698 66.8841 154.844 66.7508C154.989 66.6175 155.16 66.5159 155.347 66.4524C155.534 66.3888 155.732 66.3648 155.928 66.3817H232.453C232.65 66.3648 232.847 66.3888 233.034 66.4524C233.221 66.5159 233.392 66.6175 233.537 66.7508C233.683 66.8841 233.799 67.0461 233.878 67.2266C233.957 67.4071 233.998 67.6021 233.998 67.7993C233.998 67.9964 233.957 68.1914 233.878 68.3719C233.799 68.5524 233.683 68.7144 233.537 68.8477C233.392 68.981 233.221 69.0826 233.034 69.1461C232.847 69.2097 232.65 69.2337 232.453 69.2168Z" fill="#263238"/>
<path d="M232.453 79.1454H155.928C155.55 79.1454 155.188 78.9955 154.922 78.7287C154.655 78.4618 154.505 78.1 154.505 77.7226C154.505 77.3453 154.655 76.9834 154.922 76.7165C155.188 76.4497 155.55 76.2998 155.928 76.2998H232.453C232.83 76.2998 233.192 76.4497 233.459 76.7165C233.726 76.9834 233.876 77.3453 233.876 77.7226C233.876 78.1 233.726 78.4618 233.459 78.7287C233.192 78.9955 232.83 79.1454 232.453 79.1454Z" fill="#263238"/>
<path d="M232.453 89.0731H155.928C155.741 89.0731 155.556 89.0363 155.383 88.9648C155.211 88.8933 155.054 88.7885 154.922 88.6564C154.79 88.5243 154.685 88.3674 154.613 88.1948C154.542 88.0222 154.505 87.8372 154.505 87.6503C154.505 87.4635 154.542 87.2785 154.613 87.1058C154.685 86.9332 154.79 86.7764 154.922 86.6443C155.054 86.5121 155.211 86.4073 155.383 86.3358C155.556 86.2643 155.741 86.2275 155.928 86.2275H232.453C232.64 86.2275 232.825 86.2643 232.997 86.3358C233.17 86.4073 233.327 86.5121 233.459 86.6443C233.591 86.7764 233.696 86.9332 233.767 87.1058C233.839 87.2785 233.876 87.4635 233.876 87.6503C233.876 87.8372 233.839 88.0222 233.767 88.1948C233.696 88.3674 233.591 88.5243 233.459 88.6564C233.327 88.7885 233.17 88.8933 232.997 88.9648C232.825 89.0363 232.64 89.0731 232.453 89.0731Z" fill="#263238"/>
<path d="M232.453 98.9907H155.928C155.732 99.0076 155.534 98.9836 155.347 98.9201C155.16 98.8565 154.989 98.7549 154.844 98.6216C154.698 98.4883 154.582 98.3263 154.503 98.1458C154.424 97.9653 154.383 97.7703 154.383 97.5732C154.383 97.376 154.424 97.181 154.503 97.0005C154.582 96.8201 154.698 96.658 154.844 96.5247C154.989 96.3915 155.16 96.2898 155.347 96.2263C155.534 96.1628 155.732 96.1387 155.928 96.1557H232.453C232.65 96.1387 232.847 96.1628 233.034 96.2263C233.221 96.2898 233.392 96.3915 233.537 96.5247C233.683 96.658 233.799 96.8201 233.878 97.0005C233.957 97.181 233.998 97.376 233.998 97.5732C233.998 97.7703 233.957 97.9653 233.878 98.1458C233.799 98.3263 233.683 98.4883 233.537 98.6216C233.392 98.7549 233.221 98.8565 233.034 98.9201C232.847 98.9836 232.65 99.0076 232.453 98.9907Z" fill="#263238"/>
<path d="M233.834 105.662H155.844V160.055H233.834V105.662Z" fill="#FDDAD5"/>
<path opacity="0.6" d="M233.834 105.662H155.844V160.055H233.834V105.662Z" fill="white"/>
<path d="M84.0397 42.2684C84.256 41.6081 84.3697 40.9185 84.377 40.2238C84.377 37.6838 81.8054 37.5363 79.2655 37.5363H78.6331V36.9355H89.6466V37.5363C86.7799 37.5363 85.7682 39.3596 84.8407 42.0892L78.9809 59.6476C78.5383 60.9439 78.1694 61.9135 76.7888 61.9135H76.6728L71.4981 45.1456L66.65 59.6476C66.1968 60.9439 65.828 61.9135 64.4473 61.9135H64.3525L56.8275 37.5363H54.1821V36.9355H63.8677V37.5363H61.1169L66.7027 56.7703H66.924L71.1397 43.9441L69.1689 37.5363H66.5236V36.9355H76.2091V37.5363H73.4478L79.0441 56.7703H79.2655L84.0397 42.2684Z" fill="#263238"/>
<path d="M245.088 30.7173H197.602C188.765 30.7173 181.602 37.8807 181.602 46.7173V227.936C181.602 236.773 188.765 243.936 197.602 243.936H245.088C253.925 243.936 261.088 236.773 261.088 227.936V46.7173C261.088 37.8807 253.925 30.7173 245.088 30.7173Z" fill="url(#paint3_linear)"/>
<path opacity="0.4" d="M245.088 30.7173H197.602C188.765 30.7173 181.602 37.8807 181.602 46.7173V227.936C181.602 236.773 188.765 243.936 197.602 243.936H245.088C253.925 243.936 261.088 236.773 261.088 227.936V46.7173C261.088 37.8807 253.925 30.7173 245.088 30.7173Z" fill="white"/>
<path d="M362.463 22.7393H203.545C194.709 22.7393 187.545 29.9027 187.545 38.7393V248.909C187.545 257.746 194.709 264.909 203.545 264.909H362.463C371.3 264.909 378.463 257.746 378.463 248.909V38.7393C378.463 29.9027 371.3 22.7393 362.463 22.7393Z" fill="white" stroke="#263238" stroke-width="0.75" stroke-linecap="round" stroke-linejoin="round"/>
<path d="M378.463 37.1885H187.545C187.545 29.2084 194.015 22.7392 201.995 22.7392H364.014C371.994 22.7392 378.463 29.2084 378.463 37.1885Z" fill="#263238" stroke="#263238" stroke-width="0.75" stroke-linecap="round" stroke-linejoin="round"/>
<path d="M318.896 57.0332H251.856V182.355H318.896V57.0332Z" fill="#FDDAD5"/>
<path opacity="0.6" d="M318.896 57.0332H251.856V182.355H318.896V57.0332Z" fill="white"/>
<path d="M373.015 191.63H193.005V260.124H373.015V191.63Z" fill="#FDDAD5"/>
<path opacity="0.6" d="M373.015 191.63H193.005V260.124H373.015V191.63Z" fill="white"/>
<path d="M373.015 28.4517H193.005V45.0509H373.015V28.4517Z" fill="url(#paint4_linear)"/>
<path opacity="0.6" d="M373.015 28.4517H193.005V45.0509H373.015V28.4517Z" fill="white"/>
<path d="M370.485 31.6763H196.24V39.0221H370.485V31.6763Z" fill="white"/>
<path d="M370.475 31.6763H350.745V39.0221H370.475V31.6763Z" fill="#263238" stroke="#263238" stroke-width="0.75" stroke-linecap="round" stroke-linejoin="round"/>
<path d="M240.59 59.9219H194.649C194.453 59.9388 194.255 59.9148 194.068 59.8512C193.882 59.7877 193.71 59.6861 193.565 59.5528C193.42 59.4195 193.304 59.2575 193.224 59.077C193.145 58.8965 193.104 58.7015 193.104 58.5043C193.104 58.3072 193.145 58.1122 193.224 57.9317C193.304 57.7512 193.42 57.5892 193.565 57.4559C193.71 57.3226 193.882 57.221 194.068 57.1575C194.255 57.0939 194.453 57.0699 194.649 57.0868H240.59C240.786 57.0699 240.984 57.0939 241.17 57.1575C241.357 57.221 241.528 57.3226 241.674 57.4559C241.819 57.5892 241.935 57.7512 242.014 57.9317C242.094 58.1122 242.135 58.3072 242.135 58.5043C242.135 58.7015 242.094 58.8965 242.014 59.077C241.935 59.2575 241.819 59.4195 241.674 59.5528C241.528 59.6861 241.357 59.7877 241.17 59.8512C240.984 59.9148 240.786 59.9388 240.59 59.9219Z" fill="#263238"/>
<path d="M240.589 69.8495H194.649C194.272 69.8495 193.91 69.6996 193.643 69.4328C193.376 69.1659 193.226 68.804 193.226 68.4267C193.226 68.0493 193.376 67.6875 193.643 67.4206C193.91 67.1538 194.272 67.0039 194.649 67.0039H240.589C240.967 67.0039 241.329 67.1538 241.595 67.4206C241.862 67.6875 242.012 68.0493 242.012 68.4267C242.012 68.804 241.862 69.1659 241.595 69.4328C241.329 69.6996 240.967 69.8495 240.589 69.8495Z" fill="#263238"/>
<path d="M240.59 79.7671H194.649C194.453 79.784 194.255 79.76 194.068 79.6964C193.882 79.6329 193.71 79.5313 193.565 79.398C193.42 79.2647 193.304 79.1027 193.224 78.9222C193.145 78.7417 193.104 78.5467 193.104 78.3496C193.104 78.1524 193.145 77.9574 193.224 77.7769C193.304 77.5964 193.42 77.4344 193.565 77.3011C193.71 77.1678 193.882 77.0662 194.068 77.0027C194.255 76.9391 194.453 76.9151 194.649 76.932H240.59C240.786 76.9151 240.984 76.9391 241.17 77.0027C241.357 77.0662 241.528 77.1678 241.674 77.3011C241.819 77.4344 241.935 77.5964 242.014 77.7769C242.094 77.9574 242.135 78.1524 242.135 78.3496C242.135 78.5467 242.094 78.7417 242.014 78.9222C241.935 79.1027 241.819 79.2647 241.674 79.398C241.528 79.5313 241.357 79.6329 241.17 79.6964C240.984 79.76 240.786 79.784 240.59 79.7671Z" fill="#263238"/>
<path d="M240.589 89.6947H194.649C194.462 89.6947 194.277 89.6579 194.104 89.5864C193.932 89.5149 193.775 89.4101 193.643 89.278C193.511 89.1459 193.406 88.989 193.334 88.8164C193.263 88.6438 193.226 88.4587 193.226 88.2719C193.226 88.0851 193.263 87.9001 193.334 87.7274C193.406 87.5548 193.511 87.398 193.643 87.2658C193.775 87.1337 193.932 87.0289 194.104 86.9574C194.277 86.8859 194.462 86.8491 194.649 86.8491H240.589C240.967 86.8491 241.329 86.999 241.595 87.2658C241.862 87.5327 242.012 87.8946 242.012 88.2719C242.012 88.6493 241.862 89.0112 241.595 89.278C241.329 89.5448 240.967 89.6947 240.589 89.6947Z" fill="#263238"/>
<path d="M240.59 99.6123H194.649C194.453 99.6292 194.255 99.6052 194.068 99.5416C193.882 99.4781 193.71 99.3765 193.565 99.2432C193.42 99.1099 193.304 98.9479 193.224 98.7674C193.145 98.5869 193.104 98.3919 193.104 98.1948C193.104 97.9976 193.145 97.8026 193.224 97.6221C193.304 97.4416 193.42 97.2796 193.565 97.1463C193.71 97.013 193.882 96.9114 194.068 96.8479C194.255 96.7844 194.453 96.7603 194.649 96.7772H240.59C240.786 96.7603 240.984 96.7844 241.17 96.8479C241.357 96.9114 241.528 97.013 241.674 97.1463C241.819 97.2796 241.935 97.4416 242.014 97.6221C242.094 97.8026 242.135 97.9976 242.135 98.1948C242.135 98.3919 242.094 98.5869 242.014 98.7674C241.935 98.9479 241.819 99.1099 241.674 99.2432C241.528 99.3765 241.357 99.4781 241.17 99.5416C240.984 99.6052 240.786 99.6292 240.59 99.6123Z" fill="#263238"/>
<path d="M240.59 109.54H194.649C194.453 109.557 194.255 109.533 194.068 109.469C193.882 109.406 193.71 109.304 193.565 109.171C193.42 109.038 193.304 108.876 193.224 108.695C193.145 108.515 193.104 108.32 193.104 108.123C193.104 107.925 193.145 107.73 193.224 107.55C193.304 107.369 193.42 107.207 193.565 107.074C193.71 106.941 193.882 106.839 194.068 106.776C194.255 106.712 194.453 106.688 194.649 106.705H240.59C240.786 106.688 240.984 106.712 241.17 106.776C241.357 106.839 241.528 106.941 241.674 107.074C241.819 107.207 241.935 107.369 242.014 107.55C242.094 107.73 242.135 107.925 242.135 108.123C242.135 108.32 242.094 108.515 242.014 108.695C241.935 108.876 241.819 109.038 241.674 109.171C241.528 109.304 241.357 109.406 241.17 109.469C240.984 109.533 240.786 109.557 240.59 109.54Z" fill="#263238"/>
<path d="M240.589 119.468H194.649C194.462 119.468 194.277 119.431 194.104 119.359C193.932 119.288 193.775 119.183 193.643 119.051C193.511 118.919 193.406 118.762 193.334 118.589C193.263 118.417 193.226 118.232 193.226 118.045C193.226 117.858 193.263 117.673 193.334 117.5C193.406 117.328 193.511 117.171 193.643 117.039C193.775 116.907 193.932 116.802 194.104 116.73C194.277 116.659 194.462 116.622 194.649 116.622H240.589C240.967 116.622 241.329 116.772 241.595 117.039C241.862 117.306 242.012 117.668 242.012 118.045C242.012 118.422 241.862 118.784 241.595 119.051C241.329 119.318 240.967 119.468 240.589 119.468Z" fill="#263238"/>
<path d="M240.589 128.311H194.649C194.272 128.311 193.91 128.161 193.643 127.894C193.376 127.627 193.226 127.265 193.226 126.888C193.226 126.511 193.376 126.149 193.643 125.882C193.91 125.615 194.272 125.465 194.649 125.465H240.589C240.967 125.465 241.329 125.615 241.595 125.882C241.862 126.149 242.012 126.511 242.012 126.888C242.012 127.265 241.862 127.627 241.595 127.894C241.329 128.161 240.967 128.311 240.589 128.311Z" fill="#263238"/>
<path d="M240.59 138.207H194.649C194.453 138.223 194.255 138.199 194.068 138.136C193.882 138.072 193.71 137.971 193.565 137.837C193.42 137.704 193.304 137.542 193.224 137.362C193.145 137.181 193.104 136.986 193.104 136.789C193.104 136.592 193.145 136.397 193.224 136.216C193.304 136.036 193.42 135.874 193.565 135.741C193.71 135.607 193.882 135.506 194.068 135.442C194.255 135.379 194.453 135.355 194.649 135.371H240.59C240.786 135.355 240.984 135.379 241.17 135.442C241.357 135.506 241.528 135.607 241.674 135.741C241.819 135.874 241.935 136.036 242.014 136.216C242.094 136.397 242.135 136.592 242.135 136.789C242.135 136.986 242.094 137.181 242.014 137.362C241.935 137.542 241.819 137.704 241.674 137.837C241.528 137.971 241.357 138.072 241.17 138.136C240.984 138.199 240.786 138.223 240.59 138.207Z" fill="#263238"/>
<path d="M240.589 148.135H194.649C194.272 148.135 193.91 147.985 193.643 147.718C193.376 147.451 193.226 147.089 193.226 146.712C193.226 146.335 193.376 145.973 193.643 145.706C193.91 145.439 194.272 145.289 194.649 145.289H240.589C240.967 145.289 241.329 145.439 241.595 145.706C241.862 145.973 242.012 146.335 242.012 146.712C242.012 147.089 241.862 147.451 241.595 147.718C241.329 147.985 240.967 148.135 240.589 148.135Z" fill="#263238"/>
<path d="M240.59 158.053H194.649C194.453 158.07 194.255 158.046 194.068 157.982C193.882 157.919 193.71 157.817 193.565 157.684C193.42 157.55 193.304 157.388 193.224 157.208C193.145 157.027 193.104 156.832 193.104 156.635C193.104 156.438 193.145 156.243 193.224 156.063C193.304 155.882 193.42 155.72 193.565 155.587C193.71 155.453 193.882 155.352 194.068 155.288C194.255 155.225 194.453 155.201 194.649 155.218H240.59C240.786 155.201 240.984 155.225 241.17 155.288C241.357 155.352 241.528 155.453 241.674 155.587C241.819 155.72 241.935 155.882 242.014 156.063C242.094 156.243 242.135 156.438 242.135 156.635C242.135 156.832 242.094 157.027 242.014 157.208C241.935 157.388 241.819 157.55 241.674 157.684C241.528 157.817 241.357 157.919 241.17 157.982C240.984 158.046 240.786 158.07 240.59 158.053Z" fill="#263238"/>
<path d="M240.589 167.98H194.649C194.272 167.98 193.91 167.83 193.643 167.564C193.376 167.297 193.226 166.935 193.226 166.558C193.226 166.18 193.376 165.818 193.643 165.551C193.91 165.285 194.272 165.135 194.649 165.135H240.589C240.967 165.135 241.329 165.285 241.595 165.551C241.862 165.818 242.012 166.18 242.012 166.558C242.012 166.935 241.862 167.297 241.595 167.564C241.329 167.83 240.967 167.98 240.589 167.98Z" fill="#263238"/>
<path d="M240.59 177.897H194.649C194.453 177.914 194.255 177.89 194.068 177.827C193.882 177.763 193.71 177.662 193.565 177.528C193.42 177.395 193.304 177.233 193.224 177.053C193.145 176.872 193.104 176.677 193.104 176.48C193.104 176.283 193.145 176.088 193.224 175.907C193.304 175.727 193.42 175.565 193.565 175.432C193.71 175.298 193.882 175.197 194.068 175.133C194.255 175.07 194.453 175.045 194.649 175.062H240.59C240.786 175.045 240.984 175.07 241.17 175.133C241.357 175.197 241.528 175.298 241.674 175.432C241.819 175.565 241.935 175.727 242.014 175.907C242.094 176.088 242.135 176.283 242.135 176.48C242.135 176.677 242.094 176.872 242.014 177.053C241.935 177.233 241.819 177.395 241.674 177.528C241.528 177.662 241.357 177.763 241.17 177.827C240.984 177.89 240.786 177.914 240.59 177.897Z" fill="#263238"/>
<path d="M240.59 187.826H194.649C194.453 187.843 194.255 187.819 194.068 187.755C193.882 187.692 193.71 187.59 193.565 187.457C193.42 187.323 193.304 187.161 193.224 186.981C193.145 186.8 193.104 186.605 193.104 186.408C193.104 186.211 193.145 186.016 193.224 185.836C193.304 185.655 193.42 185.493 193.565 185.36C193.71 185.226 193.882 185.125 194.068 185.061C194.255 184.998 194.453 184.974 194.649 184.991H240.59C240.786 184.974 240.984 184.998 241.17 185.061C241.357 185.125 241.528 185.226 241.674 185.36C241.819 185.493 241.935 185.655 242.014 185.836C242.094 186.016 242.135 186.211 242.135 186.408C242.135 186.605 242.094 186.8 242.014 186.981C241.935 187.161 241.819 187.323 241.674 187.457C241.528 187.59 241.357 187.692 241.17 187.755C240.984 187.819 240.786 187.843 240.59 187.826Z" fill="#263238"/>
<path d="M372.667 59.9219H326.779C326.583 59.9388 326.385 59.9148 326.198 59.8512C326.012 59.7877 325.84 59.6861 325.695 59.5528C325.55 59.4195 325.434 59.2575 325.354 59.077C325.275 58.8965 325.234 58.7015 325.234 58.5043C325.234 58.3072 325.275 58.1122 325.354 57.9317C325.434 57.7512 325.55 57.5892 325.695 57.4559C325.84 57.3226 326.012 57.221 326.198 57.1575C326.385 57.0939 326.583 57.0699 326.779 57.0868H372.719C372.916 57.0699 373.114 57.0939 373.3 57.1575C373.487 57.221 373.658 57.3226 373.804 57.4559C373.949 57.5892 374.065 57.7512 374.144 57.9317C374.224 58.1122 374.265 58.3072 374.265 58.5043C374.265 58.7015 374.224 58.8965 374.144 59.077C374.065 59.2575 373.949 59.4195 373.804 59.5528C373.658 59.6861 373.487 59.7877 373.3 59.8512C373.114 59.9148 372.916 59.9388 372.719 59.9219H372.667Z" fill="#263238"/>
<path d="M372.667 69.8495H326.779C326.592 69.8495 326.407 69.8127 326.235 69.7412C326.062 69.6697 325.905 69.5649 325.773 69.4328C325.641 69.3007 325.536 69.1438 325.465 68.9712C325.393 68.7986 325.356 68.6135 325.356 68.4267C325.356 68.2398 325.393 68.0548 325.465 67.8822C325.536 67.7096 325.641 67.5527 325.773 67.4206C325.905 67.2885 326.062 67.1837 326.235 67.1122C326.407 67.0407 326.592 67.0039 326.779 67.0039H372.72C373.097 67.0039 373.459 67.1538 373.726 67.4206C373.993 67.6875 374.142 68.0493 374.142 68.4267C374.142 68.804 373.993 69.1659 373.726 69.4328C373.459 69.6996 373.097 69.8495 372.72 69.8495H372.667Z" fill="#263238"/>
<path d="M372.667 79.7671H326.779C326.583 79.784 326.385 79.76 326.198 79.6964C326.012 79.6329 325.84 79.5313 325.695 79.398C325.55 79.2647 325.434 79.1027 325.354 78.9222C325.275 78.7417 325.234 78.5467 325.234 78.3496C325.234 78.1524 325.275 77.9574 325.354 77.7769C325.434 77.5964 325.55 77.4344 325.695 77.3011C325.84 77.1678 326.012 77.0662 326.198 77.0027C326.385 76.9391 326.583 76.9151 326.779 76.932H372.719C372.916 76.9151 373.114 76.9391 373.3 77.0027C373.487 77.0662 373.658 77.1678 373.804 77.3011C373.949 77.4344 374.065 77.5964 374.144 77.7769C374.224 77.9574 374.265 78.1524 374.265 78.3496C374.265 78.5467 374.224 78.7417 374.144 78.9222C374.065 79.1027 373.949 79.2647 373.804 79.398C373.658 79.5313 373.487 79.6329 373.3 79.6964C373.114 79.76 372.916 79.784 372.719 79.7671H372.667Z" fill="#263238"/>
<path d="M372.667 89.6947H326.779C326.592 89.6947 326.407 89.6579 326.235 89.5864C326.062 89.5149 325.905 89.4101 325.773 89.278C325.641 89.1459 325.536 88.989 325.465 88.8164C325.393 88.6438 325.356 88.4587 325.356 88.2719C325.356 88.0851 325.393 87.9001 325.465 87.7274C325.536 87.5548 325.641 87.398 325.773 87.2658C325.905 87.1337 326.062 87.0289 326.235 86.9574C326.407 86.8859 326.592 86.8491 326.779 86.8491H372.72C373.097 86.8491 373.459 86.999 373.726 87.2658C373.993 87.5327 374.142 87.8946 374.142 88.2719C374.142 88.6493 373.993 89.0112 373.726 89.278C373.459 89.5448 373.097 89.6947 372.72 89.6947H372.667Z" fill="#263238"/>
<path d="M372.667 99.6123H326.779C326.583 99.6292 326.385 99.6052 326.198 99.5416C326.012 99.4781 325.84 99.3765 325.695 99.2432C325.55 99.1099 325.434 98.9479 325.354 98.7674C325.275 98.5869 325.234 98.3919 325.234 98.1948C325.234 97.9976 325.275 97.8026 325.354 97.6221C325.434 97.4416 325.55 97.2796 325.695 97.1463C325.84 97.013 326.012 96.9114 326.198 96.8479C326.385 96.7844 326.583 96.7603 326.779 96.7772H372.719C372.916 96.7603 373.114 96.7844 373.3 96.8479C373.487 96.9114 373.658 97.013 373.804 97.1463C373.949 97.2796 374.065 97.4416 374.144 97.6221C374.224 97.8026 374.265 97.9976 374.265 98.1948C374.265 98.3919 374.224 98.5869 374.144 98.7674C374.065 98.9479 373.949 99.1099 373.804 99.2432C373.658 99.3765 373.487 99.4781 373.3 99.5416C373.114 99.6052 372.916 99.6292 372.719 99.6123H372.667Z" fill="#263238"/>
<path d="M372.667 109.54H326.779C326.583 109.557 326.385 109.533 326.198 109.469C326.012 109.406 325.84 109.304 325.695 109.171C325.55 109.038 325.434 108.876 325.354 108.695C325.275 108.515 325.234 108.32 325.234 108.123C325.234 107.925 325.275 107.73 325.354 107.55C325.434 107.369 325.55 107.207 325.695 107.074C325.84 106.941 326.012 106.839 326.198 106.776C326.385 106.712 326.583 106.688 326.779 106.705H372.719C372.916 106.688 373.114 106.712 373.3 106.776C373.487 106.839 373.658 106.941 373.804 107.074C373.949 107.207 374.065 107.369 374.144 107.55C374.224 107.73 374.265 107.925 374.265 108.123C374.265 108.32 374.224 108.515 374.144 108.695C374.065 108.876 373.949 109.038 373.804 109.171C373.658 109.304 373.487 109.406 373.3 109.469C373.114 109.533 372.916 109.557 372.719 109.54H372.667Z" fill="#263238"/>
<path d="M372.667 119.468H326.779C326.592 119.468 326.407 119.431 326.235 119.359C326.062 119.288 325.905 119.183 325.773 119.051C325.641 118.919 325.536 118.762 325.465 118.589C325.393 118.417 325.356 118.232 325.356 118.045C325.356 117.858 325.393 117.673 325.465 117.5C325.536 117.328 325.641 117.171 325.773 117.039C325.905 116.907 326.062 116.802 326.235 116.73C326.407 116.659 326.592 116.622 326.779 116.622H372.72C373.097 116.622 373.459 116.772 373.726 117.039C373.993 117.306 374.142 117.668 374.142 118.045C374.142 118.422 373.993 118.784 373.726 119.051C373.459 119.318 373.097 119.468 372.72 119.468H372.667Z" fill="#263238"/>
<path d="M373.046 126.129H325.63V180.522H373.046V126.129Z" fill="#FDDAD5"/>
<path opacity="0.6" d="M373.046 126.129H325.63V180.522H373.046V126.129Z" fill="white"/>
<path d="M396.686 224.628C396.401 213.921 397.234 195.646 387.833 188.121C379.581 181.512 373.162 190.481 370.854 197.711C365.237 215.259 365.837 281.298 367.292 294.598C367.292 294.598 365.859 281.277 355.393 286.989C344.928 292.701 360.663 322.685 360.663 322.685C360.663 322.685 348.29 313.643 342.577 321.252C336.865 328.861 349.723 337.44 349.723 337.44C349.723 337.44 337.824 334.11 337.824 337.44C337.824 340.771 341.629 343.627 352.579 345.06H411.599C411.599 345.06 421.084 339.79 419.219 334.11C417.353 328.429 407.278 331.717 407.278 331.717C407.278 331.717 422.507 313.158 421.548 305.064C420.589 296.97 401.081 306.486 401.081 306.486C401.081 306.486 416.32 267.934 413.464 250.797C411.209 237.297 400.733 246.582 395.031 251.725C396.372 242.758 396.925 233.691 396.686 224.628Z" fill="url(#paint5_linear)"/>
<path opacity="0.1" d="M396.686 224.628C396.401 213.921 397.234 195.646 387.833 188.121C379.581 181.512 373.162 190.481 370.854 197.711C365.237 215.259 365.837 281.298 367.292 294.598C367.292 294.598 365.859 281.277 355.393 286.989C344.928 292.701 360.663 322.685 360.663 322.685C360.663 322.685 348.29 313.643 342.577 321.252C336.865 328.861 349.723 337.44 349.723 337.44C349.723 337.44 337.824 334.11 337.824 337.44C337.824 340.771 341.629 343.627 352.579 345.06H411.599C411.599 345.06 421.084 339.79 419.219 334.11C417.353 328.429 407.278 331.717 407.278 331.717C407.278 331.717 422.507 313.158 421.548 305.064C420.589 296.97 401.081 306.486 401.081 306.486C401.081 306.486 416.32 267.934 413.464 250.797C411.209 237.297 400.733 246.582 395.031 251.725C396.372 242.758 396.925 233.691 396.686 224.628Z" fill="#1C1C1E"/>
<path d="M377.704 343.785L382.046 213.678" stroke="url(#paint6_linear)" stroke-width="1.72695" stroke-linecap="round" stroke-linejoin="round"/>
<path d="M380.139 289.845L402.514 268.894" stroke="url(#paint7_linear)" stroke-width="1.72695" stroke-linecap="round" stroke-linejoin="round"/>
<path d="M390.615 280.318L395.368 266.997" stroke="url(#paint8_linear)" stroke-width="1.72695" stroke-linecap="round" stroke-linejoin="round"/>
<path d="M361.579 306.023L378.389 323.95" stroke="url(#paint9_linear)" stroke-width="1.72695" stroke-linecap="round" stroke-linejoin="round"/>
<path d="M407.278 316.499L378.716 331.254" stroke="url(#paint10_linear)" stroke-width="1.72695" stroke-linecap="round" stroke-linejoin="round"/>
<path d="M392.881 323.771L402.514 324.593" stroke="url(#paint11_linear)" stroke-width="1.72695" stroke-linecap="round" stroke-linejoin="round"/>
<path d="M181.96 345.566C181.96 349.486 144.598 352.669 98.5208 352.669C52.4433 352.669 15.0713 349.508 15.0713 345.566C15.0713 341.624 52.4328 338.462 98.5208 338.462C144.609 338.462 181.96 341.645 181.96 345.566Z" fill="#263238"/>
<path d="M92.4886 262.896C91.1771 261.96 90.2908 260.542 90.0243 258.953C89.7578 257.364 90.133 255.735 91.0674 254.422L119.47 214.617C119.933 213.965 120.521 213.411 121.199 212.986C121.877 212.561 122.632 212.273 123.421 212.14C124.21 212.007 125.018 212.03 125.797 212.209C126.577 212.388 127.315 212.719 127.967 213.183C128.619 213.646 129.173 214.234 129.598 214.912C130.023 215.59 130.311 216.345 130.444 217.134C130.577 217.923 130.554 218.731 130.375 219.511C130.196 220.291 129.865 221.028 129.401 221.68L100.999 261.485C100.535 262.139 99.9459 262.694 99.266 263.119C98.5861 263.544 97.8288 263.831 97.0377 263.962C96.2466 264.093 95.4374 264.066 94.6567 263.884C93.876 263.701 93.1391 263.365 92.4886 262.896Z" fill="white" stroke="#263238" stroke-width="0.75" stroke-linecap="round" stroke-linejoin="round"/>
<path d="M123.279 224.178L107.445 246.106" stroke="#263238" stroke-width="0.75" stroke-linecap="round" stroke-linejoin="round"/>
<path d="M49.2452 323.569C48.0896 322.746 47.1073 321.704 46.3545 320.501C45.6017 319.299 45.0932 317.96 44.858 316.561C44.6229 315.162 44.6656 313.731 44.9839 312.348C45.3021 310.966 45.8896 309.659 46.7128 308.504L87.2591 251.668C88.9291 249.337 91.4568 247.764 94.2862 247.296C97.1156 246.829 100.015 247.504 102.346 249.174C104.678 250.844 106.25 253.372 106.718 256.201C107.185 259.031 106.51 261.93 104.84 264.262L64.261 321.023C62.6022 323.345 60.0918 324.917 57.2782 325.394C54.4646 325.871 51.5766 325.215 49.2452 323.569Z" fill="#263238" stroke="#263238" stroke-width="0.75" stroke-linecap="round" stroke-linejoin="round"/>
<path d="M199.273 114.382C188.677 106.822 176.077 102.575 163.066 102.177C150.056 101.779 137.22 105.247 126.181 112.144C115.142 119.041 106.396 129.057 101.049 140.924C95.7022 152.792 93.9945 165.978 96.142 178.816C98.2895 191.654 104.196 203.567 113.114 213.049C122.032 222.53 133.561 229.154 146.244 232.083C158.926 235.012 172.193 234.114 184.365 229.504C196.538 224.893 207.069 216.776 214.629 206.18C224.762 191.969 228.838 174.316 225.958 157.101C223.078 139.887 213.48 124.521 199.273 114.382ZM129.442 212.258C120.682 206.006 113.972 197.297 110.162 187.232C106.351 177.167 105.611 166.198 108.034 155.712C110.457 145.226 115.935 135.694 123.775 128.322C131.616 120.949 141.466 116.067 152.081 114.293C162.696 112.518 173.598 113.931 183.41 118.353C193.222 122.775 201.503 130.007 207.205 139.134C212.906 148.262 215.774 158.875 215.444 169.632C215.114 180.39 211.602 190.807 205.351 199.568C196.966 211.315 184.259 219.251 170.024 221.631C155.789 224.01 141.192 220.639 129.442 212.258Z" fill="#263238" stroke="#263238" stroke-width="0.75" stroke-linecap="round" stroke-linejoin="round"/>
<path d="M123.6 137.224C127.657 132.284 132.654 128.197 138.301 125.199C143.948 122.202 150.133 120.355 156.499 119.763" stroke="#263238" stroke-width="0.75" stroke-linecap="round" stroke-linejoin="round"/>
<path d="M114.179 155.563C115.444 150.792 117.434 146.243 120.079 142.075" stroke="#263238" stroke-width="0.75" stroke-linecap="round" stroke-linejoin="round"/>
<path d="M97.27 164.933C98.0113 149.505 104.319 134.869 115.024 123.736C125.729 112.603 140.107 105.727 155.494 104.382C170.88 103.037 186.232 107.314 198.707 116.421C211.182 125.528 219.933 138.847 223.34 153.912" stroke="white" stroke-miterlimit="10"/>
<path d="M224.268 177.021C222.129 192.192 214.607 206.087 203.075 216.173C191.543 226.259 176.769 231.863 161.449 231.962C146.128 232.061 131.283 226.649 119.621 216.713C107.96 206.777 100.259 192.98 97.9235 177.839" stroke="white" stroke-miterlimit="10"/>
<path d="M224.387 159.907C224.942 164.236 225.051 168.611 224.712 172.962" stroke="white" stroke-miterlimit="10"/>
<defs>
<linearGradient id="paint0_linear" x1="216.205" y1="282.241" x2="216.205" y2="-7.53481e-06" gradientUnits="userSpaceOnUse">
<stop stop-color="#FF5E3A"/>
<stop offset="1" stop-color="#FF9500"/>
</linearGradient>
<linearGradient id="paint1_linear" x1="215" y1="345.777" x2="215" y2="332.181" gradientUnits="userSpaceOnUse">
<stop stop-color="#FF5E3A"/>
<stop offset="1" stop-color="#FF9500"/>
</linearGradient>
<linearGradient id="paint2_linear" x1="143.797" y1="24.5729" x2="143.797" y2="7.97363" gradientUnits="userSpaceOnUse">
<stop stop-color="#FF5E3A"/>
<stop offset="1" stop-color="#FF9500"/>
</linearGradient>
<linearGradient id="paint3_linear" x1="221.345" y1="243.936" x2="221.345" y2="30.7173" gradientUnits="userSpaceOnUse">
<stop stop-color="#FF5E3A"/>
<stop offset="1" stop-color="#FF9500"/>
</linearGradient>
<linearGradient id="paint4_linear" x1="283.01" y1="45.0509" x2="283.01" y2="28.4517" gradientUnits="userSpaceOnUse">
<stop stop-color="#FF5E3A"/>
<stop offset="1" stop-color="#FF9500"/>
</linearGradient>
<linearGradient id="paint5_linear" x1="379.708" y1="345.06" x2="379.708" y2="185.814" gradientUnits="userSpaceOnUse">
<stop stop-color="#FF5E3A"/>
<stop offset="1" stop-color="#FF9500"/>
</linearGradient>
<linearGradient id="paint6_linear" x1="379.875" y1="343.785" x2="379.875" y2="213.678" gradientUnits="userSpaceOnUse">
<stop stop-color="#FF5E3A"/>
<stop offset="1" stop-color="#FF9500"/>
</linearGradient>
<linearGradient id="paint7_linear" x1="391.327" y1="289.845" x2="391.327" y2="268.894" gradientUnits="userSpaceOnUse">
<stop stop-color="#FF5E3A"/>
<stop offset="1" stop-color="#FF9500"/>
</linearGradient>
<linearGradient id="paint8_linear" x1="392.992" y1="280.318" x2="392.992" y2="266.997" gradientUnits="userSpaceOnUse">
<stop stop-color="#FF5E3A"/>
<stop offset="1" stop-color="#FF9500"/>
</linearGradient>
<linearGradient id="paint9_linear" x1="369.984" y1="323.95" x2="369.984" y2="306.023" gradientUnits="userSpaceOnUse">
<stop stop-color="#FF5E3A"/>
<stop offset="1" stop-color="#FF9500"/>
</linearGradient>
<linearGradient id="paint10_linear" x1="392.997" y1="331.254" x2="392.997" y2="316.499" gradientUnits="userSpaceOnUse">
<stop stop-color="#FF5E3A"/>
<stop offset="1" stop-color="#FF9500"/>
</linearGradient>
<linearGradient id="paint11_linear" x1="397.697" y1="324.593" x2="397.697" y2="323.771" gradientUnits="userSpaceOnUse">
<stop stop-color="#FF5E3A"/>
<stop offset="1" stop-color="#FF9500"/>
</linearGradient>
</defs>
</svg>
