<svg width="329" height="350" viewBox="0 0 329 350" fill="none" xmlns="http://www.w3.org/2000/svg">
<path opacity="0.2" d="M126.97 276.251L190.872 264.336C190.872 264.336 205.328 309.95 208.244 315.85L206.717 319.43L207.679 325.421L144.174 339.863L139.083 335.848L126.97 276.251Z" fill="black" fill-opacity="0.7"/>
<path d="M186.23 259.448L124.456 274.073L139.082 335.847L200.856 321.222L186.23 259.448Z" fill="url(#paint0_linear)"/>
<path opacity="0.2" d="M190.177 276.114L200.428 319.399L141.518 333.344C134.42 315.583 128.993 293.219 128.993 293.219L190.177 276.114Z" fill="black" fill-opacity="0.7"/>
<path d="M186.23 259.448L124.456 274.073L139.082 335.847L200.856 321.222L186.23 259.448Z" stroke="#263238" stroke-linecap="round" stroke-linejoin="round"/>
<path d="M202.787 317.286C187.346 320.942 165.478 324.377 152.289 326.316C145.419 327.323 140.84 327.919 140.84 327.919C134.993 317.233 124.444 274.077 124.444 274.077L186.216 259.453C186.338 259.979 186.445 260.506 186.56 261.025C193.925 294.403 202.787 317.286 202.787 317.286Z" fill="white"/>
<path opacity="0.4" d="M202.786 317.286C187.345 320.942 165.477 324.376 152.288 326.315C142.365 319.728 139.991 313.271 140.113 307.111C140.243 299.799 172.102 306.943 178.758 299.7C183.506 294.532 183.338 272.603 186.574 261.024C193.924 294.402 202.786 317.286 202.786 317.286Z" fill="url(#paint1_linear)"/>
<path d="M202.787 317.286C187.346 320.942 165.478 324.377 152.289 326.316C145.419 327.323 140.84 327.919 140.84 327.919C134.993 317.233 124.444 274.077 124.444 274.077L186.216 259.453C186.338 259.979 186.445 260.506 186.56 261.025C193.925 294.403 202.787 317.286 202.787 317.286Z" stroke="#263238" stroke-linecap="round" stroke-linejoin="round"/>
<path d="M134.886 283.418C135.724 282.442 136.729 281.622 137.855 280.999L138.771 283.35L141.969 282.189C143.038 281.8 144.259 281.296 144.633 280.235C145.221 281.632 147.251 281.396 148.693 280.938C158.682 277.722 168.884 275.215 179.224 273.435" stroke="#263238" stroke-linecap="round" stroke-linejoin="round"/>
<path d="M136.435 291.967C135.771 291.624 136.321 290.44 137.069 290.486C137.817 290.532 138.298 291.356 138.359 292.104C138.69 292.068 139 291.928 139.247 291.705C139.494 291.482 139.664 291.186 139.733 290.86L140.794 291.624C140.705 291.492 140.645 291.344 140.616 291.188C140.587 291.032 140.59 290.872 140.626 290.717C140.661 290.563 140.728 290.417 140.822 290.29C140.916 290.162 141.035 290.055 141.172 289.975C141.309 289.895 141.46 289.844 141.618 289.825C141.775 289.806 141.935 289.819 142.087 289.865C142.238 289.91 142.38 289.985 142.501 290.087C142.623 290.189 142.722 290.314 142.793 290.456C142.717 289.586 143.053 288.334 143.9 288.532C144.164 288.641 144.405 288.799 144.61 288.998C144.869 289.155 145.161 289.25 145.463 289.273C145.765 289.296 146.068 289.248 146.347 289.132C146.627 289.016 146.875 288.835 147.072 288.605C147.269 288.375 147.409 288.101 147.48 287.807C148.312 288.754 149.77 288.624 151.044 288.41L162.158 286.517C162.264 285.815 162.616 284.914 163.318 284.991C163.722 285.052 163.989 285.441 164.341 285.655C164.882 285.881 165.487 285.903 166.043 285.716C171.049 284.631 175.962 283.153 180.736 281.296" stroke="#263238" stroke-linecap="round" stroke-linejoin="round"/>
<path d="M140.267 301.699C141.752 301.829 143.247 301.623 144.641 301.096C144.394 300.575 144.332 299.985 144.463 299.424C144.595 298.863 144.913 298.362 145.366 298.005L146.709 298.868C152.119 298.739 157.496 297.996 162.738 296.654C165.081 296.059 167.402 295.334 169.714 294.608L182.888 290.502" stroke="#263238" stroke-linecap="round" stroke-linejoin="round"/>
<path opacity="0.2" d="M242.348 31.1249L241.119 31.2012C240.553 31.2669 239.982 31.1274 239.51 30.8081C239.038 30.4888 238.696 30.0108 238.547 29.461C236.669 22.6296 229.799 18.7904 221.869 19.2865C214.709 19.7292 207.161 24.2478 202.787 30.4914C202.25 31.3098 201.538 31.9992 200.702 32.5099C199.867 33.0206 198.929 33.34 197.955 33.4453L191.849 33.8269C191.015 33.9039 190.179 33.7111 189.463 33.2769C188.747 32.8427 188.19 32.19 187.873 31.415C185.407 25.5912 179.156 21.9351 171.989 22.3778C164.043 22.8663 155.83 27.6367 151.747 34.8421C151.424 35.422 150.966 35.9155 150.412 36.2809C149.858 36.6463 149.224 36.8727 148.564 36.9411L147.335 37.0174C147.047 37.0491 146.776 37.1734 146.564 37.3715C146.353 37.5696 146.211 37.831 146.16 38.1165L145.679 41.1696C145.649 41.272 145.642 41.3794 145.656 41.485C145.671 41.5905 145.707 41.6919 145.763 41.7824C145.819 41.873 145.894 41.9509 145.982 42.011C146.07 42.0711 146.169 42.1121 146.274 42.1314L147.755 42.5817C148.329 42.7525 148.826 43.1179 149.16 43.6151C149.494 44.1123 149.645 44.7103 149.587 45.3066C149.068 55.0842 155.968 62.2666 165.791 61.6636C175.263 61.0759 184.278 53.4278 187.224 44.0014C187.473 43.2382 187.907 42.5487 188.488 41.9946C189.069 41.4405 189.778 41.039 190.552 40.8262C192.652 40.2729 194.837 40.1176 196.994 40.3682C197.681 40.4483 198.313 40.784 198.764 41.3086C199.215 41.8333 199.452 42.5084 199.429 43.1999C199.429 52.4738 206.168 59.1601 215.656 58.5723C225.495 57.977 234.822 49.8176 237.432 39.895C237.62 39.208 237.966 38.5744 238.441 38.0444C238.917 37.5144 239.51 37.1027 240.172 36.8419L241.829 36.2083C242.06 36.1295 242.266 35.9903 242.426 35.8051C242.586 35.6199 242.693 35.3955 242.737 35.155L243.225 32.1019C243.265 31.9754 243.271 31.8408 243.243 31.7113C243.215 31.5818 243.154 31.4619 243.065 31.3633C242.976 31.2647 242.864 31.1909 242.738 31.1491C242.612 31.1073 242.478 31.0989 242.348 31.1249V31.1249ZM166.211 59.0837C157.052 59.6486 150.861 52.4585 152.342 43.0549C153.823 33.6514 162.463 25.4996 171.6 24.9729C180.736 24.4462 186.949 31.5981 185.461 41.0017C183.972 50.4053 175.347 58.5189 166.211 59.0837ZM188.186 39.0172C188.221 38.5083 188.236 37.9817 188.231 37.4372C188.241 37.2197 188.327 37.0126 188.476 36.8531C188.624 36.6937 188.824 36.5923 189.04 36.5671L199.971 35.8954C200.065 35.8864 200.161 35.9022 200.248 35.9413C200.335 35.9804 200.41 36.0415 200.466 36.1185C200.523 36.1954 200.558 36.2857 200.569 36.3804C200.579 36.4751 200.565 36.571 200.528 36.6587C200.36 37.1853 200.207 37.712 200.07 38.2463C195.368 36.88 190.674 38.1089 188.186 39.0172ZM216.06 55.9925C206.901 56.5573 200.711 49.3672 202.199 39.9636C203.688 30.5601 212.313 22.4083 221.449 21.8816C230.586 21.355 236.799 28.5069 235.318 37.9104C233.837 47.314 225.22 55.4276 216.06 55.9925Z" fill="black" fill-opacity="0.7"/>
<path d="M234.509 33.0259L164.47 42.3226C162.817 42.5422 161.227 43.106 159.805 43.9776C158.382 44.8493 157.158 46.0094 156.212 47.3831L145.961 62.2975C145.867 62.4362 145.805 62.5942 145.781 62.7599C145.757 62.9256 145.77 63.0947 145.82 63.2545C145.869 63.4144 145.955 63.561 146.069 63.6834C146.183 63.8058 146.324 63.9008 146.48 63.9615V63.9615C147.167 64.2255 147.922 64.2501 148.625 64.0312C149.327 63.8124 149.935 63.3629 150.35 62.7555L159.83 49.0165C160.394 48.194 161.123 47.4978 161.97 46.9722C162.818 46.4466 163.765 46.1031 164.753 45.9634L234.761 36.0408L234.509 33.0259Z" fill="#263238"/>
<path d="M140.022 38.918L210.656 37.7502C212.326 37.7267 213.983 38.0543 215.519 38.7117C217.055 39.3691 218.435 40.3417 219.571 41.5666L231.921 54.8018C232.035 54.9243 232.119 55.0711 232.168 55.2311C232.217 55.391 232.229 55.56 232.204 55.7253C232.178 55.8905 232.115 56.0479 232.02 56.1854C231.925 56.3229 231.8 56.437 231.654 56.5192C231.015 56.8834 230.271 57.0213 229.544 56.9105C228.817 56.7997 228.148 56.4467 227.647 55.9086L216.236 43.6961C215.553 42.9643 214.725 42.3827 213.805 41.9885C212.885 41.5943 211.893 41.396 210.893 41.4063L140.183 41.9406L140.022 38.918Z" fill="#263238"/>
<path d="M182.836 43.4135C183.706 43.5738 183.668 49.5197 181.698 51.5271C179.729 53.5345 177.714 48.6495 178.226 46.894C178.737 45.1385 180.111 42.8944 182.836 43.4135Z" fill="url(#paint2_linear)" stroke="#263238" stroke-linecap="round" stroke-linejoin="round"/>
<path d="M195.109 42.6504C194.269 42.9252 195.04 48.7566 197.238 50.5656C199.437 52.3746 200.841 47.2148 200.116 45.5432C199.391 43.8717 197.742 41.8032 195.109 42.6504Z" fill="url(#paint3_linear)" stroke="#263238" stroke-linecap="round" stroke-linejoin="round"/>
<path opacity="0.5" d="M151.35 29.4988C155.044 26.3388 162.868 20.9577 171.432 26.0793C179.996 31.2009 182.95 36.7652 181.194 44.2987C179.438 51.8322 174.042 61.9075 161.349 60.152C148.656 58.3964 139.878 39.3145 151.35 29.4988Z" fill="url(#paint4_linear)"/>
<path opacity="0.5" d="M201.291 27.0639C204.985 23.9039 212.801 18.5152 221.365 23.6368C229.929 28.7583 232.891 34.3226 231.127 41.8562C229.364 49.3897 223.983 59.4649 211.282 57.7094C198.581 55.9539 189.811 36.8414 201.291 27.0639Z" fill="url(#paint5_linear)"/>
<path d="M235.967 31.9567L234.738 32.033C234.129 32.0732 233.522 31.9351 232.99 31.6355C232.459 31.3359 232.027 30.8878 231.746 30.3462C228.342 23.7209 220.549 20.0114 212.603 20.4999C209.093 20.7288 205.701 21.8519 202.748 23.7624C199.796 25.673 197.381 28.3073 195.734 31.4148C195.339 32.2227 194.74 32.9133 193.995 33.418C193.251 33.9228 192.387 34.2242 191.491 34.2923L185.384 34.6663C184.484 34.7137 183.587 34.5235 182.783 34.1149C181.979 33.7063 181.297 33.0937 180.805 32.3383C178.787 29.4578 176.065 27.1418 172.898 25.6107C169.732 24.0796 166.226 23.3844 162.715 23.5912C154.769 24.0873 147.495 28.728 144.938 35.7273C144.726 36.2988 144.351 36.7959 143.86 37.1578C143.37 37.5197 142.784 37.7308 142.175 37.7652L140.946 37.8416C140.678 37.8592 140.428 37.9824 140.251 38.1841C140.073 38.3859 139.983 38.6497 140 38.9178L140.183 41.9022C140.199 42.1254 140.287 42.3373 140.435 42.5055C140.582 42.6737 140.781 42.7888 141 42.8334L142.603 43.2608C143.225 43.4182 143.788 43.7507 144.226 44.2188C144.665 44.6869 144.96 45.2711 145.076 45.9018C145.804 50.5046 148.191 54.6819 151.787 57.6458C155.383 60.6097 159.939 62.1553 164.596 61.9909C169.253 61.8266 173.689 59.9638 177.068 56.7538C180.446 53.5439 182.533 49.2087 182.934 44.566C183.018 43.8452 183.319 43.167 183.798 42.6216C184.276 42.0762 184.91 41.6895 185.613 41.5129C187.708 40.9598 189.888 40.8044 192.04 41.0549C192.768 41.1484 193.45 41.4614 193.996 41.9523C194.541 42.4433 194.924 43.0887 195.093 43.8027C196.043 48.3835 198.642 52.4559 202.397 55.2461C206.152 58.0363 210.801 59.3499 215.461 58.9373C220.121 58.5247 224.467 56.4147 227.673 53.0082C230.879 49.6016 232.723 45.1359 232.853 40.4596C232.887 39.8218 233.104 39.2072 233.477 38.689C233.851 38.1708 234.365 37.7707 234.959 37.5363L236.486 36.9104C236.697 36.839 236.88 36.7005 237.005 36.5158C237.131 36.3311 237.192 36.1105 237.18 35.8876L236.99 32.9032C236.976 32.6433 236.861 32.3991 236.67 32.2224C236.479 32.0457 236.227 31.9504 235.967 31.9567V31.9567ZM164.921 59.2286C161.644 59.4326 158.38 58.6598 155.542 57.008C152.704 55.3561 150.42 52.8995 148.979 49.9491C147.538 46.9987 147.005 43.6871 147.447 40.4334C147.889 37.1798 149.286 34.1305 151.462 31.6713C153.638 29.2122 156.495 27.4539 159.67 26.6189C162.846 25.7839 166.198 25.9098 169.302 26.9806C172.406 28.0515 175.122 30.0192 177.107 32.6346C179.092 35.25 180.257 38.3956 180.454 41.6732C180.711 46.0583 179.221 50.3667 176.31 53.6564C173.4 56.9462 169.305 58.9496 164.921 59.2286ZM182.782 39.7192C182.698 39.2002 182.598 38.6888 182.476 38.1927C182.453 38.0945 182.451 37.9922 182.471 37.8933C182.492 37.7943 182.533 37.7011 182.594 37.6201C182.654 37.5392 182.732 37.4727 182.821 37.4252C182.91 37.3777 183.009 37.3505 183.11 37.3454L194.04 36.6661C194.143 36.6538 194.248 36.6651 194.346 36.6992C194.444 36.7332 194.533 36.789 194.607 36.8625C194.68 36.936 194.736 37.0252 194.77 37.1234C194.804 37.2216 194.816 37.3262 194.803 37.4294C194.75 37.9331 194.712 38.4522 194.689 38.9559C190.744 37.9732 186.591 38.2399 182.805 39.7192H182.782ZM214.793 56.1373C211.516 56.3413 208.252 55.5685 205.415 53.9167C202.577 52.2649 200.293 49.8083 198.852 46.8578C197.411 43.9074 196.878 40.5958 197.32 37.3422C197.762 34.0886 199.159 31.0392 201.335 28.5801C203.511 26.1209 206.367 24.3626 209.543 23.5276C212.718 22.6926 216.07 22.8185 219.174 23.8894C222.278 24.9602 224.995 26.9279 226.98 29.5433C228.965 32.1587 230.13 35.3043 230.326 38.5819C230.585 42.9638 229.1 47.27 226.193 50.5596C223.287 53.8491 219.197 55.8545 214.816 56.1373H214.793Z" fill="#757575" stroke="#263238" stroke-linecap="round" stroke-linejoin="round"/>
<path opacity="0.4" d="M152.708 53.3587C152.708 53.3587 146.602 45.2756 150.907 35.8873C154.792 27.4455 163.883 26.4837 168.195 28.2545L158.814 44.6802C159.677 40.6681 160.97 36.7605 162.669 33.025C162.669 33.025 154.38 41.421 152.708 53.3587Z" fill="white"/>
<path opacity="0.4" d="M202.459 49.8179C202.459 49.8179 196.352 41.7424 200.657 32.3541C204.542 23.9047 213.633 22.9429 217.938 24.7214L208.527 41.1166C209.237 35.2317 212.419 29.4766 212.419 29.4766C212.419 29.4766 204.123 37.865 202.459 49.8179Z" fill="white"/>
<path opacity="0.2" d="M23.4097 192.428L25.6232 202.373L28.1496 191.115L21.5091 78.6616H16.9829L23.4097 192.428Z" fill="black" fill-opacity="0.7"/>
<path d="M19.3641 77.2954L25.623 190.413L23.3331 199.717L20.0205 190.726L13.7464 77.6007C13.7319 77.4124 13.7551 77.223 13.8147 77.0438C13.8743 76.8645 13.9691 76.6989 14.0935 76.5568C14.2179 76.4146 14.3694 76.2987 14.5391 76.2158C14.7089 76.1329 14.8935 76.0848 15.0821 76.0742L17.8681 75.9215C18.057 75.9113 18.2462 75.9389 18.4243 76.0028C18.6024 76.0666 18.766 76.1655 18.9054 76.2935C19.0448 76.4215 19.1571 76.5761 19.2359 76.7481C19.3147 76.9202 19.3583 77.1063 19.3641 77.2954V77.2954Z" fill="url(#paint6_linear)"/>
<path opacity="0.2" d="M23.3179 199.717L20.0053 190.726L13.7464 77.6008C13.7319 77.4124 13.7551 77.2231 13.8147 77.0438C13.8743 76.8645 13.9691 76.699 14.0935 76.5568C14.2179 76.4146 14.3694 76.2987 14.5391 76.2158C14.7089 76.133 14.8935 76.0848 15.0821 76.0742H15.4714L21.7761 190.024L23.3179 199.717Z" fill="black" fill-opacity="0.7"/>
<path d="M19.3641 77.2954L25.623 190.413L23.3331 199.717L20.0205 190.726L13.7464 77.6007C13.7319 77.4124 13.7551 77.223 13.8147 77.0438C13.8743 76.8645 13.9691 76.6989 14.0935 76.5568C14.2179 76.4146 14.3694 76.2987 14.5391 76.2158C14.7089 76.1329 14.8935 76.0848 15.0821 76.0742L17.8681 75.9215C18.057 75.9113 18.2462 75.9389 18.4243 76.0028C18.6024 76.0666 18.766 76.1655 18.9054 76.2935C19.0448 76.4215 19.1571 76.5761 19.2359 76.7481C19.3147 76.9202 19.3583 77.1063 19.3641 77.2954V77.2954Z" stroke="#263238" stroke-linecap="round" stroke-linejoin="round"/>
<path d="M15.5781 78.0586L21.6843 189.108C21.6912 189.234 21.7229 189.358 21.7776 189.472C21.8324 189.586 21.9091 189.688 22.0034 189.773C22.0977 189.857 22.2077 189.922 22.3272 189.964C22.4466 190.005 22.5732 190.023 22.6995 190.016H23.3712" fill="url(#paint7_linear)"/>
<path d="M15.5781 78.0586L21.6843 189.108C21.6912 189.234 21.7229 189.358 21.7776 189.472C21.8324 189.586 21.9091 189.688 22.0034 189.773C22.0977 189.857 22.2077 189.922 22.3272 189.964C22.4466 190.005 22.5732 190.023 22.6995 190.016H23.3712" stroke="#263238" stroke-linecap="round" stroke-linejoin="round"/>
<path opacity="0.2" d="M43.3697 213.51L64.0622 78.3106C64.6999 74.1541 66.9621 70.421 70.3514 67.932C73.7407 65.4429 77.9797 64.4017 82.1365 65.0372L280.825 95.4538C282.884 95.7677 284.86 96.4841 286.641 97.562C288.423 98.64 289.975 100.058 291.208 101.736C292.441 103.414 293.332 105.318 293.829 107.34C294.327 109.362 294.421 111.462 294.106 113.521L273.406 248.72C273.094 250.779 272.379 252.757 271.301 254.54C270.224 256.323 268.806 257.876 267.128 259.11C265.45 260.344 263.545 261.236 261.522 261.733C259.499 262.23 257.398 262.324 255.339 262.008L56.6431 231.584C52.4866 230.946 48.7535 228.684 46.2645 225.295C43.7755 221.906 42.7342 217.667 43.3697 213.51V213.51Z" fill="black" fill-opacity="0.7"/>
<path d="M59.316 83.3971L60.8873 73.1284C60.9179 72.9283 61.0268 72.7486 61.1899 72.6287C61.3531 72.5089 61.5571 72.4588 61.7572 72.4894L66.088 73.1521L64.287 84.9222L59.9562 84.2595C59.7573 84.2291 59.5786 84.1214 59.4587 83.9599C59.3388 83.7985 59.2875 83.5962 59.316 83.3971Z" fill="url(#paint8_linear)" stroke="#263238" stroke-linecap="round" stroke-linejoin="round"/>
<path d="M86.2172 61.7701L96.4858 63.3414C96.6859 63.372 96.8657 63.4809 96.9855 63.644C97.1054 63.8072 97.1555 64.0112 97.1249 64.2113L96.4622 68.5421L84.6921 66.741L85.3548 62.4103C85.3852 62.2114 85.4928 62.0327 85.6543 61.9128C85.8158 61.7929 86.0181 61.7416 86.2172 61.7701V61.7701Z" fill="url(#paint9_linear)" stroke="#263238" stroke-linecap="round" stroke-linejoin="round"/>
<path d="M100.212 63.9073L110.481 65.4786C110.681 65.5092 110.861 65.6181 110.981 65.7812C111.1 65.9444 111.151 66.1484 111.12 66.3485L110.457 70.6793L98.6872 68.8783L99.3499 64.5475C99.3803 64.3487 99.4879 64.1699 99.6494 64.05C99.8109 63.9301 100.013 63.8788 100.212 63.9073V63.9073Z" fill="url(#paint10_linear)" stroke="#263238" stroke-linecap="round" stroke-linejoin="round"/>
<path d="M41.0797 210.457L61.7721 75.2574C62.4098 71.1009 64.672 67.3678 68.0613 64.8788C71.4507 62.3897 75.6897 61.3485 79.8465 61.984L278.535 92.4005C280.593 92.7145 282.57 93.4309 284.351 94.5088C286.133 95.5868 287.685 97.0051 288.918 98.6828C290.151 100.361 291.042 102.265 291.539 104.287C292.036 106.309 292.131 108.409 291.816 110.467L271.116 245.666C270.804 247.726 270.089 249.704 269.011 251.487C267.934 253.27 266.516 254.823 264.838 256.057C263.16 257.291 261.255 258.182 259.232 258.68C257.209 259.177 255.108 259.271 253.049 258.955L54.3531 228.531C50.1966 227.893 46.4635 225.631 43.9745 222.242C41.4854 218.852 40.4442 214.613 41.0797 210.457V210.457Z" fill="url(#paint11_linear)" stroke="#263238" stroke-linecap="round" stroke-linejoin="round"/>
<path d="M253.828 257.268L54.109 226.699C52.348 226.431 50.6571 225.818 49.133 224.896C47.609 223.974 46.2816 222.76 45.2268 221.325C44.172 219.889 43.4104 218.26 42.9857 216.53C42.561 214.8 42.4814 213.003 42.7514 211.243L63.6041 75.0054C64.1479 71.4498 66.0817 68.2557 68.9803 66.1258C71.8788 63.9959 75.5048 63.1045 79.0605 63.6479L278.787 94.2171C282.342 94.7645 285.535 96.7004 287.665 99.5997C289.794 102.499 290.686 106.125 290.145 109.681L269.292 245.911C269.023 247.672 268.409 249.363 267.486 250.887C266.563 252.411 265.349 253.739 263.913 254.793C262.477 255.848 260.847 256.609 259.117 257.034C257.386 257.459 255.589 257.538 253.828 257.268Z" fill="#757575" stroke="#263238" stroke-linecap="round" stroke-linejoin="round"/>
<path d="M56.5365 143.64C56.5112 143.787 56.4429 143.924 56.3402 144.033C56.2376 144.142 56.105 144.219 55.9591 144.253C55.8133 144.288 55.6605 144.278 55.5199 144.226C55.3794 144.175 55.2572 144.082 55.1686 143.962C55.08 143.841 55.029 143.696 55.0219 143.547C55.0147 143.397 55.0518 143.249 55.1285 143.12C55.2052 142.991 55.3181 142.888 55.4531 142.823C55.5881 142.758 55.7393 142.734 55.8878 142.754C55.9892 142.768 56.0869 142.802 56.1749 142.855C56.2629 142.907 56.3394 142.977 56.4 143.059C56.4605 143.142 56.5038 143.236 56.5273 143.335C56.5507 143.435 56.5539 143.539 56.5365 143.64Z" fill="#999999" stroke="#263238" stroke-linecap="round" stroke-linejoin="round"/>
<path d="M56.1616 150.746C56.0846 151.119 55.867 151.449 55.5538 151.667C55.2405 151.885 54.8555 151.975 54.4783 151.917C54.101 151.859 53.7604 151.658 53.5268 151.357C53.2932 151.055 53.1844 150.675 53.2229 150.295C53.2999 149.921 53.5175 149.592 53.8307 149.374C54.144 149.156 54.529 149.066 54.9062 149.124C55.2835 149.182 55.6241 149.382 55.8577 149.684C56.0913 149.986 56.2001 150.366 56.1616 150.746V150.746Z" fill="#263238"/>
<path d="M58.7797 133.64C58.7028 134.014 58.4852 134.344 58.1719 134.562C57.8587 134.78 57.4737 134.869 57.0964 134.811C56.7192 134.753 56.3786 134.553 56.145 134.251C55.9114 133.949 55.8026 133.569 55.8411 133.19C55.8615 132.989 55.9225 132.794 56.0204 132.618C56.1184 132.441 56.2512 132.287 56.4108 132.163C56.5704 132.039 56.7534 131.95 56.9488 131.899C57.1442 131.848 57.3478 131.838 57.5473 131.869C57.7469 131.899 57.9381 131.97 58.1093 132.077C58.2806 132.184 58.4284 132.324 58.5436 132.49C58.6589 132.656 58.7393 132.843 58.7799 133.041C58.8205 133.238 58.8204 133.442 58.7797 133.64V133.64Z" fill="#263238"/>
<path d="M55.0096 155.547C54.977 155.758 54.8823 155.956 54.7376 156.114C54.5928 156.272 54.4045 156.383 54.1964 156.434C53.9883 156.485 53.7697 156.474 53.5683 156.4C53.3669 156.327 53.1917 156.196 53.0648 156.023C52.938 155.851 52.8652 155.644 52.8556 155.43C52.846 155.216 52.9001 155.004 53.011 154.821C53.1219 154.637 53.2847 154.491 53.4787 154.4C53.6728 154.309 53.8894 154.278 54.1013 154.31C54.2422 154.332 54.3774 154.381 54.4994 154.454C54.6213 154.528 54.7275 154.625 54.8119 154.74C54.8962 154.855 54.9571 154.985 54.991 155.124C55.025 155.262 55.0313 155.406 55.0096 155.547V155.547Z" fill="#263238"/>
<path d="M285.13 107.338L263.812 246.651C263.542 248.407 262.587 249.984 261.156 251.036C259.725 252.088 257.935 252.528 256.179 252.261L88.8609 226.653L85.2354 226.134L71.5956 224.043L64.9933 223.035L55.4523 221.554L53.3686 221.234C51.6129 220.965 50.0358 220.01 48.9838 218.579C47.9319 217.147 47.4912 215.357 47.7585 213.601L69.0844 74.2421C69.2167 73.3726 69.5191 72.5377 69.9745 71.7852C70.4299 71.0328 71.0293 70.3776 71.7384 69.8572C72.4474 69.3368 73.2521 68.9613 74.1065 68.7524C74.9608 68.5435 75.848 68.5052 76.7172 68.6397L139.176 78.1959L148.625 79.6461L157.655 81.0276L169.257 82.7985L173.455 83.4396L279.55 99.6745C280.42 99.8112 281.254 100.118 282.005 100.577C282.756 101.036 283.41 101.639 283.928 102.35C284.446 103.062 284.819 103.869 285.025 104.724C285.231 105.58 285.267 106.468 285.13 107.338V107.338Z" fill="#263238"/>
<g opacity="0.1">
<path opacity="0.1" d="M128.284 225.371L57.2993 214.51C56.8381 214.438 56.424 214.187 56.1478 213.81C55.8717 213.434 55.756 212.964 55.8262 212.502L62.8712 166.454C62.9445 165.992 63.1976 165.578 63.5751 165.302C63.9526 165.026 64.424 164.91 64.8863 164.981L135.871 175.842C136.1 175.876 136.32 175.956 136.518 176.075C136.716 176.195 136.888 176.353 137.025 176.539C137.162 176.726 137.261 176.938 137.315 177.163C137.37 177.387 137.38 177.621 137.344 177.849L130.299 223.898C130.264 224.127 130.184 224.347 130.063 224.545C129.943 224.743 129.784 224.916 129.597 225.052C129.41 225.189 129.198 225.288 128.972 225.342C128.747 225.397 128.513 225.407 128.284 225.371ZM64.8176 165.591C64.6687 165.568 64.5168 165.575 64.3706 165.611C64.2244 165.647 64.0867 165.712 63.9654 165.801C63.8442 165.891 63.7418 166.003 63.664 166.132C63.5863 166.261 63.5348 166.404 63.5124 166.553L56.4673 212.594C56.4446 212.743 56.4514 212.895 56.4875 213.041C56.5235 213.187 56.5881 213.325 56.6774 213.446C56.7667 213.567 56.8791 213.67 57.0081 213.747C57.1371 213.825 57.2801 213.877 57.4291 213.899L128.376 224.76C128.524 224.783 128.676 224.776 128.823 224.74C128.969 224.704 129.107 224.64 129.228 224.55C129.349 224.461 129.451 224.349 129.529 224.22C129.607 224.091 129.658 223.948 129.681 223.799L136.734 177.758C136.778 177.457 136.701 177.15 136.521 176.904C136.342 176.659 136.072 176.494 135.772 176.445L64.8176 165.591Z" fill="white"/>
</g>
<path opacity="0.4" d="M86.2275 193.458L102.119 202.473C103.802 199.387 104.584 195.89 104.376 192.382C104.168 188.873 102.979 185.493 100.944 182.627L86.2275 193.458Z" fill="url(#paint12_linear)"/>
<path opacity="0.6" d="M86.3794 192.55L100.576 182.116C98.6578 179.588 96.1286 177.589 93.226 176.307L90.4248 182.948L86.3794 192.55Z" fill="url(#paint13_linear)"/>
<path d="M88.7995 174.995L86.3418 191.023L92.6617 176.04C91.415 175.556 90.1203 175.205 88.7995 174.995V174.995Z" fill="url(#paint14_linear)"/>
<path opacity="0.1" d="M85.3876 193.268L88.1888 174.949C84.9716 174.509 81.6954 174.913 78.6813 176.121C75.6672 177.329 73.0187 179.299 70.9955 181.839C68.9722 184.378 67.6436 187.4 67.1399 190.608C66.6362 193.816 66.9747 197.1 68.1223 200.137L85.3876 193.268Z" fill="white"/>
<path opacity="0.2" d="M82.8236 212.013C86.5273 212.58 90.3157 212.024 93.7005 210.417C97.0852 208.81 99.9112 206.227 101.814 202.999L85.6401 193.84L68.3442 200.671C69.579 203.647 71.5602 206.254 74.0965 208.241C76.6329 210.228 79.6386 211.527 82.8236 212.013Z" fill="url(#paint15_linear)"/>
<path d="M115.126 182.434L113.021 182.112C112.758 182.072 112.513 182.252 112.473 182.514L112.151 184.619C112.11 184.882 112.291 185.127 112.553 185.168L114.658 185.49C114.921 185.53 115.166 185.35 115.206 185.087L115.528 182.982C115.569 182.719 115.388 182.474 115.126 182.434Z" fill="url(#paint16_linear)"/>
<path d="M126.567 185.337L117.369 183.925C117.323 183.919 117.278 183.903 117.238 183.879C117.198 183.855 117.163 183.823 117.135 183.785C117.107 183.748 117.088 183.705 117.077 183.659C117.066 183.614 117.064 183.567 117.072 183.521C117.078 183.474 117.094 183.43 117.118 183.389C117.142 183.349 117.173 183.314 117.211 183.287C117.249 183.259 117.292 183.239 117.337 183.228C117.383 183.217 117.43 183.215 117.476 183.223L126.635 184.635C126.682 184.641 126.726 184.657 126.766 184.681C126.807 184.705 126.842 184.737 126.869 184.775C126.897 184.812 126.917 184.855 126.928 184.901C126.939 184.946 126.941 184.993 126.933 185.039C126.917 185.124 126.871 185.201 126.804 185.255C126.737 185.31 126.653 185.339 126.567 185.337V185.337Z" fill="url(#paint17_linear)"/>
<path d="M123.521 186.444L117.132 185.468C117.086 185.461 117.041 185.445 117.001 185.421C116.961 185.397 116.926 185.366 116.898 185.328C116.871 185.29 116.851 185.247 116.84 185.202C116.829 185.156 116.827 185.109 116.835 185.063C116.85 184.97 116.901 184.887 116.976 184.832C117.052 184.776 117.146 184.752 117.239 184.765L123.628 185.742C123.674 185.749 123.719 185.764 123.759 185.788C123.799 185.812 123.834 185.844 123.862 185.882C123.89 185.92 123.91 185.962 123.92 186.008C123.931 186.053 123.933 186.101 123.926 186.147C123.919 186.193 123.903 186.238 123.879 186.278C123.855 186.318 123.824 186.353 123.786 186.381C123.748 186.409 123.705 186.428 123.66 186.439C123.614 186.45 123.567 186.452 123.521 186.444V186.444Z" fill="url(#paint18_linear)"/>
<path opacity="0.6" d="M114.08 189.273L111.975 188.951C111.713 188.91 111.467 189.091 111.427 189.353L111.105 191.458C111.065 191.721 111.245 191.966 111.508 192.006L113.613 192.328C113.875 192.369 114.121 192.188 114.161 191.926L114.483 189.821C114.523 189.558 114.343 189.313 114.08 189.273Z" fill="url(#paint19_linear)"/>
<path d="M125.521 192.169L116.316 190.764C116.224 190.748 116.142 190.696 116.087 190.621C116.032 190.546 116.007 190.453 116.018 190.36C116.033 190.267 116.084 190.184 116.16 190.128C116.235 190.073 116.33 190.049 116.423 190.062L125.628 191.474C125.674 191.481 125.717 191.497 125.757 191.521C125.796 191.545 125.831 191.577 125.858 191.614C125.885 191.651 125.905 191.693 125.916 191.738C125.927 191.783 125.929 191.829 125.922 191.875C125.915 191.921 125.899 191.964 125.875 192.004C125.851 192.043 125.82 192.078 125.782 192.105C125.745 192.132 125.703 192.152 125.658 192.163C125.613 192.174 125.567 192.176 125.521 192.169V192.169Z" fill="url(#paint20_linear)"/>
<path d="M122.476 193.268L116.072 192.291C115.989 192.266 115.919 192.212 115.872 192.139C115.826 192.066 115.808 191.979 115.821 191.893C115.834 191.808 115.877 191.73 115.943 191.674C116.009 191.618 116.093 191.588 116.179 191.588L122.568 192.565C122.614 192.572 122.659 192.588 122.699 192.612C122.739 192.636 122.774 192.667 122.802 192.705C122.829 192.743 122.849 192.786 122.86 192.831C122.871 192.877 122.873 192.924 122.865 192.97C122.852 193.061 122.804 193.142 122.731 193.198C122.658 193.254 122.567 193.279 122.476 193.268Z" fill="url(#paint21_linear)"/>
<path opacity="0.4" d="M113.513 196.255L111.404 195.935C111.141 195.896 110.896 196.076 110.856 196.339L110.537 198.448C110.497 198.71 110.678 198.956 110.941 198.996L113.049 199.315C113.312 199.355 113.557 199.174 113.597 198.911L113.916 196.803C113.956 196.54 113.775 196.295 113.513 196.255Z" fill="url(#paint22_linear)"/>
<path d="M124.468 199.008L115.308 197.603C115.226 197.578 115.155 197.524 115.109 197.451C115.063 197.378 115.044 197.291 115.057 197.206C115.07 197.12 115.114 197.042 115.179 196.986C115.245 196.93 115.329 196.9 115.415 196.901L124.575 198.305C124.621 198.312 124.666 198.328 124.706 198.351C124.746 198.375 124.781 198.407 124.809 198.445C124.836 198.483 124.856 198.525 124.867 198.571C124.878 198.616 124.88 198.664 124.872 198.71C124.866 198.756 124.85 198.801 124.826 198.841C124.802 198.881 124.77 198.916 124.733 198.944C124.695 198.972 124.652 198.992 124.607 199.002C124.561 199.013 124.514 199.015 124.468 199.008V199.008Z" fill="url(#paint23_linear)"/>
<path d="M121.415 200.107L115.026 199.13C114.944 199.105 114.873 199.051 114.826 198.978C114.78 198.905 114.762 198.818 114.775 198.733C114.788 198.647 114.831 198.569 114.897 198.513C114.963 198.457 115.047 198.427 115.133 198.428L121.522 199.405C121.604 199.43 121.675 199.484 121.722 199.557C121.768 199.63 121.786 199.717 121.773 199.802C121.76 199.888 121.717 199.965 121.651 200.021C121.585 200.077 121.501 200.108 121.415 200.107V200.107Z" fill="url(#paint24_linear)"/>
<path opacity="0.2" d="M111.99 202.951L109.885 202.628C109.622 202.588 109.377 202.768 109.336 203.031L109.014 205.136C108.974 205.399 109.154 205.644 109.417 205.684L111.522 206.006C111.784 206.046 112.03 205.866 112.07 205.604L112.392 203.499C112.432 203.236 112.252 202.991 111.99 202.951Z" fill="url(#paint25_linear)"/>
<path d="M123.422 205.846L114.262 204.442C114.169 204.427 114.086 204.376 114.031 204.3C113.975 204.225 113.951 204.13 113.965 204.037C113.971 203.991 113.987 203.946 114.011 203.906C114.035 203.866 114.066 203.831 114.104 203.803C114.142 203.775 114.185 203.756 114.23 203.745C114.276 203.734 114.323 203.732 114.369 203.739L123.567 205.144C123.613 205.15 123.657 205.166 123.698 205.19C123.738 205.214 123.773 205.246 123.801 205.284C123.828 205.321 123.848 205.364 123.859 205.41C123.87 205.455 123.872 205.502 123.864 205.548C123.858 205.599 123.842 205.647 123.815 205.691C123.789 205.734 123.753 205.771 123.711 205.799C123.669 205.827 123.622 205.846 123.572 205.854C123.522 205.863 123.47 205.86 123.422 205.846V205.846Z" fill="url(#paint26_linear)"/>
<path d="M120.384 206.946L113.995 205.969C113.949 205.962 113.904 205.946 113.864 205.922C113.824 205.898 113.789 205.867 113.761 205.829C113.733 205.791 113.714 205.748 113.703 205.703C113.692 205.657 113.69 205.61 113.698 205.564C113.704 205.518 113.72 205.473 113.744 205.433C113.768 205.393 113.799 205.358 113.837 205.33C113.875 205.302 113.918 205.282 113.963 205.271C114.009 205.261 114.056 205.259 114.102 205.266L120.491 206.243C120.583 206.258 120.666 206.309 120.722 206.385C120.778 206.46 120.802 206.555 120.788 206.648C120.782 206.694 120.766 206.739 120.742 206.779C120.718 206.819 120.686 206.854 120.649 206.882C120.611 206.91 120.568 206.93 120.523 206.94C120.477 206.951 120.43 206.953 120.384 206.946V206.946Z" fill="url(#paint27_linear)"/>
<path opacity="0.1" d="M110.945 209.797L108.84 209.475C108.577 209.434 108.332 209.615 108.292 209.877L107.969 211.982C107.929 212.245 108.109 212.49 108.372 212.53L110.477 212.852C110.74 212.893 110.985 212.712 111.025 212.45L111.347 210.345C111.387 210.082 111.207 209.837 110.945 209.797Z" fill="white"/>
<path d="M122.377 212.685L113.217 211.281C113.125 211.266 113.041 211.215 112.986 211.14C112.93 211.064 112.906 210.97 112.92 210.877C112.926 210.83 112.942 210.786 112.966 210.745C112.99 210.705 113.022 210.67 113.059 210.643C113.097 210.615 113.14 210.595 113.185 210.584C113.231 210.573 113.278 210.571 113.324 210.579L122.522 211.983C122.568 211.99 122.613 212.005 122.653 212.029C122.693 212.053 122.728 212.085 122.756 212.123C122.783 212.161 122.803 212.203 122.814 212.249C122.825 212.294 122.827 212.342 122.819 212.388C122.813 212.438 122.797 212.487 122.77 212.53C122.744 212.573 122.709 212.61 122.666 212.639C122.624 212.667 122.577 212.686 122.527 212.694C122.477 212.702 122.425 212.699 122.377 212.685V212.685Z" fill="url(#paint28_linear)"/>
<path d="M119.339 213.785L112.943 212.808C112.897 212.8 112.853 212.784 112.814 212.76C112.775 212.735 112.741 212.703 112.714 212.666C112.687 212.628 112.668 212.586 112.657 212.541C112.647 212.495 112.645 212.449 112.653 212.403C112.658 212.356 112.673 212.311 112.697 212.271C112.721 212.23 112.752 212.194 112.79 212.166C112.828 212.139 112.872 212.119 112.917 212.108C112.963 212.098 113.011 212.097 113.057 212.106L119.446 213.083C119.497 213.083 119.548 213.095 119.595 213.116C119.641 213.138 119.682 213.17 119.716 213.209C119.749 213.248 119.774 213.294 119.788 213.343C119.802 213.393 119.805 213.444 119.797 213.495C119.789 213.546 119.771 213.595 119.743 213.638C119.715 213.681 119.678 213.717 119.634 213.745C119.591 213.772 119.542 213.79 119.491 213.797C119.44 213.804 119.388 213.8 119.339 213.785V213.785Z" fill="url(#paint29_linear)"/>
<g opacity="0.1">
<path opacity="0.1" d="M261.98 195.13L146.603 177.476C146.14 177.405 145.669 177.521 145.292 177.797C144.914 178.073 144.661 178.487 144.588 178.949L144.099 182.124L144.008 182.735L143.351 187.017L143.26 187.627L142.603 191.902L142.512 192.505L141.855 196.787L141.764 197.39L141.107 201.672L141.016 202.282L140.359 206.557L140.268 207.167L139.611 211.441L139.52 212.052L138.863 216.326L138.772 216.937L138.115 221.211L138.024 221.822L137.543 224.997C137.507 225.226 137.517 225.46 137.571 225.686C137.626 225.911 137.724 226.123 137.861 226.31C137.998 226.498 138.171 226.656 138.369 226.776C138.567 226.897 138.787 226.977 139.016 227.012L254.37 244.667C254.831 244.735 255.301 244.617 255.675 244.339C256.05 244.062 256.3 243.647 256.37 243.186L256.858 240.011L256.95 239.4L257.606 235.126L257.698 234.515L258.354 230.233L258.446 229.63L259.102 225.356L259.194 224.745L259.85 220.471L259.942 219.86L260.598 215.578L260.69 214.975L261.346 210.693L261.438 210.09L262.094 205.816L262.186 205.205L262.842 200.924L262.934 200.313L263.422 197.138C263.493 196.681 263.381 196.214 263.112 195.839C262.842 195.463 262.435 195.209 261.98 195.13V195.13ZM255.797 243.095C255.75 243.394 255.587 243.664 255.342 243.844C255.098 244.024 254.792 244.1 254.492 244.056L139.146 226.402C138.844 226.355 138.573 226.19 138.391 225.945C138.21 225.699 138.132 225.391 138.176 225.089L138.665 221.914L256.278 239.919L255.797 243.095ZM256.377 239.278L138.756 221.28L139.413 216.998L257.026 235.004L256.377 239.278ZM257.14 234.393L139.504 216.426L140.161 212.144L257.774 230.142L257.14 234.393ZM257.904 229.508L140.283 211.503L140.939 207.228L258.553 225.226L257.904 229.508ZM258.667 224.623L141.046 206.618L141.703 202.343L259.316 220.349L258.667 224.623ZM259.43 219.738L141.809 201.733L142.466 197.451L260.079 215.456L259.43 219.738ZM260.194 214.846L142.573 196.848L143.229 192.573L260.842 210.571L260.194 214.846ZM260.957 209.961L143.244 191.993L143.901 187.719L261.514 205.717L260.957 209.961ZM261.72 205.083L143.992 187.108L144.649 182.826L262.262 200.832L261.72 205.083ZM144.855 182.185L145.343 179.018C145.366 178.869 145.417 178.726 145.495 178.597C145.573 178.468 145.675 178.355 145.796 178.266C145.918 178.176 146.055 178.112 146.202 178.076C146.348 178.04 146.5 178.033 146.649 178.056L261.857 195.741C262.157 195.788 262.425 195.952 262.604 196.196C262.783 196.441 262.858 196.747 262.812 197.046L262.323 200.221L144.855 182.185Z" fill="white"/>
</g>
<g opacity="0.1">
<path opacity="0.1" d="M274.299 112.956L77.7398 82.8675C77.4787 82.8274 77.2122 82.8393 76.9556 82.9024C76.699 82.9655 76.4574 83.0787 76.2447 83.2354C76.0319 83.3921 75.8522 83.5893 75.7159 83.8157C75.5795 84.042 75.4892 84.293 75.45 84.5543L64.4359 156.508C64.3569 157.034 64.4891 157.57 64.8037 157.999C65.1183 158.428 65.5897 158.715 66.1151 158.798L262.682 188.887C263.208 188.966 263.744 188.833 264.173 188.519C264.602 188.204 264.889 187.733 264.972 187.207L275.986 115.246C276.026 114.984 276.014 114.718 275.951 114.461C275.888 114.205 275.774 113.963 275.618 113.751C275.461 113.538 275.264 113.358 275.037 113.222C274.811 113.085 274.56 112.995 274.299 112.956V112.956ZM114.011 123.298L127.658 125.382L126.467 133.137L112.797 131.045L114.011 123.298ZM112.217 130.931L98.5162 128.878L99.7069 121.115L113.377 123.207L112.217 130.931ZM128.284 125.489L141.962 127.58L140.771 135.343L127.101 133.251L128.284 125.489ZM199.177 135.717L185.507 133.625L186.69 125.863L200.368 127.954L199.177 135.717ZM200.971 128.084L214.649 130.175L213.458 137.938L199.788 135.847L200.971 128.084ZM156.846 129.901L170.524 131.992L169.333 139.754L155.64 137.594L156.846 129.901ZM155.052 137.533L141.382 135.442L142.542 127.672L156.22 129.763L155.052 137.533ZM171.127 132.053L184.766 134.137L183.576 141.899L169.905 139.808L171.127 132.053ZM185.408 134.236L199.086 136.327L197.895 144.09L184.225 141.999L185.408 134.236ZM184.896 133.534L171.226 131.442L172.409 123.68L186.087 125.779L184.896 133.534ZM170.615 131.351L156.945 129.259L158.128 121.497L171.791 123.581L170.615 131.351ZM156.312 129.198L142.641 127.099L143.824 119.276L157.502 121.367L156.312 129.198ZM142.023 126.97L128.353 124.878L129.536 117.116L143.214 119.207L142.023 126.97ZM140.649 135.953L139.466 143.701L125.796 141.609L126.986 133.847L140.649 135.953ZM141.26 136.045L154.93 138.136L153.739 145.899L140.069 143.807L141.26 136.045ZM155.541 138.228L169.211 140.319L168.02 148.082L154.358 145.99L155.541 138.228ZM169.822 140.411L183.492 142.51L182.301 150.265L168.631 148.173L169.822 140.411ZM184.102 142.601L197.773 144.693L196.582 152.455L182.912 150.364L184.102 142.601ZM198.383 144.784L212.054 146.876L210.863 154.638L197.193 152.547L198.383 144.784ZM198.475 144.181L199.658 136.419L213.336 138.51L212.145 146.273L198.475 144.181ZM213.939 138.602L227.617 140.693L226.426 148.456L212.756 146.364L213.939 138.602ZM228.22 140.785L241.898 142.884L240.707 150.639L227.037 148.547L228.22 140.785ZM228.319 140.182L229.502 132.419L243.188 134.541L242.012 142.273L228.319 140.182ZM227.708 140.09L214.038 137.991L215.221 130.229L228.899 132.328L227.708 140.09ZM215.298 129.626L216.488 121.863L230.159 123.955L229.037 131.717L215.298 129.626ZM214.695 129.534L201.024 127.435L202.207 119.68L215.878 121.772L214.695 129.534ZM200.414 127.344L186.736 125.252L187.926 117.49L201.597 119.581L200.414 127.344ZM186.133 125.161L172.478 123.092L173.668 115.33L187.339 117.421L186.133 125.161ZM171.852 122.97L158.204 120.879L159.388 113.116L173.058 115.215L171.852 122.97ZM157.594 120.802L143.924 118.711L145.076 110.933L158.815 113.025L157.594 120.802ZM143.313 118.619L129.635 116.528L130.826 108.765L144.496 110.88L143.313 118.619ZM129.047 116.413L115.377 114.322L116.56 106.56L130.23 108.659L129.047 116.413ZM128.956 117.024L127.765 124.787L114.095 122.695L115.278 114.933L128.956 117.024ZM113.484 122.604L99.8138 120.505L100.997 112.742L114.675 114.841L113.484 122.604ZM99.2032 120.413L85.5405 118.322L86.7236 110.559L100.402 112.651L99.2032 120.413ZM99.1116 121.024L97.9209 128.786L84.2506 126.695L85.4413 118.932L99.1116 121.024ZM97.8293 129.42L96.6386 137.182L82.9683 135.091L84.159 127.328L97.8293 129.42ZM98.4399 129.519L112.11 131.61L110.919 139.373L97.2492 137.274L98.4399 129.519ZM112.721 131.702L126.376 133.778L125.185 141.541L111.492 139.434L112.721 131.702ZM125.094 142.174L123.903 149.937L110.233 147.838L111.423 140.075L125.094 142.174ZM125.704 142.266L139.374 144.357L138.207 152.097L124.529 150.005L125.704 142.266ZM139.985 144.449L153.655 146.54L152.465 154.303L138.794 152.211L139.985 144.449ZM154.235 146.601L167.974 148.692L166.784 156.455L153.075 154.386L154.235 146.601ZM168.516 148.784L182.187 150.875L180.996 158.638L167.326 156.547L168.516 148.784ZM182.797 150.967L196.467 153.066L195.277 160.821L181.607 158.73L182.797 150.967ZM197.078 153.158L210.748 155.249L209.558 163.012L195.887 160.92L197.078 153.158ZM211.359 155.341L225.06 157.44L223.869 165.202L210.199 163.111L211.359 155.341ZM211.451 154.73L212.641 146.975L226.342 149.044L225.151 156.806L211.451 154.73ZM226.922 149.158L240.593 151.249L239.402 159.012L225.732 156.921L226.922 149.158ZM241.249 151.333L254.919 153.425L253.729 161.187L240.058 159.096L241.249 151.333ZM241.341 150.73L242.524 142.968L256.202 145.059L254.988 152.86L241.341 150.73ZM242.623 142.334L243.806 134.572L257.484 136.663L256.278 144.464L242.623 142.334ZM243.898 133.938L245.065 126.237L258.736 128.328L257.56 136.068L243.898 133.938ZM243.295 133.839L229.617 131.748L230.807 123.985L244.462 126.145L243.295 133.839ZM230.899 123.382L232.09 115.681L245.745 117.749L244.562 125.512L230.899 123.382ZM230.296 123.283L216.618 121.192L217.809 113.429L231.479 115.528L230.296 123.283ZM216.015 121.1L202.322 119.07L203.513 111.307L217.183 113.399L216.015 121.1ZM201.734 118.917L188.056 116.826L189.247 109.063L202.917 111.155L201.734 118.917ZM187.453 116.726L173.76 114.696L174.951 106.934L188.621 109.025L187.453 116.726ZM173.172 114.543L159.494 112.452L160.67 104.774L174.34 106.865L173.172 114.543ZM158.876 112.406L145.198 110.307L146.389 102.552L160.059 104.644L158.876 112.406ZM144.595 110.216L130.917 108.124L132.1 100.377L145.778 102.484L144.595 110.216ZM130.314 108.033L116.636 105.941L117.827 98.1788L131.497 100.27L130.314 108.033ZM116.072 105.857L102.333 103.766L103.523 96.0035L117.194 98.1025L116.072 105.857ZM115.972 106.468L114.789 114.231L101.119 112.139L102.302 104.377L115.972 106.468ZM100.508 112.048L86.8381 109.949L88.0212 102.194L101.691 104.285L100.508 112.048ZM86.2275 109.857L72.5572 107.766L73.7403 100.003L87.4182 102.094L86.2275 109.857ZM86.1359 110.468L84.9452 118.23L71.2749 116.139L72.458 108.376L86.1359 110.468ZM84.8536 118.864L83.6629 126.626L69.9926 124.535L71.1833 116.772L84.8536 118.864ZM83.5713 127.26L82.3806 135.022L68.7103 132.931L69.901 125.168L83.5713 127.26ZM82.289 135.656L81.1059 143.411L67.428 141.319L68.6187 133.557L82.289 135.656ZM82.8996 135.747L96.5699 137.839L95.3868 145.601L81.7089 143.51L82.8996 135.747ZM97.1805 137.93L110.851 140.022L109.66 147.784L95.9898 145.693L97.1805 137.93ZM109.568 148.395L108.385 156.157L94.6998 153.99L95.8906 146.227L109.568 148.395ZM110.179 148.486L123.849 150.578L122.666 158.34L108.988 156.249L110.179 148.486ZM124.422 150.57L138.092 152.669L136.909 160.424L123.231 158.333L124.422 150.57ZM138.703 152.761L152.373 154.852L151.182 162.638L137.504 160.546L138.703 152.761ZM152.984 154.944L166.654 157.035L165.471 164.798L151.793 162.706L152.984 154.944ZM167.265 157.134L180.95 159.249L179.767 167.011L166.089 164.912L167.265 157.134ZM181.545 159.317L195.216 161.409L194.033 169.171L180.355 167.08L181.545 159.317ZM195.826 161.5L209.497 163.592L208.314 171.354L194.636 169.263L195.826 161.5ZM210.107 163.691L223.778 165.836L222.594 173.598L208.917 171.507L210.107 163.691ZM224.388 165.874L238.058 167.965L236.875 175.758L223.197 173.667L224.388 165.874ZM224.48 165.263L225.67 157.501L239.341 159.6L238.15 167.362L224.48 165.263ZM239.951 159.729L253.622 161.821L252.431 169.583L238.761 167.492L239.951 159.729ZM254.225 161.897L267.895 163.989L266.704 171.751L253.042 169.652L254.225 161.897ZM254.316 161.294L255.507 153.532L269.177 155.623L267.964 163.386L254.316 161.294ZM255.599 152.898L256.782 145.136L270.46 147.227L269.269 154.989L255.599 152.898ZM256.881 144.502L258.041 136.831L271.78 138.884L270.597 146.647L256.881 144.502ZM258.156 136.106L259.354 128.435L273.024 130.526L271.841 138.289L258.156 136.106ZM259.438 127.71L260.636 120.039L274.306 122.13L273.123 129.893L259.438 127.71ZM258.835 127.618L245.157 125.527L246.348 117.764L260.018 119.856L258.835 127.618ZM246.439 117.154L247.63 109.399L261.3 111.49L260.109 119.253L246.439 117.154ZM245.829 117.062L232.158 114.971L233.349 107.208L247.019 109.3L245.829 117.062ZM231.548 114.879L217.877 112.788L219.114 105.125L232.784 107.216L231.548 114.879ZM217.267 112.696L203.597 110.597L204.787 102.842L218.458 104.934L217.267 112.696ZM202.986 110.506L189.346 108.514L190.537 100.751L204.207 102.842L202.986 110.506ZM188.705 108.323L175.042 106.3L176.233 98.5375L189.903 100.629L188.705 108.323ZM174.424 106.132L160.754 104.041L161.952 96.3775L175.607 98.4765L174.424 106.132ZM160.151 103.949L146.473 101.858L147.664 94.0953L161.334 96.1867L160.151 103.949ZM145.87 101.766L132.192 99.6672L133.383 91.9123L147.061 94.0876L145.87 101.766ZM131.581 99.5756L117.911 97.4842L119.125 89.8209L132.795 91.9123L131.581 99.5756ZM117.308 97.3926L103.63 95.3012L104.821 87.5387L118.491 89.6301L117.308 97.3926ZM103.027 95.2097L89.3569 93.2099L90.5476 85.455L104.218 87.5464L103.027 95.2097ZM102.928 95.8126L101.745 103.575L88.067 101.484L89.2577 93.7213L102.928 95.8126ZM87.464 101.392L73.7937 99.4306L74.9844 91.6681L88.6547 93.7594L87.464 101.392ZM67.2982 141.853L80.9609 143.945L79.7778 151.707L66.0999 149.616L67.2982 141.853ZM81.5791 144.036L95.2494 146.128L94.0663 153.89L80.3884 151.799L81.5791 144.036ZM93.9366 154.501L92.7535 162.264L79.0832 160.172L80.2663 152.41L93.9366 154.501ZM94.5472 154.593L108.248 156.676L107.065 164.439L93.3946 162.347L94.5472 154.593ZM108.828 156.783L122.498 158.875L121.315 166.637L107.676 164.538L108.828 156.783ZM123.14 158.966L136.81 161.058L135.627 168.82L121.949 166.729L123.14 158.966ZM137.443 161.149L151.114 163.248L149.931 171.003L136.237 168.889L137.443 161.149ZM151.724 163.34L165.395 165.431L164.158 173.194L150.488 171.102L151.724 163.34ZM166.005 165.523L179.675 167.614L178.492 175.377L164.814 173.285L166.005 165.523ZM180.286 167.706L193.926 169.805L192.743 177.56L179.065 175.468L180.286 167.706ZM194.567 169.896L208.237 171.988L207.054 179.75L193.376 177.659L194.567 169.896ZM208.848 172.079L222.518 174.171L221.335 181.933L207.665 179.842L208.848 172.079ZM223.129 174.27L236.799 176.361L235.593 184.154L221.915 182.055L223.129 174.27ZM237.41 176.453L251.08 178.544L249.897 186.307L236.219 184.215L237.41 176.453ZM237.501 175.842L238.692 168.08L252.362 170.179L251.172 177.934L237.501 175.842ZM252.973 170.27L266.643 172.362L265.46 180.124L251.759 178.048L252.973 170.27ZM275.398 115.154L274.398 121.566L260.728 119.474L261.918 111.712L274.207 113.589C274.568 113.646 274.892 113.841 275.11 114.134C275.328 114.426 275.423 114.792 275.375 115.154H275.398ZM77.7093 83.4781L89.9981 85.3558L88.815 93.1183L75.076 91.0345L76.053 84.6535C76.08 84.4714 76.1428 84.2963 76.2377 84.1385C76.3327 83.9807 76.4578 83.8432 76.6061 83.734C76.7544 83.6247 76.9228 83.5459 77.1016 83.502C77.2805 83.4581 77.4663 83.4499 77.6483 83.4781H77.7093ZM65.1 156.6L66.077 150.219L79.7473 152.318L78.5642 160.073L66.2067 158.203C65.8396 158.145 65.5105 157.943 65.2916 157.643C65.0727 157.342 64.9818 156.967 65.0389 156.6H65.1ZM262.773 188.284L250.477 186.398L251.668 178.636L265.338 180.727L264.361 187.116C264.304 187.481 264.106 187.809 263.808 188.027C263.511 188.246 263.139 188.338 262.773 188.284V188.284Z" fill="white"/>
</g>
<path opacity="0.5" d="M267.811 164.599L264.361 187.1C264.335 187.275 264.274 187.442 264.183 187.593C264.093 187.743 263.973 187.875 263.831 187.979C263.689 188.083 263.528 188.158 263.357 188.2C263.186 188.242 263.008 188.25 262.834 188.222L66.1607 158.119C65.9873 158.092 65.8209 158.031 65.671 157.94C65.5211 157.848 65.3906 157.728 65.2872 157.587C65.1837 157.445 65.1091 157.284 65.0678 157.113C65.0265 156.943 65.0192 156.766 65.0464 156.592L65.5043 153.585C65.5043 153.585 74.7476 146.135 80.5332 147.021C87.3646 148.066 88.5934 151.944 94.6997 152.86C100.806 153.776 107.492 139.655 113.018 140.495C116.003 140.953 116.766 143.25 118.224 145.357C118.849 146.325 119.679 147.145 120.655 147.76C121.63 148.374 122.728 148.768 123.872 148.914L124.101 148.952C131.581 150.097 141.702 110.391 151.991 111.963C156.571 112.658 158.38 121.42 159.746 131.099C161.479 143.311 162.456 157.05 167.226 157.745C175.76 159.05 178.675 141.716 186.598 142.96C191.582 143.723 193.399 152.959 197.597 160.279C200.078 164.607 203.398 168.27 208.71 169.079C213.542 169.843 216.77 168.698 219.282 166.935C224.205 163.492 226.403 157.615 232.555 158.539C236.203 159.096 237.532 161.905 238.89 164.553C240.073 166.843 241.279 169.057 244.088 169.484C247.393 169.995 250.194 165.263 253.194 161.088C255.644 157.638 258.201 154.539 261.239 154.982C264.277 155.424 266.185 159.187 267.109 161.851C267.397 162.752 267.631 163.67 267.811 164.599V164.599Z" fill="url(#paint30_linear)"/>
<path opacity="0.5" d="M272.543 133.679L264.361 187.108C264.335 187.282 264.274 187.45 264.183 187.6C264.093 187.751 263.973 187.882 263.831 187.987C263.689 188.091 263.528 188.166 263.357 188.208C263.186 188.25 263.008 188.257 262.834 188.23L66.1607 158.119C65.9873 158.092 65.8209 158.031 65.671 157.94C65.5211 157.848 65.3906 157.728 65.2872 157.587C65.1837 157.445 65.1091 157.284 65.0678 157.114C65.0265 156.943 65.0192 156.766 65.0464 156.592L65.5043 153.585C73.6714 154.837 78.0297 148.723 83.51 149.563C88.9903 150.402 91.8297 154.226 96.959 155.012C102.088 155.799 110.003 143.792 115.613 144.655C116.493 144.783 117.353 145.024 118.17 145.372C120.33 146.273 121.819 147.723 123.819 148.929C125.392 149.883 127.142 150.511 128.963 150.776C135.535 151.776 148.686 127.992 156.311 129.16C157.631 129.399 158.827 130.09 159.693 131.114C164.196 136.022 165.356 148.296 171.707 149.265C179.408 150.448 183.53 137.923 191.002 139.06C198.475 140.197 200.673 153.081 209.321 154.402C217.969 155.722 227.349 132.091 236.333 133.465C245.317 134.839 247.882 146.983 255.69 148.174C264.262 149.486 272.543 133.679 272.543 133.679Z" fill="url(#paint31_linear)"/>
<path d="M268.727 158.516L264.346 187.101C264.319 187.275 264.259 187.442 264.168 187.593C264.077 187.744 263.957 187.875 263.816 187.979C263.674 188.083 263.513 188.159 263.342 188.2C263.171 188.242 262.993 188.25 262.819 188.223L66.1607 158.119C65.9873 158.092 65.8209 158.031 65.671 157.94C65.5211 157.848 65.3906 157.728 65.2872 157.587C65.1837 157.445 65.1091 157.284 65.0678 157.114C65.0265 156.943 65.0192 156.766 65.0464 156.592L65.2677 155.119C65.5501 154.852 70.1832 150.479 74.885 151.196C79.7471 151.959 79.7623 156.295 86.5402 157.302C93.3181 158.31 95.295 152.975 104.912 154.448C114.53 155.921 114.499 162.645 124.445 164.172C134.39 165.698 136.443 157.631 143.526 158.714C150.61 159.798 150.114 163.912 154.128 164.523C158.143 165.134 160.479 158.844 165.417 159.6C170.356 160.355 174.134 170.705 179.698 171.56C183.606 172.156 190.514 164.416 197.566 160.264C200.543 158.508 203.558 157.394 206.367 157.829C212.176 158.714 215.564 163.248 219.251 166.92C221.541 169.209 224.006 171.194 227.227 171.69C231.807 172.392 235.326 168.225 238.86 164.561C241.73 161.577 244.622 158.92 248.141 159.455C249.901 159.679 251.604 160.227 253.163 161.073C256.217 162.783 257.018 165.088 260.667 165.653C265.055 166.347 268.727 158.516 268.727 158.516Z" fill="url(#paint32_linear)"/>
<path d="M89.3952 80.5471L78.8315 78.929C78.5873 78.8917 78.3528 78.8067 78.1415 78.6786C77.9302 78.5506 77.7462 78.3822 77.6002 78.1829C77.4541 77.9837 77.3488 77.7575 77.2903 77.5175C77.2317 77.2775 77.2212 77.0283 77.2591 76.7842C77.3344 76.2904 77.6026 75.8467 78.0047 75.5505C78.4068 75.2543 78.9101 75.1297 79.4039 75.2042L89.9601 76.8223C90.4529 76.8995 90.8953 77.1681 91.1912 77.5698C91.4871 77.9714 91.6124 78.4736 91.54 78.9671V78.9671C91.4628 79.46 91.1942 79.9024 90.7926 80.1983C90.391 80.4941 89.8888 80.6195 89.3952 80.5471Z" fill="url(#paint33_linear)"/>
<path d="M95.2258 78.4176H95.3938L105.958 80.0357C106.108 80.0549 106.253 80.104 106.384 80.18C106.515 80.256 106.629 80.3575 106.721 80.4784C106.894 80.7189 106.968 81.0169 106.927 81.3104C106.884 81.5741 106.749 81.8142 106.547 81.9887C106.345 82.1631 106.087 82.2608 105.82 82.2645H105.645L95.0885 80.6463C94.9374 80.6297 94.7915 80.5818 94.6601 80.5055C94.5287 80.4293 94.4146 80.3265 94.3252 80.2036C94.2018 80.0374 94.1272 79.8402 94.1097 79.6339C94.0922 79.4277 94.1324 79.2207 94.2259 79.0361C94.3194 78.8514 94.4625 78.6965 94.6391 78.5886C94.8157 78.4807 95.0189 78.4241 95.2258 78.4252V78.4176ZM95.2258 77.6619C94.7441 77.6495 94.2761 77.8228 93.9186 78.1458C93.561 78.4689 93.3414 78.9171 93.3051 79.3976C93.2689 79.8781 93.4187 80.3541 93.7237 80.7272C94.0286 81.1003 94.4653 81.3419 94.9434 81.402L105.5 83.0201C105.596 83.0277 105.693 83.0277 105.79 83.0201C106.263 83.0175 106.719 82.8367 107.065 82.5136C107.411 82.1905 107.624 81.7489 107.659 81.2765C107.695 80.8042 107.551 80.3357 107.257 79.9644C106.963 79.593 106.54 79.346 106.072 79.2724L95.5083 77.6619C95.4143 77.6544 95.3198 77.6544 95.2258 77.6619V77.6619Z" fill="url(#paint34_linear)"/>
<path d="M111.332 80.8829H111.492L122.048 82.5011C122.325 82.547 122.574 82.6947 122.747 82.9151C122.92 83.1355 123.004 83.4128 122.983 83.6922C122.962 83.9717 122.837 84.2331 122.633 84.4251C122.429 84.6172 122.16 84.7259 121.88 84.7298H121.712L111.149 83.1117C110.998 83.0929 110.853 83.044 110.722 82.9679C110.591 82.8919 110.476 82.7902 110.385 82.669C110.299 82.5504 110.236 82.4158 110.202 82.2729C110.168 82.1301 110.163 81.9819 110.187 81.837C110.228 81.5747 110.362 81.3356 110.563 81.1623C110.764 80.989 111.02 80.8927 111.286 80.8905L111.332 80.8829ZM111.286 80.1273C110.804 80.1148 110.336 80.2881 109.979 80.6112C109.621 80.9343 109.401 81.3824 109.365 81.8629C109.329 82.3434 109.479 82.8195 109.784 83.1926C110.089 83.5657 110.525 83.8073 111.003 83.8673L121.567 85.4855C121.661 85.493 121.756 85.493 121.85 85.4855C122.323 85.4829 122.779 85.302 123.125 84.979C123.472 84.6559 123.684 84.2142 123.719 83.7419C123.755 83.2695 123.611 82.8011 123.317 82.4297C123.023 82.0584 122.6 81.8113 122.132 81.7378L111.576 80.1273C111.479 80.1197 111.382 80.1197 111.286 80.1273V80.1273Z" fill="url(#paint35_linear)"/>
<path d="M275.795 107.376L275.925 106.552L275.314 106.407C275.3 106.27 275.267 106.137 275.215 106.01L275.688 105.598L275.2 104.926L274.658 105.254C274.552 105.17 274.437 105.098 274.315 105.04L274.353 104.415L273.528 104.292L273.383 104.903C273.25 104.917 273.119 104.948 272.994 104.995L272.574 104.521L271.903 105.018L272.231 105.552C272.146 105.659 272.077 105.777 272.025 105.903L271.399 105.857L271.269 106.682L271.88 106.834C271.894 106.968 271.927 107.099 271.979 107.223L271.506 107.636L272.002 108.307L272.536 107.979C272.643 108.062 272.758 108.133 272.88 108.193L272.841 108.819L273.666 108.941L273.811 108.338C273.946 108.317 274.079 108.283 274.208 108.239L274.62 108.712L275.292 108.216L274.963 107.681C275.046 107.576 275.116 107.461 275.169 107.338L275.795 107.376ZM273.452 107.575C273.263 107.545 273.086 107.46 272.945 107.33C272.804 107.201 272.704 107.032 272.659 106.846C272.614 106.659 272.625 106.464 272.69 106.284C272.756 106.104 272.874 105.947 273.029 105.834C273.184 105.721 273.368 105.656 273.56 105.648C273.752 105.64 273.941 105.689 274.105 105.789C274.269 105.888 274.399 106.034 274.48 106.208C274.561 106.382 274.588 106.576 274.559 106.765C274.539 106.891 274.495 107.012 274.429 107.121C274.363 107.23 274.276 107.324 274.173 107.399C274.07 107.474 273.954 107.529 273.83 107.559C273.706 107.589 273.578 107.594 273.452 107.575V107.575Z" fill="url(#paint36_linear)"/>
<path opacity="0.2" d="M157.079 198.204L154.831 197.86L152.36 214.006L154.609 214.35L157.079 198.204Z" fill="url(#paint37_linear)"/>
<path d="M156.709 200.63L154.46 200.286L153.298 207.884L155.546 208.228L156.709 200.63Z" fill="url(#paint38_linear)"/>
<path opacity="0.2" d="M151.41 201.497L149.162 201.153L146.691 217.299L148.939 217.644L151.41 201.497Z" fill="url(#paint39_linear)"/>
<path d="M148.49 205.407L147.327 213.012L149.575 213.356L150.739 205.751L148.49 205.407Z" fill="url(#paint40_linear)"/>
<path opacity="0.2" d="M147.348 197.731L145.097 197.39L142.647 213.56L144.898 213.902L147.348 197.731Z" fill="url(#paint41_linear)"/>
<path d="M145.888 203.705L143.64 203.361L142.476 210.966L144.724 211.31L145.888 203.705Z" fill="url(#paint42_linear)"/>
<path opacity="0.2" d="M161.649 202.161L159.4 201.817L156.93 217.964L159.178 218.308L161.649 202.161Z" fill="url(#paint43_linear)"/>
<path d="M161.286 204.587L159.037 204.243L157.873 211.848L160.122 212.193L161.286 204.587Z" fill="url(#paint44_linear)"/>
<path opacity="0.2" d="M167.431 198.159L165.182 197.815L162.711 213.962L164.96 214.306L167.431 198.159Z" fill="url(#paint45_linear)"/>
<path d="M167.152 199.98L164.903 199.636L163.74 207.242L165.988 207.586L167.152 199.98Z" fill="url(#paint46_linear)"/>
<path opacity="0.2" d="M171.854 203.098L169.605 202.754L167.135 218.901L169.383 219.245L171.854 203.098Z" fill="url(#paint47_linear)"/>
<path d="M171.756 203.709L169.508 203.365L168.344 210.971L170.592 211.315L171.756 203.709Z" fill="url(#paint48_linear)"/>
<path opacity="0.2" d="M178.192 195.43L175.944 195.086L173.473 211.232L175.722 211.576L178.192 195.43Z" fill="url(#paint49_linear)"/>
<path d="M178.108 196.042L175.86 195.698L174.697 203.296L176.946 203.64L178.108 196.042Z" fill="url(#paint50_linear)"/>
<path opacity="0.2" d="M181.695 206.374L179.446 206.03L176.976 222.176L179.224 222.52L181.695 206.374Z" fill="url(#paint51_linear)"/>
<path d="M181.323 208.807L179.075 208.463L177.911 216.069L180.159 216.413L181.323 208.807Z" fill="url(#paint52_linear)"/>
<path opacity="0.2" d="M186.607 208.09L184.358 207.746L181.888 223.892L184.136 224.236L186.607 208.09Z" fill="url(#paint53_linear)"/>
<path d="M185.676 214.174L183.427 213.83L182.263 221.435L184.512 221.779L185.676 214.174Z" fill="url(#paint54_linear)"/>
<path opacity="0.2" d="M193.222 198.716L190.973 198.372L188.502 214.518L190.751 214.862L193.222 198.716Z" fill="url(#paint55_linear)"/>
<path d="M192.192 205.415L189.943 205.071L188.781 212.669L191.029 213.013L192.192 205.415Z" fill="url(#paint56_linear)"/>
<path opacity="0.2" d="M197.182 206.599L194.934 206.255L192.463 222.402L194.712 222.746L197.182 206.599Z" fill="url(#paint57_linear)"/>
<path d="M196.713 209.645L194.465 209.301L193.302 216.899L195.551 217.243L196.713 209.645Z" fill="url(#paint58_linear)"/>
<path opacity="0.2" d="M202.881 203.158L200.632 202.814L198.162 218.96L200.41 219.304L202.881 203.158Z" fill="url(#paint59_linear)"/>
<path d="M203.133 205.637L200.881 205.296L199.727 212.913L201.979 213.254L203.133 205.637Z" fill="url(#paint60_linear)"/>
<path opacity="0.2" d="M209.05 196.678L206.802 196.333L204.331 212.48L206.579 212.824L209.05 196.678Z" fill="url(#paint61_linear)"/>
<path d="M209.041 196.684L206.793 196.34L205.629 203.945L207.878 204.289L209.041 196.684Z" fill="url(#paint62_linear)"/>
<path opacity="0.2" d="M212.542 207.68L210.294 207.336L207.823 223.483L210.072 223.827L212.542 207.68Z" fill="url(#paint63_linear)"/>
<path d="M212.255 209.51L210.007 209.166L208.843 216.771L211.091 217.115L212.255 209.51Z" fill="url(#paint64_linear)"/>
<path opacity="0.2" d="M216.504 215.556L214.256 215.212L211.785 231.358L214.034 231.702L216.504 215.556Z" fill="url(#paint65_linear)"/>
<path d="M216.225 217.378L213.977 217.034L212.813 224.639L215.062 224.983L216.225 217.378Z" fill="url(#paint66_linear)"/>
<path opacity="0.2" d="M222.865 207.784L220.617 207.44L218.146 223.586L220.394 223.93L222.865 207.784Z" fill="url(#paint67_linear)"/>
<path d="M221.942 213.854L219.693 213.51L218.53 221.116L220.778 221.46L221.942 213.854Z" fill="url(#paint68_linear)"/>
<path opacity="0.2" d="M229.322 199.43L227.073 199.086L224.603 215.233L226.851 215.577L229.322 199.43Z" fill="url(#paint69_linear)"/>
<path d="M228.201 206.724L225.952 206.38L224.788 213.986L227.037 214.33L228.201 206.724Z" fill="url(#paint70_linear)"/>
<path opacity="0.2" d="M232.981 209.326L230.732 208.982L228.262 225.129L230.51 225.473L232.981 209.326Z" fill="url(#paint71_linear)"/>
<path d="M233.293 211.769L231.042 211.428L229.887 219.045L232.139 219.386L233.293 211.769Z" fill="url(#paint72_linear)"/>
<path opacity="0.2" d="M237.617 212.79L235.368 212.446L232.897 228.592L235.146 228.936L237.617 212.79Z" fill="url(#paint73_linear)"/>
<path d="M236.601 219.48L234.353 219.136L233.189 226.742L235.437 227.086L236.601 219.48Z" fill="url(#paint74_linear)"/>
<path opacity="0.2" d="M243.446 208.522L241.198 208.178L238.727 224.324L240.975 224.668L243.446 208.522Z" fill="url(#paint75_linear)"/>
<path d="M243.445 208.529L241.197 208.185L240.033 215.79L242.281 216.134L243.445 208.529Z" fill="url(#paint76_linear)"/>
<path opacity="0.2" d="M247.731 214.332L245.483 213.988L243.012 230.134L245.261 230.478L247.731 214.332Z" fill="url(#paint77_linear)"/>
<path d="M247.541 215.548L245.293 215.204L244.129 222.809L246.378 223.153L247.541 215.548Z" fill="url(#paint78_linear)"/>
<path opacity="0.2" d="M253.125 212.927L250.876 212.583L248.406 228.729L250.654 229.073L253.125 212.927Z" fill="url(#paint79_linear)"/>
<path d="M253.027 213.538L250.779 213.194L249.615 220.799L251.863 221.143L253.027 213.538Z" fill="url(#paint80_linear)"/>
<path opacity="0.2" d="M257.853 215.778L255.605 215.434L253.134 231.58L255.383 231.924L257.853 215.778Z" fill="url(#paint81_linear)"/>
<path d="M257.384 223.682L255.132 223.34L253.978 230.957L256.23 231.298L257.384 223.682Z" fill="url(#paint82_linear)"/>
<path d="M176.218 238.203L133.875 231.724L133.675 233.036L176.017 239.516L176.218 238.203Z" fill="#999999" stroke="#263238" stroke-linecap="round" stroke-linejoin="round"/>
<path opacity="0.2" d="M203.131 145.899C203.131 145.899 197.391 149.082 201.047 157.707C204.703 166.332 226.937 180.514 226.487 187.719C226.487 187.719 203.657 173.491 197.314 181.704C197.314 181.704 214.557 198.428 216.351 211.006C218.144 223.585 223.983 229.165 237.478 236.34C250.973 243.514 280.313 281.373 280.313 281.373L275.924 217.792L233.181 169.553L212.053 157.508L203.131 145.899Z" fill="black" fill-opacity="0.7"/>
<path d="M319.103 259.26L281.473 283.975H281.412C281.377 283.973 281.344 283.962 281.315 283.941C281.287 283.921 281.265 283.893 281.252 283.861C281.084 283.418 264.46 238.988 260.452 235.522C258.196 233.483 256.552 230.856 255.705 227.935C255.705 227.935 255.705 227.897 255.705 227.874C255.56 227.386 255.491 227.065 255.476 226.981C253.262 222.48 249.867 218.665 245.652 215.944C242.835 214.237 239.86 212.806 236.768 211.67C232.036 209.754 227.166 207.777 223.724 204.121C223.134 203.496 222.595 202.825 222.113 202.114C216.64 194.099 208.191 185.253 205.374 183.436C202.558 181.62 197.375 181.864 197.329 181.864C197.287 181.869 197.245 181.857 197.211 181.831C197.177 181.806 197.154 181.768 197.146 181.727C197.055 181.028 197.118 180.318 197.332 179.646C197.545 178.975 197.904 178.359 198.383 177.842C199.102 177.001 199.995 176.326 201.001 175.865C202.006 175.404 203.1 175.167 204.207 175.17C208.557 175.17 214.549 177.46 217.572 180.337C220.594 183.215 227.586 185.329 228.387 185.574C229.524 184.902 232.204 186.337 233.188 186.955C232.02 182.795 232.494 181.192 232.677 180.788C230.173 177.544 217.136 167.942 210.214 163.126C208.305 161.79 206.87 160.836 206.244 160.462C203.016 158.561 200.344 152.615 200.863 148.463C200.889 147.899 201.039 147.348 201.303 146.849C201.567 146.35 201.938 145.916 202.39 145.578C203.039 145.17 203.8 144.975 204.565 145.021C204.876 145.029 205.185 145.067 205.489 145.135C205.519 145.148 205.548 145.166 205.573 145.189C205.634 145.273 212.114 152.959 214.358 154.165C215.457 154.752 221.304 157.706 226.861 160.454L229.364 161.691C229.349 159.271 229.476 156.852 229.746 154.447C229.959 153.501 231.471 152.157 233.188 151.394C233.99 151.028 235.478 150.501 236.569 151.081C236.989 151.318 237.982 151.928 239.355 152.783L241.645 154.203C242.132 153.454 242.729 152.782 243.416 152.211C243.988 151.875 247.156 151.287 248.286 151.684C249.27 152.043 252.43 154.05 255.773 156.172L257.216 157.08C257.392 156.752 257.804 156.065 258.193 155.913C259.843 155.303 261.639 155.207 263.345 155.638C264.475 156.05 268.352 158.912 272.108 161.683C274.168 163.21 276.145 164.667 277.451 165.545C277.494 165.557 277.532 165.584 277.557 165.621C277.931 165.873 278.244 166.072 278.481 166.209C281.244 167.789 288.037 203.419 288.106 203.778C288.549 206.167 290.167 208.632 291.876 211.243C293.811 213.96 295.394 216.912 296.586 220.028C298.761 226.386 303.715 235.69 310.974 247.063C311.63 248.081 312.307 249.126 313.004 250.2C314.966 253.169 317.057 256.268 319.103 259.26Z" fill="white"/>
<path opacity="0.4" d="M235.249 191.023C233.791 192.176 223.212 191.084 221.915 194.641C221.151 196.74 221.716 199.916 223.701 204.106C223.111 203.481 222.572 202.81 222.09 202.099C216.617 194.084 208.168 185.238 205.351 183.421C202.535 181.605 197.375 181.864 197.329 181.864C197.287 181.869 197.245 181.857 197.211 181.831C197.177 181.806 197.154 181.768 197.146 181.727C197.055 181.028 197.118 180.318 197.332 179.646C197.545 178.975 197.904 178.359 198.383 177.842C199.102 177.001 199.995 176.326 201.001 175.865C202.006 175.404 203.1 175.167 204.207 175.17C208.557 175.17 214.549 177.46 217.571 180.337C220.594 183.215 227.586 185.329 228.387 185.574C229.524 184.902 232.203 186.337 233.188 186.955C232.02 182.795 232.494 181.192 232.677 180.788C230.173 177.544 217.136 167.942 210.214 163.126C208.305 161.79 206.87 160.836 206.244 160.462C203.016 158.561 200.344 152.615 200.863 148.463C200.889 147.899 201.039 147.348 201.303 146.849C201.567 146.35 201.938 145.916 202.39 145.578C203.039 145.17 203.8 144.975 204.565 145.021C204.04 145.226 203.555 145.52 203.13 145.891C201.008 147.7 206.069 157.248 208.916 159.889C211.893 162.645 225.281 169.484 230.089 173.56C232.73 175.796 236.195 179.185 236.195 179.185C234.081 182.788 236.669 189.894 235.249 191.023Z" fill="url(#paint83_linear)"/>
<path d="M284.404 132.656C284.404 132.587 284.404 132.572 284.404 132.602C284.41 132.61 284.413 132.62 284.413 132.629C284.413 132.639 284.41 132.648 284.404 132.656Z" fill="url(#paint84_linear)"/>
<path opacity="0.4" d="M310.974 247.025C305.303 241.629 296.861 233.225 295.281 229.538C292.869 223.89 291.258 218.677 288.259 214.876C285.259 211.075 279.176 170.568 277.428 170.453C275.68 170.339 279.626 186.482 279.832 187.306C279.664 186.795 277.481 179.918 275.39 172.079C273.222 163.935 271.032 163.492 271.032 163.492C268.124 164.072 268.108 166.141 266.62 166.11C265.132 166.08 260.025 162.454 260.025 162.454C255.072 163.172 236.486 151.203 236.486 151.203C232.257 151.776 231.265 155.47 234.875 158.935C238.486 162.401 243.882 166.599 243.882 166.599C240.401 168.293 227.624 161.126 227.624 161.126L226.861 160.439L229.364 161.676C229.349 159.256 229.477 156.837 229.746 154.432C229.96 153.486 231.471 152.142 233.188 151.379C233.99 151.013 235.478 150.486 236.57 151.066C236.99 151.303 237.982 151.913 239.356 152.768L241.646 154.188C242.133 153.439 242.73 152.767 243.416 152.196C243.989 151.86 247.156 151.272 248.286 151.669C249.271 152.028 252.431 154.035 255.774 156.157L257.216 157.065C257.392 156.737 257.804 156.05 258.193 155.898C259.844 155.288 261.64 155.192 263.345 155.623C264.475 156.035 268.353 158.897 272.108 161.668C274.169 163.194 276.146 164.652 277.451 165.53C277.495 165.541 277.533 165.569 277.558 165.606C277.932 165.858 278.245 166.057 278.481 166.194C281.244 167.774 288.037 203.404 288.106 203.763C288.549 206.152 290.167 208.617 291.877 211.227C293.813 213.95 295.395 216.907 296.586 220.028C298.762 226.348 303.715 235.652 310.974 247.025Z" fill="url(#paint85_linear)"/>
<path d="M281.412 283.823C281.412 283.823 264.62 238.942 260.567 235.416C258.072 233.161 256.343 230.183 255.621 226.898C253.392 222.352 249.961 218.503 245.699 215.769C238.455 210.999 227.502 209.762 222.205 202.03C216.908 194.298 208.42 185.238 205.413 183.3C202.406 181.361 197.284 181.712 197.284 181.712C196.758 178.705 200.108 175.354 204.154 175.354C208.199 175.354 214.221 177.468 217.404 180.475C220.587 183.483 228.357 185.773 228.357 185.773C229.594 184.887 233.418 187.345 233.418 187.345C231.891 182.178 232.815 180.781 232.815 180.781C229.815 176.72 209.275 162.103 206.276 160.333C203.276 158.562 200.444 152.738 200.971 148.494C200.984 147.967 201.119 147.45 201.365 146.984C201.612 146.518 201.963 146.115 202.391 145.808C202.819 145.5 203.313 145.296 203.833 145.211C204.354 145.126 204.886 145.163 205.39 145.319C205.39 145.319 211.924 153.089 214.221 154.326C216.519 155.562 234.54 164.576 237.188 165.63C237.924 165.943 238.724 166.075 239.521 166.014C240.318 165.953 241.089 165.701 241.768 165.279" stroke="#263238" stroke-linecap="round" stroke-linejoin="round"/>
<path d="M229.532 161.966C229.532 161.966 229.532 156.088 229.914 154.493C230.296 152.898 234.547 150.15 236.486 151.204C238.424 152.257 252.743 161.676 256.476 162.095" stroke="#263238" stroke-linecap="round" stroke-linejoin="round"/>
<path d="M241.699 154.386C242.206 153.612 242.818 152.911 243.516 152.303C244.042 151.99 247.18 151.41 248.24 151.791C250.362 152.554 262.865 161.179 264.979 161.714" stroke="#263238" stroke-linecap="round" stroke-linejoin="round"/>
<path d="M257.277 157.302C257.277 157.302 257.819 156.218 258.254 156.042C259.865 155.445 261.619 155.352 263.284 155.775C265.23 156.485 275.916 164.935 278.389 166.331C280.862 167.728 287.052 199.015 287.93 203.785C288.808 208.556 294.12 213.326 296.41 220.043C298.7 226.76 304.188 237.003 312.843 250.254C314.37 252.544 315.958 254.963 317.553 257.299" stroke="#263238" stroke-linecap="round" stroke-linejoin="round"/>
<path d="M240.424 174.415C240.424 174.415 241.187 170.835 243.34 169.247C245.492 167.66 248.377 170.178 250.491 170.438" stroke="#263238" stroke-linecap="round" stroke-linejoin="round"/>
<path d="M254.865 168.72C254.865 168.72 256.055 164.606 258.177 163.683C260.299 162.759 263.566 165.538 264.978 165.667" stroke="#263238" stroke-linecap="round" stroke-linejoin="round"/>
<path d="M268.779 165.004C268.779 165.004 270.367 163.477 271.031 163.477C271.695 163.477 274.473 166.385 275.076 166.584C275.679 166.782 276.397 165.691 277.427 165.675" stroke="#263238" stroke-linecap="round" stroke-linejoin="round"/>
<path d="M263.949 161.256C265.109 161.17 266.267 161.456 267.254 162.073" stroke="#263238" stroke-linecap="round" stroke-linejoin="round"/>
<path d="M232.852 180.772C232.852 180.772 231.799 178.055 232.325 176.666" stroke="#263238" stroke-linecap="round" stroke-linejoin="round"/>
<path d="M234.921 160.836C234.921 160.836 236.18 162.309 236.249 163.492C236.318 164.675 239.302 166.11 239.302 166.11" stroke="#263238" stroke-linecap="round" stroke-linejoin="round"/>
<path d="M255.125 161.737C255.125 161.737 256.857 161.118 257.781 161.737" stroke="#263238" stroke-linecap="round" stroke-linejoin="round"/>
<path d="M232.852 184.353C232.793 183.479 232.949 182.605 233.307 181.807C233.665 181.008 234.214 180.31 234.905 179.773" stroke="#263238" stroke-linecap="round" stroke-linejoin="round"/>
<path d="M233.471 187.337C233.471 187.337 231.501 189.032 231.501 190.093" stroke="#263238" stroke-linecap="round" stroke-linejoin="round"/>
<path d="M224.403 184.353C226.738 185.223 228.677 188.856 230.089 189.474" stroke="#263238" stroke-linecap="round" stroke-linejoin="round"/>
<path d="M252.698 172.781C254.11 174.812 257.277 189.573 260.468 194.245" stroke="#263238" stroke-linecap="round" stroke-linejoin="round"/>
<path d="M264.543 168.614C264.811 168.789 266.665 174.529 266.665 174.529" stroke="#263238" stroke-linecap="round" stroke-linejoin="round"/>
<path d="M288.259 204.984C288.724 207.921 289.57 210.785 290.778 213.502" stroke="#263238" stroke-linecap="round" stroke-linejoin="round"/>
<path d="M255.858 227.898C255.621 226.928 254.598 220.57 253.339 218.448" stroke="#263238" stroke-linecap="round" stroke-linejoin="round"/>
<path opacity="0.2" d="M41.9502 327.108C41.9502 327.108 66.7872 293.715 85.518 287.601C104.249 281.487 105.172 273.19 104.409 257.711C103.646 242.232 104.211 226.63 99.0662 224.768C93.9217 222.905 105.233 202.694 99.8294 194.687L64.3905 250.36L41.9502 327.108Z" fill="black" fill-opacity="0.7"/>
<path d="M35.9274 336.412L35.5534 336.29L36.0877 336.588L35.9274 336.412ZM96.3026 233.973C93.2495 232.546 87.1891 225.852 86.4334 225.012C90.2498 218.585 94.0204 212.387 95.3256 210.899C98.0352 207.846 101.34 198.939 99.9969 194.634C98.768 190.68 94.7455 191.313 94.1959 191.42H94.1349C94.1142 191.423 94.0945 191.431 94.0773 191.443C94.0601 191.455 94.0459 191.471 94.0357 191.489C93.9517 191.634 85.7617 205.442 83.22 208.747C82.0064 210.319 79.2128 213.899 76.3505 217.486L75.5033 217.356C73.728 217.08 71.917 217.132 70.1604 217.509L69.9848 217.57C69.0763 217.962 68.2008 218.427 67.3668 218.959L66.7638 218.707C65.5578 218.204 63.0619 217.234 61.8788 217.181C60.4362 217.104 55.3528 219.471 52.315 221.379C50.2207 220.743 48.0381 220.446 45.85 220.501C43.522 220.6 38.7744 222.531 34.9581 224.081C33.2636 224.768 31.7981 225.363 30.9432 225.607L30.1799 225.836C27.8901 226.516 26.6536 226.897 25.066 230.073C23.4173 233.37 21.6389 245.666 20.784 251.574L20.6695 252.375C20.3413 254.665 20.3947 258.68 20.4482 262.962C20.5321 268.916 20.6161 275.068 19.7307 277.464C18.5347 280.484 16.9544 283.337 15.0289 285.952C14.777 286.311 14.548 286.647 14.3343 286.967C13.1427 288.827 12.1912 290.83 11.5026 292.928C10.8614 294.623 10.06 296.485 9.28144 298.187C7.84648 301.34 6.51074 303.942 6.51074 303.942C6.51074 303.942 33.5689 333.794 35.9274 336.412C36.0545 336.461 36.1845 336.502 36.3167 336.534C36.4083 336.382 41.4001 327.848 46.6896 319.429C51.2693 312.163 56.0245 304.981 58.0624 303.332C60.857 300.934 62.8894 297.772 63.9091 294.234C65.0083 290.7 72.0228 286.341 78.8083 282.128C86.3113 277.472 94.0738 272.656 94.3333 268.671C94.4784 266.611 94.9516 263.199 95.5012 259.237C96.9895 248.506 98.8367 235.141 96.3026 233.973ZM83.449 251.131L80.1135 254.375C79.6403 251.704 76.3963 248.155 75.885 247.613C76.1414 246.328 76.3072 245.028 76.3811 243.72C76.5032 242.232 76.633 240.667 76.9993 240.415C77.3657 240.163 79.0525 237.362 81.8003 232.782C82.0293 236.011 84.8534 239.568 85.2351 240.079L83.449 251.131Z" fill="white"/>
<path opacity="0.4" d="M43.843 241.216C42.8584 250.009 34.241 271.824 34.241 271.824L32.7145 249.849C32.7145 249.849 26.0053 279.67 24.1658 280.746C22.3263 281.823 19.0976 287.524 17.2963 292.051C16.0827 295.104 11.9534 297.18 9.35059 298.226C10.1139 296.523 10.9306 294.661 11.5717 292.967C12.2603 290.868 13.2118 288.865 14.4035 287.005C14.6172 286.685 14.8462 286.349 15.0981 285.99C17.0235 283.375 18.6038 280.522 19.7998 277.503C20.6852 275.091 20.5631 268.939 20.5173 263C20.4639 258.718 20.4105 254.673 20.7387 252.414L20.8532 251.612C21.708 245.704 23.4865 233.408 25.1351 230.111C26.7228 226.935 27.9745 226.554 30.2491 225.875L31.0124 225.646C31.8672 225.378 33.3022 224.783 35.0272 224.119C38.8436 222.592 43.5912 220.638 45.9192 220.539C48.0953 220.494 50.2647 220.795 52.3459 221.432C55.3991 219.516 60.4672 217.158 61.9098 217.234C63.0929 217.288 65.5888 218.257 66.7948 218.761C61.7266 221.371 53.2008 227.661 53.2008 227.661C43.5606 229.752 43.843 241.216 43.843 241.216Z" fill="url(#paint86_linear)"/>
<path opacity="0.4" d="M60.9248 229.539C63.4202 227.811 66.0063 226.219 68.6721 224.768C71.1451 223.608 71.9389 218.983 70.1986 217.677C70.1336 217.629 70.0575 217.597 69.9773 217.586L70.1528 217.525C71.9095 217.147 73.7204 217.096 75.4958 217.372C72.2976 222.173 69.7941 225.852 69.13 226.646C66.9318 229.317 60.9248 229.539 60.9248 229.539Z" fill="url(#paint87_linear)"/>
<path opacity="0.4" d="M73.5415 259.665L74.7093 260.169C73.9995 263.001 73.5415 259.665 73.5415 259.665Z" fill="url(#paint88_linear)"/>
<path opacity="0.4" d="M96.3024 233.973C93.2493 232.546 87.1889 225.852 86.4333 225.012C90.2496 218.585 94.0202 212.387 95.3254 210.899C98.0351 207.846 101.34 198.939 99.9967 194.634C98.7678 190.68 94.7453 191.313 94.1958 191.42V191.588C94.1958 191.588 98.5465 192.13 98.5388 198.419C98.5312 204.709 87.2347 217.173 87.2347 217.173C87.2347 217.173 75.6176 238.965 74.8544 238.636C74.0911 238.308 72.389 253.2 72.389 253.2C72.389 253.2 75.6253 255.955 74.8544 259.665C74.8136 259.848 74.7755 260.016 74.7399 260.169L79.7164 262.313C79.7164 262.313 84.7083 258.81 87.2423 263.962C89.7764 269.114 62.8785 287.524 60.7643 290.249C60.7643 290.249 60.4666 300.515 56.5434 302.027C54.0016 303.004 49.5212 312.712 46.6895 319.437C51.2691 312.171 56.0243 304.988 58.0623 303.339C60.8569 300.942 62.8892 297.779 63.909 294.241C65.0081 290.707 72.0226 286.349 78.8081 282.136C86.3111 277.48 94.0737 272.663 94.3332 268.679C94.4782 266.618 94.9514 263.206 95.501 259.245C96.9894 248.506 98.8365 235.141 96.3024 233.973ZM83.4488 251.131L80.1133 254.375C79.6401 251.704 76.3962 248.155 75.8848 247.613C76.1412 246.328 76.307 245.028 76.3809 243.72C76.503 242.232 76.6328 240.667 76.9992 240.415C77.3655 240.163 79.0524 237.362 81.8002 232.782C82.0292 236.011 84.8533 239.568 85.2349 240.079L83.4488 251.131Z" fill="url(#paint89_linear)"/>
<path d="M63.7563 229.737C65.8362 229.29 67.7268 228.21 69.168 226.646C71.4578 224.073 80.7698 212.212 83.3497 208.861C85.9295 205.51 94.1729 191.588 94.1729 191.588C94.1729 191.588 98.5541 190.558 99.8441 194.687C101.134 198.817 98.0427 207.571 95.2033 210.792C92.364 214.013 77.9304 239.537 76.8847 240.308C75.839 241.079 76.6328 248.307 74.5949 249.849" stroke="#263238" stroke-linecap="round" stroke-linejoin="round"/>
<path d="M75.7017 247.682C75.7017 247.682 79.7394 251.91 79.9989 254.742L83.6016 251.216L85.4105 240.049C85.4105 240.049 81.846 235.759 81.9529 232.233" stroke="#263238" stroke-linecap="round" stroke-linejoin="round"/>
<path d="M86.2357 225.035C86.2357 225.035 92.8838 232.576 96.2346 234.125C99.5854 235.675 94.708 261.191 94.1737 268.664C93.6395 276.136 66.0775 286.692 63.7572 294.18C62.7522 297.692 60.7345 300.83 57.9563 303.202C53.4835 306.827 36.1724 336.458 36.1724 336.458" stroke="#263238" stroke-linecap="round" stroke-linejoin="round"/>
<path d="M76.4498 217.677C76.4498 217.677 72.5189 216.952 70.1986 217.677C67.8782 218.402 58.0625 225.371 55.7726 226.645C53.4828 227.92 50.1015 228.172 49.3306 229.737" stroke="#263238" stroke-linecap="round" stroke-linejoin="round"/>
<path d="M67.3747 219.158C67.3747 219.158 63.4056 217.433 61.8791 217.356C60.3525 217.28 54.1471 220.203 51.3153 222.264C49.138 223.861 46.6926 225.055 44.0947 225.791" stroke="#263238" stroke-linecap="round" stroke-linejoin="round"/>
<path d="M52.3231 221.554C50.2419 220.904 48.0686 220.597 45.8887 220.646C42.5303 220.791 33.7679 224.913 31.0201 225.775C28.2723 226.638 26.9823 226.714 25.265 230.157C23.5476 233.599 21.6547 247.078 20.8838 252.406C20.1128 257.734 21.4867 273.328 19.9373 277.541C18.3878 281.754 15.9988 284.906 14.5562 287.097C11.6176 291.463 11.9458 294.73 6.59521 303.981" stroke="#263238" stroke-linecap="round" stroke-linejoin="round"/>
<path d="M46.1016 230.897C42.7508 233.866 43.3691 239.537 43.8118 241.216C44.2545 242.896 42.2013 249.613 41.522 253.2" stroke="#263238" stroke-linecap="round" stroke-linejoin="round"/>
<path d="M67.375 233.767C61.2688 233.897 59.3759 238.019 58.979 240.728" stroke="#263238" stroke-linecap="round" stroke-linejoin="round"/>
<path d="M41.5911 227.661C39.7821 227.531 35.1414 230.37 34.2407 235.011" stroke="#263238" stroke-linecap="round" stroke-linejoin="round"/>
<path d="M85.4111 240.049C85.4111 240.049 86.3118 237.476 87.2125 237.217" stroke="#263238" stroke-linecap="round" stroke-linejoin="round"/>
<path d="M83.6022 251.215C83.1575 252.728 82.6066 254.207 81.9535 255.642C81.1902 257.169 81.9535 259.604 81.9535 259.604" stroke="#263238" stroke-linecap="round" stroke-linejoin="round"/>
<path d="M79.9994 254.742C79.8697 257.322 77.0303 260.085 76.4502 259.604" stroke="#263238" stroke-linecap="round" stroke-linejoin="round"/>
<path d="M55.7271 250.36C55.6355 253.2 50.4834 273.946 50.4834 273.946" stroke="#263238" stroke-linecap="round" stroke-linejoin="round"/>
<defs>
<linearGradient id="paint0_linear" x1="169.969" y1="328.534" x2="155.343" y2="266.76" gradientUnits="userSpaceOnUse">
<stop stop-color="#FF5E3A"/>
<stop offset="1" stop-color="#FF9500"/>
</linearGradient>
<linearGradient id="paint1_linear" x1="171.447" y1="326.315" x2="171.447" y2="261.024" gradientUnits="userSpaceOnUse">
<stop stop-color="#FF5E3A"/>
<stop offset="1" stop-color="#FF9500"/>
</linearGradient>
<linearGradient id="paint2_linear" x1="180.762" y1="52.0029" x2="180.762" y2="43.3374" gradientUnits="userSpaceOnUse">
<stop stop-color="#FF5E3A"/>
<stop offset="1" stop-color="#FF9500"/>
</linearGradient>
<linearGradient id="paint3_linear" x1="197.543" y1="50.9448" x2="197.543" y2="42.4541" gradientUnits="userSpaceOnUse">
<stop stop-color="#FF5E3A"/>
<stop offset="1" stop-color="#FF9500"/>
</linearGradient>
<linearGradient id="paint4_linear" x1="163.85" y1="60.3536" x2="163.85" y2="23.9619" gradientUnits="userSpaceOnUse">
<stop stop-color="#FF5E3A"/>
<stop offset="1" stop-color="#FF9500"/>
</linearGradient>
<linearGradient id="paint5_linear" x1="213.785" y1="57.9111" x2="213.785" y2="21.521" gradientUnits="userSpaceOnUse">
<stop stop-color="#FF5E3A"/>
<stop offset="1" stop-color="#FF9500"/>
</linearGradient>
<linearGradient id="paint6_linear" x1="19.6826" y1="199.717" x2="19.6827" y2="75.9194" gradientUnits="userSpaceOnUse">
<stop stop-color="#FF5E3A"/>
<stop offset="1" stop-color="#FF9500"/>
</linearGradient>
<linearGradient id="paint7_linear" x1="19.4747" y1="190.018" x2="19.4748" y2="78.0586" gradientUnits="userSpaceOnUse">
<stop stop-color="#FF5E3A"/>
<stop offset="1" stop-color="#FF9500"/>
</linearGradient>
<linearGradient id="paint8_linear" x1="65.1875" y1="79.0371" x2="60.1022" y2="78.259" gradientUnits="userSpaceOnUse">
<stop stop-color="#FF5E3A"/>
<stop offset="1" stop-color="#FF9500"/>
</linearGradient>
<linearGradient id="paint9_linear" x1="90.5771" y1="67.6416" x2="91.3553" y2="62.5563" gradientUnits="userSpaceOnUse">
<stop stop-color="#FF5E3A"/>
<stop offset="1" stop-color="#FF9500"/>
</linearGradient>
<linearGradient id="paint10_linear" x1="104.572" y1="69.7788" x2="105.35" y2="64.6935" gradientUnits="userSpaceOnUse">
<stop stop-color="#FF5E3A"/>
<stop offset="1" stop-color="#FF9500"/>
</linearGradient>
<linearGradient id="paint11_linear" x1="166.448" y1="259.138" x2="166.448" y2="61.8018" gradientUnits="userSpaceOnUse">
<stop stop-color="#FF5E3A"/>
<stop offset="1" stop-color="#FF9500"/>
</linearGradient>
<linearGradient id="paint12_linear" x1="95.3181" y1="202.473" x2="95.3181" y2="182.627" gradientUnits="userSpaceOnUse">
<stop stop-color="#FF5E3A"/>
<stop offset="1" stop-color="#FF9500"/>
</linearGradient>
<linearGradient id="paint13_linear" x1="93.4779" y1="192.55" x2="93.4779" y2="176.307" gradientUnits="userSpaceOnUse">
<stop stop-color="#FF5E3A"/>
<stop offset="1" stop-color="#FF9500"/>
</linearGradient>
<linearGradient id="paint14_linear" x1="89.5018" y1="191.023" x2="89.5018" y2="174.995" gradientUnits="userSpaceOnUse">
<stop stop-color="#FF5E3A"/>
<stop offset="1" stop-color="#FF9500"/>
</linearGradient>
<linearGradient id="paint15_linear" x1="85.0791" y1="212.229" x2="85.0791" y2="193.84" gradientUnits="userSpaceOnUse">
<stop stop-color="#FF5E3A"/>
<stop offset="1" stop-color="#FF9500"/>
</linearGradient>
<linearGradient id="paint16_linear" x1="113.606" y1="185.329" x2="114.073" y2="182.273" gradientUnits="userSpaceOnUse">
<stop stop-color="#FF5E3A"/>
<stop offset="1" stop-color="#FF9500"/>
</linearGradient>
<linearGradient id="paint17_linear" x1="122.002" y1="185.337" x2="122.002" y2="183.218" gradientUnits="userSpaceOnUse">
<stop stop-color="#FF5E3A"/>
<stop offset="1" stop-color="#FF9500"/>
</linearGradient>
<linearGradient id="paint18_linear" x1="120.38" y1="186.449" x2="120.38" y2="184.762" gradientUnits="userSpaceOnUse">
<stop stop-color="#FF5E3A"/>
<stop offset="1" stop-color="#FF9500"/>
</linearGradient>
<linearGradient id="paint19_linear" x1="112.56" y1="192.167" x2="113.028" y2="189.112" gradientUnits="userSpaceOnUse">
<stop stop-color="#FF5E3A"/>
<stop offset="1" stop-color="#FF9500"/>
</linearGradient>
<linearGradient id="paint20_linear" x1="120.971" y1="192.173" x2="120.971" y2="190.059" gradientUnits="userSpaceOnUse">
<stop stop-color="#FF5E3A"/>
<stop offset="1" stop-color="#FF9500"/>
</linearGradient>
<linearGradient id="paint21_linear" x1="119.343" y1="193.27" x2="119.343" y2="191.588" gradientUnits="userSpaceOnUse">
<stop stop-color="#FF5E3A"/>
<stop offset="1" stop-color="#FF9500"/>
</linearGradient>
<linearGradient id="paint22_linear" x1="111.995" y1="199.155" x2="112.458" y2="196.095" gradientUnits="userSpaceOnUse">
<stop stop-color="#FF5E3A"/>
<stop offset="1" stop-color="#FF9500"/>
</linearGradient>
<linearGradient id="paint23_linear" x1="119.965" y1="199.012" x2="119.965" y2="196.901" gradientUnits="userSpaceOnUse">
<stop stop-color="#FF5E3A"/>
<stop offset="1" stop-color="#FF9500"/>
</linearGradient>
<linearGradient id="paint24_linear" x1="118.274" y1="200.107" x2="118.274" y2="198.428" gradientUnits="userSpaceOnUse">
<stop stop-color="#FF5E3A"/>
<stop offset="1" stop-color="#FF9500"/>
</linearGradient>
<linearGradient id="paint25_linear" x1="110.469" y1="205.845" x2="110.937" y2="202.789" gradientUnits="userSpaceOnUse">
<stop stop-color="#FF5E3A"/>
<stop offset="1" stop-color="#FF9500"/>
</linearGradient>
<linearGradient id="paint26_linear" x1="118.915" y1="205.859" x2="118.915" y2="203.735" gradientUnits="userSpaceOnUse">
<stop stop-color="#FF5E3A"/>
<stop offset="1" stop-color="#FF9500"/>
</linearGradient>
<linearGradient id="paint27_linear" x1="117.242" y1="206.95" x2="117.242" y2="205.262" gradientUnits="userSpaceOnUse">
<stop stop-color="#FF5E3A"/>
<stop offset="1" stop-color="#FF9500"/>
</linearGradient>
<linearGradient id="paint28_linear" x1="117.87" y1="212.698" x2="117.87" y2="210.574" gradientUnits="userSpaceOnUse">
<stop stop-color="#FF5E3A"/>
<stop offset="1" stop-color="#FF9500"/>
</linearGradient>
<linearGradient id="paint29_linear" x1="116.225" y1="213.8" x2="116.225" y2="212.1" gradientUnits="userSpaceOnUse">
<stop stop-color="#FF5E3A"/>
<stop offset="1" stop-color="#FF9500"/>
</linearGradient>
<linearGradient id="paint30_linear" x1="166.421" y1="188.238" x2="166.421" y2="111.918" gradientUnits="userSpaceOnUse">
<stop stop-color="#FF5E3A"/>
<stop offset="1" stop-color="#FF9500"/>
</linearGradient>
<linearGradient id="paint31_linear" x1="168.787" y1="188.246" x2="168.787" y2="129.119" gradientUnits="userSpaceOnUse">
<stop stop-color="#FF5E3A"/>
<stop offset="1" stop-color="#FF9500"/>
</linearGradient>
<linearGradient id="paint32_linear" x1="166.878" y1="188.239" x2="166.878" y2="151.117" gradientUnits="userSpaceOnUse">
<stop stop-color="#FF5E3A"/>
<stop offset="1" stop-color="#FF9500"/>
</linearGradient>
<linearGradient id="paint33_linear" x1="84.3984" y1="80.5672" x2="84.3984" y2="75.1831" gradientUnits="userSpaceOnUse">
<stop stop-color="#FF5E3A"/>
<stop offset="1" stop-color="#FF9500"/>
</linearGradient>
<linearGradient id="paint34_linear" x1="100.482" y1="83.0258" x2="100.482" y2="77.6562" gradientUnits="userSpaceOnUse">
<stop stop-color="#FF5E3A"/>
<stop offset="1" stop-color="#FF9500"/>
</linearGradient>
<linearGradient id="paint35_linear" x1="116.542" y1="85.4911" x2="116.542" y2="80.1216" gradientUnits="userSpaceOnUse">
<stop stop-color="#FF5E3A"/>
<stop offset="1" stop-color="#FF9500"/>
</linearGradient>
<linearGradient id="paint36_linear" x1="273.597" y1="108.941" x2="273.597" y2="104.292" gradientUnits="userSpaceOnUse">
<stop stop-color="#FF5E3A"/>
<stop offset="1" stop-color="#FF9500"/>
</linearGradient>
<linearGradient id="paint37_linear" x1="153.485" y1="214.178" x2="155.955" y2="198.032" gradientUnits="userSpaceOnUse">
<stop stop-color="#FF5E3A"/>
<stop offset="1" stop-color="#FF9500"/>
</linearGradient>
<linearGradient id="paint38_linear" x1="154.422" y1="208.056" x2="155.585" y2="200.458" gradientUnits="userSpaceOnUse">
<stop stop-color="#FF5E3A"/>
<stop offset="1" stop-color="#FF9500"/>
</linearGradient>
<linearGradient id="paint39_linear" x1="147.815" y1="217.471" x2="150.286" y2="201.325" gradientUnits="userSpaceOnUse">
<stop stop-color="#FF5E3A"/>
<stop offset="1" stop-color="#FF9500"/>
</linearGradient>
<linearGradient id="paint40_linear" x1="150.157" y1="209.554" x2="147.909" y2="209.21" gradientUnits="userSpaceOnUse">
<stop stop-color="#FF5E3A"/>
<stop offset="1" stop-color="#FF9500"/>
</linearGradient>
<linearGradient id="paint41_linear" x1="143.772" y1="213.731" x2="146.223" y2="197.56" gradientUnits="userSpaceOnUse">
<stop stop-color="#FF5E3A"/>
<stop offset="1" stop-color="#FF9500"/>
</linearGradient>
<linearGradient id="paint42_linear" x1="143.6" y1="211.138" x2="144.764" y2="203.533" gradientUnits="userSpaceOnUse">
<stop stop-color="#FF5E3A"/>
<stop offset="1" stop-color="#FF9500"/>
</linearGradient>
<linearGradient id="paint43_linear" x1="158.054" y1="218.136" x2="160.525" y2="201.989" gradientUnits="userSpaceOnUse">
<stop stop-color="#FF5E3A"/>
<stop offset="1" stop-color="#FF9500"/>
</linearGradient>
<linearGradient id="paint44_linear" x1="158.998" y1="212.02" x2="160.161" y2="204.415" gradientUnits="userSpaceOnUse">
<stop stop-color="#FF5E3A"/>
<stop offset="1" stop-color="#FF9500"/>
</linearGradient>
<linearGradient id="paint45_linear" x1="163.836" y1="214.134" x2="166.306" y2="197.987" gradientUnits="userSpaceOnUse">
<stop stop-color="#FF5E3A"/>
<stop offset="1" stop-color="#FF9500"/>
</linearGradient>
<linearGradient id="paint46_linear" x1="164.864" y1="207.414" x2="166.028" y2="199.808" gradientUnits="userSpaceOnUse">
<stop stop-color="#FF5E3A"/>
<stop offset="1" stop-color="#FF9500"/>
</linearGradient>
<linearGradient id="paint47_linear" x1="168.259" y1="219.073" x2="170.73" y2="202.926" gradientUnits="userSpaceOnUse">
<stop stop-color="#FF5E3A"/>
<stop offset="1" stop-color="#FF9500"/>
</linearGradient>
<linearGradient id="paint48_linear" x1="169.468" y1="211.143" x2="170.632" y2="203.537" gradientUnits="userSpaceOnUse">
<stop stop-color="#FF5E3A"/>
<stop offset="1" stop-color="#FF9500"/>
</linearGradient>
<linearGradient id="paint49_linear" x1="174.597" y1="211.404" x2="177.068" y2="195.258" gradientUnits="userSpaceOnUse">
<stop stop-color="#FF5E3A"/>
<stop offset="1" stop-color="#FF9500"/>
</linearGradient>
<linearGradient id="paint50_linear" x1="175.821" y1="203.468" x2="176.984" y2="195.87" gradientUnits="userSpaceOnUse">
<stop stop-color="#FF5E3A"/>
<stop offset="1" stop-color="#FF9500"/>
</linearGradient>
<linearGradient id="paint51_linear" x1="178.1" y1="222.348" x2="180.57" y2="206.202" gradientUnits="userSpaceOnUse">
<stop stop-color="#FF5E3A"/>
<stop offset="1" stop-color="#FF9500"/>
</linearGradient>
<linearGradient id="paint52_linear" x1="179.035" y1="216.241" x2="180.199" y2="208.635" gradientUnits="userSpaceOnUse">
<stop stop-color="#FF5E3A"/>
<stop offset="1" stop-color="#FF9500"/>
</linearGradient>
<linearGradient id="paint53_linear" x1="183.012" y1="224.064" x2="185.483" y2="207.918" gradientUnits="userSpaceOnUse">
<stop stop-color="#FF5E3A"/>
<stop offset="1" stop-color="#FF9500"/>
</linearGradient>
<linearGradient id="paint54_linear" x1="183.388" y1="221.607" x2="184.551" y2="214.002" gradientUnits="userSpaceOnUse">
<stop stop-color="#FF5E3A"/>
<stop offset="1" stop-color="#FF9500"/>
</linearGradient>
<linearGradient id="paint55_linear" x1="189.627" y1="214.69" x2="192.097" y2="198.544" gradientUnits="userSpaceOnUse">
<stop stop-color="#FF5E3A"/>
<stop offset="1" stop-color="#FF9500"/>
</linearGradient>
<linearGradient id="paint56_linear" x1="189.905" y1="212.841" x2="191.068" y2="205.243" gradientUnits="userSpaceOnUse">
<stop stop-color="#FF5E3A"/>
<stop offset="1" stop-color="#FF9500"/>
</linearGradient>
<linearGradient id="paint57_linear" x1="193.588" y1="222.574" x2="196.058" y2="206.427" gradientUnits="userSpaceOnUse">
<stop stop-color="#FF5E3A"/>
<stop offset="1" stop-color="#FF9500"/>
</linearGradient>
<linearGradient id="paint58_linear" x1="194.426" y1="217.071" x2="195.589" y2="209.473" gradientUnits="userSpaceOnUse">
<stop stop-color="#FF5E3A"/>
<stop offset="1" stop-color="#FF9500"/>
</linearGradient>
<linearGradient id="paint59_linear" x1="199.286" y1="219.132" x2="201.756" y2="202.986" gradientUnits="userSpaceOnUse">
<stop stop-color="#FF5E3A"/>
<stop offset="1" stop-color="#FF9500"/>
</linearGradient>
<linearGradient id="paint60_linear" x1="200.853" y1="213.083" x2="202.007" y2="205.466" gradientUnits="userSpaceOnUse">
<stop stop-color="#FF5E3A"/>
<stop offset="1" stop-color="#FF9500"/>
</linearGradient>
<linearGradient id="paint61_linear" x1="205.455" y1="212.652" x2="207.926" y2="196.506" gradientUnits="userSpaceOnUse">
<stop stop-color="#FF5E3A"/>
<stop offset="1" stop-color="#FF9500"/>
</linearGradient>
<linearGradient id="paint62_linear" x1="206.753" y1="204.117" x2="207.917" y2="196.512" gradientUnits="userSpaceOnUse">
<stop stop-color="#FF5E3A"/>
<stop offset="1" stop-color="#FF9500"/>
</linearGradient>
<linearGradient id="paint63_linear" x1="208.947" y1="223.655" x2="211.418" y2="207.508" gradientUnits="userSpaceOnUse">
<stop stop-color="#FF5E3A"/>
<stop offset="1" stop-color="#FF9500"/>
</linearGradient>
<linearGradient id="paint64_linear" x1="209.967" y1="216.943" x2="211.131" y2="209.338" gradientUnits="userSpaceOnUse">
<stop stop-color="#FF5E3A"/>
<stop offset="1" stop-color="#FF9500"/>
</linearGradient>
<linearGradient id="paint65_linear" x1="212.909" y1="231.53" x2="215.38" y2="215.384" gradientUnits="userSpaceOnUse">
<stop stop-color="#FF5E3A"/>
<stop offset="1" stop-color="#FF9500"/>
</linearGradient>
<linearGradient id="paint66_linear" x1="213.937" y1="224.811" x2="215.101" y2="217.206" gradientUnits="userSpaceOnUse">
<stop stop-color="#FF5E3A"/>
<stop offset="1" stop-color="#FF9500"/>
</linearGradient>
<linearGradient id="paint67_linear" x1="219.27" y1="223.758" x2="221.741" y2="207.612" gradientUnits="userSpaceOnUse">
<stop stop-color="#FF5E3A"/>
<stop offset="1" stop-color="#FF9500"/>
</linearGradient>
<linearGradient id="paint68_linear" x1="219.654" y1="221.288" x2="220.818" y2="213.682" gradientUnits="userSpaceOnUse">
<stop stop-color="#FF5E3A"/>
<stop offset="1" stop-color="#FF9500"/>
</linearGradient>
<linearGradient id="paint69_linear" x1="225.727" y1="215.405" x2="228.197" y2="199.258" gradientUnits="userSpaceOnUse">
<stop stop-color="#FF5E3A"/>
<stop offset="1" stop-color="#FF9500"/>
</linearGradient>
<linearGradient id="paint70_linear" x1="225.913" y1="214.158" x2="227.076" y2="206.552" gradientUnits="userSpaceOnUse">
<stop stop-color="#FF5E3A"/>
<stop offset="1" stop-color="#FF9500"/>
</linearGradient>
<linearGradient id="paint71_linear" x1="229.386" y1="225.301" x2="231.857" y2="209.154" gradientUnits="userSpaceOnUse">
<stop stop-color="#FF5E3A"/>
<stop offset="1" stop-color="#FF9500"/>
</linearGradient>
<linearGradient id="paint72_linear" x1="231.013" y1="219.215" x2="232.167" y2="211.598" gradientUnits="userSpaceOnUse">
<stop stop-color="#FF5E3A"/>
<stop offset="1" stop-color="#FF9500"/>
</linearGradient>
<linearGradient id="paint73_linear" x1="234.022" y1="228.764" x2="236.492" y2="212.618" gradientUnits="userSpaceOnUse">
<stop stop-color="#FF5E3A"/>
<stop offset="1" stop-color="#FF9500"/>
</linearGradient>
<linearGradient id="paint74_linear" x1="234.313" y1="226.914" x2="235.477" y2="219.308" gradientUnits="userSpaceOnUse">
<stop stop-color="#FF5E3A"/>
<stop offset="1" stop-color="#FF9500"/>
</linearGradient>
<linearGradient id="paint75_linear" x1="239.851" y1="224.496" x2="242.322" y2="208.35" gradientUnits="userSpaceOnUse">
<stop stop-color="#FF5E3A"/>
<stop offset="1" stop-color="#FF9500"/>
</linearGradient>
<linearGradient id="paint76_linear" x1="241.157" y1="215.962" x2="242.321" y2="208.357" gradientUnits="userSpaceOnUse">
<stop stop-color="#FF5E3A"/>
<stop offset="1" stop-color="#FF9500"/>
</linearGradient>
<linearGradient id="paint77_linear" x1="244.136" y1="230.306" x2="246.607" y2="214.16" gradientUnits="userSpaceOnUse">
<stop stop-color="#FF5E3A"/>
<stop offset="1" stop-color="#FF9500"/>
</linearGradient>
<linearGradient id="paint78_linear" x1="245.253" y1="222.981" x2="246.417" y2="215.376" gradientUnits="userSpaceOnUse">
<stop stop-color="#FF5E3A"/>
<stop offset="1" stop-color="#FF9500"/>
</linearGradient>
<linearGradient id="paint79_linear" x1="249.53" y1="228.901" x2="252.001" y2="212.755" gradientUnits="userSpaceOnUse">
<stop stop-color="#FF5E3A"/>
<stop offset="1" stop-color="#FF9500"/>
</linearGradient>
<linearGradient id="paint80_linear" x1="250.739" y1="220.971" x2="251.903" y2="213.366" gradientUnits="userSpaceOnUse">
<stop stop-color="#FF5E3A"/>
<stop offset="1" stop-color="#FF9500"/>
</linearGradient>
<linearGradient id="paint81_linear" x1="254.258" y1="231.752" x2="256.729" y2="215.606" gradientUnits="userSpaceOnUse">
<stop stop-color="#FF5E3A"/>
<stop offset="1" stop-color="#FF9500"/>
</linearGradient>
<linearGradient id="paint82_linear" x1="255.104" y1="231.128" x2="256.258" y2="223.511" gradientUnits="userSpaceOnUse">
<stop stop-color="#FF5E3A"/>
<stop offset="1" stop-color="#FF9500"/>
</linearGradient>
<linearGradient id="paint83_linear" x1="216.65" y1="204.106" x2="216.65" y2="145.014" gradientUnits="userSpaceOnUse">
<stop stop-color="#FF5E3A"/>
<stop offset="1" stop-color="#FF9500"/>
</linearGradient>
<linearGradient id="paint84_linear" x1="284.409" y1="132.656" x2="284.409" y2="132.587" gradientUnits="userSpaceOnUse">
<stop stop-color="#FF5E3A"/>
<stop offset="1" stop-color="#FF9500"/>
</linearGradient>
<linearGradient id="paint85_linear" x1="268.917" y1="247.025" x2="268.917" y2="150.808" gradientUnits="userSpaceOnUse">
<stop stop-color="#FF5E3A"/>
<stop offset="1" stop-color="#FF9500"/>
</linearGradient>
<linearGradient id="paint86_linear" x1="38.0727" y1="298.226" x2="38.0727" y2="217.232" gradientUnits="userSpaceOnUse">
<stop stop-color="#FF5E3A"/>
<stop offset="1" stop-color="#FF9500"/>
</linearGradient>
<linearGradient id="paint87_linear" x1="68.2103" y1="229.539" x2="68.2103" y2="217.197" gradientUnits="userSpaceOnUse">
<stop stop-color="#FF5E3A"/>
<stop offset="1" stop-color="#FF9500"/>
</linearGradient>
<linearGradient id="paint88_linear" x1="74.1254" y1="261.309" x2="74.1254" y2="259.665" gradientUnits="userSpaceOnUse">
<stop stop-color="#FF5E3A"/>
<stop offset="1" stop-color="#FF9500"/>
</linearGradient>
<linearGradient id="paint89_linear" x1="73.4977" y1="319.437" x2="73.4978" y2="191.319" gradientUnits="userSpaceOnUse">
<stop stop-color="#FF5E3A"/>
<stop offset="1" stop-color="#FF9500"/>
</linearGradient>
</defs>
</svg>
