<svg width="351" height="280" viewBox="0 0 351 280" fill="none" xmlns="http://www.w3.org/2000/svg">
<path d="M9.57568 265.672H349.5V278.659H9.57568V265.672Z" fill="url(#paint0_linear)" stroke="url(#paint1_linear)"/>
<path opacity="0.5" d="M9.57568 265.672H349.5V278.659H9.57568V265.672Z" fill="white" stroke="url(#paint2_linear)"/>
<mask id="path-3-inside-1" fill="white">
<path d="M93.9746 115.157C92.3065 115.699 90.6694 116.333 89.0705 117.054C89.9447 116.407 90.8188 115.751 91.693 115.078C95.5916 111.953 99.2989 108.596 102.795 105.025C98.6949 109.016 94.3128 112.706 89.6824 116.066C90.3146 114.955 90.8752 113.805 91.3608 112.622C92.1913 110.445 92.3923 108.251 90.3118 107.088C87.7593 105.655 84.656 107.797 85.4777 111.459C85.971 113.504 86.9349 115.404 88.2925 117.01C85.2747 119.099 82.124 120.988 78.8603 122.666L78.5456 122.823C79.2394 121.629 79.8498 120.387 80.3726 119.108C81.203 116.94 81.4041 114.737 79.3236 113.584C76.771 112.141 73.6677 114.292 74.4894 117.954C74.9778 119.973 75.9262 121.852 77.2605 123.444C73.3355 125.376 69.2707 127.019 65.2408 128.803L64.6551 129.065C65.4444 128.219 66.1746 127.319 66.8405 126.373C68.1605 124.458 68.8598 122.378 67.1115 120.752C64.961 118.759 61.4469 120.131 61.3857 123.907C61.3866 125.993 61.8745 128.049 62.8106 129.913C59.0396 131.663 55.4549 133.789 52.1108 136.259L52.0059 136.347C52.4576 135.63 52.8691 134.889 53.2385 134.126C54.2263 132.02 54.5934 129.852 52.6091 128.532C52.2046 128.252 51.7416 128.067 51.2552 127.992C50.7689 127.917 50.2719 127.954 49.8019 128.1C49.3319 128.246 48.9012 128.496 48.5424 128.833C48.1837 129.17 47.9063 129.584 47.7312 130.044C47.4671 129.632 47.1072 129.29 46.6822 129.047C44.6804 127.894 42.7135 129.144 41.0351 130.909C40.5981 131.373 40.161 131.862 39.7851 132.361C41.0846 128.745 42.7206 125.259 44.6717 121.949C46.5231 122.766 48.5224 123.195 50.546 123.208C54.5322 123.208 56.2194 119.886 54.2612 117.823C52.6703 116.154 50.4324 116.792 48.3169 118.016C47.6175 118.422 46.9405 118.865 46.2889 119.344C48.3178 116.292 50.6206 113.43 53.1685 110.795C54.8088 112.15 56.7191 113.139 58.7719 113.697C62.6445 114.65 65.0834 111.844 63.676 109.37C62.5396 107.359 60.1794 107.438 57.8628 108.111C56.7597 108.448 55.6768 108.848 54.6197 109.309C55.6774 108.286 56.7701 107.298 57.8716 106.319C59.3314 105.078 60.835 103.88 62.356 102.709C64.0014 104.021 65.9047 104.971 67.9419 105.497C71.8145 106.45 74.2447 103.644 72.846 101.17C71.7096 99.1598 69.3493 99.2385 67.0328 99.9116C66.4821 100.069 65.9401 100.261 65.3981 100.462C67.4174 99.0199 69.4717 97.6125 71.5173 96.2139L73.4229 94.9113C75.1313 96.3446 77.1383 97.378 79.2973 97.936C83.1699 98.8888 85.6001 96.0827 84.2014 93.6088C83.065 91.5983 80.7048 91.6769 78.3882 92.35C77.4711 92.6248 76.5694 92.9487 75.687 93.3204V93.3204C76.0804 93.0406 76.4738 92.7609 76.8584 92.4462C77.584 91.9304 78.2921 91.3972 79.0001 90.8552C79.8743 90.1996 80.696 89.4653 81.5527 88.7747C82.0335 88.3901 82.5055 87.9792 82.9688 87.5596C84.685 89.0067 86.7046 90.0493 88.8782 90.6105C92.7507 91.5633 95.1809 88.7572 93.7823 86.2833C92.6458 84.2728 90.2856 84.3514 87.9691 85.0245C86.6699 85.4256 85.3969 85.9074 84.1577 86.4669V86.4669C85.7399 84.9983 87.2697 83.4685 88.7121 81.8776L89.0006 81.5454C89.6212 80.8548 90.2419 80.1467 90.8363 79.4299C91.4307 78.7131 92.1913 77.7428 92.8382 76.8773C95.5028 73.396 97.6901 69.5741 99.342 65.5132C97.6082 69.5231 95.3506 73.2856 92.6284 76.7025C89.934 80.1335 86.9287 83.3086 83.6507 86.1872L83.2923 86.4931C84.0468 85.2024 84.7127 83.8618 85.2854 82.4807C86.1595 80.3128 86.3169 78.1099 84.2364 76.956C81.6838 75.5136 78.5805 77.6641 79.4022 81.3268C79.927 83.4969 80.9812 85.5031 82.4706 87.1662L81.7013 87.8306L80.8271 88.5824C80.3114 88.9933 79.7956 89.3866 79.2711 89.78L78.397 90.4181C77.6539 90.9689 76.8934 91.5021 76.1329 92.0266L75.0489 92.7696L73.8076 93.6438C74.5276 92.4025 75.1643 91.1146 75.7133 89.7887C76.5437 87.6121 76.7448 85.4179 74.6643 84.2553C72.1117 82.8217 69.0084 84.9721 69.8301 88.6261C70.3394 90.7291 71.3434 92.6801 72.7586 94.3169L71.8407 94.9113L68.4315 97.1405L67.7671 97.5775L65.8702 98.8451L65.0485 99.3958C64.1743 99.999 63.3001 100.611 62.426 101.24C63.1612 99.9806 63.8096 98.6721 64.3666 97.324C65.1971 95.1561 65.3981 92.9532 63.3176 91.7993C60.765 90.3569 57.6618 92.5074 58.4835 96.1701C59.0022 98.3003 60.0279 100.274 61.4731 101.922C59.987 103.015 58.5272 104.134 57.1023 105.305C56.062 106.179 55.0305 107.053 54.034 107.998C54.4724 107.189 54.8607 106.354 55.1966 105.497C56.0708 103.321 56.2281 101.127 54.1476 99.9728C51.595 98.5304 48.4918 100.681 49.3135 104.344C49.8057 106.361 50.7536 108.239 52.0846 109.833C49.2535 112.649 46.7007 115.732 44.4619 119.038C44.7174 118.084 44.913 117.115 45.0475 116.136C45.3273 113.828 44.9951 111.66 42.696 111.031C39.8638 110.253 37.3724 113.085 39.0595 116.46C40.0324 118.315 41.4205 119.922 43.1156 121.154C40.9225 124.755 39.084 128.561 37.6259 132.518C37.5959 131.692 37.5141 130.869 37.3811 130.053C36.9965 127.754 36.0611 125.769 33.6747 125.813C30.7462 125.874 29.164 129.31 31.734 132.055C33.1139 133.487 34.795 134.595 36.6556 135.298C35.6637 138.357 34.8522 141.471 34.2254 144.625C34.1292 145.123 34.0506 145.622 33.9544 146.12C33.8495 146.216 33.7446 146.312 33.6484 146.417C33.5435 145.989 33.4212 145.543 33.2813 145.132C32.547 142.929 31.3144 141.102 28.9717 141.522C26.0782 142.02 25.0379 145.648 28.0101 147.982C29.5253 149.133 31.2688 149.946 33.1239 150.368L33.2288 150.622C32.9141 152.991 32.6694 155.377 32.5208 157.773C32.4071 159.521 32.3459 161.348 32.311 163.14C29.8109 163.14 28.045 165.885 29.7671 168.857C30.4955 170.088 31.4264 171.188 32.5208 172.109C32.7306 175.474 33.0627 178.84 33.5086 182.179C33.1546 181.853 32.722 181.624 32.2531 181.516C31.7842 181.407 31.2951 181.422 30.8336 181.559C29.2601 181.987 28.5521 183.254 28.2898 184.81C27.7382 185.395 27.4262 186.166 27.4156 186.97C26.2443 185.221 25.1428 183.473 24.0676 181.62C25.7059 180.364 27.0637 178.78 28.0538 176.969C29.942 173.473 27.8178 170.404 25.0729 171.147C22.8438 171.75 22.3455 174.032 22.4504 176.471C22.4841 177.396 22.5717 178.318 22.7126 179.233C22.3193 178.56 21.9346 177.878 21.5587 177.205C20.5972 175.457 19.8104 173.709 18.8663 171.96C18.639 171.532 18.438 171.086 18.2457 170.649C20.0901 169.726 21.7194 168.424 23.0273 166.829C25.5362 163.734 24.0239 160.334 21.1916 160.552C18.8925 160.736 17.9747 162.878 17.59 165.29C17.429 166.341 17.3356 167.401 17.3103 168.464L16.4886 166.567C14.7411 162.262 13.3009 157.84 12.1789 153.332C14.2619 152.59 16.1546 151.396 17.7211 149.835C20.5272 146.994 19.3646 143.471 16.5235 143.401C14.2158 143.349 13.0881 145.386 12.4587 147.772C12.1496 149.039 11.9161 150.324 11.7593 151.618C11.1562 148.996 10.6317 146.417 10.1946 143.795C9.89737 142.169 9.70506 140.517 9.49526 138.873C11.7385 138.429 13.8517 137.481 15.6756 136.102C18.8226 133.654 18.1233 129.983 15.3172 129.572C13.0356 129.214 11.6544 131.093 10.7278 133.357C10.1819 134.785 9.72358 136.244 9.35539 137.728C9.18056 135.822 8.9795 133.908 8.89209 131.993C8.64293 128.04 8.66045 124.074 8.94453 120.122C8.54097 124.071 8.40371 128.043 8.53368 132.011C8.53368 133.838 8.69103 135.656 8.80467 137.483C8.30323 136.242 7.71914 135.036 7.05634 133.873C5.85873 131.871 4.27649 130.376 2.06486 131.25C-0.645056 132.369 -0.88108 136.128 2.51942 137.772C4.52251 138.689 6.71842 139.106 8.91831 138.987C9.07566 140.613 9.20678 142.247 9.46029 143.865C9.80122 146.443 10.2383 149.005 10.7453 151.548C10.1922 150.572 9.57298 149.635 8.89209 148.742C7.44971 146.915 5.67516 145.622 3.6471 146.802C1.10328 148.262 1.35678 152.047 4.94086 153.209C6.9737 153.842 9.1272 153.986 11.2261 153.629C12.2206 158.188 13.5321 162.671 15.1511 167.047L15.6756 168.359C15.2129 167.746 14.7137 167.163 14.1808 166.61C12.5636 164.932 10.6841 163.822 8.72599 165.212C6.33952 166.916 6.97766 170.632 10.6579 171.453C12.6984 171.868 14.8071 171.809 16.8208 171.278C16.9956 171.724 17.1879 172.153 17.4065 172.607C18.2806 174.408 19.0586 176.252 19.9765 178.018L20.772 179.531C20.3197 179.133 19.847 178.76 19.3558 178.412C17.4502 177.074 15.3871 176.34 13.735 178.062C11.7156 180.186 13.0269 183.718 16.8033 183.831C18.7353 183.882 20.6556 183.516 22.4329 182.756C23.5081 184.714 24.6271 186.646 25.8334 188.543C26.2792 189.269 26.7076 189.986 27.2146 190.702C26.5285 190.059 25.8014 189.46 25.0379 188.91C23.141 187.573 21.0692 186.839 19.4258 188.561C17.3977 190.685 18.7177 194.216 22.4941 194.33C24.6524 194.355 26.7857 193.867 28.7181 192.905C29.3359 193.779 29.9828 194.654 30.6588 195.528C29.2514 197.162 29.706 199.899 32.5645 201.149C33.9536 201.725 35.4329 202.053 36.9353 202.119L37.4773 202.53L37.5734 202.6C39.378 209.352 41.5195 216.01 43.9898 222.548C45.0446 225.34 46.1577 228.105 47.3291 230.844H36.8391V272.218H68.886V230.835H51.7611C50.3013 227.645 48.9026 224.419 47.5914 221.158C45.4497 215.8 43.509 210.371 41.8131 204.855C42.0998 204.941 42.3918 205.008 42.6873 205.056C43.0758 205.133 43.4737 205.151 43.8674 205.109L43.4129 202.233H43.3517H43.1069C42.9496 202.233 42.7398 202.154 42.5562 202.128C42.1545 202.014 41.7628 201.868 41.3848 201.691L40.9302 201.481C42.6149 200.893 44.1788 200.005 45.5458 198.858C48.5879 196.236 47.7225 192.652 44.8989 192.346C42.5999 192.092 41.3061 194.033 40.5281 196.332C40.2921 196.988 40.0998 197.669 39.9249 198.334C39.7676 197.722 39.5928 197.11 39.4442 196.498C38.9808 194.689 38.57 192.862 38.1504 191.035C39.977 190.453 41.6725 189.521 43.1419 188.29C46.184 185.667 45.3185 182.092 42.495 181.786C40.1959 181.532 38.9022 183.473 38.1242 185.772C37.8859 186.44 37.6817 187.12 37.5122 187.809C37.25 186.471 36.9878 185.143 36.7605 183.805C36.5856 182.809 36.437 181.821 36.2884 180.824C36.2272 179.408 36.2097 177.992 36.2272 176.567C36.2272 175.789 36.2272 175.011 36.2972 174.224C38.0096 174.773 39.8078 175.004 41.6033 174.906C45.5808 174.644 47.0581 171.235 44.9776 169.303C43.2817 167.721 41.0876 168.507 39.0508 169.854C38.1359 170.472 37.2601 171.146 36.4283 171.873C36.6702 168.546 37.1729 165.243 37.9318 161.995C38.3849 160.082 38.9453 158.197 39.6102 156.348C41.4374 156.981 43.3704 157.251 45.3011 157.143C49.2785 156.89 50.7558 153.48 48.6753 151.54C46.9795 149.966 44.7853 150.744 42.7485 152.099C42.0252 152.587 41.3278 153.112 40.6592 153.673C41.424 151.863 42.318 150.11 43.3342 148.428C45.3681 145.047 47.9096 141.998 50.8695 139.389C52.3901 140.798 54.1886 141.872 56.1495 142.545C59.9346 143.786 62.5746 141.163 61.3944 138.593C60.4154 136.504 58.0813 136.408 55.6949 136.906C54.7868 137.102 53.8908 137.35 53.0112 137.649L53.0636 137.597C56.3254 135.051 59.8406 132.848 63.5536 131.023C64.8593 132.742 66.5239 134.156 68.4315 135.167C71.9718 136.994 74.9965 134.826 74.2097 132.098C73.5716 129.878 71.29 129.415 68.8423 129.476C67.8876 129.531 66.9364 129.636 65.9925 129.791C69.9263 127.929 73.9562 126.171 77.8287 124.117L77.9074 124.073C79.6469 125.571 81.7078 126.648 83.9304 127.22C87.803 128.182 90.2419 125.367 88.8432 122.893C87.6981 120.883 85.3466 120.97 83.0213 121.635C82.3657 121.827 81.71 122.063 81.0806 122.308C83.6691 120.8 86.1783 119.16 88.5985 117.395L88.8083 117.613C88.8035 117.582 88.8035 117.549 88.8083 117.517C90.5602 119.03 92.6355 120.122 94.875 120.708C98.7475 121.661 101.178 118.855 99.779 116.381C98.6514 114.396 96.3261 114.484 93.9746 115.157ZM32.8529 194.365C32.0662 193.43 31.3144 192.468 30.5714 191.489C30.755 191.332 30.9473 191.157 31.1396 190.965C32.2289 191.305 33.3566 191.508 34.4964 191.568C34.4964 191.629 34.4964 191.69 34.4964 191.751L35.0296 191.638C35.3006 193.019 35.5978 194.391 35.9038 195.764C35.5465 195.301 35.0822 194.932 34.5508 194.688C34.0194 194.445 33.4367 194.334 32.8529 194.365V194.365ZM35.7115 161.453C35.4405 162.476 35.2044 163.516 34.9947 164.556C34.9552 164.49 34.9082 164.428 34.8548 164.373C34.8548 162.24 34.8897 160.112 34.9597 157.991C35.0209 156.505 35.1258 155.028 35.2569 153.542C35.9724 154.278 36.7635 154.938 37.6171 155.508C36.8653 157.451 36.229 159.436 35.7115 161.453V161.453ZM39.2955 151.662C39.2955 151.278 39.383 150.884 39.4092 150.5C39.4092 150.298 39.4092 150.106 39.4092 149.914C39.7239 149.818 40.0386 149.704 40.362 149.573C39.9949 150.263 39.6365 150.954 39.2955 151.662ZM43.8499 144.267C43.6948 143.923 43.4727 143.614 43.1965 143.357C42.9203 143.1 42.5956 142.901 42.2415 142.772C40.091 141.898 38.334 143.471 36.944 145.482L36.8829 145.578H36.743C36.5964 145.545 36.4472 145.524 36.2972 145.517C36.2972 145.394 36.2972 145.272 36.3584 145.15C36.913 141.996 37.6574 138.878 38.5875 135.814C40.5943 136.067 42.6315 135.909 44.5755 135.35C45.7644 135.045 46.8057 134.326 47.5127 133.322C47.9012 135.082 48.6319 136.748 49.6631 138.226C47.5189 140.04 45.5705 142.073 43.8499 144.293V144.267Z"/>
</mask>
<path d="M93.9746 115.157C92.3065 115.699 90.6694 116.333 89.0705 117.054C89.9447 116.407 90.8188 115.751 91.693 115.078C95.5916 111.953 99.2989 108.596 102.795 105.025C98.6949 109.016 94.3128 112.706 89.6824 116.066C90.3146 114.955 90.8752 113.805 91.3608 112.622C92.1913 110.445 92.3923 108.251 90.3118 107.088C87.7593 105.655 84.656 107.797 85.4777 111.459C85.971 113.504 86.9349 115.404 88.2925 117.01C85.2747 119.099 82.124 120.988 78.8603 122.666L78.5456 122.823C79.2394 121.629 79.8498 120.387 80.3726 119.108C81.203 116.94 81.4041 114.737 79.3236 113.584C76.771 112.141 73.6677 114.292 74.4894 117.954C74.9778 119.973 75.9262 121.852 77.2605 123.444C73.3355 125.376 69.2707 127.019 65.2408 128.803L64.6551 129.065C65.4444 128.219 66.1746 127.319 66.8405 126.373C68.1605 124.458 68.8598 122.378 67.1115 120.752C64.961 118.759 61.4469 120.131 61.3857 123.907C61.3866 125.993 61.8745 128.049 62.8106 129.913C59.0396 131.663 55.4549 133.789 52.1108 136.259L52.0059 136.347C52.4576 135.63 52.8691 134.889 53.2385 134.126C54.2263 132.02 54.5934 129.852 52.6091 128.532C52.2046 128.252 51.7416 128.067 51.2552 127.992C50.7689 127.917 50.2719 127.954 49.8019 128.1C49.3319 128.246 48.9012 128.496 48.5424 128.833C48.1837 129.17 47.9063 129.584 47.7312 130.044C47.4671 129.632 47.1072 129.29 46.6822 129.047C44.6804 127.894 42.7135 129.144 41.0351 130.909C40.5981 131.373 40.161 131.862 39.7851 132.361C41.0846 128.745 42.7206 125.259 44.6717 121.949C46.5231 122.766 48.5224 123.195 50.546 123.208C54.5322 123.208 56.2194 119.886 54.2612 117.823C52.6703 116.154 50.4324 116.792 48.3169 118.016C47.6175 118.422 46.9405 118.865 46.2889 119.344C48.3178 116.292 50.6206 113.43 53.1685 110.795C54.8088 112.15 56.7191 113.139 58.7719 113.697C62.6445 114.65 65.0834 111.844 63.676 109.37C62.5396 107.359 60.1794 107.438 57.8628 108.111C56.7597 108.448 55.6768 108.848 54.6197 109.309C55.6774 108.286 56.7701 107.298 57.8716 106.319C59.3314 105.078 60.835 103.88 62.356 102.709C64.0014 104.021 65.9047 104.971 67.9419 105.497C71.8145 106.45 74.2447 103.644 72.846 101.17C71.7096 99.1598 69.3493 99.2385 67.0328 99.9116C66.4821 100.069 65.9401 100.261 65.3981 100.462C67.4174 99.0199 69.4717 97.6125 71.5173 96.2139L73.4229 94.9113C75.1313 96.3446 77.1383 97.378 79.2973 97.936C83.1699 98.8888 85.6001 96.0827 84.2014 93.6088C83.065 91.5983 80.7048 91.6769 78.3882 92.35C77.4711 92.6248 76.5694 92.9487 75.687 93.3204V93.3204C76.0804 93.0406 76.4738 92.7609 76.8584 92.4462C77.584 91.9304 78.2921 91.3972 79.0001 90.8552C79.8743 90.1996 80.696 89.4653 81.5527 88.7747C82.0335 88.3901 82.5055 87.9792 82.9688 87.5596C84.685 89.0067 86.7046 90.0493 88.8782 90.6105C92.7507 91.5633 95.1809 88.7572 93.7823 86.2833C92.6458 84.2728 90.2856 84.3514 87.9691 85.0245C86.6699 85.4256 85.3969 85.9074 84.1577 86.4669V86.4669C85.7399 84.9983 87.2697 83.4685 88.7121 81.8776L89.0006 81.5454C89.6212 80.8548 90.2419 80.1467 90.8363 79.4299C91.4307 78.7131 92.1913 77.7428 92.8382 76.8773C95.5028 73.396 97.6901 69.5741 99.342 65.5132C97.6082 69.5231 95.3506 73.2856 92.6284 76.7025C89.934 80.1335 86.9287 83.3086 83.6507 86.1872L83.2923 86.4931C84.0468 85.2024 84.7127 83.8618 85.2854 82.4807C86.1595 80.3128 86.3169 78.1099 84.2364 76.956C81.6838 75.5136 78.5805 77.6641 79.4022 81.3268C79.927 83.4969 80.9812 85.5031 82.4706 87.1662L81.7013 87.8306L80.8271 88.5824C80.3114 88.9933 79.7956 89.3866 79.2711 89.78L78.397 90.4181C77.6539 90.9689 76.8934 91.5021 76.1329 92.0266L75.0489 92.7696L73.8076 93.6438C74.5276 92.4025 75.1643 91.1146 75.7133 89.7887C76.5437 87.6121 76.7448 85.4179 74.6643 84.2553C72.1117 82.8217 69.0084 84.9721 69.8301 88.6261C70.3394 90.7291 71.3434 92.6801 72.7586 94.3169L71.8407 94.9113L68.4315 97.1405L67.7671 97.5775L65.8702 98.8451L65.0485 99.3958C64.1743 99.999 63.3001 100.611 62.426 101.24C63.1612 99.9806 63.8096 98.6721 64.3666 97.324C65.1971 95.1561 65.3981 92.9532 63.3176 91.7993C60.765 90.3569 57.6618 92.5074 58.4835 96.1701C59.0022 98.3003 60.0279 100.274 61.4731 101.922C59.987 103.015 58.5272 104.134 57.1023 105.305C56.062 106.179 55.0305 107.053 54.034 107.998C54.4724 107.189 54.8607 106.354 55.1966 105.497C56.0708 103.321 56.2281 101.127 54.1476 99.9728C51.595 98.5304 48.4918 100.681 49.3135 104.344C49.8057 106.361 50.7536 108.239 52.0846 109.833C49.2535 112.649 46.7007 115.732 44.4619 119.038C44.7174 118.084 44.913 117.115 45.0475 116.136C45.3273 113.828 44.9951 111.66 42.696 111.031C39.8638 110.253 37.3724 113.085 39.0595 116.46C40.0324 118.315 41.4205 119.922 43.1156 121.154C40.9225 124.755 39.084 128.561 37.6259 132.518C37.5959 131.692 37.5141 130.869 37.3811 130.053C36.9965 127.754 36.0611 125.769 33.6747 125.813C30.7462 125.874 29.164 129.31 31.734 132.055C33.1139 133.487 34.795 134.595 36.6556 135.298C35.6637 138.357 34.8522 141.471 34.2254 144.625C34.1292 145.123 34.0506 145.622 33.9544 146.12C33.8495 146.216 33.7446 146.312 33.6484 146.417C33.5435 145.989 33.4212 145.543 33.2813 145.132C32.547 142.929 31.3144 141.102 28.9717 141.522C26.0782 142.02 25.0379 145.648 28.0101 147.982C29.5253 149.133 31.2688 149.946 33.1239 150.368L33.2288 150.622C32.9141 152.991 32.6694 155.377 32.5208 157.773C32.4071 159.521 32.3459 161.348 32.311 163.14C29.8109 163.14 28.045 165.885 29.7671 168.857C30.4955 170.088 31.4264 171.188 32.5208 172.109C32.7306 175.474 33.0627 178.84 33.5086 182.179C33.1546 181.853 32.722 181.624 32.2531 181.516C31.7842 181.407 31.2951 181.422 30.8336 181.559C29.2601 181.987 28.5521 183.254 28.2898 184.81C27.7382 185.395 27.4262 186.166 27.4156 186.97C26.2443 185.221 25.1428 183.473 24.0676 181.62C25.7059 180.364 27.0637 178.78 28.0538 176.969C29.942 173.473 27.8178 170.404 25.0729 171.147C22.8438 171.75 22.3455 174.032 22.4504 176.471C22.4841 177.396 22.5717 178.318 22.7126 179.233C22.3193 178.56 21.9346 177.878 21.5587 177.205C20.5972 175.457 19.8104 173.709 18.8663 171.96C18.639 171.532 18.438 171.086 18.2457 170.649C20.0901 169.726 21.7194 168.424 23.0273 166.829C25.5362 163.734 24.0239 160.334 21.1916 160.552C18.8925 160.736 17.9747 162.878 17.59 165.29C17.429 166.341 17.3356 167.401 17.3103 168.464L16.4886 166.567C14.7411 162.262 13.3009 157.84 12.1789 153.332C14.2619 152.59 16.1546 151.396 17.7211 149.835C20.5272 146.994 19.3646 143.471 16.5235 143.401C14.2158 143.349 13.0881 145.386 12.4587 147.772C12.1496 149.039 11.9161 150.324 11.7593 151.618C11.1562 148.996 10.6317 146.417 10.1946 143.795C9.89737 142.169 9.70506 140.517 9.49526 138.873C11.7385 138.429 13.8517 137.481 15.6756 136.102C18.8226 133.654 18.1233 129.983 15.3172 129.572C13.0356 129.214 11.6544 131.093 10.7278 133.357C10.1819 134.785 9.72358 136.244 9.35539 137.728C9.18056 135.822 8.9795 133.908 8.89209 131.993C8.64293 128.04 8.66045 124.074 8.94453 120.122C8.54097 124.071 8.40371 128.043 8.53368 132.011C8.53368 133.838 8.69103 135.656 8.80467 137.483C8.30323 136.242 7.71914 135.036 7.05634 133.873C5.85873 131.871 4.27649 130.376 2.06486 131.25C-0.645056 132.369 -0.88108 136.128 2.51942 137.772C4.52251 138.689 6.71842 139.106 8.91831 138.987C9.07566 140.613 9.20678 142.247 9.46029 143.865C9.80122 146.443 10.2383 149.005 10.7453 151.548C10.1922 150.572 9.57298 149.635 8.89209 148.742C7.44971 146.915 5.67516 145.622 3.6471 146.802C1.10328 148.262 1.35678 152.047 4.94086 153.209C6.9737 153.842 9.1272 153.986 11.2261 153.629C12.2206 158.188 13.5321 162.671 15.1511 167.047L15.6756 168.359C15.2129 167.746 14.7137 167.163 14.1808 166.61C12.5636 164.932 10.6841 163.822 8.72599 165.212C6.33952 166.916 6.97766 170.632 10.6579 171.453C12.6984 171.868 14.8071 171.809 16.8208 171.278C16.9956 171.724 17.1879 172.153 17.4065 172.607C18.2806 174.408 19.0586 176.252 19.9765 178.018L20.772 179.531C20.3197 179.133 19.847 178.76 19.3558 178.412C17.4502 177.074 15.3871 176.34 13.735 178.062C11.7156 180.186 13.0269 183.718 16.8033 183.831C18.7353 183.882 20.6556 183.516 22.4329 182.756C23.5081 184.714 24.6271 186.646 25.8334 188.543C26.2792 189.269 26.7076 189.986 27.2146 190.702C26.5285 190.059 25.8014 189.46 25.0379 188.91C23.141 187.573 21.0692 186.839 19.4258 188.561C17.3977 190.685 18.7177 194.216 22.4941 194.33C24.6524 194.355 26.7857 193.867 28.7181 192.905C29.3359 193.779 29.9828 194.654 30.6588 195.528C29.2514 197.162 29.706 199.899 32.5645 201.149C33.9536 201.725 35.4329 202.053 36.9353 202.119L37.4773 202.53L37.5734 202.6C39.378 209.352 41.5195 216.01 43.9898 222.548C45.0446 225.34 46.1577 228.105 47.3291 230.844H36.8391V272.218H68.886V230.835H51.7611C50.3013 227.645 48.9026 224.419 47.5914 221.158C45.4497 215.8 43.509 210.371 41.8131 204.855C42.0998 204.941 42.3918 205.008 42.6873 205.056C43.0758 205.133 43.4737 205.151 43.8674 205.109L43.4129 202.233H43.3517H43.1069C42.9496 202.233 42.7398 202.154 42.5562 202.128C42.1545 202.014 41.7628 201.868 41.3848 201.691L40.9302 201.481C42.6149 200.893 44.1788 200.005 45.5458 198.858C48.5879 196.236 47.7225 192.652 44.8989 192.346C42.5999 192.092 41.3061 194.033 40.5281 196.332C40.2921 196.988 40.0998 197.669 39.9249 198.334C39.7676 197.722 39.5928 197.11 39.4442 196.498C38.9808 194.689 38.57 192.862 38.1504 191.035C39.977 190.453 41.6725 189.521 43.1419 188.29C46.184 185.667 45.3185 182.092 42.495 181.786C40.1959 181.532 38.9022 183.473 38.1242 185.772C37.8859 186.44 37.6817 187.12 37.5122 187.809C37.25 186.471 36.9878 185.143 36.7605 183.805C36.5856 182.809 36.437 181.821 36.2884 180.824C36.2272 179.408 36.2097 177.992 36.2272 176.567C36.2272 175.789 36.2272 175.011 36.2972 174.224C38.0096 174.773 39.8078 175.004 41.6033 174.906C45.5808 174.644 47.0581 171.235 44.9776 169.303C43.2817 167.721 41.0876 168.507 39.0508 169.854C38.1359 170.472 37.2601 171.146 36.4283 171.873C36.6702 168.546 37.1729 165.243 37.9318 161.995C38.3849 160.082 38.9453 158.197 39.6102 156.348C41.4374 156.981 43.3704 157.251 45.3011 157.143C49.2785 156.89 50.7558 153.48 48.6753 151.54C46.9795 149.966 44.7853 150.744 42.7485 152.099C42.0252 152.587 41.3278 153.112 40.6592 153.673C41.424 151.863 42.318 150.11 43.3342 148.428C45.3681 145.047 47.9096 141.998 50.8695 139.389C52.3901 140.798 54.1886 141.872 56.1495 142.545C59.9346 143.786 62.5746 141.163 61.3944 138.593C60.4154 136.504 58.0813 136.408 55.6949 136.906C54.7868 137.102 53.8908 137.35 53.0112 137.649L53.0636 137.597C56.3254 135.051 59.8406 132.848 63.5536 131.023C64.8593 132.742 66.5239 134.156 68.4315 135.167C71.9718 136.994 74.9965 134.826 74.2097 132.098C73.5716 129.878 71.29 129.415 68.8423 129.476C67.8876 129.531 66.9364 129.636 65.9925 129.791C69.9263 127.929 73.9562 126.171 77.8287 124.117L77.9074 124.073C79.6469 125.571 81.7078 126.648 83.9304 127.22C87.803 128.182 90.2419 125.367 88.8432 122.893C87.6981 120.883 85.3466 120.97 83.0213 121.635C82.3657 121.827 81.71 122.063 81.0806 122.308C83.6691 120.8 86.1783 119.16 88.5985 117.395L88.8083 117.613C88.8035 117.582 88.8035 117.549 88.8083 117.517C90.5602 119.03 92.6355 120.122 94.875 120.708C98.7475 121.661 101.178 118.855 99.779 116.381C98.6514 114.396 96.3261 114.484 93.9746 115.157ZM32.8529 194.365C32.0662 193.43 31.3144 192.468 30.5714 191.489C30.755 191.332 30.9473 191.157 31.1396 190.965C32.2289 191.305 33.3566 191.508 34.4964 191.568C34.4964 191.629 34.4964 191.69 34.4964 191.751L35.0296 191.638C35.3006 193.019 35.5978 194.391 35.9038 195.764C35.5465 195.301 35.0822 194.932 34.5508 194.688C34.0194 194.445 33.4367 194.334 32.8529 194.365V194.365ZM35.7115 161.453C35.4405 162.476 35.2044 163.516 34.9947 164.556C34.9552 164.49 34.9082 164.428 34.8548 164.373C34.8548 162.24 34.8897 160.112 34.9597 157.991C35.0209 156.505 35.1258 155.028 35.2569 153.542C35.9724 154.278 36.7635 154.938 37.6171 155.508C36.8653 157.451 36.229 159.436 35.7115 161.453V161.453ZM39.2955 151.662C39.2955 151.278 39.383 150.884 39.4092 150.5C39.4092 150.298 39.4092 150.106 39.4092 149.914C39.7239 149.818 40.0386 149.704 40.362 149.573C39.9949 150.263 39.6365 150.954 39.2955 151.662ZM43.8499 144.267C43.6948 143.923 43.4727 143.614 43.1965 143.357C42.9203 143.1 42.5956 142.901 42.2415 142.772C40.091 141.898 38.334 143.471 36.944 145.482L36.8829 145.578H36.743C36.5964 145.545 36.4472 145.524 36.2972 145.517C36.2972 145.394 36.2972 145.272 36.3584 145.15C36.913 141.996 37.6574 138.878 38.5875 135.814C40.5943 136.067 42.6315 135.909 44.5755 135.35C45.7644 135.045 46.8057 134.326 47.5127 133.322C47.9012 135.082 48.6319 136.748 49.6631 138.226C47.5189 140.04 45.5705 142.073 43.8499 144.293V144.267Z" fill="url(#paint3_linear)" stroke="url(#paint4_linear)" stroke-width="2" mask="url(#path-3-inside-1)"/>
<g opacity="0.5">
<mask id="path-4-inside-2" fill="white">
<path d="M93.9746 115.157C92.3065 115.699 90.6694 116.333 89.0705 117.054C89.9447 116.407 90.8188 115.751 91.693 115.078C95.5916 111.953 99.2989 108.596 102.795 105.025C98.6949 109.016 94.3128 112.706 89.6824 116.066C90.3146 114.955 90.8752 113.805 91.3608 112.622C92.1913 110.445 92.3923 108.251 90.3118 107.088C87.7593 105.655 84.656 107.797 85.4777 111.459C85.971 113.504 86.9349 115.404 88.2925 117.01C85.2747 119.099 82.124 120.988 78.8603 122.666L78.5456 122.823C79.2394 121.629 79.8498 120.387 80.3726 119.108C81.203 116.94 81.4041 114.737 79.3236 113.584C76.771 112.141 73.6677 114.292 74.4894 117.954C74.9778 119.973 75.9262 121.852 77.2605 123.444C73.3355 125.376 69.2707 127.019 65.2408 128.803L64.6551 129.065C65.4444 128.219 66.1746 127.319 66.8405 126.373C68.1605 124.458 68.8598 122.378 67.1115 120.752C64.961 118.759 61.4469 120.131 61.3857 123.907C61.3866 125.993 61.8745 128.049 62.8106 129.913C59.0396 131.663 55.4549 133.789 52.1108 136.259L52.0059 136.347C52.4576 135.63 52.8691 134.889 53.2385 134.126C54.2263 132.02 54.5934 129.852 52.6091 128.532C52.2046 128.252 51.7416 128.067 51.2552 127.992C50.7689 127.917 50.2719 127.954 49.8019 128.1C49.3319 128.246 48.9012 128.496 48.5424 128.833C48.1837 129.17 47.9063 129.584 47.7312 130.044C47.4671 129.632 47.1072 129.29 46.6822 129.047C44.6804 127.894 42.7135 129.144 41.0351 130.909C40.5981 131.373 40.161 131.862 39.7851 132.361C41.0846 128.745 42.7206 125.259 44.6717 121.949C46.5231 122.766 48.5224 123.195 50.546 123.208C54.5322 123.208 56.2194 119.886 54.2612 117.823C52.6703 116.154 50.4324 116.792 48.3169 118.016C47.6175 118.422 46.9405 118.865 46.2889 119.344C48.3178 116.292 50.6206 113.43 53.1685 110.795C54.8088 112.15 56.7191 113.139 58.7719 113.697C62.6445 114.65 65.0834 111.844 63.676 109.37C62.5396 107.359 60.1794 107.438 57.8628 108.111C56.7597 108.448 55.6768 108.848 54.6197 109.309C55.6774 108.286 56.7701 107.298 57.8716 106.319C59.3314 105.078 60.835 103.88 62.356 102.709C64.0014 104.021 65.9047 104.971 67.9419 105.497C71.8145 106.45 74.2447 103.644 72.846 101.17C71.7096 99.1598 69.3493 99.2385 67.0328 99.9116C66.4821 100.069 65.9401 100.261 65.3981 100.462C67.4174 99.0199 69.4717 97.6125 71.5173 96.2139L73.4229 94.9113C75.1313 96.3446 77.1383 97.378 79.2973 97.936C83.1699 98.8888 85.6001 96.0827 84.2014 93.6088C83.065 91.5983 80.7048 91.6769 78.3882 92.35C77.4711 92.6248 76.5694 92.9487 75.687 93.3204V93.3204C76.0804 93.0406 76.4738 92.7609 76.8584 92.4462C77.584 91.9304 78.2921 91.3972 79.0001 90.8552C79.8743 90.1996 80.696 89.4653 81.5527 88.7747C82.0335 88.3901 82.5055 87.9792 82.9688 87.5596C84.685 89.0067 86.7046 90.0493 88.8782 90.6105C92.7507 91.5633 95.1809 88.7572 93.7823 86.2833C92.6458 84.2728 90.2856 84.3514 87.9691 85.0245C86.6699 85.4256 85.3969 85.9074 84.1577 86.4669V86.4669C85.7399 84.9983 87.2697 83.4685 88.7121 81.8776L89.0006 81.5454C89.6212 80.8548 90.2419 80.1467 90.8363 79.4299C91.4307 78.7131 92.1913 77.7428 92.8382 76.8773C95.5028 73.396 97.6901 69.5741 99.342 65.5132C97.6082 69.5231 95.3506 73.2856 92.6284 76.7025C89.934 80.1335 86.9287 83.3086 83.6507 86.1872L83.2923 86.4931C84.0468 85.2024 84.7127 83.8618 85.2854 82.4807C86.1595 80.3128 86.3169 78.1099 84.2364 76.956C81.6838 75.5136 78.5805 77.6641 79.4022 81.3268C79.927 83.4969 80.9812 85.5031 82.4706 87.1662L81.7013 87.8306L80.8271 88.5824C80.3114 88.9933 79.7956 89.3866 79.2711 89.78L78.397 90.4181C77.6539 90.9689 76.8934 91.5021 76.1329 92.0266L75.0489 92.7696L73.8076 93.6438C74.5276 92.4025 75.1643 91.1146 75.7133 89.7887C76.5437 87.6121 76.7448 85.4179 74.6643 84.2553C72.1117 82.8217 69.0084 84.9721 69.8301 88.6261C70.3394 90.7291 71.3434 92.6801 72.7586 94.3169L71.8407 94.9113L68.4315 97.1405L67.7671 97.5775L65.8702 98.8451L65.0485 99.3958C64.1743 99.999 63.3001 100.611 62.426 101.24C63.1612 99.9806 63.8096 98.6721 64.3666 97.324C65.1971 95.1561 65.3981 92.9532 63.3176 91.7993C60.765 90.3569 57.6618 92.5074 58.4835 96.1701C59.0022 98.3003 60.0279 100.274 61.4731 101.922C59.987 103.015 58.5272 104.134 57.1023 105.305C56.062 106.179 55.0305 107.053 54.034 107.998C54.4724 107.189 54.8607 106.354 55.1966 105.497C56.0708 103.321 56.2281 101.127 54.1476 99.9728C51.595 98.5304 48.4918 100.681 49.3135 104.344C49.8057 106.361 50.7536 108.239 52.0846 109.833C49.2535 112.649 46.7007 115.732 44.4619 119.038C44.7174 118.084 44.913 117.115 45.0475 116.136C45.3273 113.828 44.9951 111.66 42.696 111.031C39.8638 110.253 37.3724 113.085 39.0595 116.46C40.0324 118.315 41.4205 119.922 43.1156 121.154C40.9225 124.755 39.084 128.561 37.6259 132.518C37.5959 131.692 37.5141 130.869 37.3811 130.053C36.9965 127.754 36.0611 125.769 33.6747 125.813C30.7462 125.874 29.164 129.31 31.734 132.055C33.1139 133.487 34.795 134.595 36.6556 135.298C35.6637 138.357 34.8522 141.471 34.2254 144.625C34.1292 145.123 34.0506 145.622 33.9544 146.12C33.8495 146.216 33.7446 146.312 33.6484 146.417C33.5435 145.989 33.4212 145.543 33.2813 145.132C32.547 142.929 31.3144 141.102 28.9717 141.522C26.0782 142.02 25.0379 145.648 28.0101 147.982C29.5253 149.133 31.2688 149.946 33.1239 150.368L33.2288 150.622C32.9141 152.991 32.6694 155.377 32.5208 157.773C32.4071 159.521 32.3459 161.348 32.311 163.14C29.8109 163.14 28.045 165.885 29.7671 168.857C30.4955 170.088 31.4264 171.188 32.5208 172.109C32.7306 175.474 33.0627 178.84 33.5086 182.179C33.1546 181.853 32.722 181.624 32.2531 181.516C31.7842 181.407 31.2951 181.422 30.8336 181.559C29.2601 181.987 28.5521 183.254 28.2898 184.81C27.7382 185.395 27.4262 186.166 27.4156 186.97C26.2443 185.221 25.1428 183.473 24.0676 181.62C25.7059 180.364 27.0637 178.78 28.0538 176.969C29.942 173.473 27.8178 170.404 25.0729 171.147C22.8438 171.75 22.3455 174.032 22.4504 176.471C22.4841 177.396 22.5717 178.318 22.7126 179.233C22.3193 178.56 21.9346 177.878 21.5587 177.205C20.5972 175.457 19.8104 173.709 18.8663 171.96C18.639 171.532 18.438 171.086 18.2457 170.649C20.0901 169.726 21.7194 168.424 23.0273 166.829C25.5362 163.734 24.0239 160.334 21.1916 160.552C18.8925 160.736 17.9747 162.878 17.59 165.29C17.429 166.341 17.3356 167.401 17.3103 168.464L16.4886 166.567C14.7411 162.262 13.3009 157.84 12.1789 153.332C14.2619 152.59 16.1546 151.396 17.7211 149.835C20.5272 146.994 19.3646 143.471 16.5235 143.401C14.2158 143.349 13.0881 145.386 12.4587 147.772C12.1496 149.039 11.9161 150.324 11.7593 151.618C11.1562 148.996 10.6317 146.417 10.1946 143.795C9.89737 142.169 9.70506 140.517 9.49526 138.873C11.7385 138.429 13.8517 137.481 15.6756 136.102C18.8226 133.654 18.1233 129.983 15.3172 129.572C13.0356 129.214 11.6544 131.093 10.7278 133.357C10.1819 134.785 9.72358 136.244 9.35539 137.728C9.18056 135.822 8.9795 133.908 8.89209 131.993C8.64293 128.04 8.66045 124.074 8.94453 120.122C8.54097 124.071 8.40371 128.043 8.53368 132.011C8.53368 133.838 8.69103 135.656 8.80467 137.483C8.30323 136.242 7.71914 135.036 7.05634 133.873C5.85873 131.871 4.27649 130.376 2.06486 131.25C-0.645056 132.369 -0.88108 136.128 2.51942 137.772C4.52251 138.689 6.71842 139.106 8.91831 138.987C9.07566 140.613 9.20678 142.247 9.46029 143.865C9.80122 146.443 10.2383 149.005 10.7453 151.548C10.1922 150.572 9.57298 149.635 8.89209 148.742C7.44971 146.915 5.67516 145.622 3.6471 146.802C1.10328 148.262 1.35678 152.047 4.94086 153.209C6.9737 153.842 9.1272 153.986 11.2261 153.629C12.2206 158.188 13.5321 162.671 15.1511 167.047L15.6756 168.359C15.2129 167.746 14.7137 167.163 14.1808 166.61C12.5636 164.932 10.6841 163.822 8.72599 165.212C6.33952 166.916 6.97766 170.632 10.6579 171.453C12.6984 171.868 14.8071 171.809 16.8208 171.278C16.9956 171.724 17.1879 172.153 17.4065 172.607C18.2806 174.408 19.0586 176.252 19.9765 178.018L20.772 179.531C20.3197 179.133 19.847 178.76 19.3558 178.412C17.4502 177.074 15.3871 176.34 13.735 178.062C11.7156 180.186 13.0269 183.718 16.8033 183.831C18.7353 183.882 20.6556 183.516 22.4329 182.756C23.5081 184.714 24.6271 186.646 25.8334 188.543C26.2792 189.269 26.7076 189.986 27.2146 190.702C26.5285 190.059 25.8014 189.46 25.0379 188.91C23.141 187.573 21.0692 186.839 19.4258 188.561C17.3977 190.685 18.7177 194.216 22.4941 194.33C24.6524 194.355 26.7857 193.867 28.7181 192.905C29.3359 193.779 29.9828 194.654 30.6588 195.528C29.2514 197.162 29.706 199.899 32.5645 201.149C33.9536 201.725 35.4329 202.053 36.9353 202.119L37.4773 202.53L37.5734 202.6C39.378 209.352 41.5195 216.01 43.9898 222.548C45.0446 225.34 46.1577 228.105 47.3291 230.844H36.8391V272.218H68.886V230.835H51.7611C50.3013 227.645 48.9026 224.419 47.5914 221.158C45.4497 215.8 43.509 210.371 41.8131 204.855C42.0998 204.941 42.3918 205.008 42.6873 205.056C43.0758 205.133 43.4737 205.151 43.8674 205.109L43.4129 202.233H43.3517H43.1069C42.9496 202.233 42.7398 202.154 42.5562 202.128C42.1545 202.014 41.7628 201.868 41.3848 201.691L40.9302 201.481C42.6149 200.893 44.1788 200.005 45.5458 198.858C48.5879 196.236 47.7225 192.652 44.8989 192.346C42.5999 192.092 41.3061 194.033 40.5281 196.332C40.2921 196.988 40.0998 197.669 39.9249 198.334C39.7676 197.722 39.5928 197.11 39.4442 196.498C38.9808 194.689 38.57 192.862 38.1504 191.035C39.977 190.453 41.6725 189.521 43.1419 188.29C46.184 185.667 45.3185 182.092 42.495 181.786C40.1959 181.532 38.9022 183.473 38.1242 185.772C37.8859 186.44 37.6817 187.12 37.5122 187.809C37.25 186.471 36.9878 185.143 36.7605 183.805C36.5856 182.809 36.437 181.821 36.2884 180.824C36.2272 179.408 36.2097 177.992 36.2272 176.567C36.2272 175.789 36.2272 175.011 36.2972 174.224C38.0096 174.773 39.8078 175.004 41.6033 174.906C45.5808 174.644 47.0581 171.235 44.9776 169.303C43.2817 167.721 41.0876 168.507 39.0508 169.854C38.1359 170.472 37.2601 171.146 36.4283 171.873C36.6702 168.546 37.1729 165.243 37.9318 161.995C38.3849 160.082 38.9453 158.197 39.6102 156.348C41.4374 156.981 43.3704 157.251 45.3011 157.143C49.2785 156.89 50.7558 153.48 48.6753 151.54C46.9795 149.966 44.7853 150.744 42.7485 152.099C42.0252 152.587 41.3278 153.112 40.6592 153.673C41.424 151.863 42.318 150.11 43.3342 148.428C45.3681 145.047 47.9096 141.998 50.8695 139.389C52.3901 140.798 54.1886 141.872 56.1495 142.545C59.9346 143.786 62.5746 141.163 61.3944 138.593C60.4154 136.504 58.0813 136.408 55.6949 136.906C54.7868 137.102 53.8908 137.35 53.0112 137.649L53.0636 137.597C56.3254 135.051 59.8406 132.848 63.5536 131.023C64.8593 132.742 66.5239 134.156 68.4315 135.167C71.9718 136.994 74.9965 134.826 74.2097 132.098C73.5716 129.878 71.29 129.415 68.8423 129.476C67.8876 129.531 66.9364 129.636 65.9925 129.791C69.9263 127.929 73.9562 126.171 77.8287 124.117L77.9074 124.073C79.6469 125.571 81.7078 126.648 83.9304 127.22C87.803 128.182 90.2419 125.367 88.8432 122.893C87.6981 120.883 85.3466 120.97 83.0213 121.635C82.3657 121.827 81.71 122.063 81.0806 122.308C83.6691 120.8 86.1783 119.16 88.5985 117.395L88.8083 117.613C88.8035 117.582 88.8035 117.549 88.8083 117.517C90.5602 119.03 92.6355 120.122 94.875 120.708C98.7475 121.661 101.178 118.855 99.779 116.381C98.6514 114.396 96.3261 114.484 93.9746 115.157ZM32.8529 194.365C32.0662 193.43 31.3144 192.468 30.5714 191.489C30.755 191.332 30.9473 191.157 31.1396 190.965C32.2289 191.305 33.3566 191.508 34.4964 191.568C34.4964 191.629 34.4964 191.69 34.4964 191.751L35.0296 191.638C35.3006 193.019 35.5978 194.391 35.9038 195.764C35.5465 195.301 35.0822 194.932 34.5508 194.688C34.0194 194.445 33.4367 194.334 32.8529 194.365V194.365ZM35.7115 161.453C35.4405 162.476 35.2044 163.516 34.9947 164.556C34.9552 164.49 34.9082 164.428 34.8548 164.373C34.8548 162.24 34.8897 160.112 34.9597 157.991C35.0209 156.505 35.1258 155.028 35.2569 153.542C35.9724 154.278 36.7635 154.938 37.6171 155.508C36.8653 157.451 36.229 159.436 35.7115 161.453V161.453ZM39.2955 151.662C39.2955 151.278 39.383 150.884 39.4092 150.5C39.4092 150.298 39.4092 150.106 39.4092 149.914C39.7239 149.818 40.0386 149.704 40.362 149.573C39.9949 150.263 39.6365 150.954 39.2955 151.662ZM43.8499 144.267C43.6948 143.923 43.4727 143.614 43.1965 143.357C42.9203 143.1 42.5956 142.901 42.2415 142.772C40.091 141.898 38.334 143.471 36.944 145.482L36.8829 145.578H36.743C36.5964 145.545 36.4472 145.524 36.2972 145.517C36.2972 145.394 36.2972 145.272 36.3584 145.15C36.913 141.996 37.6574 138.878 38.5875 135.814C40.5943 136.067 42.6315 135.909 44.5755 135.35C45.7644 135.045 46.8057 134.326 47.5127 133.322C47.9012 135.082 48.6319 136.748 49.6631 138.226C47.5189 140.04 45.5705 142.073 43.8499 144.293V144.267Z"/>
</mask>
<path d="M93.9746 115.157C92.3065 115.699 90.6694 116.333 89.0705 117.054C89.9447 116.407 90.8188 115.751 91.693 115.078C95.5916 111.953 99.2989 108.596 102.795 105.025C98.6949 109.016 94.3128 112.706 89.6824 116.066C90.3146 114.955 90.8752 113.805 91.3608 112.622C92.1913 110.445 92.3923 108.251 90.3118 107.088C87.7593 105.655 84.656 107.797 85.4777 111.459C85.971 113.504 86.9349 115.404 88.2925 117.01C85.2747 119.099 82.124 120.988 78.8603 122.666L78.5456 122.823C79.2394 121.629 79.8498 120.387 80.3726 119.108C81.203 116.94 81.4041 114.737 79.3236 113.584C76.771 112.141 73.6677 114.292 74.4894 117.954C74.9778 119.973 75.9262 121.852 77.2605 123.444C73.3355 125.376 69.2707 127.019 65.2408 128.803L64.6551 129.065C65.4444 128.219 66.1746 127.319 66.8405 126.373C68.1605 124.458 68.8598 122.378 67.1115 120.752C64.961 118.759 61.4469 120.131 61.3857 123.907C61.3866 125.993 61.8745 128.049 62.8106 129.913C59.0396 131.663 55.4549 133.789 52.1108 136.259L52.0059 136.347C52.4576 135.63 52.8691 134.889 53.2385 134.126C54.2263 132.02 54.5934 129.852 52.6091 128.532C52.2046 128.252 51.7416 128.067 51.2552 127.992C50.7689 127.917 50.2719 127.954 49.8019 128.1C49.3319 128.246 48.9012 128.496 48.5424 128.833C48.1837 129.17 47.9063 129.584 47.7312 130.044C47.4671 129.632 47.1072 129.29 46.6822 129.047C44.6804 127.894 42.7135 129.144 41.0351 130.909C40.5981 131.373 40.161 131.862 39.7851 132.361C41.0846 128.745 42.7206 125.259 44.6717 121.949C46.5231 122.766 48.5224 123.195 50.546 123.208C54.5322 123.208 56.2194 119.886 54.2612 117.823C52.6703 116.154 50.4324 116.792 48.3169 118.016C47.6175 118.422 46.9405 118.865 46.2889 119.344C48.3178 116.292 50.6206 113.43 53.1685 110.795C54.8088 112.15 56.7191 113.139 58.7719 113.697C62.6445 114.65 65.0834 111.844 63.676 109.37C62.5396 107.359 60.1794 107.438 57.8628 108.111C56.7597 108.448 55.6768 108.848 54.6197 109.309C55.6774 108.286 56.7701 107.298 57.8716 106.319C59.3314 105.078 60.835 103.88 62.356 102.709C64.0014 104.021 65.9047 104.971 67.9419 105.497C71.8145 106.45 74.2447 103.644 72.846 101.17C71.7096 99.1598 69.3493 99.2385 67.0328 99.9116C66.4821 100.069 65.9401 100.261 65.3981 100.462C67.4174 99.0199 69.4717 97.6125 71.5173 96.2139L73.4229 94.9113C75.1313 96.3446 77.1383 97.378 79.2973 97.936C83.1699 98.8888 85.6001 96.0827 84.2014 93.6088C83.065 91.5983 80.7048 91.6769 78.3882 92.35C77.4711 92.6248 76.5694 92.9487 75.687 93.3204V93.3204C76.0804 93.0406 76.4738 92.7609 76.8584 92.4462C77.584 91.9304 78.2921 91.3972 79.0001 90.8552C79.8743 90.1996 80.696 89.4653 81.5527 88.7747C82.0335 88.3901 82.5055 87.9792 82.9688 87.5596C84.685 89.0067 86.7046 90.0493 88.8782 90.6105C92.7507 91.5633 95.1809 88.7572 93.7823 86.2833C92.6458 84.2728 90.2856 84.3514 87.9691 85.0245C86.6699 85.4256 85.3969 85.9074 84.1577 86.4669V86.4669C85.7399 84.9983 87.2697 83.4685 88.7121 81.8776L89.0006 81.5454C89.6212 80.8548 90.2419 80.1467 90.8363 79.4299C91.4307 78.7131 92.1913 77.7428 92.8382 76.8773C95.5028 73.396 97.6901 69.5741 99.342 65.5132C97.6082 69.5231 95.3506 73.2856 92.6284 76.7025C89.934 80.1335 86.9287 83.3086 83.6507 86.1872L83.2923 86.4931C84.0468 85.2024 84.7127 83.8618 85.2854 82.4807C86.1595 80.3128 86.3169 78.1099 84.2364 76.956C81.6838 75.5136 78.5805 77.6641 79.4022 81.3268C79.927 83.4969 80.9812 85.5031 82.4706 87.1662L81.7013 87.8306L80.8271 88.5824C80.3114 88.9933 79.7956 89.3866 79.2711 89.78L78.397 90.4181C77.6539 90.9689 76.8934 91.5021 76.1329 92.0266L75.0489 92.7696L73.8076 93.6438C74.5276 92.4025 75.1643 91.1146 75.7133 89.7887C76.5437 87.6121 76.7448 85.4179 74.6643 84.2553C72.1117 82.8217 69.0084 84.9721 69.8301 88.6261C70.3394 90.7291 71.3434 92.6801 72.7586 94.3169L71.8407 94.9113L68.4315 97.1405L67.7671 97.5775L65.8702 98.8451L65.0485 99.3958C64.1743 99.999 63.3001 100.611 62.426 101.24C63.1612 99.9806 63.8096 98.6721 64.3666 97.324C65.1971 95.1561 65.3981 92.9532 63.3176 91.7993C60.765 90.3569 57.6618 92.5074 58.4835 96.1701C59.0022 98.3003 60.0279 100.274 61.4731 101.922C59.987 103.015 58.5272 104.134 57.1023 105.305C56.062 106.179 55.0305 107.053 54.034 107.998C54.4724 107.189 54.8607 106.354 55.1966 105.497C56.0708 103.321 56.2281 101.127 54.1476 99.9728C51.595 98.5304 48.4918 100.681 49.3135 104.344C49.8057 106.361 50.7536 108.239 52.0846 109.833C49.2535 112.649 46.7007 115.732 44.4619 119.038C44.7174 118.084 44.913 117.115 45.0475 116.136C45.3273 113.828 44.9951 111.66 42.696 111.031C39.8638 110.253 37.3724 113.085 39.0595 116.46C40.0324 118.315 41.4205 119.922 43.1156 121.154C40.9225 124.755 39.084 128.561 37.6259 132.518C37.5959 131.692 37.5141 130.869 37.3811 130.053C36.9965 127.754 36.0611 125.769 33.6747 125.813C30.7462 125.874 29.164 129.31 31.734 132.055C33.1139 133.487 34.795 134.595 36.6556 135.298C35.6637 138.357 34.8522 141.471 34.2254 144.625C34.1292 145.123 34.0506 145.622 33.9544 146.12C33.8495 146.216 33.7446 146.312 33.6484 146.417C33.5435 145.989 33.4212 145.543 33.2813 145.132C32.547 142.929 31.3144 141.102 28.9717 141.522C26.0782 142.02 25.0379 145.648 28.0101 147.982C29.5253 149.133 31.2688 149.946 33.1239 150.368L33.2288 150.622C32.9141 152.991 32.6694 155.377 32.5208 157.773C32.4071 159.521 32.3459 161.348 32.311 163.14C29.8109 163.14 28.045 165.885 29.7671 168.857C30.4955 170.088 31.4264 171.188 32.5208 172.109C32.7306 175.474 33.0627 178.84 33.5086 182.179C33.1546 181.853 32.722 181.624 32.2531 181.516C31.7842 181.407 31.2951 181.422 30.8336 181.559C29.2601 181.987 28.5521 183.254 28.2898 184.81C27.7382 185.395 27.4262 186.166 27.4156 186.97C26.2443 185.221 25.1428 183.473 24.0676 181.62C25.7059 180.364 27.0637 178.78 28.0538 176.969C29.942 173.473 27.8178 170.404 25.0729 171.147C22.8438 171.75 22.3455 174.032 22.4504 176.471C22.4841 177.396 22.5717 178.318 22.7126 179.233C22.3193 178.56 21.9346 177.878 21.5587 177.205C20.5972 175.457 19.8104 173.709 18.8663 171.96C18.639 171.532 18.438 171.086 18.2457 170.649C20.0901 169.726 21.7194 168.424 23.0273 166.829C25.5362 163.734 24.0239 160.334 21.1916 160.552C18.8925 160.736 17.9747 162.878 17.59 165.29C17.429 166.341 17.3356 167.401 17.3103 168.464L16.4886 166.567C14.7411 162.262 13.3009 157.84 12.1789 153.332C14.2619 152.59 16.1546 151.396 17.7211 149.835C20.5272 146.994 19.3646 143.471 16.5235 143.401C14.2158 143.349 13.0881 145.386 12.4587 147.772C12.1496 149.039 11.9161 150.324 11.7593 151.618C11.1562 148.996 10.6317 146.417 10.1946 143.795C9.89737 142.169 9.70506 140.517 9.49526 138.873C11.7385 138.429 13.8517 137.481 15.6756 136.102C18.8226 133.654 18.1233 129.983 15.3172 129.572C13.0356 129.214 11.6544 131.093 10.7278 133.357C10.1819 134.785 9.72358 136.244 9.35539 137.728C9.18056 135.822 8.9795 133.908 8.89209 131.993C8.64293 128.04 8.66045 124.074 8.94453 120.122C8.54097 124.071 8.40371 128.043 8.53368 132.011C8.53368 133.838 8.69103 135.656 8.80467 137.483C8.30323 136.242 7.71914 135.036 7.05634 133.873C5.85873 131.871 4.27649 130.376 2.06486 131.25C-0.645056 132.369 -0.88108 136.128 2.51942 137.772C4.52251 138.689 6.71842 139.106 8.91831 138.987C9.07566 140.613 9.20678 142.247 9.46029 143.865C9.80122 146.443 10.2383 149.005 10.7453 151.548C10.1922 150.572 9.57298 149.635 8.89209 148.742C7.44971 146.915 5.67516 145.622 3.6471 146.802C1.10328 148.262 1.35678 152.047 4.94086 153.209C6.9737 153.842 9.1272 153.986 11.2261 153.629C12.2206 158.188 13.5321 162.671 15.1511 167.047L15.6756 168.359C15.2129 167.746 14.7137 167.163 14.1808 166.61C12.5636 164.932 10.6841 163.822 8.72599 165.212C6.33952 166.916 6.97766 170.632 10.6579 171.453C12.6984 171.868 14.8071 171.809 16.8208 171.278C16.9956 171.724 17.1879 172.153 17.4065 172.607C18.2806 174.408 19.0586 176.252 19.9765 178.018L20.772 179.531C20.3197 179.133 19.847 178.76 19.3558 178.412C17.4502 177.074 15.3871 176.34 13.735 178.062C11.7156 180.186 13.0269 183.718 16.8033 183.831C18.7353 183.882 20.6556 183.516 22.4329 182.756C23.5081 184.714 24.6271 186.646 25.8334 188.543C26.2792 189.269 26.7076 189.986 27.2146 190.702C26.5285 190.059 25.8014 189.46 25.0379 188.91C23.141 187.573 21.0692 186.839 19.4258 188.561C17.3977 190.685 18.7177 194.216 22.4941 194.33C24.6524 194.355 26.7857 193.867 28.7181 192.905C29.3359 193.779 29.9828 194.654 30.6588 195.528C29.2514 197.162 29.706 199.899 32.5645 201.149C33.9536 201.725 35.4329 202.053 36.9353 202.119L37.4773 202.53L37.5734 202.6C39.378 209.352 41.5195 216.01 43.9898 222.548C45.0446 225.34 46.1577 228.105 47.3291 230.844H36.8391V272.218H68.886V230.835H51.7611C50.3013 227.645 48.9026 224.419 47.5914 221.158C45.4497 215.8 43.509 210.371 41.8131 204.855C42.0998 204.941 42.3918 205.008 42.6873 205.056C43.0758 205.133 43.4737 205.151 43.8674 205.109L43.4129 202.233H43.3517H43.1069C42.9496 202.233 42.7398 202.154 42.5562 202.128C42.1545 202.014 41.7628 201.868 41.3848 201.691L40.9302 201.481C42.6149 200.893 44.1788 200.005 45.5458 198.858C48.5879 196.236 47.7225 192.652 44.8989 192.346C42.5999 192.092 41.3061 194.033 40.5281 196.332C40.2921 196.988 40.0998 197.669 39.9249 198.334C39.7676 197.722 39.5928 197.11 39.4442 196.498C38.9808 194.689 38.57 192.862 38.1504 191.035C39.977 190.453 41.6725 189.521 43.1419 188.29C46.184 185.667 45.3185 182.092 42.495 181.786C40.1959 181.532 38.9022 183.473 38.1242 185.772C37.8859 186.44 37.6817 187.12 37.5122 187.809C37.25 186.471 36.9878 185.143 36.7605 183.805C36.5856 182.809 36.437 181.821 36.2884 180.824C36.2272 179.408 36.2097 177.992 36.2272 176.567C36.2272 175.789 36.2272 175.011 36.2972 174.224C38.0096 174.773 39.8078 175.004 41.6033 174.906C45.5808 174.644 47.0581 171.235 44.9776 169.303C43.2817 167.721 41.0876 168.507 39.0508 169.854C38.1359 170.472 37.2601 171.146 36.4283 171.873C36.6702 168.546 37.1729 165.243 37.9318 161.995C38.3849 160.082 38.9453 158.197 39.6102 156.348C41.4374 156.981 43.3704 157.251 45.3011 157.143C49.2785 156.89 50.7558 153.48 48.6753 151.54C46.9795 149.966 44.7853 150.744 42.7485 152.099C42.0252 152.587 41.3278 153.112 40.6592 153.673C41.424 151.863 42.318 150.11 43.3342 148.428C45.3681 145.047 47.9096 141.998 50.8695 139.389C52.3901 140.798 54.1886 141.872 56.1495 142.545C59.9346 143.786 62.5746 141.163 61.3944 138.593C60.4154 136.504 58.0813 136.408 55.6949 136.906C54.7868 137.102 53.8908 137.35 53.0112 137.649L53.0636 137.597C56.3254 135.051 59.8406 132.848 63.5536 131.023C64.8593 132.742 66.5239 134.156 68.4315 135.167C71.9718 136.994 74.9965 134.826 74.2097 132.098C73.5716 129.878 71.29 129.415 68.8423 129.476C67.8876 129.531 66.9364 129.636 65.9925 129.791C69.9263 127.929 73.9562 126.171 77.8287 124.117L77.9074 124.073C79.6469 125.571 81.7078 126.648 83.9304 127.22C87.803 128.182 90.2419 125.367 88.8432 122.893C87.6981 120.883 85.3466 120.97 83.0213 121.635C82.3657 121.827 81.71 122.063 81.0806 122.308C83.6691 120.8 86.1783 119.16 88.5985 117.395L88.8083 117.613C88.8035 117.582 88.8035 117.549 88.8083 117.517C90.5602 119.03 92.6355 120.122 94.875 120.708C98.7475 121.661 101.178 118.855 99.779 116.381C98.6514 114.396 96.3261 114.484 93.9746 115.157ZM32.8529 194.365C32.0662 193.43 31.3144 192.468 30.5714 191.489C30.755 191.332 30.9473 191.157 31.1396 190.965C32.2289 191.305 33.3566 191.508 34.4964 191.568C34.4964 191.629 34.4964 191.69 34.4964 191.751L35.0296 191.638C35.3006 193.019 35.5978 194.391 35.9038 195.764C35.5465 195.301 35.0822 194.932 34.5508 194.688C34.0194 194.445 33.4367 194.334 32.8529 194.365V194.365ZM35.7115 161.453C35.4405 162.476 35.2044 163.516 34.9947 164.556C34.9552 164.49 34.9082 164.428 34.8548 164.373C34.8548 162.24 34.8897 160.112 34.9597 157.991C35.0209 156.505 35.1258 155.028 35.2569 153.542C35.9724 154.278 36.7635 154.938 37.6171 155.508C36.8653 157.451 36.229 159.436 35.7115 161.453V161.453ZM39.2955 151.662C39.2955 151.278 39.383 150.884 39.4092 150.5C39.4092 150.298 39.4092 150.106 39.4092 149.914C39.7239 149.818 40.0386 149.704 40.362 149.573C39.9949 150.263 39.6365 150.954 39.2955 151.662ZM43.8499 144.267C43.6948 143.923 43.4727 143.614 43.1965 143.357C42.9203 143.1 42.5956 142.901 42.2415 142.772C40.091 141.898 38.334 143.471 36.944 145.482L36.8829 145.578H36.743C36.5964 145.545 36.4472 145.524 36.2972 145.517C36.2972 145.394 36.2972 145.272 36.3584 145.15C36.913 141.996 37.6574 138.878 38.5875 135.814C40.5943 136.067 42.6315 135.909 44.5755 135.35C45.7644 135.045 46.8057 134.326 47.5127 133.322C47.9012 135.082 48.6319 136.748 49.6631 138.226C47.5189 140.04 45.5705 142.073 43.8499 144.293V144.267Z" fill="white" stroke="url(#paint5_linear)" stroke-width="2" mask="url(#path-4-inside-2)"/>
</g>
<path d="M342.053 273.733C342.053 273.733 342.051 273.734 342.046 273.738C342.05 273.734 342.053 273.732 342.053 273.733ZM340.202 273.688C340.735 273.78 341.158 273.871 341.473 273.959C341.158 274.047 340.735 274.138 340.201 274.231C338.795 274.474 336.706 274.711 333.996 274.938C328.582 275.391 320.74 275.799 311.04 276.142C291.644 276.828 264.844 277.252 235.24 277.252C205.636 277.252 178.833 276.828 159.434 276.142C149.734 275.799 141.891 275.391 136.476 274.938C133.766 274.711 131.676 274.474 130.27 274.231C129.734 274.138 129.31 274.046 128.994 273.958C129.31 273.87 129.734 273.778 130.27 273.686C131.676 273.443 133.765 273.206 136.474 272.98C141.889 272.528 149.731 272.12 159.431 271.778C178.829 271.095 205.631 270.673 235.24 270.673C264.848 270.673 291.648 271.097 311.044 271.782C320.743 272.124 328.584 272.532 333.998 272.983C336.707 273.21 338.795 273.446 340.202 273.688ZM128.418 273.732C128.418 273.732 128.42 273.734 128.424 273.738C128.419 273.734 128.417 273.732 128.418 273.732ZM128.418 274.184C128.417 274.183 128.419 274.182 128.424 274.178C128.42 274.182 128.418 274.184 128.418 274.184ZM342.047 274.179C342.052 274.183 342.054 274.185 342.054 274.185C342.054 274.185 342.051 274.183 342.047 274.179Z" fill="url(#paint6_linear)" stroke="url(#paint7_linear)"/>
<path opacity="0.3" d="M342.053 273.733C342.053 273.733 342.051 273.734 342.046 273.738C342.05 273.734 342.053 273.732 342.053 273.733ZM340.202 273.688C340.735 273.78 341.158 273.871 341.473 273.959C341.158 274.047 340.735 274.138 340.201 274.231C338.795 274.474 336.706 274.711 333.996 274.938C328.582 275.391 320.74 275.799 311.04 276.142C291.644 276.828 264.844 277.252 235.24 277.252C205.636 277.252 178.833 276.828 159.434 276.142C149.734 275.799 141.891 275.391 136.476 274.938C133.766 274.711 131.676 274.474 130.27 274.231C129.734 274.138 129.31 274.046 128.994 273.958C129.31 273.87 129.734 273.778 130.27 273.686C131.676 273.443 133.765 273.206 136.474 272.98C141.889 272.528 149.731 272.12 159.431 271.778C178.829 271.095 205.631 270.673 235.24 270.673C264.848 270.673 291.648 271.097 311.044 271.782C320.743 272.124 328.584 272.532 333.998 272.983C336.707 273.21 338.795 273.446 340.202 273.688ZM128.418 273.732C128.418 273.732 128.42 273.734 128.424 273.738C128.419 273.734 128.417 273.732 128.418 273.732ZM128.418 274.184C128.417 274.183 128.419 274.182 128.424 274.178C128.42 274.182 128.418 274.184 128.418 274.184ZM342.047 274.179C342.052 274.183 342.054 274.185 342.054 274.185C342.054 274.185 342.051 274.183 342.047 274.179Z" fill="#2E353A" stroke="url(#paint8_linear)"/>
<path d="M227.521 239.918C227.521 239.918 232.766 262.332 230.467 266.021C227.503 270.837 195.902 273.739 195.902 273.739H265.582C265.582 273.739 274.324 271.292 271.701 264.272C269.664 258.835 259.917 239.918 259.917 239.918H227.521Z" fill="white" stroke="url(#paint9_linear)" stroke-linecap="round" stroke-linejoin="round"/>
<path d="M226 239.918C226 239.918 231.56 262.524 228.946 266.021C226.332 269.517 195.902 272.183 195.902 272.183H265.905C265.905 272.183 271.797 269.806 270.163 264.272C268.528 258.739 258.388 239.918 258.388 239.918H226Z" fill="white" stroke="url(#paint10_linear)" stroke-linecap="round" stroke-linejoin="round"/>
<g style="mix-blend-mode:multiply">
<path d="M268.226 260.573H230.13C229.917 256.703 229.046 251.633 228.218 247.486C227.785 245.322 227.364 243.401 227.05 242.021C226.896 241.346 226.768 240.8 226.678 240.418H258.089C258.137 240.509 258.198 240.622 258.27 240.757C258.478 241.145 258.778 241.708 259.149 242.408C259.89 243.807 260.913 245.749 262.035 247.925C264.146 252.014 266.605 256.914 268.226 260.573Z" fill="url(#paint11_linear)"/>
<path d="M268.226 260.573H230.13C229.917 256.703 229.046 251.633 228.218 247.486C227.785 245.322 227.364 243.401 227.05 242.021C226.896 241.346 226.768 240.8 226.678 240.418H258.089C258.137 240.509 258.198 240.622 258.27 240.757C258.478 241.145 258.778 241.708 259.149 242.408C259.89 243.807 260.913 245.749 262.035 247.925C264.146 252.014 266.605 256.914 268.226 260.573Z" stroke="url(#paint12_linear)"/>
</g>
<path d="M265.582 272.297H195.902V273.739H265.582V272.297Z" fill="white" stroke="url(#paint13_linear)" stroke-linecap="round" stroke-linejoin="round"/>
<path d="M342.272 84.439H146.853C142.759 84.439 139.44 87.7578 139.44 91.8519V234.717C139.44 238.811 142.759 242.13 146.853 242.13H342.272C346.366 242.13 349.685 238.811 349.685 234.717V91.8519C349.685 87.7578 346.366 84.439 342.272 84.439Z" fill="url(#paint14_linear)" stroke="url(#paint15_linear)" stroke-linecap="round" stroke-linejoin="round"/>
<path d="M337.316 84.439H141.896C137.802 84.439 134.483 87.7578 134.483 91.8519V234.717C134.483 238.811 137.802 242.13 141.896 242.13H337.316C341.41 242.13 344.729 238.811 344.729 234.717V91.8519C344.729 87.7578 341.41 84.439 337.316 84.439Z" fill="#2E353A" stroke="url(#paint16_linear)" stroke-linecap="round" stroke-linejoin="round"/>
<path d="M134.483 217.609H344.729V234.699C344.729 236.665 343.948 238.551 342.558 239.941C341.167 241.331 339.282 242.112 337.316 242.112H141.896C139.93 242.112 138.045 241.331 136.655 239.941C135.264 238.551 134.483 236.665 134.483 234.699V217.609Z" fill="white" stroke="url(#paint17_linear)" stroke-linecap="round" stroke-linejoin="round"/>
<path d="M334.16 94.2471H145.061V205.651H334.16V94.2471Z" fill="url(#paint18_linear)" stroke="url(#paint19_linear)" stroke-linecap="round" stroke-linejoin="round"/>
<path d="M243.483 229.865C243.483 229.097 243.255 228.346 242.829 227.708C242.402 227.069 241.795 226.572 241.085 226.278C240.376 225.985 239.595 225.909 238.842 226.059C238.088 226.21 237.397 226.58 236.854 227.124C236.312 227.667 235.943 228.36 235.794 229.113C235.645 229.867 235.724 230.647 236.019 231.357C236.314 232.066 236.813 232.671 237.452 233.097C238.091 233.522 238.843 233.748 239.611 233.746C240.12 233.746 240.624 233.646 241.095 233.451C241.565 233.256 241.992 232.97 242.352 232.609C242.712 232.249 242.997 231.821 243.191 231.35C243.385 230.879 243.484 230.374 243.483 229.865V229.865Z" fill="#2E353A" stroke="url(#paint20_linear)" stroke-linecap="round" stroke-linejoin="round"/>
<path d="M332.386 102.097H146.547V111.862H332.386V102.097Z" fill="#2E353A" stroke="url(#paint21_linear)" stroke-linecap="round" stroke-linejoin="round"/>
<path d="M177.204 111.87L174.983 105.838H146.547V111.87V119.869V200.904H332.386V111.87H177.204Z" fill="white" stroke="url(#paint22_linear)" stroke-linecap="round" stroke-linejoin="round"/>
<path d="M279.971 274.596C279.971 274.596 281.168 277.49 287.768 278.495C294.368 279.5 338.881 274.29 338.881 274.29C338.881 274.29 341.678 273.591 341.879 272.192C342.08 270.794 334.676 266.694 320.978 264.989C309.057 263.621 296.982 264.99 285.67 268.993C277.173 272.096 279.971 274.596 279.971 274.596Z" fill="white" stroke="url(#paint23_linear)" stroke-linecap="round" stroke-linejoin="round"/>
<g style="mix-blend-mode:multiply">
<path d="M340.661 272.928C340.098 273.33 339.464 273.625 338.79 273.797L338.695 273.808L338.322 273.851C337.995 273.889 337.513 273.945 336.899 274.015C335.669 274.155 333.905 274.354 331.768 274.59C327.493 275.062 321.725 275.681 315.751 276.268C309.776 276.856 303.599 277.412 298.505 277.759C295.958 277.933 293.686 278.054 291.847 278.1C289.996 278.147 288.619 278.118 287.843 278L287.843 278L287.836 277.999C287.623 277.97 287.41 277.937 287.198 277.9C287.504 277.893 287.822 277.884 288.15 277.871C290.779 277.77 294.083 277.454 296.655 276.573C297.398 276.318 298.227 276.027 299.118 275.713C301.243 274.967 303.722 274.096 306.235 273.3C309.809 272.169 313.397 271.208 316.073 270.977C321.536 270.506 328.244 270.192 331.197 270.192C332.351 270.192 334.174 270.469 336.066 271.006C337.715 271.473 339.373 272.124 340.661 272.928Z" fill="url(#paint24_linear)"/>
<path d="M340.661 272.928C340.098 273.33 339.464 273.625 338.79 273.797L338.695 273.808L338.322 273.851C337.995 273.889 337.513 273.945 336.899 274.015C335.669 274.155 333.905 274.354 331.768 274.59C327.493 275.062 321.725 275.681 315.751 276.268C309.776 276.856 303.599 277.412 298.505 277.759C295.958 277.933 293.686 278.054 291.847 278.1C289.996 278.147 288.619 278.118 287.843 278L287.843 278L287.836 277.999C287.623 277.97 287.41 277.937 287.198 277.9C287.504 277.893 287.822 277.884 288.15 277.871C290.779 277.77 294.083 277.454 296.655 276.573C297.398 276.318 298.227 276.027 299.118 275.713C301.243 274.967 303.722 274.096 306.235 273.3C309.809 272.169 313.397 271.208 316.073 270.977C321.536 270.506 328.244 270.192 331.197 270.192C332.351 270.192 334.174 270.469 336.066 271.006C337.715 271.473 339.373 272.124 340.661 272.928Z" stroke="url(#paint25_linear)"/>
</g>
<path d="M339.86 271.921C340.249 272.126 340.62 272.363 340.97 272.629" stroke="url(#paint26_linear)" stroke-linecap="round" stroke-linejoin="round"/>
<path d="M284.875 277.796C289.513 277.933 294.133 277.152 298.468 275.497C307.663 271.877 317.435 269.943 327.315 269.788C333.058 269.745 336.573 270.531 338.679 271.327" stroke="url(#paint27_linear)" stroke-linecap="round" stroke-linejoin="round"/>
<path d="M321.808 158.323H263.869V193.587H321.537" stroke="url(#paint28_linear)" stroke-width="0.5" stroke-linecap="round" stroke-linejoin="round"/>
<path d="M264.131 168.376H322.07" stroke="url(#paint29_linear)" stroke-width="0.5" stroke-linecap="round" stroke-linejoin="round"/>
<path d="M264.131 178.403H322.07" stroke="url(#paint30_linear)" stroke-width="0.5" stroke-linecap="round" stroke-linejoin="round"/>
<path d="M264.131 188.43H322.07" stroke="url(#paint31_linear)" stroke-width="0.5" stroke-linecap="round" stroke-linejoin="round"/>
<path d="M262.278 158.56H259.9" stroke="url(#paint32_linear)" stroke-width="0.5" stroke-linecap="round" stroke-linejoin="round"/>
<path d="M262.278 163.525H259.9" stroke="url(#paint33_linear)" stroke-width="0.5" stroke-linecap="round" stroke-linejoin="round"/>
<path d="M262.278 168.499H259.9" stroke="url(#paint34_linear)" stroke-width="0.5" stroke-linecap="round" stroke-linejoin="round"/>
<path d="M262.278 173.473H259.9" stroke="url(#paint35_linear)" stroke-width="0.5" stroke-linecap="round" stroke-linejoin="round"/>
<path d="M262.278 178.438H259.9" stroke="url(#paint36_linear)" stroke-width="0.5" stroke-linecap="round" stroke-linejoin="round"/>
<path d="M262.278 183.412H259.9" stroke="url(#paint37_linear)" stroke-width="0.5" stroke-linecap="round" stroke-linejoin="round"/>
<path d="M262.278 188.386H259.9" stroke="url(#paint38_linear)" stroke-width="0.5" stroke-linecap="round" stroke-linejoin="round"/>
<path d="M262.278 193.351H259.9" stroke="url(#paint39_linear)" stroke-width="0.5" stroke-linecap="round" stroke-linejoin="round"/>
<path d="M268.642 172.441H265.976V193.448H268.642V172.441Z" fill="#2E353A" stroke="url(#paint40_linear)" stroke-linecap="round" stroke-linejoin="round"/>
<path d="M273.371 162.388H270.705V193.447H273.371V162.388Z" fill="url(#paint41_linear)" stroke="url(#paint42_linear)" stroke-linecap="round" stroke-linejoin="round"/>
<path d="M278.109 172.441H275.443V193.448H278.109V172.441Z" fill="white" stroke="url(#paint43_linear)" stroke-linecap="round" stroke-linejoin="round"/>
<path d="M288.756 165.64H286.09V193.447H288.756V165.64Z" fill="#2E353A" stroke="url(#paint44_linear)" stroke-linecap="round" stroke-linejoin="round"/>
<path d="M293.486 169.784H290.819V193.447H293.486V169.784Z" fill="url(#paint45_linear)" stroke="url(#paint46_linear)" stroke-linecap="round" stroke-linejoin="round"/>
<path d="M298.223 181.611H295.557V193.448H298.223V181.611Z" fill="white" stroke="url(#paint47_linear)" stroke-linecap="round" stroke-linejoin="round"/>
<path d="M308.871 172.441H306.205V193.448H308.871V172.441Z" fill="#2E353A" stroke="url(#paint48_linear)" stroke-linecap="round" stroke-linejoin="round"/>
<path d="M313.6 162.388H310.934V193.447H313.6V162.388Z" fill="url(#paint49_linear)" stroke="url(#paint50_linear)" stroke-linecap="round" stroke-linejoin="round"/>
<path d="M318.338 172.441H315.672V193.448H318.338V172.441Z" fill="white" stroke="url(#paint51_linear)" stroke-linecap="round" stroke-linejoin="round"/>
<path opacity="0.4" d="M247.05 125.131L276.614 147.257V116.364L247.05 1V125.131Z" fill="url(#paint52_linear)" stroke="url(#paint53_linear)" stroke-linecap="round" stroke-linejoin="round"/>
<path opacity="0.4" d="M276.614 147.256H180.456L24.4263 125.131H247.05L276.614 147.256Z" fill="url(#paint54_linear)" stroke="url(#paint55_linear)" stroke-linecap="round" stroke-linejoin="round"/>
<path d="M247.05 1H24.4263V112.893H247.05V1Z" fill="black" stroke="url(#paint56_linear)" stroke-linecap="round" stroke-linejoin="round"/>
<path d="M33.0103 6.8042H75.5559" stroke="url(#paint57_linear)" stroke-width="2" stroke-linecap="round" stroke-linejoin="round"/>
<path d="M238.474 8.69976L238.473 8.69977C237.994 8.7012 237.525 8.56051 237.127 8.2955C236.728 8.03049 236.416 7.65309 236.232 7.21107C236.048 6.76906 235.999 6.28231 236.092 5.81245C236.184 5.34259 236.414 4.91076 236.752 4.57164C237.09 4.23251 237.521 4.00133 237.991 3.90738C238.46 3.81343 238.947 3.86092 239.39 4.04385C239.832 4.22678 240.211 4.53691 240.477 4.93498C240.743 5.33306 240.885 5.80118 240.885 6.28006L241.385 6.28006L240.885 6.28156C240.886 6.59877 240.825 6.91306 240.704 7.20642C240.583 7.49976 240.406 7.7664 240.182 7.99105C239.958 8.21569 239.692 8.39393 239.399 8.51555C239.106 8.63717 238.792 8.69977 238.474 8.69976Z" fill="white" stroke="url(#paint58_linear)"/>
<path d="M228.001 4.94417C228.267 5.33969 228.409 5.80512 228.411 6.28166C228.412 6.59888 228.35 6.91317 228.229 7.20652C228.109 7.49989 227.931 7.76652 227.707 7.99115C227.483 8.2158 227.217 8.39404 226.924 8.51566C226.631 8.63727 226.317 8.69987 226 8.69987C225.523 8.69987 225.057 8.55865 224.661 8.29405C224.265 8.02944 223.956 7.65332 223.773 7.2132C223.59 6.77308 223.542 6.28869 223.635 5.8212C223.727 5.35371 223.956 4.92411 224.292 4.58665C224.629 4.24918 225.058 4.01899 225.525 3.92514C225.992 3.8313 226.477 3.87801 226.917 4.05938C227.358 4.24075 227.735 4.54865 228.001 4.94417Z" fill="white" stroke="url(#paint59_linear)"/>
<path d="M247.05 13.2383H24.4263V125.131H247.05V13.2383Z" fill="white" stroke="url(#paint60_linear)" stroke-linecap="round" stroke-linejoin="round"/>
<path d="M236.56 24.8999H40.1611V114.642H235.974" stroke="url(#paint61_linear)" stroke-width="0.5" stroke-linecap="round" stroke-linejoin="round"/>
<path d="M40.7471 50.4775H237.137" stroke="url(#paint62_linear)" stroke-width="0.5" stroke-linecap="round" stroke-linejoin="round"/>
<path d="M40.7471 76.0034H237.137" stroke="url(#paint63_linear)" stroke-width="0.5" stroke-linecap="round" stroke-linejoin="round"/>
<path d="M40.7471 101.529H237.137" stroke="url(#paint64_linear)" stroke-width="0.5" stroke-linecap="round" stroke-linejoin="round"/>
<path d="M36.6644 25.4766H31.4194" stroke="url(#paint65_linear)" stroke-width="0.5" stroke-linecap="round" stroke-linejoin="round"/>
<path d="M36.6644 38.1343H31.4194" stroke="url(#paint66_linear)" stroke-width="0.5" stroke-linecap="round" stroke-linejoin="round"/>
<path d="M36.6644 50.7925H31.4194" stroke="url(#paint67_linear)" stroke-width="0.5" stroke-linecap="round" stroke-linejoin="round"/>
<path d="M36.6644 63.4414H31.4194" stroke="url(#paint68_linear)" stroke-width="0.5" stroke-linecap="round" stroke-linejoin="round"/>
<path d="M36.6644 76.0996H31.4194" stroke="url(#paint69_linear)" stroke-width="0.5" stroke-linecap="round" stroke-linejoin="round"/>
<path d="M36.6644 88.7485H31.4194" stroke="url(#paint70_linear)" stroke-width="0.5" stroke-linecap="round" stroke-linejoin="round"/>
<path d="M36.6644 101.407H31.4194" stroke="url(#paint71_linear)" stroke-width="0.5" stroke-linecap="round" stroke-linejoin="round"/>
<path d="M36.6644 114.064H31.4194" stroke="url(#paint72_linear)" stroke-width="0.5" stroke-linecap="round" stroke-linejoin="round"/>
<path d="M41.6211 50.9499C41.6211 50.9499 58.8072 51.7017 62.3038 49.3764C65.8005 47.0511 70.4685 42.3831 73.3795 42.96C76.5356 43.7764 79.6486 44.7508 82.7068 45.8797C82.7068 45.8797 89.7002 41.7974 91.4485 41.7974C93.1968 41.7974 99.0188 44.7083 103.687 44.7083H117.088L122.333 48.7907L132.237 45.8797L143.313 50.539L150.306 49.3764L160.21 54.6214H164.878L174.197 58.695H186.435L193.429 62.7773L204.504 63.363L213.246 72.1047L220.239 70.9333L227.818 73.853L234.812 73.2673" stroke="url(#paint73_linear)" stroke-width="3" stroke-linecap="round" stroke-linejoin="round"/>
<path d="M41.3237 54.0356H62.8894L75.7134 55.7839L86.2034 56.3696L95.522 62.7772L108.932 58.6949L125.244 64.5256L143.313 61.6146L149.72 64.5256L164.293 48.2049H178.865L187.607 38.8863L196.925 42.9599L202.756 37.7149L210.335 41.7973L214.994 35.9666L217.905 36.5523L225.484 34.2183L228.981 36.5523L234.811 35.3896" stroke="url(#paint74_linear)" stroke-width="3" stroke-linecap="round" stroke-linejoin="round"/>
<path d="M41.9097 111.145H64.638L82.1213 101.241L94.9453 107.071H104.264L108.932 108.82L119.422 103.575L133.409 94.8331L138.068 101.241L146.809 100.078L151.469 101.241L163.13 101.826L175.945 91.3364L182.362 98.9067L190.518 98.3297L195.177 101.241L202.17 99.4924L211.498 102.989L224.322 101.241L231.315 102.403L235.389 101.241" stroke="url(#paint75_linear)" stroke-width="3" stroke-linecap="round" stroke-linejoin="round"/>
<path opacity="0.4" d="M181.042 133.296L232.906 155.412V194.461L181.042 251.011V133.296Z" fill="url(#paint76_linear)" stroke="url(#paint77_linear)" stroke-linecap="round" stroke-linejoin="round"/>
<path d="M181.042 133.296H66.3862V245.189H181.042V133.296Z" fill="black" stroke="url(#paint78_linear)" stroke-linecap="round" stroke-linejoin="round"/>
<path d="M181.042 145.535H66.3862V251.02H181.042V145.535Z" fill="white" stroke="url(#paint79_linear)" stroke-linecap="round" stroke-linejoin="round"/>
<path d="M122.892 197.845L77.4357 197.801C77.3582 191.689 78.5541 185.628 80.947 180.004C83.34 174.38 86.8777 169.316 91.3349 165.133L122.892 197.845Z" fill="black" stroke="url(#paint80_linear)" stroke-miterlimit="10"/>
<path d="M122.892 197.845L111.091 241.719C101.386 239.205 92.8027 233.515 86.708 225.555C80.6132 217.596 77.3582 207.825 77.4619 197.801L122.892 197.845Z" fill="black" stroke="url(#paint81_linear)" stroke-miterlimit="10"/>
<path d="M124.929 199.121L146.302 159.023C156.124 164.293 163.666 172.989 167.496 183.456C171.326 193.923 171.177 205.433 167.077 215.798C162.977 226.162 155.212 234.659 145.257 239.674C135.303 244.688 123.853 245.87 113.084 242.995L124.929 199.121Z" fill="url(#paint82_linear)" stroke="url(#paint83_linear)" stroke-miterlimit="10"/>
<path d="M122.892 197.844L120.558 152.466C128.799 151.916 137.026 153.736 144.265 157.711L122.892 197.844Z" fill="black" stroke="url(#paint84_linear)" stroke-miterlimit="10"/>
<path d="M122.892 197.845L91.3608 165.133C99.1196 157.339 109.566 152.807 120.558 152.467L122.892 197.845Z" fill="black" stroke="url(#paint85_linear)" stroke-miterlimit="10"/>
<path d="M175.467 138.338C175.732 138.735 175.874 139.201 175.874 139.678C175.874 139.994 175.811 140.308 175.69 140.6C175.569 140.893 175.391 141.159 175.168 141.382C174.944 141.606 174.678 141.784 174.385 141.905C174.093 142.026 173.779 142.089 173.463 142.089C172.986 142.089 172.52 141.947 172.123 141.682C171.727 141.417 171.418 141.041 171.235 140.6C171.053 140.16 171.005 139.675 171.098 139.207C171.191 138.74 171.421 138.31 171.758 137.973C172.095 137.636 172.525 137.406 172.992 137.313C173.46 137.22 173.945 137.268 174.385 137.45C174.826 137.633 175.202 137.942 175.467 138.338Z" fill="white" stroke="url(#paint86_linear)"/>
<path d="M163.004 138.33C163.269 138.729 163.409 139.197 163.408 139.676C163.406 140.316 163.15 140.93 162.697 141.382C162.243 141.835 161.629 142.088 160.988 142.088C160.509 142.088 160.041 141.946 159.643 141.68C159.245 141.414 158.935 141.036 158.752 140.593C158.569 140.15 158.521 139.664 158.615 139.194C158.709 138.724 158.941 138.293 159.28 137.955C159.619 137.617 160.051 137.387 160.52 137.295C160.99 137.202 161.477 137.251 161.919 137.435C162.361 137.62 162.739 137.931 163.004 138.33Z" fill="white" stroke="url(#paint87_linear)"/>
<g style="mix-blend-mode:multiply" opacity="0.73">
<path d="M181.042 145.535H66.3862V159.058H181.042V145.535Z" fill="url(#paint88_linear)"/>
<path d="M181.042 145.535H66.3862V159.058H181.042V145.535Z" stroke="url(#paint89_linear)" stroke-linecap="round" stroke-linejoin="round"/>
</g>
<defs>
<linearGradient id="paint0_linear" x1="179.538" y1="279.159" x2="179.538" y2="265.172" gradientUnits="userSpaceOnUse">
<stop stop-color="#FF5E3A"/>
<stop offset="1" stop-color="#FF9500"/>
</linearGradient>
<linearGradient id="paint1_linear" x1="179.538" y1="279.159" x2="179.538" y2="265.172" gradientUnits="userSpaceOnUse">
<stop stop-color="#FF5E3A"/>
<stop offset="1" stop-color="#FF9500"/>
</linearGradient>
<linearGradient id="paint2_linear" x1="179.538" y1="279.159" x2="179.538" y2="265.172" gradientUnits="userSpaceOnUse">
<stop stop-color="#FF5E3A"/>
<stop offset="1" stop-color="#FF9500"/>
</linearGradient>
<linearGradient id="paint3_linear" x1="51.3975" y1="272.218" x2="51.3975" y2="65.5132" gradientUnits="userSpaceOnUse">
<stop stop-color="#FF5E3A"/>
<stop offset="1" stop-color="#FF9500"/>
</linearGradient>
<linearGradient id="paint4_linear" x1="51.3975" y1="272.218" x2="51.3975" y2="65.5132" gradientUnits="userSpaceOnUse">
<stop stop-color="#FF5E3A"/>
<stop offset="1" stop-color="#FF9500"/>
</linearGradient>
<linearGradient id="paint5_linear" x1="51.3975" y1="272.218" x2="51.3975" y2="65.5132" gradientUnits="userSpaceOnUse">
<stop stop-color="#FF5E3A"/>
<stop offset="1" stop-color="#FF9500"/>
</linearGradient>
<linearGradient id="paint6_linear" x1="235.235" y1="277.752" x2="235.235" y2="270.173" gradientUnits="userSpaceOnUse">
<stop stop-color="#FF5E3A"/>
<stop offset="1" stop-color="#FF9500"/>
</linearGradient>
<linearGradient id="paint7_linear" x1="235.235" y1="277.752" x2="235.235" y2="270.173" gradientUnits="userSpaceOnUse">
<stop stop-color="#FF5E3A"/>
<stop offset="1" stop-color="#FF9500"/>
</linearGradient>
<linearGradient id="paint8_linear" x1="235.235" y1="277.752" x2="235.235" y2="270.173" gradientUnits="userSpaceOnUse">
<stop stop-color="#FF5E3A"/>
<stop offset="1" stop-color="#FF9500"/>
</linearGradient>
<linearGradient id="paint9_linear" x1="234.047" y1="273.739" x2="234.047" y2="239.918" gradientUnits="userSpaceOnUse">
<stop stop-color="#FF5E3A"/>
<stop offset="1" stop-color="#FF9500"/>
</linearGradient>
<linearGradient id="paint10_linear" x1="233.176" y1="272.183" x2="233.176" y2="239.918" gradientUnits="userSpaceOnUse">
<stop stop-color="#FF5E3A"/>
<stop offset="1" stop-color="#FF9500"/>
</linearGradient>
<linearGradient id="paint11_linear" x1="247.517" y1="261.073" x2="247.517" y2="239.918" gradientUnits="userSpaceOnUse">
<stop stop-color="#FF5E3A"/>
<stop offset="1" stop-color="#FF9500"/>
</linearGradient>
<linearGradient id="paint12_linear" x1="247.517" y1="261.073" x2="247.517" y2="239.918" gradientUnits="userSpaceOnUse">
<stop stop-color="#FF5E3A"/>
<stop offset="1" stop-color="#FF9500"/>
</linearGradient>
<linearGradient id="paint13_linear" x1="230.742" y1="273.739" x2="230.742" y2="272.297" gradientUnits="userSpaceOnUse">
<stop stop-color="#FF5E3A"/>
<stop offset="1" stop-color="#FF9500"/>
</linearGradient>
<linearGradient id="paint14_linear" x1="244.563" y1="242.13" x2="244.563" y2="84.439" gradientUnits="userSpaceOnUse">
<stop stop-color="#FF5E3A"/>
<stop offset="1" stop-color="#FF9500"/>
</linearGradient>
<linearGradient id="paint15_linear" x1="244.563" y1="242.13" x2="244.563" y2="84.439" gradientUnits="userSpaceOnUse">
<stop stop-color="#FF5E3A"/>
<stop offset="1" stop-color="#FF9500"/>
</linearGradient>
<linearGradient id="paint16_linear" x1="239.606" y1="242.13" x2="239.606" y2="84.439" gradientUnits="userSpaceOnUse">
<stop stop-color="#FF5E3A"/>
<stop offset="1" stop-color="#FF9500"/>
</linearGradient>
<linearGradient id="paint17_linear" x1="239.606" y1="242.112" x2="239.606" y2="217.609" gradientUnits="userSpaceOnUse">
<stop stop-color="#FF5E3A"/>
<stop offset="1" stop-color="#FF9500"/>
</linearGradient>
<linearGradient id="paint18_linear" x1="239.61" y1="205.651" x2="239.61" y2="94.2471" gradientUnits="userSpaceOnUse">
<stop stop-color="#FF5E3A"/>
<stop offset="1" stop-color="#FF9500"/>
</linearGradient>
<linearGradient id="paint19_linear" x1="239.61" y1="205.651" x2="239.61" y2="94.2471" gradientUnits="userSpaceOnUse">
<stop stop-color="#FF5E3A"/>
<stop offset="1" stop-color="#FF9500"/>
</linearGradient>
<linearGradient id="paint20_linear" x1="239.602" y1="233.746" x2="239.602" y2="225.984" gradientUnits="userSpaceOnUse">
<stop stop-color="#FF5E3A"/>
<stop offset="1" stop-color="#FF9500"/>
</linearGradient>
<linearGradient id="paint21_linear" x1="239.466" y1="111.862" x2="239.466" y2="102.097" gradientUnits="userSpaceOnUse">
<stop stop-color="#FF5E3A"/>
<stop offset="1" stop-color="#FF9500"/>
</linearGradient>
<linearGradient id="paint22_linear" x1="239.466" y1="200.904" x2="239.466" y2="105.838" gradientUnits="userSpaceOnUse">
<stop stop-color="#FF5E3A"/>
<stop offset="1" stop-color="#FF9500"/>
</linearGradient>
<linearGradient id="paint23_linear" x1="310.706" y1="278.624" x2="310.706" y2="264.475" gradientUnits="userSpaceOnUse">
<stop stop-color="#FF5E3A"/>
<stop offset="1" stop-color="#FF9500"/>
</linearGradient>
<linearGradient id="paint24_linear" x1="312.512" y1="278.622" x2="312.512" y2="269.692" gradientUnits="userSpaceOnUse">
<stop stop-color="#FF5E3A"/>
<stop offset="1" stop-color="#FF9500"/>
</linearGradient>
<linearGradient id="paint25_linear" x1="312.512" y1="278.622" x2="312.512" y2="269.692" gradientUnits="userSpaceOnUse">
<stop stop-color="#FF5E3A"/>
<stop offset="1" stop-color="#FF9500"/>
</linearGradient>
<linearGradient id="paint26_linear" x1="340.415" y1="272.629" x2="340.415" y2="271.921" gradientUnits="userSpaceOnUse">
<stop stop-color="#FF5E3A"/>
<stop offset="1" stop-color="#FF9500"/>
</linearGradient>
<linearGradient id="paint27_linear" x1="311.777" y1="277.811" x2="311.777" y2="269.787" gradientUnits="userSpaceOnUse">
<stop stop-color="#FF5E3A"/>
<stop offset="1" stop-color="#FF9500"/>
</linearGradient>
<linearGradient id="paint28_linear" x1="292.838" y1="193.587" x2="292.838" y2="158.323" gradientUnits="userSpaceOnUse">
<stop stop-color="#FF5E3A"/>
<stop offset="1" stop-color="#FF9500"/>
</linearGradient>
<linearGradient id="paint29_linear" x1="293.101" y1="169.376" x2="293.101" y2="168.376" gradientUnits="userSpaceOnUse">
<stop stop-color="#FF5E3A"/>
<stop offset="1" stop-color="#FF9500"/>
</linearGradient>
<linearGradient id="paint30_linear" x1="293.101" y1="179.403" x2="293.101" y2="178.403" gradientUnits="userSpaceOnUse">
<stop stop-color="#FF5E3A"/>
<stop offset="1" stop-color="#FF9500"/>
</linearGradient>
<linearGradient id="paint31_linear" x1="293.101" y1="189.43" x2="293.101" y2="188.43" gradientUnits="userSpaceOnUse">
<stop stop-color="#FF5E3A"/>
<stop offset="1" stop-color="#FF9500"/>
</linearGradient>
<linearGradient id="paint32_linear" x1="261.089" y1="159.56" x2="261.089" y2="158.56" gradientUnits="userSpaceOnUse">
<stop stop-color="#FF5E3A"/>
<stop offset="1" stop-color="#FF9500"/>
</linearGradient>
<linearGradient id="paint33_linear" x1="261.089" y1="164.525" x2="261.089" y2="163.525" gradientUnits="userSpaceOnUse">
<stop stop-color="#FF5E3A"/>
<stop offset="1" stop-color="#FF9500"/>
</linearGradient>
<linearGradient id="paint34_linear" x1="261.089" y1="169.499" x2="261.089" y2="168.499" gradientUnits="userSpaceOnUse">
<stop stop-color="#FF5E3A"/>
<stop offset="1" stop-color="#FF9500"/>
</linearGradient>
<linearGradient id="paint35_linear" x1="261.089" y1="174.473" x2="261.089" y2="173.473" gradientUnits="userSpaceOnUse">
<stop stop-color="#FF5E3A"/>
<stop offset="1" stop-color="#FF9500"/>
</linearGradient>
<linearGradient id="paint36_linear" x1="261.089" y1="179.438" x2="261.089" y2="178.438" gradientUnits="userSpaceOnUse">
<stop stop-color="#FF5E3A"/>
<stop offset="1" stop-color="#FF9500"/>
</linearGradient>
<linearGradient id="paint37_linear" x1="261.089" y1="184.412" x2="261.089" y2="183.412" gradientUnits="userSpaceOnUse">
<stop stop-color="#FF5E3A"/>
<stop offset="1" stop-color="#FF9500"/>
</linearGradient>
<linearGradient id="paint38_linear" x1="261.089" y1="189.386" x2="261.089" y2="188.386" gradientUnits="userSpaceOnUse">
<stop stop-color="#FF5E3A"/>
<stop offset="1" stop-color="#FF9500"/>
</linearGradient>
<linearGradient id="paint39_linear" x1="261.089" y1="194.351" x2="261.089" y2="193.351" gradientUnits="userSpaceOnUse">
<stop stop-color="#FF5E3A"/>
<stop offset="1" stop-color="#FF9500"/>
</linearGradient>
<linearGradient id="paint40_linear" x1="267.309" y1="193.448" x2="267.309" y2="172.441" gradientUnits="userSpaceOnUse">
<stop stop-color="#FF5E3A"/>
<stop offset="1" stop-color="#FF9500"/>
</linearGradient>
<linearGradient id="paint41_linear" x1="272.038" y1="193.447" x2="272.038" y2="162.388" gradientUnits="userSpaceOnUse">
<stop stop-color="#FF5E3A"/>
<stop offset="1" stop-color="#FF9500"/>
</linearGradient>
<linearGradient id="paint42_linear" x1="272.038" y1="193.447" x2="272.038" y2="162.388" gradientUnits="userSpaceOnUse">
<stop stop-color="#FF5E3A"/>
<stop offset="1" stop-color="#FF9500"/>
</linearGradient>
<linearGradient id="paint43_linear" x1="276.776" y1="193.448" x2="276.776" y2="172.441" gradientUnits="userSpaceOnUse">
<stop stop-color="#FF5E3A"/>
<stop offset="1" stop-color="#FF9500"/>
</linearGradient>
<linearGradient id="paint44_linear" x1="287.423" y1="193.447" x2="287.423" y2="165.64" gradientUnits="userSpaceOnUse">
<stop stop-color="#FF5E3A"/>
<stop offset="1" stop-color="#FF9500"/>
</linearGradient>
<linearGradient id="paint45_linear" x1="292.152" y1="193.447" x2="292.152" y2="169.784" gradientUnits="userSpaceOnUse">
<stop stop-color="#FF5E3A"/>
<stop offset="1" stop-color="#FF9500"/>
</linearGradient>
<linearGradient id="paint46_linear" x1="292.152" y1="193.447" x2="292.152" y2="169.784" gradientUnits="userSpaceOnUse">
<stop stop-color="#FF5E3A"/>
<stop offset="1" stop-color="#FF9500"/>
</linearGradient>
<linearGradient id="paint47_linear" x1="296.89" y1="193.448" x2="296.89" y2="181.611" gradientUnits="userSpaceOnUse">
<stop stop-color="#FF5E3A"/>
<stop offset="1" stop-color="#FF9500"/>
</linearGradient>
<linearGradient id="paint48_linear" x1="307.538" y1="193.448" x2="307.538" y2="172.441" gradientUnits="userSpaceOnUse">
<stop stop-color="#FF5E3A"/>
<stop offset="1" stop-color="#FF9500"/>
</linearGradient>
<linearGradient id="paint49_linear" x1="312.267" y1="193.447" x2="312.267" y2="162.388" gradientUnits="userSpaceOnUse">
<stop stop-color="#FF5E3A"/>
<stop offset="1" stop-color="#FF9500"/>
</linearGradient>
<linearGradient id="paint50_linear" x1="312.267" y1="193.447" x2="312.267" y2="162.388" gradientUnits="userSpaceOnUse">
<stop stop-color="#FF5E3A"/>
<stop offset="1" stop-color="#FF9500"/>
</linearGradient>
<linearGradient id="paint51_linear" x1="317.005" y1="193.448" x2="317.005" y2="172.441" gradientUnits="userSpaceOnUse">
<stop stop-color="#FF5E3A"/>
<stop offset="1" stop-color="#FF9500"/>
</linearGradient>
<linearGradient id="paint52_linear" x1="261.832" y1="147.257" x2="261.832" y2="0.999996" gradientUnits="userSpaceOnUse">
<stop stop-color="#FF5E3A"/>
<stop offset="1" stop-color="#FF9500"/>
</linearGradient>
<linearGradient id="paint53_linear" x1="261.832" y1="147.257" x2="261.832" y2="0.999996" gradientUnits="userSpaceOnUse">
<stop stop-color="#FF5E3A"/>
<stop offset="1" stop-color="#FF9500"/>
</linearGradient>
<linearGradient id="paint54_linear" x1="150.52" y1="147.256" x2="150.52" y2="125.131" gradientUnits="userSpaceOnUse">
<stop stop-color="#FF5E3A"/>
<stop offset="1" stop-color="#FF9500"/>
</linearGradient>
<linearGradient id="paint55_linear" x1="150.52" y1="147.256" x2="150.52" y2="125.131" gradientUnits="userSpaceOnUse">
<stop stop-color="#FF5E3A"/>
<stop offset="1" stop-color="#FF9500"/>
</linearGradient>
<linearGradient id="paint56_linear" x1="135.738" y1="112.893" x2="135.738" y2="0.999997" gradientUnits="userSpaceOnUse">
<stop stop-color="#FF5E3A"/>
<stop offset="1" stop-color="#FF9500"/>
</linearGradient>
<linearGradient id="paint57_linear" x1="54.2831" y1="7.8042" x2="54.2831" y2="6.8042" gradientUnits="userSpaceOnUse">
<stop stop-color="#FF5E3A"/>
<stop offset="1" stop-color="#FF9500"/>
</linearGradient>
<linearGradient id="paint58_linear" x1="238.466" y1="9.19978" x2="238.466" y2="3.36035" gradientUnits="userSpaceOnUse">
<stop stop-color="#FF5E3A"/>
<stop offset="1" stop-color="#FF9500"/>
</linearGradient>
<linearGradient id="paint59_linear" x1="226" y1="9.19987" x2="226" y2="3.37793" gradientUnits="userSpaceOnUse">
<stop stop-color="#FF5E3A"/>
<stop offset="1" stop-color="#FF9500"/>
</linearGradient>
<linearGradient id="paint60_linear" x1="135.738" y1="125.131" x2="135.738" y2="13.2383" gradientUnits="userSpaceOnUse">
<stop stop-color="#FF5E3A"/>
<stop offset="1" stop-color="#FF9500"/>
</linearGradient>
<linearGradient id="paint61_linear" x1="138.36" y1="114.642" x2="138.36" y2="24.8999" gradientUnits="userSpaceOnUse">
<stop stop-color="#FF5E3A"/>
<stop offset="1" stop-color="#FF9500"/>
</linearGradient>
<linearGradient id="paint62_linear" x1="138.942" y1="51.4775" x2="138.942" y2="50.4775" gradientUnits="userSpaceOnUse">
<stop stop-color="#FF5E3A"/>
<stop offset="1" stop-color="#FF9500"/>
</linearGradient>
<linearGradient id="paint63_linear" x1="138.942" y1="77.0034" x2="138.942" y2="76.0034" gradientUnits="userSpaceOnUse">
<stop stop-color="#FF5E3A"/>
<stop offset="1" stop-color="#FF9500"/>
</linearGradient>
<linearGradient id="paint64_linear" x1="138.942" y1="102.529" x2="138.942" y2="101.529" gradientUnits="userSpaceOnUse">
<stop stop-color="#FF5E3A"/>
<stop offset="1" stop-color="#FF9500"/>
</linearGradient>
<linearGradient id="paint65_linear" x1="34.0419" y1="26.4766" x2="34.0419" y2="25.4766" gradientUnits="userSpaceOnUse">
<stop stop-color="#FF5E3A"/>
<stop offset="1" stop-color="#FF9500"/>
</linearGradient>
<linearGradient id="paint66_linear" x1="34.0419" y1="39.1343" x2="34.0419" y2="38.1343" gradientUnits="userSpaceOnUse">
<stop stop-color="#FF5E3A"/>
<stop offset="1" stop-color="#FF9500"/>
</linearGradient>
<linearGradient id="paint67_linear" x1="34.0419" y1="51.7925" x2="34.0419" y2="50.7925" gradientUnits="userSpaceOnUse">
<stop stop-color="#FF5E3A"/>
<stop offset="1" stop-color="#FF9500"/>
</linearGradient>
<linearGradient id="paint68_linear" x1="34.0419" y1="64.4414" x2="34.0419" y2="63.4414" gradientUnits="userSpaceOnUse">
<stop stop-color="#FF5E3A"/>
<stop offset="1" stop-color="#FF9500"/>
</linearGradient>
<linearGradient id="paint69_linear" x1="34.0419" y1="77.0996" x2="34.0419" y2="76.0996" gradientUnits="userSpaceOnUse">
<stop stop-color="#FF5E3A"/>
<stop offset="1" stop-color="#FF9500"/>
</linearGradient>
<linearGradient id="paint70_linear" x1="34.0419" y1="89.7485" x2="34.0419" y2="88.7485" gradientUnits="userSpaceOnUse">
<stop stop-color="#FF5E3A"/>
<stop offset="1" stop-color="#FF9500"/>
</linearGradient>
<linearGradient id="paint71_linear" x1="34.0419" y1="102.407" x2="34.0419" y2="101.407" gradientUnits="userSpaceOnUse">
<stop stop-color="#FF5E3A"/>
<stop offset="1" stop-color="#FF9500"/>
</linearGradient>
<linearGradient id="paint72_linear" x1="34.0419" y1="115.064" x2="34.0419" y2="114.064" gradientUnits="userSpaceOnUse">
<stop stop-color="#FF5E3A"/>
<stop offset="1" stop-color="#FF9500"/>
</linearGradient>
<linearGradient id="paint73_linear" x1="138.216" y1="73.853" x2="138.216" y2="41.7974" gradientUnits="userSpaceOnUse">
<stop stop-color="#FF5E3A"/>
<stop offset="1" stop-color="#FF9500"/>
</linearGradient>
<linearGradient id="paint74_linear" x1="138.068" y1="64.5256" x2="138.068" y2="34.2183" gradientUnits="userSpaceOnUse">
<stop stop-color="#FF5E3A"/>
<stop offset="1" stop-color="#FF9500"/>
</linearGradient>
<linearGradient id="paint75_linear" x1="138.649" y1="111.145" x2="138.649" y2="91.3364" gradientUnits="userSpaceOnUse">
<stop stop-color="#FF5E3A"/>
<stop offset="1" stop-color="#FF9500"/>
</linearGradient>
<linearGradient id="paint76_linear" x1="206.974" y1="251.011" x2="206.974" y2="133.296" gradientUnits="userSpaceOnUse">
<stop stop-color="#FF5E3A"/>
<stop offset="1" stop-color="#FF9500"/>
</linearGradient>
<linearGradient id="paint77_linear" x1="206.974" y1="251.011" x2="206.974" y2="133.296" gradientUnits="userSpaceOnUse">
<stop stop-color="#FF5E3A"/>
<stop offset="1" stop-color="#FF9500"/>
</linearGradient>
<linearGradient id="paint78_linear" x1="123.714" y1="245.189" x2="123.714" y2="133.296" gradientUnits="userSpaceOnUse">
<stop stop-color="#FF5E3A"/>
<stop offset="1" stop-color="#FF9500"/>
</linearGradient>
<linearGradient id="paint79_linear" x1="123.714" y1="251.02" x2="123.714" y2="145.535" gradientUnits="userSpaceOnUse">
<stop stop-color="#FF5E3A"/>
<stop offset="1" stop-color="#FF9500"/>
</linearGradient>
<linearGradient id="paint80_linear" x1="100.162" y1="197.845" x2="100.162" y2="165.133" gradientUnits="userSpaceOnUse">
<stop stop-color="#FF5E3A"/>
<stop offset="1" stop-color="#FF9500"/>
</linearGradient>
<linearGradient id="paint81_linear" x1="100.176" y1="241.719" x2="100.176" y2="197.801" gradientUnits="userSpaceOnUse">
<stop stop-color="#FF5E3A"/>
<stop offset="1" stop-color="#FF9500"/>
</linearGradient>
<linearGradient id="paint82_linear" x1="141.674" y1="244.533" x2="141.674" y2="159.023" gradientUnits="userSpaceOnUse">
<stop stop-color="#FF5E3A"/>
<stop offset="1" stop-color="#FF9500"/>
</linearGradient>
<linearGradient id="paint83_linear" x1="141.674" y1="244.533" x2="141.674" y2="159.023" gradientUnits="userSpaceOnUse">
<stop stop-color="#FF5E3A"/>
<stop offset="1" stop-color="#FF9500"/>
</linearGradient>
<linearGradient id="paint84_linear" x1="132.412" y1="197.844" x2="132.412" y2="152.37" gradientUnits="userSpaceOnUse">
<stop stop-color="#FF5E3A"/>
<stop offset="1" stop-color="#FF9500"/>
</linearGradient>
<linearGradient id="paint85_linear" x1="107.126" y1="197.845" x2="107.126" y2="152.467" gradientUnits="userSpaceOnUse">
<stop stop-color="#FF5E3A"/>
<stop offset="1" stop-color="#FF9500"/>
</linearGradient>
<linearGradient id="paint86_linear" x1="173.463" y1="142.589" x2="173.463" y2="136.767" gradientUnits="userSpaceOnUse">
<stop stop-color="#FF5E3A"/>
<stop offset="1" stop-color="#FF9500"/>
</linearGradient>
<linearGradient id="paint87_linear" x1="160.988" y1="142.588" x2="160.988" y2="136.749" gradientUnits="userSpaceOnUse">
<stop stop-color="#FF5E3A"/>
<stop offset="1" stop-color="#FF9500"/>
</linearGradient>
<linearGradient id="paint88_linear" x1="123.714" y1="159.058" x2="123.714" y2="145.535" gradientUnits="userSpaceOnUse">
<stop stop-color="#FF5E3A"/>
<stop offset="1" stop-color="#FF9500"/>
</linearGradient>
<linearGradient id="paint89_linear" x1="123.714" y1="159.058" x2="123.714" y2="145.535" gradientUnits="userSpaceOnUse">
<stop stop-color="#FF5E3A"/>
<stop offset="1" stop-color="#FF9500"/>
</linearGradient>
</defs>
</svg>
