<svg width="351" height="293" viewBox="0 0 351 293" fill="none" xmlns="http://www.w3.org/2000/svg">
<path d="M269.116 52.061H17.2729V215.667H269.116V52.061Z" fill="url(#paint0_linear)"/>
<path opacity="0.4" d="M269.116 52.061H17.2729V215.667H269.116V52.061Z" fill="white"/>
<path d="M252.471 108.542H109.27V199.215H252.471V108.542Z" fill="white" stroke="#263238" stroke-miterlimit="10"/>
<path d="M154.132 97.9994L151.375 90.0581H106.484V205.814H255.256V97.9994H154.132ZM252.48 199.215H109.269V108.542H252.471L252.48 199.215Z" fill="url(#paint1_linear)" stroke="#263238" stroke-miterlimit="10"/>
<path d="M225.255 101.005H154.114V105.362H225.255V101.005Z" fill="white" stroke="#263238" stroke-miterlimit="10"/>
<path d="M112.716 100.307L110.667 102.283L112.79 104.562" stroke="#263238" stroke-linecap="round" stroke-linejoin="round"/>
<path d="M110.667 102.282H115.225" stroke="#263238" stroke-linecap="round" stroke-linejoin="round"/>
<path d="M124.343 100.307L126.402 102.283L124.27 104.562" stroke="#263238" stroke-linecap="round" stroke-linejoin="round"/>
<path d="M126.402 102.282H121.843" stroke="#263238" stroke-linecap="round" stroke-linejoin="round"/>
<path d="M136.2 102.016C136.072 101.557 135.8 101.151 135.425 100.857C135.05 100.563 134.59 100.396 134.114 100.38C133.832 100.361 133.55 100.4 133.285 100.495C133.019 100.59 132.776 100.738 132.57 100.931C132.364 101.123 132.2 101.356 132.088 101.615C131.975 101.873 131.917 102.152 131.917 102.434C131.917 102.716 131.975 102.995 132.088 103.254C132.2 103.513 132.364 103.745 132.57 103.938C132.776 104.131 133.019 104.279 133.285 104.374C133.55 104.468 133.832 104.507 134.114 104.489C134.588 104.49 135.046 104.324 135.41 104.02" stroke="#263238" stroke-linecap="round" stroke-linejoin="round"/>
<path d="M134.822 102.246H136.412V100.353" stroke="#263238" stroke-linecap="round" stroke-linejoin="round"/>
<path d="M147.073 101.575L145.18 100.04L143.378 101.575V104.911H147.073V101.575Z" stroke="#263238" stroke-linecap="round" stroke-linejoin="round"/>
<path d="M145.906 102.476H144.463V104.792H145.906V102.476Z" fill="#263238"/>
<path d="M143.379 101.575L142.294 102.567" stroke="#263238" stroke-linecap="round" stroke-linejoin="round"/>
<path d="M147.074 101.575L148.094 102.475" stroke="#263238" stroke-linecap="round" stroke-linejoin="round"/>
<path d="M146.393 94.1665L149.279 97.1445" stroke="#263238" stroke-linecap="round" stroke-linejoin="round"/>
<path d="M149.325 94.2124L146.347 97.0985" stroke="#263238" stroke-linecap="round" stroke-linejoin="round"/>
<path d="M244.924 101.805H250.632" stroke="#263238" stroke-linecap="round" stroke-linejoin="round"/>
<path d="M244.924 103.091H250.632" stroke="#263238" stroke-linecap="round" stroke-linejoin="round"/>
<path d="M244.924 104.369H250.632" stroke="#263238" stroke-linecap="round" stroke-linejoin="round"/>
<path d="M244.924 105.656H250.632" stroke="#263238" stroke-linecap="round" stroke-linejoin="round"/>
<path d="M214.979 119.241H222.167" stroke="#263238" stroke-linecap="round" stroke-linejoin="round"/>
<path d="M205.678 119.241H211.983" stroke="#263238" stroke-linecap="round" stroke-linejoin="round"/>
<path d="M190.208 119.241H203.343" stroke="#263238" stroke-linecap="round" stroke-linejoin="round"/>
<path d="M190.208 123.634H222.167" stroke="#263238" stroke-linecap="round" stroke-linejoin="round"/>
<path d="M217.47 128.019H222.167" stroke="#263238" stroke-linecap="round" stroke-linejoin="round"/>
<path d="M195.374 128.019H214.474" stroke="#263238" stroke-linecap="round" stroke-linejoin="round"/>
<path d="M190.208 128.019H192.718" stroke="#263238" stroke-linecap="round" stroke-linejoin="round"/>
<path d="M190.208 132.403H222.167" stroke="#263238" stroke-linecap="round" stroke-linejoin="round"/>
<path d="M201.349 169.002H194.244V190.832H201.349V169.002Z" fill="#263238" stroke="#263238" stroke-linecap="round" stroke-linejoin="round"/>
<path d="M211.505 143.111H204.4V190.842H211.505V143.111Z" fill="url(#paint2_linear)" stroke="#263238" stroke-miterlimit="10"/>
<path d="M221.662 157.33H214.557V190.841H221.662V157.33Z" fill="#263238" stroke="#263238" stroke-linecap="round" stroke-linejoin="round"/>
<path d="M231.809 143.111H224.704V190.842H231.809V143.111Z" fill="url(#paint3_linear)" stroke="#263238" stroke-miterlimit="10"/>
<path d="M241.965 122.292H234.86V190.842H241.965V122.292Z" fill="#263238" stroke="#263238" stroke-linecap="round" stroke-linejoin="round"/>
<path d="M171.761 80.959H28.5601V171.632H171.761V80.959Z" fill="white" stroke="#263238" stroke-miterlimit="10"/>
<path d="M73.4137 70.4256L70.6563 62.4751H25.7749V178.231H174.537V70.4256H73.4137ZM171.761 171.632H28.6058V80.9589H171.807L171.761 171.632Z" fill="url(#paint4_linear)" stroke="#263238" stroke-miterlimit="10"/>
<path d="M144.537 73.4219H73.3955V77.7786H144.537V73.4219Z" fill="white" stroke="#263238" stroke-miterlimit="10"/>
<path d="M32.0066 72.7231L29.9478 74.7085L32.0802 76.9879" stroke="#263238" stroke-linecap="round" stroke-linejoin="round"/>
<path d="M29.9478 74.7085H34.5159" stroke="#263238" stroke-linecap="round" stroke-linejoin="round"/>
<path d="M43.6336 72.7231L45.6833 74.7085L43.5601 76.9879" stroke="#263238" stroke-linecap="round" stroke-linejoin="round"/>
<path d="M45.6926 74.7085H41.1245" stroke="#263238" stroke-linecap="round" stroke-linejoin="round"/>
<path d="M55.4908 74.4417C55.3643 73.9848 55.0958 73.5801 54.724 73.2859C54.3522 72.9918 53.8965 72.8236 53.4227 72.8057C52.8791 72.8057 52.3578 73.0216 51.9734 73.406C51.589 73.7904 51.373 74.3117 51.373 74.8553C51.373 75.399 51.589 75.9203 51.9734 76.3047C52.3578 76.6891 52.8791 76.905 53.4227 76.905C53.8974 76.9047 54.3578 76.7426 54.7279 76.4454" stroke="#263238" stroke-linecap="round" stroke-linejoin="round"/>
<path d="M54.103 74.6716H55.7023V72.769" stroke="#263238" stroke-linecap="round" stroke-linejoin="round"/>
<path d="M66.3639 73.9916L64.4705 72.4658L62.6689 73.9916V77.3281H66.3639V73.9916Z" stroke="#263238" stroke-linecap="round" stroke-linejoin="round"/>
<path d="M65.1877 74.8921H63.7446V77.2083H65.1877V74.8921Z" fill="#263238"/>
<path d="M62.669 73.9912L61.5845 74.9839" stroke="#263238" stroke-linecap="round" stroke-linejoin="round"/>
<path d="M66.3638 73.9912L67.384 74.9012" stroke="#263238" stroke-linecap="round" stroke-linejoin="round"/>
<path d="M65.6841 66.5928L68.561 69.5616" stroke="#263238" stroke-linecap="round" stroke-linejoin="round"/>
<path d="M68.6065 66.6387L65.6377 69.5156" stroke="#263238" stroke-linecap="round" stroke-linejoin="round"/>
<path d="M164.215 74.2212H169.923" stroke="#263238" stroke-linecap="round" stroke-linejoin="round"/>
<path d="M164.215 75.5078H169.923" stroke="#263238" stroke-linecap="round" stroke-linejoin="round"/>
<path d="M164.215 76.7949H169.923" stroke="#263238" stroke-linecap="round" stroke-linejoin="round"/>
<path d="M164.215 78.0815H169.923" stroke="#263238" stroke-linecap="round" stroke-linejoin="round"/>
<path d="M35.9224 162.881V131.566L45.8858 152.661L54.351 148.966L63.9284 156.53L80.2431 145.923L90.2066 159.839L97.1828 156.365L103.157 159.839L110.63 158.966L120.584 161.365L131.044 160.492L137.698 162.881H35.9224Z" fill="#263238"/>
<path d="M140.795 108.542H151.65" stroke="#263238" stroke-linecap="round" stroke-linejoin="round"/>
<path d="M126.742 108.542H136.274" stroke="#263238" stroke-linecap="round" stroke-linejoin="round"/>
<path d="M103.378 108.542H123.231" stroke="#263238" stroke-linecap="round" stroke-linejoin="round"/>
<path d="M103.378 112.926H151.651" stroke="#263238" stroke-linecap="round" stroke-linejoin="round"/>
<path d="M144.555 117.32H151.65" stroke="#263238" stroke-linecap="round" stroke-linejoin="round"/>
<path d="M111.181 117.32H140.042" stroke="#263238" stroke-linecap="round" stroke-linejoin="round"/>
<path d="M103.378 117.32H107.165" stroke="#263238" stroke-linecap="round" stroke-linejoin="round"/>
<path d="M103.378 121.704H151.651" stroke="#263238" stroke-linecap="round" stroke-linejoin="round"/>
<path d="M151.65 128.763H140.795" stroke="#263238" stroke-linecap="round" stroke-linejoin="round"/>
<path d="M126.742 128.763H136.274" stroke="#263238" stroke-linecap="round" stroke-linejoin="round"/>
<path d="M103.378 128.763H123.231" stroke="#263238" stroke-linecap="round" stroke-linejoin="round"/>
<path d="M103.378 133.147H151.651" stroke="#263238" stroke-linecap="round" stroke-linejoin="round"/>
<path d="M151.65 137.541H144.555" stroke="#263238" stroke-linecap="round" stroke-linejoin="round"/>
<path d="M111.181 137.541H140.042" stroke="#263238" stroke-linecap="round" stroke-linejoin="round"/>
<path d="M103.378 137.541H107.165" stroke="#263238" stroke-linecap="round" stroke-linejoin="round"/>
<path d="M103.378 141.925H151.651" stroke="#263238" stroke-linecap="round" stroke-linejoin="round"/>
<path d="M48.303 115.766L42.5952 128.634C39.1946 127.12 36.5347 124.318 35.2006 120.843C33.8664 117.368 33.9673 113.505 35.4811 110.104C36.5706 107.606 38.3724 105.485 40.6611 104.005C42.9498 102.526 45.6239 101.754 48.349 101.786L48.303 115.766Z" fill="url(#paint5_linear)"/>
<g opacity="0.47">
<path opacity="0.47" d="M48.303 115.766L42.5952 128.634C39.1946 127.12 36.5347 124.318 35.2006 120.843C33.8664 117.368 33.9673 113.505 35.4811 110.104C36.5706 107.606 38.3724 105.485 40.6611 104.005C42.9498 102.526 45.6239 101.754 48.349 101.786L48.303 115.766Z" fill="white"/>
</g>
<path d="M48.303 115.766L54.8932 128.165C53.0196 129.194 50.9307 129.768 48.7946 129.841C46.6585 129.915 44.5351 129.485 42.5952 128.588L48.303 115.766Z" fill="#263238"/>
<path d="M48.3027 115.766L59.2129 106.906C60.3765 108.341 61.245 109.992 61.7687 111.764C62.2924 113.535 62.4608 115.393 62.2644 117.23C62.068 119.067 61.5105 120.848 60.624 122.469C59.7376 124.09 58.5396 125.52 57.0989 126.676C56.4025 127.246 55.6513 127.745 54.8562 128.165L48.3027 115.766Z" fill="url(#paint6_linear)"/>
<path d="M48.3027 115.766V101.74C50.3986 101.688 52.4775 102.128 54.3724 103.025C56.2672 103.922 57.9252 105.251 59.2129 106.906L48.3027 115.766Z" fill="#263238"/>
<path d="M48.3031 123.432C52.5214 123.432 55.9411 120.013 55.9411 115.794C55.9411 111.576 52.5214 108.156 48.3031 108.156C44.0847 108.156 40.665 111.576 40.665 115.794C40.665 120.013 44.0847 123.432 48.3031 123.432Z" fill="white"/>
<path d="M86.3367 115.766L80.6289 128.634C78.9443 127.886 77.4238 126.812 76.1544 125.476C74.8849 124.139 73.8914 122.565 73.2307 120.844C72.57 119.123 72.255 117.289 72.3037 115.446C72.3525 113.603 72.764 111.788 73.5148 110.104C74.6003 107.613 76.3947 105.496 78.6746 104.017C80.9546 102.538 83.6192 101.762 86.3367 101.786V115.766Z" fill="url(#paint7_linear)"/>
<g opacity="0.47">
<path opacity="0.47" d="M86.3367 115.766L80.6289 128.634C78.9443 127.886 77.4238 126.812 76.1544 125.476C74.8849 124.139 73.8914 122.565 73.2307 120.844C72.57 119.123 72.255 117.289 72.3037 115.446C72.3525 113.603 72.764 111.788 73.5148 110.104C74.6003 107.613 76.3947 105.496 78.6746 104.017C80.9546 102.538 83.6192 101.762 86.3367 101.786V115.766Z" fill="white"/>
</g>
<path d="M86.3369 115.766L92.9455 128.165C91.0719 129.194 88.9829 129.768 86.8468 129.841C84.7108 129.915 82.5873 129.485 80.6475 128.588L86.3369 115.766Z" fill="#263238"/>
<path d="M86.3369 115.766L97.2379 106.942C98.5396 108.55 99.4702 110.426 99.963 112.435C100.456 114.444 100.499 116.537 100.089 118.564C99.6785 120.592 98.8256 122.504 97.5907 124.164C96.3559 125.823 94.7697 127.19 92.9455 128.165L86.3369 115.766Z" fill="url(#paint8_linear)"/>
<path d="M86.3369 115.766V101.74C88.4315 101.688 90.509 102.128 92.4024 103.025C94.2958 103.922 95.952 105.251 97.2379 106.906L86.3369 115.766Z" fill="#263238"/>
<path d="M86.3367 123.432C90.5551 123.432 93.9748 120.013 93.9748 115.794C93.9748 111.576 90.5551 108.156 86.3367 108.156C82.1184 108.156 78.6987 111.576 78.6987 115.794C78.6987 120.013 82.1184 123.432 86.3367 123.432Z" fill="white"/>
<path d="M35.4258 90.8481H125.593" stroke="#263238" stroke-linecap="round" stroke-linejoin="round"/>
<path d="M35.4258 95.2422H142.349" stroke="#263238" stroke-linecap="round" stroke-linejoin="round"/>
<path d="M237.158 181.357C237.158 181.357 232.7 186.522 233.169 187.46C233.638 188.397 237.397 190.741 237.627 189.298C238.066 187.048 238.373 184.773 238.546 182.487C238.573 180.869 238.803 180.437 237.158 181.357Z" fill="white" stroke="#263238" stroke-linecap="round" stroke-linejoin="round"/>
<path d="M239.511 170.327C239.511 170.327 236.459 176.899 236.221 178.314C235.982 179.729 237.397 181.595 237.397 182.303C237.397 183.011 235.559 185.116 235.559 188.406C235.559 191.697 235.32 199.206 238.141 201.081C240.963 202.956 245.651 200.851 245.651 200.851L250.109 209.537L267.949 199.206L265.366 195.217C265.366 195.217 269.126 185.106 266.285 177.376C263.445 169.647 253.418 168.452 249.383 168.185C245.348 167.919 240.926 167.487 239.511 170.327Z" fill="white"/>
<path d="M265.329 195.189C265.329 195.189 269.088 185.078 266.248 177.349C263.408 169.619 253.38 168.424 249.345 168.157C248.693 168.157 248.022 168.074 247.351 168.047L242.148 172.165C242.148 172.165 237.865 178.295 239.704 180.74C241.542 183.185 242.764 185.648 242.148 189.628C241.533 193.608 237.47 200.492 241.542 200.658C242.378 200.658 243.702 200.805 245.274 200.961L245.614 200.823L245.706 201.007C251.717 201.614 260.844 202.799 260.844 202.799L261.763 202.753L267.93 199.178L265.329 195.189Z" fill="url(#paint9_linear)"/>
<path opacity="0.5" d="M265.329 195.189C265.329 195.189 269.088 185.078 266.248 177.349C263.408 169.619 253.38 168.424 249.345 168.157C248.693 168.157 248.022 168.074 247.351 168.047L242.148 172.165C242.148 172.165 237.865 178.295 239.704 180.74C241.542 183.185 242.764 185.648 242.148 189.628C241.533 193.608 237.47 200.492 241.542 200.658C242.378 200.658 243.702 200.805 245.274 200.961L245.614 200.823L245.706 201.007C251.717 201.614 260.844 202.799 260.844 202.799L261.763 202.753L267.93 199.178L265.329 195.189Z" fill="white"/>
<path d="M239.511 170.327C239.511 170.327 236.459 176.899 236.221 178.314C235.982 179.729 237.397 181.595 237.397 182.303C237.397 183.011 235.559 185.116 235.559 188.406C235.559 191.697 235.32 199.206 238.141 201.081C240.963 202.956 245.651 200.851 245.651 200.851L250.109 209.537L267.949 199.206L265.366 195.217C265.366 195.217 269.126 185.106 266.285 177.376C263.445 169.647 253.418 168.452 249.383 168.185C245.348 167.919 240.926 167.487 239.511 170.327Z" stroke="#263238" stroke-linecap="round" stroke-linejoin="round"/>
<path d="M263.905 163.029C263.905 163.029 255.219 160.446 247.709 160.676C240.2 160.905 232.682 163.029 232.921 167.018C233.16 171.007 240.191 172.413 240.191 172.413C240.191 172.413 244.189 172.652 243.013 173.819C241.836 174.987 238.785 177.349 241.174 180.161C243.564 182.974 245.862 185.327 245.163 186.264C244.465 187.202 245.393 189.316 246.331 188.617C247.268 187.919 245.862 185.088 248.445 184.15C251.028 183.213 253.61 187.202 252.673 189.785C251.735 192.367 250.09 192.138 251.028 194.013C251.965 195.888 257.838 198.939 261.827 198.939C265.816 198.939 266.993 193.774 271.221 185.557C275.449 177.34 272.609 165.372 263.905 163.029Z" fill="#263238" stroke="#263238" stroke-linecap="round" stroke-linejoin="round"/>
<path d="M241.625 211.623L243.969 216.081L269.796 199.178L267.214 196.126C267.214 196.126 245.614 208.094 241.625 211.623Z" fill="white" stroke="#263238" stroke-linecap="round" stroke-linejoin="round"/>
<path d="M246.551 212.322C246.551 212.322 241.386 219.362 239.511 222.883C237.636 226.403 229.649 247.065 226.128 254.345C224.072 258.528 222.441 262.907 221.257 267.415H270.495C270.495 267.415 276.129 239.317 276.129 227.111C276.129 214.905 273.317 205.75 272.37 203.406C271.423 201.062 267.912 199.178 267.912 199.178L246.551 212.322Z" fill="white"/>
<path d="M246.551 212.322C246.551 212.322 241.386 219.362 239.511 222.883C237.636 226.403 229.649 247.065 226.128 254.345C224.072 258.528 222.441 262.907 221.257 267.415H270.495C270.495 267.415 276.129 239.317 276.129 227.111C276.129 214.905 273.317 205.75 272.37 203.406C271.423 201.062 267.912 199.178 267.912 199.178L246.551 212.322Z" fill="#BDBDBD" stroke="#263238" stroke-linecap="round" stroke-linejoin="round"/>
<path d="M233.049 238.729C233.049 238.729 244.079 221.458 248.233 216.991C252.388 212.524 272.995 201.954 272.995 201.954L269.741 198.425C269.741 198.425 248.536 208.949 245.255 212.212C241.974 215.475 232.461 234.85 233.049 238.729Z" fill="#BDBDBD" stroke="#263238" stroke-linecap="round" stroke-linejoin="round"/>
<path d="M246.551 212.322C246.551 212.322 241.386 219.362 239.511 222.883C237.636 226.403 229.649 247.065 226.128 254.345C224.072 258.528 222.441 262.907 221.257 267.415H270.495C270.495 267.415 276.129 239.317 276.129 227.111C276.129 214.905 273.317 205.75 272.37 203.406C271.423 201.062 267.912 199.178 267.912 199.178L246.551 212.322Z" stroke="#263238" stroke-linecap="round" stroke-linejoin="round"/>
<path d="M260.164 212.322C260.164 212.322 247.296 220.778 245.375 224.06C243.454 227.341 245.146 232.516 245.146 233.251C245.146 233.986 243.307 236.303 243.307 237.01V239.354L233.197 266.588H256.175C256.175 266.588 266.037 242.645 267.913 237.948C269.788 233.251 270.734 224.804 269.797 220.107" stroke="#263238" stroke-linecap="round" stroke-linejoin="round"/>
<path d="M247.259 232.516C247.259 232.516 252.894 225.935 261.34 224.997" stroke="#263238" stroke-linecap="round" stroke-linejoin="round"/>
<path d="M301.956 184.399C301.956 184.399 285.743 181.154 281.202 185.042C276.662 188.93 279.254 212.616 277.958 218.774C276.662 224.933 273.417 231.422 274.713 237.902C276.009 244.381 278.932 248.931 280.228 252.176C281.524 255.42 279.897 267.415 279.897 267.415H327.251C327.251 267.415 335.679 245.043 335.679 228.177C335.679 211.311 330.486 196.724 322.71 191.209C314.934 185.695 301.956 184.399 301.956 184.399Z" fill="url(#paint10_linear)"/>
<path opacity="0.26" d="M284.594 194.527C279.998 202.193 285.209 244.161 286.432 248.15C287.654 252.139 278.775 248.453 281.533 250.595C284.29 252.736 289.492 256.422 289.492 256.422C286.536 255.146 283.518 254.02 280.448 253.049C280.61 254.009 280.693 254.98 280.696 255.953C283.774 258.359 287.011 260.554 290.384 262.525L280.32 263.371C280.108 265.678 279.869 267.397 279.869 267.397H327.223C327.223 267.397 335.652 245.025 335.652 228.159C335.704 221.135 334.722 214.142 332.738 207.405L304.484 195.456C304.484 195.456 289.189 186.871 284.594 194.527Z" fill="black"/>
<path d="M301.956 184.399C301.956 184.399 285.743 181.154 281.202 185.042C276.662 188.93 279.254 212.616 277.958 218.774C276.662 224.933 273.417 231.422 274.713 237.902C276.009 244.381 278.932 248.931 280.228 252.176C281.524 255.42 279.897 267.415 279.897 267.415H327.251C327.251 267.415 335.679 245.043 335.679 228.177C335.679 211.311 330.486 196.724 322.71 191.209C314.934 185.695 301.956 184.399 301.956 184.399Z" stroke="#263238" stroke-linecap="round" stroke-linejoin="round"/>
<path d="M301.589 126.024C301.589 126.024 294.456 120.188 287.645 124.407C280.834 128.626 269.161 148.075 270.457 157.808C271.753 167.542 283.436 176.614 275.65 181.807C267.865 187 270.788 196.394 274.676 198.995L276.946 199.316C276.946 199.316 276.946 189.914 283.436 187.313C289.925 184.711 299.318 186.991 301.589 189.914C303.859 192.836 299.649 207.745 305.155 211.642C310.66 215.539 318.455 216.183 316.837 220.071C315.219 223.958 309.695 230.126 313.262 235.641C316.828 241.155 325.587 246.67 328.51 244.713C331.433 242.755 327.214 240.503 328.832 239.198C330.449 237.893 343.749 233.361 341.479 227.846C339.209 222.332 334.346 219.409 336.617 217.138C338.887 214.868 347.316 209.363 346.341 201.577C345.367 193.792 326.883 187.956 326.24 179.518C325.596 171.081 337.269 170.115 333.372 151.025C329.475 131.935 317.517 123.451 311.699 123.451C308.166 123.442 304.688 124.327 301.589 126.024V126.024Z" fill="#263238" stroke="#263238" stroke-linecap="round" stroke-linejoin="round"/>
<path d="M307.894 136.199C312.784 142.982 318.924 152.973 319.135 160.529C319.438 173.112 308.39 178.332 310.229 188.149C312.067 197.965 333.529 199.656 335.091 208.37C336.654 217.083 326.819 213.885 329.255 218.802C331.691 223.719 341.204 227.993 337.242 233.508" stroke="white" stroke-linecap="round" stroke-linejoin="round"/>
<path d="M301.947 128.617C301.947 128.617 302.977 129.793 304.53 131.76" stroke="white" stroke-linecap="round" stroke-linejoin="round"/>
<path d="M297.084 178.36C298.206 179.536 298.877 180.63 298.877 181.706" stroke="white" stroke-linecap="round" stroke-linejoin="round"/>
<path d="M278.316 140.915C278.316 140.915 273.407 154.417 280.77 163.626C284.694 168.535 289.575 172.128 293.279 175.07" stroke="white" stroke-linecap="round" stroke-linejoin="round"/>
<path d="M322.517 196.862C323.942 197.377 325.495 197.781 327.113 198.277" stroke="white" stroke-linecap="round" stroke-linejoin="round"/>
<path d="M324.346 138.157C324.346 138.157 334.778 151.356 331.101 162.707C327.425 174.058 315.145 180.17 315.145 187.524C315.018 189.769 315.766 191.976 317.232 193.682" stroke="white" stroke-linecap="round" stroke-linejoin="round"/>
<path d="M200.355 256.606C200.355 256.606 198.406 259.005 198.406 260.503C198.406 262.001 197.662 264.989 198.562 265.145C199.463 265.301 200.051 261.992 200.952 260.797C201.853 259.602 204.096 259.299 203.949 257.654C203.802 256.009 201.706 254.51 200.355 256.606Z" fill="white" stroke="#263238" stroke-linecap="round" stroke-linejoin="round"/>
<path d="M221.927 258.702C221.927 258.702 213.536 251.661 211.44 250.917C209.344 250.172 205.144 254.961 202.598 259.603C200.052 264.244 201.403 265.292 202.754 265.439C204.105 265.586 209.942 263.049 209.942 263.049C212.011 264.694 214.413 265.867 216.982 266.487C221.027 267.406 226.863 264.989 227.019 262.599C227.176 260.209 221.927 258.702 221.927 258.702Z" fill="white" stroke="#263238" stroke-linecap="round" stroke-linejoin="round"/>
<path d="M300.007 210.64C300.007 210.64 300.329 259.63 299.033 263.527C297.737 267.424 293.196 267.415 285.742 267.737C278.288 268.059 232.883 266.772 232.883 266.772C230.304 267.152 227.704 267.367 225.098 267.415C221.531 267.415 215.364 266.772 213.094 265.145C210.823 263.518 208.884 263.196 207.91 263.527C206.935 263.858 204.344 267.093 202.073 267.093C199.803 267.093 197.202 266.119 198.829 265.797C200.456 265.476 209.206 256.064 211.154 256.064C213.103 256.064 227.037 259.63 229.638 259.308C232.239 258.987 278.61 249.906 278.61 249.906L276.992 199.353C276.992 199.353 275.365 190.594 283.481 187.349" fill="url(#paint11_linear)"/>
<path opacity="0.26" d="M287.084 192.211C286.05 192.73 285.186 193.534 284.594 194.528C279.998 202.193 285.209 244.161 286.432 248.15C287.654 252.139 278.775 248.453 281.533 250.595C284.29 252.737 289.493 256.422 289.493 256.422C289.493 256.422 274.483 249.988 278.463 253.968C282.443 257.948 290.412 262.544 290.412 262.544L238.021 266.91C250.135 267.24 279.805 267.994 285.715 267.737C293.169 267.415 297.71 267.415 299.006 263.527C300.302 259.639 299.98 209.693 299.98 209.693L287.084 192.211Z" fill="black"/>
<path d="M300.007 210.64C300.007 210.64 300.329 259.63 299.033 263.527C297.737 267.424 293.196 267.415 285.742 267.737C278.288 268.059 232.883 266.772 232.883 266.772C230.304 267.152 227.704 267.367 225.098 267.415C221.531 267.415 215.364 266.772 213.094 265.145C210.823 263.518 208.884 263.196 207.91 263.527C206.935 263.858 204.344 267.093 202.073 267.093C199.803 267.093 197.202 266.119 198.829 265.797C200.456 265.476 209.206 256.064 211.154 256.064C213.103 256.064 227.037 259.63 229.638 259.308C232.239 258.987 278.61 249.906 278.61 249.906L276.992 199.353C276.992 199.353 275.365 190.594 283.481 187.349" stroke="#263238" stroke-linecap="round" stroke-linejoin="round"/>
<path d="M246.386 267.13C245.386 263.465 245.608 259.573 247.02 256.045C238.159 257.755 230.641 259.18 229.639 259.308C227.038 259.63 213.094 256.064 211.155 256.064C209.216 256.064 200.484 265.467 198.83 265.797C197.175 266.128 199.804 267.093 202.074 267.093C204.344 267.093 206.936 263.849 207.911 263.527C208.885 263.205 210.824 263.527 213.094 265.145C215.365 266.763 221.532 267.415 225.098 267.415C227.704 267.366 230.305 267.152 232.883 266.772L246.386 267.13Z" fill="white" stroke="#263238" stroke-linecap="round" stroke-linejoin="round"/>
<path d="M203.801 253.159C202.382 254.001 201.196 255.186 200.355 256.606C199.436 258.555 200.355 264.538 201.853 264.538C203.351 264.538 204.399 262.893 204.399 260.797C204.399 258.702 203.801 253.159 203.801 253.159Z" fill="white" stroke="#263238" stroke-linecap="round" stroke-linejoin="round"/>
<path d="M205.897 251.964C205.897 251.964 203.498 252.111 202.597 253.913C201.697 255.714 201.853 263.343 203.351 263.647C204.849 263.95 205.447 261.395 205.447 259.749C205.447 258.104 205.897 251.964 205.897 251.964Z" fill="white" stroke="#263238" stroke-linecap="round" stroke-linejoin="round"/>
<path d="M211.439 250.916C211.439 250.916 207.846 250.31 206.347 251.367C204.849 252.424 204.509 261.698 205.594 262.442C206.678 263.187 208.443 261.248 208.443 260.2C208.443 259.152 210.539 253.462 210.539 253.462" fill="white"/>
<path d="M211.439 250.916C211.439 250.916 207.846 250.31 206.347 251.367C204.849 252.424 204.509 261.698 205.594 262.442C206.678 263.187 208.443 261.248 208.443 260.2C208.443 259.152 210.539 253.462 210.539 253.462" stroke="#263238" stroke-linecap="round" stroke-linejoin="round"/>
<path d="M121.439 220.263C121.439 220.263 117.137 226.789 118.948 229.96C120.759 233.131 127.33 239.693 140.906 238.783C154.482 237.873 146.338 215.024 147.919 200.989C149.5 186.953 143.627 184.922 138.865 188.543C134.104 192.165 128.231 209.592 125.998 212.533C124.26 214.974 122.734 217.561 121.439 220.263V220.263Z" fill="url(#paint12_linear)"/>
<path opacity="0.42" d="M121.439 220.263C121.439 220.263 117.137 226.789 118.948 229.96C120.759 233.131 127.33 239.693 140.906 238.783C154.482 237.873 146.338 215.024 147.919 200.989C149.5 186.953 143.627 184.922 138.865 188.543C134.104 192.165 128.231 209.592 125.998 212.533C124.26 214.974 122.734 217.561 121.439 220.263V220.263Z" fill="black" stroke="#263238" stroke-linecap="round" stroke-linejoin="round"/>
<path d="M121.439 220.263C121.439 220.263 117.137 226.789 118.948 229.96C120.759 233.131 127.33 239.693 140.906 238.783C154.482 237.873 146.338 215.024 147.919 200.989C149.5 186.953 143.627 184.922 138.865 188.543C134.104 192.165 128.231 209.592 125.998 212.533C124.26 214.974 122.734 217.561 121.439 220.263V220.263Z" stroke="#263238" stroke-linecap="round" stroke-linejoin="round"/>
<path d="M137.983 224.078C137.983 224.078 137.983 244.216 138.213 250.558C138.442 256.9 139.343 272.286 139.343 272.286H181.89L179.629 226.329L178.949 224.068L137.983 224.078Z" fill="#263238" stroke="#263238" stroke-linecap="round" stroke-linejoin="round"/>
<path d="M162.717 229.409L179.794 230.098L179.61 226.339L178.93 224.078H162.45L162.717 229.409Z" fill="white" stroke="#263238" stroke-linecap="round" stroke-linejoin="round"/>
<path d="M142.487 224.078H137.983C137.983 224.078 137.983 225.815 137.983 228.425L142.496 228.6L142.487 224.078Z" fill="white" stroke="#263238" stroke-linecap="round" stroke-linejoin="round"/>
<path d="M143.93 224.078L144.187 228.673L159.647 229.289L159.491 224.078H143.93Z" fill="white" stroke="#263238" stroke-linecap="round" stroke-linejoin="round"/>
<path d="M138.194 189.215C138.194 189.215 137.965 215.245 138.194 219.326C138.424 223.407 136.356 224.758 139.775 225.438C143.194 226.118 170.787 226.789 173.498 226.357C176.21 225.925 176.256 224.519 176.899 223.186C177.543 221.853 186.624 163.663 184.592 162.073C182.561 160.482 169.656 155.74 168.517 155.74C167.377 155.74 150.64 156.659 147.468 157.1C144.297 157.541 140.676 156.64 140.455 158.451C140.235 160.262 138.194 189.215 138.194 189.215Z" fill="white"/>
<path d="M152.064 164.361C152.064 164.361 146.761 164.104 145.75 164.61C145.18 164.894 141.706 173.424 138.792 180.777C138.452 185.566 138.195 189.215 138.195 189.215C138.195 189.215 137.965 215.245 138.195 219.326C138.342 222 137.524 223.499 137.891 224.409C139.04 220.42 140.869 213.535 142.974 203.746C146.513 187.331 152.064 164.361 152.064 164.361Z" fill="#BDBDBD"/>
<path d="M138.194 189.215C138.194 189.215 137.965 215.245 138.194 219.326C138.424 223.407 136.356 224.758 139.775 225.438C143.194 226.118 170.787 226.789 173.498 226.357C176.21 225.925 176.256 224.519 176.899 223.186C177.543 221.853 186.624 163.663 184.592 162.073C182.561 160.482 169.656 155.74 168.517 155.74C167.377 155.74 150.64 156.659 147.468 157.1C144.297 157.541 140.676 156.64 140.455 158.451C140.235 160.262 138.194 189.215 138.194 189.215Z" stroke="#263238" stroke-linecap="round" stroke-linejoin="round"/>
<path d="M91.1071 174.922C91.1071 174.922 82.9636 170.85 80.0223 170.17C77.0811 169.49 67.568 167.229 66.8879 168.129C66.2077 169.03 67.1176 169.968 68.0276 169.968C68.9375 169.968 74.8108 172.459 74.8108 172.459C74.8108 172.459 74.1398 177.891 74.1398 179.251C74.1398 180.611 81.3826 183.323 82.9636 183.553C84.5445 183.782 87.7339 182.569 87.7339 182.569L89.9766 181.962L91.1071 174.922Z" fill="white" stroke="#263238" stroke-linecap="round" stroke-linejoin="round"/>
<path d="M74.14 173.378C74.14 173.378 73.2208 179.49 73.9102 180.161C74.5995 180.832 79.3423 184.012 80.0224 182.431C80.7026 180.851 80.4728 174.729 80.4728 174.058C80.4728 173.387 74.14 173.378 74.14 173.378Z" fill="white" stroke="#263238" stroke-linecap="round" stroke-linejoin="round"/>
<path d="M88.3954 175.189C88.3954 175.189 80.7022 172.248 78.8915 172.248C77.0808 172.248 74.1396 174.729 72.5495 175.189C70.9594 175.648 72.9999 177.027 74.1396 176.77C75.2793 176.512 78.432 175.639 78.432 175.639C79.1359 176.985 80.1466 178.147 81.3824 179.031C83.2207 180.161 87.0351 179.49 87.0351 179.49" fill="white"/>
<path d="M88.3954 175.189C88.3954 175.189 80.7022 172.248 78.8915 172.248C77.0808 172.248 74.1396 174.729 72.5495 175.189C70.9594 175.648 72.9999 177.027 74.1396 176.77C75.2793 176.512 78.432 175.639 78.432 175.639C79.1359 176.985 80.1466 178.147 81.3824 179.031C83.2207 180.161 87.0351 179.49 87.0351 179.49" stroke="#263238" stroke-linecap="round" stroke-linejoin="round"/>
<path d="M157.377 155.565C157.377 155.565 143.801 154.398 141.044 155.004C138.286 155.611 131.852 171.246 130.933 173.387C130.014 175.529 119.904 185.336 119.904 185.336L90.8038 174.003L87.7339 182.578C87.7339 182.578 111.328 197.9 115.308 199.739C119.288 201.577 124.812 201.274 126.65 201.274C128 201.136 129.28 200.602 130.327 199.739L121.439 220.263C121.439 220.263 135.841 203.112 140.125 194.84C144.408 186.568 154.224 162.357 155.143 161.751C156.062 161.144 157.377 155.565 157.377 155.565Z" fill="url(#paint13_linear)"/>
<path opacity="0.26" d="M125.952 191.126C125.216 191.126 124.233 190.639 123.249 190.639C122.266 190.639 124.481 194.316 123.985 195.566C123.488 196.816 88.2855 181.779 88.2855 181.779L88.2212 182.891C91.5485 185.051 111.659 198.057 115.308 199.739C119.297 201.577 124.812 201.274 126.65 201.274C127.855 201.177 129.006 200.737 129.968 200.005C132.652 193.158 134.564 181.779 134.564 181.779C134.564 181.779 126.696 191.126 125.952 191.126Z" fill="black"/>
<path d="M157.377 155.565C157.377 155.565 143.801 154.398 141.044 155.004C138.286 155.611 131.852 171.246 130.933 173.387C130.014 175.529 119.904 185.336 119.904 185.336L90.8038 174.003L87.7339 182.578C87.7339 182.578 111.328 197.9 115.308 199.739C119.288 201.577 124.812 201.274 126.65 201.274C128 201.136 129.28 200.602 130.327 199.739L121.439 220.263C121.439 220.263 135.841 203.112 140.125 194.84C144.408 186.568 154.224 162.357 155.143 161.751C156.062 161.144 157.377 155.565 157.377 155.565Z" stroke="#263238" stroke-linecap="round" stroke-linejoin="round"/>
<path d="M157.377 155.565L153.608 159.141L153.801 166.292L157.772 162.514L157.377 155.565Z" fill="white" stroke="#263238" stroke-linecap="round" stroke-linejoin="round"/>
<path d="M150.226 120.693C150.226 120.693 146.163 126.943 146.42 128.248C146.678 129.554 147.34 130.886 147.34 131.925C147.34 132.964 142.744 136.622 143.277 137.44C143.81 138.258 146.411 139.526 146.411 139.526C146.411 139.526 146.301 149.719 148.645 151.025C150.988 152.33 155.446 150.234 155.446 150.234L157.79 163.304L171.118 153.892V144.49C171.118 144.49 178.958 135.611 179.482 128.552C180.006 121.493 170.29 113.662 160.667 112.357C151.044 111.051 145.777 117.577 147.34 119.71C148.902 121.842 150.226 120.693 150.226 120.693Z" fill="white"/>
<path d="M166.154 157.403L171.127 153.892V144.49C171.127 144.49 178.967 135.611 179.491 128.552C179.831 123.956 175.814 119.002 170.3 115.757L156.439 121.502C156.439 121.502 149.932 127.219 150.786 127.991C151.641 128.763 154.141 131.962 153.544 133.432C153.544 133.432 151.218 134.351 151.457 135.942C151.696 137.532 157.11 147.89 157.11 147.89L155.446 150.234L166.154 157.403Z" fill="url(#paint14_linear)"/>
<path opacity="0.5" d="M166.154 157.403L171.127 153.892V144.49C171.127 144.49 178.967 135.611 179.491 128.552C179.831 123.956 175.814 119.002 170.3 115.757L156.439 121.502C156.439 121.502 149.932 127.219 150.786 127.991C151.641 128.763 154.141 131.962 153.544 133.432C153.544 133.432 151.218 134.351 151.457 135.942C151.696 137.532 157.11 147.89 157.11 147.89L155.446 150.234L166.154 157.403Z" fill="white"/>
<path d="M150.226 120.693C150.226 120.693 146.163 126.943 146.42 128.248C146.678 129.554 147.34 130.886 147.34 131.925C147.34 132.964 142.744 136.622 143.277 137.44C143.81 138.258 146.411 139.526 146.411 139.526C146.411 139.526 146.301 149.719 148.645 151.025C150.988 152.33 155.446 150.234 155.446 150.234L157.79 163.304L171.118 153.892V144.49C171.118 144.49 178.958 135.611 179.482 128.552C180.006 121.493 170.29 113.662 160.667 112.357C151.044 111.051 145.777 117.577 147.34 119.71C148.902 121.842 150.226 120.693 150.226 120.693Z" stroke="#263238" stroke-linecap="round" stroke-linejoin="round"/>
<path d="M171.007 155.942C171.007 155.942 168.066 166.356 164.445 179.49C160.823 192.625 161.503 233.352 161.503 235.622C161.503 237.892 166.706 246.026 172.597 248.297C176.447 249.71 180.463 250.622 184.546 251.008C184.546 251.008 180.474 224.077 180.474 216.384C180.474 208.691 184.096 196.687 184.096 196.687C184.096 196.687 189.528 210.272 191.789 212.083C194.05 213.893 203.103 215.925 202.883 207.551C202.662 199.178 194.96 169.297 192.919 166.356C190.879 163.414 181.145 160.473 181.145 160.473L171.007 155.942Z" fill="url(#paint15_linear)"/>
<g opacity="0.26">
<path opacity="0.26" d="M180.521 216.384C175.374 217.717 171.256 218.672 171.256 218.672C171.256 218.672 177.562 231.292 180.089 231.292H181.872C181.128 225.171 180.521 219.343 180.521 216.384Z" fill="black"/>
<path opacity="0.26" d="M185.392 179.003C188.15 182.027 193.968 180.519 193.968 181.53C193.968 182.541 189.427 184.812 191.211 188.341C192.994 191.871 203.334 207.027 200.301 209.803C199.428 210.603 196.624 211.641 193.113 212.799C196.404 214.252 203.141 214.794 202.948 207.551C202.718 199.178 195.025 169.297 192.985 166.355C192.966 166.355 182.607 175.97 185.392 179.003Z" fill="black"/>
<path opacity="0.26" d="M178.04 182.542C177.28 183.203 176.729 184.072 176.453 185.041C176.177 186.01 176.189 187.038 176.486 188.001C177.525 191.374 181.422 194.757 180.383 196.577C179.345 198.397 171.541 197.101 171.808 199.702C172.074 202.303 180.126 210.878 180.126 210.878L183.499 195.538L178.04 182.542Z" fill="black"/>
</g>
<path d="M171.007 155.942C171.007 155.942 168.066 166.356 164.445 179.49C160.823 192.625 161.503 233.352 161.503 235.622C161.503 237.892 166.706 246.026 172.597 248.297C176.447 249.71 180.463 250.622 184.546 251.008C184.546 251.008 180.474 224.077 180.474 216.384C180.474 208.691 184.096 196.687 184.096 196.687C184.096 196.687 189.528 210.272 191.789 212.083C194.05 213.893 203.103 215.925 202.883 207.551C202.662 199.178 194.96 169.297 192.919 166.356C190.879 163.414 181.145 160.473 181.145 160.473L171.007 155.942Z" stroke="#263238" stroke-linecap="round" stroke-linejoin="round"/>
<path d="M171.09 151.393L159.362 159.729L160.162 167.082L173.076 155.363L171.09 151.393Z" fill="white" stroke="#263238" stroke-linecap="round" stroke-linejoin="round"/>
<path d="M174.859 212.533C174.859 212.533 166.256 208.682 165.576 208.682C164.896 208.682 158.112 212.304 156.752 212.304C155.392 212.304 154.711 213.223 155.621 213.894C156.376 214.339 157.236 214.573 158.112 214.574C158.112 214.574 154.941 216.412 155.162 217.285C155.382 218.158 157.202 218.866 157.202 218.866C158.132 220.292 159.476 221.399 161.054 222.037C163.315 222.717 171.238 220.006 171.238 220.006L177.35 219.546L174.859 212.533Z" fill="white"/>
<path d="M165.557 212.607C162.8 213.222 157.202 218.866 157.202 218.866C158.132 220.292 159.476 221.398 161.053 222.037C163.314 222.717 171.237 220.006 171.237 220.006L177.35 219.546L174.859 212.533C174.859 212.533 168.315 211.991 165.557 212.607Z" fill="url(#paint16_linear)"/>
<path opacity="0.5" d="M165.557 212.607C162.8 213.222 157.202 218.866 157.202 218.866C158.132 220.292 159.476 221.398 161.053 222.037C163.314 222.717 171.237 220.006 171.237 220.006L177.35 219.546L174.859 212.533C174.859 212.533 168.315 211.991 165.557 212.607Z" fill="white"/>
<path d="M174.859 212.533C174.859 212.533 166.256 208.682 165.576 208.682C164.896 208.682 158.112 212.304 156.752 212.304C155.392 212.304 154.711 213.223 155.621 213.894C156.376 214.339 157.236 214.573 158.112 214.574C158.112 214.574 154.941 216.412 155.162 217.285C155.382 218.158 157.202 218.866 157.202 218.866C158.132 220.292 159.476 221.399 161.054 222.037C163.315 222.717 171.238 220.006 171.238 220.006L177.35 219.546L174.859 212.533Z" stroke="#263238" stroke-linecap="round" stroke-linejoin="round"/>
<path d="M195.457 202.8L174.179 211.403L175.76 220.456C175.76 220.456 204.253 216.385 205.641 214.344C207.029 212.304 201.79 200.759 201.79 200.759" fill="url(#paint17_linear)"/>
<path opacity="0.26" d="M175.272 217.671L175.76 220.429C175.76 220.429 204.253 216.357 205.641 214.316C207.029 212.276 201.79 200.731 201.79 200.731L198.747 201.715C200.503 205.391 201.505 208.627 200.282 209.776C198.003 211.89 182.699 215.842 175.272 217.671Z" fill="black"/>
<path d="M195.457 202.8L174.179 211.403L175.76 220.456C175.76 220.456 204.253 216.385 205.641 214.344C207.029 212.304 201.79 200.759 201.79 200.759" stroke="#263238" stroke-linecap="round" stroke-linejoin="round"/>
<path d="M130.326 199.739C130.326 199.739 134.573 183.332 135.924 174.279Z" fill="white"/>
<path d="M130.326 199.739C130.326 199.739 134.573 183.332 135.924 174.279" stroke="#263238" stroke-linecap="round" stroke-linejoin="round"/>
<path d="M149.059 246.854L155.162 251.946L156.182 272.314" stroke="white" stroke-linecap="round" stroke-linejoin="round"/>
<path d="M184.142 196.687L178.131 185.658C178.131 185.658 176.394 183.341 179.868 177.551" stroke="#263238" stroke-linecap="round" stroke-linejoin="round"/>
<path d="M160.677 112.357C151.007 111.051 145.787 117.577 147.349 119.71C147.737 120.317 148.331 120.765 149.022 120.969L150.226 120.748C150.226 120.748 159.105 121.015 158.59 123.883C158.076 126.75 152.836 127.026 154.914 129.397C155.462 130.001 156.079 130.537 156.752 130.997H156.449C157.012 131.473 157.443 132.088 157.699 132.78C158.057 133.855 156.09 142.789 155.732 143.506C155.373 144.223 153.406 143.322 150.906 141.539C149.602 140.526 148.067 139.851 146.439 139.572L146.265 141.181C146.265 141.181 148.765 141.898 149.123 143.322C149.482 144.747 147.156 144.931 147.156 146.19C147.156 147.449 146.982 149.692 148.673 151.071C150.364 152.449 155.474 150.28 155.474 150.28C155.474 150.28 159.307 147.615 159.849 144.765C160.281 142.431 160.603 138.331 160.998 136.291C161.566 135.602 162.077 134.867 162.524 134.094C162.524 134.094 166.706 133.046 165.401 137.228C164.096 141.41 161.476 141.41 161.476 141.41C164.443 143.118 167.727 144.2 171.127 144.591V144.526C171.127 144.526 178.968 135.647 179.491 128.589C180.015 121.53 170.346 113.662 160.677 112.357Z" fill="#263238" stroke="#263238" stroke-linecap="round" stroke-linejoin="round"/>
<path d="M185.355 244.611H169.876V267.479H185.355V244.611Z" fill="white" stroke="#263238" stroke-linecap="round" stroke-linejoin="round"/>
<path d="M184.665 264.373H183.02C182.681 264.373 182.356 264.238 182.116 263.998C181.877 263.759 181.742 263.434 181.742 263.095C181.742 262.756 181.877 262.431 182.116 262.192C182.356 261.952 182.681 261.818 183.02 261.818H184.637C185.279 261.818 185.893 261.563 186.347 261.109C186.8 260.656 187.055 260.041 187.055 259.4V253.885C187.055 253.243 186.8 252.628 186.347 252.173C185.894 251.718 185.279 251.461 184.637 251.459H182.56C182.384 251.474 182.206 251.452 182.039 251.395C181.872 251.338 181.718 251.246 181.588 251.127C181.457 251.007 181.353 250.862 181.282 250.7C181.211 250.538 181.174 250.363 181.174 250.186C181.174 250.009 181.211 249.834 181.282 249.672C181.353 249.51 181.457 249.365 181.588 249.245C181.718 249.125 181.872 249.034 182.039 248.977C182.206 248.92 182.384 248.898 182.56 248.913H184.637C185.29 248.913 185.937 249.041 186.54 249.291C187.144 249.541 187.692 249.907 188.154 250.369C188.615 250.831 188.982 251.379 189.231 251.982C189.481 252.586 189.61 253.232 189.61 253.885V259.4C189.608 260.713 189.087 261.973 188.161 262.904C187.235 263.835 185.978 264.363 184.665 264.373V264.373Z" fill="white" stroke="#263238" stroke-linecap="round" stroke-linejoin="round"/>
<path d="M103.313 267.176H61.2535C61.094 267.177 60.9378 267.131 60.8039 267.045C60.67 266.958 60.5643 266.834 60.4998 266.689L48.8268 240.181C48.7715 240.056 48.7484 239.919 48.7596 239.783C48.7708 239.647 48.8159 239.515 48.8909 239.401C48.9658 239.287 49.0682 239.193 49.1887 239.129C49.3091 239.064 49.4438 239.031 49.5804 239.032H91.6401C91.7993 239.032 91.9548 239.079 92.0873 239.168C92.2197 239.256 92.3231 239.381 92.3846 239.528L104.03 266.082C104.075 266.201 104.091 266.329 104.077 266.456C104.064 266.583 104.02 266.705 103.95 266.811C103.88 266.918 103.786 267.007 103.675 267.07C103.565 267.133 103.441 267.169 103.313 267.176Z" fill="white" stroke="#263238" stroke-linecap="round" stroke-linejoin="round"/>
<path d="M99.3795 265.108H63.478C63.3437 265.107 63.2125 265.068 63.1 264.994C62.9875 264.921 62.8986 264.817 62.8438 264.694L52.9079 242.019C52.8605 241.913 52.8403 241.797 52.8492 241.681C52.8581 241.565 52.8957 241.453 52.9587 241.356C53.0216 241.258 53.108 241.178 53.2098 241.122C53.3117 241.066 53.4259 241.036 53.5421 241.036H89.4344C89.5707 241.038 89.7037 241.078 89.8177 241.153C89.9316 241.228 90.0219 241.334 90.0778 241.458L100.014 264.115C100.063 264.222 100.085 264.339 100.077 264.456C100.069 264.573 100.032 264.686 99.9687 264.785C99.9055 264.884 99.8184 264.966 99.7154 265.022C99.6124 265.078 99.4969 265.108 99.3795 265.108Z" fill="#263238" stroke="#263238" stroke-linecap="round" stroke-linejoin="round"/>
<path d="M60.6648 267.488H123.855V265.42H60.6648V267.488Z" fill="white" stroke="#263238" stroke-linecap="round" stroke-linejoin="round"/>
<path d="M60.665 267.488H91.2998V265.42H60.665V267.488Z" fill="white" stroke="#263238" stroke-linecap="round" stroke-linejoin="round"/>
<path d="M3.20998 216.045C4.52523 216.394 5.88509 216.546 7.24498 216.495C7.24498 216.495 6.62916 214.657 6.57401 214.51C5.949 213.195 3.95447 211.017 2.33679 211.238C2.06899 211.282 1.81351 211.382 1.58703 211.532C1.36056 211.681 1.16819 211.877 1.02247 212.106C0.876745 212.335 0.780958 212.592 0.741357 212.861C0.701757 213.129 0.719234 213.403 0.792646 213.664C0.998038 214.213 1.32077 214.71 1.73829 215.122C2.15581 215.533 2.65807 215.848 3.20998 216.045Z" fill="#263238"/>
<path d="M4.19367 224.344C5.54412 224.336 6.88575 224.126 8.17352 223.719C8.58849 225.184 9.10444 226.618 9.71767 228.011C10.0669 228.829 10.453 229.638 10.839 230.438C10.6092 230.098 10.3978 229.795 10.3611 229.758C9.44194 228.655 6.9235 227.083 5.41611 227.726C5.16765 227.839 4.94588 228.003 4.7654 228.208C4.58492 228.412 4.44985 228.653 4.36908 228.913C4.28831 229.174 4.26368 229.448 4.29681 229.719C4.32995 229.99 4.4201 230.251 4.56132 230.484C4.90369 230.96 5.34596 231.356 5.85718 231.643C6.36839 231.93 6.93622 232.103 7.52094 232.148C8.83055 232.154 10.1331 231.956 11.3813 231.559C11.5376 231.863 11.6846 232.175 11.8409 232.478C12.5854 233.958 13.3299 235.42 14.01 236.89C14.2582 237.405 14.4788 237.92 14.6994 238.434L14.2858 237.837C13.3666 236.734 10.839 235.171 9.33164 235.806C9.08418 235.919 8.86344 236.084 8.6838 236.289C8.50416 236.493 8.36964 236.734 8.289 236.994C8.20837 237.254 8.18342 237.528 8.21578 237.798C8.24814 238.069 8.33709 238.329 8.47684 238.563C8.82425 239.03 9.26864 239.417 9.77951 239.696C10.2904 239.975 10.8556 240.141 11.4365 240.181C12.7106 240.184 13.978 239.995 15.1957 239.62C15.4071 240.153 15.6185 240.686 15.8024 241.21C15.9218 241.578 16.0505 241.918 16.1516 242.295L16.4549 243.379C16.6204 244.069 16.795 244.795 16.9421 245.475C17.0524 245.953 17.1351 246.394 17.2362 246.863C16.9972 246.348 16.5193 245.346 16.4641 245.273C15.6921 244.032 13.4678 242.111 11.8685 242.515C11.6073 242.587 11.3643 242.714 11.1558 242.887C10.9472 243.06 10.7778 243.275 10.6588 243.518C10.5397 243.762 10.4737 244.028 10.4652 244.298C10.4566 244.569 10.5057 244.839 10.6092 245.089C10.8738 245.613 11.2506 246.073 11.7129 246.435C12.1752 246.797 12.7116 247.053 13.2839 247.185C14.6089 247.388 15.9572 247.388 17.2822 247.185C17.4292 247.947 17.5763 248.683 17.6958 249.381C18.1186 251.808 18.3851 253.839 18.5506 255.264C18.5506 255.512 18.6057 255.742 18.6241 255.953H13.7343L14.3317 267.571H25.0948L25.6923 255.953H21.0966C21.0966 255.889 21.1609 255.815 21.1977 255.742C21.8227 254.437 22.6959 252.562 23.6334 250.227C23.9367 249.501 24.24 248.72 24.5525 247.92C25.8592 248.222 27.2042 248.324 28.5416 248.223C29.1179 248.139 29.669 247.93 30.1563 247.611C30.6436 247.292 31.0555 246.87 31.3633 246.376C31.4846 246.132 31.5532 245.866 31.5645 245.595C31.5758 245.323 31.5296 245.052 31.4289 244.8C31.3283 244.547 31.1754 244.319 30.9804 244.13C30.7853 243.94 30.5525 243.794 30.2971 243.701C28.753 243.186 26.3908 244.942 25.5268 246.118C25.4717 246.183 25.0029 247.038 24.718 247.516C24.8375 247.185 24.9661 246.863 25.0856 246.523C25.3338 245.852 25.5636 245.172 25.8026 244.446L26.1334 243.361C26.2437 243.003 26.3173 242.607 26.4184 242.23C26.6298 241.311 26.8044 240.447 26.9515 239.528C28.1623 240.009 29.4391 240.304 30.7383 240.401C31.3251 240.396 31.904 240.265 32.4353 240.016C32.9667 239.767 33.4381 239.406 33.8174 238.958C33.9737 238.736 34.0813 238.483 34.1331 238.217C34.1849 237.95 34.1799 237.675 34.1183 237.411C34.0567 237.146 33.9399 236.897 33.7756 236.681C33.6113 236.465 33.4032 236.285 33.1648 236.155C31.7126 235.41 29.1115 236.789 28.082 237.819C28.0177 237.883 27.3559 238.738 27.0066 239.161C27.0894 238.609 27.1813 238.058 27.2548 237.497C27.4478 235.879 27.6041 234.234 27.7603 232.598C27.8155 232.092 27.8706 231.596 27.9166 231.091C29.1681 231.592 30.4881 231.902 31.8321 232.01C32.4194 232.008 32.9993 231.878 33.5311 231.628C34.0629 231.379 34.5339 231.017 34.9112 230.567C35.061 230.346 35.1633 230.097 35.2117 229.835C35.26 229.573 35.2532 229.304 35.1919 229.044C35.1305 228.785 35.0158 228.541 34.8551 228.329C34.6945 228.116 34.4913 227.939 34.2586 227.809C32.8156 227.056 30.2144 228.434 29.1758 229.464C29.1023 229.546 28.1556 230.723 27.9258 231.035C28.0453 229.932 28.1739 228.839 28.3394 227.763C28.5507 226.308 28.8577 224.868 29.2585 223.452C30.5173 223.951 31.843 224.261 33.1924 224.372C33.7792 224.367 34.3581 224.235 34.8894 223.986C35.4208 223.737 35.8922 223.376 36.2715 222.929C36.4263 222.706 36.5327 222.453 36.5838 222.187C36.6349 221.92 36.6295 221.646 36.568 221.382C36.5065 221.118 36.3902 220.869 36.2267 220.653C36.0633 220.436 35.8562 220.257 35.6189 220.125C34.1667 219.381 31.5655 220.759 30.5361 221.789C30.4534 221.872 29.4332 223.14 29.2677 223.388C29.2935 223.304 29.3149 223.218 29.332 223.131C29.7918 221.718 30.3762 220.35 31.0784 219.041C31.4461 218.315 31.8413 217.634 32.2457 216.991C33.4125 217.616 34.6678 218.059 35.9682 218.305C36.5517 218.367 37.1416 218.302 37.6971 218.113C38.2526 217.924 38.7604 217.616 39.1852 217.212C39.3641 217.008 39.4983 216.769 39.5792 216.51C39.66 216.251 39.6857 215.978 39.6545 215.709C39.6233 215.439 39.536 215.18 39.3981 214.946C39.2603 214.713 39.075 214.511 38.8543 214.353C37.494 213.434 34.7549 214.537 33.6152 215.447C33.5509 215.493 32.981 216.063 32.5674 216.485C32.7512 216.201 32.9351 215.897 33.1189 215.621C33.799 214.592 34.4884 213.7 35.1042 212.91L36.0969 211.688C37.4166 211.706 38.7313 211.52 39.994 211.136C40.5412 210.923 41.0352 210.593 41.4416 210.169C41.848 209.745 42.157 209.238 42.347 208.682C42.4113 208.419 42.4196 208.145 42.3712 207.879C42.3229 207.613 42.2191 207.359 42.0666 207.136C41.914 206.912 41.7161 206.723 41.4857 206.581C41.2553 206.439 40.9976 206.347 40.7293 206.311C39.1025 206.136 37.1815 208.36 36.584 209.684C36.5381 209.803 35.9406 211.697 35.9682 211.697C35.6557 212.046 35.334 212.423 34.9847 212.836C34.3505 213.618 33.6428 214.509 32.9351 215.52C32.163 216.609 31.4541 217.742 30.8119 218.912C30.0785 220.218 29.4633 221.587 28.9736 223.002V223.057C28.9736 222.579 28.9736 221.219 28.9736 221.136C28.7898 219.693 27.5765 217.009 25.9772 216.715C25.7073 216.674 25.4317 216.689 25.1683 216.762C24.905 216.834 24.6599 216.961 24.449 217.135C24.2382 217.308 24.0664 217.524 23.9448 217.769C23.8233 218.013 23.7547 218.281 23.7437 218.554C23.7695 219.138 23.9218 219.711 24.1899 220.231C24.4581 220.752 24.8358 221.208 25.297 221.568C26.4312 222.308 27.6707 222.872 28.9736 223.241C28.5193 224.696 28.1601 226.179 27.8982 227.681C27.7419 228.554 27.6133 229.436 27.4938 230.318C27.4938 229.905 27.4938 229.537 27.4938 229.491C27.3008 228.039 26.0967 225.364 24.4882 225.061C24.2188 225.019 23.9436 225.035 23.6808 225.107C23.4179 225.18 23.1734 225.307 22.9632 225.481C22.7531 225.654 22.5821 225.87 22.4616 226.115C22.341 226.36 22.2737 226.627 22.2639 226.899C22.2848 227.485 22.4339 228.06 22.7007 228.582C22.9675 229.105 23.3455 229.563 23.808 229.923C24.9008 230.645 26.0971 231.197 27.3559 231.559C27.3559 231.899 27.2732 232.239 27.2364 232.58C27.0342 234.216 26.8504 235.852 26.6114 237.451C26.5287 238.012 26.4276 238.563 26.3357 239.115C26.3357 238.747 26.3357 238.444 26.3357 238.398C26.1518 236.945 24.9386 234.271 23.3393 233.967C23.0694 233.926 22.7938 233.942 22.5304 234.014C22.2671 234.086 22.022 234.213 21.8111 234.387C21.6003 234.56 21.4285 234.776 21.3069 235.021C21.1854 235.265 21.1168 235.533 21.1058 235.806C21.1309 236.392 21.2828 236.966 21.5509 237.488C21.8191 238.01 22.1971 238.468 22.6591 238.83C23.7186 239.537 24.8813 240.077 26.1059 240.429C25.9864 240.99 25.8669 241.559 25.729 242.102C25.6187 242.46 25.5452 242.828 25.4257 243.186C25.3062 243.545 25.1867 243.903 25.0764 244.262C24.8283 244.933 24.5801 245.631 24.3227 246.284C24.1481 246.734 23.9735 247.203 23.7988 247.598C23.8908 247.038 24.0378 245.935 24.047 245.843C24.0311 244.551 23.6829 243.285 23.036 242.166C23.0543 242.026 23.0543 241.884 23.036 241.743C23.002 241.474 22.9118 241.216 22.7712 240.984C22.6306 240.752 22.4428 240.553 22.22 240.398C21.9971 240.244 21.7443 240.138 21.4779 240.088C21.2115 240.038 20.9375 240.044 20.6738 240.107C19.1021 240.521 18.1002 243.297 18.0267 244.749C18.0267 244.832 18.0267 245.769 18.1186 246.357C18.045 246.017 17.9715 245.686 17.8796 245.328C17.7142 244.639 17.5303 243.94 17.3373 243.196C17.227 242.846 17.1167 242.488 17.0064 242.12C16.9053 241.762 16.7583 241.385 16.6296 241.017C16.3171 240.162 15.9586 239.317 15.5818 238.471C16.8715 238.21 18.1121 237.748 19.2583 237.102C19.7466 236.777 20.1583 236.35 20.4647 235.85C20.771 235.35 20.9647 234.789 21.0322 234.206C21.0396 233.935 20.9898 233.666 20.886 233.415C20.7823 233.165 20.6269 232.939 20.4301 232.753C20.2332 232.566 19.9993 232.423 19.7436 232.333C19.4879 232.243 19.216 232.208 18.9458 232.23C17.3281 232.405 15.9218 234.988 15.6277 236.422C15.6277 236.504 15.5082 237.552 15.4715 238.131C15.2325 237.626 15.0027 237.12 14.7545 236.605C14.0284 235.153 13.2472 233.692 12.4751 232.239L11.7765 230.898C13.1003 230.629 14.3745 230.158 15.5542 229.5C16.0412 229.175 16.4514 228.748 16.7562 228.248C17.061 227.748 17.2531 227.187 17.3189 226.605C17.3417 226.316 17.2988 226.026 17.1936 225.757C17.0884 225.487 16.9236 225.244 16.7115 225.047C16.4993 224.85 16.2453 224.703 15.9685 224.618C15.6917 224.533 15.3993 224.512 15.113 224.555C13.4861 224.73 12.0799 227.313 11.7857 228.747C11.7857 228.848 11.6295 230.355 11.6111 230.741C11.0964 229.758 10.6 228.774 10.1405 227.782C9.52151 226.448 8.99034 225.076 8.55037 223.673C9.87893 223.397 11.1585 222.923 12.3464 222.267C12.8347 221.942 13.2464 221.515 13.5527 221.015C13.8591 220.515 14.0528 219.954 14.1203 219.372C14.1222 219.106 14.0693 218.843 13.9649 218.599C13.8605 218.355 13.7069 218.135 13.5137 217.953C13.3204 217.771 13.0917 217.631 12.8419 217.541C12.592 217.452 12.3263 217.414 12.0615 217.432C10.4346 217.607 9.02832 220.19 8.7342 221.623C8.7342 221.734 8.56876 223.351 8.55957 223.655L8.47684 223.407C8.07525 221.984 7.79846 220.529 7.64962 219.059C7.5577 218.25 7.52094 217.469 7.49336 216.715C8.81247 216.59 10.1048 216.264 11.3262 215.75C11.8462 215.48 12.3013 215.1 12.6599 214.637C13.0186 214.173 13.2723 213.637 13.4034 213.066C13.4409 212.799 13.4219 212.527 13.3476 212.267C13.2733 212.008 13.1454 211.767 12.9722 211.56C12.7989 211.353 12.5842 211.184 12.3418 211.065C12.0995 210.946 11.8349 210.88 11.5651 210.87C9.93827 210.87 8.25625 213.278 7.80587 214.666C7.80587 214.739 7.61285 215.539 7.50256 216.118C7.50256 215.769 7.50256 215.419 7.50256 215.088C7.50256 213.857 7.58528 212.726 7.668 211.724C7.668 211.154 7.76911 210.64 7.82425 210.162C8.93315 209.448 9.92524 208.568 10.7655 207.551C11.1015 207.072 11.3298 206.526 11.4345 205.95C11.5392 205.374 11.5179 204.782 11.3721 204.215C11.2815 203.96 11.1381 203.726 10.9514 203.53C10.7646 203.334 10.5385 203.179 10.2879 203.076C10.0374 202.972 9.76789 202.923 9.49703 202.931C9.22616 202.939 8.95998 203.004 8.71582 203.121C7.26358 203.875 6.87754 206.798 7.12571 208.222C7.12571 208.351 7.68638 210.254 7.71395 210.235C7.64962 210.695 7.58528 211.154 7.53013 211.733C7.42903 212.735 7.32792 213.866 7.30035 215.107C7.25034 216.44 7.28103 217.775 7.39226 219.105C7.50811 220.598 7.75727 222.078 8.13676 223.526V223.572C7.87941 223.168 7.12571 222.065 7.05218 221.991C6.13305 220.888 3.61461 219.316 2.10723 219.951C1.85876 220.063 1.63698 220.227 1.45651 220.432C1.27603 220.636 1.14095 220.877 1.06019 221.137C0.979416 221.398 0.954792 221.672 0.987929 221.943C1.02107 222.214 1.11121 222.475 1.25243 222.708C1.5956 223.177 2.03617 223.566 2.54387 223.848C3.05158 224.131 3.6144 224.3 4.19367 224.344V224.344ZM20.3797 245.696C21.3612 246.542 22.4564 247.248 23.6334 247.791C23.3393 248.508 23.0451 249.207 22.7143 249.85C21.74 252.111 20.876 253.949 20.1866 255.236C20.058 255.494 19.9385 255.714 19.8282 255.926H19.7179C19.7179 255.674 19.6811 255.399 19.6076 255.098C19.4146 253.665 19.1021 251.615 18.6149 249.179C18.4679 248.407 18.284 247.589 18.1002 246.743C18.8799 246.439 19.6411 246.089 20.3797 245.696V245.696Z" fill="#263238"/>
<path d="M32.1811 216.679C32.1811 216.679 32.6959 214.776 32.7142 214.647C32.9165 213.204 32.4569 210.3 30.9863 209.592C30.7381 209.481 30.4693 209.423 30.1974 209.423C29.9255 209.423 29.6567 209.481 29.4085 209.592C29.1603 209.703 28.9384 209.865 28.7573 210.068C28.5762 210.271 28.4399 210.509 28.3575 210.769C28.2255 211.341 28.2196 211.935 28.3402 212.509C28.4608 213.084 28.7051 213.625 29.0561 214.096C29.9634 215.108 31.0167 215.978 32.1811 216.679V216.679Z" fill="#263238"/>
<path d="M6.84961 267.488H350" stroke="#263238" stroke-width="2" stroke-linecap="round" stroke-linejoin="round"/>
<defs>
<linearGradient id="paint0_linear" x1="143.195" y1="215.667" x2="143.195" y2="52.061" gradientUnits="userSpaceOnUse">
<stop stop-color="#FF5E3A"/>
<stop offset="1" stop-color="#FF9500"/>
</linearGradient>
<linearGradient id="paint1_linear" x1="180.87" y1="205.814" x2="180.87" y2="90.0581" gradientUnits="userSpaceOnUse">
<stop stop-color="#FF5E3A"/>
<stop offset="1" stop-color="#FF9500"/>
</linearGradient>
<linearGradient id="paint2_linear" x1="207.952" y1="190.842" x2="207.952" y2="143.111" gradientUnits="userSpaceOnUse">
<stop stop-color="#FF5E3A"/>
<stop offset="1" stop-color="#FF9500"/>
</linearGradient>
<linearGradient id="paint3_linear" x1="228.256" y1="190.842" x2="228.256" y2="143.111" gradientUnits="userSpaceOnUse">
<stop stop-color="#FF5E3A"/>
<stop offset="1" stop-color="#FF9500"/>
</linearGradient>
<linearGradient id="paint4_linear" x1="100.156" y1="178.231" x2="100.156" y2="62.4751" gradientUnits="userSpaceOnUse">
<stop stop-color="#FF5E3A"/>
<stop offset="1" stop-color="#FF9500"/>
</linearGradient>
<linearGradient id="paint5_linear" x1="41.3085" y1="128.634" x2="41.3085" y2="101.785" gradientUnits="userSpaceOnUse">
<stop stop-color="#FF5E3A"/>
<stop offset="1" stop-color="#FF9500"/>
</linearGradient>
<linearGradient id="paint6_linear" x1="55.3233" y1="128.165" x2="55.3233" y2="106.906" gradientUnits="userSpaceOnUse">
<stop stop-color="#FF5E3A"/>
<stop offset="1" stop-color="#FF9500"/>
</linearGradient>
<linearGradient id="paint7_linear" x1="79.3178" y1="128.634" x2="79.3178" y2="101.786" gradientUnits="userSpaceOnUse">
<stop stop-color="#FF5E3A"/>
<stop offset="1" stop-color="#FF9500"/>
</linearGradient>
<linearGradient id="paint8_linear" x1="93.3521" y1="128.165" x2="93.3521" y2="106.942" gradientUnits="userSpaceOnUse">
<stop stop-color="#FF5E3A"/>
<stop offset="1" stop-color="#FF9500"/>
</linearGradient>
<linearGradient id="paint9_linear" x1="253.588" y1="202.799" x2="253.588" y2="168.047" gradientUnits="userSpaceOnUse">
<stop stop-color="#FF5E3A"/>
<stop offset="1" stop-color="#FF9500"/>
</linearGradient>
<linearGradient id="paint10_linear" x1="305.046" y1="267.415" x2="305.046" y2="183.13" gradientUnits="userSpaceOnUse">
<stop stop-color="#FF5E3A"/>
<stop offset="1" stop-color="#FF9500"/>
</linearGradient>
<linearGradient id="paint11_linear" x1="249.181" y1="267.788" x2="249.181" y2="187.349" gradientUnits="userSpaceOnUse">
<stop stop-color="#FF5E3A"/>
<stop offset="1" stop-color="#FF9500"/>
</linearGradient>
<linearGradient id="paint12_linear" x1="133.712" y1="238.869" x2="133.712" y2="186.97" gradientUnits="userSpaceOnUse">
<stop stop-color="#FF5E3A"/>
<stop offset="1" stop-color="#FF9500"/>
</linearGradient>
<linearGradient id="paint13_linear" x1="122.555" y1="220.263" x2="122.555" y2="154.83" gradientUnits="userSpaceOnUse">
<stop stop-color="#FF5E3A"/>
<stop offset="1" stop-color="#FF9500"/>
</linearGradient>
<linearGradient id="paint14_linear" x1="165.11" y1="157.403" x2="165.11" y2="115.757" gradientUnits="userSpaceOnUse">
<stop stop-color="#FF5E3A"/>
<stop offset="1" stop-color="#FF9500"/>
</linearGradient>
<linearGradient id="paint15_linear" x1="182.17" y1="251.008" x2="182.17" y2="155.942" gradientUnits="userSpaceOnUse">
<stop stop-color="#FF5E3A"/>
<stop offset="1" stop-color="#FF9500"/>
</linearGradient>
<linearGradient id="paint16_linear" x1="167.276" y1="222.146" x2="167.276" y2="212.312" gradientUnits="userSpaceOnUse">
<stop stop-color="#FF5E3A"/>
<stop offset="1" stop-color="#FF9500"/>
</linearGradient>
<linearGradient id="paint17_linear" x1="190.027" y1="220.456" x2="190.027" y2="200.759" gradientUnits="userSpaceOnUse">
<stop stop-color="#FF5E3A"/>
<stop offset="1" stop-color="#FF9500"/>
</linearGradient>
</defs>
</svg>
