<svg width="397" height="319" viewBox="0 0 397 319" fill="none" xmlns="http://www.w3.org/2000/svg">
<path d="M297.434 75.3103H356.874C357.041 74.5618 356.945 73.7787 356.602 73.0925C356.26 72.4062 355.691 71.8587 354.992 71.5416C352.407 70.027 351.221 71.2922 350.284 70.0271C349.348 68.7619 352.87 65.4922 345.826 62.2314C345.826 62.2314 345.353 55.1663 335.732 54.9257C326.111 54.6852 328.679 61.973 326.093 63.7371C323.507 65.5011 322.811 62.7303 320.225 64.4854C317.639 66.2406 318.816 69.7776 316.659 70.2854C314.501 70.7933 311.736 68.0135 309.124 69.7776C306.511 71.5416 306.547 73.0473 305.361 73.0473C304.175 73.0473 301.839 72.0406 300.421 73.0473C299.003 74.0541 297.434 75.3103 297.434 75.3103Z" fill="url(#paint0_linear)"/>
<path opacity="0.6" d="M297.434 75.3103H356.874C357.041 74.5618 356.945 73.7787 356.602 73.0925C356.26 72.4062 355.691 71.8587 354.992 71.5416C352.407 70.027 351.221 71.2922 350.284 70.0271C349.348 68.7619 352.87 65.4922 345.826 62.2314C345.826 62.2314 345.353 55.1663 335.732 54.9257C326.111 54.6852 328.679 61.973 326.093 63.7371C323.507 65.5011 322.811 62.7303 320.225 64.4854C317.639 66.2406 318.816 69.7776 316.659 70.2854C314.501 70.7933 311.736 68.0135 309.124 69.7776C306.511 71.5416 306.547 73.0473 305.361 73.0473C304.175 73.0473 301.839 72.0406 300.421 73.0473C299.003 74.0541 297.434 75.3103 297.434 75.3103Z" fill="white"/>
<path d="M94.7158 105.218H154.174C154.342 104.471 154.247 103.689 153.904 103.004C153.561 102.318 152.992 101.773 152.293 101.459C149.707 99.9441 148.521 101.2 147.584 99.9441C146.648 98.6879 150.17 95.4093 143.126 92.1395C143.126 92.1395 142.653 85.0833 133.032 84.8339C123.411 84.5844 125.979 91.8901 123.393 93.6452C120.807 95.4003 120.111 92.6385 117.525 94.4025C114.939 96.1665 116.116 99.6857 113.959 100.194C111.801 100.701 109.036 97.9306 106.424 99.6857C103.811 101.441 103.847 102.964 102.661 102.964C101.475 102.964 99.1386 101.958 97.7208 102.964C96.303 103.971 94.7158 105.218 94.7158 105.218Z" fill="url(#paint1_linear)"/>
<path opacity="0.8" d="M94.7158 105.218H154.174C154.342 104.471 154.247 103.689 153.904 103.004C153.561 102.318 152.992 101.773 152.293 101.459C149.707 99.9441 148.521 101.2 147.584 99.9441C146.648 98.6879 150.17 95.4093 143.126 92.1395C143.126 92.1395 142.653 85.0833 133.032 84.8339C123.411 84.5844 125.979 91.8901 123.393 93.6452C120.807 95.4003 120.111 92.6385 117.525 94.4025C114.939 96.1665 116.116 99.6857 113.959 100.194C111.801 100.701 109.036 97.9306 106.424 99.6857C103.811 101.441 103.847 102.964 102.661 102.964C101.475 102.964 99.1386 101.958 97.7208 102.964C96.303 103.971 94.7158 105.218 94.7158 105.218Z" fill="white"/>
<path d="M216.307 42.5237C218.189 41.1427 221.443 42.5237 223.039 42.5237C224.636 42.5237 224.653 40.4567 228.185 38.069C231.716 35.6813 235.568 39.441 238.448 38.755C241.328 38.069 239.741 33.2491 243.272 30.8435C246.803 28.438 247.73 32.2245 251.297 29.819C254.864 27.4134 251.297 17.435 264.485 17.7735C277.674 18.1121 278.289 27.7431 278.289 27.7431C287.919 32.1978 283.104 36.6524 284.388 38.4343C285.672 40.2162 287.277 38.4343 290.808 40.4923C294.339 42.5504 293.367 45.6508 293.367 45.6508H212.116C212.116 45.6508 214.363 43.9046 216.307 42.5237Z" fill="url(#paint2_linear)"/>
<path opacity="0.8" d="M216.307 42.5237C218.189 41.1427 221.443 42.5237 223.039 42.5237C224.636 42.5237 224.653 40.4567 228.185 38.069C231.716 35.6813 235.568 39.441 238.448 38.755C241.328 38.069 239.741 33.2491 243.272 30.8435C246.803 28.438 247.73 32.2245 251.297 29.819C254.864 27.4134 251.297 17.435 264.485 17.7735C277.674 18.1121 278.289 27.7431 278.289 27.7431C287.919 32.1978 283.104 36.6524 284.388 38.4343C285.672 40.2162 287.277 38.4343 290.808 40.4923C294.339 42.5504 293.367 45.6508 293.367 45.6508H212.116C212.116 45.6508 214.363 43.9046 216.307 42.5237Z" fill="white"/>
<path d="M366.727 139.163C366.727 139.163 355.75 128.009 343.543 128.009C331.336 128.009 323.409 134.709 309.373 136.918C295.338 139.128 280.081 135.43 270.326 135.43C260.571 135.43 250.183 134.7 241.034 139.154C231.885 143.609 222.727 133.951 212.954 133.951C203.181 133.951 194.042 133.951 184.277 134.7C174.513 135.448 167.193 131.724 156.822 133.951C146.452 136.179 140.959 136.9 134.86 136.9C128.761 136.9 125.051 130.958 114.725 130.218C104.4 129.479 100.681 133.925 96.41 133.925C92.1387 133.925 82.3836 130.958 80.5467 130.958C78.7098 130.958 68.9547 134.673 67.1713 136.9C65.3879 139.128 60.4569 139.137 51.9144 139.137C43.372 139.137 42.7656 138.397 36.6665 139.137C30.5673 139.876 26.8578 141.364 22.6312 141.364C18.4046 141.364 9.80863 146.594 9.80863 146.594L0 156.269H397L366.727 139.163Z" fill="url(#paint3_linear)"/>
<path opacity="0.1" d="M366.727 139.163C366.727 139.163 355.75 128.009 343.543 128.009C331.336 128.009 323.409 134.709 309.373 136.918C295.338 139.128 280.081 135.43 270.326 135.43C260.571 135.43 250.183 134.7 241.034 139.154C231.885 143.609 222.727 133.951 212.954 133.951C203.181 133.951 194.042 133.951 184.277 134.7C174.513 135.448 167.193 131.724 156.822 133.951C146.452 136.179 140.959 136.9 134.86 136.9C128.761 136.9 125.051 130.958 114.725 130.218C104.4 129.479 100.681 133.925 96.41 133.925C92.1387 133.925 82.3836 130.958 80.5467 130.958C78.7098 130.958 68.9547 134.673 67.1713 136.9C65.3879 139.128 60.4569 139.137 51.9144 139.137C43.372 139.137 42.7656 138.397 36.6665 139.137C30.5673 139.876 26.8578 141.364 22.6312 141.364C18.4046 141.364 9.80863 146.594 9.80863 146.594L0 156.269H397L366.727 139.163Z" fill="white"/>
<path d="M31.6641 255.385L50.7017 267.306L371.774 184.191L342.268 182.231V180.387L216.539 208.754L189.253 215.017L174.13 219.445L31.6641 255.385Z" fill="url(#paint4_linear)"/>
<path d="M63.7203 257.791C64.3999 257.791 64.9508 257.241 64.9508 256.562C64.9508 255.882 64.3999 255.332 63.7203 255.332C63.0407 255.332 62.4897 255.882 62.4897 256.562C62.4897 257.241 63.0407 257.791 63.7203 257.791Z" fill="white"/>
<path d="M97.5064 247.545C98.186 247.545 98.737 246.995 98.737 246.316C98.737 245.637 98.186 245.086 97.5064 245.086C96.8268 245.086 96.2759 245.637 96.2759 246.316C96.2759 246.995 96.8268 247.545 97.5064 247.545Z" fill="white"/>
<path d="M149.198 233.887C149.878 233.887 150.429 233.337 150.429 232.658C150.429 231.979 149.878 231.428 149.198 231.428C148.519 231.428 147.968 231.979 147.968 232.658C147.968 233.337 148.519 233.887 149.198 233.887Z" fill="white"/>
<path d="M165.453 229.379C165.455 229.624 165.384 229.865 165.249 230.069C165.114 230.274 164.921 230.434 164.695 230.529C164.468 230.625 164.219 230.65 163.978 230.604C163.737 230.557 163.515 230.44 163.341 230.267C163.167 230.094 163.048 229.873 162.999 229.633C162.951 229.392 162.975 229.143 163.068 228.916C163.162 228.689 163.32 228.495 163.525 228.359C163.729 228.222 163.969 228.15 164.214 228.15C164.375 228.147 164.535 228.177 164.685 228.236C164.835 228.296 164.971 228.385 165.086 228.498C165.201 228.61 165.293 228.744 165.356 228.893C165.419 229.041 165.452 229.2 165.453 229.361V229.379Z" fill="white"/>
<path d="M183.252 223.641C183.252 223.886 183.179 224.126 183.043 224.329C182.907 224.533 182.713 224.692 182.487 224.785C182.26 224.879 182.011 224.904 181.771 224.856C181.53 224.808 181.309 224.69 181.136 224.517C180.963 224.344 180.845 224.123 180.797 223.883C180.749 223.643 180.773 223.394 180.867 223.167C180.961 222.941 181.12 222.748 181.324 222.612C181.528 222.475 181.767 222.403 182.012 222.403C182.341 222.403 182.656 222.533 182.889 222.766C183.121 222.998 183.252 223.313 183.252 223.641V223.641Z" fill="white"/>
<path d="M225.501 214.207C226.18 214.207 226.731 213.656 226.731 212.977C226.731 212.298 226.18 211.748 225.501 211.748C224.821 211.748 224.27 212.298 224.27 212.977C224.27 213.656 224.821 214.207 225.501 214.207Z" fill="white"/>
<path d="M250.94 208.397C251.581 208.397 252.1 207.879 252.1 207.239C252.1 206.6 251.581 206.081 250.94 206.081C250.3 206.081 249.781 206.6 249.781 207.239C249.781 207.879 250.3 208.397 250.94 208.397Z" fill="white"/>
<path d="M283.282 200.379C283.284 200.61 283.217 200.836 283.09 201.029C282.963 201.222 282.782 201.373 282.569 201.463C282.356 201.553 282.122 201.578 281.895 201.535C281.668 201.491 281.459 201.382 281.294 201.22C281.13 201.058 281.017 200.851 280.97 200.625C280.923 200.399 280.945 200.164 281.031 199.95C281.118 199.736 281.266 199.553 281.458 199.423C281.649 199.293 281.874 199.223 282.105 199.221V199.221C282.412 199.221 282.707 199.343 282.925 199.56C283.142 199.778 283.264 200.072 283.264 200.379H283.282Z" fill="white"/>
<path d="M299.351 198.018C299.991 198.018 300.51 197.5 300.51 196.86C300.51 196.22 299.991 195.702 299.351 195.702C298.71 195.702 298.191 196.22 298.191 196.86C298.191 197.5 298.71 198.018 299.351 198.018Z" fill="white"/>
<path d="M314.741 192.485C314.755 192.638 314.738 192.792 314.692 192.938C314.646 193.084 314.571 193.22 314.473 193.338C314.374 193.455 314.254 193.552 314.118 193.623C313.982 193.694 313.833 193.737 313.68 193.751C313.527 193.764 313.373 193.747 313.227 193.701C313.081 193.655 312.945 193.581 312.827 193.482C312.71 193.384 312.613 193.263 312.542 193.127C312.471 192.992 312.427 192.843 312.414 192.69C312.405 192.622 312.405 192.553 312.414 192.485C312.426 192.332 312.469 192.183 312.539 192.047C312.61 191.91 312.707 191.789 312.825 191.69C312.943 191.592 313.079 191.517 313.226 191.472C313.373 191.426 313.527 191.411 313.68 191.425C313.953 191.451 314.208 191.571 314.402 191.764C314.595 191.958 314.716 192.213 314.741 192.485Z" fill="white"/>
<path d="M92.5845 252.739C93.2641 252.739 93.8151 252.189 93.8151 251.51C93.8151 250.831 93.2641 250.28 92.5845 250.28C91.9049 250.28 91.354 250.831 91.354 251.51C91.354 252.189 91.9049 252.739 92.5845 252.739Z" fill="white"/>
<path d="M86.8331 250.557C87.5127 250.557 88.0636 250.006 88.0636 249.327C88.0636 248.648 87.5127 248.098 86.8331 248.098C86.1535 248.098 85.6025 248.648 85.6025 249.327C85.6025 250.006 86.1535 250.557 86.8331 250.557Z" fill="white"/>
<path d="M110.49 243.447C110.49 243.69 110.418 243.928 110.282 244.13C110.147 244.332 109.955 244.49 109.73 244.583C109.505 244.676 109.258 244.7 109.019 244.653C108.781 244.605 108.561 244.488 108.389 244.316C108.217 244.144 108.1 243.925 108.052 243.687C108.005 243.448 108.029 243.201 108.122 242.976C108.216 242.752 108.373 242.56 108.576 242.424C108.778 242.289 109.016 242.217 109.259 242.217V242.217C109.586 242.217 109.899 242.347 110.129 242.577C110.36 242.808 110.49 243.121 110.49 243.447V243.447Z" fill="white"/>
<path d="M133.736 238.021C133.736 238.264 133.664 238.501 133.529 238.703C133.394 238.905 133.203 239.063 132.978 239.156C132.754 239.249 132.507 239.274 132.269 239.228C132.03 239.181 131.811 239.065 131.638 238.894C131.466 238.723 131.348 238.504 131.3 238.266C131.251 238.028 131.274 237.782 131.366 237.557C131.458 237.332 131.614 237.139 131.815 237.003C132.017 236.867 132.254 236.793 132.497 236.792C132.659 236.789 132.821 236.819 132.972 236.88C133.122 236.941 133.26 237.031 133.375 237.146C133.491 237.26 133.582 237.397 133.644 237.547C133.706 237.697 133.737 237.859 133.736 238.021V238.021Z" fill="white"/>
<path d="M121.181 244.409C121.179 244.652 121.106 244.889 120.97 245.09C120.833 245.291 120.64 245.447 120.415 245.539C120.19 245.631 119.943 245.654 119.705 245.605C119.467 245.557 119.249 245.439 119.077 245.267C118.906 245.094 118.79 244.875 118.743 244.637C118.696 244.399 118.721 244.152 118.815 243.928C118.908 243.704 119.066 243.512 119.268 243.378C119.47 243.243 119.708 243.171 119.951 243.171V243.171C120.113 243.171 120.274 243.203 120.424 243.265C120.574 243.328 120.71 243.419 120.824 243.534C120.938 243.649 121.029 243.786 121.09 243.936C121.151 244.086 121.182 244.247 121.181 244.409V244.409Z" fill="white"/>
<path d="M150.286 237.442C150.966 237.442 151.517 236.891 151.517 236.212C151.517 235.533 150.966 234.983 150.286 234.983C149.607 234.983 149.056 235.533 149.056 236.212C149.056 236.891 149.607 237.442 150.286 237.442Z" fill="white"/>
<path d="M188.308 224.327C188.987 224.327 189.538 223.777 189.538 223.098C189.538 222.419 188.987 221.868 188.308 221.868C187.628 221.868 187.077 222.419 187.077 223.098C187.077 223.777 187.628 224.327 188.308 224.327Z" fill="white"/>
<path d="M184.474 229.103C184.475 229.349 184.404 229.589 184.268 229.794C184.133 229.999 183.939 230.16 183.713 230.254C183.486 230.349 183.236 230.374 182.994 230.327C182.753 230.279 182.532 230.161 182.358 229.988C182.184 229.814 182.066 229.592 182.018 229.351C181.97 229.11 181.996 228.861 182.091 228.634C182.186 228.407 182.346 228.214 182.551 228.079C182.756 227.943 182.997 227.872 183.243 227.874V227.874C183.567 227.874 183.878 228.002 184.107 228.231C184.336 228.46 184.465 228.77 184.465 229.094L184.474 229.103Z" fill="white"/>
<path d="M241.64 214.073C242.32 214.073 242.871 213.522 242.871 212.843C242.871 212.164 242.32 211.614 241.64 211.614C240.961 211.614 240.41 212.164 240.41 212.843C240.41 213.522 240.961 214.073 241.64 214.073Z" fill="white"/>
<path d="M261.614 207.791C262.293 207.791 262.844 207.241 262.844 206.562C262.844 205.883 262.293 205.333 261.614 205.333C260.934 205.333 260.383 205.883 260.383 206.562C260.383 207.241 260.934 207.791 261.614 207.791Z" fill="white"/>
<path d="M274.74 203.96C275.419 203.96 275.97 203.41 275.97 202.731C275.97 202.052 275.419 201.501 274.74 201.501C274.06 201.501 273.509 202.052 273.509 202.731C273.509 203.41 274.06 203.96 274.74 203.96Z" fill="white"/>
<path d="M296.568 196.94C297.248 196.94 297.799 196.389 297.799 195.71C297.799 195.031 297.248 194.481 296.568 194.481C295.889 194.481 295.338 195.031 295.338 195.71C295.338 196.389 295.889 196.94 296.568 196.94Z" fill="white"/>
<path d="M305.048 192.165C305.22 191.992 305.439 191.875 305.678 191.827C305.917 191.78 306.164 191.804 306.389 191.897C306.614 191.99 306.807 192.148 306.942 192.35C307.077 192.552 307.15 192.79 307.15 193.033C307.15 193.276 307.077 193.514 306.942 193.717C306.807 193.919 306.614 194.076 306.389 194.169C306.164 194.262 305.917 194.287 305.678 194.239C305.439 194.191 305.22 194.074 305.048 193.902V193.902C304.818 193.671 304.688 193.359 304.688 193.033C304.688 192.707 304.818 192.395 305.048 192.165V192.165Z" fill="white"/>
<path d="M320.912 191.211C321.591 191.211 322.142 190.661 322.142 189.982C322.142 189.303 321.591 188.752 320.912 188.752C320.232 188.752 319.681 189.303 319.681 189.982C319.681 190.661 320.232 191.211 320.912 191.211Z" fill="white"/>
<path d="M263.201 204.148C263.881 204.148 264.432 203.597 264.432 202.918C264.432 202.239 263.881 201.689 263.201 201.689C262.522 201.689 261.971 202.239 261.971 202.918C261.971 203.597 262.522 204.148 263.201 204.148Z" fill="white"/>
<path d="M75.4815 253.568C75.4798 253.811 75.4061 254.048 75.2698 254.249C75.1336 254.45 74.9408 254.606 74.7158 254.698C74.4908 254.789 74.2436 254.812 74.0055 254.764C73.7674 254.715 73.549 254.598 73.3778 254.425C73.2066 254.253 73.0903 254.034 73.0435 253.796C72.9967 253.557 73.0216 253.311 73.115 253.087C73.2084 252.862 73.3661 252.671 73.5683 252.536C73.7705 252.401 74.008 252.33 74.251 252.33V252.33C74.4134 252.33 74.5741 252.362 74.724 252.424C74.8739 252.486 75.0099 252.578 75.1243 252.693C75.2387 252.808 75.3291 252.945 75.3904 253.095C75.4517 253.245 75.4827 253.406 75.4815 253.568V253.568Z" fill="white"/>
<path d="M172.569 301.028L173.104 236.899L200.89 229.29V313.483" fill="url(#paint5_linear)"/>
<path d="M172.569 301.028L173.104 236.899L200.89 229.29V313.483" stroke="#2E353A" stroke-width="1.05622" stroke-linecap="round" stroke-linejoin="round"/>
<path d="M175.057 219.258C175.057 219.258 170.402 219.979 170.055 221.717V222.804L174.87 221.735L175.057 219.258Z" fill="url(#paint6_linear)" stroke="#2E353A" stroke-width="1.05622" stroke-linecap="round" stroke-linejoin="round"/>
<path d="M179.319 29.3198L176.207 30.2375L176.903 67.2914L175.975 68.6813L176.314 109.308L175.173 110.573L175.28 160.216L174.246 161.712L175.057 221.619L177.714 221.271L177.367 161.712L178.053 159.752L177.821 110.689L179.096 108.274L178.749 68.5565L179.783 66.8281L179.319 29.3198Z" fill="url(#paint7_linear)" stroke="#2E353A" stroke-width="1.05622" stroke-linecap="round" stroke-linejoin="round"/>
<path d="M179.32 29.3198L185.178 30.7008C185.178 30.7008 188.344 130.69 188.344 130.316C188.344 129.942 189.967 193.02 189.967 193.02L190.216 218.046L177.733 221.271L177.385 161.713L178.071 159.752L177.84 110.689L179.115 108.265L178.767 68.5565L179.801 66.8281L179.32 29.3198Z" fill="#2E353A" stroke="#2E353A" stroke-width="1.05622" stroke-linecap="round" stroke-linejoin="round"/>
<path d="M185.722 29.908C185.722 29.908 185.214 26.3443 182.244 25.9166C179.275 25.489 176.234 27.6005 176.208 30.2376" fill="#2E353A"/>
<path d="M185.722 29.908C185.722 29.908 185.214 26.3443 182.244 25.9166C179.275 25.489 176.234 27.6005 176.208 30.2376" stroke="#2E353A" stroke-width="1.05622" stroke-linecap="round" stroke-linejoin="round"/>
<path d="M182.886 25.9164L182.244 23.208H180.568L179.792 25.9164" fill="#2E353A"/>
<path d="M182.886 25.9164L182.244 23.208H180.568L179.792 25.9164" stroke="#2E353A" stroke-width="1.05622" stroke-linecap="round" stroke-linejoin="round"/>
<path d="M178.883 26.4067C178.883 26.4067 70.4348 88.2464 7.22266 115.776" stroke="#2E353A" stroke-width="3.16867" stroke-linecap="round" stroke-linejoin="round"/>
<path d="M196.823 40.1807L202.28 44.8581" stroke="#2E353A" stroke-width="3.16867" stroke-linecap="round" stroke-linejoin="round"/>
<path d="M212.687 53.1611C212.687 53.1611 310.978 138.691 366.37 156.839" stroke="#2E353A" stroke-width="3.16867" stroke-linecap="round" stroke-linejoin="round"/>
<path d="M181.058 41.784V51.5932L184.866 52.0564V48.7154L185.454 47.9047L185.222 45.8199L185.918 43.744L186.025 43.1738L187.871 42.8175L187.987 42.0156L203.119 39.0132L203.012 36.5898L181.058 41.784Z" fill="#2E353A" stroke="#2E353A" stroke-width="1.05622" stroke-linecap="round" stroke-linejoin="round"/>
<path d="M181.058 31.6185V41.7841L203.012 36.5899V25.6226L181.058 31.6185Z" fill="url(#paint8_linear)" stroke="#2E353A" stroke-width="1.05622" stroke-linecap="round" stroke-linejoin="round"/>
<path d="M183.002 32.3135L182.984 38.9777" stroke="#2E353A" stroke-width="1.05622" stroke-linecap="round" stroke-linejoin="round"/>
<path d="M184.679 31.9038L184.652 38.5769" stroke="#2E353A" stroke-width="1.05622" stroke-linecap="round" stroke-linejoin="round"/>
<path d="M186.346 31.5029L186.328 38.176" stroke="#2E353A" stroke-width="1.05622" stroke-linecap="round" stroke-linejoin="round"/>
<path d="M188.022 31.0928L187.996 37.7659" stroke="#2E353A" stroke-width="1.05622" stroke-linecap="round" stroke-linejoin="round"/>
<path d="M189.69 30.6919L189.672 37.365" stroke="#2E353A" stroke-width="1.05622" stroke-linecap="round" stroke-linejoin="round"/>
<path d="M191.366 30.291L191.339 36.9552" stroke="#2E353A" stroke-width="1.05622" stroke-linecap="round" stroke-linejoin="round"/>
<path d="M193.034 29.8813L193.016 36.5544" stroke="#2E353A" stroke-width="1.05622" stroke-linecap="round" stroke-linejoin="round"/>
<path d="M194.71 29.4805L194.692 36.1536" stroke="#2E353A" stroke-width="1.05622" stroke-linecap="round" stroke-linejoin="round"/>
<path d="M196.378 29.0703L196.36 35.7434" stroke="#2E353A" stroke-width="1.05622" stroke-linecap="round" stroke-linejoin="round"/>
<path d="M198.054 28.6694L198.036 35.3425" stroke="#2E353A" stroke-width="1.05622" stroke-linecap="round" stroke-linejoin="round"/>
<path d="M199.721 28.2598L199.704 34.9328" stroke="#2E353A" stroke-width="1.05622" stroke-linecap="round" stroke-linejoin="round"/>
<path d="M201.398 27.8589L201.38 34.532" stroke="#2E353A" stroke-width="1.05622" stroke-linecap="round" stroke-linejoin="round"/>
<path d="M181.058 80.5398V91.4805L184.866 91.9438V88.5938L185.454 87.792L185.222 85.7161L185.918 83.6314L186.025 83.0612L187.871 82.7137L187.987 81.9029L203.119 80.0676L203.012 77.6265L181.058 80.5398Z" fill="#2E353A" stroke="#2E353A" stroke-width="1.05622" stroke-linecap="round" stroke-linejoin="round"/>
<path d="M181.058 70.3475V80.4953L203.012 77.6265V66.668L181.058 70.3475Z" fill="url(#paint9_linear)" stroke="#2E353A" stroke-width="1.05622" stroke-linecap="round" stroke-linejoin="round"/>
<path d="M183.002 71.2383L182.984 77.9114" stroke="#2E353A" stroke-width="1.05622" stroke-linecap="round" stroke-linejoin="round"/>
<path d="M184.679 71.0068L184.652 77.6799" stroke="#2E353A" stroke-width="1.05622" stroke-linecap="round" stroke-linejoin="round"/>
<path d="M186.346 70.7749L186.328 77.448" stroke="#2E353A" stroke-width="1.05622" stroke-linecap="round" stroke-linejoin="round"/>
<path d="M188.022 70.5522L187.996 77.2253" stroke="#2E353A" stroke-width="1.05622" stroke-linecap="round" stroke-linejoin="round"/>
<path d="M189.69 70.3296L189.672 77.0027" stroke="#2E353A" stroke-width="1.05622" stroke-linecap="round" stroke-linejoin="round"/>
<path d="M191.366 70.0981L191.339 76.7712" stroke="#2E353A" stroke-width="1.05622" stroke-linecap="round" stroke-linejoin="round"/>
<path d="M193.034 69.875L193.016 76.5481" stroke="#2E353A" stroke-width="1.05622" stroke-linecap="round" stroke-linejoin="round"/>
<path d="M194.71 69.6436L194.692 76.3166" stroke="#2E353A" stroke-width="1.05622" stroke-linecap="round" stroke-linejoin="round"/>
<path d="M196.378 69.4121L196.36 76.0852" stroke="#2E353A" stroke-width="1.05622" stroke-linecap="round" stroke-linejoin="round"/>
<path d="M198.054 69.1895L198.036 75.8625" stroke="#2E353A" stroke-width="1.05622" stroke-linecap="round" stroke-linejoin="round"/>
<path d="M199.721 68.9663L199.704 75.6305" stroke="#2E353A" stroke-width="1.05622" stroke-linecap="round" stroke-linejoin="round"/>
<path d="M201.398 68.7349L201.38 75.408" stroke="#2E353A" stroke-width="1.05622" stroke-linecap="round" stroke-linejoin="round"/>
<path d="M181.058 122.601V135.27L184.866 135.11V131.1L185.454 130.352L185.222 128.249L185.918 126.254L186.025 125.683L187.871 125.55L187.987 124.757L203.119 124.623L203.012 122.182L181.058 122.601Z" fill="#2E353A" stroke="#2E353A" stroke-width="1.05622" stroke-linecap="round" stroke-linejoin="round"/>
<path d="M181.058 112.417V122.574L203.012 122.182V111.214L181.058 112.417Z" fill="url(#paint10_linear)" stroke="#2E353A" stroke-width="1.05622" stroke-linecap="round" stroke-linejoin="round"/>
<path d="M183.002 113.531L182.984 120.195" stroke="#2E353A" stroke-width="1.05622" stroke-linecap="round" stroke-linejoin="round"/>
<path d="M184.679 113.495L184.652 120.15" stroke="#2E353A" stroke-width="1.05622" stroke-linecap="round" stroke-linejoin="round"/>
<path d="M186.346 113.442L186.328 120.115" stroke="#2E353A" stroke-width="1.05622" stroke-linecap="round" stroke-linejoin="round"/>
<path d="M188.022 113.406L187.996 120.079" stroke="#2E353A" stroke-width="1.05622" stroke-linecap="round" stroke-linejoin="round"/>
<path d="M189.69 113.371L189.672 120.044" stroke="#2E353A" stroke-width="1.05622" stroke-linecap="round" stroke-linejoin="round"/>
<path d="M191.366 113.335L191.339 120.008" stroke="#2E353A" stroke-width="1.05622" stroke-linecap="round" stroke-linejoin="round"/>
<path d="M193.034 113.291L193.016 119.964" stroke="#2E353A" stroke-width="1.05622" stroke-linecap="round" stroke-linejoin="round"/>
<path d="M194.71 113.255L194.692 119.919" stroke="#2E353A" stroke-width="1.05622" stroke-linecap="round" stroke-linejoin="round"/>
<path d="M196.378 113.219L196.36 119.883" stroke="#2E353A" stroke-width="1.05622" stroke-linecap="round" stroke-linejoin="round"/>
<path d="M198.054 113.175L198.036 119.848" stroke="#2E353A" stroke-width="1.05622" stroke-linecap="round" stroke-linejoin="round"/>
<path d="M199.721 113.139L199.704 119.803" stroke="#2E353A" stroke-width="1.05622" stroke-linecap="round" stroke-linejoin="round"/>
<path d="M201.398 113.094L201.38 119.767" stroke="#2E353A" stroke-width="1.05622" stroke-linecap="round" stroke-linejoin="round"/>
<path d="M181.058 174.337V187.006L184.866 186.507V183.157L185.454 182.471L185.222 180.342L185.918 178.408L186.025 177.847L187.871 177.865L187.987 177.09L203.119 178.257L203.012 175.798L181.058 174.337Z" fill="#2E353A" stroke="#2E353A" stroke-width="1.05622" stroke-linecap="round" stroke-linejoin="round"/>
<path d="M181.058 164.145V174.311L203.012 175.798V164.822L181.058 164.145Z" fill="url(#paint11_linear)" stroke="#2E353A" stroke-width="1.05622" stroke-linecap="round" stroke-linejoin="round"/>
<path d="M183.002 165.428L182.984 172.101" stroke="#2E353A" stroke-width="1.05622" stroke-linecap="round" stroke-linejoin="round"/>
<path d="M184.679 165.535L184.652 172.199" stroke="#2E353A" stroke-width="1.05622" stroke-linecap="round" stroke-linejoin="round"/>
<path d="M186.346 165.633L186.328 172.306" stroke="#2E353A" stroke-width="1.05622" stroke-linecap="round" stroke-linejoin="round"/>
<path d="M188.022 165.74L187.996 172.413" stroke="#2E353A" stroke-width="1.05622" stroke-linecap="round" stroke-linejoin="round"/>
<path d="M189.69 165.837L189.672 172.51" stroke="#2E353A" stroke-width="1.05622" stroke-linecap="round" stroke-linejoin="round"/>
<path d="M191.366 165.944L191.339 172.617" stroke="#2E353A" stroke-width="1.05622" stroke-linecap="round" stroke-linejoin="round"/>
<path d="M193.034 166.061L193.016 172.725" stroke="#2E353A" stroke-width="1.05622" stroke-linecap="round" stroke-linejoin="round"/>
<path d="M194.71 166.158L194.692 172.822" stroke="#2E353A" stroke-width="1.05622" stroke-linecap="round" stroke-linejoin="round"/>
<path d="M196.378 166.265L196.36 172.929" stroke="#2E353A" stroke-width="1.05622" stroke-linecap="round" stroke-linejoin="round"/>
<path d="M198.054 166.372L198.036 173.027" stroke="#2E353A" stroke-width="1.05622" stroke-linecap="round" stroke-linejoin="round"/>
<path d="M199.721 166.47L199.704 173.134" stroke="#2E353A" stroke-width="1.05622" stroke-linecap="round" stroke-linejoin="round"/>
<path d="M201.398 166.577L201.38 173.241" stroke="#2E353A" stroke-width="1.05622" stroke-linecap="round" stroke-linejoin="round"/>
<path d="M186.025 43.165L181.504 42.1582" stroke="url(#paint12_linear)" stroke-width="0.528112" stroke-linecap="round" stroke-linejoin="round"/>
<path d="M185.454 47.9049L181.388 47.1387" stroke="url(#paint13_linear)" stroke-width="0.528112" stroke-linecap="round" stroke-linejoin="round"/>
<path d="M186.025 83.0609L181.388 82.749" stroke="url(#paint14_linear)" stroke-width="0.528112" stroke-linecap="round" stroke-linejoin="round"/>
<path d="M185.455 87.7921L181.264 87.2397" stroke="url(#paint15_linear)" stroke-width="0.528112" stroke-linecap="round" stroke-linejoin="round"/>
<path d="M186.025 125.692H181.076" stroke="url(#paint16_linear)" stroke-width="0.528112" stroke-linecap="round" stroke-linejoin="round"/>
<path d="M184.866 131.1H181.139" stroke="url(#paint17_linear)" stroke-width="0.528112" stroke-linecap="round" stroke-linejoin="round"/>
<path d="M180.898 183.05L184.866 183.157" stroke="url(#paint18_linear)" stroke-width="0.528112" stroke-linecap="round" stroke-linejoin="round"/>
<path d="M181.156 177.562L186.025 177.848" stroke="url(#paint19_linear)" stroke-width="0.528112" stroke-linecap="round" stroke-linejoin="round"/>
<path d="M184.848 245.63L191.768 243.545" stroke="#2E353A" stroke-width="1.05622" stroke-linecap="round" stroke-linejoin="round"/>
<path d="M182.913 234.573L176.315 236.596L175.209 306.133L179.115 305.206L182.378 307.371L182.913 234.573Z" fill="#2E353A" stroke="#2E353A" stroke-width="1.05622" stroke-linecap="round" stroke-linejoin="round"/>
<path d="M185.231 262.272V281.303L190.261 275.44C190.579 274.845 190.769 274.188 190.817 273.514C190.864 272.84 190.769 272.164 190.537 271.529C189.743 269.542 185.231 262.272 185.231 262.272Z" fill="#2E353A" stroke="#2E353A" stroke-width="1.05622" stroke-linecap="round" stroke-linejoin="round"/>
<path d="M200.649 270.38L196.725 273.204C196.725 273.204 195.62 274.879 196.458 276.278C197.296 277.677 200.372 286.63 200.372 286.63L200.649 270.38Z" fill="#2E353A" stroke="#2E353A" stroke-width="1.05622" stroke-linecap="round" stroke-linejoin="round"/>
<path d="M188.049 282.684L192.249 277.97C192.249 277.97 193.087 277.133 194.487 279.369C196.049 282.369 197.448 285.45 198.678 288.599L188.049 282.684Z" fill="#2E353A" stroke="#2E353A" stroke-width="1.05622" stroke-linecap="round" stroke-linejoin="round"/>
<path d="M196.627 230.591L189.779 232.48L187.897 235.108V236.551L200.051 239.5L200.105 237.415C200.105 237.415 198.268 233.691 196.627 230.591Z" fill="#2E353A" stroke="#2E353A" stroke-width="1.05622" stroke-linecap="round" stroke-linejoin="round"/>
<path d="M200.087 241.282L196.726 243.242C197.01 244.217 197.386 245.162 197.849 246.066C198.687 247.741 200.676 251.091 200.676 251.091L200.087 241.282Z" fill="#2E353A" stroke="#2E353A" stroke-width="1.05622" stroke-linecap="round" stroke-linejoin="round"/>
<path d="M191.768 243.545L186.462 251.091H184.848V245.63" fill="#2E353A"/>
<path d="M191.768 243.545L186.462 251.091H184.848V245.63" stroke="#2E353A" stroke-width="1.05622" stroke-linecap="round" stroke-linejoin="round"/>
<path d="M200.061 258.477L187.907 255.59V254.138L193.364 246.432C193.364 246.432 194.166 245.149 195.941 248.356C197.715 251.563 200.123 256.374 200.123 256.374L200.061 258.477Z" fill="#2E353A" stroke="#2E353A" stroke-width="1.05622" stroke-linecap="round" stroke-linejoin="round"/>
<path d="M200.595 262.486L187.746 258.798V260.232L193.524 270.193C193.808 270.416 194.166 270.523 194.525 270.491C194.885 270.46 195.219 270.293 195.459 270.024C196.396 269.079 200.515 264.464 200.515 264.464L200.595 262.486" fill="#2E353A"/>
<path d="M200.595 262.486L187.746 258.798V260.232L193.524 270.193C193.808 270.416 194.166 270.523 194.525 270.491C194.885 270.46 195.219 270.293 195.459 270.024C196.396 269.079 200.515 264.464 200.515 264.464L200.595 262.486" stroke="#2E353A" stroke-width="1.05622" stroke-linecap="round" stroke-linejoin="round"/>
<path d="M185.231 289.553V308.592L190.261 304.084C190.596 303.507 190.795 302.861 190.843 302.196C190.891 301.53 190.786 300.863 190.537 300.244C189.743 298.026 185.231 289.553 185.231 289.553Z" fill="#2E353A" stroke="#2E353A" stroke-width="1.05622" stroke-linecap="round" stroke-linejoin="round"/>
<path d="M200.649 301.865L196.725 303.594C196.405 304.02 196.211 304.526 196.164 305.057C196.116 305.587 196.218 306.12 196.458 306.596C197.296 308.226 200.372 318 200.372 318L200.649 301.865Z" fill="#2E353A" stroke="#2E353A" stroke-width="1.05622" stroke-linecap="round" stroke-linejoin="round"/>
<path d="M200.595 293.909L187.746 286.782V288.216L193.524 299.736C193.524 299.736 194.469 300.805 195.459 300.092C196.449 299.38 200.515 295.896 200.515 295.896L200.595 293.945" fill="#2E353A"/>
<path d="M200.595 293.909L187.746 286.782V288.216L193.524 299.736C193.524 299.736 194.469 300.805 195.459 300.092C196.449 299.38 200.515 295.896 200.515 295.896L200.595 293.945" stroke="#2E353A" stroke-width="1.05622" stroke-linecap="round" stroke-linejoin="round"/>
<path d="M204.394 228.381L200.578 227.731V277.623" stroke="#2E353A" stroke-width="1.05622" stroke-linecap="round" stroke-linejoin="round"/>
<path d="M47.7856 266.762L371.051 182.035" stroke="#2E353A" stroke-width="1.05622" stroke-linecap="round" stroke-linejoin="round"/>
<path d="M216.842 211.115L346.084 181.26" stroke="#2E353A" stroke-width="1.05622" stroke-linecap="round" stroke-linejoin="round"/>
<path d="M19.0552 262.326L200.506 215.329" stroke="#2E353A" stroke-width="1.05622" stroke-linecap="round" stroke-linejoin="round"/>
<path d="M190.225 214.937L346.815 179.585" stroke="#2E353A" stroke-width="1.05622" stroke-linecap="round" stroke-linejoin="round"/>
<path d="M358.791 193.287C358.74 193.232 358.676 193.192 358.604 193.171L347.663 190.499L371.738 184.164L371.498 183.22L345.121 190.16C345.043 190.099 344.944 190.071 344.845 190.08C344.765 190.088 344.687 190.115 344.619 190.158C344.551 190.201 344.494 190.26 344.453 190.329V190.329L240.124 217.734V216.924L233.74 218.617V219.409L197.466 228.942L197.145 228.773L196.993 229.058L153.568 240.516L152.471 240.017C152.3 239.925 152.105 239.891 151.913 239.92C151.722 239.948 151.545 240.039 151.41 240.177L141.084 242.992V243.83L118.479 249.781L117.802 249.425C117.569 249.31 117.301 249.29 117.053 249.368C116.806 249.446 116.598 249.616 116.473 249.844C116.408 249.996 116.378 250.16 116.384 250.325L23.7637 274.621L24.0133 275.565L43.9516 270.335C43.8868 270.546 43.8977 270.772 43.9823 270.976C44.067 271.179 44.2202 271.346 44.4153 271.449L62.3116 281.178L63.3816 282.398L38.539 289.927L38.8155 290.818L92.763 274.54C92.8493 274.569 92.9395 274.584 93.0305 274.585C93.1726 274.59 93.314 274.561 93.4427 274.501C93.5715 274.441 93.6839 274.35 93.7706 274.237L141.03 259.983V261.47L152.078 257.907V256.65L171.401 250.842L171.963 251.1C172.088 251.16 172.226 251.191 172.364 251.189C172.555 251.202 172.744 251.153 172.904 251.05C173.065 250.948 173.188 250.797 173.256 250.619C173.31 250.508 173.341 250.386 173.345 250.262L233.74 232.034V233.504L240.133 231.544V230.11L368.68 191.336L368.395 190.392L358.791 193.287ZM127.307 249.755L133.478 257.488L127.307 254.307V249.755ZM125.987 248.748L123.687 252.436L119.737 250.396L125.987 248.748ZM103.865 255.947L110.285 262.789L103.865 259.466V255.947ZM102.741 254.86L100.958 257.951L97.5959 256.214L102.741 254.86ZM95.6075 256.748C95.5905 256.94 95.6327 257.133 95.7284 257.3C95.824 257.467 95.9685 257.601 96.1425 257.684L99.9857 259.671L92.6649 272.286L86.8867 269.159L77.4704 261.533L95.6075 256.748ZM82.0983 266.549L76.8819 263.716V262.352L82.0983 266.549ZM75.0272 262.718L74.3227 262.344L75.4106 262.049L75.0272 262.718ZM45.6815 269.845L51.5489 268.304L51.317 268.509L58.6111 276.919L45.6815 269.845ZM61.1257 278.22L52.2801 268.117L72.4769 262.771C72.4399 262.971 72.4675 263.177 72.5557 263.359C72.6439 263.542 72.7881 263.692 72.9674 263.787L74.0463 264.366L64.844 280.26L61.1257 278.22ZM65.272 281.784L65.388 281.632C65.4656 281.475 65.4994 281.299 65.486 281.124L74.9023 264.856L75.901 265.39V278.567L65.272 281.784ZM76.8641 278.282V265.987L90.5426 273.4L91.2738 273.997L76.8641 278.282ZM102.884 270.424L93.8687 273.177C93.7866 272.997 93.6532 272.845 93.4852 272.741L100.815 260.107L102.875 261.167L102.884 270.424ZM102.884 258.931L101.805 258.37L102.884 256.49V258.931ZM103.829 270.139V261.666L114.19 267.012L103.829 270.139ZM112.871 264.108L103.865 254.521L116.857 251.109L122.617 254.085L115.537 265.506L112.871 264.108ZM126.246 263.359L116.437 266.353C116.406 266.25 116.358 266.154 116.295 266.068L123.428 254.566L126.255 256.009L126.246 263.359ZM126.246 253.773L124.463 252.828L126.246 250.004V253.773ZM127.182 263.056V256.472L135.27 260.669L127.182 263.056ZM140.914 258.922L137.811 259.858L140.914 254.984V258.922ZM140.914 253.158L136.937 259.395C136.854 259.298 136.755 259.216 136.643 259.154L135.493 258.557L127.459 248.409L141.084 244.846L140.914 253.158ZM224.011 224.354L224.101 224.176L228.889 231.455L224.011 229.7V224.354ZM151.98 255.653V248.81L156.689 254.236L151.98 255.653ZM151.98 247.305V241.959L160.897 246.048L157.384 253.577L151.98 247.305ZM164.205 251.973L158.481 253.701L161.851 246.485L164.205 247.563V251.973ZM164.205 245.389L162.681 244.694L164.205 241.415V245.389ZM165.195 251.626V247.964L170.028 250.164L165.195 251.626ZM165.195 245.799V240.507L172.623 249.202L165.195 245.799ZM180.773 246.93L174.585 248.81L180.773 236.658V246.93ZM180.818 234.368L173.515 248.73L165.035 238.859C164.982 238.795 164.915 238.747 164.838 238.717C164.762 238.688 164.679 238.678 164.598 238.689C164.517 238.699 164.44 238.729 164.373 238.775C164.306 238.822 164.252 238.884 164.214 238.957L161.744 244.249L154.878 241.113L180.845 234.297L180.818 234.368ZM181.763 246.627V236.025L188.629 244.596L181.763 246.627ZM181.656 234.27C181.602 234.213 181.538 234.165 181.469 234.128L196.369 230.216L189.316 243.866L181.656 234.27ZM190.35 244.07L197.662 229.949L211.786 226.252L220.623 229.343L217.44 235.936L190.35 244.07ZM223.138 234.27L218.733 235.598L221.55 229.7L223.12 230.243L223.138 234.27ZM223.138 229.459L221.898 229.032L223.138 226.448V229.459ZM223.138 224.185L220.962 228.64L213.079 225.887L223.138 223.214V224.185ZM223.601 223.24H223.441L223.619 223.196L223.601 223.24ZM224.118 233.994V230.51L229.326 232.292L224.118 233.994ZM224.546 222.973L225.991 222.581L233.713 225.254L230.004 231.223L224.546 222.973ZM233.82 231.045L230.681 231.989L233.82 226.929V231.045ZM233.82 224.514L227.222 222.225L233.82 220.505V224.514ZM343.802 191.55L342.357 194.098L338.282 193.002L343.802 191.55ZM334.581 194.009L332.7 197.198L327.742 195.844L334.581 194.009ZM335.018 195.212V197.885L333.663 197.501L335.018 195.212ZM325.807 197.555L328.411 201.457L325.807 200.718V197.555ZM324.38 196.61L322.704 199.791L317.702 198.366L324.38 196.61ZM315.615 200.174L318.816 204.495L315.615 203.56V200.174ZM314.331 199.23L312.771 202.749L307.117 201.127L314.331 199.23ZM306.44 202.874L309.783 207.043L306.44 206.045V202.874ZM305.325 201.591L303.444 205.155L298.022 203.524L305.325 201.591ZM295.338 204.264L292.832 208.718L286.109 206.696L295.338 204.264ZM283.202 207.507L281.16 211.489L275.159 209.609L283.202 207.507ZM283.309 209.458V212.131L282.114 211.765L283.309 209.458ZM270.478 210.856L268.855 214.732L262.845 212.852L270.478 210.856ZM240.231 229.103V227.472L242.683 228.363L240.231 229.103ZM240.231 226.724V223.757L242.737 227.561L240.231 226.724ZM240.231 222.02V219.766L246.473 221.966L243.718 227.365L240.231 222.02ZM249.148 226.475L244.574 227.802L247.401 222.269L249.113 222.875L249.148 226.475ZM249.148 222.136L247.775 221.664L249.148 218.991V222.136ZM249.612 216.425C249.527 216.431 249.444 216.459 249.373 216.506C249.301 216.553 249.242 216.617 249.202 216.692L246.83 221.334L240.24 219.017V218.875L249.737 216.38C249.733 216.39 249.73 216.401 249.73 216.411C249.73 216.422 249.733 216.433 249.737 216.443C249.696 216.409 249.646 216.388 249.594 216.38L249.612 216.425ZM250.138 226.225V223.249L254.597 224.817L250.138 226.225ZM250.138 222.51V218.447L253.91 223.793L250.138 222.51ZM250.076 216.71L257.539 219.035L255.167 223.891L250.076 216.71ZM259.884 223.294L255.979 224.354L258.484 219.222L259.84 219.65L259.884 223.294ZM259.884 218.982L258.787 218.563L259.822 216.443L259.884 218.982ZM260.874 223V220.069L265.654 221.557L260.874 223ZM260.874 219.294V215.73L264.789 220.434L260.874 219.294ZM260.758 214.099C260.707 214.035 260.639 213.985 260.563 213.956C260.486 213.926 260.403 213.917 260.321 213.93C260.239 213.941 260.162 213.972 260.095 214.02C260.028 214.068 259.974 214.132 259.938 214.206L257.887 218.358L250.753 216.131L261.668 213.262C261.686 213.305 261.714 213.344 261.75 213.375C261.785 213.405 261.827 213.428 261.873 213.44L268.552 215.525L266.322 220.871L260.758 214.099ZM270.567 220.069L267.321 221.004L269.506 215.792L270.567 216.122V220.069ZM270.567 215.365L269.782 215.115L270.567 213.235V215.365ZM271.512 219.748V216.336L276.907 218.02L271.512 219.748ZM271.512 215.668V211.881L277.156 217.325L271.512 215.668ZM271.512 210.66L273.732 210.072L280.741 212.246L278.235 217.138L271.512 210.66ZM279.189 217.414L281.686 212.549L283.229 213.021V216.175H283.318L279.189 217.414ZM284.21 215.899V213.333L288.401 214.634L284.21 215.899ZM284.21 212.558V208.79L288.855 214.001L284.21 212.558ZM284.21 207.319L284.682 207.195L292.404 209.52L289.997 213.663L284.21 207.319ZM295.472 212.514L291.129 213.823L293.367 209.814L295.472 210.438V212.514ZM295.472 209.689L293.742 209.164L295.472 206.09V209.689ZM296.408 212.22V210.75L298.851 211.489L296.408 212.22ZM296.408 209.983V205.814L299.975 211.052L296.408 209.983ZM296.408 204.103H296.524L302.98 206.045L300.697 210.322L296.408 204.103ZM305.325 209.52L301.651 210.625L303.925 206.304L305.325 206.714V209.52ZM305.325 205.956L304.273 205.653L305.325 203.676V205.956ZM306.261 209.244V206.99L309.944 208.095L306.261 209.244ZM306.698 202.045L312.289 203.649L310.898 207.079L306.698 202.045ZM314.447 206.749L311.62 207.64L313.27 203.925L314.474 204.272L314.447 206.749ZM314.447 203.488L313.502 203.221L314.447 201.181V203.488ZM315.437 206.455V204.531L318.727 205.475L315.437 206.455ZM315.669 199.025L316.132 198.9L322.169 200.637L319.967 204.825L315.669 199.025ZM324.639 203.676L321.126 204.736L323.141 200.905L324.639 201.341V203.676ZM324.639 200.566L323.489 200.237L324.639 198.054V200.566ZM325.629 203.39V201.609L328.634 202.5L325.629 203.39ZM329.695 202.018L325.932 196.37L326.208 196.299L332.138 197.982L329.713 202.045L329.695 202.018ZM330.997 201.769L333.092 198.205L334.876 198.704V200.299H335.562L330.997 201.769ZM335.821 200.317V199.007L338.05 199.649L335.821 200.317ZM335.821 198.241V194.953L338.639 198.927L335.821 198.241ZM336.035 193.688L336.873 193.465C336.92 193.542 336.993 193.599 337.078 193.626L341.786 194.891L339.593 198.731L336.035 193.688ZM344.256 197.76L340.69 198.847L342.794 195.158L344.265 195.55L344.256 197.76ZM344.256 194.793L343.16 194.499L344.256 192.619V194.793ZM345.246 197.466V195.782L348.144 196.557L345.246 197.466ZM345.246 195.042V192.102L348.331 195.862L345.246 195.042ZM349.517 196.174L349.722 196.014L345.879 191.078L346.191 190.989L357.489 193.724L349.517 196.174Z" fill="#2E353A" stroke="#2E353A" stroke-width="1.05622" stroke-linecap="round" stroke-linejoin="round"/>
<path d="M22.8809 258.254L174.594 219.187" stroke="#2E353A" stroke-width="1.05622" stroke-linecap="round" stroke-linejoin="round"/>
<path d="M165.873 43.5571V235.892" stroke="#2E353A" stroke-width="1.05622" stroke-linecap="round" stroke-linejoin="round"/>
<path d="M142.466 55.6382V241.139" stroke="#2E353A" stroke-width="1.05622" stroke-linecap="round" stroke-linejoin="round"/>
<path d="M102.688 76.6821V251.278" stroke="#2E353A" stroke-width="1.05622" stroke-linecap="round" stroke-linejoin="round"/>
<path d="M28.1865 113.709V250.048" stroke="#2E353A" stroke-width="1.05622" stroke-linecap="round" stroke-linejoin="round"/>
<path d="M124.142 65.7593V246.218" stroke="#2E353A" stroke-width="1.05622" stroke-linecap="round" stroke-linejoin="round"/>
<path d="M79.6816 88.7632V257.925" stroke="#2E353A" stroke-width="1.05622" stroke-linecap="round" stroke-linejoin="round"/>
<path d="M222.041 31.4761V220.488" stroke="#2E353A" stroke-width="1.05622" stroke-linecap="round" stroke-linejoin="round"/>
<path d="M235.309 44.332V217.823" stroke="#2E353A" stroke-width="1.05622" stroke-linecap="round" stroke-linejoin="round"/>
<path d="M245.448 54.4619V214.206" stroke="#2E353A" stroke-width="1.05622" stroke-linecap="round" stroke-linejoin="round"/>
<path d="M257.539 63.4336V211.525" stroke="#2E353A" stroke-width="1.05622" stroke-linecap="round" stroke-linejoin="round"/>
<path d="M267.294 73.5635V208.397" stroke="#2E353A" stroke-width="1.05622" stroke-linecap="round" stroke-linejoin="round"/>
<path d="M277.825 82.9185V206.179" stroke="#2E353A" stroke-width="1.05622" stroke-linecap="round" stroke-linejoin="round"/>
<path d="M285.627 89.9302V204.121" stroke="#2E353A" stroke-width="1.05622" stroke-linecap="round" stroke-linejoin="round"/>
<path d="M294.206 97.334V202.562" stroke="#2E353A" stroke-width="1.05622" stroke-linecap="round" stroke-linejoin="round"/>
<path d="M302.008 103.962V199.764" stroke="#2E353A" stroke-width="1.05622" stroke-linecap="round" stroke-linejoin="round"/>
<path d="M310.202 110.582V197.359" stroke="#2E353A" stroke-width="1.05622" stroke-linecap="round" stroke-linejoin="round"/>
<path d="M317.612 116.043V194.944" stroke="#2E353A" stroke-width="1.05622" stroke-linecap="round" stroke-linejoin="round"/>
<path d="M325.022 121.104V194.383" stroke="#2E353A" stroke-width="1.05622" stroke-linecap="round" stroke-linejoin="round"/>
<path d="M330.872 125.006V192.432" stroke="#2E353A" stroke-width="1.05622" stroke-linecap="round" stroke-linejoin="round"/>
<path d="M337.114 130.076V190.133" stroke="#2E353A" stroke-width="1.05622" stroke-linecap="round" stroke-linejoin="round"/>
<path d="M343.748 133.185V171.771" stroke="#2E353A" stroke-width="1.05622" stroke-linecap="round" stroke-linejoin="round"/>
<path d="M349.981 137.862V184.03" stroke="#2E353A" stroke-width="1.05622" stroke-linecap="round" stroke-linejoin="round"/>
<path d="M218.929 59.1396V210.393" stroke="#2E353A" stroke-width="1.05622" stroke-linecap="round" stroke-linejoin="round"/>
<path d="M230.235 68.1021V208.014" stroke="#2E353A" stroke-width="1.05622" stroke-linecap="round" stroke-linejoin="round"/>
<path d="M242.719 78.2412V204.647" stroke="#2E353A" stroke-width="1.05622" stroke-linecap="round" stroke-linejoin="round"/>
<path d="M251.297 85.2529V202.954" stroke="#2E353A" stroke-width="1.05622" stroke-linecap="round" stroke-linejoin="round"/>
<path d="M260.66 93.0571V200.611" stroke="#2E353A" stroke-width="1.05622" stroke-linecap="round" stroke-linejoin="round"/>
<path d="M270.022 98.8931V198.277" stroke="#2E353A" stroke-width="1.05622" stroke-linecap="round" stroke-linejoin="round"/>
<path d="M307.465 126.565V189.706" stroke="#2E353A" stroke-width="1.05622" stroke-linecap="round" stroke-linejoin="round"/>
<path d="M167.05 34.9863V220.541" stroke="#2E353A" stroke-width="1.05622" stroke-linecap="round" stroke-linejoin="round"/>
<path d="M151.445 41.9893V224.292" stroke="#2E353A" stroke-width="1.05622" stroke-linecap="round" stroke-linejoin="round"/>
<path d="M134.289 52.5107V229.067" stroke="#2E353A" stroke-width="1.05622" stroke-linecap="round" stroke-linejoin="round"/>
<path d="M116.339 61.0908V234.52" stroke="#2E353A" stroke-width="1.05622" stroke-linecap="round" stroke-linejoin="round"/>
<path d="M98.7905 70.8374V237.638" stroke="#2E353A" stroke-width="1.05622" stroke-linecap="round" stroke-linejoin="round"/>
<path d="M77.3364 82.1343V237.246" stroke="#2E353A" stroke-width="1.05622" stroke-linecap="round" stroke-linejoin="round"/>
<path d="M32.083 105.129V234.849" stroke="#2E353A" stroke-width="1.05622" stroke-linecap="round" stroke-linejoin="round"/>
<path d="M55.4897 92.2734L55.8732 100.06V243.625" stroke="#2E353A" stroke-width="1.05622" stroke-linecap="round" stroke-linejoin="round"/>
<path d="M192.267 229.067V27.3511" stroke="#2E353A" stroke-width="1.05622" stroke-linecap="round" stroke-linejoin="round"/>
<path d="M212.286 23.0923C212.286 23.0923 212.027 20.4195 209.824 19.6087C207.622 18.798 205.58 18.4505 204.18 19.8671C203.343 20.6864 202.745 21.7182 202.45 22.8517" fill="#2E353A"/>
<path d="M212.286 23.0923C212.286 23.0923 212.027 20.4195 209.824 19.6087C207.622 18.798 205.58 18.4505 204.18 19.8671C203.343 20.6864 202.745 21.7182 202.45 22.8517" stroke="#2E353A" stroke-width="1.05622" stroke-linecap="round" stroke-linejoin="round"/>
<path d="M200.471 226.127L200.007 163.325L201.737 161.027L201.273 108.613L202.316 107.223L201.978 64.5207L203.012 62.8992L202.432 22.8518L205.669 22.041L206.365 62.6765L205.09 63.71L205.669 107.348L204.394 108.497L205.09 161.597L203.93 163.441L204.171 227.161L200.471 226.127Z" fill="url(#paint20_linear)" stroke="#2E353A" stroke-width="1.05622" stroke-linecap="round" stroke-linejoin="round"/>
<path d="M204.323 313.653L204.394 228.381L200.578 227.731L200.89 317.706" fill="url(#paint21_linear)"/>
<path d="M204.323 313.653L204.394 228.381L200.578 227.731L200.89 317.706" stroke="#2E353A" stroke-width="1.05622" stroke-linecap="round" stroke-linejoin="round"/>
<path d="M217.404 307.844V227.339C217.404 227.339 211.483 228.907 208.068 228.381C204.653 227.856 204.394 228.381 204.394 228.381V312.307" fill="#2E353A"/>
<path d="M217.404 307.844V227.339C217.404 227.339 211.483 228.907 208.068 228.381C204.653 227.856 204.394 228.381 204.394 228.381V312.307" stroke="#2E353A" stroke-width="1.05622" stroke-linecap="round" stroke-linejoin="round"/>
<path d="M205.838 19.092L206.998 16.0005H208.282L209.842 19.6088" fill="#2E353A"/>
<path d="M205.838 19.092L206.998 16.0005H208.282L209.842 19.6088" stroke="#2E353A" stroke-width="1.05622" stroke-linecap="round" stroke-linejoin="round"/>
<path d="M204.162 19.8672C204.162 19.8672 99.8339 82.5265 6.20605 123.83" stroke="#2E353A" stroke-width="3.16867" stroke-linecap="round" stroke-linejoin="round"/>
<path d="M211.644 21.4707C211.644 21.4707 294.571 100.452 323.462 119.687C352.353 138.922 368.466 148.259 368.466 148.259" stroke="#2E353A" stroke-width="3.16867" stroke-linecap="round" stroke-linejoin="round"/>
<path d="M198.045 226.813C198.045 226.813 201.389 229.637 209.592 228.693C217.796 227.749 222.228 224.755 222.228 224.755V223.267L216.583 222.323L216.351 162.523L215.371 161.098L215.602 109.156L214.425 107.081L214.104 64.8771L212.945 62.8012L212.713 23.4754L205.669 22.1123L206.364 62.7478L205.089 63.7813L205.669 107.437L204.394 108.533L205.089 161.632L203.93 163.521L204.171 227.232L200.47 226.198L198.045 226.813Z" fill="#2E353A" stroke="#2E353A" stroke-width="1.05622" stroke-linecap="round" stroke-linejoin="round"/>
<defs>
<linearGradient id="paint0_linear" x1="327.194" y1="75.3103" x2="327.194" y2="54.9199" gradientUnits="userSpaceOnUse">
<stop stop-color="#FF5E3A"/>
<stop offset="1" stop-color="#FF9500"/>
</linearGradient>
<linearGradient id="paint1_linear" x1="124.485" y1="105.218" x2="124.485" y2="84.8276" gradientUnits="userSpaceOnUse">
<stop stop-color="#FF5E3A"/>
<stop offset="1" stop-color="#FF9500"/>
</linearGradient>
<linearGradient id="paint2_linear" x1="252.803" y1="45.6508" x2="252.803" y2="17.7651" gradientUnits="userSpaceOnUse">
<stop stop-color="#FF5E3A"/>
<stop offset="1" stop-color="#FF9500"/>
</linearGradient>
<linearGradient id="paint3_linear" x1="198.5" y1="156.269" x2="198.5" y2="128.009" gradientUnits="userSpaceOnUse">
<stop stop-color="#FF5E3A"/>
<stop offset="1" stop-color="#FF9500"/>
</linearGradient>
<linearGradient id="paint4_linear" x1="201.719" y1="267.306" x2="201.719" y2="180.387" gradientUnits="userSpaceOnUse">
<stop stop-color="#FF5E3A"/>
<stop offset="1" stop-color="#FF9500"/>
</linearGradient>
<linearGradient id="paint5_linear" x1="186.729" y1="313.483" x2="186.729" y2="229.29" gradientUnits="userSpaceOnUse">
<stop stop-color="#FF5E3A"/>
<stop offset="1" stop-color="#FF9500"/>
</linearGradient>
<linearGradient id="paint6_linear" x1="172.556" y1="222.804" x2="172.556" y2="219.258" gradientUnits="userSpaceOnUse">
<stop stop-color="#FF5E3A"/>
<stop offset="1" stop-color="#FF9500"/>
</linearGradient>
<linearGradient id="paint7_linear" x1="177.014" y1="221.619" x2="177.015" y2="29.3198" gradientUnits="userSpaceOnUse">
<stop stop-color="#FF5E3A"/>
<stop offset="1" stop-color="#FF9500"/>
</linearGradient>
<linearGradient id="paint8_linear" x1="192.035" y1="41.7841" x2="192.035" y2="25.6226" gradientUnits="userSpaceOnUse">
<stop stop-color="#FF5E3A"/>
<stop offset="1" stop-color="#FF9500"/>
</linearGradient>
<linearGradient id="paint9_linear" x1="192.035" y1="80.4953" x2="192.035" y2="66.668" gradientUnits="userSpaceOnUse">
<stop stop-color="#FF5E3A"/>
<stop offset="1" stop-color="#FF9500"/>
</linearGradient>
<linearGradient id="paint10_linear" x1="192.035" y1="122.574" x2="192.035" y2="111.214" gradientUnits="userSpaceOnUse">
<stop stop-color="#FF5E3A"/>
<stop offset="1" stop-color="#FF9500"/>
</linearGradient>
<linearGradient id="paint11_linear" x1="192.035" y1="175.798" x2="192.035" y2="164.145" gradientUnits="userSpaceOnUse">
<stop stop-color="#FF5E3A"/>
<stop offset="1" stop-color="#FF9500"/>
</linearGradient>
<linearGradient id="paint12_linear" x1="183.765" y1="43.165" x2="183.765" y2="42.1582" gradientUnits="userSpaceOnUse">
<stop stop-color="#FF5E3A"/>
<stop offset="1" stop-color="#FF9500"/>
</linearGradient>
<linearGradient id="paint13_linear" x1="183.421" y1="47.9049" x2="183.421" y2="47.1387" gradientUnits="userSpaceOnUse">
<stop stop-color="#FF5E3A"/>
<stop offset="1" stop-color="#FF9500"/>
</linearGradient>
<linearGradient id="paint14_linear" x1="183.707" y1="83.0609" x2="183.707" y2="82.749" gradientUnits="userSpaceOnUse">
<stop stop-color="#FF5E3A"/>
<stop offset="1" stop-color="#FF9500"/>
</linearGradient>
<linearGradient id="paint15_linear" x1="183.359" y1="87.7921" x2="183.359" y2="87.2397" gradientUnits="userSpaceOnUse">
<stop stop-color="#FF5E3A"/>
<stop offset="1" stop-color="#FF9500"/>
</linearGradient>
<linearGradient id="paint16_linear" x1="183.551" y1="126.692" x2="183.551" y2="125.692" gradientUnits="userSpaceOnUse">
<stop stop-color="#FF5E3A"/>
<stop offset="1" stop-color="#FF9500"/>
</linearGradient>
<linearGradient id="paint17_linear" x1="183.002" y1="132.1" x2="183.002" y2="131.1" gradientUnits="userSpaceOnUse">
<stop stop-color="#FF5E3A"/>
<stop offset="1" stop-color="#FF9500"/>
</linearGradient>
<linearGradient id="paint18_linear" x1="182.882" y1="183.157" x2="182.882" y2="183.05" gradientUnits="userSpaceOnUse">
<stop stop-color="#FF5E3A"/>
<stop offset="1" stop-color="#FF9500"/>
</linearGradient>
<linearGradient id="paint19_linear" x1="183.591" y1="177.848" x2="183.591" y2="177.562" gradientUnits="userSpaceOnUse">
<stop stop-color="#FF5E3A"/>
<stop offset="1" stop-color="#FF9500"/>
</linearGradient>
<linearGradient id="paint20_linear" x1="203.186" y1="227.161" x2="203.186" y2="22.041" gradientUnits="userSpaceOnUse">
<stop stop-color="#FF5E3A"/>
<stop offset="1" stop-color="#FF9500"/>
</linearGradient>
<linearGradient id="paint21_linear" x1="202.486" y1="317.706" x2="202.486" y2="227.731" gradientUnits="userSpaceOnUse">
<stop stop-color="#FF5E3A"/>
<stop offset="1" stop-color="#FF9500"/>
</linearGradient>
</defs>
</svg>
