<svg width="53" height="53" viewBox="0 0 53 53" fill="none" xmlns="http://www.w3.org/2000/svg">
<path d="M45.033 37.9221V15.8955H37.4385V36.1432C40.2738 36.6141 42.8053 37.1896 45.033 37.9221Z" fill="#1C1C1E"/>
<path d="M37.4384 36.1432V24.2666H29.8945V35.3584C32.5273 35.5153 35.1094 35.7769 37.4384 36.1432Z" fill="#FF9500"/>
<path d="M26.0971 35.3052C27.3628 35.3052 28.6286 35.3575 29.8944 35.4099V20.3418H22.2998V35.4099C23.5149 35.3575 24.7807 35.3052 26.0971 35.3052Z" fill="#1C1C1E"/>
<path d="M22.2996 35.4102V14.2207H14.7051V36.195C17.0847 35.7764 19.6162 35.5148 22.2996 35.4102Z" fill="#FF9500"/>
<path d="M14.7049 36.1432V27.7197H7.11035V37.9221C9.33808 37.1896 11.8696 36.6141 14.7049 36.1432Z" fill="#1C1C1E"/>
</svg>
