<svg width="316" height="352" viewBox="0 0 316 352" fill="none" xmlns="http://www.w3.org/2000/svg">
<path d="M297.369 258.731C289.824 262.443 281.109 263.015 273.141 260.322C265.174 257.628 258.605 251.89 254.881 244.368C254.145 242.874 253.527 241.325 253.03 239.735C253.03 239.735 253.03 239.735 253.03 239.694C250.806 232.509 251.222 224.769 254.204 217.863C257.186 210.956 262.54 205.335 269.304 202.009L283.336 230.37L299.103 202.911C304.101 205.755 308.23 209.901 311.046 214.905C313.862 219.909 315.259 225.582 315.089 231.318C314.918 237.053 313.186 242.634 310.078 247.463C306.969 252.292 302.602 256.187 297.443 258.731H297.369Z" stroke="#263238" stroke-linecap="round" stroke-linejoin="round"/>
<path d="M269.669 187.423C274.327 185.132 279.478 184.016 284.669 184.173C289.861 184.331 294.934 185.756 299.444 188.325L283.677 215.776L269.669 187.423Z" stroke="#263238" stroke-linecap="round" stroke-linejoin="round"/>
<path d="M269.669 187.423V194.29L283.702 222.642L299.444 195.191V188.325L283.702 215.784L269.669 187.423Z" stroke="#263238" stroke-linecap="round" stroke-linejoin="round"/>
<path d="M95.0291 171.29H8.92497C6.82314 171.29 4.80739 172.122 3.32117 173.604C1.83495 175.086 1 177.096 1 179.191V211.631C0.999999 213.727 1.83468 215.737 3.32066 217.22C4.80665 218.704 6.82237 219.538 8.92497 219.54H95.0291C97.1332 219.54 99.151 218.707 100.639 217.223C102.127 215.74 102.962 213.728 102.962 211.631V179.191C102.96 177.095 102.123 175.085 100.636 173.604C99.1483 172.122 97.1317 171.29 95.0291 171.29V171.29ZM43.5791 212.872C43.5791 213.074 43.4989 213.269 43.356 213.413C43.213 213.557 43.0189 213.639 42.8156 213.641H35.6209C35.5196 213.641 35.4192 213.621 35.3256 213.583C35.2319 213.544 35.1469 213.487 35.0752 213.416C35.0035 213.344 34.9467 213.259 34.9079 213.166C34.8691 213.073 34.8492 212.973 34.8492 212.872V196.176C34.8513 195.974 34.9336 195.78 35.0781 195.637C35.2226 195.495 35.4177 195.415 35.6209 195.415H42.7824C42.9849 195.415 43.1791 195.495 43.3223 195.638C43.4654 195.781 43.5459 195.974 43.5459 196.176L43.5791 212.872ZM57.8772 213.641H50.7157C50.511 213.641 50.3147 213.56 50.17 213.416C50.0252 213.271 49.9439 213.076 49.9439 212.872V190.418C49.9461 190.215 50.0284 190.022 50.1729 189.879C50.3174 189.737 50.5124 189.657 50.7157 189.657H57.8772C57.9775 189.657 58.0767 189.676 58.1694 189.715C58.262 189.753 58.3462 189.809 58.4171 189.88C58.4879 189.95 58.5442 190.034 58.5825 190.127C58.6209 190.219 58.6407 190.318 58.6407 190.418V212.872C58.6407 212.975 58.62 213.077 58.5796 213.172C58.5393 213.267 58.4802 213.353 58.4059 213.425C58.3316 213.497 58.2435 213.553 58.147 213.59C58.0505 213.627 57.9474 213.644 57.844 213.641H57.8772ZM72.8143 212.872C72.8143 213.074 72.7342 213.269 72.5912 213.413C72.4483 213.557 72.2541 213.639 72.0509 213.641H64.8811C64.6778 213.639 64.4836 213.557 64.3407 213.413C64.1978 213.269 64.1176 213.074 64.1176 212.872V210.183C64.1176 209.981 64.198 209.787 64.3412 209.645C64.4844 209.502 64.6786 209.422 64.8811 209.422H72.0509C72.2533 209.422 72.4475 209.502 72.5907 209.645C72.7339 209.787 72.8143 209.981 72.8143 210.183V212.872ZM86.9797 212.872C86.9797 213.074 86.8995 213.269 86.7566 213.413C86.6136 213.557 86.4195 213.639 86.2162 213.641H79.0215C78.8168 213.641 78.6205 213.56 78.4758 213.416C78.3311 213.271 78.2498 213.076 78.2498 212.872V188.267L70.9721 205.93C70.9166 206.061 70.8261 206.173 70.7107 206.255C70.5953 206.337 70.4594 206.386 70.3179 206.397C70.1763 206.407 70.0347 206.378 69.9086 206.313C69.7825 206.249 69.6767 206.15 69.6028 206.03L56.6905 184.395C56.6381 184.306 56.5678 184.228 56.484 184.167C56.4002 184.106 56.3047 184.063 56.2035 184.041C56.1023 184.018 55.9975 184.017 55.8957 184.037C55.7939 184.056 55.6972 184.097 55.6117 184.155L42.8405 192.743C42.7169 192.823 42.5728 192.865 42.4256 192.865C42.2784 192.865 42.1343 192.823 42.0107 192.743L28.2104 185.164V212.88C28.2105 213.083 28.1303 213.277 27.9873 213.421C27.8444 213.565 27.6502 213.647 27.447 213.649H20.3021C20.2007 213.649 20.1004 213.63 20.0067 213.591C19.9131 213.552 19.828 213.495 19.7564 213.424C19.6847 213.353 19.6278 213.268 19.5891 213.174C19.5503 213.081 19.5303 212.981 19.5303 212.88V178.628C19.5325 178.426 19.6148 178.232 19.7593 178.09C19.9038 177.947 20.0988 177.867 20.3021 177.867H27.4636C27.6661 177.867 27.8603 177.948 28.0034 178.09C28.1466 178.233 28.227 178.427 28.227 178.628V183.311L41.9609 190.848C42.0845 190.928 42.2286 190.97 42.3758 190.97C42.523 190.97 42.6671 190.928 42.7907 190.848L56.0682 181.946C56.1543 181.887 56.2516 181.847 56.3541 181.827C56.4565 181.808 56.5619 181.809 56.6638 181.831C56.7657 181.854 56.8618 181.897 56.9464 181.958C57.0309 182.019 57.102 182.097 57.1552 182.186L69.3954 202.596C69.4692 202.717 69.575 202.815 69.7011 202.88C69.8273 202.945 69.9689 202.974 70.1104 202.963C70.2519 202.953 70.3878 202.904 70.5032 202.822C70.6187 202.74 70.7091 202.627 70.7646 202.497L78.283 184.246V178.62C78.2852 178.418 78.3674 178.224 78.5119 178.081C78.6564 177.939 78.8515 177.859 79.0547 177.859H80.9219L81.7517 175.931C81.7904 175.839 81.8469 175.755 81.9181 175.685C81.9893 175.614 82.0737 175.558 82.1666 175.52C82.2595 175.482 82.3589 175.463 82.4593 175.463C82.5597 175.463 82.659 175.483 82.7517 175.522C82.8443 175.56 82.9284 175.617 82.9992 175.688C83.0699 175.759 83.126 175.843 83.1641 175.935C83.2023 176.028 83.2218 176.127 83.2215 176.227C83.2212 176.327 83.2011 176.426 83.1624 176.519L82.6147 177.859H86.2494C86.4519 177.859 86.6461 177.939 86.7893 178.082C86.9324 178.225 87.0129 178.418 87.0129 178.62L86.9797 212.872Z" stroke="#263238" stroke-linecap="round" stroke-linejoin="round"/>
<path d="M42.7829 195.415H35.6131C35.1914 195.415 34.8496 195.756 34.8496 196.176V212.88C34.8496 213.3 35.1914 213.641 35.6131 213.641H42.7829C43.2045 213.641 43.5463 213.3 43.5463 212.88V196.176C43.5463 195.756 43.2045 195.415 42.7829 195.415Z" stroke="#263238" stroke-linecap="round" stroke-linejoin="round"/>
<path d="M57.8439 189.657H50.6741C50.2525 189.657 49.9106 189.998 49.9106 190.418V212.88C49.9106 213.301 50.2525 213.642 50.6741 213.642H57.8439C58.2656 213.642 58.6074 213.301 58.6074 212.88V190.418C58.6074 189.998 58.2656 189.657 57.8439 189.657Z" stroke="#263238" stroke-linecap="round" stroke-linejoin="round"/>
<path d="M72.0178 209.422H64.8479C64.4263 209.422 64.0845 209.763 64.0845 210.183V212.88C64.0845 213.3 64.4263 213.641 64.8479 213.641H72.0178C72.4394 213.641 72.7812 213.3 72.7812 212.88V210.183C72.7812 209.763 72.4394 209.422 72.0178 209.422Z" stroke="#263238" stroke-linecap="round" stroke-linejoin="round"/>
<path d="M19.8295 179.737V179.646C19.8743 179.551 19.9382 179.466 20.0173 179.396C20.0964 179.327 20.1889 179.274 20.2893 179.242C20.3896 179.209 20.4956 179.197 20.6006 179.207C20.7056 179.217 20.8075 179.248 20.9 179.299L28.1943 183.303V178.621C28.1943 178.521 28.1745 178.422 28.1362 178.329C28.0978 178.237 28.0416 178.153 27.9707 178.082C27.8998 178.012 27.8156 177.956 27.723 177.917C27.6304 177.879 27.5311 177.859 27.4308 177.859H20.3025C20.0993 177.859 19.9042 177.939 19.7597 178.082C19.6152 178.224 19.5329 178.418 19.5308 178.621V212.872C19.5308 212.973 19.5507 213.073 19.5895 213.166C19.6283 213.26 19.6851 213.345 19.7568 213.416C19.8285 213.488 19.9135 213.544 20.0072 213.583C20.1008 213.622 20.2012 213.641 20.3025 213.641H27.464C27.6673 213.639 27.8614 213.557 28.0044 213.413C28.1473 213.269 28.2275 213.075 28.2275 212.872V185.156L20.1531 180.722C19.9845 180.629 19.8574 180.476 19.7974 180.293C19.7373 180.11 19.7488 179.912 19.8295 179.737V179.737Z" stroke="#263238" stroke-linecap="round" stroke-linejoin="round"/>
<path d="M86.1833 177.851H82.5486L78.25 188.258V212.863C78.25 213.067 78.3313 213.263 78.476 213.407C78.6208 213.552 78.8171 213.633 79.0218 213.633H86.1833C86.3865 213.631 86.5807 213.548 86.7236 213.404C86.8666 213.26 86.9467 213.066 86.9467 212.863V178.612C86.9467 178.41 86.8663 178.216 86.7231 178.074C86.5799 177.931 86.3857 177.851 86.1833 177.851Z" stroke="#263238" stroke-linecap="round" stroke-linejoin="round"/>
<path d="M79.0218 177.851C78.8185 177.851 78.6235 177.931 78.479 178.073C78.3345 178.216 78.2522 178.409 78.25 178.612V184.238L80.8889 177.851H79.0218Z" stroke="#263238" stroke-linecap="round" stroke-linejoin="round"/>
<path d="M57.8439 189.657H50.6741C50.2525 189.657 49.9106 189.998 49.9106 190.418V212.88C49.9106 213.301 50.2525 213.642 50.6741 213.642H57.8439C58.2656 213.642 58.6074 213.301 58.6074 212.88V190.418C58.6074 189.998 58.2656 189.657 57.8439 189.657Z" stroke="#263238" stroke-linecap="round" stroke-linejoin="round"/>
<path d="M42.7829 195.415H35.6131C35.1914 195.415 34.8496 195.756 34.8496 196.176V212.88C34.8496 213.3 35.1914 213.641 35.6131 213.641H42.7829C43.2045 213.641 43.5463 213.3 43.5463 212.88V196.176C43.5463 195.756 43.2045 195.415 42.7829 195.415Z" stroke="#263238" stroke-linecap="round" stroke-linejoin="round"/>
<path d="M72.0178 209.422H64.8479C64.4263 209.422 64.0845 209.763 64.0845 210.183V212.88C64.0845 213.3 64.4263 213.641 64.8479 213.641H72.0178C72.4394 213.641 72.7812 213.3 72.7812 212.88V210.183C72.7812 209.763 72.4394 209.422 72.0178 209.422Z" stroke="#263238" stroke-linecap="round" stroke-linejoin="round"/>
<path d="M228.119 201.016L215.107 214.005C222.596 222.758 227.121 233.645 228.036 245.113H246.425C245.459 228.782 239.012 213.25 228.119 201.016V201.016Z" fill="url(#paint0_linear)"/>
<path opacity="0.2" d="M228.119 201.016L215.107 214.005C222.596 222.758 227.121 233.645 228.036 245.113H246.425C245.459 228.782 239.012 213.25 228.119 201.016V201.016Z" fill="white"/>
<path d="M131.277 285.065C122.819 275.147 118.175 262.553 118.175 249.535C118.175 236.517 122.819 223.923 131.277 214.005L118.273 201.016C106.388 214.394 99.8262 231.647 99.8262 249.518C99.8262 267.39 106.388 284.642 118.273 298.021L131.277 285.065Z" fill="url(#paint1_linear)"/>
<g opacity="0.4">
<path opacity="0.4" d="M131.277 285.065C122.819 275.147 118.175 262.553 118.175 249.535C118.175 236.517 122.819 223.923 131.277 214.005L118.273 201.016C106.388 214.394 99.8262 231.647 99.8262 249.518C99.8262 267.39 106.388 284.642 118.273 298.021L131.277 285.065Z" fill="white"/>
</g>
<path d="M137.55 207.742C147.5 199.311 160.133 194.681 173.192 194.681C186.25 194.681 198.883 199.311 208.833 207.742L221.837 194.778C208.42 182.931 191.118 176.391 173.196 176.391C155.274 176.391 137.972 182.931 124.555 194.778L137.55 207.742Z" fill="url(#paint2_linear)"/>
<path opacity="0.2" d="M137.55 207.742C147.5 199.311 160.133 194.681 173.192 194.681C186.25 194.681 198.883 199.311 208.833 207.742L221.837 194.778C208.42 182.931 191.118 176.391 173.196 176.391C155.274 176.391 137.972 182.931 124.555 194.778L137.55 207.742Z" fill="black"/>
<path d="M246.424 253.965H228.035C227.222 264.027 223.639 273.669 217.681 281.83C211.723 289.991 203.621 296.354 194.268 300.218C184.915 304.083 174.673 305.298 164.671 303.731C154.67 302.164 145.296 297.874 137.583 291.336L124.571 304.3C134.867 313.389 147.519 319.41 161.083 321.675C174.646 323.94 188.575 322.358 201.28 317.11C213.985 311.862 224.955 303.158 232.937 291.993C240.919 280.828 245.593 267.651 246.424 253.965V253.965Z" fill="url(#paint3_linear)"/>
<path d="M287.112 161.072H74.374C72.0983 161.072 69.9158 160.171 68.3066 158.566C66.6975 156.962 65.7935 154.786 65.7935 152.517V14.9487C65.7935 13.8257 66.0155 12.7137 66.4468 11.6762C66.8781 10.6388 67.5103 9.69629 68.3071 8.90258C69.104 8.10888 70.05 7.47953 71.091 7.05052C72.132 6.62151 73.2476 6.40126 74.374 6.40235H287.112C288.238 6.40126 289.354 6.62151 290.395 7.05052C291.436 7.47953 292.382 8.10888 293.179 8.90258C293.975 9.69629 294.608 10.6388 295.039 11.6762C295.47 12.7137 295.692 13.8257 295.692 14.9487V152.517C295.692 154.786 294.788 156.962 293.179 158.566C291.57 160.171 289.387 161.072 287.112 161.072V161.072Z" fill="#263238"/>
<path d="M287.112 156.125H74.374C72.0983 156.125 69.9158 155.223 68.3066 153.619C66.6975 152.015 65.7935 149.839 65.7935 147.57V10.0014C65.7957 7.73402 66.7006 5.56025 68.3096 3.95774C69.9185 2.35523 72.0997 1.45508 74.374 1.45508H287.112C289.386 1.45508 291.567 2.35523 293.176 3.95774C294.785 5.56025 295.69 7.73402 295.692 10.0014V147.57C295.692 149.839 294.788 152.015 293.179 153.619C291.57 155.223 289.387 156.125 287.112 156.125V156.125Z" fill="url(#paint4_linear)"/>
<path d="M296.041 14.5103V9.54634C296.041 8.42332 295.819 7.31131 295.388 6.27389C294.956 5.23646 294.324 4.29395 293.527 3.50024C292.73 2.70653 291.784 2.07718 290.743 1.64818C289.702 1.21917 288.587 0.998917 287.46 1H74.6977C73.5713 0.998917 72.4557 1.21917 71.4147 1.64818C70.3737 2.07718 69.4278 2.70653 68.6309 3.50024C67.834 4.29395 67.2018 5.23646 66.7705 6.27389C66.3392 7.31131 66.1172 8.42332 66.1172 9.54634V147.132V152.096C66.1172 154.364 67.0212 156.54 68.6304 158.145C70.2395 159.749 72.422 160.65 74.6977 160.65H287.46C289.736 160.65 291.919 159.749 293.528 158.145C295.137 156.54 296.041 154.364 296.041 152.096V14.5103V14.5103Z" stroke="#263238" stroke-miterlimit="10"/>
<path d="M79.4692 15.106V141.588H281.12V15.106H79.4692ZM278.88 39.9259H256.184V17.348H278.88V39.9259ZM131.55 67.0376H154.246V89.6651H131.55V67.0376ZM129.318 89.6651H106.63V67.0376H129.318V89.6651ZM204.103 64.8451H181.423V42.168H204.111L204.103 64.8451ZM206.319 42.168H229.006V64.7955H206.319V42.168ZM181.423 66.9879H204.119V89.6154H181.423V66.9879ZM179.191 89.6154H156.478V67.0376H179.174L179.191 89.6154ZM179.191 64.7955H156.478V42.168H179.174L179.191 64.7955ZM154.296 64.7955H131.55V42.168H154.246L154.296 64.7955ZM154.296 91.874V114.493H131.55V91.8906L154.296 91.874ZM156.528 91.874H179.224V114.493H156.478L156.528 91.874ZM181.423 91.874H204.119V114.493H181.423V91.874ZM206.319 91.874H229.006V114.493H206.319V91.874ZM206.319 89.6485V67.0376H229.006V89.6651L206.319 89.6485ZM231.214 67.021H253.951V89.6485H231.255L231.214 67.021ZM231.214 64.7955V42.168H253.951V64.7955H231.214ZM231.214 39.9755V17.348H253.951V39.959L231.214 39.9755ZM228.981 39.9755H206.319V17.348H229.006L228.981 39.9755ZM204.086 39.9755H181.423V17.348H204.111L204.086 39.9755ZM179.191 39.9755H156.478V17.348H179.174L179.191 39.9755ZM154.296 39.9755H131.55V17.348H154.246L154.296 39.9755ZM129.401 39.9755H106.63V17.348H129.318L129.401 39.9755ZM129.401 42.2011V64.8286H106.63V42.168L129.401 42.2011ZM104.506 64.8286H81.7015V42.168H104.398L104.506 64.8286ZM104.506 67.0541V89.6816H81.7015V67.0376L104.506 67.0541ZM104.506 91.874V114.493H81.7015V91.8906L104.506 91.874ZM106.738 91.874H129.426V114.493H106.63L106.738 91.874ZM129.426 116.694V139.321H106.63V116.735L129.426 116.694ZM131.658 116.694H154.354V139.321H131.55L131.658 116.694ZM156.553 116.694H179.249V139.321H156.478L156.553 116.694ZM181.448 116.694H204.144V139.321H181.423L181.448 116.694ZM206.343 116.694H229.031V139.321H206.319L206.343 116.694ZM231.239 116.694H253.951V139.321H231.255L231.239 116.694ZM231.239 114.468V91.8906H253.951V114.51L231.239 114.468ZM256.134 91.8492H278.83V114.468H256.184L256.134 91.8492ZM256.134 89.6237V67.0376H278.83V89.6651L256.134 89.6237ZM256.134 64.8038V42.168H278.83V64.7955L256.134 64.8038ZM104.398 17.348V39.959H81.7015V17.348H104.398ZM81.7015 116.735H104.398V139.363H81.7015V116.735ZM256.184 139.363V116.735H278.88V139.363H256.184Z" fill="white"/>
<path opacity="0.8" d="M79.4692 15.106V141.588H281.12V15.106H79.4692ZM278.88 39.9259H256.184V17.348H278.88V39.9259ZM131.55 67.0376H154.246V89.6651H131.55V67.0376ZM129.318 89.6651H106.63V67.0376H129.318V89.6651ZM204.103 64.8451H181.423V42.168H204.111L204.103 64.8451ZM206.319 42.168H229.006V64.7955H206.319V42.168ZM181.423 66.9879H204.119V89.6154H181.423V66.9879ZM179.191 89.6154H156.478V67.0376H179.174L179.191 89.6154ZM179.191 64.7955H156.478V42.168H179.174L179.191 64.7955ZM154.296 64.7955H131.55V42.168H154.246L154.296 64.7955ZM154.296 91.874V114.493H131.55V91.8906L154.296 91.874ZM156.528 91.874H179.224V114.493H156.478L156.528 91.874ZM181.423 91.874H204.119V114.493H181.423V91.874ZM206.319 91.874H229.006V114.493H206.319V91.874ZM206.319 89.6485V67.0376H229.006V89.6651L206.319 89.6485ZM231.214 67.021H253.951V89.6485H231.255L231.214 67.021ZM231.214 64.7955V42.168H253.951V64.7955H231.214ZM231.214 39.9755V17.348H253.951V39.959L231.214 39.9755ZM228.981 39.9755H206.319V17.348H229.006L228.981 39.9755ZM204.086 39.9755H181.423V17.348H204.111L204.086 39.9755ZM179.191 39.9755H156.478V17.348H179.174L179.191 39.9755ZM154.296 39.9755H131.55V17.348H154.246L154.296 39.9755ZM129.401 39.9755H106.63V17.348H129.318L129.401 39.9755ZM129.401 42.2011V64.8286H106.63V42.168L129.401 42.2011ZM104.506 64.8286H81.7015V42.168H104.398L104.506 64.8286ZM104.506 67.0541V89.6816H81.7015V67.0376L104.506 67.0541ZM104.506 91.874V114.493H81.7015V91.8906L104.506 91.874ZM106.738 91.874H129.426V114.493H106.63L106.738 91.874ZM129.426 116.694V139.321H106.63V116.735L129.426 116.694ZM131.658 116.694H154.354V139.321H131.55L131.658 116.694ZM156.553 116.694H179.249V139.321H156.478L156.553 116.694ZM181.448 116.694H204.144V139.321H181.423L181.448 116.694ZM206.343 116.694H229.031V139.321H206.319L206.343 116.694ZM231.239 116.694H253.951V139.321H231.255L231.239 116.694ZM231.239 114.468V91.8906H253.951V114.51L231.239 114.468ZM256.134 91.8492H278.83V114.468H256.184L256.134 91.8492ZM256.134 89.6237V67.0376H278.83V89.6651L256.134 89.6237ZM256.134 64.8038V42.168H278.83V64.7955L256.134 64.8038ZM104.398 17.348V39.959H81.7015V17.348H104.398ZM81.7015 116.735H104.398V139.363H81.7015V116.735ZM256.184 139.363V116.735H278.88V139.363H256.184Z" fill="white"/>
<path d="M181.298 91.5594L179.498 89.9875L181.298 88.4155L183.099 89.9875L181.298 91.5594Z" fill="#263238"/>
<path d="M186.693 86.844L184.892 85.2721L188.494 82.1283L190.286 83.7002L186.693 86.844ZM193.888 80.5563L192.087 78.9761L195.68 75.8323L197.481 77.4042L193.888 80.5563ZM201.074 74.2603L199.273 72.6884L202.875 69.5445L204.659 71.1247L201.074 74.2603ZM208.269 67.9726L206.468 66.4007L208.053 65.0108L210.966 63.7367L212.103 65.7305L209.563 66.8392L208.269 67.9726ZM216.65 63.7367L215.513 61.7511L220.061 59.7572L221.198 61.7511L216.65 63.7367ZM225.778 59.7655L224.575 57.7716L229.123 55.7777L230.259 57.7716L225.778 59.7655ZM234.907 55.786L233.703 53.7921L236.467 52.5842L237.587 51.608L239.388 53.1799L237.977 54.4126L234.907 55.786ZM243.047 50.0361L241.246 48.4641L244.848 45.312L246.64 46.8922L243.047 50.0361ZM250.242 43.7401L248.375 42.1681L251.96 39.0243L253.76 40.5962L250.242 43.7401ZM257.428 37.4523L255.628 35.8804L259.229 32.7365L261.022 34.3085L257.428 37.4523ZM264.623 31.1646L262.748 29.5927L266.341 26.4488L268.142 28.0208L264.623 31.1646ZM271.809 24.8769L270.009 23.2967L273.61 20.1528L275.411 21.7248L271.809 24.8769Z" fill="#263238"/>
<path d="M281.112 24.3974H278.565V17.332H270.499V15.1147H281.112V24.3974Z" fill="#263238"/>
<g opacity="0.5">
<path opacity="0.5" d="M248.084 74.4333L246.507 72.8614L249.619 69.7589L251.195 71.3309L248.084 74.4333ZM254.307 68.2284L252.731 66.6564L255.843 63.5539L257.419 65.1259L254.307 68.2284ZM260.531 62.0234L258.954 60.4514L262.066 57.3489L263.643 58.9209L260.531 62.0234ZM266.755 55.8184L265.178 54.2464L268.29 51.144L269.867 52.7159L266.755 55.8184ZM272.979 49.6134L271.402 48.0415L274.514 44.939L276.091 46.5109L272.979 49.6134Z" fill="black"/>
<path opacity="0.5" d="M243.064 79.4636H240.375V77.238H242.143L243.396 75.9888L244.972 77.5607L243.064 79.4636Z" fill="black"/>
<path opacity="0.5" d="M205.68 91.8903H203.522V89.6648H204.75L206.202 88.217L207.779 89.7889L205.68 91.8903ZM199.323 91.8903H195.124V89.6648H199.323V91.8903ZM190.925 91.8903H186.718V89.6648H190.925V91.8903ZM210.75 86.8436L209.173 85.2717L212.127 82.2933L213.704 83.8652L210.75 86.8436ZM216.692 80.9282L215.115 79.348L217.214 77.2548H219.364V79.4804H218.144L216.692 80.9282ZM236.193 79.4638H231.994V77.2383H236.193V79.4638ZM227.795 79.4638H223.596V77.2383H227.795V79.4638Z" fill="black"/>
<path opacity="0.5" d="M182.518 89.6641H180.286V91.8896H182.518V89.6641Z" fill="black"/>
<path opacity="0.5" d="M281.112 49.2412H278.879V42.184H271.792L271.801 39.9585H281.112V49.2412Z" fill="black"/>
<g opacity="0.2">
<path opacity="0.2" d="M248.084 74.4333L246.507 72.8614L249.619 69.7589L251.195 71.3309L248.084 74.4333ZM254.307 68.2284L252.731 66.6564L255.843 63.5539L257.419 65.1259L254.307 68.2284ZM260.531 62.0234L258.954 60.4514L262.066 57.3489L263.643 58.9209L260.531 62.0234ZM266.755 55.8184L265.178 54.2464L268.29 51.144L269.867 52.7159L266.755 55.8184ZM272.979 49.6134L271.402 48.0415L274.514 44.939L276.091 46.5109L272.979 49.6134Z" fill="black"/>
<path opacity="0.2" d="M243.064 79.4636H240.375V77.238H242.143L243.396 75.9888L244.972 77.5607L243.064 79.4636Z" fill="black"/>
<path opacity="0.2" d="M205.68 91.8903H203.522V89.6648H204.75L206.202 88.217L207.779 89.7889L205.68 91.8903ZM199.323 91.8903H195.124V89.6648H199.323V91.8903ZM190.925 91.8903H186.718V89.6648H190.925V91.8903ZM210.75 86.8436L209.173 85.2717L212.127 82.2933L213.704 83.8652L210.75 86.8436ZM216.692 80.9282L215.115 79.348L217.214 77.2548H219.364V79.4804H218.144L216.692 80.9282ZM236.193 79.4638H231.994V77.2383H236.193V79.4638ZM227.795 79.4638H223.596V77.2383H227.795V79.4638Z" fill="black"/>
<path opacity="0.2" d="M182.518 89.6641H180.286V91.8896H182.518V89.6641Z" fill="black"/>
<path opacity="0.2" d="M281.112 49.2412H278.879V42.184H271.792L271.801 39.9585H281.112V49.2412Z" fill="black"/>
</g>
</g>
<g opacity="0.3">
<path opacity="0.3" d="M181.082 89.9937L179.504 91.5674L181.082 93.1411L182.661 91.5674L181.082 89.9937Z" fill="black"/>
<path opacity="0.3" d="M214.443 104.317H209.805V102.091H214.435L214.443 104.317ZM205.174 104.317H200.51V102.091H205.149L205.174 104.317ZM195.905 104.317H192.287L190.909 102.935L192.494 101.363L193.216 102.091H195.905V104.317ZM219.456 103.001L217.879 101.429L221.157 98.1614L222.734 99.7333L219.456 103.001ZM187.631 99.692L184.312 96.4323L185.897 94.8521L189.175 98.1201L187.631 99.692ZM226.011 96.4902L224.435 94.9183L227.713 91.6089L229.289 93.1892L226.011 96.4902ZM255.529 91.9151H250.998V89.6895H254.608L254.682 89.6068L254.757 89.6895H255.064V89.9957L256.259 91.187L255.529 91.9151ZM246.401 91.9151H241.762V89.6895H246.401V91.9151ZM237.131 91.9151H232.459V89.6895H237.098L237.131 91.9151ZM259.537 87.9191L257.96 86.3388L261.238 83.0792L262.815 84.6511L259.537 87.9191ZM266.093 81.3831L264.516 79.8112L267.794 76.5432L269.371 78.1152L266.093 81.3831ZM272.648 74.8472L271.072 73.2753L274.391 70.0073L275.968 71.5793L272.648 74.8472Z" fill="black"/>
<path opacity="0.3" d="M281.112 74.0942H278.88V67.037H271.793V64.8115H281.112V74.0942Z" fill="black"/>
<g opacity="0.3">
<path opacity="0.3" d="M181.082 89.9937L179.504 91.5674L181.082 93.1411L182.661 91.5674L181.082 89.9937Z" fill="black"/>
<path opacity="0.3" d="M214.443 104.317H209.805V102.091H214.435L214.443 104.317ZM205.174 104.317H200.51V102.091H205.149L205.174 104.317ZM195.905 104.317H192.287L190.909 102.935L192.494 101.363L193.216 102.091H195.905V104.317ZM219.456 103.001L217.879 101.429L221.157 98.1614L222.734 99.7333L219.456 103.001ZM187.631 99.692L184.312 96.4323L185.897 94.8521L189.175 98.1201L187.631 99.692ZM226.011 96.4902L224.435 94.9183L227.713 91.6089L229.289 93.1892L226.011 96.4902ZM255.529 91.9151H250.998V89.6895H254.608L254.682 89.6068L254.757 89.6895H255.064V89.9957L256.259 91.187L255.529 91.9151ZM246.401 91.9151H241.762V89.6895H246.401V91.9151ZM237.131 91.9151H232.459V89.6895H237.098L237.131 91.9151ZM259.537 87.9191L257.96 86.3388L261.238 83.0792L262.815 84.6511L259.537 87.9191ZM266.093 81.3831L264.516 79.8112L267.794 76.5432L269.371 78.1152L266.093 81.3831ZM272.648 74.8472L271.072 73.2753L274.391 70.0073L275.968 71.5793L272.648 74.8472Z" fill="black"/>
<path opacity="0.3" d="M281.112 74.0942H278.88V67.037H271.793V64.8115H281.112V74.0942Z" fill="black"/>
</g>
</g>
<path d="M93.7428 141.588H80.5898V139.363H92.357L104.597 114.965L117.509 102.092H142.438L154.902 89.665H180.287V91.8906H155.823L143.359 104.317H118.439L106.431 116.289L93.7428 141.588Z" fill="url(#paint5_linear)"/>
<g opacity="0.3">
<path opacity="0.3" d="M93.7428 141.588H80.5898V139.363H92.357L104.597 114.965L117.509 102.092H142.438L154.902 89.665H180.287V91.8906H155.823L143.359 104.317H118.439L106.431 116.289L93.7428 141.588Z" fill="#263238"/>
</g>
<path d="M126.704 121.153H113.468C111.291 121.153 109.526 122.912 109.526 125.083V138.279C109.526 140.449 111.291 142.208 113.468 142.208H126.704C128.881 142.208 130.645 140.449 130.645 138.279V125.083C130.645 122.912 128.881 121.153 126.704 121.153Z" fill="url(#paint6_linear)"/>
<path opacity="0.3" d="M126.704 121.153H113.468C111.291 121.153 109.526 122.912 109.526 125.083V138.279C109.526 140.449 111.291 142.208 113.468 142.208H126.704C128.881 142.208 130.645 140.449 130.645 138.279V125.083C130.645 122.912 128.881 121.153 126.704 121.153Z" fill="black"/>
<path d="M126.704 119.681H113.468C111.291 119.681 109.526 121.441 109.526 123.611V136.807C109.526 138.977 111.291 140.737 113.468 140.737H126.704C128.881 140.737 130.645 138.977 130.645 136.807V123.611C130.645 121.441 128.881 119.681 126.704 119.681Z" fill="url(#paint7_linear)"/>
<path opacity="0.8" d="M126.704 119.681H113.468C111.291 119.681 109.526 121.441 109.526 123.611V136.807C109.526 138.977 111.291 140.737 113.468 140.737H126.704C128.881 140.737 130.645 138.977 130.645 136.807V123.611C130.645 121.441 128.881 119.681 126.704 119.681Z" fill="white"/>
<path d="M114.488 127.044C114.435 126.282 114.686 125.53 115.185 124.95C115.739 124.475 116.446 124.214 117.177 124.214C117.907 124.214 118.614 124.475 119.168 124.95C119.668 125.53 119.918 126.282 119.865 127.044V132.835C119.883 133.379 119.766 133.919 119.525 134.407C119.537 134.45 119.558 134.49 119.587 134.524C119.615 134.558 119.651 134.586 119.691 134.605C119.799 134.636 119.911 134.65 120.023 134.647H120.181V136.219H119.94C119.605 136.232 119.272 136.164 118.969 136.02C118.725 135.896 118.53 135.696 118.413 135.449C118.225 135.517 118.03 135.567 117.832 135.598C117.616 135.639 117.396 135.659 117.177 135.656C116.812 135.682 116.446 135.63 116.103 135.505C115.759 135.379 115.447 135.183 115.185 134.928C114.687 134.348 114.437 133.597 114.488 132.835V127.044ZM116.255 132.992C116.23 133.289 116.319 133.585 116.504 133.819C116.69 133.98 116.927 134.068 117.172 134.068C117.418 134.068 117.655 133.98 117.84 133.819C118.026 133.585 118.115 133.289 118.089 132.992V126.928C118.112 126.631 118.024 126.336 117.84 126.1C117.655 125.94 117.418 125.852 117.172 125.852C116.927 125.852 116.69 125.94 116.504 126.1C116.321 126.336 116.233 126.631 116.255 126.928V132.992Z" fill="black"/>
<path d="M122.098 125.728C122.379 125.735 122.659 125.699 122.928 125.621C123.127 125.558 123.311 125.453 123.467 125.315C123.603 125.185 123.715 125.034 123.799 124.868C123.89 124.692 123.968 124.509 124.032 124.322H125.218V135.574H123.451V127.011H122.082L122.098 125.728Z" fill="black"/>
<path d="M201.613 121.98H188.377C186.2 121.98 184.436 123.74 184.436 125.91V139.106C184.436 141.277 186.2 143.036 188.377 143.036H201.613C203.79 143.036 205.555 141.277 205.555 139.106V125.91C205.555 123.74 203.79 121.98 201.613 121.98Z" fill="url(#paint8_linear)"/>
<path opacity="0.3" d="M201.613 121.98H188.377C186.2 121.98 184.436 123.74 184.436 125.91V139.106C184.436 141.277 186.2 143.036 188.377 143.036H201.613C203.79 143.036 205.555 141.277 205.555 139.106V125.91C205.555 123.74 203.79 121.98 201.613 121.98Z" fill="black"/>
<path d="M201.613 120.508H188.377C186.2 120.508 184.436 122.268 184.436 124.438V137.634C184.436 139.804 186.2 141.564 188.377 141.564H201.613C203.79 141.564 205.555 139.804 205.555 137.634V124.438C205.555 122.268 203.79 120.508 201.613 120.508Z" fill="url(#paint9_linear)"/>
<path opacity="0.8" d="M201.613 120.508H188.377C186.2 120.508 184.436 122.268 184.436 124.438V137.634C184.436 139.804 186.2 141.564 188.377 141.564H201.613C203.79 141.564 205.555 139.804 205.555 137.634V124.438C205.555 122.268 203.79 120.508 201.613 120.508Z" fill="white"/>
<path d="M189.631 128.02C189.577 127.259 189.825 126.508 190.319 125.927C190.878 125.457 191.585 125.2 192.315 125.2C193.046 125.2 193.753 125.457 194.311 125.927C194.803 126.51 195.049 127.26 195 128.02V133.811C195.018 134.355 194.901 134.895 194.659 135.383C194.673 135.428 194.695 135.469 194.725 135.505C194.755 135.54 194.792 135.569 194.834 135.59C194.941 135.607 195.05 135.607 195.157 135.59H195.323V137.162H195.083C194.748 137.176 194.414 137.107 194.112 136.963C193.867 136.842 193.671 136.64 193.556 136.393C193.366 136.459 193.172 136.511 192.975 136.55C192.755 136.587 192.533 136.606 192.311 136.608C191.946 136.631 191.58 136.577 191.237 136.45C190.894 136.323 190.581 136.126 190.319 135.871C189.823 135.291 189.576 134.539 189.631 133.778V128.02ZM191.382 134.002C191.359 134.299 191.447 134.594 191.63 134.829C191.816 134.989 192.053 135.077 192.299 135.077C192.544 135.077 192.781 134.989 192.967 134.829C193.15 134.594 193.238 134.299 193.215 134.002V127.937C193.241 127.64 193.152 127.344 192.967 127.11C192.781 126.95 192.544 126.862 192.299 126.862C192.053 126.862 191.816 126.95 191.63 127.11C191.445 127.344 191.356 127.64 191.382 127.937V134.002Z" fill="black"/>
<path d="M199.68 128.086C199.721 127.728 199.633 127.367 199.431 127.068C199.347 126.978 199.244 126.907 199.129 126.861C199.014 126.815 198.891 126.796 198.767 126.804C198.644 126.797 198.521 126.816 198.405 126.858C198.29 126.901 198.184 126.967 198.095 127.052C197.91 127.286 197.821 127.582 197.846 127.879V129.087H196.186V127.995C196.133 127.238 196.371 126.49 196.85 125.902C197.398 125.431 198.098 125.172 198.821 125.172C199.545 125.172 200.244 125.431 200.792 125.902C201.272 126.49 201.509 127.238 201.456 127.995C201.466 128.558 201.373 129.119 201.182 129.65C201.001 130.122 200.764 130.572 200.477 130.99C200.207 131.385 199.908 131.758 199.581 132.107C199.257 132.446 198.966 132.769 198.709 133.066C198.442 133.349 198.211 133.663 198.02 134.001C197.871 134.292 197.821 134.623 197.879 134.944H201.199V136.549H196.087V135.168C196.076 134.676 196.163 134.186 196.344 133.728C196.51 133.319 196.728 132.933 196.991 132.578C197.248 132.237 197.525 131.911 197.821 131.602C198.115 131.295 198.392 130.971 198.651 130.634C198.916 130.287 199.134 129.905 199.298 129.501C199.521 129.06 199.651 128.578 199.68 128.086V128.086Z" fill="black"/>
<path d="M276.78 121.153H263.544C261.367 121.153 259.603 122.912 259.603 125.083V138.279C259.603 140.449 261.367 142.208 263.544 142.208H276.78C278.957 142.208 280.722 140.449 280.722 138.279V125.083C280.722 122.912 278.957 121.153 276.78 121.153Z" fill="url(#paint10_linear)"/>
<path opacity="0.3" d="M276.78 121.153H263.544C261.367 121.153 259.603 122.912 259.603 125.083V138.279C259.603 140.449 261.367 142.208 263.544 142.208H276.78C278.957 142.208 280.722 140.449 280.722 138.279V125.083C280.722 122.912 278.957 121.153 276.78 121.153Z" fill="black"/>
<path d="M276.78 119.681H263.544C261.367 119.681 259.603 121.441 259.603 123.611V136.807C259.603 138.977 261.367 140.737 263.544 140.737H276.78C278.957 140.737 280.722 138.977 280.722 136.807V123.611C280.722 121.441 278.957 119.681 276.78 119.681Z" fill="url(#paint11_linear)"/>
<path opacity="0.8" d="M276.78 119.681H263.544C261.367 119.681 259.603 121.441 259.603 123.611V136.807C259.603 138.977 261.367 140.737 263.544 140.737H276.78C278.957 140.737 280.722 138.977 280.722 136.807V123.611C280.722 121.441 278.957 119.681 276.78 119.681Z" fill="white"/>
<path d="M264.806 127.193C264.756 126.433 265.003 125.683 265.494 125.1C266.053 124.63 266.76 124.373 267.49 124.373C268.221 124.373 268.927 124.63 269.486 125.1C269.978 125.683 270.224 126.433 270.175 127.193V132.984C270.198 133.529 270.081 134.07 269.834 134.556C269.864 134.644 269.927 134.718 270.009 134.763C270.119 134.78 270.231 134.78 270.341 134.763H270.498V136.335H270.258C269.923 136.349 269.589 136.28 269.287 136.136C269.042 136.015 268.845 135.813 268.731 135.565C268.541 135.631 268.347 135.684 268.15 135.723C267.93 135.76 267.708 135.779 267.486 135.781C267.121 135.804 266.755 135.75 266.412 135.623C266.069 135.496 265.756 135.299 265.494 135.044C265.001 134.462 264.754 133.711 264.806 132.951V127.193ZM266.573 133.141C266.55 133.438 266.639 133.733 266.822 133.969C267.008 134.129 267.245 134.217 267.49 134.217C267.735 134.217 267.973 134.129 268.158 133.969C268.341 133.733 268.43 133.438 268.407 133.141V127.077C268.432 126.78 268.343 126.484 268.158 126.25C267.973 126.09 267.735 126.001 267.49 126.001C267.245 126.001 267.008 126.09 266.822 126.25C266.637 126.484 266.548 126.78 266.573 127.077V133.141Z" fill="black"/>
<path d="M274.731 127.259C274.772 126.901 274.684 126.541 274.482 126.242C274.397 126.15 274.293 126.078 274.176 126.032C274.06 125.987 273.934 125.968 273.81 125.977C273.688 125.972 273.566 125.991 273.452 126.033C273.338 126.076 273.234 126.141 273.146 126.225C272.96 126.459 272.871 126.755 272.897 127.052V127.78H271.237V127.168C271.186 126.411 271.427 125.662 271.909 125.075C272.456 124.605 273.154 124.347 273.876 124.347C274.598 124.347 275.296 124.605 275.843 125.075C276.325 125.662 276.566 126.411 276.515 127.168V127.458C276.515 128.649 276.1 129.427 275.278 129.766C275.697 129.931 276.037 130.247 276.233 130.651C276.434 131.116 276.531 131.618 276.515 132.124V133.001C276.568 133.759 276.327 134.508 275.843 135.094C275.298 135.569 274.599 135.831 273.876 135.831C273.153 135.831 272.454 135.569 271.909 135.094C271.425 134.508 271.184 133.759 271.237 133.001V132.099H272.897V133.175C272.874 133.472 272.963 133.767 273.146 134.002C273.234 134.086 273.338 134.151 273.452 134.194C273.566 134.236 273.688 134.256 273.81 134.25C273.933 134.255 274.057 134.235 274.172 134.191C274.288 134.147 274.393 134.08 274.482 133.994C274.682 133.697 274.771 133.34 274.731 132.984V132.099C274.767 131.709 274.671 131.319 274.457 130.991C274.336 130.874 274.19 130.787 274.031 130.736C273.871 130.684 273.702 130.669 273.536 130.693H272.938V129.038H273.635C273.918 129.052 274.196 128.96 274.415 128.782C274.523 128.652 274.603 128.503 274.651 128.343C274.7 128.182 274.715 128.013 274.698 127.847L274.731 127.259Z" fill="black"/>
<path d="M202.833 238.013L204.236 250.092C204.236 282.606 203.091 285.022 200.361 296.315C199.406 300.253 198.236 304.638 196.875 308.568C196.445 309.817 196.136 311.106 195.954 312.415V312.473C195.793 313.535 195.709 314.608 195.705 315.683C195.681 319.851 195.043 323.993 193.813 327.977C192.361 332.941 190.494 338.583 188.411 344.565C168.771 349.918 148.371 351.954 128.057 350.588L147.475 314.863C149.495 311.149 150.186 306.86 149.433 302.702C146.944 288.96 143.79 268.177 143.193 247.874C142.263 216.229 144.38 221.954 145.334 207.029C145.444 205.238 145.919 203.487 146.73 201.884C147.54 200.281 148.669 198.859 150.047 197.705L151.209 196.745L162.976 172.422C163.739 170.844 164.827 169.443 166.167 168.311C167.508 167.178 169.072 166.339 170.759 165.848C172.446 165.356 174.217 165.224 175.958 165.458C177.7 165.693 179.372 166.29 180.868 167.21L192.61 174.432C192.865 174.589 193.081 174.802 193.242 175.054C193.403 175.306 193.505 175.591 193.539 175.888L195.116 189.332C195.116 189.332 203.663 202.156 204.244 207.12C204.427 208.775 202.668 213.466 202.668 213.466L202.833 238.013Z" fill="white"/>
<path d="M146.346 317.197C165.183 300.477 160.636 282.507 153.275 272.025C147.383 263.644 150.943 253.286 150.869 243.945C150.727 237.124 150.03 230.326 148.786 223.617C148.205 220.258 147.541 216.908 146.869 213.565C146.603 212.266 146.628 210.992 146.396 209.727C146.163 208.461 145.334 207.336 145.499 206.045C145.499 206.045 143.01 225.438 143.01 227.109C142.944 231.245 143.01 236.573 143.01 240.727C143.085 249.521 143.599 255.486 144.155 264.256C145.159 280.025 148.728 297.233 149.757 304.572C150.246 308.038 147.715 314.169 146.346 317.197Z" fill="url(#paint12_linear)"/>
<g opacity="0.2">
<path opacity="0.2" d="M146.346 317.197C165.183 300.477 160.636 282.507 153.275 272.025C147.383 263.644 150.943 253.286 150.869 243.945C150.727 237.124 150.03 230.326 148.786 223.617C148.205 220.258 147.541 216.908 146.869 213.565C146.603 212.266 146.628 210.992 146.396 209.727C146.163 208.461 145.334 207.336 145.499 206.045C145.499 206.045 143.01 225.438 143.01 227.109C142.944 231.245 143.01 236.573 143.01 240.727C143.085 249.521 143.599 255.486 144.155 264.256C145.159 280.025 148.728 297.233 149.757 304.572C150.246 308.038 147.715 314.169 146.346 317.197Z" fill="white"/>
</g>
<path d="M175.913 173.663C175.016 171.603 171.689 171.867 170.303 173.663C168.917 175.458 168.9 177.874 168.975 180.116C169.05 182.358 169.1 184.799 167.772 186.619C166.942 187.736 165.689 188.505 165.025 189.721C162.627 194.172 169.896 200.104 166.685 204.034C165.191 205.871 161.905 206.144 161.332 208.444C160.685 210.992 163.938 212.523 165.921 214.235C169.241 217.106 169.125 222.972 165.739 225.743C171 228.101 172.021 236.97 171.124 248.445C174.668 243.481 175.547 228.871 175.157 222.798C174.767 216.725 173.324 210.752 172.801 204.688C171.996 195.149 173.498 185.556 177.182 176.716L175.913 173.663Z" fill="url(#paint13_linear)"/>
<g opacity="0.2">
<path opacity="0.2" d="M175.913 173.663C175.016 171.603 171.689 171.867 170.303 173.663C168.917 175.458 168.9 177.874 168.975 180.116C169.05 182.358 169.1 184.799 167.772 186.619C166.942 187.736 165.689 188.505 165.025 189.721C162.627 194.172 169.896 200.104 166.685 204.034C165.191 205.871 161.905 206.144 161.332 208.444C160.685 210.992 163.938 212.523 165.921 214.235C169.241 217.106 169.125 222.972 165.739 225.743C171 228.101 172.021 236.97 171.124 248.445C174.668 243.481 175.547 228.871 175.157 222.798C174.767 216.725 173.324 210.752 172.801 204.688C171.996 195.149 173.498 185.556 177.182 176.716L175.913 173.663Z" fill="white"/>
</g>
<path d="M194.742 218.769C194.36 221.251 195.174 223.799 195.979 226.215C198.501 233.76 201.018 241.308 203.53 248.859C203.663 239.253 203.937 229.64 203.937 220.043C203.937 217.478 204.684 212.936 201.373 212.2C198.319 211.521 195.107 216.419 194.742 218.769Z" fill="url(#paint14_linear)"/>
<path opacity="0.2" d="M194.742 218.769C194.36 221.251 195.174 223.799 195.979 226.215C198.501 233.76 201.018 241.308 203.53 248.859C203.663 239.253 203.937 229.64 203.937 220.043C203.937 217.478 204.684 212.936 201.373 212.2C198.319 211.521 195.107 216.419 194.742 218.769Z" fill="white"/>
<path d="M240.857 82.7481C240.857 83.352 240.857 83.956 240.857 84.5682C240.862 89.7798 240.156 94.9679 238.757 99.9897C237.417 104.843 235.436 109.498 232.866 113.831H233.056C232.467 114.84 231.845 115.825 231.198 116.793H230.998C223.092 128.486 211.172 136.895 197.481 140.438L196.344 140.711L195.697 140.86C191.522 141.8 187.255 142.272 182.976 142.266C179.978 142.269 176.984 142.039 174.022 141.58C172.153 141.293 170.3 140.912 168.47 140.438C167.068 140.074 165.69 139.668 164.321 139.205V139.329C163.259 138.976 162.213 138.587 161.184 138.163C151.563 134.237 143.176 127.804 136.903 119.54C136.148 118.563 135.442 117.562 134.77 116.536C134.322 115.866 133.891 115.179 133.476 114.485C132.812 113.392 132.181 112.284 131.592 111.175C131.285 110.588 130.994 110 130.712 109.405C130.555 109.099 130.414 108.784 130.272 108.47C130.065 108.015 129.866 107.56 129.667 107.096C126.697 100.022 125.171 92.4278 125.177 84.7585C125.177 83.6499 125.177 82.5495 125.269 81.4492C125.343 80.1916 125.451 78.9672 125.609 77.7014C126.548 70.0561 129.014 62.676 132.863 55.9973C136.711 49.3185 141.863 43.4766 148.014 38.8168C151.91 35.8554 156.165 33.3954 160.678 31.4949C161.931 30.9737 163.209 30.4855 164.503 30.0553C176.904 25.8831 190.355 26.0085 202.676 30.4111C203.926 30.8578 205.16 31.3487 206.377 31.8837C208.347 32.7434 210.267 33.7129 212.128 34.7877H212.227C212.792 35.1103 213.356 35.4495 213.887 35.8136C214.418 36.1776 215.007 36.5251 215.547 36.8974L215.655 37.0794C216.822 37.8736 217.959 38.7009 219.065 39.5614C222.834 42.5517 226.218 45.9946 229.14 49.812C229.704 50.5483 230.243 51.3012 230.799 52.0624L231.073 52.4677C231.521 53.1379 231.969 53.7997 232.393 54.4864C232.915 55.3138 233.422 56.199 233.903 57.076L233.944 57.1587C234.105 57.4269 234.252 57.7031 234.384 57.986C234.459 58.135 234.534 58.2922 234.617 58.4411C234.849 58.8961 235.073 59.3594 235.289 59.8227C235.292 59.8447 235.292 59.8669 235.289 59.8889V59.9386L235.338 60.0378L235.38 60.1206L235.438 60.2529C235.441 60.2749 235.441 60.2972 235.438 60.3191L235.679 60.8403C238.01 65.9199 239.579 71.314 240.334 76.8492L240.483 78.6031C240.542 79.1905 240.591 79.7862 240.641 80.3736C240.691 80.961 240.708 81.4492 240.732 82.0283C240.732 82.0779 240.732 82.1276 240.732 82.1772C240.849 82.3427 240.857 82.5495 240.857 82.7481Z" fill="#263238"/>
<path d="M240.857 82.7481C240.857 83.352 240.857 83.956 240.857 84.5682C240.862 89.7798 240.156 94.9679 238.757 99.9897C237.417 104.843 235.436 109.498 232.866 113.831H233.056C232.467 114.84 231.845 115.825 231.198 116.793H230.998C223.092 128.486 211.172 136.895 197.481 140.438L196.344 140.711L195.697 140.86C191.522 141.8 187.255 142.272 182.976 142.266C179.978 142.269 176.984 142.039 174.022 141.58C172.153 141.293 170.3 140.912 168.47 140.438C167.068 140.074 165.69 139.668 164.321 139.205V139.329C163.259 138.976 162.213 138.587 161.184 138.163C151.563 134.237 143.176 127.804 136.903 119.54C136.148 118.563 135.442 117.562 134.77 116.536C134.322 115.866 133.891 115.179 133.476 114.485C132.812 113.392 132.181 112.284 131.592 111.175C131.285 110.588 130.994 110 130.712 109.405C130.555 109.099 130.414 108.784 130.272 108.47C130.065 108.015 129.866 107.56 129.667 107.096C126.697 100.022 125.171 92.4278 125.177 84.7585C125.177 83.6499 125.177 82.5495 125.269 81.4492C125.343 80.1916 125.451 78.9672 125.609 77.7014C126.548 70.0561 129.014 62.676 132.863 55.9973C136.711 49.3185 141.863 43.4766 148.014 38.8168C151.91 35.8554 156.165 33.3954 160.678 31.4949C161.931 30.9737 163.209 30.4855 164.503 30.0553C176.904 25.8831 190.355 26.0085 202.676 30.4111C203.926 30.8578 205.16 31.3487 206.377 31.8837C208.347 32.7434 210.267 33.7129 212.128 34.7877H212.227C212.792 35.1103 213.356 35.4495 213.887 35.8136C214.418 36.1776 215.007 36.5251 215.547 36.8974L215.655 37.0794C216.822 37.8736 217.959 38.7009 219.065 39.5614C222.834 42.5517 226.218 45.9946 229.14 49.812C229.704 50.5483 230.243 51.3012 230.799 52.0624L231.073 52.4677C231.521 53.1379 231.969 53.7997 232.393 54.4864C232.915 55.3138 233.422 56.199 233.903 57.076L233.944 57.1587L235.297 59.8227C235.3 59.8447 235.3 59.8669 235.297 59.8889V59.9386L235.347 60.0378L235.388 60.1206L235.446 60.2529C235.449 60.2749 235.449 60.2972 235.446 60.3191L235.687 60.8403C238.019 65.9199 239.587 71.314 240.342 76.8492L240.492 78.6031C240.55 79.1905 240.6 79.7862 240.649 80.3736C240.699 80.961 240.716 81.4492 240.741 82.0283C240.741 82.0779 240.741 82.1276 240.741 82.1772C240.849 82.3427 240.857 82.5495 240.857 82.7481Z" fill="url(#paint15_linear)"/>
<path d="M191.821 77.7838H190.651H188.245H181.042H173.781H166.851H166.486C166.486 78.2554 166.486 78.7353 166.486 79.2068C166.486 79.7446 166.486 80.2824 166.486 80.8119L166.71 81.027C166.636 81.1097 166.561 81.1759 166.486 81.2504V81.573C168.909 81.573 171.341 81.573 173.756 81.573H174.378H181.017L188.195 81.5151L195.29 81.4324L202.286 81.3331C202.327 80.0838 202.368 78.8511 202.402 77.577H203.348L191.821 77.7838ZM240.84 82.1439C240.84 82.3755 240.798 82.6072 240.782 82.8388C240.317 88.7625 239.653 94.529 238.79 99.9894C240.188 94.9677 240.895 89.7796 240.89 84.5679C240.89 83.9557 240.89 83.3518 240.89 82.7478C240.856 82.5493 240.848 82.3424 240.84 82.1439V82.1439ZM191.821 77.7838H190.651H188.245H181.042H173.781H166.851H166.486C166.486 78.2554 166.486 78.7353 166.486 79.2068C166.486 79.7446 166.486 80.2824 166.486 80.8119L166.71 81.027C166.636 81.1097 166.561 81.1759 166.486 81.2504V81.573C168.909 81.573 171.341 81.573 173.756 81.573H174.378H181.017L188.195 81.5151L195.29 81.4324L202.286 81.3331C202.327 80.0838 202.368 78.8511 202.402 77.577H203.348L191.821 77.7838ZM191.821 77.7838H190.651H188.245H181.042H173.781H166.851H166.486C166.486 78.2554 166.486 78.7353 166.486 79.2068C166.486 79.7446 166.486 80.2824 166.486 80.8119L166.71 81.027C166.636 81.1097 166.561 81.1759 166.486 81.2504V81.573C168.909 81.573 171.341 81.573 173.756 81.573H174.378H181.017L188.195 81.5151L195.29 81.4324L202.286 81.3331C202.327 80.0838 202.368 78.8511 202.402 77.577H203.348L191.821 77.7838ZM191.821 77.7838H190.651H188.245H181.042H173.781H166.851H166.486C166.486 78.2554 166.486 78.7353 166.486 79.2068C166.486 79.7446 166.486 80.2824 166.486 80.8119L166.71 81.027C166.636 81.1097 166.561 81.1759 166.486 81.2504V81.573C168.909 81.573 171.341 81.573 173.756 81.573H174.378H181.017L188.195 81.5151L195.29 81.4324L202.286 81.3331C202.327 80.0838 202.368 78.8511 202.402 77.577H203.348L191.821 77.7838ZM191.821 77.7838H190.651H188.245H181.042H173.781H166.851H166.486C166.486 78.2554 166.486 78.7353 166.486 79.2068C166.486 79.7446 166.486 80.2824 166.486 80.8119L166.71 81.027C166.636 81.1097 166.561 81.1759 166.486 81.2504V81.573C168.909 81.573 171.341 81.573 173.756 81.573H174.378H181.017L188.195 81.5151L195.29 81.4324L202.286 81.3331C202.327 80.0838 202.368 78.8511 202.402 77.577H203.348L191.821 77.7838ZM191.821 77.7838H190.651H188.245H181.042H173.781H166.851H166.486C166.486 78.2554 166.486 78.7353 166.486 79.2068C166.486 79.7446 166.486 80.2824 166.486 80.8119L166.71 81.027C166.636 81.1097 166.561 81.1759 166.486 81.2504V81.573C168.909 81.573 171.341 81.573 173.756 81.573H174.378H181.017L188.195 81.5151L195.29 81.4324L202.286 81.3331C202.327 80.0838 202.368 78.8511 202.402 77.577H203.348L191.821 77.7838ZM191.821 77.7838H190.651H188.245H181.042H173.781H166.851H166.486C166.486 78.2554 166.486 78.7353 166.486 79.2068C166.486 79.7446 166.486 80.2824 166.486 80.8119L166.71 81.027C166.636 81.1097 166.561 81.1759 166.486 81.2504V81.573C168.909 81.573 171.341 81.573 173.756 81.573H174.378H181.017L188.195 81.5151L195.29 81.4324L202.286 81.3331C202.327 80.0838 202.368 78.8511 202.402 77.577H203.348L191.821 77.7838ZM191.821 77.7838H190.651H188.245H181.042H173.781H166.851H166.486C166.486 78.2554 166.486 78.7353 166.486 79.2068C166.486 79.7446 166.486 80.2824 166.486 80.8119L166.71 81.027C166.636 81.1097 166.561 81.1759 166.486 81.2504V81.573C168.909 81.573 171.341 81.573 173.756 81.573H174.378H181.017L188.195 81.5151L195.29 81.4324L202.286 81.3331C202.327 80.0838 202.368 78.8511 202.402 77.577H203.348L191.821 77.7838ZM191.821 77.7838H190.651H188.245H181.042H173.781H166.851H166.486C166.486 78.2554 166.486 78.7353 166.486 79.2068C166.486 79.7446 166.486 80.2824 166.486 80.8119L166.71 81.027L166.478 81.2504V81.5813C168.901 81.5813 171.332 81.5813 173.747 81.5813H174.37H181.008L188.187 81.5234L195.282 81.4406L202.277 81.3414C202.319 80.0921 202.36 78.8594 202.393 77.5853H203.339L191.821 77.7838ZM191.821 77.7838H190.651H188.245H181.042H173.781H166.851H166.486C166.486 78.2554 166.486 78.7353 166.486 79.2068C166.486 79.7446 166.486 80.2824 166.486 80.8119L166.71 81.027L166.478 81.2504V81.5813C168.901 81.5813 171.332 81.5813 173.747 81.5813H174.37H181.008L188.187 81.5234L195.282 81.4406L202.277 81.3414C202.319 80.0921 202.36 78.8594 202.393 77.5853H203.339L191.821 77.7838ZM202.377 77.668H203.323L191.821 77.8004H190.651H188.245H181.042H173.781H166.851H166.486C166.486 78.272 166.486 78.7518 166.486 79.2234C166.486 79.7611 166.486 80.2989 166.486 80.8284L166.71 81.0435L166.478 81.2669V81.5978H164.544V83.1615C164.544 95.4639 164.544 107.113 164.478 116.925C176.677 116.925 188.867 116.635 200.501 116.098C201.099 111.539 201.622 106.592 202.045 101.363C202.136 100.221 202.227 99.0711 202.31 97.9045C202.7 92.5682 202.999 86.992 203.207 81.2834H202.261C202.302 80.1748 202.344 78.9256 202.377 77.668V77.668ZM203.373 46.7837C203.373 46.2211 203.373 45.6585 203.331 45.1291C203.265 43.1104 203.198 41.1165 203.115 39.1392C190.668 38.8744 177.623 38.7338 164.536 38.7255C164.536 50.7632 164.536 63.5454 164.536 75.9554V77.9576H164.885C165.039 77.9658 165.195 77.9658 165.349 77.9576H165.714H172.644H179.905H187.108H189.514H190.684L202.186 77.8252C203.622 67.4587 203.638 56.9516 203.373 46.7837V46.7837ZM191.821 77.7838H190.651H188.245H181.042H173.781H166.851H166.486C166.486 78.2554 166.486 78.7353 166.486 79.2068C166.486 79.7446 166.486 80.2824 166.486 80.8119L166.71 81.027L166.478 81.2504V81.5813C168.901 81.5813 171.332 81.5813 173.747 81.5813H174.37H181.008L188.187 81.5234L195.282 81.4406L202.277 81.3414C202.319 80.0921 202.36 78.8594 202.393 77.5853H203.339L191.821 77.7838ZM191.821 77.7838H190.651H188.245H181.042H173.781H166.851H166.486C166.486 78.2554 166.486 78.7353 166.486 79.2068C166.486 79.7446 166.486 80.2824 166.486 80.8119L166.71 81.027L166.478 81.2504V81.5813C168.901 81.5813 171.332 81.5813 173.747 81.5813H174.37H181.008L188.187 81.5234L195.282 81.4406L202.277 81.3414C202.319 80.0921 202.36 78.8594 202.393 77.5853H203.339L191.821 77.7838ZM191.821 77.7838H190.651H188.245H181.042H173.781H166.851H166.486C166.486 78.2554 166.486 78.7353 166.486 79.2068C166.486 79.7446 166.486 80.2824 166.486 80.8119L166.71 81.027L166.478 81.2504V81.5813C168.901 81.5813 171.332 81.5813 173.747 81.5813H174.37H181.008L188.187 81.5234L195.282 81.4406L202.277 81.3414C202.319 80.0921 202.36 78.8594 202.393 77.5853H203.339L191.821 77.7838ZM191.821 77.7838H190.651H188.245H181.042H173.781H166.851H166.486C166.486 78.2554 166.486 78.7353 166.486 79.2068C166.486 79.7446 166.486 80.2824 166.486 80.8119L166.71 81.027C166.636 81.1097 166.561 81.1759 166.486 81.2504V81.573C168.909 81.573 171.341 81.573 173.756 81.573H174.378H181.017L188.195 81.5151L195.29 81.4324L202.286 81.3331C202.327 80.0838 202.368 78.8511 202.402 77.577H203.348L191.821 77.7838ZM191.821 77.7838H190.651H188.245H181.042H173.781H166.851H166.486C166.486 78.2554 166.486 78.7353 166.486 79.2068C166.486 79.7446 166.486 80.2824 166.486 80.8119L166.71 81.027C166.636 81.1097 166.561 81.1759 166.486 81.2504V81.573C168.909 81.573 171.341 81.573 173.756 81.573H174.378H181.017L188.195 81.5151L195.29 81.4324L202.286 81.3331C202.327 80.0838 202.368 78.8511 202.402 77.577H203.348L191.821 77.7838ZM191.821 77.7838H190.651H188.245H181.042H173.781H166.851H166.486C166.486 78.2554 166.486 78.7353 166.486 79.2068C166.486 79.7446 166.486 80.2824 166.486 80.8119L166.71 81.027C166.636 81.1097 166.561 81.1759 166.486 81.2504V81.573C168.909 81.573 171.341 81.573 173.756 81.573H174.378H181.017L188.195 81.5151L195.29 81.4324L202.286 81.3331C202.327 80.0838 202.368 78.8511 202.402 77.577H203.348L191.821 77.7838ZM191.821 77.7838H190.651H188.245H181.042H173.781H166.851H166.486C166.486 78.2554 166.486 78.7353 166.486 79.2068C166.486 79.7446 166.486 80.2824 166.486 80.8119L166.71 81.027C166.636 81.1097 166.561 81.1759 166.486 81.2504V81.573C168.909 81.573 171.341 81.573 173.756 81.573H174.378H181.017L188.195 81.5151L195.29 81.4324L202.286 81.3331C202.327 80.0838 202.368 78.8511 202.402 77.577H203.348L191.821 77.7838ZM191.821 77.7838H190.651H188.245H181.042H173.781H166.851H166.486C166.486 78.2554 166.486 78.7353 166.486 79.2068C166.486 79.7446 166.486 80.2824 166.486 80.8119L166.71 81.027C166.636 81.1097 166.561 81.1759 166.486 81.2504V81.573C168.909 81.573 171.341 81.573 173.756 81.573H174.378H181.017L188.195 81.5151L195.29 81.4324L202.286 81.3331C202.327 80.0838 202.368 78.8511 202.402 77.577H203.348L191.821 77.7838ZM191.821 77.7838H190.651H188.245H181.042H173.781H166.851H166.486C166.486 78.2554 166.486 78.7353 166.486 79.2068C166.486 79.7446 166.486 80.2824 166.486 80.8119L166.71 81.027C166.636 81.1097 166.561 81.1759 166.486 81.2504V81.573C168.909 81.573 171.341 81.573 173.756 81.573H174.378H181.017L188.195 81.5151L195.29 81.4324L202.286 81.3331C202.327 80.0838 202.368 78.8511 202.402 77.577H203.348L191.821 77.7838ZM191.821 77.7838H190.651H188.245H181.042H173.781H166.851H166.486C166.486 78.2554 166.486 78.7353 166.486 79.2068C166.486 79.7446 166.486 80.2824 166.486 80.8119L166.71 81.027C166.636 81.1097 166.561 81.1759 166.486 81.2504V81.573C168.909 81.573 171.341 81.573 173.756 81.573H174.378H181.017L188.195 81.5151L195.29 81.4324L202.286 81.3331C202.327 80.0838 202.368 78.8511 202.402 77.577H203.348L191.821 77.7838ZM240.583 78.6112L240.433 76.8572H240.342C230.898 77.1716 220.318 77.4198 209.107 77.5935H206.957C206.957 76.8572 207.007 76.1126 207.024 75.368C207.356 63.3221 207.256 50.9121 206.725 39.1888H208.128L211.571 39.2798L219.04 39.5032C217.934 38.6262 216.797 37.7989 215.629 37.0212L215.521 36.8392C214.965 36.4669 214.409 36.1029 213.862 35.7554H213.696L210.053 35.6396L206.584 35.5485C206.518 34.3158 206.451 33.0666 206.377 31.8835C205.165 31.3319 203.931 30.841 202.676 30.4108C202.775 32.0655 202.866 33.7477 202.949 35.4575C190.576 35.1514 177.565 34.9942 164.536 34.986C164.536 33.3313 164.536 31.6766 164.536 30.022C163.242 30.4522 161.964 30.9403 160.711 31.4615C160.711 32.6198 160.711 33.7781 160.711 34.9529H153.707C151.769 36.0906 149.902 37.342 148.114 38.7007C152.263 38.7007 156.495 38.651 160.702 38.6428C160.661 51.3258 160.652 64.8444 160.702 77.8417C149.184 77.8417 137.716 77.759 126.679 77.6184H125.658C125.5 78.8511 125.393 80.1004 125.318 81.3662C125.807 81.3662 126.305 81.3662 126.803 81.3662C133.069 81.4655 139.483 81.5399 145.981 81.5813H148.221H152.022H155.765H160.677C160.677 94.4628 160.785 106.683 160.885 116.9C152.113 116.9 143.359 116.702 134.836 116.395C135.508 117.421 136.214 118.422 136.969 119.399C144.819 119.68 152.852 119.829 160.893 119.854C160.976 127.3 161.084 133.496 161.208 137.889V138.138C162.237 138.562 163.283 138.951 164.345 139.304V139.18C164.395 134.754 164.428 128.102 164.453 119.978C176.511 119.978 188.56 119.68 200.07 119.15C199.777 121.153 199.461 123.058 199.124 124.867C199.024 125.446 198.916 126.009 198.808 126.563C197.597 132.768 196.145 137.707 194.46 140.86C187.772 141.224 180.925 141.472 174.038 141.579C177 142.039 179.994 142.268 182.992 142.266C187.272 142.272 191.539 141.8 195.713 140.86L196.36 140.711L197.497 140.438C199.937 136.053 201.929 128.491 203.456 118.968C213.181 118.439 222.476 117.711 231.015 116.793H231.214C231.861 115.825 232.483 114.84 233.073 113.831H232.882C223.953 114.782 214.169 115.485 203.895 116.056C205.46 104.53 206.443 92.9327 206.841 81.3083C218.293 81.0932 229.114 80.7953 238.798 80.4065H239.529L240.724 80.3568C240.69 79.7694 240.641 79.1737 240.583 78.5698V78.6112Z" fill="url(#paint16_linear)"/>
<path opacity="0.8" d="M191.821 77.7838H190.651H188.245H181.042H173.781H166.851H166.486C166.486 78.2554 166.486 78.7353 166.486 79.2068C166.486 79.7446 166.486 80.2824 166.486 80.8119L166.71 81.027C166.636 81.1097 166.561 81.1759 166.486 81.2504V81.573C168.909 81.573 171.341 81.573 173.756 81.573H174.378H181.017L188.195 81.5151L195.29 81.4324L202.286 81.3331C202.327 80.0838 202.368 78.8511 202.402 77.577H203.348L191.821 77.7838ZM240.856 82.7478C240.856 82.5493 240.856 82.3424 240.856 82.1439C240.856 82.3755 240.815 82.6072 240.798 82.8388C240.334 88.7625 239.67 94.529 238.807 99.9894C240.205 94.9677 240.911 89.7796 240.906 84.5679C240.89 83.9557 240.881 83.3518 240.856 82.7478ZM191.821 77.7838H190.651H188.245H181.042H173.781H166.851H166.486C166.486 78.2554 166.486 78.7353 166.486 79.2068C166.486 79.7446 166.486 80.2824 166.486 80.8119L166.71 81.027C166.636 81.1097 166.561 81.1759 166.486 81.2504V81.573C168.909 81.573 171.341 81.573 173.756 81.573H174.378H181.017L188.195 81.5151L195.29 81.4324L202.286 81.3331C202.327 80.0838 202.368 78.8511 202.402 77.577H203.348L191.821 77.7838ZM191.821 77.7838H190.651H188.245H181.042H173.781H166.851H166.486C166.486 78.2554 166.486 78.7353 166.486 79.2068C166.486 79.7446 166.486 80.2824 166.486 80.8119L166.71 81.027C166.636 81.1097 166.561 81.1759 166.486 81.2504V81.573C168.909 81.573 171.341 81.573 173.756 81.573H174.378H181.017L188.195 81.5151L195.29 81.4324L202.286 81.3331C202.327 80.0838 202.368 78.8511 202.402 77.577H203.348L191.821 77.7838ZM191.821 77.7838H190.651H188.245H181.042H173.781H166.851H166.486C166.486 78.2554 166.486 78.7353 166.486 79.2068C166.486 79.7446 166.486 80.2824 166.486 80.8119L166.71 81.027C166.636 81.1097 166.561 81.1759 166.486 81.2504V81.573C168.909 81.573 171.341 81.573 173.756 81.573H174.378H181.017L188.195 81.5151L195.29 81.4324L202.286 81.3331C202.327 80.0838 202.368 78.8511 202.402 77.577H203.348L191.821 77.7838ZM191.821 77.7838H190.651H188.245H181.042H173.781H166.851H166.486C166.486 78.2554 166.486 78.7353 166.486 79.2068C166.486 79.7446 166.486 80.2824 166.486 80.8119L166.71 81.027C166.636 81.1097 166.561 81.1759 166.486 81.2504V81.573C168.909 81.573 171.341 81.573 173.756 81.573H174.378H181.017L188.195 81.5151L195.29 81.4324L202.286 81.3331C202.327 80.0838 202.368 78.8511 202.402 77.577H203.348L191.821 77.7838ZM191.821 77.7838H190.651H188.245H181.042H173.781H166.851H166.486C166.486 78.2554 166.486 78.7353 166.486 79.2068C166.486 79.7446 166.486 80.2824 166.486 80.8119L166.71 81.027C166.636 81.1097 166.561 81.1759 166.486 81.2504V81.573C168.909 81.573 171.341 81.573 173.756 81.573H174.378H181.017L188.195 81.5151L195.29 81.4324L202.286 81.3331C202.327 80.0838 202.368 78.8511 202.402 77.577H203.348L191.821 77.7838ZM191.821 77.7838H190.651H188.245H181.042H173.781H166.851H166.486C166.486 78.2554 166.486 78.7353 166.486 79.2068C166.486 79.7446 166.486 80.2824 166.486 80.8119L166.71 81.027C166.636 81.1097 166.561 81.1759 166.486 81.2504V81.573C168.909 81.573 171.341 81.573 173.756 81.573H174.378H181.017L188.195 81.5151L195.29 81.4324L202.286 81.3331C202.327 80.0838 202.368 78.8511 202.402 77.577H203.348L191.821 77.7838ZM191.821 77.7838H190.651H188.245H181.042H173.781H166.851H166.486C166.486 78.2554 166.486 78.7353 166.486 79.2068C166.486 79.7446 166.486 80.2824 166.486 80.8119L166.71 81.027C166.636 81.1097 166.561 81.1759 166.486 81.2504V81.573C168.909 81.573 171.341 81.573 173.756 81.573H174.378H181.017L188.195 81.5151L195.29 81.4324L202.286 81.3331C202.327 80.0838 202.368 78.8511 202.402 77.577H203.348L191.821 77.7838ZM191.821 77.7838H190.651H188.245H181.042H173.781H166.851H166.486C166.486 78.2554 166.486 78.7353 166.486 79.2068C166.486 79.7446 166.486 80.2824 166.486 80.8119L166.71 81.027L166.478 81.2504V81.5813C168.901 81.5813 171.332 81.5813 173.747 81.5813H174.37H181.008L188.187 81.5234L195.282 81.4406L202.277 81.3414C202.319 80.0921 202.36 78.8594 202.393 77.5853H203.339L191.821 77.7838ZM191.821 77.7838H190.651H188.245H181.042H173.781H166.851H166.486C166.486 78.2554 166.486 78.7353 166.486 79.2068C166.486 79.7446 166.486 80.2824 166.486 80.8119L166.71 81.027L166.478 81.2504V81.5813C168.901 81.5813 171.332 81.5813 173.747 81.5813H174.37H181.008L188.187 81.5234L195.282 81.4406L202.277 81.3414C202.319 80.0921 202.36 78.8594 202.393 77.5853H203.339L191.821 77.7838ZM191.821 77.7838H190.651H188.245H181.042H173.781H166.851H166.486C166.486 78.2554 166.486 78.7353 166.486 79.2068C166.486 79.7446 166.486 80.2824 166.486 80.8119L166.71 81.027L166.478 81.2504V81.5813C168.901 81.5813 171.332 81.5813 173.747 81.5813H174.37H181.008L188.187 81.5234L195.282 81.4406L202.277 81.3414C202.319 80.0921 202.36 78.8594 202.393 77.5853H203.339L191.821 77.7838ZM191.821 77.7838H190.651H188.245H181.042H173.781H166.851H166.486C166.486 78.2554 166.486 78.7353 166.486 79.2068C166.486 79.7446 166.486 80.2824 166.486 80.8119L166.71 81.027L166.478 81.2504V81.5813C168.901 81.5813 171.332 81.5813 173.747 81.5813H174.37H181.008L188.187 81.5234L195.282 81.4406L202.277 81.3414C202.319 80.0921 202.36 78.8594 202.393 77.5853H203.339L191.821 77.7838ZM191.821 77.7838H190.651H188.245H181.042H173.781H166.851H166.486C166.486 78.2554 166.486 78.7353 166.486 79.2068C166.486 79.7446 166.486 80.2824 166.486 80.8119L166.71 81.027L166.478 81.2504V81.5813C168.901 81.5813 171.332 81.5813 173.747 81.5813H174.37H181.008L188.187 81.5234L195.282 81.4406L202.277 81.3414C202.319 80.0921 202.36 78.8594 202.393 77.5853H203.339L191.821 77.7838ZM191.821 77.7838H190.651H188.245H181.042H173.781H166.851H166.486C166.486 78.2554 166.486 78.7353 166.486 79.2068C166.486 79.7446 166.486 80.2824 166.486 80.8119L166.71 81.027L166.478 81.2504V81.5813C168.901 81.5813 171.332 81.5813 173.747 81.5813H174.37H181.008L188.187 81.5234L195.282 81.4406L202.277 81.3414C202.319 80.0921 202.36 78.8594 202.393 77.5853H203.339L191.821 77.7838ZM191.821 77.7838H190.651H188.245H181.042H173.781H166.851H166.486C166.486 78.2554 166.486 78.7353 166.486 79.2068C166.486 79.7446 166.486 80.2824 166.486 80.8119L166.71 81.027C166.636 81.1097 166.561 81.1759 166.486 81.2504V81.573C168.909 81.573 171.341 81.573 173.756 81.573H174.378H181.017L188.195 81.5151L195.29 81.4324L202.286 81.3331C202.327 80.0838 202.368 78.8511 202.402 77.577H203.348L191.821 77.7838ZM191.821 77.7838H190.651H188.245H181.042H173.781H166.851H166.486C166.486 78.2554 166.486 78.7353 166.486 79.2068C166.486 79.7446 166.486 80.2824 166.486 80.8119L166.71 81.027C166.636 81.1097 166.561 81.1759 166.486 81.2504V81.573C168.909 81.573 171.341 81.573 173.756 81.573H174.378H181.017L188.195 81.5151L195.29 81.4324L202.286 81.3331C202.327 80.0838 202.368 78.8511 202.402 77.577H203.348L191.821 77.7838ZM191.821 77.7838H190.651H188.245H181.042H173.781H166.851H166.486C166.486 78.2554 166.486 78.7353 166.486 79.2068C166.486 79.7446 166.486 80.2824 166.486 80.8119L166.71 81.027C166.636 81.1097 166.561 81.1759 166.486 81.2504V81.573C168.909 81.573 171.341 81.573 173.756 81.573H174.378H181.017L188.195 81.5151L195.29 81.4324L202.286 81.3331C202.327 80.0838 202.368 78.8511 202.402 77.577H203.348L191.821 77.7838ZM191.821 77.7838H190.651H188.245H181.042H173.781H166.851H166.486C166.486 78.2554 166.486 78.7353 166.486 79.2068C166.486 79.7446 166.486 80.2824 166.486 80.8119L166.71 81.027C166.636 81.1097 166.561 81.1759 166.486 81.2504V81.573C168.909 81.573 171.341 81.573 173.756 81.573H174.378H181.017L188.195 81.5151L195.29 81.4324L202.286 81.3331C202.327 80.0838 202.368 78.8511 202.402 77.577H203.348L191.821 77.7838ZM191.821 77.7838H190.651H188.245H181.042H173.781H166.851H166.486C166.486 78.2554 166.486 78.7353 166.486 79.2068C166.486 79.7446 166.486 80.2824 166.486 80.8119L166.71 81.027C166.636 81.1097 166.561 81.1759 166.486 81.2504V81.573C168.909 81.573 171.341 81.573 173.756 81.573H174.378H181.017L188.195 81.5151L195.29 81.4324L202.286 81.3331C202.327 80.0838 202.368 78.8511 202.402 77.577H203.348L191.821 77.7838ZM191.821 77.7838H190.651H188.245H181.042H173.781H166.851H166.486C166.486 78.2554 166.486 78.7353 166.486 79.2068C166.486 79.7446 166.486 80.2824 166.486 80.8119L166.71 81.027C166.636 81.1097 166.561 81.1759 166.486 81.2504V81.573C168.909 81.573 171.341 81.573 173.756 81.573H174.378H181.017L188.195 81.5151L195.29 81.4324L202.286 81.3331C202.327 80.0838 202.368 78.8511 202.402 77.577H203.348L191.821 77.7838ZM191.821 77.7838H190.651H188.245H181.042H173.781H166.851H166.486C166.486 78.2554 166.486 78.7353 166.486 79.2068C166.486 79.7446 166.486 80.2824 166.486 80.8119L166.71 81.027C166.636 81.1097 166.561 81.1759 166.486 81.2504V81.573C168.909 81.573 171.341 81.573 173.756 81.573H174.378H181.017L188.195 81.5151L195.29 81.4324L202.286 81.3331C202.327 80.0838 202.368 78.8511 202.402 77.577H203.348L191.821 77.7838ZM240.583 78.6112L240.433 76.8572H240.342C230.898 77.1716 220.318 77.4198 209.107 77.5935H206.957C206.957 76.8572 207.007 76.1126 207.024 75.368C207.356 63.3221 207.256 50.9121 206.725 39.1888H208.128L211.571 39.2798L219.04 39.5032C217.934 38.6262 216.797 37.7989 215.629 37.0212L215.521 36.8392C214.965 36.4669 214.409 36.1029 213.862 35.7554H213.696L210.053 35.6396L206.584 35.5485C206.518 34.3158 206.451 33.0666 206.377 31.8835C205.165 31.3319 203.931 30.841 202.676 30.4108C202.775 32.0655 202.866 33.7477 202.949 35.4575C190.576 35.1514 177.565 34.9942 164.536 34.986C164.536 33.3313 164.536 31.6766 164.536 30.022C163.242 30.4522 161.964 30.9403 160.711 31.4615C160.711 32.6198 160.711 33.7781 160.711 34.9529H153.707C151.769 36.0906 149.902 37.342 148.114 38.7007C152.263 38.7007 156.495 38.651 160.702 38.6428C160.661 51.3258 160.652 64.8444 160.702 77.8417C149.184 77.8417 137.716 77.759 126.679 77.6184H125.658C125.5 78.8511 125.393 80.1004 125.318 81.3662C125.807 81.3662 126.305 81.3662 126.803 81.3662C133.069 81.4655 139.483 81.5399 145.981 81.5813H148.221H152.022H155.765H160.677C160.677 94.4628 160.785 106.683 160.885 116.9C152.113 116.9 143.359 116.702 134.836 116.395C135.508 117.421 136.214 118.422 136.969 119.399C144.819 119.68 152.852 119.829 160.893 119.854C160.976 127.3 161.084 133.496 161.208 137.889V138.138C162.237 138.562 163.283 138.951 164.345 139.304V139.18C164.395 134.754 164.428 128.102 164.453 119.978C176.511 119.978 188.56 119.68 200.07 119.15C199.777 121.153 199.461 123.058 199.124 124.867C199.024 125.446 198.916 126.009 198.808 126.563C197.597 132.768 196.145 137.707 194.46 140.86C187.772 141.224 180.925 141.472 174.038 141.579C177 142.039 179.994 142.268 182.992 142.266C187.272 142.272 191.539 141.8 195.713 140.86L196.36 140.711L197.497 140.438C199.937 136.053 201.929 128.491 203.456 118.968C213.181 118.439 222.476 117.711 231.015 116.793H231.214C231.861 115.825 232.483 114.84 233.073 113.831H232.882C223.953 114.782 214.169 115.485 203.895 116.056C205.46 104.53 206.443 92.9327 206.841 81.3083C218.293 81.0932 229.114 80.7953 238.798 80.4065H239.529L240.724 80.3568C240.69 79.7694 240.641 79.1737 240.583 78.5698V78.6112ZM202.31 98.0535C202.227 99.22 202.136 100.37 202.045 101.512C201.622 106.74 201.099 111.688 200.501 116.246C188.884 116.793 176.677 117.074 164.478 117.074C164.478 107.262 164.528 95.6128 164.544 83.3104V81.7467H166.486C168.909 81.7467 171.341 81.7467 173.756 81.7467H174.378H181.017L188.195 81.6888L195.29 81.6061L202.286 81.5068H203.232C202.999 87.1161 202.7 92.6924 202.31 98.0286V98.0535ZM203.323 77.6763L191.821 77.8087H190.651H188.245H181.042H173.781H166.851H166.486C166.331 77.8169 166.176 77.8169 166.022 77.8087H165.656V75.8065C165.656 63.3965 165.656 50.6391 165.656 38.5766C178.743 38.5766 191.813 38.7255 204.236 38.9903C204.319 40.9676 204.385 42.9614 204.451 44.9801C204.451 45.5344 204.451 46.097 204.493 46.6348C203.638 56.9516 203.622 67.4587 203.323 77.6515V77.6763Z" fill="white"/>
<path d="M203.207 81.4072C202.999 87.1158 202.7 92.692 202.31 98.0283C202.227 99.1949 202.136 100.345 202.045 101.487C201.622 106.715 201.099 111.663 200.501 116.221C188.884 116.767 176.677 117.049 164.478 117.049C164.478 107.237 164.528 95.5877 164.544 83.2853V81.7216H166.486C168.909 81.7216 171.341 81.7216 173.756 81.7216H174.378H181.017L188.195 81.6637L195.29 81.581L202.286 81.4817L203.207 81.4072Z" fill="url(#paint17_linear)"/>
<path d="M203.323 77.651L191.822 77.7833H190.652H188.245H181.042H173.781H166.852H166.487C166.332 77.7916 166.177 77.7916 166.022 77.7833H165.657V75.7812C165.657 63.3712 165.657 50.6138 165.657 38.5513C178.743 38.5513 191.813 38.7002 204.236 38.9649C204.319 40.9423 204.385 42.9361 204.452 44.9548C204.452 45.5091 204.452 46.0717 204.493 46.6095C203.638 56.9511 203.622 67.4582 203.323 77.651Z" fill="url(#paint18_linear)"/>
<path d="M164.354 81.1676L161.226 78.4705L164.354 75.7568L167.483 78.4705L164.354 81.1676Z" fill="#263238"/>
<path d="M215.687 37.0383L215.579 36.8563C215.023 36.484 214.467 36.12 213.92 35.7725C213.372 35.425 212.799 35.0692 212.26 34.7466H212.16L210.136 35.5739L209.422 35.88L206.974 38.0807L208.202 39.1563L210.003 40.7447L211.663 39.2473L212.011 38.9329L215.92 37.2782L215.687 37.0383ZM203.331 45.1048L201.24 43.2598C199.315 44.9917 197.353 46.7401 195.356 48.5051L198.435 51.2684L203.372 46.8256L204.294 45.9983L203.331 45.1048ZM189.315 53.8662L183.158 59.3101L186.261 62.0485C188.33 60.2284 190.38 58.4138 192.41 56.6047L189.315 53.8662ZM176.917 64.7953L170.635 70.297L173.755 73.0272L180.029 67.542L176.917 64.7953Z" fill="#263238"/>
<g opacity="0.5">
<path opacity="0.5" d="M227.752 56.5713H224.491L221.254 60.0295L223.686 62.677C224.433 61.8497 225.171 61.0223 225.902 60.2612H227.752C227.777 59.0367 227.769 57.804 227.752 56.5713ZM216.607 65.0266C215.025 66.6813 213.418 68.3663 211.786 70.0816C212.627 70.9641 213.457 71.8438 214.275 72.7208C215.902 71.033 217.504 69.3508 219.08 67.6741C218.25 66.7971 217.437 65.9119 216.607 65.0266ZM173.779 77.8916C173.779 79.1657 173.779 80.4398 173.779 81.7056H174.402H181.04C181.04 80.4481 181.04 79.174 181.09 77.8999L173.779 77.8916ZM191.82 77.7841H190.65H188.243C188.243 79.0582 188.194 80.3157 188.169 81.5732L195.264 81.4905C195.305 80.2412 195.339 79.0085 195.363 77.7179L191.82 77.7841ZM209.139 77.5689L207.056 75.3765L206.848 75.1614C206.019 75.9888 205.189 76.8161 204.4 77.6434H203.322H202.376C202.376 78.901 202.301 80.1254 202.259 81.3995H203.205L205.786 81.3581L209.338 77.7758L209.139 77.5689Z" fill="black"/>
<path opacity="0.5" d="M166.485 81.7305H162.61V77.9082H166.485C166.485 79.1906 166.485 80.4564 166.485 81.7305Z" fill="black"/>
<g opacity="0.2">
<path opacity="0.2" d="M227.752 56.5713H224.491L221.254 60.0295L223.686 62.677C224.433 61.8497 225.171 61.0223 225.902 60.2612H227.752C227.777 59.0367 227.769 57.804 227.752 56.5713ZM216.607 65.0266C215.025 66.6813 213.418 68.3663 211.786 70.0816C212.627 70.9641 213.457 71.8438 214.275 72.7208C215.902 71.033 217.504 69.3508 219.08 67.6741C218.25 66.7971 217.437 65.9119 216.607 65.0266ZM173.779 77.8916C173.779 79.1657 173.779 80.4398 173.779 81.7056H174.402H181.04C181.04 80.4481 181.04 79.174 181.09 77.8999L173.779 77.8916ZM191.82 77.7841H190.65H188.243C188.243 79.0582 188.194 80.3157 188.169 81.5732L195.264 81.4905C195.305 80.2412 195.339 79.0085 195.363 77.7179L191.82 77.7841ZM209.139 77.5689L207.056 75.3765L206.848 75.1614C206.019 75.9888 205.189 76.8161 204.4 77.6434H203.322H202.376C202.376 78.901 202.301 80.1254 202.259 81.3995H203.205L205.786 81.3581L209.338 77.7758L209.139 77.5689Z" fill="black"/>
<path opacity="0.2" d="M166.485 81.7305H162.61V77.9082H166.485C166.485 79.1906 166.485 80.4564 166.485 81.7305Z" fill="black"/>
</g>
</g>
<g opacity="0.3">
<path opacity="0.3" d="M163.996 83.8566L161.258 81.1678L163.996 78.4707L166.735 81.1678L163.996 83.8566Z" fill="black"/>
<path opacity="0.3" d="M240.839 82.1443C240.839 82.0946 240.839 82.045 240.839 81.9953L239.512 80.4069C239.404 80.2745 239.296 80.1338 239.18 80.0015L238.781 80.4399C237.296 82.0946 235.769 83.7493 234.226 85.4039C234.906 86.2313 235.57 86.9841 236.226 87.7701C237.761 86.1154 239.279 84.4608 240.748 82.8061C240.778 82.78 240.803 82.7493 240.823 82.7151C240.856 82.5496 240.848 82.3428 240.839 82.1443ZM172.344 86.6946L169.606 89.342C171.465 91.1456 173.307 92.9271 175.133 94.6866L177.871 92.0971C176.046 90.3211 174.203 88.5202 172.344 86.6946ZM229.105 90.7733C227.357 92.5659 225.57 94.3446 223.745 96.1096C224.442 96.8708 225.122 97.6319 225.794 98.3848C227.587 96.6308 229.354 94.8686 231.097 93.0981L229.105 90.7733ZM184.427 98.4261L183.257 97.2927L180.527 99.8326L182.742 101.942L188.725 101.835C188.784 100.685 188.842 99.5182 188.9 98.3434L184.427 98.4261ZM202.31 97.9959C200.401 98.0621 198.468 98.12 196.501 98.1697C196.426 99.3362 196.352 100.494 196.269 101.636C198.199 101.587 200.114 101.526 202.011 101.454L203.721 101.396C203.82 100.255 203.912 99.1046 204.003 97.9463C203.463 97.9959 202.891 98.0208 202.31 98.029V97.9959ZM211.372 97.6733C211.272 98.8315 211.164 99.9732 211.048 101.098C213.446 100.999 215.82 100.883 218.152 100.759C218.276 99.6341 218.401 98.5006 218.517 97.3589C216.168 97.5078 213.787 97.5988 211.372 97.7064V97.6733Z" fill="black"/>
<g opacity="0.3">
<path opacity="0.3" d="M163.996 83.8566L161.258 81.1678L163.996 78.4707L166.735 81.1678L163.996 83.8566Z" fill="black"/>
<path opacity="0.3" d="M240.839 82.1443C240.839 82.0946 240.839 82.045 240.839 81.9953L239.512 80.4069C239.404 80.2745 239.296 80.1338 239.18 80.0015L238.781 80.4399C237.296 82.0946 235.769 83.7493 234.226 85.4039C234.906 86.2313 235.57 86.9841 236.226 87.7701C237.761 86.1154 239.279 84.4608 240.748 82.8061C240.778 82.78 240.803 82.7493 240.823 82.7151C240.856 82.5496 240.848 82.3428 240.839 82.1443ZM172.344 86.6946L169.606 89.342C171.465 91.1456 173.307 92.9271 175.133 94.6866L177.871 92.0971C176.046 90.3211 174.203 88.5202 172.344 86.6946ZM229.105 90.7733C227.357 92.5659 225.57 94.3446 223.745 96.1096C224.442 96.8708 225.122 97.6319 225.794 98.3848C227.587 96.6308 229.354 94.8686 231.097 93.0981L229.105 90.7733ZM184.427 98.4261L183.257 97.2927L180.527 99.8326L182.742 101.942L188.725 101.835C188.784 100.685 188.842 99.5182 188.9 98.3434L184.427 98.4261ZM202.31 97.9959C200.401 98.0621 198.468 98.12 196.501 98.1697C196.426 99.3362 196.352 100.494 196.269 101.636C198.199 101.587 200.114 101.526 202.011 101.454L203.721 101.396C203.82 100.255 203.912 99.1046 204.003 97.9463C203.463 97.9959 202.891 98.0208 202.31 98.029V97.9959ZM211.372 97.6733C211.272 98.8315 211.164 99.9732 211.048 101.098C213.446 100.999 215.82 100.883 218.152 100.759C218.276 99.6341 218.401 98.5006 218.517 97.3589C216.168 97.5078 213.787 97.5988 211.372 97.7064V97.6733Z" fill="black"/>
</g>
</g>
<path d="M200.227 129.757C200.045 130.543 199.845 131.288 199.646 132.016V132.173L199.447 132.893C199.198 133.77 198.949 134.605 198.684 135.375C198.634 135.49 198.601 135.606 198.559 135.722L198.41 136.152C198.368 136.293 198.31 136.434 198.261 136.574C198.196 136.776 198.121 136.975 198.036 137.17C197.688 138.088 197.331 138.924 196.958 139.652C196.808 139.966 196.651 140.264 196.493 140.554L196.418 140.661L195.771 140.81C191.596 141.751 187.329 142.222 183.05 142.217C180.052 142.219 177.058 141.989 174.096 141.53C172.227 141.243 170.374 140.862 168.544 140.388C168.544 140.107 168.544 139.817 168.602 139.511C168.66 139.205 168.652 138.734 168.677 138.32C168.702 137.906 168.727 137.493 168.751 137.029C168.776 136.566 168.801 136.119 168.818 135.639C168.818 135.399 168.818 135.16 168.818 134.911C168.876 133.621 168.934 132.222 168.992 130.725C169.058 128.458 171.847 126.365 175.216 126.315C182.012 126.2 188.742 125.993 195.331 125.687C196.557 125.586 197.783 125.875 198.833 126.514C199.393 126.824 199.834 127.31 200.087 127.898C200.339 128.485 200.389 129.139 200.227 129.757V129.757Z" fill="url(#paint19_linear)"/>
<g opacity="0.3">
<path opacity="0.3" d="M200.227 129.757C200.045 130.543 199.845 131.288 199.646 132.016V132.173L199.447 132.893C199.198 133.77 198.949 134.605 198.684 135.375C198.634 135.49 198.601 135.606 198.559 135.722L198.41 136.152C198.368 136.293 198.31 136.434 198.261 136.574C198.196 136.776 198.121 136.975 198.036 137.17C197.688 138.088 197.331 138.924 196.958 139.652C196.808 139.966 196.651 140.264 196.493 140.554L196.418 140.661L195.771 140.81C191.596 141.751 187.329 142.222 183.05 142.217C180.052 142.219 177.058 141.989 174.096 141.53C172.227 141.243 170.374 140.862 168.544 140.388C168.544 140.107 168.544 139.817 168.602 139.511C168.66 139.205 168.652 138.734 168.677 138.32C168.702 137.906 168.727 137.493 168.751 137.029C168.776 136.566 168.801 136.119 168.818 135.639C168.818 135.399 168.818 135.16 168.818 134.911C168.876 133.621 168.934 132.222 168.992 130.725C169.058 128.458 171.847 126.365 175.216 126.315C182.012 126.2 188.742 125.993 195.331 125.687C196.557 125.586 197.783 125.875 198.833 126.514C199.393 126.824 199.834 127.31 200.087 127.898C200.339 128.485 200.389 129.139 200.227 129.757V129.757Z" fill="black"/>
</g>
<path d="M200.592 128.21C200.476 128.74 200.352 129.261 200.227 129.766C200.045 130.552 199.846 131.296 199.646 132.024V132.182L199.447 132.901C199.198 133.778 198.949 134.614 198.684 135.383C198.592 135.648 198.509 135.905 198.41 136.161C198.31 136.418 198.31 136.442 198.261 136.583C198.196 136.785 198.121 136.984 198.036 137.179C197.688 138.097 197.331 138.933 196.958 139.661C196.676 140.148 196.266 140.549 195.771 140.819C191.596 141.759 187.329 142.231 183.05 142.225C180.052 142.228 177.058 141.998 174.096 141.539C172.227 141.252 170.374 140.871 168.544 140.397C168.544 140.116 168.544 139.826 168.602 139.52C168.66 139.214 168.652 138.742 168.677 138.329C168.702 137.915 168.727 137.501 168.751 137.038C168.776 136.575 168.801 136.128 168.818 135.648C168.818 135.408 168.818 135.168 168.818 134.92C168.876 133.629 168.934 132.231 168.992 130.734C168.992 130.221 169.009 129.7 169.042 129.17C169.108 126.812 171.921 124.645 175.324 124.595C182.17 124.479 188.966 124.272 195.613 123.966C196.85 123.865 198.087 124.154 199.148 124.794V124.794C199.729 125.129 200.184 125.644 200.444 126.261C200.705 126.877 200.757 127.562 200.592 128.21Z" fill="url(#paint20_linear)"/>
<g opacity="0.8">
<path opacity="0.8" d="M200.592 128.21C200.476 128.74 200.352 129.261 200.227 129.766C200.045 130.552 199.846 131.296 199.646 132.024V132.182L199.447 132.901C199.198 133.778 198.949 134.614 198.684 135.383C198.592 135.648 198.509 135.905 198.41 136.161C198.31 136.418 198.31 136.442 198.261 136.583C198.196 136.785 198.121 136.984 198.036 137.179C197.688 138.097 197.331 138.933 196.958 139.661C196.676 140.148 196.266 140.549 195.771 140.819C191.596 141.759 187.329 142.231 183.05 142.225C180.052 142.228 177.058 141.998 174.096 141.539C172.227 141.252 170.374 140.871 168.544 140.397C168.544 140.116 168.544 139.826 168.602 139.52C168.66 139.214 168.652 138.742 168.677 138.329C168.702 137.915 168.727 137.501 168.751 137.038C168.776 136.575 168.801 136.128 168.818 135.648C168.818 135.408 168.818 135.168 168.818 134.92C168.876 133.629 168.934 132.231 168.992 130.734C168.992 130.221 169.009 129.7 169.042 129.17C169.108 126.812 171.921 124.645 175.324 124.595C182.17 124.479 188.966 124.272 195.613 123.966C196.85 123.865 198.087 124.154 199.148 124.794V124.794C199.729 125.129 200.184 125.644 200.444 126.261C200.705 126.877 200.757 127.562 200.592 128.21Z" fill="white"/>
</g>
<path d="M183.523 137.699C183.855 136.194 184.178 134.481 184.477 132.586C184.569 132.208 184.55 131.812 184.424 131.444C184.297 131.077 184.068 130.752 183.763 130.51C182.911 129.957 181.894 129.715 180.884 129.823C179.804 129.792 178.738 130.08 177.822 130.65C177.469 130.892 177.174 131.208 176.961 131.578C176.747 131.947 176.618 132.36 176.585 132.785C176.397 134.682 176.198 136.384 175.988 137.89C175.923 138.185 175.958 138.493 176.089 138.766C176.22 139.039 176.438 139.26 176.71 139.395C177.538 139.763 178.447 139.911 179.349 139.826C179.672 139.826 179.979 139.826 180.262 139.768C180.544 139.71 180.818 139.693 181.091 139.644C181.268 139.829 181.502 139.951 181.755 139.991C182.178 140.079 182.611 140.11 183.041 140.082H183.365C183.465 139.743 183.564 139.387 183.656 139.015H183.44C183.291 139.024 183.141 139.024 182.992 139.015C182.95 139.008 182.91 138.992 182.875 138.968C182.841 138.943 182.813 138.911 182.793 138.874C183.162 138.576 183.42 138.162 183.523 137.699ZM181.905 132.553C181.631 134.531 181.34 136.309 181.033 137.865C181.012 138.005 180.958 138.137 180.874 138.251C180.79 138.365 180.679 138.457 180.552 138.518C180.251 138.659 179.922 138.73 179.589 138.725C179.282 138.755 178.972 138.701 178.693 138.568C178.588 138.503 178.508 138.405 178.466 138.29C178.424 138.174 178.422 138.048 178.461 137.931C178.726 136.384 178.975 134.622 179.208 132.628C179.218 132.464 179.266 132.305 179.346 132.162C179.426 132.018 179.538 131.895 179.672 131.8C179.98 131.615 180.334 131.52 180.693 131.527C181.027 131.491 181.364 131.57 181.647 131.751C181.758 131.849 181.841 131.976 181.886 132.117C181.931 132.258 181.938 132.409 181.905 132.553Z" fill="black"/>
<path d="M193.266 130.137C192.458 129.593 191.476 129.366 190.511 129.5C189.432 129.488 188.375 129.796 187.473 130.386C187.119 130.635 186.818 130.953 186.59 131.322C186.362 131.69 186.211 132.1 186.146 132.528C186.087 132.884 186.021 133.232 185.963 133.571L188.378 133.48C188.453 133.099 188.527 132.719 188.602 132.322C188.628 132.156 188.687 131.998 188.775 131.856C188.863 131.714 188.979 131.591 189.116 131.494C189.426 131.305 189.782 131.205 190.145 131.205C190.469 131.167 190.796 131.246 191.066 131.428C191.274 131.593 191.324 131.933 191.224 132.421C191.122 132.924 190.893 133.394 190.56 133.786C190.22 134.187 189.829 134.542 189.399 134.845C188.951 135.171 188.486 135.472 188.004 135.747C187.531 136.013 187.071 136.303 186.627 136.615C186.216 136.889 185.837 137.208 185.498 137.567C185.194 137.87 184.974 138.246 184.859 138.659C184.776 138.998 184.685 139.321 184.594 139.627C186.917 139.544 189.224 139.445 191.515 139.329C191.656 138.973 191.788 138.593 191.921 138.196C190.403 138.27 188.876 138.344 187.341 138.402C187.352 138.261 187.393 138.124 187.462 138C187.531 137.876 187.625 137.768 187.739 137.683C188.065 137.405 188.415 137.156 188.784 136.938C189.205 136.673 189.678 136.398 190.203 136.111C190.732 135.805 191.239 135.465 191.722 135.093C192.198 134.728 192.63 134.309 193.008 133.844C193.39 133.384 193.655 132.839 193.78 132.255C193.913 131.891 193.935 131.496 193.843 131.119C193.752 130.742 193.551 130.401 193.266 130.137V130.137Z" fill="black"/>
<path d="M162.603 77.9077V81.73H160.677H155.765H152.022H148.221H145.981C139.483 81.6886 133.069 81.6142 126.803 81.5149C126.305 81.5149 125.807 81.5149 125.318 81.5149C125.393 80.2573 125.5 79.0329 125.658 77.7671H126.654C137.658 77.9077 149.126 77.9739 160.677 77.9905L162.603 77.9077Z" fill="#263238"/>
<path d="M162.602 83.9564C164.853 83.9564 166.677 82.1377 166.677 79.8942C166.677 77.6507 164.853 75.832 162.602 75.832C160.352 75.832 158.528 77.6507 158.528 79.8942C158.528 82.1377 160.352 83.9564 162.602 83.9564Z" fill="#263238"/>
<path opacity="0.2" d="M240.964 84.6337C240.951 98.6889 235.78 112.253 226.426 122.769C217.072 133.285 204.182 140.025 190.187 141.718C176.192 143.411 162.059 139.941 150.454 131.96C138.849 123.98 130.574 112.042 127.189 98.3982C123.804 84.7541 125.544 70.3468 132.081 57.8936C138.617 45.4404 149.498 35.8021 162.672 30.7964C175.845 25.7908 190.4 25.7638 203.592 30.7205C216.785 35.6773 227.701 45.2752 234.284 57.704C238.674 66.0055 240.967 75.2491 240.964 84.6337V84.6337Z" fill="white"/>
<path opacity="0.2" d="M240.964 84.6338C240.964 99.9385 234.866 114.616 224.011 125.438C213.156 136.26 198.434 142.34 183.083 142.34L240.964 84.6338Z" fill="white"/>
<path opacity="0.2" d="M126.812 98.1609C124.447 88.3301 124.712 78.0529 127.58 68.3562C130.448 58.6595 135.818 49.8829 143.154 42.9035C150.489 35.9241 159.534 30.9863 169.383 28.5835C179.233 26.1807 189.542 26.3971 199.282 29.2111L126.812 98.1609Z" fill="white"/>
<path opacity="0.2" d="M234.284 57.7042L154.52 134.828C149.714 132.101 145.323 128.702 141.483 124.735L224.243 44.0698C228.246 48.0964 231.629 52.6909 234.284 57.7042V57.7042Z" fill="white"/>
<path d="M216.335 142.945L192.991 159.988H173.175L149.84 142.945H216.335Z" fill="#C9CCCD" stroke="#263238" stroke-linecap="round" stroke-linejoin="round"/>
<path d="M183.083 17.5713C168.235 17.5715 153.804 22.4692 142.039 31.5008C130.275 40.5324 121.838 53.1906 118.043 67.5024C114.248 81.8142 115.31 96.9755 121.061 110.623C126.812 124.271 136.931 135.638 149.84 142.953V142.953C158.794 148.028 168.798 150.985 179.08 151.596C189.362 152.207 199.647 150.456 209.143 146.479C218.639 142.501 227.092 136.403 233.851 128.654C240.609 120.905 245.493 111.712 248.125 101.784C250.758 91.8558 251.068 81.4578 249.033 71.3913C246.998 61.3247 242.672 51.8585 236.388 43.7222C230.103 35.5859 222.029 28.9968 212.788 24.4628C203.546 19.9289 193.383 17.5711 183.083 17.5713V17.5713ZM183.083 142.341C171.635 142.341 160.444 138.957 150.926 132.616C141.407 126.275 133.989 117.263 129.608 106.718C125.227 96.1736 124.081 84.5708 126.314 73.3768C128.547 62.1829 134.06 51.9006 142.155 43.8302C150.25 35.7598 160.563 30.2638 171.791 28.0372C183.019 25.8106 194.657 26.9534 205.233 31.3211C215.81 35.6887 224.85 43.0851 231.21 52.5748C237.57 62.0646 240.964 73.2215 240.964 84.6348C240.965 92.2132 239.469 99.7176 236.561 106.719C233.652 113.721 229.389 120.083 224.014 125.442C218.639 130.801 212.258 135.051 205.235 137.951C198.212 140.85 190.684 142.342 183.083 142.341V142.341Z" fill="#C9CCCD" stroke="#263238" stroke-linecap="round" stroke-linejoin="round"/>
<path d="M192.103 159.988H173.175V277.519H192.103V159.988Z" fill="#263238"/>
<path d="M170.37 34.9938C174.365 34.0336 178.46 33.5504 182.569 33.5542" stroke="#263238" stroke-miterlimit="10"/>
<path d="M130.878 85.0815C130.877 75.1768 133.738 65.4816 139.12 57.1563C144.502 48.831 152.177 42.2284 161.225 38.1387" stroke="#263238" stroke-miterlimit="10"/>
<path d="M202.17 241.149C193.315 216.809 193.357 212.862 192.842 198.128C192.676 193.528 192.768 188.87 191.672 184.394C190.577 179.918 187.83 174.06 183.258 173.382C179.897 172.877 176.577 175.037 174.785 177.924C172.992 180.811 172.445 184.27 172.121 187.645C171.059 198.422 171.888 209.302 174.569 219.795C171.308 227.283 172.553 232.884 170.503 244.293V292.278H199.987C199.987 292.278 207.887 256.967 202.17 241.149Z" fill="white"/>
<path d="M201.39 292.22C201.39 292.22 207.887 256.967 202.128 241.149C193.274 216.809 193.315 212.862 192.801 198.128C192.635 193.528 192.726 188.87 191.631 184.394C190.535 179.918 187.788 174.06 183.216 173.382C179.855 172.877 176.536 175.037 174.743 177.924C172.951 180.811 172.403 184.27 172.08 187.645C171.018 198.422 171.846 209.302 174.528 219.795C171.266 227.283 172.511 232.884 170.461 244.293" stroke="#263238" stroke-linecap="round" stroke-linejoin="round"/>
<path d="M195.116 189.432C195.455 190.794 195.428 192.221 195.038 193.569C194.647 194.917 193.907 196.138 192.892 197.11" fill="white"/>
<path d="M195.116 189.432C195.455 190.794 195.428 192.221 195.038 193.569C194.647 194.917 193.907 196.138 192.892 197.11" stroke="#263238" stroke-linecap="round" stroke-linejoin="round"/>
<path d="M187.124 178.255C187.435 180.595 187.435 182.965 187.124 185.304C183.523 186.527 179.641 186.662 175.963 185.693C175.343 183.613 175.263 181.409 175.731 179.29" fill="white"/>
<path d="M187.124 178.255C187.435 180.595 187.435 182.965 187.124 185.304C183.523 186.527 179.641 186.662 175.963 185.693C175.343 183.613 175.263 181.409 175.731 179.29" stroke="#263238" stroke-linecap="round" stroke-linejoin="round"/>
<path d="M176.744 228.523C177.092 229.905 177.308 230.757 177.573 231.75Z" fill="white"/>
<path d="M176.744 228.523C177.092 229.905 177.308 230.757 177.573 231.75" stroke="#263238" stroke-linecap="round" stroke-linejoin="round"/>
<path d="M173.955 217.562C174.229 218.679 175.366 223.155 176.362 227.134Z" fill="white"/>
<path d="M173.955 217.562C174.229 218.679 175.366 223.155 176.362 227.134" stroke="#263238" stroke-linecap="round" stroke-linejoin="round"/>
<path d="M193.622 228.358C193.622 230.104 193.713 231.668 193.83 233.033Z" fill="white"/>
<path d="M193.622 228.358C193.622 230.104 193.713 231.668 193.83 233.033" stroke="#263238" stroke-linecap="round" stroke-linejoin="round"/>
<path d="M193.207 206.442C193.697 212.523 193.489 219.167 193.572 225.562Z" fill="white"/>
<path d="M193.207 206.442C193.697 212.523 193.489 219.167 193.572 225.562" stroke="#263238" stroke-linecap="round" stroke-linejoin="round"/>
<path d="M202.808 212.267C200.527 215.283 198.078 218.17 195.473 220.913Z" fill="white"/>
<path d="M202.808 212.267C200.527 215.283 198.078 218.17 195.473 220.913" stroke="#263238" stroke-linecap="round" stroke-linejoin="round"/>
<path d="M198.576 230.509C200.106 229.436 201.421 228.086 202.451 226.53Z" fill="white"/>
<path d="M198.576 230.509C200.106 229.436 201.421 228.086 202.451 226.53" stroke="#263238" stroke-linecap="round" stroke-linejoin="round"/>
<path d="M146.612 226.812C148.089 232.603 144.711 238.7 145.375 244.674" stroke="#263238" stroke-linecap="round" stroke-linejoin="round"/>
<path d="M144.911 213.425C145.267 216.859 145.533 219.481 145.89 222.915" stroke="#263238" stroke-linecap="round" stroke-linejoin="round"/>
<path d="M158.188 280.067C158.835 281.043 159.483 281.995 160.138 282.913" stroke="#263238" stroke-linecap="round" stroke-linejoin="round"/>
<path d="M146.022 251.483C146.222 258.151 150.769 268.137 156.263 277.023" stroke="#263238" stroke-linecap="round" stroke-linejoin="round"/>
<path d="M177.208 190.549L186.444 189.846" stroke="#263238" stroke-linecap="round" stroke-linejoin="round"/>
<path d="M174.046 195.513C171.499 196.829 184.088 192.469 184.652 192.419" stroke="#263238" stroke-linecap="round" stroke-linejoin="round"/>
<path d="M176.444 198.896C175.515 199.385 185.522 197.118 187.614 197.689" stroke="#263238" stroke-linecap="round" stroke-linejoin="round"/>
<path d="M176.146 206.384C180.237 206.787 184.356 205.969 187.98 204.035" stroke="#263238" stroke-linecap="round" stroke-linejoin="round"/>
<path d="M171.465 171.413C172.743 173.663 174.477 175.218 174.527 177.8" stroke="#263238" stroke-linecap="round" stroke-linejoin="round"/>
<path d="M166.42 185.188C168.171 186.573 169.818 188.082 171.349 189.705" stroke="#263238" stroke-linecap="round" stroke-linejoin="round"/>
<path d="M193.207 205.425C194.164 204.977 195.215 204.764 196.271 204.803C197.328 204.842 198.36 205.132 199.281 205.648" fill="white"/>
<path d="M193.207 205.425C194.164 204.977 195.215 204.764 196.271 204.803C197.328 204.842 198.36 205.132 199.281 205.648" stroke="#263238" stroke-linecap="round" stroke-linejoin="round"/>
<path d="M163.623 206.442C166.113 207.27 169.1 209.181 172.635 210.414" stroke="#263238" stroke-linecap="round" stroke-linejoin="round"/>
<path d="M172.138 217.322L166.396 221.698" stroke="#263238" stroke-linecap="round" stroke-linejoin="round"/>
<path d="M183.631 345.798C188.965 335.165 193.098 323.975 195.954 312.432Z" fill="white"/>
<path d="M183.631 345.798C188.965 335.165 193.098 323.975 195.954 312.432" stroke="#263238" stroke-linecap="round" stroke-linejoin="round"/>
<path d="M198.436 303.191C197.166 307.22 193.805 320.3 193.357 320.912C193.479 315.374 193.936 309.849 194.726 304.366C195.189 301.049 196.073 297.805 197.357 294.711C199.058 290.574 201.838 283.6 204.444 275.839C204.444 275.831 202.352 290.789 198.436 303.191Z" fill="#263238"/>
<path d="M188.402 344.566C190.493 338.584 192.352 332.917 193.804 327.977C195.034 323.994 195.672 319.852 195.696 315.683C195.701 314.609 195.784 313.536 195.945 312.473V312.415C196.127 311.106 196.436 309.818 196.866 308.568C198.227 304.638 199.397 300.254 200.352 296.316C203.082 285.022 204.219 282.607 204.227 250.093L202.825 238.013L202.65 213.5C202.65 213.5 204.41 208.776 204.227 207.154C203.655 202.19 195.099 189.366 195.099 189.366L193.522 175.922C193.488 175.625 193.386 175.34 193.225 175.088C193.064 174.836 192.848 174.623 192.593 174.466L180.851 167.243C179.356 166.322 177.683 165.724 175.941 165.489C174.2 165.254 172.428 165.386 170.741 165.878C169.054 166.369 167.489 167.209 166.149 168.342C164.808 169.475 163.721 170.877 162.959 172.456L151.192 196.779L150.03 197.739C148.654 198.889 147.526 200.305 146.714 201.902C145.903 203.499 145.424 205.243 145.309 207.03C144.354 221.922 142.238 216.23 143.168 247.875C143.765 268.178 146.902 288.961 149.408 302.703C150.16 306.861 149.47 311.15 147.449 314.864L128.031 350.588" stroke="#263238" stroke-linecap="round" stroke-linejoin="round"/>
<defs>
<linearGradient id="paint0_linear" x1="230.766" y1="245.113" x2="230.766" y2="201.016" gradientUnits="userSpaceOnUse">
<stop stop-color="#FF5E3A"/>
<stop offset="1" stop-color="#FF9500"/>
</linearGradient>
<linearGradient id="paint1_linear" x1="115.551" y1="298.021" x2="115.551" y2="201.016" gradientUnits="userSpaceOnUse">
<stop stop-color="#FF5E3A"/>
<stop offset="1" stop-color="#FF9500"/>
</linearGradient>
<linearGradient id="paint2_linear" x1="173.196" y1="207.742" x2="173.196" y2="176.391" gradientUnits="userSpaceOnUse">
<stop stop-color="#FF5E3A"/>
<stop offset="1" stop-color="#FF9500"/>
</linearGradient>
<linearGradient id="paint3_linear" x1="185.498" y1="322.68" x2="185.498" y2="253.965" gradientUnits="userSpaceOnUse">
<stop stop-color="#FF5E3A"/>
<stop offset="1" stop-color="#FF9500"/>
</linearGradient>
<linearGradient id="paint4_linear" x1="180.743" y1="156.125" x2="180.743" y2="1.45507" gradientUnits="userSpaceOnUse">
<stop stop-color="#FF5E3A"/>
<stop offset="1" stop-color="#FF9500"/>
</linearGradient>
<linearGradient id="paint5_linear" x1="130.438" y1="141.588" x2="130.438" y2="89.665" gradientUnits="userSpaceOnUse">
<stop stop-color="#FF5E3A"/>
<stop offset="1" stop-color="#FF9500"/>
</linearGradient>
<linearGradient id="paint6_linear" x1="120.086" y1="142.208" x2="120.086" y2="121.153" gradientUnits="userSpaceOnUse">
<stop stop-color="#FF5E3A"/>
<stop offset="1" stop-color="#FF9500"/>
</linearGradient>
<linearGradient id="paint7_linear" x1="120.086" y1="140.737" x2="120.086" y2="119.681" gradientUnits="userSpaceOnUse">
<stop stop-color="#FF5E3A"/>
<stop offset="1" stop-color="#FF9500"/>
</linearGradient>
<linearGradient id="paint8_linear" x1="194.995" y1="143.036" x2="194.995" y2="121.98" gradientUnits="userSpaceOnUse">
<stop stop-color="#FF5E3A"/>
<stop offset="1" stop-color="#FF9500"/>
</linearGradient>
<linearGradient id="paint9_linear" x1="194.995" y1="141.564" x2="194.995" y2="120.508" gradientUnits="userSpaceOnUse">
<stop stop-color="#FF5E3A"/>
<stop offset="1" stop-color="#FF9500"/>
</linearGradient>
<linearGradient id="paint10_linear" x1="270.162" y1="142.208" x2="270.162" y2="121.153" gradientUnits="userSpaceOnUse">
<stop stop-color="#FF5E3A"/>
<stop offset="1" stop-color="#FF9500"/>
</linearGradient>
<linearGradient id="paint11_linear" x1="270.162" y1="140.737" x2="270.162" y2="119.681" gradientUnits="userSpaceOnUse">
<stop stop-color="#FF5E3A"/>
<stop offset="1" stop-color="#FF9500"/>
</linearGradient>
<linearGradient id="paint12_linear" x1="151.318" y1="317.197" x2="151.318" y2="206.045" gradientUnits="userSpaceOnUse">
<stop stop-color="#FF5E3A"/>
<stop offset="1" stop-color="#FF9500"/>
</linearGradient>
<linearGradient id="paint13_linear" x1="169.215" y1="248.445" x2="169.215" y2="172.215" gradientUnits="userSpaceOnUse">
<stop stop-color="#FF5E3A"/>
<stop offset="1" stop-color="#FF9500"/>
</linearGradient>
<linearGradient id="paint14_linear" x1="199.327" y1="248.859" x2="199.327" y2="212.136" gradientUnits="userSpaceOnUse">
<stop stop-color="#FF5E3A"/>
<stop offset="1" stop-color="#FF9500"/>
</linearGradient>
<linearGradient id="paint15_linear" x1="183.017" y1="142.266" x2="183.017" y2="27.0151" gradientUnits="userSpaceOnUse">
<stop stop-color="#FF5E3A"/>
<stop offset="1" stop-color="#FF9500"/>
</linearGradient>
<linearGradient id="paint16_linear" x1="183.104" y1="142.266" x2="183.104" y2="30.022" gradientUnits="userSpaceOnUse">
<stop stop-color="#FF5E3A"/>
<stop offset="1" stop-color="#FF9500"/>
</linearGradient>
<linearGradient id="paint17_linear" x1="183.842" y1="117.049" x2="183.842" y2="81.4072" gradientUnits="userSpaceOnUse">
<stop stop-color="#FF5E3A"/>
<stop offset="1" stop-color="#FF9500"/>
</linearGradient>
<linearGradient id="paint18_linear" x1="185.075" y1="77.7895" x2="185.075" y2="38.5513" gradientUnits="userSpaceOnUse">
<stop stop-color="#FF5E3A"/>
<stop offset="1" stop-color="#FF9500"/>
</linearGradient>
<linearGradient id="paint19_linear" x1="184.432" y1="142.217" x2="184.432" y2="125.667" gradientUnits="userSpaceOnUse">
<stop stop-color="#FF5E3A"/>
<stop offset="1" stop-color="#FF9500"/>
</linearGradient>
<linearGradient id="paint20_linear" x1="184.615" y1="142.225" x2="184.615" y2="123.946" gradientUnits="userSpaceOnUse">
<stop stop-color="#FF5E3A"/>
<stop offset="1" stop-color="#FF9500"/>
</linearGradient>
</defs>
</svg>
