<svg width="350" height="363" viewBox="0 0 350 363" fill="none" xmlns="http://www.w3.org/2000/svg">
<path d="M56.3478 122.886L63.5589 143.973L28.9787 155.801L20.4248 130.777L55.005 118.949L56.3478 122.886Z" stroke="url(#paint0_linear)" stroke-linecap="round" stroke-linejoin="round"/>
<path d="M59.9452 133.388L63.5591 143.972L28.9788 155.8L27.2051 150.612L34.1758 140.052L45.523 144.47L53.621 130.81L59.9452 133.388Z" stroke="url(#paint1_linear)" stroke-linecap="round" stroke-linejoin="round"/>
<path d="M38.345 132.054C38.5871 132.758 38.6149 133.518 38.4249 134.238C38.2349 134.958 37.8355 135.605 37.2773 136.098C36.7192 136.591 36.0274 136.907 35.2894 137.007C34.5515 137.106 33.8006 136.985 33.1318 136.657C32.463 136.33 31.9064 135.811 31.5325 135.167C31.1585 134.524 30.984 133.783 31.0309 133.04C31.0779 132.297 31.3443 131.584 31.7964 130.993C32.2485 130.401 32.866 129.957 33.5707 129.716C34.0376 129.556 34.5316 129.489 35.0244 129.519C35.5173 129.55 35.9992 129.678 36.4426 129.895C36.8861 130.112 37.2824 130.414 37.6088 130.785C37.9353 131.155 38.1854 131.586 38.345 132.054V132.054Z" stroke="url(#paint2_linear)" stroke-linecap="round" stroke-linejoin="round"/>
<path d="M262.42 295.962L257.654 317.736L221.955 309.911L227.608 284.084L263.315 291.9L262.42 295.962Z" stroke="url(#paint3_linear)" stroke-linecap="round" stroke-linejoin="round"/>
<path d="M229.033 304.341L253.559 309.712" stroke="url(#paint4_linear)" stroke-linecap="round" stroke-linejoin="round"/>
<path d="M231.039 292.895C231.039 292.895 228.552 304.291 241.284 307.085C254.015 309.878 256.51 298.448 256.51 298.448" stroke="url(#paint5_linear)" stroke-linecap="round" stroke-linejoin="round"/>
<path d="M232.117 293.135C232.05 293.416 231.875 293.66 231.631 293.815C231.386 293.97 231.091 294.023 230.807 293.964C230.594 293.917 230.399 293.808 230.248 293.65C230.096 293.492 229.995 293.293 229.957 293.078C229.919 292.863 229.946 292.641 230.034 292.441C230.123 292.241 230.269 292.072 230.453 291.955C230.638 291.838 230.853 291.779 231.072 291.785C231.29 291.79 231.502 291.861 231.68 291.987C231.859 292.114 231.995 292.29 232.073 292.495C232.151 292.699 232.166 292.922 232.117 293.135V293.135Z" fill="white" stroke="url(#paint6_linear)" stroke-linecap="round" stroke-linejoin="round"/>
<path d="M257.588 298.713C257.567 298.864 257.515 299.008 257.435 299.138C257.356 299.267 257.25 299.379 257.125 299.465C257.001 299.552 256.859 299.612 256.71 299.642C256.561 299.671 256.407 299.67 256.259 299.637C256.111 299.604 255.971 299.541 255.848 299.452C255.725 299.363 255.622 299.249 255.545 299.118C255.468 298.986 255.419 298.841 255.401 298.69C255.383 298.539 255.397 298.386 255.441 298.241C255.521 297.975 255.699 297.75 255.939 297.609C256.178 297.469 256.462 297.424 256.733 297.484C257.004 297.543 257.243 297.703 257.401 297.931C257.559 298.159 257.626 298.438 257.588 298.713Z" fill="white" stroke="url(#paint7_linear)" stroke-linecap="round" stroke-linejoin="round"/>
<path d="M229.713 303.554L227.826 303.141L227.413 305.027L229.3 305.44L229.713 303.554Z" fill="white" stroke="url(#paint8_linear)" stroke-linecap="round" stroke-linejoin="round"/>
<path d="M242.441 306.336L240.554 305.923L240.141 307.809L242.028 308.222L242.441 306.336Z" fill="white" stroke="url(#paint9_linear)" stroke-linecap="round" stroke-linejoin="round"/>
<path d="M255.183 309.129L253.296 308.716L252.883 310.602L254.77 311.015L255.183 309.129Z" fill="white" stroke="url(#paint10_linear)" stroke-linecap="round" stroke-linejoin="round"/>
<path d="M97.2191 59.13L88.201 79.5117L54.7729 64.7082L65.4819 40.5303L98.9017 55.3255L97.2191 59.13Z" stroke="url(#paint11_linear)" stroke-linecap="round" stroke-linejoin="round"/>
<path d="M79.2145 67.3329C78.986 67.8489 78.4308 68.2352 77.6017 68.3695C76.7778 68.503 75.7476 68.3706 74.722 67.9079C73.6934 67.4439 72.9057 66.7666 72.4527 66.0665C71.9974 65.3628 71.9098 64.6938 72.1394 64.1721C72.3681 63.6523 72.9229 63.2663 73.7515 63.133C74.5751 63.0004 75.6055 63.1347 76.6316 63.5976C77.6602 64.0616 78.448 64.7389 78.9009 65.439C79.3561 66.1425 79.4438 66.8112 79.2145 67.3329Z" fill="#263238" stroke="url(#paint12_linear)"/>
<mask id="path-14-inside-1" fill="white">
<path d="M81.3628 51.6123L72.4442 64.3354L71.6816 63.9955L78.2048 54.6957L79.8625 52.2754C80.3803 52.1354 80.8726 51.9144 81.3213 51.6206L81.3628 51.6123Z"/>
</mask>
<path d="M81.3628 51.6123L72.4442 64.3354L71.6816 63.9955L78.2048 54.6957L79.8625 52.2754C80.3803 52.1354 80.8726 51.9144 81.3213 51.6206L81.3628 51.6123Z" fill="#263238"/>
<path d="M81.3628 51.6123L82.1816 52.1863L83.6147 50.1419L81.1666 50.6317L81.3628 51.6123ZM72.4442 64.3354L72.0371 65.2488L72.79 65.5843L73.263 64.9094L72.4442 64.3354ZM71.6816 63.9955L70.863 63.4213L70.166 64.4149L71.2746 64.9089L71.6816 63.9955ZM78.2048 54.6957L79.0235 55.27L79.0298 55.2608L78.2048 54.6957ZM79.8625 52.2754L79.6014 51.3101L79.2457 51.4063L79.0375 51.7103L79.8625 52.2754ZM81.3213 51.6206L81.1251 50.64L80.9354 50.678L80.7736 50.7839L81.3213 51.6206ZM80.5439 51.0383L71.6253 63.7614L73.263 64.9094L82.1816 52.1863L80.5439 51.0383ZM72.8513 63.422L72.0887 63.0821L71.2746 64.9089L72.0371 65.2488L72.8513 63.422ZM72.5003 64.5698L79.0235 55.2699L77.3861 54.1214L70.863 63.4213L72.5003 64.5698ZM79.0298 55.2608L80.6876 52.8405L79.0375 51.7103L77.3798 54.1306L79.0298 55.2608ZM80.1236 53.2407C80.7431 53.0732 81.3322 52.8087 81.8691 52.4572L80.7736 50.7839C80.413 51.02 80.0174 51.1976 79.6014 51.3101L80.1236 53.2407ZM81.5175 52.6012L81.559 52.5929L81.1666 50.6317L81.1251 50.64L81.5175 52.6012Z" fill="url(#paint13_linear)" mask="url(#path-14-inside-1)"/>
<path d="M78.2574 54.1902L78.2574 54.19L78.2455 54.1891C77.3361 54.1146 76.452 53.8523 75.6491 53.4186L75.6485 53.4183C75.1241 53.136 74.5456 52.9745 73.9549 52.9427C74.6996 52.6001 75.6059 52.4305 76.6197 52.752L76.6203 52.7522C77.6921 53.0906 78.8391 53.1037 79.9167 52.7914L78.9176 54.2077C78.6976 54.2193 78.4768 54.2134 78.2574 54.1902Z" fill="#263238" stroke="url(#paint14_linear)"/>
<path d="M320.001 224.356L312.218 245.243L277.969 232.487L287.203 207.696L321.451 220.46L320.001 224.356Z" stroke="url(#paint15_linear)" stroke-linecap="round" stroke-linejoin="round"/>
<path d="M296.95 219.764L288.363 223.693L292.292 232.288" stroke="url(#paint16_linear)" stroke-linecap="round" stroke-linejoin="round"/>
<path d="M301.518 235.719L310.113 231.799L306.184 223.204" stroke="url(#paint17_linear)" stroke-linecap="round" stroke-linejoin="round"/>
<path d="M303.067 222.027L295.4 233.457" stroke="url(#paint18_linear)" stroke-linecap="round" stroke-linejoin="round"/>
<path d="M285.827 30.2855L278.193 51.2309L243.854 38.7068L252.913 13.8574L287.253 26.3816L285.827 30.2855Z" stroke="url(#paint19_linear)" stroke-linecap="round" stroke-linejoin="round"/>
<path d="M261.5 31.8604C261.5 31.8604 261.085 29.5147 257.621 30.0286C254.421 30.5093 253.476 34.1066 256.212 35.0929C259.386 36.2533 261.873 33.5678 264.964 30.9486C268.189 28.1885 271.115 25.2129 271.488 24.8647C271.488 24.8647 264.218 37.8696 263.274 39.5854C262.329 41.3011 265.172 40.6712 265.686 39.9086" stroke="url(#paint20_linear)" stroke-linecap="round" stroke-linejoin="round"/>
<path d="M273.775 35.6979C272.866 35.0915 271.759 34.855 270.68 35.0368C269.602 35.2185 268.634 35.8048 267.973 36.6759C266.962 37.8944 267.493 39.1625 268.363 39.5024C270.601 40.3312 271.985 39.3366 274.339 35.9134C274.339 35.9134 271.082 40.4887 271.778 40.7457C272.089 40.8498 272.422 40.867 272.742 40.7955C273.062 40.7239 273.356 40.5662 273.593 40.3395" stroke="url(#paint21_linear)" stroke-linecap="round" stroke-linejoin="round"/>
<path d="M263.978 32.1587L269.73 34.2557" stroke="url(#paint22_linear)" stroke-linecap="round" stroke-linejoin="round"/>
<path d="M59.1826 272.289L23.4751 264.481L28.3488 242.201L64.1723 250.042L59.1826 272.289Z" stroke="url(#paint23_linear)" stroke-linecap="round" stroke-linejoin="round"/>
<path d="M36.4385 247.779L57.3093 252.346" stroke="url(#paint24_linear)" stroke-linecap="round" stroke-linejoin="round"/>
<path d="M33.0649 249.139L56.8699 254.352" stroke="url(#paint25_linear)" stroke-linecap="round" stroke-linejoin="round"/>
<path d="M32.6255 251.145L56.4305 256.35" stroke="url(#paint26_linear)" stroke-linecap="round" stroke-linejoin="round"/>
<path d="M32.1865 253.15L55.9915 258.356" stroke="url(#paint27_linear)" stroke-linecap="round" stroke-linejoin="round"/>
<path d="M31.7471 255.148L55.5521 260.353" stroke="url(#paint28_linear)" stroke-linecap="round" stroke-linejoin="round"/>
<path d="M31.3159 257.154L55.1209 262.36" stroke="url(#paint29_linear)" stroke-linecap="round" stroke-linejoin="round"/>
<path d="M30.877 259.151L54.6819 264.357" stroke="url(#paint30_linear)" stroke-linecap="round" stroke-linejoin="round"/>
<path d="M30.4375 261.157L51.3083 265.724" stroke="url(#paint31_linear)" stroke-linecap="round" stroke-linejoin="round"/>
<path d="M250.313 23.707L233.846 105.627H101.085L84.6173 23.707H250.313Z" fill="#263238" stroke="url(#paint32_linear)"/>
<mask id="path-35-inside-2" fill="white">
<path d="M96.5397 25.9009L71.939 193.191H262.992L238.392 25.9009"/>
</mask>
<path d="M96.5397 25.9009L71.939 193.191H262.992L238.392 25.9009" fill="url(#paint33_linear)"/>
<path d="M71.939 193.191L70.9496 193.045L70.7812 194.191H71.939V193.191ZM262.992 193.191V194.191H264.15L263.982 193.045L262.992 193.191ZM95.5503 25.7554L70.9496 193.045L72.9283 193.336L97.529 26.0464L95.5503 25.7554ZM71.939 194.191H262.992V192.191H71.939V194.191ZM263.982 193.045L239.381 25.7554L237.402 26.0464L262.003 193.336L263.982 193.045Z" fill="url(#paint34_linear)" mask="url(#path-35-inside-2)"/>
<path opacity="0.3" d="M252.274 123.734L262.413 192.691H72.5179L82.657 123.734H252.274Z" fill="black" fill-opacity="0.7" stroke="url(#paint35_linear)"/>
<path d="M96.5397 25.9009L71.939 193.191H262.992L238.392 25.9009" stroke="url(#paint36_linear)" stroke-linecap="round" stroke-linejoin="round"/>
<path d="M79.5151 192.691L102.173 26.4009H232.758L255.415 192.691H79.5151Z" fill="#263238" stroke="url(#paint37_linear)"/>
<path d="M220.206 38.6487H148.849L148.02 36.8252C147.798 36.3303 147.437 35.9104 146.981 35.6162C146.525 35.322 145.993 35.1662 145.451 35.1675H129.271C128.832 35.1675 128.41 35.3421 128.099 35.653C127.788 35.9639 127.614 36.3856 127.614 36.8252V38.6819H114.725C114.492 38.6823 114.263 38.7343 114.052 38.834C113.842 38.9337 113.657 39.0787 113.51 39.2586C113.362 39.4385 113.256 39.6488 113.2 39.8744C113.143 40.1 113.138 40.3353 113.183 40.5634L123.726 92.989H211.204L221.748 40.5634C221.799 40.333 221.797 40.094 221.743 39.8642C221.689 39.6344 221.585 39.4197 221.437 39.2359C221.289 39.0521 221.101 38.9038 220.888 38.8022C220.675 38.7006 220.442 38.6481 220.206 38.6487V38.6487Z" fill="#BFBFBF" stroke="url(#paint38_linear)" stroke-linecap="round" stroke-linejoin="round"/>
<path d="M221.498 47.0955L221.498 47.0957L212.132 93.6696L212.131 93.6736C212.018 94.2589 211.705 94.7868 211.245 95.1665C210.786 95.5463 210.209 95.7542 209.612 95.7548H125.318C124.722 95.7542 124.144 95.5463 123.685 95.1665C123.225 94.7868 122.912 94.2589 122.8 93.6736L122.799 93.67L113.25 45.9937L113.25 45.9934L112.563 42.5712C112.563 42.5711 112.563 42.5709 112.563 42.5708C112.532 42.4166 112.536 42.2576 112.573 42.105C112.611 41.9523 112.681 41.8097 112.78 41.6872C112.879 41.5647 113.003 41.4654 113.144 41.3963C113.285 41.3277 113.438 41.2905 113.594 41.2872L221.341 41.2872L221.346 41.2871C221.505 41.2858 221.663 41.32 221.808 41.3873C221.953 41.4546 222.081 41.5534 222.183 41.6764C222.285 41.7994 222.358 41.9435 222.397 42.0983C222.436 42.2531 222.44 42.4147 222.409 42.5713L221.498 47.0955Z" fill="white" stroke="url(#paint39_linear)"/>
<path opacity="0.4" d="M113.372 46.598L221.379 47.6881L212.132 93.6695L212.131 93.6735C212.018 94.2588 211.705 94.7866 211.246 95.1664C210.786 95.5462 210.209 95.7541 209.613 95.7546H125.318C124.722 95.7541 124.145 95.5462 123.685 95.1664C123.226 94.7866 122.913 94.2588 122.8 93.6735L122.799 93.6699L113.372 46.598Z" fill="url(#paint40_linear)" stroke="url(#paint41_linear)"/>
<path d="M222.9 42.6687L221.988 47.1943L212.622 93.7682C212.487 94.4675 212.113 95.0982 211.564 95.5519C211.015 96.0056 210.325 96.2541 209.613 96.2548H125.317C124.605 96.2541 123.915 96.0056 123.366 95.5519C122.817 95.0982 122.443 94.4675 122.309 93.7682L112.76 46.0919L112.072 42.6687C112.027 42.4426 112.033 42.2094 112.088 41.9856C112.143 41.7618 112.246 41.5528 112.391 41.3734C112.535 41.1939 112.718 41.0484 112.925 40.9471C113.132 40.8459 113.359 40.7912 113.589 40.7872H221.341C221.575 40.7851 221.807 40.8353 222.019 40.9339C222.231 41.0326 222.419 41.1773 222.568 41.3574C222.717 41.5376 222.824 41.7488 222.882 41.9756C222.939 42.2024 222.945 42.4392 222.9 42.6687Z" stroke="url(#paint42_linear)" stroke-linecap="round" stroke-linejoin="round"/>
<path d="M221.474 50.7254H148.402L147.573 48.9102C147.339 48.412 146.967 47.9911 146.501 47.6974C146.036 47.4036 145.496 47.2493 144.945 47.2525H128.368C127.928 47.2525 127.507 47.4271 127.196 47.738C126.885 48.0489 126.71 48.4706 126.71 48.9102V50.7669H113.448C113.214 50.7639 112.981 50.8132 112.768 50.9113C112.554 51.0093 112.365 51.1536 112.214 51.3338C112.064 51.5139 111.955 51.7253 111.896 51.9527C111.837 52.1801 111.829 52.4177 111.874 52.6484L122.649 104.917H212.224L222.999 52.6484C223.05 52.4189 223.049 52.181 222.996 51.9521C222.943 51.7231 222.84 51.5088 222.694 51.3247C222.548 51.1406 222.362 50.9913 222.152 50.8876C221.941 50.784 221.709 50.7286 221.474 50.7254V50.7254Z" fill="#BFBFBF" stroke="url(#paint43_linear)" stroke-linecap="round" stroke-linejoin="round"/>
<path d="M223.735 54.7887C223.735 54.7897 223.735 54.7908 223.735 54.7918L222.825 59.2111L222.824 59.2113L213.218 105.734C213.218 105.734 213.218 105.734 213.218 105.734C213.094 106.328 212.769 106.861 212.296 107.241C211.824 107.622 211.235 107.828 210.628 107.823H210.624L124.306 107.823L124.302 107.823C123.696 107.828 123.106 107.622 122.634 107.241C122.162 106.861 121.837 106.329 121.713 105.735C121.713 105.735 121.712 105.734 121.712 105.734L112.073 59.0539L112.073 59.0536L111.195 54.7888C111.165 54.6319 111.171 54.4704 111.211 54.3158C111.251 54.1602 111.326 54.0156 111.429 53.8923C111.532 53.7691 111.661 53.6704 111.807 53.6033C111.953 53.5362 112.112 53.5024 112.273 53.5045L112.273 53.5045H112.28L222.651 53.5046L222.657 53.5045C222.818 53.5024 222.977 53.5362 223.123 53.6033C223.269 53.6703 223.399 53.7691 223.502 53.8923C223.605 54.0156 223.679 54.1602 223.72 54.3158C223.76 54.4704 223.765 54.6319 223.735 54.7887Z" fill="white" stroke="url(#paint44_linear)"/>
<path opacity="0.4" d="M112.197 59.6557L222.701 59.8114L213.218 105.734C213.218 105.734 213.218 105.734 213.218 105.734C213.094 106.328 212.769 106.861 212.297 107.241C211.824 107.622 211.235 107.828 210.628 107.823H210.624L124.307 107.823L124.303 107.823C123.696 107.828 123.107 107.622 122.634 107.241C122.162 106.861 121.837 106.328 121.713 105.735C121.713 105.735 121.713 105.734 121.713 105.734L112.197 59.6557Z" fill="url(#paint45_linear)" stroke="url(#paint46_linear)"/>
<path d="M224.226 54.886L223.314 59.3122L213.708 105.836C213.56 106.543 213.172 107.177 212.61 107.631C212.048 108.084 211.346 108.329 210.624 108.323H124.306C123.584 108.329 122.882 108.084 122.32 107.631C121.758 107.177 121.37 106.543 121.223 105.836L111.583 59.1547L110.705 54.886C110.66 54.6554 110.668 54.4177 110.727 54.1903C110.786 53.963 110.895 53.7515 111.045 53.5714C111.196 53.3913 111.385 53.247 111.599 53.1489C111.812 53.0509 112.045 53.0015 112.28 53.0045H222.651C222.886 53.0015 223.119 53.0509 223.332 53.1489C223.545 53.247 223.734 53.3913 223.885 53.5714C224.036 53.7515 224.145 53.963 224.204 54.1903C224.263 54.4177 224.27 54.6554 224.226 54.886V54.886Z" stroke="url(#paint47_linear)" stroke-linecap="round" stroke-linejoin="round"/>
<path d="M222.734 62.8018H147.962L147.133 60.9866C146.889 60.4838 146.507 60.0608 146.032 59.7672C145.556 59.4737 145.007 59.3216 144.448 59.3289H127.44C127.218 59.3222 126.997 59.3602 126.79 59.4405C126.583 59.5208 126.394 59.6419 126.235 59.7965C126.076 59.9511 125.949 60.1361 125.863 60.3405C125.776 60.5449 125.732 60.7647 125.732 60.9866V62.835H112.197C111.96 62.8275 111.724 62.8731 111.507 62.9684C111.29 63.0638 111.097 63.2064 110.942 63.386C110.787 63.5655 110.674 63.7774 110.611 64.0062C110.549 64.235 110.538 64.4748 110.58 64.7082L121.629 116.819H213.302L224.35 64.7082C224.398 64.4724 224.392 64.2289 224.332 63.9959C224.272 63.7629 224.16 63.5466 224.004 63.3631C223.849 63.1796 223.654 63.0338 223.434 62.9365C223.214 62.8393 222.974 62.7933 222.734 62.8018V62.8018Z" fill="#BFBFBF" stroke="url(#paint48_linear)" stroke-linecap="round" stroke-linejoin="round"/>
<path d="M223.944 65.2306H110.986C110.75 65.2231 110.516 65.2684 110.3 65.3634C110.084 65.4583 109.891 65.6003 109.737 65.7791C109.583 65.9579 109.471 66.1689 109.409 66.3967C109.347 66.6245 109.336 66.8632 109.378 67.0955L120.154 117.897C120.312 118.61 120.712 119.248 121.286 119.701C121.86 120.154 122.572 120.395 123.303 120.383H211.635C212.366 120.395 213.079 120.154 213.653 119.701C214.227 119.248 214.627 118.61 214.785 117.897L225.56 67.0955C225.603 66.8625 225.592 66.623 225.53 66.3946C225.467 66.1662 225.354 65.9547 225.199 65.7758C225.044 65.5968 224.851 65.455 224.634 65.3606C224.416 65.2662 224.181 65.2218 223.944 65.2306V65.2306Z" fill="white" stroke="url(#paint49_linear)" stroke-linecap="round" stroke-linejoin="round"/>
<path d="M224.002 72.392H147.515L146.645 70.585C146.388 70.0795 145.995 69.6561 145.51 69.363C145.025 69.0699 144.468 68.9189 143.901 68.9273H126.495C126.27 68.9149 126.044 68.9486 125.832 69.0263C125.621 69.1041 125.427 69.2242 125.263 69.3794C125.1 69.5346 124.969 69.7216 124.88 69.9289C124.791 70.1362 124.746 70.3595 124.746 70.585V72.4334H110.929C110.69 72.4214 110.451 72.4632 110.23 72.5557C110.009 72.6483 109.812 72.7893 109.653 72.9683C109.494 73.1473 109.377 73.3597 109.311 73.5899C109.245 73.8201 109.231 74.0622 109.271 74.2984L120.568 126.26H214.354L225.652 74.2984C225.699 74.0599 225.691 73.814 225.628 73.5791C225.566 73.3443 225.451 73.1267 225.292 72.943C225.133 72.7592 224.934 72.6141 224.711 72.5186C224.487 72.4232 224.245 72.3798 224.002 72.392V72.392Z" fill="#BFBFBF" stroke="url(#paint50_linear)" stroke-linecap="round" stroke-linejoin="round"/>
<path d="M225.237 74.9615H109.693C109.454 74.9494 109.215 74.9913 108.994 75.0838C108.774 75.1764 108.576 75.3174 108.417 75.4964C108.258 75.6754 108.141 75.8878 108.075 76.118C108.009 76.3482 107.996 76.5903 108.036 76.8264L119.051 127.478C119.232 128.19 119.65 128.82 120.236 129.263C120.822 129.706 121.541 129.936 122.276 129.915H212.622C213.356 129.936 214.076 129.706 214.662 129.263C215.248 128.82 215.665 128.19 215.846 127.478L226.862 76.8264C226.901 76.5932 226.888 76.3541 226.824 76.1264C226.76 75.8987 226.646 75.6881 226.49 75.5098C226.335 75.3314 226.142 75.1897 225.925 75.0949C225.709 75.0001 225.474 74.9545 225.237 74.9615V74.9615Z" fill="white" stroke="url(#paint51_linear)" stroke-linecap="round" stroke-linejoin="round"/>
<path d="M225.262 81.9819H147.067L146.18 80.175C145.911 79.6654 145.506 79.2406 145.01 78.9479C144.514 78.6551 143.946 78.5061 143.37 78.5173H125.608C125.158 78.4947 124.718 78.6513 124.384 78.9528C124.05 79.2542 123.849 79.6759 123.826 80.1253V81.9654H109.669C109.433 81.9637 109.2 82.0121 108.985 82.1076C108.77 82.2031 108.577 82.3433 108.42 82.519C108.263 82.6946 108.146 82.9017 108.075 83.1264C108.005 83.3511 107.983 83.5882 108.011 83.822L119.565 135.626H215.399L226.953 83.822C226.979 83.5867 226.955 83.3485 226.881 83.1234C226.807 82.8984 226.686 82.6918 226.526 82.5174C226.366 82.3431 226.17 82.2051 225.952 82.1127C225.734 82.0203 225.499 81.9757 225.262 81.9819V81.9819Z" fill="#BFBFBF" stroke="url(#paint52_linear)" stroke-linecap="round" stroke-linejoin="round"/>
<path d="M108.387 85.2002L108.398 85.2006H108.409H226.522V84.7007L226.554 85.1996C226.721 85.1888 226.887 85.2157 227.042 85.2783C227.196 85.3409 227.335 85.4375 227.447 85.561C227.559 85.6846 227.641 85.8318 227.689 85.9917C227.735 86.1475 227.746 86.3114 227.721 86.4719L220.63 118.277L220.63 118.277L216.488 136.939C216.319 137.546 215.951 138.079 215.443 138.452C214.932 138.828 214.309 139.02 213.676 138.997L213.667 138.997H213.658H121.322H121.314L121.305 138.997C120.671 139.02 120.048 138.828 119.537 138.452C119.029 138.079 118.661 137.546 118.492 136.939L110.007 98.8816L110.007 98.8815L107.243 86.4654C107.22 86.3078 107.232 86.1471 107.277 85.9942C107.323 85.8368 107.404 85.6916 107.513 85.5692C107.622 85.4468 107.757 85.3502 107.909 85.2864C108.06 85.2225 108.223 85.1931 108.387 85.2002Z" fill="white" stroke="url(#paint53_linear)"/>
<path opacity="0.4" d="M121.289 138.988H121.28L121.272 138.988C120.638 139.011 120.015 138.819 119.504 138.443C118.996 138.07 118.628 137.537 118.459 136.93L110.137 99.602L220.516 118.78L216.488 136.93C216.319 137.537 215.951 138.07 215.443 138.443C214.932 138.819 214.31 139.011 213.676 138.988L213.667 138.988H213.658H121.289Z" fill="url(#paint54_linear)" stroke="url(#paint55_linear)"/>
<path d="M226.522 84.7006H108.409C108.171 84.6904 107.934 84.7331 107.714 84.8257C107.495 84.9183 107.299 85.0585 107.14 85.2362C106.981 85.4139 106.864 85.6245 106.797 85.853C106.73 86.0815 106.714 86.322 106.751 86.5573L109.519 98.9903L118.007 137.06C118.204 137.78 118.639 138.413 119.241 138.855C119.843 139.297 120.576 139.523 121.322 139.497H213.658C214.404 139.523 215.138 139.297 215.739 138.855C216.341 138.413 216.776 137.78 216.973 137.06L221.118 118.386L228.213 86.5656C228.252 86.3268 228.237 86.0823 228.168 85.8502C228.1 85.6181 227.98 85.4045 227.817 85.2252C227.655 85.0459 227.454 84.9057 227.23 84.8148C227.005 84.724 226.763 84.685 226.522 84.7006V84.7006Z" stroke="url(#paint56_linear)" stroke-linecap="round" stroke-linejoin="round"/>
<path d="M144.067 141.287L143.022 139.546C142.68 139.044 142.21 138.641 141.661 138.379C141.112 138.117 140.504 138.005 139.897 138.055L120.602 138.941C120.137 138.923 119.683 139.085 119.335 139.394C118.987 139.703 118.773 140.135 118.737 140.599L118.819 142.423L103.436 143.127C102.259 143.177 101.413 144.105 101.695 145.042L116.615 195.603L220.753 190.812L230.957 139.115C231.139 138.154 230.219 137.309 229.034 137.367L144.067 141.287Z" fill="#BFBFBF" stroke="url(#paint57_linear)" stroke-linecap="round" stroke-linejoin="round"/>
<path d="M231.958 142.25L231.958 142.252L230.797 148.203L230.797 148.204L222.041 192.633C221.852 193.269 221.462 193.827 220.928 194.222C220.388 194.621 219.733 194.832 219.062 194.821L219.046 194.821L219.031 194.821L118.68 199.43L118.665 199.431L118.649 199.432C117.982 199.505 117.309 199.356 116.735 199.009C116.167 198.665 115.726 198.145 115.48 197.528L101.636 150.554L101.636 150.553L100.965 148.275C100.965 148.275 100.965 148.275 100.965 148.275C100.884 147.999 100.959 147.71 101.185 147.463C101.413 147.212 101.79 147.02 102.255 147L102.257 147L230.571 141.099C230.572 141.099 230.572 141.099 230.572 141.099C231.033 141.079 231.422 141.237 231.67 141.465C231.915 141.691 232.014 141.971 231.958 142.25Z" fill="white" stroke="url(#paint58_linear)"/>
<path opacity="0.4" d="M219.062 194.821L219.046 194.821L219.031 194.821L118.68 199.43L118.665 199.431L118.649 199.432C117.982 199.505 117.309 199.356 116.735 199.009C116.167 198.665 115.726 198.145 115.48 197.528L101.821 151.183L230.678 148.811L222.041 192.633C221.852 193.269 221.462 193.827 220.928 194.222C220.389 194.621 219.733 194.832 219.062 194.821Z" fill="url(#paint59_linear)" stroke="url(#paint60_linear)"/>
<path d="M232.448 142.348L231.288 148.299L222.527 192.751C222.31 193.502 221.853 194.16 221.225 194.624C220.598 195.088 219.835 195.333 219.054 195.321L118.703 199.929C117.927 200.014 117.144 199.841 116.476 199.436C115.808 199.032 115.291 198.419 115.006 197.691L101.156 150.695L100.485 148.415C100.211 147.479 101.057 146.55 102.234 146.501L230.55 140.599C231.719 140.55 232.639 141.395 232.448 142.348Z" stroke="url(#paint61_linear)" stroke-linecap="round" stroke-linejoin="round"/>
<path d="M146.28 152.825L145.393 151.001C145.088 150.464 144.647 150.016 144.115 149.702C143.582 149.388 142.977 149.219 142.359 149.211L122.707 148.183C122.236 148.111 121.756 148.226 121.369 148.503C120.981 148.78 120.718 149.198 120.635 149.667L120.544 151.482L104.862 150.653C103.66 150.587 102.715 151.424 102.897 152.377L113.034 204.007L219.236 209.561L234.695 159.273C234.977 158.337 234.123 157.408 232.921 157.35L146.28 152.825Z" fill="#BFBFBF" stroke="url(#paint62_linear)" stroke-linecap="round" stroke-linejoin="round"/>
<path d="M235.419 162.63L235.418 162.634L232.932 170.822L232.932 170.823L220.39 211.628C220.128 212.248 219.673 212.767 219.091 213.106C218.503 213.449 217.818 213.59 217.142 213.507L217.125 213.505L217.107 213.504L114.768 208.158L114.751 208.157L114.734 208.157C114.053 208.167 113.387 207.955 112.838 207.553C112.295 207.155 111.895 206.593 111.696 205.95L103.04 161.821L103.04 161.821L101.829 155.646L101.829 155.646L101.829 155.644C101.775 155.373 101.874 155.097 102.129 154.874C102.387 154.647 102.795 154.491 103.276 154.518L103.277 154.518L234.095 161.356C234.096 161.356 234.096 161.356 234.096 161.356C234.578 161.383 234.968 161.581 235.202 161.834C235.432 162.083 235.502 162.366 235.419 162.63Z" fill="white" stroke="url(#paint63_linear)"/>
<path opacity="0.4" d="M217.109 213.507L217.092 213.505L217.074 213.504L114.734 208.158L114.718 208.157L114.701 208.157C114.02 208.167 113.354 207.955 112.805 207.553C112.262 207.155 111.861 206.593 111.663 205.95L103.132 162.461L232.714 171.424L220.357 211.628C220.095 212.248 219.639 212.767 219.058 213.106C218.469 213.449 217.785 213.59 217.109 213.507Z" fill="url(#paint64_linear)" stroke="url(#paint65_linear)"/>
<path d="M235.897 162.779L233.41 170.969L220.861 211.798C220.559 212.529 220.025 213.14 219.343 213.538C218.66 213.936 217.866 214.1 217.081 214.003L114.742 208.657C113.952 208.669 113.18 208.423 112.543 207.956C111.905 207.489 111.438 206.827 111.211 206.071L102.549 161.917L101.339 155.742C101.148 154.789 102.101 153.952 103.303 154.018L234.123 160.856C235.325 160.923 236.187 161.851 235.897 162.779Z" stroke="url(#paint66_linear)" stroke-linecap="round" stroke-linejoin="round"/>
<path d="M144.39 166.045L143.428 164.272C143.088 163.744 142.617 163.314 142.06 163.023C141.504 162.732 140.881 162.591 140.254 162.614H120.12C119.644 162.562 119.165 162.698 118.787 162.994C118.41 163.29 118.162 163.721 118.098 164.197V166.004H102.084C100.858 166.004 99.9376 166.882 100.178 167.827L113.241 218.695H221.689L234.752 167.827C234.993 166.882 234.073 166.004 232.846 166.004L144.39 166.045Z" fill="#BFBFBF" stroke="url(#paint67_linear)" stroke-linecap="round" stroke-linejoin="round"/>
<path d="M219.684 223.428H115.247C113.44 223.428 111.874 222.425 111.517 221.04L98.7527 171.449C98.504 170.505 99.4241 169.626 100.659 169.626H234.272C235.507 169.626 236.427 170.505 236.178 171.449L223.447 221.04C223.091 222.425 221.524 223.428 219.684 223.428Z" fill="white" stroke="url(#paint68_linear)" stroke-linecap="round" stroke-linejoin="round"/>
<path d="M143.942 178.122L142.922 176.356C142.565 175.833 142.079 175.41 141.512 175.127C140.945 174.844 140.315 174.711 139.682 174.74H119.209C118.726 174.683 118.241 174.817 117.855 175.112C117.47 175.408 117.215 175.842 117.145 176.323V178.122H100.824C99.5646 178.122 98.6279 179 98.8766 179.945L112.196 230.655H222.734L236.054 179.92C236.302 178.975 235.366 178.097 234.106 178.097L143.942 178.122Z" fill="#BFBFBF" stroke="url(#paint69_linear)" stroke-linecap="round" stroke-linejoin="round"/>
<path d="M220.728 235.454H114.203C112.363 235.454 110.771 234.451 110.406 233.067L97.4182 183.634C97.1778 182.689 98.1144 181.81 99.366 181.81H235.565C236.817 181.81 237.753 182.689 237.513 183.634L224.524 233.067C224.16 234.484 222.568 235.454 220.728 235.454Z" fill="white" stroke="url(#paint70_linear)" stroke-linecap="round" stroke-linejoin="round"/>
<path d="M274.453 200.131L242.016 292.121H92.9147L60.4775 200.131H274.453Z" fill="url(#paint71_linear)" stroke="url(#paint72_linear)"/>
<path opacity="0.3" d="M274.453 200.131L242.016 292.121H92.9147L60.4775 200.131H274.453Z" fill="black" fill-opacity="0.7" stroke="url(#paint73_linear)"/>
<path d="M242.37 292.621H92.5609L59.771 199.631H275.16L242.37 292.621Z" stroke="url(#paint74_linear)" stroke-linecap="round" stroke-linejoin="round"/>
<path d="M272.308 187.388H62.6223L59.771 199.631H275.16L272.308 187.388Z" fill="url(#paint75_linear)" stroke="url(#paint76_linear)" stroke-linecap="round" stroke-linejoin="round"/>
<path d="M115.471 242.234L113.374 262.086H221.557L219.46 242.234H214.686L216.045 256.4H118.885L120.245 242.234H115.471Z" fill="#BFBFBF" stroke="url(#paint77_linear)" stroke-linecap="round" stroke-linejoin="round"/>
<path d="M220.745 266.644H114.186L113.374 262.085H221.557L220.745 266.644Z" fill="#757575" stroke="url(#paint78_linear)" stroke-linecap="round" stroke-linejoin="round"/>
<path d="M214.686 242.234L214.022 247.498L214.686 256.4H216.045L214.686 242.234Z" fill="#757575" stroke="url(#paint79_linear)" stroke-linecap="round" stroke-linejoin="round"/>
<path d="M120.245 242.234L120.916 247.498L120.245 256.4H118.886L120.245 242.234Z" fill="#757575" stroke="url(#paint80_linear)" stroke-linecap="round" stroke-linejoin="round"/>
<path d="M202.327 232.271H132.603L129.279 215.429H205.651L202.327 232.271Z" fill="white" stroke="url(#paint81_linear)" stroke-linecap="round" stroke-linejoin="round"/>
<path d="M171.66 69.4569L171.762 69.7485L172.068 69.788L253.197 80.2566L253.216 80.259L253.235 80.26C253.409 80.2691 253.578 80.3172 253.73 80.4006C253.882 80.484 254.014 80.6006 254.115 80.7418C254.217 80.883 254.285 81.0452 254.315 81.2163C254.344 81.3816 254.336 81.5511 254.293 81.7132L235.689 132.22L137.016 119.499L131.827 65.924C131.826 65.7556 131.861 65.5889 131.931 65.4356C132.004 65.2771 132.111 65.1369 132.245 65.0256C132.379 64.9143 132.537 64.8348 132.706 64.7928C132.875 64.7509 133.051 64.7477 133.222 64.7835L133.241 64.7875L133.261 64.79L147.948 66.6798L148.444 66.7436L148.508 66.2478L148.746 64.4007C148.814 64.0788 149.004 63.7956 149.277 63.6115C149.554 63.4244 149.894 63.3547 150.222 63.4176L150.237 63.4204L150.252 63.4224L168.686 65.8012L168.686 65.8014L168.7 65.8028C169.203 65.8533 169.682 66.041 170.086 66.3454C170.486 66.6477 170.797 67.0537 170.984 67.5194L171.66 69.4569Z" fill="white" stroke="url(#paint82_linear)"/>
<path opacity="0.4" d="M171.66 69.4569L171.762 69.7485L172.068 69.788L253.197 80.2566L253.216 80.259L253.235 80.26C253.409 80.2691 253.578 80.3172 253.73 80.4006C253.882 80.484 254.014 80.6006 254.115 80.7418C254.217 80.883 254.285 81.0452 254.315 81.2163C254.344 81.3816 254.336 81.5511 254.293 81.7132L235.689 132.22L137.016 119.499L131.827 65.924C131.826 65.7556 131.861 65.5889 131.931 65.4356C132.004 65.2771 132.111 65.1369 132.245 65.0256C132.379 64.9143 132.537 64.8348 132.706 64.7928C132.875 64.7509 133.051 64.7477 133.222 64.7835L133.241 64.7875L133.261 64.79L147.948 66.6798L148.444 66.7436L148.508 66.2478L148.746 64.4007C148.814 64.0788 149.004 63.7956 149.277 63.6115C149.554 63.4244 149.894 63.3547 150.222 63.4176L150.237 63.4204L150.252 63.4224L168.686 65.8012L168.686 65.8014L168.7 65.8028C169.203 65.8533 169.682 66.041 170.086 66.3454C170.486 66.6477 170.797 67.0537 170.984 67.5194L171.66 69.4569Z" fill="url(#paint83_linear)" stroke="url(#paint84_linear)"/>
<path d="M172.132 69.2922L171.452 67.3443C171.232 66.7895 170.863 66.3059 170.387 65.9463C169.91 65.5867 169.344 65.365 168.75 65.3053L150.316 62.9265C149.858 62.8388 149.384 62.9361 148.997 63.197C148.61 63.4579 148.343 63.8613 148.252 64.319L148.012 66.1839L133.325 64.2941C133.08 64.2429 132.828 64.2475 132.586 64.3075C132.343 64.3676 132.118 64.4815 131.926 64.6409C131.734 64.8002 131.58 65.0009 131.476 65.2279C131.373 65.4549 131.322 65.7023 131.327 65.9518L136.557 119.944L236.021 132.767L254.77 81.866C254.837 81.6266 254.85 81.3751 254.807 81.1301C254.764 80.885 254.667 80.6528 254.522 80.4506C254.377 80.2484 254.188 80.0814 253.97 79.962C253.752 79.8426 253.51 79.7738 253.261 79.7607L172.132 69.2922Z" stroke="url(#paint85_linear)" stroke-linecap="round" stroke-linejoin="round"/>
<path d="M233.785 136.095L233.774 136.093L233.764 136.092L137.906 123.725L137.896 123.724L137.886 123.723C137.229 123.665 136.611 123.389 136.131 122.938C135.654 122.49 135.34 121.896 135.238 121.249L130.144 68.6511C130.143 68.4827 130.179 68.316 130.249 68.1626C130.321 68.0041 130.428 67.864 130.562 67.7527C130.697 67.6414 130.854 67.5618 131.023 67.5199C131.192 67.4779 131.369 67.4747 131.539 67.5105L131.559 67.5145L131.578 67.517L213.155 78.0353L213.155 78.0353L254.151 83.3152L254.169 83.3176L254.188 83.3186C254.362 83.3277 254.531 83.3757 254.683 83.4591C254.836 83.5426 254.967 83.6592 255.069 83.8004C255.17 83.9416 255.238 84.1038 255.268 84.2749C255.297 84.4402 255.289 84.6097 255.246 84.7717L238.279 130.845L238.279 130.845L236.974 134.379C236.711 134.978 236.256 135.472 235.681 135.783C235.102 136.097 234.434 136.206 233.785 136.095Z" fill="white" stroke="url(#paint86_linear)"/>
<path opacity="0.3" d="M198.205 104.788C198.172 104.739 198.148 104.7 198.131 104.674C197.329 102.377 197.777 100.137 198.957 98.0253C200.15 95.8886 202.079 93.9149 204.148 92.2242C206.214 90.5372 208.393 89.1535 210.059 88.1903C210.892 87.7092 211.594 87.3343 212.087 87.08C212.334 86.9529 212.528 86.856 212.66 86.7911C212.726 86.7587 212.777 86.7343 212.81 86.7182L212.848 86.7001L212.857 86.6958L212.859 86.6949L212.86 86.6947L212.86 86.6947L213.238 86.517L213.13 86.1133C213.058 85.8418 213.021 85.364 213.026 84.7106C213.032 84.0712 213.076 83.3077 213.144 82.4908C213.266 81.0412 213.461 79.4448 213.639 78.115L254.142 83.3314L254.162 83.3339L254.181 83.3349C254.354 83.3436 254.522 83.3909 254.674 83.4732C254.826 83.5556 254.958 83.671 255.06 83.8109C255.161 83.9508 255.23 84.1117 255.262 84.2818C255.292 84.4452 255.286 84.6131 255.246 84.7741L238.433 130.426C232.811 129.011 229.904 126.552 228.156 124.015C227.253 122.703 226.648 121.354 226.139 120.075C226.003 119.733 225.873 119.392 225.744 119.056C225.401 118.158 225.072 117.299 224.695 116.572L224.695 116.572C224.06 115.351 222.634 114.348 220.924 113.515C219.191 112.67 217.066 111.955 214.908 111.357C210.94 110.258 206.794 109.541 204.624 109.165C204.432 109.132 204.256 109.102 204.096 109.074C202.269 108.755 200.775 107.663 199.72 106.616C199.196 106.096 198.789 105.596 198.515 105.227C198.378 105.043 198.274 104.892 198.205 104.788Z" fill="black" fill-opacity="0.7" stroke="url(#paint87_linear)"/>
<path d="M255.723 84.9246L238.748 131.018L237.438 134.565C237.132 135.272 236.597 135.856 235.919 136.223C235.241 136.59 234.46 136.718 233.7 136.588L137.842 124.221C137.074 124.154 136.351 123.83 135.789 123.303C135.227 122.775 134.858 122.074 134.742 121.312L129.644 68.6789C129.639 68.4294 129.69 68.1819 129.794 67.9549C129.898 67.7279 130.051 67.5273 130.243 67.3679C130.435 67.2085 130.661 67.0946 130.903 67.0345C131.145 66.9745 131.398 66.9699 131.642 67.0211L213.219 77.5394L254.214 82.8193C254.463 82.8323 254.705 82.9011 254.923 83.0205C255.142 83.14 255.33 83.307 255.475 83.5092C255.62 83.7114 255.717 83.9436 255.76 84.1886C255.803 84.4336 255.79 84.6852 255.723 84.9246Z" stroke="url(#paint88_linear)" stroke-linecap="round" stroke-linejoin="round"/>
<path d="M147.672 82.8608L148.982 115.435L160.785 116.96L162.177 84.502L147.672 82.8608Z" fill="url(#paint89_linear)" stroke="url(#paint90_linear)" stroke-linecap="round" stroke-linejoin="round"/>
<path d="M154.875 113.039C155.025 112.463 155.051 111.862 154.953 111.275C154.854 110.688 154.633 110.128 154.303 109.633C153.632 108.648 152.826 107.764 151.908 107.005C153.277 107.791 154.791 108.292 156.359 108.481C156.359 106.782 154.701 105.605 153.284 104.709C153.608 104.583 153.956 104.531 154.303 104.557C154.65 104.583 154.987 104.686 155.289 104.859C155.31 104.595 155.268 104.33 155.165 104.087C155.063 103.843 154.904 103.627 154.701 103.458C154.883 103.615 155.165 103.367 155.157 103.135C155.113 102.902 155.013 102.683 154.867 102.496C154.644 101.994 154.556 101.443 154.61 100.897C154.61 98.9488 154.668 96.9926 154.693 95.0448C154.72 95.223 154.8 95.3891 154.92 95.5231C155.041 95.657 155.198 95.7529 155.372 95.7991C155.372 95.0282 155.281 94.2574 155.207 93.4865C155.024 91.5387 154.842 89.5826 154.651 87.6348" stroke="url(#paint91_linear)" stroke-linecap="round" stroke-linejoin="round"/>
<path d="M221.864 78.103L222.364 78.1229L222.364 78.1231L222.364 78.1241L222.363 78.1284L222.363 78.1458L222.36 78.2154C222.358 78.2767 222.355 78.3674 222.351 78.4843C222.344 78.718 222.335 79.0562 222.328 79.473C222.312 80.3069 222.301 81.454 222.321 82.7076C222.362 85.2378 222.527 88.1258 223 89.7768L223.121 90.2018L222.714 90.3746L222.519 89.9143C222.714 90.3746 222.714 90.3746 222.714 90.3746L222.714 90.3748L222.713 90.3752L222.709 90.3769L222.694 90.3832L222.637 90.4069C222.588 90.4275 222.515 90.4574 222.423 90.4949C222.238 90.57 221.973 90.6759 221.65 90.7998C221.005 91.0472 220.125 91.3677 219.19 91.6579C218.258 91.9471 217.257 92.2111 216.373 92.3394C215.932 92.4035 215.505 92.4358 215.123 92.4158C214.749 92.3962 214.374 92.3243 214.067 92.1436C214.038 92.1265 213.96 92.0942 213.806 92.068C213.657 92.0428 213.466 92.0276 213.232 92.0258C212.764 92.0223 212.163 92.0721 211.466 92.1762C210.073 92.3839 208.339 92.801 206.603 93.3961C204.865 93.9918 203.144 94.7589 201.766 95.6587C200.375 96.5673 199.402 97.5662 199.046 98.5981C198.236 100.946 197.942 103.072 198.298 104.559C198.473 105.291 198.797 105.839 199.267 106.202C199.736 106.564 200.403 106.783 201.343 106.754C202.357 106.724 203.537 106.645 204.786 106.56L205.025 106.543C206.198 106.463 207.425 106.378 208.611 106.326C209.878 106.269 211.11 106.249 212.197 106.307C213.274 106.366 214.251 106.504 214.983 106.788C215.57 107.016 216.25 107.12 217.01 107.167C217.553 107.2 218.111 107.203 218.693 107.207C218.933 107.208 219.176 107.21 219.425 107.213C221.085 107.237 222.899 107.354 224.424 108.343C225.76 109.21 229.523 110.914 234.141 112.384C238.753 113.852 244.144 115.062 248.736 114.985C253.422 114.906 256.125 115.272 257.961 115.984C259.645 116.637 260.571 117.574 261.571 118.584C261.675 118.69 261.78 118.796 261.887 118.903C262.855 119.871 263.974 120.368 265.39 120.998C265.536 121.063 265.685 121.129 265.838 121.197C267.457 121.924 269.353 122.849 271.538 124.783C273.669 126.67 291.458 142.575 308.712 158.007C317.34 165.723 325.834 173.321 332.171 178.991L339.807 185.822L341.937 187.727L342.178 187.943C348.659 173.196 349.859 157.648 349.419 145.713C349.195 139.664 348.551 134.551 347.962 130.952C347.668 129.152 347.388 127.732 347.182 126.762C347.079 126.278 346.994 125.906 346.935 125.656C346.921 125.594 346.908 125.54 346.897 125.493L346.482 125.269C346.083 125.055 345.499 124.74 344.754 124.338C343.265 123.534 341.137 122.382 338.578 120.991C333.46 118.208 326.621 114.467 319.736 110.633C312.851 106.8 305.916 102.873 300.609 99.7183C297.956 98.1415 295.704 96.7544 294.067 95.6671C293.249 95.124 292.577 94.6508 292.083 94.2631C291.836 94.0695 291.627 93.8918 291.463 93.7332C291.31 93.5842 291.16 93.4178 291.075 93.2462C290.388 91.8722 289.106 90.6577 287.957 89.7715C287.388 89.3328 286.864 88.9835 286.482 88.7442C286.291 88.6247 286.137 88.533 286.031 88.4716C285.978 88.4409 285.937 88.4179 285.91 88.4027L285.88 88.386L285.873 88.3821L285.871 88.3814L285.871 88.3813L285.619 88.2448L285.61 87.958L285.61 87.9575L285.609 87.9549L285.609 87.944L285.607 87.899C285.606 87.8767 285.605 87.8483 285.604 87.8142C285.602 87.7873 285.601 87.7568 285.599 87.7229C285.591 87.5693 285.579 87.3463 285.559 87.0713C285.519 86.5208 285.451 85.7639 285.338 84.9375C285.225 84.1099 285.067 83.2202 284.85 82.4018C284.631 81.5767 284.359 80.856 284.031 80.346C283.691 79.8164 283.26 79.0458 282.771 78.1722C282.715 78.0719 282.658 77.9702 282.601 77.8674C282.037 76.8605 281.397 75.7265 280.707 74.6201C280.016 73.5123 279.283 72.4435 278.537 71.5653C277.786 70.68 277.054 70.0267 276.373 69.7031C274.478 68.8168 272.479 68.1699 270.425 67.7775L270.314 67.7564L270.223 67.6902L270.223 67.6901L270.223 67.6896L270.22 67.6878L270.21 67.6802L270.169 67.6502C270.132 67.6239 270.078 67.585 270.009 67.5355C269.871 67.4364 269.672 67.2947 269.43 67.1245C268.944 66.7839 268.285 66.3305 267.589 65.8778C266.891 65.424 266.165 64.976 265.541 64.6433C265.229 64.4766 264.952 64.3436 264.722 64.2535C264.479 64.1577 264.34 64.131 264.285 64.131C262.146 64.131 261.182 63.867 259.974 63.536C259.561 63.4231 259.121 63.3024 258.595 63.1817C257.981 63.0407 257.226 62.6574 256.439 62.1983C255.754 61.7984 255.002 61.3147 254.243 60.8261C254.118 60.7454 253.992 60.6646 253.867 60.584C252.975 60.0112 252.082 59.447 251.251 58.9944C250.413 58.5374 249.68 58.2173 249.104 58.1041C247.919 57.8717 246.709 58.126 245.512 58.4729C245.273 58.5422 245.025 58.6183 244.777 58.694C244.434 58.7992 244.093 58.9037 243.781 58.9887C243.23 59.1391 242.675 59.2573 242.155 59.2573C241.644 59.2573 240.834 59.1225 239.934 58.9333C239.02 58.741 237.966 58.4821 236.944 58.2142C234.905 57.6798 232.963 57.102 232.476 56.934C232.374 56.8989 232.075 56.8752 231.51 56.9859C230.97 57.0916 230.252 57.3065 229.364 57.6675C227.588 58.3889 225.162 59.6802 222.151 61.794C219.073 63.9556 215.956 65.3645 213.464 66.404C213.015 66.5913 212.59 66.7653 212.189 66.9291C211.47 67.2234 210.831 67.4847 210.281 67.7309C209.406 68.1226 208.866 68.4313 208.62 68.6959C208.052 69.3077 207.547 70.5006 207.176 71.6201C207.004 72.1367 206.869 72.6158 206.773 72.9772C208.708 72.8931 210.644 73.1354 212.501 73.6955L212.517 73.7001L212.532 73.7058C213.853 74.1989 216.239 75.1852 218.286 76.0443C219.312 76.4747 220.255 76.8744 220.942 77.1665C221.286 77.3126 221.566 77.4318 221.759 77.5145L221.983 77.6099L222.041 77.6349L222.056 77.6412L222.06 77.6429L222.061 77.6433L222.061 77.6434L221.864 78.103ZM221.864 78.103L222.364 78.1228L222.377 77.7789L222.061 77.6434L221.864 78.103Z" fill="white" stroke="url(#paint92_linear)"/>
<path opacity="0.4" d="M291.026 142.16C280.905 133.106 272.952 126.002 271.571 124.783L291.026 142.16ZM291.026 142.16C287.889 138.211 284.613 134.403 281.623 131.226C279.591 129.066 277.696 127.203 276.072 125.785C274.433 124.355 273.112 123.418 272.222 123.06L272.217 123.058C268.925 121.695 266.538 120.684 264.531 119.301C262.507 117.906 260.889 116.15 259.082 113.326C255.644 107.954 250.432 107.476 248.81 107.747C248.807 107.748 248.804 107.748 248.801 107.749C248.786 107.812 248.784 107.956 248.849 108.21C248.981 108.727 249.318 109.431 249.737 110.169C250.151 110.897 250.62 111.62 250.989 112.163C251.173 112.433 251.33 112.658 251.442 112.815C251.497 112.893 251.542 112.955 251.572 112.996L251.606 113.043L251.614 113.055L251.616 113.058L251.617 113.058L251.617 113.058L252.234 113.897L251.193 113.854L243.8 113.548L243.799 113.547C240.009 113.386 235.383 111.794 231.388 110.212C230.095 109.7 228.854 109.183 227.725 108.712C227.107 108.455 226.523 108.212 225.982 107.991C224.422 107.353 223.252 106.915 222.585 106.802C222.345 106.762 222.088 106.722 221.816 106.68C220.479 106.473 218.809 106.215 217.406 105.572C216.548 105.179 215.756 104.63 215.179 103.833C214.598 103.031 214.261 102.013 214.261 100.731V100.72H214.261C214.293 99.2304 214.718 97.7755 215.491 96.5016C216.264 95.2277 217.358 94.1797 218.664 93.4628L219.045 93.2539L219.305 93.6015L219.305 93.6015L219.305 93.6017L219.307 93.6032L219.312 93.6108L219.337 93.6434C219.36 93.6724 219.394 93.7157 219.438 93.7703C219.526 93.8798 219.655 94.0346 219.815 94.2132C220.137 94.5729 220.574 95.0181 221.052 95.3852C221.541 95.7608 222.016 96.0107 222.419 96.0587C222.61 96.0815 222.776 96.058 222.925 95.9879C223.075 95.9174 223.24 95.7847 223.404 95.5385C223.753 95.0157 223.985 94.2528 224.103 93.2889C224.22 92.3321 224.219 91.2185 224.134 90.0279C223.962 87.647 223.455 85.0119 222.92 82.8132C222.642 81.6705 222.557 80.7952 222.581 80.0279C222.604 79.2787 222.731 78.6486 222.858 78.0168L222.865 77.9818C223.118 76.7203 223.402 75.2963 223.002 72.4026C222.571 69.2886 223.633 65.6687 225.389 62.7933C227.132 59.9402 229.667 57.6522 232.31 57.4466C233.824 57.3269 235.495 57.8151 237.119 58.5692C238.752 59.3274 240.387 60.3784 241.846 61.4443C243.373 62.5607 244.72 63.7037 245.683 64.5649C245.653 64.4827 245.623 64.3991 245.592 64.3145C245.191 63.2013 244.737 61.9308 244.498 61.2106L244.498 61.2101C244.381 60.8559 244.414 60.4712 244.517 60.1145C244.621 59.753 244.807 59.3818 245.048 59.0263C245.165 58.8526 245.298 58.6796 245.443 58.5102C245.224 58.5743 245.005 58.6406 244.788 58.7066L244.699 58.7333C243.841 58.9935 242.961 59.2573 242.188 59.2573C241.677 59.2573 240.867 59.1225 239.968 58.9333C239.053 58.741 237.999 58.4821 236.977 58.2142C234.938 57.6798 232.996 57.102 232.509 56.934C232.408 56.8989 232.108 56.8752 231.543 56.9859C231.003 57.0916 230.286 57.3065 229.397 57.6675C227.621 58.3889 225.195 59.6802 222.185 61.794C219.106 63.9556 215.989 65.3645 213.497 66.404C213.048 66.5913 212.623 66.7653 212.223 66.9291C211.503 67.2234 210.864 67.4847 210.314 67.7309C209.439 68.1226 208.899 68.4313 208.654 68.6959C208.085 69.3077 207.58 70.5006 207.209 71.6201C207.038 72.1367 206.902 72.6158 206.806 72.9772C208.741 72.8931 210.677 73.1354 212.535 73.6955L212.55 73.7002L212.565 73.7058C213.886 74.1989 216.272 75.1852 218.319 76.0443C219.345 76.4747 220.289 76.8744 220.976 77.1665C221.319 77.3126 221.599 77.4318 221.792 77.5145L222.016 77.6099L222.074 77.6349L222.089 77.6412L222.093 77.6429L222.094 77.6433L222.094 77.6434L221.897 78.103M291.026 142.16L222.552 89.9143L222.747 90.3746L223.154 90.2018L223.033 89.7768C222.56 88.1258 222.395 85.2378 222.355 82.7076C222.335 81.454 222.345 80.3069 222.361 79.473C222.369 79.0562 222.378 78.718 222.385 78.4843C222.388 78.3674 222.391 78.2767 222.393 78.2154L222.396 78.1458L222.397 78.1284L222.397 78.1241L222.397 78.1231L222.397 78.1229L221.897 78.103M221.897 78.103L222.094 77.6434L222.41 77.7789L222.397 78.1228L221.897 78.103Z" fill="url(#paint93_linear)" stroke="url(#paint94_linear)"/>
<path opacity="0.4" d="M303.729 101.534C306.532 103.172 309.637 104.95 312.861 106.773C312.096 106.398 311.324 106.019 310.552 105.637C306.371 103.573 302.175 101.455 298.925 99.7131C297.299 98.8417 295.916 98.0674 294.892 97.4428C294.38 97.1301 293.964 96.8589 293.654 96.6346C293.328 96.398 293.17 96.2479 293.122 96.1801C292.266 94.9823 291.311 94.2391 290.384 93.5308C290.356 93.5098 290.329 93.4888 290.301 93.4678C289.401 92.7805 288.528 92.1145 287.694 91.0626C287.184 90.4191 286.401 89.8615 285.558 89.349C285.016 89.0193 284.415 88.6891 283.815 88.36C283.485 88.1784 283.155 87.9971 282.836 87.8164C281.919 87.2975 281.064 86.7694 280.391 86.1908C279.718 85.6111 279.268 85.0158 279.1 84.3746C278.842 83.3958 278.569 81.7867 278.264 79.9866C278.09 78.9623 277.906 77.8761 277.708 76.8091C277.438 75.3558 277.145 73.9469 276.82 72.8228C276.658 72.2613 276.484 71.7573 276.297 71.3489C276.117 70.9563 275.895 70.5874 275.607 70.3641L275.607 70.364L275.596 70.3563C274.416 69.4905 273.17 68.7188 271.87 68.0482C273.429 68.4398 274.947 68.9799 276.405 69.6617C277.086 69.9853 277.819 70.6386 278.57 71.5239C279.316 72.4022 280.049 73.471 280.739 74.5787C281.429 75.6852 282.07 76.8192 282.634 77.8261C282.691 77.9288 282.748 78.0305 282.804 78.1307C283.293 79.0044 283.723 79.775 284.064 80.3047C284.391 80.8147 284.663 81.5354 284.883 82.3604C285.1 83.1789 285.258 84.0686 285.371 84.8962C285.484 85.7226 285.552 86.4795 285.592 87.03C285.612 87.305 285.624 87.5279 285.632 87.6815C285.636 87.7583 285.638 87.8177 285.64 87.8577L285.642 87.9026L285.642 87.9136L285.642 87.9161L285.642 87.9166L285.642 87.9167L285.652 88.2035L285.904 88.3399L285.904 88.34L285.904 88.34L285.904 88.34L285.906 88.3408L285.913 88.3446L285.943 88.3614C285.97 88.3765 286.011 88.3996 286.064 88.4303C286.17 88.4917 286.324 88.5834 286.515 88.7029C286.897 88.9422 287.421 89.2914 287.99 89.7301C289.138 90.6161 290.42 91.8303 291.107 93.2039C291.206 93.4038 291.394 93.6039 291.592 93.7878C291.804 93.9846 292.08 94.2097 292.41 94.4585C293.07 94.9569 293.972 95.5729 295.07 96.282C297.266 97.7014 300.27 99.5122 303.729 101.534ZM270.595 67.7628L270.908 68.5418L271.881 70.968C271.679 70.7038 271.472 70.4342 271.262 70.1641C270.482 69.1637 269.655 68.1478 268.935 67.365C268.576 66.9746 268.235 66.6325 267.934 66.3776C267.784 66.2502 267.636 66.1374 267.493 66.05C267.358 65.967 267.194 65.8852 267.018 65.8564C266.852 65.8292 266.657 65.842 266.478 65.9504C266.3 66.0574 266.202 66.2186 266.15 66.3619C266.055 66.6237 266.069 66.9405 266.105 67.2142C266.18 67.7917 266.407 68.5492 266.653 69.2678C266.758 69.5734 266.868 69.879 266.976 70.1695C266.338 69.5862 265.528 68.846 264.609 68.0141C263.054 66.6056 261.188 64.9326 259.324 63.3105C259.569 63.3741 259.798 63.4367 260.019 63.4971C261.224 63.8268 262.185 64.0897 264.318 64.0897C264.373 64.0897 264.512 64.1163 264.755 64.2121C264.985 64.3023 265.262 64.4353 265.574 64.6019C266.197 64.9347 266.924 65.3827 267.622 65.8365C268.318 66.2892 268.977 66.7426 269.463 67.0832C269.705 67.2534 269.904 67.3951 270.042 67.4942C270.111 67.5437 270.165 67.5825 270.201 67.6089L270.243 67.6389L270.253 67.6464L270.256 67.6483L270.256 67.6487L270.256 67.6488L270.446 67.3896L270.256 67.6488L270.347 67.715L270.457 67.7361C270.503 67.7449 270.549 67.7538 270.595 67.7628Z" fill="url(#paint95_linear)" stroke="url(#paint96_linear)"/>
<path d="M342.356 188.773C342.356 188.773 275.467 128.929 271.206 125.158C266.946 121.386 263.829 121.552 261.533 119.256C259.237 116.96 258.085 115.327 248.744 115.485C239.403 115.642 226.937 110.57 224.152 108.763C221.367 106.956 217.43 108.274 214.802 107.254C212.175 106.235 205.461 107.13 201.358 107.254C197.255 107.379 196.932 103.193 198.573 98.4351C200.214 93.6774 212.664 90.7349 214.321 91.713C215.979 92.691 222.519 89.9143 222.519 89.9143C221.532 86.4663 221.864 78.103 221.864 78.103C221.864 78.103 214.976 75.1523 212.357 74.1742C210.339 73.5655 208.224 73.3434 206.124 73.5194C206.124 73.5194 206.953 69.7564 208.254 68.3556C209.555 66.9548 215.797 65.6452 221.864 61.3848C227.931 57.1245 231.703 56.1381 232.639 56.4614C233.576 56.7846 240.348 58.7573 242.155 58.7573C243.962 58.7573 246.581 57.0996 249.2 57.6135C251.819 58.1274 256.577 62.2054 258.707 62.6944C260.837 63.1835 261.492 63.631 264.285 63.631C265.512 63.631 270.518 67.2863 270.518 67.2863C272.614 67.6866 274.653 68.3465 276.586 69.2507C279.694 70.7261 282.976 77.7798 284.452 80.0757C285.927 82.3717 286.109 87.9416 286.109 87.9416C286.109 87.9416 290.046 90.0718 291.522 93.0226C292.997 95.9733 347.329 125.158 347.329 125.158" stroke="url(#paint97_linear)" stroke-linecap="round" stroke-linejoin="round"/>
<path d="M221.889 78.103C221.889 78.103 222.651 71.6545 221.889 70.7593" stroke="url(#paint98_linear)" stroke-linecap="round" stroke-linejoin="round"/>
<path d="M242.105 62.313C242.105 62.313 253.261 71.7537 254.132 72.334" stroke="url(#paint99_linear)" stroke-linecap="round" stroke-linejoin="round"/>
<path d="M252.582 59.1387C254.115 60.0919 266.482 71.0578 270.526 73.5692" stroke="url(#paint100_linear)" stroke-linecap="round" stroke-linejoin="round"/>
<path d="M286.159 87.9168C284.957 87.2123 281.782 85.6789 281.459 84.4771" stroke="url(#paint101_linear)" stroke-linecap="round" stroke-linejoin="round"/>
<path d="M222.543 89.9146C222.543 89.9146 223.198 92.5918 222.543 93.9014" stroke="url(#paint102_linear)" stroke-linecap="round" stroke-linejoin="round"/>
<path d="M212.705 98.3853C212.705 98.3853 211.18 102.646 214.786 105.489" stroke="url(#paint103_linear)" stroke-linecap="round" stroke-linejoin="round"/>
<path d="M227.575 57.9448C226.425 59.1494 225.663 60.6709 225.387 62.3129" stroke="url(#paint104_linear)" stroke-linecap="round" stroke-linejoin="round"/>
<path d="M210.566 70.7593C210.929 71.7465 211.495 72.646 212.23 73.3988C212.964 74.1516 213.849 74.7407 214.827 75.1274" stroke="url(#paint105_linear)" stroke-linecap="round" stroke-linejoin="round"/>
<path d="M259.594 117.433C257.463 114.343 255.12 111.404 252.582 108.639" stroke="url(#paint106_linear)" stroke-linecap="round" stroke-linejoin="round"/>
<path d="M87.5046 296.561L87.5045 296.56C87.2645 296.893 86.826 297.329 86.253 297.837C85.6706 298.353 84.919 298.971 84.0265 299.673C82.2407 301.076 79.8739 302.828 77.1316 304.799C71.6459 308.741 64.6415 313.569 57.7427 318.253C50.8432 322.937 44.0463 327.479 38.9745 330.85C36.4386 332.536 34.3338 333.929 32.863 334.9C32.1275 335.386 31.5506 335.766 31.1575 336.025L30.966 336.151C38.9848 348.62 52.2275 354.861 63.5767 357.98C69.3075 359.555 74.5376 360.329 78.3349 360.709C80.2331 360.899 81.7719 360.99 82.8347 361.034C83.3661 361.056 83.7784 361.066 84.0569 361.071C84.122 361.072 84.1798 361.072 84.2301 361.073C91.2782 351.676 102.7 341.46 112.362 333.59C117.232 329.622 121.665 326.243 124.879 323.855C126.487 322.662 127.79 321.716 128.692 321.068C129.143 320.744 129.493 320.495 129.731 320.326C129.851 320.242 129.941 320.178 130.003 320.135L130.072 320.086L130.09 320.074L130.094 320.07L130.095 320.07C130.096 320.069 130.096 320.069 130.382 320.479L130.096 320.069L130.156 320.028L130.225 320.005C132.808 319.148 139.809 315.674 146.856 311.683C150.371 309.692 153.883 307.581 156.842 305.616C159.813 303.644 162.191 301.842 163.469 300.469C166.075 297.672 168.891 293.319 171.405 289.274C171.834 288.584 172.254 287.903 172.662 287.24C173.445 285.971 174.184 284.772 174.858 283.717C175.877 282.121 176.774 280.808 177.469 280.063C178.762 278.676 179.989 277.011 181.07 275.485C181.301 275.159 181.526 274.838 181.745 274.526C182.533 273.401 183.231 272.406 183.774 271.786C184.478 270.982 186.381 269.351 188.065 267.952C188.915 267.245 189.724 266.586 190.319 266.105C190.617 265.864 190.862 265.667 191.032 265.53L191.102 265.474C190.918 262.869 187.686 260.225 182.771 261.452C180.248 262.082 177.752 263.618 175.507 265.351C173.721 266.73 172.125 268.208 170.816 269.421C170.48 269.733 170.163 270.026 169.866 270.296C168.416 271.617 166.54 273.155 165.033 274.358C164.278 274.961 163.614 275.481 163.138 275.851C162.9 276.036 162.709 276.183 162.577 276.285L162.426 276.401L162.387 276.431L162.377 276.439L162.374 276.441L162.373 276.441L162.373 276.441L162.07 276.044L162.373 276.441L160.935 277.539L161.605 275.858L161.633 275.869C161.605 275.858 161.605 275.858 161.605 275.858L161.605 275.858L161.606 275.857L161.608 275.852L161.615 275.833L161.645 275.76L161.757 275.48L162.161 274.467C162.498 273.622 162.955 272.48 163.432 271.287C164.386 268.903 165.423 266.316 165.752 265.518C165.94 265.061 166.48 264.217 167.136 263.26C167.806 262.283 168.636 261.133 169.443 260.036C170.25 258.939 171.037 257.892 171.621 257.119C171.913 256.732 172.155 256.415 172.324 256.193C172.409 256.082 172.475 255.996 172.52 255.937L172.571 255.87L172.585 255.852L172.588 255.848L172.589 255.847L172.589 255.847C172.589 255.847 172.589 255.847 172.986 256.151L172.589 255.847L172.739 255.651H172.986H174.372C174.398 255.454 174.432 255.196 174.471 254.893C174.565 254.164 174.689 253.17 174.81 252.108C175.054 249.963 175.277 247.604 175.23 246.559C175.208 246.082 175.098 245.715 174.909 245.404C174.719 245.09 174.43 244.804 174.009 244.516C173.195 243.961 171.989 243.466 170.278 242.764C170.172 242.72 170.063 242.676 169.953 242.631C168.298 241.951 166.174 242.473 164.361 243.257C163.472 243.641 162.694 244.073 162.137 244.41C161.859 244.578 161.638 244.721 161.487 244.822C161.411 244.872 161.353 244.912 161.315 244.939L161.272 244.969L161.262 244.976L161.259 244.978L161.259 244.978L87.5046 296.561ZM87.5046 296.561L87.5112 296.551M87.5046 296.561L87.5112 296.551M132.33 244.572C132.558 245.017 132.558 245.017 132.558 245.017L132.558 245.017L132.559 245.016L132.562 245.015L132.578 245.007C132.587 245.002 132.599 244.996 132.613 244.989C132.622 244.985 132.632 244.98 132.643 244.974C132.701 244.946 132.787 244.904 132.899 244.851C133.122 244.745 133.447 244.596 133.848 244.425C134.652 244.083 135.759 243.654 136.976 243.307C138.197 242.958 139.51 242.697 140.731 242.676C141.956 242.656 143.037 242.879 143.845 243.447L143.964 243.531L144.109 243.538L144.133 243.038C144.109 243.538 144.109 243.538 144.109 243.538L144.11 243.538L144.111 243.538L144.116 243.538L144.136 243.539L144.213 243.543L144.509 243.556C144.765 243.568 145.133 243.584 145.581 243.603C146.477 243.641 147.695 243.689 148.982 243.73C151.534 243.811 154.416 243.867 155.548 243.751C156.526 243.651 157.808 243.95 158.894 244.304C159.427 244.478 159.895 244.659 160.229 244.797C160.396 244.865 160.529 244.923 160.619 244.963C160.665 244.983 160.699 244.999 160.722 245.009L160.748 245.021L160.754 245.024L160.755 245.025L160.755 245.025L132.33 244.572ZM132.33 244.572V245.072M132.33 244.572V245.072M87.5112 296.551C89.168 294.136 91.1227 291.94 93.3292 290.014L93.4746 289.887M87.5112 296.551L93.4746 289.887M93.4746 289.887L93.4971 289.695M93.4746 289.887L93.4971 289.695M93.4971 289.695L93.4971 289.695L93.4973 289.693L93.4981 289.687L93.5014 289.659L93.5148 289.55C93.5268 289.454 93.545 289.311 93.5696 289.126C93.6189 288.757 93.6937 288.221 93.7957 287.557C94 286.228 94.313 284.386 94.7484 282.334C95.6226 278.213 96.9775 273.308 98.9032 269.996C100.885 266.587 102.26 263.614 103.357 261.059C103.716 260.223 104.043 259.437 104.351 258.697C104.989 257.162 105.545 255.827 106.129 254.659C106.512 253.893 107.281 253.131 108.319 252.39C109.348 251.655 110.596 250.971 111.881 250.347C113.139 249.735 114.418 249.187 115.543 248.705L115.612 248.675C116.74 248.191 117.736 247.763 118.361 247.411C118.65 247.247 118.964 247.067 119.296 246.876C120.344 246.273 121.575 245.566 122.812 244.951C123.624 244.548 124.426 244.192 125.165 243.938C125.901 243.684 126.546 243.542 127.064 243.538C128.824 243.682 130.536 244.184 132.095 245.013L132.205 245.072M93.4971 289.695L132.205 245.072M132.205 245.072H132.33M132.205 245.072H132.33M161.021 245.149L161.259 244.978L161.021 245.149Z" fill="white" stroke="url(#paint107_linear)"/>
<path opacity="0.4" d="M129.008 316.988L129.083 316.915C129.108 316.9 129.145 316.878 129.191 316.851C129.293 316.792 129.442 316.709 129.625 316.613C129.993 316.421 130.494 316.183 131.036 315.992C131.583 315.799 132.144 315.664 132.637 315.657C133.129 315.651 133.498 315.771 133.748 316.023C133.947 316.227 134.243 316.361 134.543 316.461C134.858 316.565 135.245 316.652 135.686 316.723C136.135 316.796 136.653 316.856 137.23 316.902C134.947 318.062 132.609 319.112 130.224 320.047L130.169 320.069L130.121 320.103L130.407 320.513C130.121 320.103 130.12 320.103 130.12 320.103L130.119 320.104L130.116 320.106L130.105 320.114L130.059 320.146C130.019 320.174 129.959 320.216 129.88 320.272C129.723 320.383 129.491 320.548 129.189 320.763C128.587 321.193 127.71 321.824 126.61 322.63C124.41 324.242 121.316 326.553 117.74 329.349C111.716 334.062 104.317 340.16 97.5215 346.621C99.718 343.68 102.255 340.692 104.711 338.049C106.541 336.079 108.323 334.306 109.878 332.891C111.441 331.47 112.753 330.433 113.649 329.914L113.65 329.913C116.333 328.35 120.213 325.075 123.394 322.222C124.991 320.789 126.423 319.453 127.456 318.475C127.972 317.986 128.389 317.586 128.676 317.309C128.82 317.17 128.932 317.062 129.008 316.988Z" fill="url(#paint108_linear)" stroke="url(#paint109_linear)"/>
<path opacity="0.4" d="M162.898 266.445C162.902 266.439 162.906 266.432 162.91 266.425C162.957 266.35 163.026 266.24 163.114 266.105C163.291 265.836 163.544 265.471 163.848 265.087C164.477 264.296 165.256 263.517 165.991 263.242C166.189 263.168 166.365 263.035 166.517 262.893C166.673 262.747 166.831 262.566 166.989 262.362C167.303 261.953 167.642 261.419 167.992 260.809C168.693 259.587 169.464 258.012 170.203 256.422C170.935 254.844 171.639 253.239 172.214 251.93L172.23 251.892C172.815 250.56 173.25 249.571 173.45 249.204C173.648 248.84 173.613 248.459 173.465 248.131C173.324 247.819 173.075 247.535 172.793 247.281C172.225 246.771 171.388 246.272 170.504 245.833C169.613 245.391 168.641 244.994 167.78 244.695C166.931 244.4 166.151 244.187 165.655 244.133C165.048 244.067 164.553 244.29 164.127 244.62C163.748 244.914 163.384 245.323 163.016 245.737C162.988 245.768 162.96 245.799 162.932 245.831C162.12 246.743 161.143 247.801 159.502 248.505C157.725 249.267 155.73 250.343 153.977 251.429C152.231 252.511 150.689 253.625 149.839 254.47C149.379 254.928 148.871 255.732 148.377 256.632C148.101 257.135 147.821 257.684 147.548 258.247C148.019 256.417 148.471 254.71 148.678 254.068M162.898 266.445L160.722 245.025C160.722 245.025 160.722 245.025 160.934 244.572M162.898 266.445C162.894 266.494 162.889 266.558 162.882 266.636C162.865 266.833 162.84 267.118 162.807 267.468C162.741 268.169 162.645 269.133 162.521 270.187C162.298 272.08 161.984 274.303 161.596 275.799L161.612 275.76L161.723 275.48L162.128 274.467C162.465 273.622 162.922 272.48 163.399 271.287C164.353 268.903 165.39 266.316 165.718 265.518C165.907 265.061 166.447 264.217 167.103 263.26C167.773 262.283 168.603 261.133 169.41 260.036C170.217 258.939 171.003 257.892 171.588 257.119C171.88 256.732 172.122 256.415 172.291 256.193C172.375 256.082 172.442 255.996 172.487 255.937L172.538 255.87L172.552 255.852L172.555 255.848L172.556 255.847L172.556 255.847C172.556 255.847 172.556 255.847 172.953 256.151L172.556 255.847L172.706 255.651H172.953H174.339C174.365 255.454 174.399 255.196 174.438 254.893C174.532 254.164 174.656 253.17 174.777 252.108C175.021 249.963 175.244 247.604 175.197 246.559C175.175 246.082 175.064 245.715 174.876 245.404C174.685 245.09 174.397 244.804 173.976 244.516C173.162 243.961 171.956 243.466 170.245 242.764C170.138 242.72 170.03 242.676 169.92 242.631C168.265 241.951 166.141 242.473 164.328 243.257C163.439 243.641 162.661 244.073 162.104 244.41C161.826 244.578 161.605 244.721 161.454 244.822C161.378 244.872 161.32 244.912 161.282 244.939L161.239 244.969L161.228 244.976L161.226 244.978L161.226 244.978M162.898 266.445L161.226 244.978M148.678 254.068C148.678 254.068 148.678 254.068 148.678 254.068L148.203 253.913L148.679 254.067C148.679 254.067 148.678 254.067 148.678 254.068ZM148.678 254.068C148.705 253.985 148.775 253.858 148.916 253.684C149.054 253.516 149.239 253.327 149.467 253.123C149.922 252.715 150.516 252.272 151.158 251.834C152.438 250.961 153.863 250.141 154.638 249.708L154.184 248.818C153.612 249.084 153.135 249.144 152.711 249.083C152.28 249.021 151.863 248.827 151.427 248.517C150.987 248.204 150.548 247.789 150.072 247.306C149.92 247.152 149.764 246.99 149.603 246.824C149.269 246.479 148.916 246.114 148.549 245.761L148.549 245.761C147.403 244.66 146.001 243.916 144.438 243.555M144.438 243.555L144.476 243.556C144.732 243.568 145.1 243.584 145.548 243.603C146.444 243.641 147.662 243.689 148.948 243.73C151.501 243.811 154.383 243.867 155.515 243.751C156.493 243.651 157.775 243.95 158.861 244.304C159.394 244.478 159.862 244.659 160.196 244.797C160.362 244.865 160.495 244.923 160.586 244.963C160.631 244.983 160.666 244.999 160.689 245.009L160.715 245.021L160.721 245.024L160.722 245.025L160.934 244.572M144.438 243.555C144.319 243.527 144.199 243.502 144.079 243.479C144.076 243.538 144.076 243.538 144.076 243.538L144.076 243.538L144.078 243.538L144.083 243.538L144.103 243.539L144.18 243.543L144.438 243.555ZM160.934 244.572L161.226 244.978M160.934 244.572L161.226 244.978M161.226 244.978L161.226 244.978M161.226 244.978L161.226 244.978M161.226 244.978L160.988 245.149L161.226 244.978ZM169.85 270.354L169.857 270.348L169.863 270.341C171.052 269.173 172.286 268.053 173.563 266.984C172.058 269.087 170.774 271.345 169.734 273.721L169.711 273.775L169.701 273.831C169.464 275.12 168.716 276.799 167.69 278.624C166.671 280.438 165.402 282.354 164.159 284.106C162.936 285.83 161.743 287.389 160.846 288.528C161.754 284.928 161.811 282.548 161.668 280.765C161.625 280.232 161.565 279.756 161.506 279.326C161.493 279.229 161.48 279.136 161.467 279.045C161.423 278.725 161.383 278.435 161.354 278.155C161.318 277.817 161.301 277.508 161.312 277.21L162.336 276.444L162.037 276.044L162.336 276.444L162.336 276.444L162.337 276.444L162.34 276.442L162.35 276.434L162.389 276.404L162.541 276.29C162.673 276.19 162.865 276.045 163.104 275.863C163.581 275.498 164.248 274.985 165.005 274.389C166.517 273.2 168.398 271.677 169.85 270.354ZM143.783 243.427C142.153 243.168 140.368 243.307 138.525 243.87C136.563 244.469 134.935 245.504 133.805 246.35C133.24 246.774 132.795 247.153 132.496 247.408L132.494 247.409C132.426 247.468 132.368 247.517 132.319 247.558C132.295 247.55 132.27 247.543 132.245 247.535C132.067 247.483 131.824 247.426 131.539 247.368C130.967 247.25 130.193 247.122 129.365 247.017C128.537 246.913 127.646 246.831 126.84 246.811C126.05 246.79 125.29 246.827 124.753 246.985C123.81 247.264 122.275 247.887 120.999 248.429C120.356 248.702 119.77 248.958 119.345 249.146C119.146 249.234 118.982 249.307 118.864 249.36C118.725 249.304 118.53 249.236 118.281 249.176C117.769 249.053 117.032 248.967 116.096 249.087C114.219 249.329 111.592 250.396 108.389 253.557L108.389 253.557C108.015 253.927 107.565 254.565 107.076 255.351C106.58 256.148 106.022 257.135 105.435 258.231C104.261 260.424 102.958 263.075 101.781 265.566C100.603 268.057 99.5488 270.394 98.8696 271.962C98.5314 272.742 98.2822 273.342 98.1582 273.675C98.1273 273.758 98.1011 273.832 98.0829 273.893C98.0742 273.921 98.0638 273.958 98.0565 273.997C98.053 274.015 98.0476 274.047 98.0459 274.085L98.0458 274.087C98.0448 274.109 98.0398 274.214 98.0945 274.33C98.1285 274.402 98.1987 274.504 98.3299 274.568C98.463 274.633 98.5901 274.624 98.6728 274.603C98.8034 274.571 98.8843 274.493 98.9005 274.478L98.9018 274.477C98.9505 274.431 98.9847 274.381 98.9977 274.362C99.0333 274.309 99.0737 274.24 99.1158 274.164C99.7481 273.019 101.476 270.69 103.12 268.559C103.417 268.174 103.71 267.796 103.992 267.436C102.781 270.118 101.019 273.969 99.1756 277.852C97.5551 281.264 95.8752 284.694 94.4541 287.372C94.1375 287.969 93.8345 288.526 93.5484 289.037C93.5975 288.673 93.6684 288.17 93.7626 287.557C93.9668 286.228 94.2799 284.386 94.7152 282.334C95.5894 278.213 96.9444 273.308 98.8701 269.996C100.852 266.587 102.227 263.614 103.323 261.059C103.682 260.223 104.01 259.437 104.318 258.697C104.956 257.162 105.512 255.827 106.096 254.659C106.479 253.893 107.248 253.131 108.285 252.39C109.315 251.655 110.563 250.971 111.848 250.347C113.106 249.735 114.384 249.187 115.51 248.705L115.579 248.675C116.707 248.191 117.703 247.763 118.328 247.411C118.617 247.247 118.931 247.067 119.263 246.876C120.311 246.273 121.542 245.566 122.779 244.951C123.591 244.548 124.392 244.192 125.132 243.938C125.868 243.684 126.513 243.542 127.031 243.538C128.791 243.682 130.503 244.184 132.062 245.013L132.172 245.072H132.297V244.572C132.525 245.017 132.525 245.017 132.525 245.017L132.525 245.017L132.526 245.016L132.529 245.015L132.545 245.007C132.555 245.001 132.569 244.994 132.587 244.986L132.61 244.974C132.668 244.946 132.754 244.904 132.866 244.851C133.089 244.745 133.414 244.596 133.815 244.425C134.619 244.083 135.726 243.654 136.943 243.307C138.164 242.958 139.477 242.697 140.697 242.676C141.908 242.656 142.979 242.874 143.783 243.427ZM87.4781 296.551C88.9656 294.383 90.6933 292.391 92.6277 290.612C92.6066 290.647 92.5856 290.68 92.5648 290.714C92.2968 291.143 92.0597 291.493 91.8576 291.758C91.6473 292.034 91.5019 292.18 91.4209 292.236C90.7355 292.715 90.202 293.475 89.6708 294.333C89.4914 294.623 89.3116 294.925 89.1242 295.24C88.7382 295.889 88.3199 296.592 87.8066 297.353C86.3052 299.577 84.0512 302.189 79.8579 304.552C76.5581 306.411 69.4336 310.762 61.9305 315.402C63.733 314.169 65.5199 312.941 67.2617 311.736C72.3602 308.208 77.0768 304.876 80.6759 302.207C82.4749 300.873 83.9991 299.701 85.1536 298.751C86.2891 297.817 87.1171 297.058 87.473 296.558L87.473 296.558L87.4781 296.551Z" fill="url(#paint110_linear)" stroke="url(#paint111_linear)"/>
<path opacity="0.4" d="M183.758 271.844L183.758 271.844L183.754 271.848C183.292 272.388 182.7 273.223 182.027 274.188C182.326 272.862 182.552 271.519 182.703 270.166C183.927 268.424 185.64 267.083 187.627 266.314C188.587 266.034 189.583 265.909 190.578 265.94C190.493 266.009 190.401 266.084 190.303 266.163C189.707 266.644 188.899 267.303 188.048 268.01C186.364 269.409 184.462 271.04 183.758 271.844Z" fill="url(#paint112_linear)" stroke="url(#paint113_linear)"/>
<path d="M30.2803 336.004C30.2803 336.004 83.8249 300.81 87.0989 296.268C88.7795 293.818 90.7623 291.591 93.0004 289.637C93.0004 289.637 94.5338 276.516 98.4709 269.744C102.408 262.973 103.933 257.933 105.682 254.435C107.431 250.937 115.736 248.318 118.115 246.976C120.494 245.633 124.68 243.038 127.083 243.038C128.919 243.185 130.705 243.707 132.33 244.572C132.33 244.572 140.42 240.427 144.133 243.038C144.133 243.038 153.317 243.478 155.497 243.254C157.677 243.03 160.967 244.572 160.967 244.572C160.967 244.572 166.43 240.643 170.143 242.168C173.856 243.693 175.63 244.348 175.729 246.536C175.829 248.724 174.809 256.151 174.809 256.151H172.986C172.986 256.151 166.869 264.116 166.214 265.708C165.559 267.299 162.07 276.044 162.07 276.044C162.07 276.044 166.653 272.546 169.529 269.927C172.406 267.308 177.404 262.276 182.65 260.967C187.897 259.657 191.61 262.583 191.61 265.708C191.61 265.708 185.493 270.582 184.151 272.115C182.808 273.648 180.47 277.577 177.835 280.404C175.199 283.23 169.123 295.133 163.835 300.81C158.547 306.488 135.654 318.73 130.382 320.479C130.382 320.479 98.4709 342.776 84.4797 361.574" stroke="url(#paint114_linear)" stroke-linecap="round" stroke-linejoin="round"/>
<path d="M162.086 276.069C162.086 276.069 163.396 282.633 160.769 288.502" stroke="url(#paint115_linear)" stroke-linecap="round" stroke-linejoin="round"/>
<path d="M153.557 249.653C156.304 248.402 158.825 246.705 161.017 244.63" stroke="url(#paint116_linear)" stroke-linecap="round" stroke-linejoin="round"/>
<path d="M173.011 256.176C173.716 254.729 174.197 253.184 174.436 251.592" stroke="url(#paint117_linear)" stroke-linecap="round" stroke-linejoin="round"/>
<path d="M144.158 243.097C141.499 243.038 138.904 243.918 136.831 245.583" stroke="url(#paint118_linear)" stroke-linecap="round" stroke-linejoin="round"/>
<path d="M132.355 244.63C132.355 244.63 125.798 247.688 123.502 247.688C121.206 247.688 117.485 250.747 117.485 251.625" stroke="url(#paint119_linear)" stroke-linecap="round" stroke-linejoin="round"/>
<path d="M93.0005 289.662C94.9369 286.685 96.517 283.492 97.7084 280.146" stroke="url(#paint120_linear)" stroke-linecap="round" stroke-linejoin="round"/>
<path d="M154.975 251.625C154.975 251.625 150.83 252.711 149.405 256.209C147.979 259.707 141.423 271.841 141.423 271.841" stroke="url(#paint121_linear)" stroke-linecap="round" stroke-linejoin="round"/>
<path d="M134.104 249.653C133.225 251.733 123.387 269.985 123.387 269.985" stroke="url(#paint122_linear)" stroke-linecap="round" stroke-linejoin="round"/>
<defs>
<linearGradient id="paint0_linear" x1="41.9919" y1="155.801" x2="41.9919" y2="118.949" gradientUnits="userSpaceOnUse">
<stop stop-color="#FF5E3A"/>
<stop offset="1" stop-color="#FF9500"/>
</linearGradient>
<linearGradient id="paint1_linear" x1="45.3821" y1="155.8" x2="45.3821" y2="130.81" gradientUnits="userSpaceOnUse">
<stop stop-color="#FF5E3A"/>
<stop offset="1" stop-color="#FF9500"/>
</linearGradient>
<linearGradient id="paint2_linear" x1="34.7865" y1="137.041" x2="34.7865" y2="129.512" gradientUnits="userSpaceOnUse">
<stop stop-color="#FF5E3A"/>
<stop offset="1" stop-color="#FF9500"/>
</linearGradient>
<linearGradient id="paint3_linear" x1="242.635" y1="317.736" x2="242.635" y2="284.084" gradientUnits="userSpaceOnUse">
<stop stop-color="#FF5E3A"/>
<stop offset="1" stop-color="#FF9500"/>
</linearGradient>
<linearGradient id="paint4_linear" x1="241.296" y1="309.712" x2="241.296" y2="304.341" gradientUnits="userSpaceOnUse">
<stop stop-color="#FF5E3A"/>
<stop offset="1" stop-color="#FF9500"/>
</linearGradient>
<linearGradient id="paint5_linear" x1="243.676" y1="307.524" x2="243.676" y2="292.895" gradientUnits="userSpaceOnUse">
<stop stop-color="#FF5E3A"/>
<stop offset="1" stop-color="#FF9500"/>
</linearGradient>
<linearGradient id="paint6_linear" x1="231.043" y1="293.987" x2="231.043" y2="291.784" gradientUnits="userSpaceOnUse">
<stop stop-color="#FF5E3A"/>
<stop offset="1" stop-color="#FF9500"/>
</linearGradient>
<linearGradient id="paint7_linear" x1="256.496" y1="299.663" x2="256.496" y2="297.458" gradientUnits="userSpaceOnUse">
<stop stop-color="#FF5E3A"/>
<stop offset="1" stop-color="#FF9500"/>
</linearGradient>
<linearGradient id="paint8_linear" x1="228.356" y1="305.234" x2="228.769" y2="303.347" gradientUnits="userSpaceOnUse">
<stop stop-color="#FF5E3A"/>
<stop offset="1" stop-color="#FF9500"/>
</linearGradient>
<linearGradient id="paint9_linear" x1="241.084" y1="308.016" x2="241.497" y2="306.129" gradientUnits="userSpaceOnUse">
<stop stop-color="#FF5E3A"/>
<stop offset="1" stop-color="#FF9500"/>
</linearGradient>
<linearGradient id="paint10_linear" x1="253.827" y1="310.809" x2="254.24" y2="308.922" gradientUnits="userSpaceOnUse">
<stop stop-color="#FF5E3A"/>
<stop offset="1" stop-color="#FF9500"/>
</linearGradient>
<linearGradient id="paint11_linear" x1="76.8373" y1="79.5117" x2="76.8373" y2="40.5303" gradientUnits="userSpaceOnUse">
<stop stop-color="#FF5E3A"/>
<stop offset="1" stop-color="#FF9500"/>
</linearGradient>
<linearGradient id="paint12_linear" x1="75.6768" y1="68.9188" x2="75.6768" y2="62.5845" gradientUnits="userSpaceOnUse">
<stop stop-color="#FF5E3A"/>
<stop offset="1" stop-color="#FF9500"/>
</linearGradient>
<linearGradient id="paint13_linear" x1="76.5222" y1="64.3354" x2="76.5222" y2="51.6123" gradientUnits="userSpaceOnUse">
<stop stop-color="#FF5E3A"/>
<stop offset="1" stop-color="#FF9500"/>
</linearGradient>
<linearGradient id="paint14_linear" x1="76.5056" y1="54.7135" x2="76.5056" y2="51.6206" gradientUnits="userSpaceOnUse">
<stop stop-color="#FF5E3A"/>
<stop offset="1" stop-color="#FF9500"/>
</linearGradient>
<linearGradient id="paint15_linear" x1="299.71" y1="245.243" x2="299.71" y2="207.696" gradientUnits="userSpaceOnUse">
<stop stop-color="#FF5E3A"/>
<stop offset="1" stop-color="#FF9500"/>
</linearGradient>
<linearGradient id="paint16_linear" x1="292.657" y1="232.288" x2="292.657" y2="219.764" gradientUnits="userSpaceOnUse">
<stop stop-color="#FF5E3A"/>
<stop offset="1" stop-color="#FF9500"/>
</linearGradient>
<linearGradient id="paint17_linear" x1="305.815" y1="235.719" x2="305.815" y2="223.204" gradientUnits="userSpaceOnUse">
<stop stop-color="#FF5E3A"/>
<stop offset="1" stop-color="#FF9500"/>
</linearGradient>
<linearGradient id="paint18_linear" x1="299.234" y1="233.457" x2="299.234" y2="222.027" gradientUnits="userSpaceOnUse">
<stop stop-color="#FF5E3A"/>
<stop offset="1" stop-color="#FF9500"/>
</linearGradient>
<linearGradient id="paint19_linear" x1="265.553" y1="51.2309" x2="265.553" y2="13.8574" gradientUnits="userSpaceOnUse">
<stop stop-color="#FF5E3A"/>
<stop offset="1" stop-color="#FF9500"/>
</linearGradient>
<linearGradient id="paint20_linear" x1="263.046" y1="40.6799" x2="263.046" y2="24.8647" gradientUnits="userSpaceOnUse">
<stop stop-color="#FF5E3A"/>
<stop offset="1" stop-color="#FF9500"/>
</linearGradient>
<linearGradient id="paint21_linear" x1="270.881" y1="40.8389" x2="270.881" y2="34.9771" gradientUnits="userSpaceOnUse">
<stop stop-color="#FF5E3A"/>
<stop offset="1" stop-color="#FF9500"/>
</linearGradient>
<linearGradient id="paint22_linear" x1="266.854" y1="34.2557" x2="266.854" y2="32.1587" gradientUnits="userSpaceOnUse">
<stop stop-color="#FF5E3A"/>
<stop offset="1" stop-color="#FF9500"/>
</linearGradient>
<linearGradient id="paint23_linear" x1="43.8237" y1="272.289" x2="43.8237" y2="242.201" gradientUnits="userSpaceOnUse">
<stop stop-color="#FF5E3A"/>
<stop offset="1" stop-color="#FF9500"/>
</linearGradient>
<linearGradient id="paint24_linear" x1="46.8739" y1="252.346" x2="46.8739" y2="247.779" gradientUnits="userSpaceOnUse">
<stop stop-color="#FF5E3A"/>
<stop offset="1" stop-color="#FF9500"/>
</linearGradient>
<linearGradient id="paint25_linear" x1="44.9674" y1="254.352" x2="44.9674" y2="249.139" gradientUnits="userSpaceOnUse">
<stop stop-color="#FF5E3A"/>
<stop offset="1" stop-color="#FF9500"/>
</linearGradient>
<linearGradient id="paint26_linear" x1="44.528" y1="256.35" x2="44.528" y2="251.145" gradientUnits="userSpaceOnUse">
<stop stop-color="#FF5E3A"/>
<stop offset="1" stop-color="#FF9500"/>
</linearGradient>
<linearGradient id="paint27_linear" x1="44.089" y1="258.356" x2="44.089" y2="253.15" gradientUnits="userSpaceOnUse">
<stop stop-color="#FF5E3A"/>
<stop offset="1" stop-color="#FF9500"/>
</linearGradient>
<linearGradient id="paint28_linear" x1="43.6496" y1="260.353" x2="43.6496" y2="255.148" gradientUnits="userSpaceOnUse">
<stop stop-color="#FF5E3A"/>
<stop offset="1" stop-color="#FF9500"/>
</linearGradient>
<linearGradient id="paint29_linear" x1="43.2184" y1="262.36" x2="43.2184" y2="257.154" gradientUnits="userSpaceOnUse">
<stop stop-color="#FF5E3A"/>
<stop offset="1" stop-color="#FF9500"/>
</linearGradient>
<linearGradient id="paint30_linear" x1="42.7794" y1="264.357" x2="42.7794" y2="259.151" gradientUnits="userSpaceOnUse">
<stop stop-color="#FF5E3A"/>
<stop offset="1" stop-color="#FF9500"/>
</linearGradient>
<linearGradient id="paint31_linear" x1="40.8729" y1="265.724" x2="40.8729" y2="261.157" gradientUnits="userSpaceOnUse">
<stop stop-color="#FF5E3A"/>
<stop offset="1" stop-color="#FF9500"/>
</linearGradient>
<linearGradient id="paint32_linear" x1="167.465" y1="106.127" x2="167.465" y2="23.207" gradientUnits="userSpaceOnUse">
<stop stop-color="#FF5E3A"/>
<stop offset="1" stop-color="#FF9500"/>
</linearGradient>
<linearGradient id="paint33_linear" x1="167.466" y1="193.191" x2="167.466" y2="25.9009" gradientUnits="userSpaceOnUse">
<stop stop-color="#FF5E3A"/>
<stop offset="1" stop-color="#FF9500"/>
</linearGradient>
<linearGradient id="paint34_linear" x1="167.466" y1="193.191" x2="167.466" y2="25.9009" gradientUnits="userSpaceOnUse">
<stop stop-color="#FF5E3A"/>
<stop offset="1" stop-color="#FF9500"/>
</linearGradient>
<linearGradient id="paint35_linear" x1="167.466" y1="193.191" x2="167.466" y2="123.234" gradientUnits="userSpaceOnUse">
<stop stop-color="#FF5E3A"/>
<stop offset="1" stop-color="#FF9500"/>
</linearGradient>
<linearGradient id="paint36_linear" x1="167.466" y1="193.191" x2="167.466" y2="25.9009" gradientUnits="userSpaceOnUse">
<stop stop-color="#FF5E3A"/>
<stop offset="1" stop-color="#FF9500"/>
</linearGradient>
<linearGradient id="paint37_linear" x1="167.465" y1="193.191" x2="167.465" y2="25.9009" gradientUnits="userSpaceOnUse">
<stop stop-color="#FF5E3A"/>
<stop offset="1" stop-color="#FF9500"/>
</linearGradient>
<linearGradient id="paint38_linear" x1="167.469" y1="92.989" x2="167.469" y2="35.1675" gradientUnits="userSpaceOnUse">
<stop stop-color="#FF5E3A"/>
<stop offset="1" stop-color="#FF9500"/>
</linearGradient>
<linearGradient id="paint39_linear" x1="167.486" y1="96.2548" x2="167.486" y2="40.7871" gradientUnits="userSpaceOnUse">
<stop stop-color="#FF5E3A"/>
<stop offset="1" stop-color="#FF9500"/>
</linearGradient>
<linearGradient id="paint40_linear" x1="167.374" y1="96.2546" x2="167.374" y2="46.0918" gradientUnits="userSpaceOnUse">
<stop stop-color="#FF5E3A"/>
<stop offset="1" stop-color="#FF9500"/>
</linearGradient>
<linearGradient id="paint41_linear" x1="167.374" y1="96.2546" x2="167.374" y2="46.0918" gradientUnits="userSpaceOnUse">
<stop stop-color="#FF5E3A"/>
<stop offset="1" stop-color="#FF9500"/>
</linearGradient>
<linearGradient id="paint42_linear" x1="167.486" y1="96.2548" x2="167.486" y2="40.7871" gradientUnits="userSpaceOnUse">
<stop stop-color="#FF5E3A"/>
<stop offset="1" stop-color="#FF9500"/>
</linearGradient>
<linearGradient id="paint43_linear" x1="167.441" y1="104.917" x2="167.441" y2="47.2524" gradientUnits="userSpaceOnUse">
<stop stop-color="#FF5E3A"/>
<stop offset="1" stop-color="#FF9500"/>
</linearGradient>
<linearGradient id="paint44_linear" x1="167.465" y1="108.323" x2="167.465" y2="53.0044" gradientUnits="userSpaceOnUse">
<stop stop-color="#FF5E3A"/>
<stop offset="1" stop-color="#FF9500"/>
</linearGradient>
<linearGradient id="paint45_linear" x1="167.449" y1="108.323" x2="167.449" y2="59.1548" gradientUnits="userSpaceOnUse">
<stop stop-color="#FF5E3A"/>
<stop offset="1" stop-color="#FF9500"/>
</linearGradient>
<linearGradient id="paint46_linear" x1="167.449" y1="108.323" x2="167.449" y2="59.1548" gradientUnits="userSpaceOnUse">
<stop stop-color="#FF5E3A"/>
<stop offset="1" stop-color="#FF9500"/>
</linearGradient>
<linearGradient id="paint47_linear" x1="167.465" y1="108.323" x2="167.465" y2="53.0044" gradientUnits="userSpaceOnUse">
<stop stop-color="#FF5E3A"/>
<stop offset="1" stop-color="#FF9500"/>
</linearGradient>
<linearGradient id="paint48_linear" x1="167.469" y1="116.819" x2="167.469" y2="59.3281" gradientUnits="userSpaceOnUse">
<stop stop-color="#FF5E3A"/>
<stop offset="1" stop-color="#FF9500"/>
</linearGradient>
<linearGradient id="paint49_linear" x1="167.469" y1="120.384" x2="167.469" y2="65.2295" gradientUnits="userSpaceOnUse">
<stop stop-color="#FF5E3A"/>
<stop offset="1" stop-color="#FF9500"/>
</linearGradient>
<linearGradient id="paint50_linear" x1="167.465" y1="126.26" x2="167.465" y2="68.9248" gradientUnits="userSpaceOnUse">
<stop stop-color="#FF5E3A"/>
<stop offset="1" stop-color="#FF9500"/>
</linearGradient>
<linearGradient id="paint51_linear" x1="167.449" y1="129.916" x2="167.449" y2="74.9595" gradientUnits="userSpaceOnUse">
<stop stop-color="#FF5E3A"/>
<stop offset="1" stop-color="#FF9500"/>
</linearGradient>
<linearGradient id="paint52_linear" x1="167.481" y1="135.626" x2="167.481" y2="78.5151" gradientUnits="userSpaceOnUse">
<stop stop-color="#FF5E3A"/>
<stop offset="1" stop-color="#FF9500"/>
</linearGradient>
<linearGradient id="paint53_linear" x1="167.483" y1="139.499" x2="167.483" y2="84.6973" gradientUnits="userSpaceOnUse">
<stop stop-color="#FF5E3A"/>
<stop offset="1" stop-color="#FF9500"/>
</linearGradient>
<linearGradient id="paint54_linear" x1="165.302" y1="139.49" x2="165.302" y2="98.9814" gradientUnits="userSpaceOnUse">
<stop stop-color="#FF5E3A"/>
<stop offset="1" stop-color="#FF9500"/>
</linearGradient>
<linearGradient id="paint55_linear" x1="165.302" y1="139.49" x2="165.302" y2="98.9814" gradientUnits="userSpaceOnUse">
<stop stop-color="#FF5E3A"/>
<stop offset="1" stop-color="#FF9500"/>
</linearGradient>
<linearGradient id="paint56_linear" x1="167.483" y1="139.499" x2="167.483" y2="84.6973" gradientUnits="userSpaceOnUse">
<stop stop-color="#FF5E3A"/>
<stop offset="1" stop-color="#FF9500"/>
</linearGradient>
<linearGradient id="paint57_linear" x1="166.31" y1="195.603" x2="166.31" y2="137.364" gradientUnits="userSpaceOnUse">
<stop stop-color="#FF5E3A"/>
<stop offset="1" stop-color="#FF9500"/>
</linearGradient>
<linearGradient id="paint58_linear" x1="166.453" y1="199.95" x2="166.453" y2="140.597" gradientUnits="userSpaceOnUse">
<stop stop-color="#FF5E3A"/>
<stop offset="1" stop-color="#FF9500"/>
</linearGradient>
<linearGradient id="paint59_linear" x1="166.222" y1="199.95" x2="166.222" y2="148.299" gradientUnits="userSpaceOnUse">
<stop stop-color="#FF5E3A"/>
<stop offset="1" stop-color="#FF9500"/>
</linearGradient>
<linearGradient id="paint60_linear" x1="166.222" y1="199.95" x2="166.222" y2="148.299" gradientUnits="userSpaceOnUse">
<stop stop-color="#FF5E3A"/>
<stop offset="1" stop-color="#FF9500"/>
</linearGradient>
<linearGradient id="paint61_linear" x1="166.453" y1="199.95" x2="166.453" y2="140.597" gradientUnits="userSpaceOnUse">
<stop stop-color="#FF5E3A"/>
<stop offset="1" stop-color="#FF9500"/>
</linearGradient>
<linearGradient id="paint62_linear" x1="168.812" y1="209.561" x2="168.812" y2="148.162" gradientUnits="userSpaceOnUse">
<stop stop-color="#FF5E3A"/>
<stop offset="1" stop-color="#FF9500"/>
</linearGradient>
<linearGradient id="paint63_linear" x1="168.634" y1="214.03" x2="168.634" y2="154.015" gradientUnits="userSpaceOnUse">
<stop stop-color="#FF5E3A"/>
<stop offset="1" stop-color="#FF9500"/>
</linearGradient>
<linearGradient id="paint64_linear" x1="167.946" y1="214.03" x2="167.946" y2="161.917" gradientUnits="userSpaceOnUse">
<stop stop-color="#FF5E3A"/>
<stop offset="1" stop-color="#FF9500"/>
</linearGradient>
<linearGradient id="paint65_linear" x1="167.946" y1="214.03" x2="167.946" y2="161.917" gradientUnits="userSpaceOnUse">
<stop stop-color="#FF5E3A"/>
<stop offset="1" stop-color="#FF9500"/>
</linearGradient>
<linearGradient id="paint66_linear" x1="168.634" y1="214.03" x2="168.634" y2="154.015" gradientUnits="userSpaceOnUse">
<stop stop-color="#FF5E3A"/>
<stop offset="1" stop-color="#FF9500"/>
</linearGradient>
<linearGradient id="paint67_linear" x1="167.465" y1="218.695" x2="167.465" y2="162.603" gradientUnits="userSpaceOnUse">
<stop stop-color="#FF5E3A"/>
<stop offset="1" stop-color="#FF9500"/>
</linearGradient>
<linearGradient id="paint68_linear" x1="167.466" y1="223.428" x2="167.466" y2="169.626" gradientUnits="userSpaceOnUse">
<stop stop-color="#FF5E3A"/>
<stop offset="1" stop-color="#FF9500"/>
</linearGradient>
<linearGradient id="paint69_linear" x1="167.465" y1="230.655" x2="167.465" y2="174.727" gradientUnits="userSpaceOnUse">
<stop stop-color="#FF5E3A"/>
<stop offset="1" stop-color="#FF9500"/>
</linearGradient>
<linearGradient id="paint70_linear" x1="167.465" y1="235.454" x2="167.465" y2="181.81" gradientUnits="userSpaceOnUse">
<stop stop-color="#FF5E3A"/>
<stop offset="1" stop-color="#FF9500"/>
</linearGradient>
<linearGradient id="paint71_linear" x1="167.465" y1="292.621" x2="167.465" y2="199.631" gradientUnits="userSpaceOnUse">
<stop stop-color="#FF5E3A"/>
<stop offset="1" stop-color="#FF9500"/>
</linearGradient>
<linearGradient id="paint72_linear" x1="167.465" y1="292.621" x2="167.465" y2="199.631" gradientUnits="userSpaceOnUse">
<stop stop-color="#FF5E3A"/>
<stop offset="1" stop-color="#FF9500"/>
</linearGradient>
<linearGradient id="paint73_linear" x1="167.465" y1="292.621" x2="167.465" y2="199.631" gradientUnits="userSpaceOnUse">
<stop stop-color="#FF5E3A"/>
<stop offset="1" stop-color="#FF9500"/>
</linearGradient>
<linearGradient id="paint74_linear" x1="167.465" y1="292.621" x2="167.465" y2="199.631" gradientUnits="userSpaceOnUse">
<stop stop-color="#FF5E3A"/>
<stop offset="1" stop-color="#FF9500"/>
</linearGradient>
<linearGradient id="paint75_linear" x1="167.465" y1="199.631" x2="167.465" y2="187.388" gradientUnits="userSpaceOnUse">
<stop stop-color="#FF5E3A"/>
<stop offset="1" stop-color="#FF9500"/>
</linearGradient>
<linearGradient id="paint76_linear" x1="167.465" y1="199.631" x2="167.465" y2="187.388" gradientUnits="userSpaceOnUse">
<stop stop-color="#FF5E3A"/>
<stop offset="1" stop-color="#FF9500"/>
</linearGradient>
<linearGradient id="paint77_linear" x1="167.465" y1="262.086" x2="167.465" y2="242.234" gradientUnits="userSpaceOnUse">
<stop stop-color="#FF5E3A"/>
<stop offset="1" stop-color="#FF9500"/>
</linearGradient>
<linearGradient id="paint78_linear" x1="167.465" y1="266.644" x2="167.465" y2="262.085" gradientUnits="userSpaceOnUse">
<stop stop-color="#FF5E3A"/>
<stop offset="1" stop-color="#FF9500"/>
</linearGradient>
<linearGradient id="paint79_linear" x1="215.034" y1="256.4" x2="215.034" y2="242.234" gradientUnits="userSpaceOnUse">
<stop stop-color="#FF5E3A"/>
<stop offset="1" stop-color="#FF9500"/>
</linearGradient>
<linearGradient id="paint80_linear" x1="119.901" y1="256.4" x2="119.901" y2="242.234" gradientUnits="userSpaceOnUse">
<stop stop-color="#FF5E3A"/>
<stop offset="1" stop-color="#FF9500"/>
</linearGradient>
<linearGradient id="paint81_linear" x1="167.465" y1="232.271" x2="167.465" y2="215.429" gradientUnits="userSpaceOnUse">
<stop stop-color="#FF5E3A"/>
<stop offset="1" stop-color="#FF9500"/>
</linearGradient>
<linearGradient id="paint82_linear" x1="193.079" y1="132.767" x2="193.079" y2="62.895" gradientUnits="userSpaceOnUse">
<stop stop-color="#FF5E3A"/>
<stop offset="1" stop-color="#FF9500"/>
</linearGradient>
<linearGradient id="paint83_linear" x1="193.079" y1="132.767" x2="193.079" y2="62.895" gradientUnits="userSpaceOnUse">
<stop stop-color="#FF5E3A"/>
<stop offset="1" stop-color="#FF9500"/>
</linearGradient>
<linearGradient id="paint84_linear" x1="193.079" y1="132.767" x2="193.079" y2="62.895" gradientUnits="userSpaceOnUse">
<stop stop-color="#FF5E3A"/>
<stop offset="1" stop-color="#FF9500"/>
</linearGradient>
<linearGradient id="paint85_linear" x1="193.079" y1="132.767" x2="193.079" y2="62.895" gradientUnits="userSpaceOnUse">
<stop stop-color="#FF5E3A"/>
<stop offset="1" stop-color="#FF9500"/>
</linearGradient>
<linearGradient id="paint86_linear" x1="192.715" y1="136.637" x2="192.715" y2="66.9858" gradientUnits="userSpaceOnUse">
<stop stop-color="#FF5E3A"/>
<stop offset="1" stop-color="#FF9500"/>
</linearGradient>
<linearGradient id="paint87_linear" x1="226.503" y1="131.017" x2="226.503" y2="77.5557" gradientUnits="userSpaceOnUse">
<stop stop-color="#FF5E3A"/>
<stop offset="1" stop-color="#FF9500"/>
</linearGradient>
<linearGradient id="paint88_linear" x1="192.715" y1="136.637" x2="192.715" y2="66.9858" gradientUnits="userSpaceOnUse">
<stop stop-color="#FF5E3A"/>
<stop offset="1" stop-color="#FF9500"/>
</linearGradient>
<linearGradient id="paint89_linear" x1="154.925" y1="116.96" x2="154.925" y2="82.8608" gradientUnits="userSpaceOnUse">
<stop stop-color="#FF5E3A"/>
<stop offset="1" stop-color="#FF9500"/>
</linearGradient>
<linearGradient id="paint90_linear" x1="154.925" y1="116.96" x2="154.925" y2="82.8608" gradientUnits="userSpaceOnUse">
<stop stop-color="#FF5E3A"/>
<stop offset="1" stop-color="#FF9500"/>
</linearGradient>
<linearGradient id="paint91_linear" x1="154.133" y1="113.039" x2="154.133" y2="87.6348" gradientUnits="userSpaceOnUse">
<stop stop-color="#FF5E3A"/>
<stop offset="1" stop-color="#FF9500"/>
</linearGradient>
<linearGradient id="paint92_linear" x1="273.825" y1="188.773" x2="273.825" y2="56.4048" gradientUnits="userSpaceOnUse">
<stop stop-color="#FF5E3A"/>
<stop offset="1" stop-color="#FF9500"/>
</linearGradient>
<linearGradient id="paint93_linear" x1="246.206" y1="146.144" x2="246.206" y2="56.4048" gradientUnits="userSpaceOnUse">
<stop stop-color="#FF5E3A"/>
<stop offset="1" stop-color="#FF9500"/>
</linearGradient>
<linearGradient id="paint94_linear" x1="246.206" y1="146.144" x2="246.206" y2="56.4048" gradientUnits="userSpaceOnUse">
<stop stop-color="#FF5E3A"/>
<stop offset="1" stop-color="#FF9500"/>
</linearGradient>
<linearGradient id="paint95_linear" x1="292.156" y1="114.358" x2="292.156" y2="61.8242" gradientUnits="userSpaceOnUse">
<stop stop-color="#FF5E3A"/>
<stop offset="1" stop-color="#FF9500"/>
</linearGradient>
<linearGradient id="paint96_linear" x1="292.156" y1="114.358" x2="292.156" y2="61.8242" gradientUnits="userSpaceOnUse">
<stop stop-color="#FF5E3A"/>
<stop offset="1" stop-color="#FF9500"/>
</linearGradient>
<linearGradient id="paint97_linear" x1="272.489" y1="188.773" x2="272.489" y2="56.4048" gradientUnits="userSpaceOnUse">
<stop stop-color="#FF5E3A"/>
<stop offset="1" stop-color="#FF9500"/>
</linearGradient>
<linearGradient id="paint98_linear" x1="222.058" y1="78.103" x2="222.058" y2="70.7593" gradientUnits="userSpaceOnUse">
<stop stop-color="#FF5E3A"/>
<stop offset="1" stop-color="#FF9500"/>
</linearGradient>
<linearGradient id="paint99_linear" x1="248.118" y1="72.334" x2="248.118" y2="62.313" gradientUnits="userSpaceOnUse">
<stop stop-color="#FF5E3A"/>
<stop offset="1" stop-color="#FF9500"/>
</linearGradient>
<linearGradient id="paint100_linear" x1="261.554" y1="73.5692" x2="261.554" y2="59.1387" gradientUnits="userSpaceOnUse">
<stop stop-color="#FF5E3A"/>
<stop offset="1" stop-color="#FF9500"/>
</linearGradient>
<linearGradient id="paint101_linear" x1="283.809" y1="87.9168" x2="283.809" y2="84.4771" gradientUnits="userSpaceOnUse">
<stop stop-color="#FF5E3A"/>
<stop offset="1" stop-color="#FF9500"/>
</linearGradient>
<linearGradient id="paint102_linear" x1="222.689" y1="93.9014" x2="222.689" y2="89.9146" gradientUnits="userSpaceOnUse">
<stop stop-color="#FF5E3A"/>
<stop offset="1" stop-color="#FF9500"/>
</linearGradient>
<linearGradient id="paint103_linear" x1="213.585" y1="105.489" x2="213.585" y2="98.3853" gradientUnits="userSpaceOnUse">
<stop stop-color="#FF5E3A"/>
<stop offset="1" stop-color="#FF9500"/>
</linearGradient>
<linearGradient id="paint104_linear" x1="226.481" y1="62.3129" x2="226.481" y2="57.9448" gradientUnits="userSpaceOnUse">
<stop stop-color="#FF5E3A"/>
<stop offset="1" stop-color="#FF9500"/>
</linearGradient>
<linearGradient id="paint105_linear" x1="212.697" y1="75.1274" x2="212.697" y2="70.7593" gradientUnits="userSpaceOnUse">
<stop stop-color="#FF5E3A"/>
<stop offset="1" stop-color="#FF9500"/>
</linearGradient>
<linearGradient id="paint106_linear" x1="256.088" y1="117.433" x2="256.088" y2="108.639" gradientUnits="userSpaceOnUse">
<stop stop-color="#FF5E3A"/>
<stop offset="1" stop-color="#FF9500"/>
</linearGradient>
<linearGradient id="paint107_linear" x1="110.945" y1="361.574" x2="110.945" y2="241.816" gradientUnits="userSpaceOnUse">
<stop stop-color="#FF5E3A"/>
<stop offset="1" stop-color="#FF9500"/>
</linearGradient>
<linearGradient id="paint108_linear" x1="116.615" y1="350.617" x2="116.615" y2="315.157" gradientUnits="userSpaceOnUse">
<stop stop-color="#FF5E3A"/>
<stop offset="1" stop-color="#FF9500"/>
</linearGradient>
<linearGradient id="paint109_linear" x1="116.615" y1="350.617" x2="116.615" y2="315.157" gradientUnits="userSpaceOnUse">
<stop stop-color="#FF5E3A"/>
<stop offset="1" stop-color="#FF9500"/>
</linearGradient>
<linearGradient id="paint110_linear" x1="107.162" y1="331.155" x2="107.162" y2="241.816" gradientUnits="userSpaceOnUse">
<stop stop-color="#FF5E3A"/>
<stop offset="1" stop-color="#FF9500"/>
</linearGradient>
<linearGradient id="paint111_linear" x1="107.162" y1="331.155" x2="107.162" y2="241.816" gradientUnits="userSpaceOnUse">
<stop stop-color="#FF5E3A"/>
<stop offset="1" stop-color="#FF9500"/>
</linearGradient>
<linearGradient id="paint112_linear" x1="186.215" y1="276.782" x2="186.215" y2="265.436" gradientUnits="userSpaceOnUse">
<stop stop-color="#FF5E3A"/>
<stop offset="1" stop-color="#FF9500"/>
</linearGradient>
<linearGradient id="paint113_linear" x1="186.215" y1="276.782" x2="186.215" y2="265.436" gradientUnits="userSpaceOnUse">
<stop stop-color="#FF5E3A"/>
<stop offset="1" stop-color="#FF9500"/>
</linearGradient>
<linearGradient id="paint114_linear" x1="110.945" y1="361.574" x2="110.945" y2="241.816" gradientUnits="userSpaceOnUse">
<stop stop-color="#FF5E3A"/>
<stop offset="1" stop-color="#FF9500"/>
</linearGradient>
<linearGradient id="paint115_linear" x1="161.591" y1="288.502" x2="161.591" y2="276.069" gradientUnits="userSpaceOnUse">
<stop stop-color="#FF5E3A"/>
<stop offset="1" stop-color="#FF9500"/>
</linearGradient>
<linearGradient id="paint116_linear" x1="157.287" y1="249.653" x2="157.287" y2="244.63" gradientUnits="userSpaceOnUse">
<stop stop-color="#FF5E3A"/>
<stop offset="1" stop-color="#FF9500"/>
</linearGradient>
<linearGradient id="paint117_linear" x1="173.724" y1="256.176" x2="173.724" y2="251.592" gradientUnits="userSpaceOnUse">
<stop stop-color="#FF5E3A"/>
<stop offset="1" stop-color="#FF9500"/>
</linearGradient>
<linearGradient id="paint118_linear" x1="140.494" y1="245.583" x2="140.494" y2="243.094" gradientUnits="userSpaceOnUse">
<stop stop-color="#FF5E3A"/>
<stop offset="1" stop-color="#FF9500"/>
</linearGradient>
<linearGradient id="paint119_linear" x1="124.92" y1="251.625" x2="124.92" y2="244.63" gradientUnits="userSpaceOnUse">
<stop stop-color="#FF5E3A"/>
<stop offset="1" stop-color="#FF9500"/>
</linearGradient>
<linearGradient id="paint120_linear" x1="95.3545" y1="289.662" x2="95.3545" y2="280.146" gradientUnits="userSpaceOnUse">
<stop stop-color="#FF5E3A"/>
<stop offset="1" stop-color="#FF9500"/>
</linearGradient>
<linearGradient id="paint121_linear" x1="148.199" y1="271.841" x2="148.199" y2="251.625" gradientUnits="userSpaceOnUse">
<stop stop-color="#FF5E3A"/>
<stop offset="1" stop-color="#FF9500"/>
</linearGradient>
<linearGradient id="paint122_linear" x1="128.745" y1="269.985" x2="128.745" y2="249.653" gradientUnits="userSpaceOnUse">
<stop stop-color="#FF5E3A"/>
<stop offset="1" stop-color="#FF9500"/>
</linearGradient>
</defs>
</svg>
