<svg width="331" height="350" viewBox="0 0 331 350" fill="none" xmlns="http://www.w3.org/2000/svg">
<path d="M37.3478 109.886L44.5589 130.973L9.97868 142.801L1.4248 117.777L36.005 105.949L37.3478 109.886Z" stroke="#263238" stroke-linecap="round" stroke-linejoin="round"/>
<path d="M40.9452 120.388L44.5591 130.972L9.97885 142.8L8.20508 137.612L15.1758 127.052L26.523 131.47L34.621 117.81L40.9452 120.388Z" stroke="#263238" stroke-linecap="round" stroke-linejoin="round"/>
<path d="M19.345 119.054C19.5871 119.758 19.6149 120.518 19.4249 121.238C19.2349 121.958 18.8355 122.605 18.2773 123.098C17.7192 123.591 17.0274 123.907 16.2894 124.007C15.5515 124.106 14.8006 123.985 14.1318 123.657C13.463 123.33 12.9064 122.811 12.5325 122.167C12.1585 121.524 11.984 120.783 12.0309 120.04C12.0779 119.297 12.3443 118.584 12.7964 117.993C13.2485 117.401 13.866 116.957 14.5707 116.716C15.0376 116.556 15.5316 116.489 16.0244 116.519C16.5173 116.55 16.9992 116.678 17.4426 116.895C17.8861 117.112 18.2824 117.414 18.6088 117.785C18.9353 118.155 19.1854 118.586 19.345 119.054V119.054Z" stroke="#263238" stroke-linecap="round" stroke-linejoin="round"/>
<path d="M243.42 282.962L238.654 304.736L202.955 296.911L208.608 271.084L244.315 278.9L243.42 282.962Z" stroke="#263238" stroke-linecap="round" stroke-linejoin="round"/>
<path d="M210.033 291.341L234.559 296.712" stroke="#263238" stroke-linecap="round" stroke-linejoin="round"/>
<path d="M212.039 279.895C212.039 279.895 209.552 291.291 222.284 294.085C235.015 296.878 237.51 285.448 237.51 285.448" stroke="#263238" stroke-linecap="round" stroke-linejoin="round"/>
<path d="M213.117 280.135C213.05 280.417 212.875 280.661 212.631 280.816C212.386 280.971 212.091 281.024 211.807 280.964C211.594 280.917 211.399 280.808 211.248 280.651C211.096 280.493 210.995 280.294 210.957 280.078C210.919 279.863 210.946 279.642 211.034 279.442C211.123 279.242 211.269 279.072 211.453 278.956C211.638 278.839 211.853 278.779 212.072 278.785C212.29 278.791 212.502 278.861 212.68 278.988C212.859 279.114 212.995 279.291 213.073 279.495C213.151 279.699 213.166 279.922 213.117 280.135V280.135Z" fill="white" stroke="#263238" stroke-linecap="round" stroke-linejoin="round"/>
<path d="M238.588 285.713C238.567 285.864 238.515 286.008 238.435 286.138C238.356 286.267 238.25 286.379 238.125 286.465C238.001 286.552 237.859 286.612 237.71 286.642C237.561 286.671 237.407 286.67 237.259 286.637C237.111 286.604 236.971 286.541 236.848 286.452C236.725 286.363 236.622 286.249 236.545 286.118C236.468 285.986 236.419 285.841 236.401 285.69C236.383 285.539 236.397 285.386 236.441 285.241C236.521 284.975 236.699 284.75 236.939 284.609C237.178 284.469 237.462 284.424 237.733 284.484C238.004 284.543 238.243 284.703 238.401 284.931C238.559 285.159 238.626 285.438 238.588 285.713Z" fill="white" stroke="#263238" stroke-linecap="round" stroke-linejoin="round"/>
<path d="M210.713 290.553L208.826 290.14L208.413 292.027L210.3 292.44L210.713 290.553Z" fill="white" stroke="#263238" stroke-linecap="round" stroke-linejoin="round"/>
<path d="M223.44 293.336L221.554 292.923L221.141 294.81L223.027 295.223L223.44 293.336Z" fill="white" stroke="#263238" stroke-linecap="round" stroke-linejoin="round"/>
<path d="M236.183 296.129L234.297 295.716L233.884 297.602L235.77 298.015L236.183 296.129Z" fill="white" stroke="#263238" stroke-linecap="round" stroke-linejoin="round"/>
<path d="M78.2186 46.13L69.2005 66.5118L35.7725 51.7082L46.4814 27.5303L79.9012 42.3255L78.2186 46.13Z" stroke="#263238" stroke-linecap="round" stroke-linejoin="round"/>
<path d="M60.672 54.5348C60.0337 55.977 57.7212 56.3583 55.5164 55.3637C53.3117 54.369 52.0435 52.4212 52.6817 50.9707C53.3199 49.5202 55.6325 49.1472 57.8373 50.1418C60.042 51.1365 61.3102 53.0843 60.672 54.5348Z" fill="#263238"/>
<path d="M62.3628 38.6123L53.4442 51.3354L52.6816 50.9955L59.2048 41.6957L60.8625 39.2754C61.3803 39.1354 61.8726 38.9144 62.3213 38.6206L62.3628 38.6123Z" fill="#263238"/>
<path d="M62.3549 38.6206L60.1916 41.6874C59.8637 41.7221 59.5331 41.7221 59.2052 41.6874C58.2268 41.6073 57.2757 41.3251 56.412 40.8585C55.8256 40.5429 55.1619 40.3996 54.4975 40.4451C53.8331 40.4905 53.1952 40.7229 52.6572 41.1155C52.765 40.9829 54.8703 38.3554 57.7713 39.2754C58.7882 39.5965 59.8793 39.5965 60.8961 39.2754C61.4139 39.1354 61.9062 38.9144 62.3549 38.6206Z" fill="#263238"/>
<path d="M301.001 211.356L293.218 232.243L258.97 219.487L268.203 194.696L302.452 207.46L301.001 211.356Z" stroke="#263238" stroke-linecap="round" stroke-linejoin="round"/>
<path d="M277.95 206.764L269.363 210.692L273.292 219.288" stroke="#263238" stroke-linecap="round" stroke-linejoin="round"/>
<path d="M282.518 222.719L291.113 218.799L287.184 210.204" stroke="#263238" stroke-linecap="round" stroke-linejoin="round"/>
<path d="M284.067 209.027L276.4 220.457" stroke="#263238" stroke-linecap="round" stroke-linejoin="round"/>
<path d="M266.827 17.2855L259.193 38.2309L224.854 25.7068L233.913 0.857422L268.253 13.3816L266.827 17.2855Z" stroke="#263238" stroke-linecap="round" stroke-linejoin="round"/>
<path d="M242.5 18.8604C242.5 18.8604 242.085 16.5147 238.621 17.0286C235.421 17.5093 234.476 21.1066 237.212 22.0929C240.386 23.2533 242.873 20.5678 245.964 17.9486C249.189 15.1885 252.115 12.2129 252.488 11.8647C252.488 11.8647 245.218 24.8696 244.274 26.5854C243.329 28.3011 246.172 27.6712 246.686 26.9086" stroke="#263238" stroke-linecap="round" stroke-linejoin="round"/>
<path d="M254.776 22.6979C253.866 22.0915 252.759 21.855 251.681 22.0368C250.603 22.2185 249.635 22.8048 248.974 23.6759C247.963 24.8944 248.493 26.1625 249.363 26.5024C251.601 27.3312 252.986 26.3366 255.34 22.9134C255.34 22.9134 252.082 27.4887 252.778 27.7457C253.089 27.8498 253.423 27.867 253.742 27.7955C254.062 27.7239 254.357 27.5662 254.594 27.3395" stroke="#263238" stroke-linecap="round" stroke-linejoin="round"/>
<path d="M244.979 19.1587L250.731 21.2557" stroke="#263238" stroke-linecap="round" stroke-linejoin="round"/>
<path d="M40.1821 259.289L4.47461 251.481L9.34834 229.201L45.1718 237.042L40.1821 259.289Z" stroke="#263238" stroke-linecap="round" stroke-linejoin="round"/>
<path d="M17.4385 234.779L38.3093 239.346" stroke="#263238" stroke-linecap="round" stroke-linejoin="round"/>
<path d="M14.0654 236.139L37.8704 241.352" stroke="#263238" stroke-linecap="round" stroke-linejoin="round"/>
<path d="M13.626 238.145L37.431 243.35" stroke="#263238" stroke-linecap="round" stroke-linejoin="round"/>
<path d="M13.1865 240.15L36.9915 245.356" stroke="#263238" stroke-linecap="round" stroke-linejoin="round"/>
<path d="M12.7471 242.148L36.5521 247.353" stroke="#263238" stroke-linecap="round" stroke-linejoin="round"/>
<path d="M12.3164 244.154L36.1214 249.359" stroke="#263238" stroke-linecap="round" stroke-linejoin="round"/>
<path d="M11.877 246.151L35.6819 251.357" stroke="#263238" stroke-linecap="round" stroke-linejoin="round"/>
<path d="M11.4375 248.157L32.3083 252.724" stroke="#263238" stroke-linecap="round" stroke-linejoin="round"/>
<path d="M215.255 93.1266H81.6753L65.0068 10.207H231.924L215.255 93.1266Z" fill="#263238"/>
<path d="M77.5392 12.9009L52.9385 180.191H243.992L219.391 12.9009" fill="url(#paint0_linear)"/>
<path opacity="0.3" d="M243.992 180.191H52.9385L63.2247 110.234H233.705L243.992 180.191Z" fill="black" fill-opacity="0.7"/>
<path d="M77.5392 12.9009L52.9385 180.191H243.992L219.391 12.9009" stroke="#263238" stroke-linecap="round" stroke-linejoin="round"/>
<path d="M214.194 12.9009H82.7361L59.9424 180.191H236.988L214.194 12.9009Z" fill="#263238"/>
<path d="M201.205 25.6487H129.849L129.02 23.8252C128.797 23.3303 128.436 22.9104 127.98 22.6162C127.524 22.322 126.993 22.1662 126.45 22.1675H110.271C109.831 22.1675 109.409 22.3421 109.099 22.653C108.788 22.9639 108.613 23.3856 108.613 23.8252V25.6819H95.7242C95.4916 25.6823 95.262 25.7343 95.0519 25.834C94.8418 25.9337 94.6564 26.0787 94.509 26.2586C94.3617 26.4385 94.2559 26.6488 94.1995 26.8744C94.143 27.1 94.1372 27.3353 94.1825 27.5634L104.726 79.9891H192.204L202.747 27.5634C202.798 27.333 202.797 27.094 202.743 26.8642C202.689 26.6344 202.584 26.4197 202.436 26.2359C202.288 26.0521 202.101 25.9038 201.888 25.8022C201.675 25.7006 201.441 25.6481 201.205 25.6487V25.6487Z" fill="#BFBFBF" stroke="#263238" stroke-linecap="round" stroke-linejoin="round"/>
<path d="M203.9 29.6687L202.988 34.1943L193.622 80.7682C193.487 81.4675 193.113 82.0982 192.564 82.5519C192.015 83.0057 191.325 83.2541 190.613 83.2548H106.317C105.605 83.2541 104.915 83.0057 104.366 82.5519C103.817 82.0982 103.443 81.4675 103.309 80.7682L93.7601 33.0919L93.0722 29.6687C93.0273 29.4426 93.0325 29.2094 93.0876 28.9856C93.1426 28.7618 93.2461 28.5528 93.3908 28.3734C93.5355 28.1939 93.7177 28.0484 93.9248 27.9471C94.1318 27.8459 94.3586 27.7912 94.589 27.7872H202.341C202.575 27.7851 202.807 27.8353 203.019 27.9339C203.231 28.0326 203.419 28.1773 203.568 28.3574C203.717 28.5376 203.824 28.7488 203.882 28.9756C203.939 29.2024 203.945 29.4392 203.9 29.6687Z" fill="white"/>
<path opacity="0.4" d="M202.987 34.1942L193.621 80.7681C193.487 81.4674 193.113 82.0981 192.564 82.5518C192.015 83.0055 191.325 83.254 190.613 83.2547H106.317C105.605 83.254 104.915 83.0055 104.366 82.5518C103.817 82.0981 103.443 81.4674 103.308 80.7681L93.7598 33.0918L202.987 34.1942Z" fill="url(#paint1_linear)"/>
<path d="M203.9 29.6687L202.988 34.1943L193.622 80.7682C193.487 81.4675 193.113 82.0982 192.564 82.5519C192.015 83.0057 191.325 83.2541 190.613 83.2548H106.317C105.605 83.2541 104.915 83.0057 104.366 82.5519C103.817 82.0982 103.443 81.4675 103.309 80.7682L93.7601 33.0919L93.0722 29.6687C93.0273 29.4426 93.0325 29.2094 93.0876 28.9856C93.1426 28.7618 93.2461 28.5528 93.3908 28.3734C93.5355 28.1939 93.7177 28.0484 93.9248 27.9471C94.1318 27.8459 94.3586 27.7912 94.589 27.7872H202.341C202.575 27.7851 202.807 27.8353 203.019 27.9339C203.231 28.0326 203.419 28.1773 203.568 28.3574C203.717 28.5376 203.824 28.7488 203.882 28.9756C203.939 29.2024 203.945 29.4392 203.9 29.6687Z" stroke="#263238" stroke-linecap="round" stroke-linejoin="round"/>
<path d="M202.474 37.7254H129.401L128.572 35.9102C128.338 35.412 127.966 34.9911 127.501 34.6974C127.035 34.4036 126.495 34.2493 125.945 34.2525H109.368C108.928 34.2525 108.506 34.4271 108.195 34.738C107.884 35.0489 107.71 35.4706 107.71 35.9102V37.7669H94.448C94.2131 37.7639 93.9805 37.8132 93.767 37.9113C93.5536 38.0093 93.3646 38.1536 93.2139 38.3338C93.0631 38.5139 92.9543 38.7253 92.8954 38.9527C92.8364 39.1801 92.8288 39.4177 92.8731 39.6484L103.648 91.9166H193.224L203.999 39.6484C204.049 39.4189 204.048 39.181 203.995 38.9521C203.942 38.7231 203.839 38.5088 203.693 38.3247C203.547 38.1406 203.362 37.9913 203.151 37.8876C202.94 37.784 202.709 37.7286 202.474 37.7254V37.7254Z" fill="#BFBFBF" stroke="#263238" stroke-linecap="round" stroke-linejoin="round"/>
<path d="M205.225 41.886L204.314 46.3122L194.707 92.8363C194.56 93.5432 194.172 94.1773 193.61 94.6306C193.048 95.0839 192.346 95.3286 191.624 95.3229H105.306C104.584 95.3286 103.882 95.0839 103.32 94.6306C102.758 94.1773 102.37 93.5432 102.222 92.8363L92.5828 46.1547L91.7042 41.886C91.6599 41.6554 91.6675 41.4177 91.7264 41.1903C91.7853 40.963 91.8941 40.7515 92.0449 40.5714C92.1957 40.3913 92.3846 40.247 92.5981 40.1489C92.8115 40.0509 93.0441 40.0015 93.279 40.0045H203.651C203.885 40.0015 204.118 40.0509 204.332 40.1489C204.545 40.247 204.734 40.3913 204.885 40.5714C205.035 40.7515 205.144 40.963 205.203 41.1903C205.262 41.4177 205.27 41.6554 205.225 41.886V41.886Z" fill="white"/>
<path opacity="0.4" d="M204.314 46.3123L194.707 92.8364C194.56 93.5433 194.172 94.1774 193.61 94.6307C193.048 95.084 192.346 95.3286 191.624 95.323H105.306C104.584 95.3286 103.882 95.084 103.32 94.6307C102.758 94.1774 102.37 93.5433 102.223 92.8364L92.583 46.1548L204.314 46.3123Z" fill="url(#paint2_linear)"/>
<path d="M205.225 41.886L204.314 46.3122L194.707 92.8363C194.56 93.5432 194.172 94.1773 193.61 94.6306C193.048 95.0839 192.346 95.3286 191.624 95.3229H105.306C104.584 95.3286 103.882 95.0839 103.32 94.6306C102.758 94.1773 102.37 93.5432 102.222 92.8363L92.5828 46.1547L91.7042 41.886C91.6599 41.6554 91.6675 41.4177 91.7264 41.1903C91.7853 40.963 91.8941 40.7515 92.0449 40.5714C92.1957 40.3913 92.3846 40.247 92.5981 40.1489C92.8115 40.0509 93.0441 40.0015 93.279 40.0045H203.651C203.885 40.0015 204.118 40.0509 204.332 40.1489C204.545 40.247 204.734 40.3913 204.885 40.5714C205.035 40.7515 205.144 40.963 205.203 41.1903C205.262 41.4177 205.27 41.6554 205.225 41.886V41.886Z" stroke="#263238" stroke-linecap="round" stroke-linejoin="round"/>
<path d="M203.734 49.8018H128.962L128.133 47.9866C127.889 47.4838 127.507 47.0608 127.031 46.7672C126.556 46.4737 126.006 46.3216 125.447 46.3289H108.439C108.217 46.3222 107.996 46.3602 107.789 46.4405C107.583 46.5208 107.394 46.6419 107.235 46.7965C107.075 46.9511 106.949 47.1361 106.862 47.3405C106.776 47.5449 106.732 47.7647 106.732 47.9866V49.835H93.1963C92.9592 49.8275 92.7235 49.8731 92.5064 49.9684C92.2892 50.0638 92.0961 50.2064 91.9412 50.386C91.7863 50.5655 91.6734 50.7774 91.611 51.0062C91.5485 51.235 91.5379 51.4748 91.58 51.7082L102.629 103.819H194.301L205.35 51.7082C205.398 51.4724 205.391 51.2289 205.331 50.9959C205.272 50.7629 205.16 50.5466 205.004 50.3631C204.848 50.1796 204.653 50.0338 204.433 49.9365C204.213 49.8393 203.974 49.7933 203.734 49.8018V49.8018Z" fill="#BFBFBF" stroke="#263238" stroke-linecap="round" stroke-linejoin="round"/>
<path d="M204.944 52.2306H91.986C91.75 52.2231 91.5154 52.2684 91.2992 52.3634C91.083 52.4583 90.8908 52.6003 90.7367 52.7791C90.5825 52.9579 90.4703 53.1689 90.4082 53.3967C90.3462 53.6245 90.3358 53.8632 90.378 54.0955L101.153 104.897C101.312 105.61 101.711 106.248 102.285 106.701C102.859 107.154 103.572 107.395 104.303 107.383H192.635C193.366 107.395 194.079 107.154 194.653 106.701C195.226 106.248 195.626 105.61 195.785 104.897L206.56 54.0955C206.602 53.8625 206.592 53.623 206.529 53.3946C206.467 53.1662 206.354 52.9547 206.199 52.7758C206.043 52.5968 205.85 52.455 205.633 52.3606C205.416 52.2662 205.18 52.2218 204.944 52.2306V52.2306Z" fill="white" stroke="#263238" stroke-linecap="round" stroke-linejoin="round"/>
<path d="M205.002 59.392H128.514L127.644 57.585C127.388 57.0795 126.995 56.6561 126.51 56.363C126.025 56.0699 125.467 55.9189 124.9 55.9273H107.494C107.269 55.9149 107.044 55.9486 106.832 56.0263C106.62 56.1041 106.426 56.2242 106.263 56.3794C106.099 56.5346 105.969 56.7216 105.88 56.9289C105.791 57.1362 105.745 57.3595 105.745 57.585V59.4334H91.9283C91.6891 59.4214 91.4502 59.4632 91.2294 59.5557C91.0085 59.6483 90.8112 59.7893 90.6521 59.9683C90.493 60.1473 90.3761 60.3597 90.3101 60.5899C90.244 60.8201 90.2305 61.0622 90.2705 61.2984L101.568 113.26H195.354L206.651 61.2984C206.698 61.0599 206.69 60.814 206.628 60.5791C206.565 60.3443 206.45 60.1267 206.291 59.943C206.132 59.7592 205.934 59.6141 205.71 59.5186C205.487 59.4232 205.245 59.3798 205.002 59.392V59.392Z" fill="#BFBFBF" stroke="#263238" stroke-linecap="round" stroke-linejoin="round"/>
<path d="M206.237 61.9615H90.6929C90.4537 61.9494 90.2149 61.9913 89.994 62.0838C89.7731 62.1764 89.5759 62.3174 89.4168 62.4964C89.2577 62.6754 89.1408 62.8878 89.0747 63.118C89.0087 63.3482 88.9952 63.5903 89.0352 63.8264L100.051 114.478C100.231 115.19 100.649 115.82 101.235 116.263C101.821 116.706 102.541 116.936 103.275 116.915H193.621C194.356 116.936 195.075 116.706 195.661 116.263C196.247 115.82 196.665 115.19 196.846 114.478L207.861 63.8264C207.9 63.5932 207.888 63.3541 207.823 63.1264C207.759 62.8987 207.645 62.6881 207.49 62.5098C207.335 62.3314 207.142 62.1897 206.925 62.0949C206.708 62.0001 206.473 61.9545 206.237 61.9615V61.9615Z" fill="white" stroke="#263238" stroke-linecap="round" stroke-linejoin="round"/>
<path d="M206.261 68.9819H128.066L127.179 67.175C126.911 66.6654 126.505 66.2406 126.009 65.9479C125.513 65.6551 124.945 65.5061 124.369 65.5173H106.607C106.157 65.4947 105.717 65.6513 105.383 65.9528C105.049 66.2542 104.848 66.6759 104.825 67.1253V68.9654H90.6678C90.4323 68.9637 90.1991 69.0121 89.9838 69.1076C89.7685 69.2031 89.5761 69.3433 89.4192 69.519C89.2624 69.6946 89.1447 69.9017 89.0742 70.1264C89.0036 70.3511 88.9818 70.5882 89.01 70.822L100.564 122.626H196.398L207.952 70.822C207.978 70.5867 207.954 70.3485 207.88 70.1234C207.806 69.8984 207.685 69.6918 207.525 69.5174C207.365 69.3431 207.169 69.2051 206.951 69.1127C206.733 69.0203 206.498 68.9757 206.261 68.9819V68.9819Z" fill="#BFBFBF" stroke="#263238" stroke-linecap="round" stroke-linejoin="round"/>
<path d="M207.521 71.7006H89.4078C89.1698 71.6904 88.9326 71.7331 88.7132 71.8257C88.4937 71.9183 88.2976 72.0585 88.139 72.2362C87.9804 72.4139 87.8632 72.6245 87.7959 72.853C87.7287 73.0815 87.713 73.322 87.75 73.5573L90.5185 85.9903L99.006 124.06C99.2035 124.78 99.6382 125.413 100.24 125.855C100.842 126.297 101.575 126.523 102.321 126.497H194.657C195.403 126.523 196.137 126.297 196.738 125.855C197.34 125.413 197.775 124.78 197.972 124.06L202.117 105.386L209.212 73.5656C209.251 73.3268 209.236 73.0823 209.167 72.8502C209.099 72.6181 208.979 72.4045 208.816 72.2252C208.654 72.0459 208.453 71.9057 208.229 71.8148C208.004 71.724 207.762 71.685 207.521 71.7006V71.7006Z" fill="white"/>
<path opacity="0.4" d="M90.4854 85.9819L98.9729 124.052C99.1703 124.772 99.6051 125.404 100.207 125.847C100.809 126.289 101.542 126.515 102.288 126.489H194.657C195.403 126.515 196.137 126.289 196.739 125.847C197.34 125.404 197.775 124.772 197.972 124.052L202.117 105.377L90.4854 85.9819Z" fill="url(#paint3_linear)"/>
<path d="M207.521 71.7006H89.4078C89.1698 71.6904 88.9326 71.7331 88.7132 71.8257C88.4937 71.9183 88.2976 72.0585 88.139 72.2362C87.9804 72.4139 87.8632 72.6245 87.7959 72.853C87.7287 73.0815 87.713 73.322 87.75 73.5573L90.5185 85.9903L99.006 124.06C99.2035 124.78 99.6382 125.413 100.24 125.855C100.842 126.297 101.575 126.523 102.321 126.497H194.657C195.403 126.523 196.137 126.297 196.738 125.855C197.34 125.413 197.775 124.78 197.972 124.06L202.117 105.386L209.212 73.5656C209.251 73.3268 209.236 73.0823 209.167 72.8502C209.099 72.6181 208.979 72.4045 208.816 72.2252C208.654 72.0459 208.453 71.9057 208.229 71.8148C208.004 71.724 207.762 71.685 207.521 71.7006V71.7006Z" stroke="#263238" stroke-linecap="round" stroke-linejoin="round"/>
<path d="M125.066 128.287L124.021 126.546C123.679 126.044 123.209 125.641 122.66 125.379C122.111 125.117 121.503 125.005 120.897 125.055L101.601 125.941C101.136 125.923 100.682 126.085 100.334 126.394C99.9861 126.703 99.7717 127.135 99.7356 127.599L99.8185 129.423L84.4348 130.127C83.2578 130.177 82.4123 131.105 82.6942 132.042L97.6137 182.603L201.752 177.812L211.956 126.115C212.138 125.154 211.218 124.309 210.033 124.367L125.066 128.287Z" fill="#BFBFBF" stroke="#263238" stroke-linecap="round" stroke-linejoin="round"/>
<path d="M213.448 129.348L212.287 135.299L203.526 179.751C203.31 180.502 202.852 181.16 202.225 181.624C201.597 182.088 200.834 182.333 200.053 182.321L99.7027 186.929C98.9263 187.014 98.1436 186.841 97.4754 186.436C96.8072 186.032 96.2909 185.419 96.006 184.691L82.1557 137.695L81.4843 135.415C81.2108 134.479 82.0562 133.55 83.2332 133.501L211.55 127.599C212.718 127.55 213.638 128.395 213.448 129.348Z" fill="white"/>
<path opacity="0.4" d="M212.287 135.299L203.526 179.751C203.309 180.501 202.852 181.16 202.224 181.624C201.597 182.088 200.834 182.333 200.053 182.321L99.7023 186.929C98.9259 187.014 98.1431 186.841 97.475 186.436C96.8068 186.032 96.2905 185.419 96.0056 184.691L82.1553 137.695L212.287 135.299Z" fill="url(#paint4_linear)"/>
<path d="M213.448 129.348L212.287 135.299L203.526 179.751C203.31 180.502 202.852 181.16 202.225 181.624C201.597 182.088 200.834 182.333 200.053 182.321L99.7027 186.929C98.9263 187.014 98.1436 186.841 97.4754 186.436C96.8072 186.032 96.2909 185.419 96.006 184.691L82.1557 137.695L81.4843 135.415C81.2108 134.479 82.0562 133.55 83.2332 133.501L211.55 127.599C212.718 127.55 213.638 128.395 213.448 129.348Z" stroke="#263238" stroke-linecap="round" stroke-linejoin="round"/>
<path d="M127.279 139.825L126.392 138.001C126.087 137.464 125.646 137.016 125.114 136.702C124.582 136.388 123.977 136.219 123.359 136.211L103.706 135.183C103.236 135.111 102.755 135.226 102.368 135.503C101.981 135.78 101.718 136.198 101.634 136.667L101.543 138.482L85.861 137.653C84.6592 137.587 83.7143 138.424 83.8966 139.377L94.0336 191.007L200.236 196.561L215.694 146.273C215.976 145.337 215.122 144.408 213.921 144.35L127.279 139.825Z" fill="#BFBFBF" stroke="#263238" stroke-linecap="round" stroke-linejoin="round"/>
<path d="M216.896 149.779L214.409 157.969L201.86 198.798C201.558 199.529 201.025 200.14 200.342 200.538C199.659 200.936 198.865 201.1 198.08 201.003L95.7406 195.657C94.9508 195.669 94.1788 195.423 93.5416 194.956C92.9044 194.489 92.4368 193.827 92.2096 193.071L83.548 148.917L82.3379 142.742C82.1472 141.789 83.1004 140.952 84.3023 141.018L215.122 147.856C216.324 147.923 217.186 148.851 216.896 149.779Z" fill="white"/>
<path opacity="0.4" d="M214.376 157.969L201.827 198.799C201.524 199.529 200.991 200.14 200.309 200.538C199.626 200.936 198.832 201.1 198.047 201.003L95.7072 195.657C94.9175 195.669 94.1455 195.423 93.5083 194.956C92.871 194.489 92.4034 193.828 92.1763 193.071L83.5146 148.917L214.376 157.969Z" fill="url(#paint5_linear)"/>
<path d="M216.896 149.779L214.409 157.969L201.86 198.798C201.558 199.529 201.025 200.14 200.342 200.538C199.659 200.936 198.865 201.1 198.08 201.003L95.7406 195.657C94.9508 195.669 94.1788 195.423 93.5416 194.956C92.9044 194.489 92.4368 193.827 92.2096 193.071L83.548 148.917L82.3379 142.742C82.1472 141.789 83.1004 140.952 84.3023 141.018L215.122 147.856C216.324 147.923 217.186 148.851 216.896 149.779Z" stroke="#263238" stroke-linecap="round" stroke-linejoin="round"/>
<path d="M125.39 153.045L124.428 151.272C124.088 150.744 123.617 150.314 123.06 150.023C122.504 149.732 121.881 149.591 121.254 149.614H101.12C100.644 149.562 100.165 149.698 99.7874 149.994C99.4096 150.29 99.1622 150.721 99.098 151.197V153.004H83.0844C81.8577 153.004 80.9376 153.882 81.178 154.827L94.2409 205.695H202.689L215.752 154.827C215.993 153.882 215.073 153.004 213.846 153.004L125.39 153.045Z" fill="#BFBFBF" stroke="#263238" stroke-linecap="round" stroke-linejoin="round"/>
<path d="M200.683 210.428H96.2461C94.4392 210.428 92.8726 209.425 92.5162 208.04L79.7517 158.449C79.5031 157.505 80.4231 156.626 81.6581 156.626H215.271C216.506 156.626 217.426 157.505 217.177 158.449L204.446 208.04C204.09 209.425 202.523 210.428 200.683 210.428Z" fill="white" stroke="#263238" stroke-linecap="round" stroke-linejoin="round"/>
<path d="M124.941 165.122L123.922 163.356C123.564 162.833 123.079 162.41 122.511 162.127C121.944 161.844 121.314 161.711 120.681 161.74H100.208C99.7257 161.683 99.2401 161.817 98.8547 162.112C98.4692 162.408 98.2143 162.842 98.1443 163.323V165.122H81.824C80.5641 165.122 79.6275 166 79.8761 166.945L93.196 217.655H203.733L217.053 166.92C217.302 165.975 216.365 165.097 215.105 165.097L124.941 165.122Z" fill="#BFBFBF" stroke="#263238" stroke-linecap="round" stroke-linejoin="round"/>
<path d="M201.728 222.454H95.2022C93.3621 222.454 91.7707 221.451 91.406 220.067L78.4177 170.634C78.1773 169.689 79.1139 168.81 80.3655 168.81H216.564C217.816 168.81 218.753 169.689 218.512 170.634L205.524 220.067C205.159 221.484 203.568 222.454 201.728 222.454Z" fill="white" stroke="#263238" stroke-linecap="round" stroke-linejoin="round"/>
<path d="M223.369 279.621H73.5604L40.7705 186.631H256.159L223.369 279.621Z" fill="url(#paint6_linear)"/>
<path opacity="0.3" d="M223.369 279.621H73.5604L40.7705 186.631H256.159L223.369 279.621Z" fill="black" fill-opacity="0.7"/>
<path d="M223.369 279.621H73.5604L40.7705 186.631H256.159L223.369 279.621Z" stroke="#263238" stroke-linecap="round" stroke-linejoin="round"/>
<path d="M253.308 174.389H43.6218L40.7705 186.631H256.159L253.308 174.389Z" fill="url(#paint7_linear)" stroke="#263238" stroke-linecap="round" stroke-linejoin="round"/>
<path d="M96.4701 229.234L94.373 249.086H202.556L200.459 229.234H195.685L197.044 243.4H99.885L101.244 229.234H96.4701Z" fill="#BFBFBF" stroke="#263238" stroke-linecap="round" stroke-linejoin="round"/>
<path d="M201.744 253.645H95.1853L94.373 249.086H202.556L201.744 253.645Z" fill="#757575" stroke="#263238" stroke-linecap="round" stroke-linejoin="round"/>
<path d="M195.686 229.234L195.022 234.498L195.686 243.4H197.045L195.686 229.234Z" fill="#757575" stroke="#263238" stroke-linecap="round" stroke-linejoin="round"/>
<path d="M101.244 229.234L101.915 234.498L101.244 243.4H99.8848L101.244 229.234Z" fill="#757575" stroke="#263238" stroke-linecap="round" stroke-linejoin="round"/>
<path d="M183.327 219.271H113.603L110.279 202.429H186.651L183.327 219.271Z" fill="white" stroke="#263238" stroke-linecap="round" stroke-linejoin="round"/>
<path d="M153.133 56.2922L152.453 54.3443C152.233 53.7895 151.864 53.3059 151.387 52.9463C150.911 52.5867 150.345 52.365 149.751 52.3053L131.317 49.9265C130.859 49.8388 130.384 49.9361 129.998 50.197C129.611 50.4579 129.343 50.8613 129.253 51.319L129.013 53.1839L114.325 51.2941C114.081 51.2429 113.828 51.2475 113.586 51.3075C113.344 51.3676 113.118 51.4815 112.926 51.6409C112.734 51.8002 112.581 52.0009 112.477 52.2279C112.373 52.4549 112.322 52.7023 112.328 52.9518L117.558 106.944L217.021 119.767L235.77 68.866C235.838 68.6266 235.851 68.3751 235.808 68.1301C235.765 67.885 235.667 67.6528 235.522 67.4506C235.377 67.2484 235.189 67.0814 234.971 66.962C234.752 66.8426 234.51 66.7738 234.262 66.7607L153.133 56.2922Z" fill="white"/>
<path opacity="0.4" d="M153.133 56.2922L152.453 54.3443C152.233 53.7895 151.864 53.3059 151.387 52.9463C150.911 52.5867 150.345 52.365 149.751 52.3053L131.317 49.9265C130.859 49.8388 130.384 49.9361 129.998 50.197C129.611 50.4579 129.343 50.8613 129.253 51.319L129.013 53.1839L114.325 51.2941C114.081 51.2429 113.828 51.2475 113.586 51.3075C113.344 51.3676 113.118 51.4815 112.926 51.6409C112.734 51.8002 112.581 52.0009 112.477 52.2279C112.373 52.4549 112.322 52.7023 112.328 52.9518L117.558 106.944L217.021 119.767L235.77 68.866C235.838 68.6266 235.851 68.3751 235.808 68.1301C235.765 67.885 235.667 67.6528 235.522 67.4506C235.377 67.2484 235.189 67.0814 234.971 66.962C234.752 66.8426 234.51 66.7738 234.262 66.7607L153.133 56.2922Z" fill="url(#paint8_linear)"/>
<path d="M153.133 56.2922L152.453 54.3443C152.233 53.7895 151.864 53.3059 151.387 52.9463C150.911 52.5867 150.345 52.365 149.751 52.3053L131.317 49.9265C130.859 49.8388 130.384 49.9361 129.998 50.197C129.611 50.4579 129.343 50.8613 129.253 51.319L129.013 53.1839L114.325 51.2941C114.081 51.2429 113.828 51.2475 113.586 51.3075C113.344 51.3676 113.118 51.4815 112.926 51.6409C112.734 51.8002 112.581 52.0009 112.477 52.2279C112.373 52.4549 112.322 52.7023 112.328 52.9518L117.558 106.944L217.021 119.767L235.77 68.866C235.838 68.6266 235.851 68.3751 235.808 68.1301C235.765 67.885 235.667 67.6528 235.522 67.4506C235.377 67.2484 235.189 67.0814 234.971 66.962C234.752 66.8426 234.51 66.7738 234.262 66.7607L153.133 56.2922Z" stroke="#263238" stroke-linecap="round" stroke-linejoin="round"/>
<path d="M236.723 71.9246L219.748 118.018L218.439 121.565C218.132 122.272 217.597 122.856 216.919 123.223C216.241 123.59 215.46 123.718 214.701 123.588L118.842 111.221C118.074 111.154 117.351 110.83 116.789 110.303C116.227 109.775 115.858 109.074 115.742 108.312L110.645 55.6789C110.64 55.4294 110.691 55.1819 110.794 54.9549C110.898 54.7279 111.052 54.5273 111.244 54.3679C111.436 54.2085 111.661 54.0946 111.903 54.0345C112.146 53.9745 112.398 53.9699 112.642 54.0211L194.219 64.5394L235.215 69.8193C235.463 69.8323 235.706 69.9011 235.924 70.0205C236.142 70.14 236.331 70.307 236.475 70.5092C236.62 70.7114 236.718 70.9436 236.761 71.1886C236.804 71.4336 236.791 71.6852 236.723 71.9246Z" fill="white"/>
<path opacity="0.3" d="M236.724 71.9248L219.748 118.018C207.722 115.175 207.266 107.682 205.252 103.803C203.03 99.5259 188.948 97.2548 185.011 96.5669C181.074 95.8789 178.678 91.8921 178.678 91.8921C175.131 81.9457 193.647 73.2426 193.647 73.2426C193.283 71.875 193.822 67.3909 194.211 64.5562L235.207 69.836C235.454 69.8485 235.695 69.9161 235.913 70.0341C236.131 70.152 236.319 70.3172 236.465 70.5176C236.61 70.7179 236.709 70.9483 236.754 71.1918C236.799 71.4353 236.788 71.6858 236.724 71.9248V71.9248Z" fill="black" fill-opacity="0.7"/>
<path d="M236.723 71.9246L219.748 118.018L218.439 121.565C218.132 122.272 217.597 122.856 216.919 123.223C216.241 123.59 215.46 123.718 214.701 123.588L118.842 111.221C118.074 111.154 117.351 110.83 116.789 110.303C116.227 109.775 115.858 109.074 115.742 108.312L110.645 55.6789C110.64 55.4294 110.691 55.1819 110.794 54.9549C110.898 54.7279 111.052 54.5273 111.244 54.3679C111.436 54.2085 111.661 54.0946 111.903 54.0345C112.146 53.9745 112.398 53.9699 112.642 54.0211L194.219 64.5394L235.215 69.8193C235.463 69.8323 235.706 69.9011 235.924 70.0205C236.142 70.14 236.331 70.307 236.475 70.5092C236.62 70.7114 236.718 70.9436 236.761 71.1886C236.804 71.4336 236.791 71.6852 236.723 71.9246Z" stroke="#263238" stroke-linecap="round" stroke-linejoin="round"/>
<path d="M128.673 69.8608L129.982 102.435L141.785 103.96L143.178 71.502L128.673 69.8608Z" fill="url(#paint9_linear)" stroke="#263238" stroke-linecap="round" stroke-linejoin="round"/>
<path d="M135.876 100.039C136.025 99.4634 136.052 98.8621 135.953 98.275C135.855 97.688 135.633 97.1284 135.304 96.6328C134.633 95.6485 133.826 94.7639 132.908 94.0053C134.278 94.7907 135.792 95.2924 137.359 95.4807C137.359 93.7815 135.701 92.6045 134.284 91.7094C134.608 91.5833 134.957 91.5314 135.304 91.5572C135.651 91.583 135.988 91.686 136.29 91.8586C136.311 91.5951 136.268 91.3304 136.166 91.0868C136.063 90.8431 135.904 90.6274 135.701 90.4578C135.884 90.6153 136.166 90.3666 136.157 90.1345C136.113 89.9017 136.014 89.6828 135.867 89.4963C135.645 88.9943 135.556 88.4431 135.61 87.8966C135.61 85.9488 135.668 83.9926 135.693 82.0448C135.721 82.223 135.8 82.3891 135.921 82.5231C136.041 82.657 136.199 82.7529 136.373 82.7991C136.373 82.0282 136.282 81.2574 136.207 80.4865C136.025 78.5387 135.842 76.5826 135.652 74.6348" stroke="#263238" stroke-linecap="round" stroke-linejoin="round"/>
<path d="M323.356 175.773C323.356 175.773 256.467 115.929 252.207 112.158C247.946 108.386 244.83 108.552 242.534 106.256C240.238 103.96 239.086 102.327 229.745 102.485C220.403 102.642 207.937 97.5696 205.152 95.7627C202.367 93.9558 198.43 95.2737 195.803 94.2542C193.175 93.2347 186.461 94.1298 182.358 94.2542C178.256 94.3785 177.932 90.1927 179.573 85.4351C181.215 80.6774 193.664 77.7349 195.322 78.713C196.98 79.691 203.519 76.9143 203.519 76.9143C202.533 73.4663 202.865 65.103 202.865 65.103C202.865 65.103 195.977 62.1523 193.357 61.1742C191.339 60.5655 189.225 60.3434 187.124 60.5194C187.124 60.5194 187.953 56.7564 189.255 55.3556C190.556 53.9548 196.797 52.6452 202.865 48.3848C208.932 44.1245 212.703 43.1381 213.64 43.4614C214.576 43.7846 221.348 45.7573 223.155 45.7573C224.962 45.7573 227.581 44.0996 230.2 44.6135C232.82 45.1274 237.577 49.2054 239.708 49.6944C241.838 50.1835 242.492 50.631 245.286 50.631C246.512 50.631 251.519 54.2863 251.519 54.2863C253.615 54.6866 255.653 55.3465 257.586 56.2507C260.694 57.7261 263.977 64.7797 265.452 67.0757C266.927 69.3717 267.11 74.9416 267.11 74.9416C267.11 74.9416 271.047 77.0718 272.522 80.0226C273.998 82.9733 328.33 112.158 328.33 112.158C328.33 112.158 336.892 145.718 323.356 175.773Z" fill="white"/>
<path opacity="0.4" d="M275.73 133.144C263.745 122.419 253.798 113.534 252.24 112.158C247.971 108.386 244.863 108.552 242.567 106.256C240.271 103.96 239.119 102.327 229.778 102.485C220.436 102.642 207.97 97.5696 205.185 95.7627C202.4 93.9558 198.463 95.2737 195.836 94.2542C193.208 93.2347 186.494 94.1298 182.392 94.2542C178.289 94.3785 177.965 90.1927 179.607 85.4351C181.248 80.6774 193.697 77.7349 195.355 78.713C197.013 79.691 203.553 76.9143 203.553 76.9143C202.566 73.4663 202.898 65.103 202.898 65.103C202.898 65.103 196.01 62.1523 193.391 61.1742C191.373 60.5655 189.258 60.3434 187.158 60.5194C187.158 60.5194 187.986 56.7564 189.288 55.3556C190.589 53.9548 196.83 52.6452 202.898 48.3848C208.965 44.1245 212.736 43.1381 213.673 43.4614C214.61 43.7846 221.381 45.7573 223.188 45.7573C224.556 45.7573 226.404 44.8124 228.369 44.572C226.777 45.4589 225.675 47.1498 225.973 48.0533C226.446 49.4789 227.78 53.1093 227.855 53.3414C227.498 52.9933 218.903 44.5057 213.35 44.945C208.551 45.318 203.677 53.3994 204.497 59.3341C205.318 65.2688 203.329 65.2688 204.406 69.6949C205.484 74.1211 206.462 80.3541 204.821 82.8158C203.18 85.2776 199.906 80.9012 199.906 80.9012C198.676 81.5758 197.646 82.5621 196.919 83.761C196.191 84.9598 195.792 86.329 195.761 87.731C195.761 92.4887 200.734 92.8119 203.669 93.3093C206.603 93.8066 217.428 99.733 224.821 100.048L232.215 100.355C232.215 100.355 227.946 94.5526 229.728 94.2542C231.51 93.9558 236.939 94.4862 240.503 100.056C244.067 105.626 246.803 106.861 253.409 109.596C257.313 111.163 267.607 122.278 275.73 133.144Z" fill="url(#paint10_linear)"/>
<path opacity="0.4" d="M308.487 101.358C307.484 100.885 275.332 85.7335 273.716 83.4707C272.1 81.208 270.11 80.6526 268.304 78.3732C266.497 76.0939 260.438 74.6185 259.617 71.5019C258.796 68.3854 257.81 58.9281 256.302 57.7594C255.062 56.8495 253.747 56.0455 252.373 55.3557L254.81 61.4312C254.81 61.4312 249.256 53.5653 247.938 53.3498C246.62 53.1343 249.364 59.069 249.124 58.8866C248.883 58.7043 242.866 53.0846 237.826 48.8242C238.424 49.1851 239.068 49.4639 239.741 49.6531C241.879 50.1421 242.526 50.5897 245.319 50.5897C246.546 50.5897 251.552 54.245 251.552 54.245C253.648 54.6453 255.686 55.3052 257.619 56.2094C260.728 57.6848 264.01 64.7384 265.485 67.0344C266.961 69.3303 267.143 74.9003 267.143 74.9003C267.143 74.9003 271.08 77.0305 272.556 79.9812C273.442 81.7716 292.83 92.7209 308.487 101.358Z" fill="url(#paint11_linear)"/>
<path d="M323.356 175.773C323.356 175.773 256.467 115.929 252.207 112.158C247.946 108.386 244.83 108.552 242.534 106.256C240.238 103.96 239.086 102.327 229.745 102.485C220.403 102.642 207.937 97.5696 205.152 95.7627C202.367 93.9558 198.43 95.2737 195.803 94.2542C193.175 93.2347 186.461 94.1298 182.358 94.2542C178.256 94.3785 177.932 90.1927 179.573 85.4351C181.215 80.6774 193.664 77.7349 195.322 78.713C196.98 79.691 203.519 76.9143 203.519 76.9143C202.533 73.4663 202.865 65.103 202.865 65.103C202.865 65.103 195.977 62.1523 193.357 61.1742C191.339 60.5655 189.225 60.3434 187.124 60.5194C187.124 60.5194 187.953 56.7564 189.255 55.3556C190.556 53.9548 196.797 52.6452 202.865 48.3848C208.932 44.1245 212.703 43.1381 213.64 43.4614C214.576 43.7846 221.348 45.7573 223.155 45.7573C224.962 45.7573 227.581 44.0996 230.2 44.6135C232.82 45.1274 237.577 49.2054 239.708 49.6944C241.838 50.1835 242.492 50.631 245.286 50.631C246.512 50.631 251.519 54.2863 251.519 54.2863C253.615 54.6866 255.653 55.3465 257.586 56.2507C260.694 57.7261 263.977 64.7797 265.452 67.0757C266.927 69.3717 267.11 74.9416 267.11 74.9416C267.11 74.9416 271.047 77.0718 272.522 80.0226C273.998 82.9733 328.33 112.158 328.33 112.158" stroke="#263238" stroke-linecap="round" stroke-linejoin="round"/>
<path d="M202.89 65.103C202.89 65.103 203.652 58.6545 202.89 57.7593" stroke="#263238" stroke-linecap="round" stroke-linejoin="round"/>
<path d="M223.105 49.313C223.105 49.313 234.262 58.7537 235.132 59.334" stroke="#263238" stroke-linecap="round" stroke-linejoin="round"/>
<path d="M233.582 46.1387C235.115 47.0919 247.482 58.0577 251.527 60.5692" stroke="#263238" stroke-linecap="round" stroke-linejoin="round"/>
<path d="M267.16 74.9168C265.958 74.2123 262.783 72.6789 262.46 71.4771" stroke="#263238" stroke-linecap="round" stroke-linejoin="round"/>
<path d="M203.544 76.9146C203.544 76.9146 204.199 79.5918 203.544 80.9014" stroke="#263238" stroke-linecap="round" stroke-linejoin="round"/>
<path d="M193.705 85.3853C193.705 85.3853 192.18 89.6456 195.786 92.4886" stroke="#263238" stroke-linecap="round" stroke-linejoin="round"/>
<path d="M208.575 44.9448C207.425 46.1494 206.663 47.6709 206.387 49.3129" stroke="#263238" stroke-linecap="round" stroke-linejoin="round"/>
<path d="M191.567 57.7593C191.93 58.7465 192.496 59.646 193.231 60.3988C193.965 61.1516 194.85 61.7407 195.828 62.1274" stroke="#263238" stroke-linecap="round" stroke-linejoin="round"/>
<path d="M240.594 104.432C238.463 101.342 236.12 98.4037 233.582 95.6382" stroke="#263238" stroke-linecap="round" stroke-linejoin="round"/>
<path d="M11.2803 323.004C11.2803 323.004 64.8249 287.81 68.0989 283.268C69.7795 280.818 71.7623 278.591 74.0004 276.637C74.0004 276.637 75.5338 263.516 79.4709 256.744C83.408 249.973 84.9332 244.933 86.6821 241.435C88.431 237.937 96.7362 235.318 99.115 233.976C101.494 232.633 105.68 230.038 108.083 230.038C109.919 230.185 111.705 230.707 113.33 231.572C113.33 231.572 121.42 227.427 125.133 230.038C125.133 230.038 134.317 230.478 136.497 230.254C138.677 230.03 141.967 231.572 141.967 231.572C141.967 231.572 147.43 227.643 151.143 229.168C154.856 230.693 156.63 231.348 156.729 233.536C156.829 235.724 155.809 243.151 155.809 243.151H153.986C153.986 243.151 147.869 251.116 147.214 252.708C146.559 254.299 143.07 263.044 143.07 263.044C143.07 263.044 147.653 259.546 150.529 256.927C153.406 254.308 158.404 249.276 163.65 247.967C168.897 246.657 172.61 249.583 172.61 252.708C172.61 252.708 166.493 257.582 165.151 259.115C163.808 260.648 161.47 264.577 158.835 267.404C156.199 270.23 150.123 282.133 144.835 287.81C139.547 293.488 116.654 305.73 111.382 307.479C111.382 307.479 79.4709 329.776 65.4797 348.574C65.4797 348.574 27.4514 348.798 11.2803 323.004Z" fill="white"/>
<path opacity="0.4" d="M115.104 302.672C115.559 303.136 117.424 303.418 120.077 303.501C117.269 305.009 114.374 306.348 111.407 307.512C111.407 307.512 90.5361 322.092 75.1523 337.617C80.4488 329.187 90.619 318.669 94.3986 316.481C99.6619 313.414 109.774 303.517 109.774 303.517C109.774 303.517 113.587 301.138 115.104 302.672Z" fill="url(#paint12_linear)"/>
<path opacity="0.4" d="M150.512 256.985C152.751 254.784 155.15 252.753 157.69 250.909C154.993 253.87 152.797 257.252 151.192 260.922C150.181 266.417 140.699 277.748 140.699 277.748C143.757 267.917 141.13 265.945 141.992 263.102C142.854 260.259 143.409 253.288 143.409 253.288C143.409 253.288 145.067 250.428 146.816 249.774C148.565 249.119 153.156 237.531 154.01 235.965C154.864 234.398 148.349 231.82 146.6 231.63C144.851 231.439 144.196 234.465 140.699 235.965C137.201 237.465 132.808 240.217 131.192 241.825C129.575 243.433 126.765 250.545 126.583 250.984C126.707 250.486 128.688 242.505 129.202 240.913C129.633 239.587 133.836 237.142 135.394 236.271C132.808 237.473 131.357 235.194 129.202 233.122C126.89 230.9 123.442 230.196 119.67 231.348C115.899 232.5 113.371 235.343 113.354 235.128C113.338 234.912 107.718 233.926 105.895 234.465C104.071 235.003 99.8605 236.91 99.8605 236.91C99.8605 236.91 96.0312 234.705 89.7401 240.913C87.1126 243.507 78.3681 263.292 79.6777 260.922C80.9873 258.551 86.6982 251.473 87.0546 251.034C86.6733 251.962 75.0775 277.988 72.7069 279.646C70.3364 281.304 69.6484 287.172 61.1028 291.988C52.9965 296.555 21.7318 316.207 18.6318 318.155C33.4602 308.3 65.5787 286.758 68.0653 283.268C69.7458 280.818 71.7286 278.591 73.9668 276.637C73.9668 276.637 75.5002 263.516 79.4373 256.744C83.3744 249.973 84.8995 244.933 86.6484 241.435C88.3973 237.937 96.7025 235.318 99.0814 233.976C101.46 232.633 105.646 230.038 108.05 230.038C109.885 230.185 111.671 230.707 113.296 231.572C113.296 231.572 121.386 227.427 125.099 230.038C125.099 230.038 134.283 230.478 136.463 230.254C138.643 230.03 141.934 231.572 141.934 231.572C141.934 231.572 147.396 227.643 151.109 229.168C154.823 230.693 156.596 231.348 156.696 233.536C156.795 235.724 155.776 243.151 155.776 243.151H153.952C153.952 243.151 147.835 251.116 147.18 252.708C146.526 254.299 143.036 263.044 143.036 263.044C143.036 263.044 147.636 259.604 150.512 256.985Z" fill="url(#paint13_linear)"/>
<path opacity="0.4" d="M172.594 252.766C172.594 252.766 166.477 257.64 165.134 259.173C164.346 260.093 163.178 261.883 161.818 263.782C162.501 261.566 162.97 259.29 163.219 256.985C164.508 255.104 166.338 253.659 168.466 252.841C169.81 252.445 171.222 252.338 172.61 252.526C172.612 252.606 172.607 252.687 172.594 252.766V252.766Z" fill="url(#paint14_linear)"/>
<path d="M11.2803 323.004C11.2803 323.004 64.8249 287.81 68.0989 283.268C69.7795 280.818 71.7623 278.591 74.0004 276.637C74.0004 276.637 75.5338 263.516 79.4709 256.744C83.408 249.973 84.9332 244.933 86.6821 241.435C88.431 237.937 96.7362 235.318 99.115 233.976C101.494 232.633 105.68 230.038 108.083 230.038C109.919 230.185 111.705 230.707 113.33 231.572C113.33 231.572 121.42 227.427 125.133 230.038C125.133 230.038 134.317 230.478 136.497 230.254C138.677 230.03 141.967 231.572 141.967 231.572C141.967 231.572 147.43 227.643 151.143 229.168C154.856 230.693 156.63 231.348 156.729 233.536C156.829 235.724 155.809 243.151 155.809 243.151H153.986C153.986 243.151 147.869 251.116 147.214 252.708C146.559 254.299 143.07 263.044 143.07 263.044C143.07 263.044 147.653 259.546 150.529 256.927C153.406 254.308 158.404 249.276 163.65 247.967C168.897 246.657 172.61 249.583 172.61 252.708C172.61 252.708 166.493 257.582 165.151 259.115C163.808 260.648 161.47 264.577 158.835 267.404C156.199 270.23 150.123 282.133 144.835 287.81C139.547 293.488 116.654 305.73 111.382 307.479C111.382 307.479 79.4709 329.776 65.4797 348.574" stroke="#263238" stroke-linecap="round" stroke-linejoin="round"/>
<path d="M143.086 263.069C143.086 263.069 144.396 269.633 141.769 275.502" stroke="#263238" stroke-linecap="round" stroke-linejoin="round"/>
<path d="M134.557 236.653C137.304 235.402 139.825 233.705 142.016 231.63" stroke="#263238" stroke-linecap="round" stroke-linejoin="round"/>
<path d="M154.011 243.176C154.716 241.729 155.197 240.184 155.436 238.592" stroke="#263238" stroke-linecap="round" stroke-linejoin="round"/>
<path d="M125.158 230.097C122.499 230.038 119.905 230.918 117.831 232.583" stroke="#263238" stroke-linecap="round" stroke-linejoin="round"/>
<path d="M113.355 231.63C113.355 231.63 106.799 234.688 104.503 234.688C102.207 234.688 98.4854 237.747 98.4854 238.625" stroke="#263238" stroke-linecap="round" stroke-linejoin="round"/>
<path d="M74 276.662C75.9364 273.686 77.5165 270.492 78.7079 267.147" stroke="#263238" stroke-linecap="round" stroke-linejoin="round"/>
<path d="M135.975 238.625C135.975 238.625 131.83 239.711 130.405 243.209C128.979 246.707 122.423 258.841 122.423 258.841" stroke="#263238" stroke-linecap="round" stroke-linejoin="round"/>
<path d="M115.104 236.653C114.225 238.733 104.387 256.985 104.387 256.985" stroke="#263238" stroke-linecap="round" stroke-linejoin="round"/>
<defs>
<linearGradient id="paint0_linear" x1="148.465" y1="180.191" x2="148.465" y2="12.9009" gradientUnits="userSpaceOnUse">
<stop stop-color="#FF5E3A"/>
<stop offset="1" stop-color="#FF9500"/>
</linearGradient>
<linearGradient id="paint1_linear" x1="148.374" y1="83.2547" x2="148.374" y2="33.0918" gradientUnits="userSpaceOnUse">
<stop stop-color="#FF5E3A"/>
<stop offset="1" stop-color="#FF9500"/>
</linearGradient>
<linearGradient id="paint2_linear" x1="148.448" y1="95.3231" x2="148.448" y2="46.1548" gradientUnits="userSpaceOnUse">
<stop stop-color="#FF5E3A"/>
<stop offset="1" stop-color="#FF9500"/>
</linearGradient>
<linearGradient id="paint3_linear" x1="146.301" y1="126.491" x2="146.301" y2="85.9819" gradientUnits="userSpaceOnUse">
<stop stop-color="#FF5E3A"/>
<stop offset="1" stop-color="#FF9500"/>
</linearGradient>
<linearGradient id="paint4_linear" x1="147.221" y1="186.95" x2="147.221" y2="135.299" gradientUnits="userSpaceOnUse">
<stop stop-color="#FF5E3A"/>
<stop offset="1" stop-color="#FF9500"/>
</linearGradient>
<linearGradient id="paint5_linear" x1="148.945" y1="201.03" x2="148.945" y2="148.917" gradientUnits="userSpaceOnUse">
<stop stop-color="#FF5E3A"/>
<stop offset="1" stop-color="#FF9500"/>
</linearGradient>
<linearGradient id="paint6_linear" x1="148.465" y1="279.621" x2="148.465" y2="186.631" gradientUnits="userSpaceOnUse">
<stop stop-color="#FF5E3A"/>
<stop offset="1" stop-color="#FF9500"/>
</linearGradient>
<linearGradient id="paint7_linear" x1="148.465" y1="186.631" x2="148.465" y2="174.389" gradientUnits="userSpaceOnUse">
<stop stop-color="#FF5E3A"/>
<stop offset="1" stop-color="#FF9500"/>
</linearGradient>
<linearGradient id="paint8_linear" x1="174.08" y1="119.767" x2="174.08" y2="49.895" gradientUnits="userSpaceOnUse">
<stop stop-color="#FF5E3A"/>
<stop offset="1" stop-color="#FF9500"/>
</linearGradient>
<linearGradient id="paint9_linear" x1="135.925" y1="103.96" x2="135.925" y2="69.8608" gradientUnits="userSpaceOnUse">
<stop stop-color="#FF5E3A"/>
<stop offset="1" stop-color="#FF9500"/>
</linearGradient>
<linearGradient id="paint10_linear" x1="227.206" y1="133.144" x2="227.206" y2="43.4048" gradientUnits="userSpaceOnUse">
<stop stop-color="#FF5E3A"/>
<stop offset="1" stop-color="#FF9500"/>
</linearGradient>
<linearGradient id="paint11_linear" x1="273.157" y1="101.358" x2="273.157" y2="48.8242" gradientUnits="userSpaceOnUse">
<stop stop-color="#FF5E3A"/>
<stop offset="1" stop-color="#FF9500"/>
</linearGradient>
<linearGradient id="paint12_linear" x1="97.6146" y1="337.617" x2="97.6146" y2="302.157" gradientUnits="userSpaceOnUse">
<stop stop-color="#FF5E3A"/>
<stop offset="1" stop-color="#FF9500"/>
</linearGradient>
<linearGradient id="paint13_linear" x1="88.1611" y1="318.155" x2="88.1611" y2="228.816" gradientUnits="userSpaceOnUse">
<stop stop-color="#FF5E3A"/>
<stop offset="1" stop-color="#FF9500"/>
</linearGradient>
<linearGradient id="paint14_linear" x1="167.215" y1="263.782" x2="167.215" y2="252.436" gradientUnits="userSpaceOnUse">
<stop stop-color="#FF5E3A"/>
<stop offset="1" stop-color="#FF9500"/>
</linearGradient>
</defs>
</svg>
