<svg width="60" height="60" viewBox="0 0 60 60" fill="none" xmlns="http://www.w3.org/2000/svg">
<path opacity="0.25" d="M29.9999 35.4873C29.5599 35.4873 29.1299 35.3723 28.7499 35.1548L6.24989 22.1598C5.86987 21.9404 5.5543 21.6248 5.3349 21.2448C5.1155 20.8647 5 20.4336 5 19.9948C5 19.556 5.1155 19.1249 5.3349 18.7449C5.5543 18.3648 5.86987 18.0492 6.24989 17.8298L28.7499 4.84481C29.5249 4.40231 30.4749 4.40231 31.2499 4.84481L53.7499 17.8298C54.1299 18.0492 54.4455 18.3648 54.6649 18.7449C54.8843 19.1249 54.9998 19.556 54.9998 19.9948C54.9998 20.4336 54.8843 20.8647 54.6649 21.2448C54.4455 21.6248 54.1299 21.9404 53.7499 22.1598L31.2499 35.1548C30.8695 35.3732 30.4385 35.4878 29.9999 35.4873Z" fill="url(#paint0_linear)"/>
<path opacity="0.5" d="M53.7499 27.8301L48.8399 24.9951L31.2499 35.1551C30.4749 35.6001 29.5249 35.6001 28.7499 35.1551L11.1599 24.9951L6.24989 27.8301C5.86987 28.0495 5.5543 28.3651 5.3349 28.7452C5.1155 29.1252 5 29.5563 5 29.9951C5 30.4339 5.1155 30.865 5.3349 31.2451C5.5543 31.6251 5.86987 31.9407 6.24989 32.1601L28.7499 45.1551C29.5249 45.6001 30.4749 45.6001 31.2499 45.1551L53.7499 32.1601C54.1299 31.9407 54.4455 31.6251 54.6649 31.2451C54.8843 30.865 54.9998 30.4339 54.9998 29.9951C54.9998 29.5563 54.8843 29.1252 54.6649 28.7452C54.4455 28.3651 54.1299 28.0495 53.7499 27.8301Z" fill="url(#paint1_linear)"/>
<path d="M53.7499 37.8301L48.8399 34.9951L31.2499 45.1551C30.4749 45.6001 29.5249 45.6001 28.7499 45.1551L11.1599 34.9951L6.24989 37.8301C5.86987 38.0495 5.5543 38.3651 5.3349 38.7452C5.1155 39.1252 5 39.5563 5 39.9951C5 40.4339 5.1155 40.865 5.3349 41.2451C5.5543 41.6251 5.86987 41.9407 6.24989 42.1601L28.7499 55.1551C29.5249 55.6001 30.4749 55.6001 31.2499 55.1551L53.7499 42.1601C54.1299 41.9407 54.4455 41.6251 54.6649 41.2451C54.8843 40.865 54.9998 40.4339 54.9998 39.9951C54.9998 39.5563 54.8843 39.1252 54.6649 38.7452C54.4455 38.3651 54.1299 38.0495 53.7499 37.8301Z" fill="url(#paint2_linear)"/>
<defs>
<linearGradient id="paint0_linear" x1="54.9998" y1="20.0001" x2="5" y2="20.0001" gradientUnits="userSpaceOnUse">
<stop stop-color="#0A84FF"/>
<stop offset="1" stop-color="#1AD5FD"/>
</linearGradient>
<linearGradient id="paint1_linear" x1="54.9998" y1="35.242" x2="5" y2="35.242" gradientUnits="userSpaceOnUse">
<stop stop-color="#0A84FF"/>
<stop offset="1" stop-color="#1AD5FD"/>
</linearGradient>
<linearGradient id="paint2_linear" x1="54.9998" y1="45.242" x2="5" y2="45.242" gradientUnits="userSpaceOnUse">
<stop stop-color="#0A84FF"/>
<stop offset="1" stop-color="#1AD5FD"/>
</linearGradient>
</defs>
</svg>
