<svg width="60" height="60" viewBox="0 0 60 60" fill="none" xmlns="http://www.w3.org/2000/svg">
<path d="M25 15V12.5H35V15H40V12.5C39.9987 11.1743 39.4715 9.90332 38.5341 8.96593C37.5967 8.02853 36.3257 7.50132 35 7.5H25C23.6743 7.50132 22.4033 8.02853 21.4659 8.96593C20.5285 9.90332 20.0013 11.1743 20 12.5V15H25Z" fill="url(#paint0_linear)"/>
<path opacity="0.25" d="M22.5 37.5C21.837 37.5 21.2011 37.2366 20.7322 36.7678C20.2634 36.2989 20 35.663 20 35V30C20 29.337 20.2634 28.7011 20.7322 28.2322C21.2011 27.7634 21.837 27.5 22.5 27.5C23.163 27.5 23.7989 27.7634 24.2678 28.2322C24.7366 28.7011 25 29.337 25 30V35C25 35.663 24.7366 36.2989 24.2678 36.7678C23.7989 37.2366 23.163 37.5 22.5 37.5ZM37.5 37.5C36.837 37.5 36.2011 37.2366 35.7322 36.7678C35.2634 36.2989 35 35.663 35 35V30C35 29.337 35.2634 28.7011 35.7322 28.2322C36.2011 27.7634 36.837 27.5 37.5 27.5C38.163 27.5 38.7989 27.7634 39.2678 28.2322C39.7366 28.7011 40 29.337 40 30V35C40 35.663 39.7366 36.2989 39.2678 36.7678C38.7989 37.2366 38.163 37.5 37.5 37.5Z" fill="url(#paint1_linear)"/>
<path opacity="0.5" d="M50 15H10C8.67392 15 7.40215 15.5268 6.46447 16.4645C5.52678 17.4021 5 18.6739 5 20V27.5C5 28.8261 5.52678 30.0979 6.46447 31.0355C7.40215 31.9732 8.67392 32.5 10 32.5H20V30C20 29.337 20.2634 28.7011 20.7322 28.2322C21.2011 27.7634 21.837 27.5 22.5 27.5C23.163 27.5 23.7989 27.7634 24.2678 28.2322C24.7366 28.7011 25 29.337 25 30V32.5H35V30C35 29.337 35.2634 28.7011 35.7322 28.2322C36.2011 27.7634 36.837 27.5 37.5 27.5C38.163 27.5 38.7989 27.7634 39.2678 28.2322C39.7366 28.7011 40 29.337 40 30V32.5H50C51.3261 32.5 52.5979 31.9732 53.5355 31.0355C54.4732 30.0979 55 28.8261 55 27.5V20C55 18.6739 54.4732 17.4021 53.5355 16.4645C52.5979 15.5268 51.3261 15 50 15Z" fill="url(#paint2_linear)"/>
<path d="M50 32.5H40V35C40 35.663 39.7366 36.2989 39.2678 36.7678C38.7989 37.2366 38.163 37.5 37.5 37.5C36.837 37.5 36.2011 37.2366 35.7322 36.7678C35.2634 36.2989 35 35.663 35 35V32.5H25V35C25 35.663 24.7366 36.2989 24.2678 36.7678C23.7989 37.2366 23.163 37.5 22.5 37.5C21.837 37.5 21.2011 37.2366 20.7322 36.7678C20.2634 36.2989 20 35.663 20 35V32.5H10C8.67392 32.5 7.40215 31.9732 6.46447 31.0355C5.52678 30.0979 5 28.8261 5 27.5V47.5C5 48.8261 5.52678 50.0979 6.46447 51.0355C7.40215 51.9732 8.67392 52.5 10 52.5H50C51.3261 52.5 52.5979 51.9732 53.5355 51.0355C54.4732 50.0979 55 48.8261 55 47.5V27.5C55 28.8261 54.4732 30.0979 53.5355 31.0355C52.5979 31.9732 51.3261 32.5 50 32.5Z" fill="url(#paint3_linear)"/>
<defs>
<linearGradient id="paint0_linear" x1="40" y1="11.25" x2="20" y2="11.25" gradientUnits="userSpaceOnUse">
<stop stop-color="#0A84FF"/>
<stop offset="1" stop-color="#1AD5FD"/>
</linearGradient>
<linearGradient id="paint1_linear" x1="40" y1="32.5" x2="20" y2="32.5" gradientUnits="userSpaceOnUse">
<stop stop-color="#0A84FF"/>
<stop offset="1" stop-color="#1AD5FD"/>
</linearGradient>
<linearGradient id="paint2_linear" x1="55" y1="23.75" x2="5" y2="23.75" gradientUnits="userSpaceOnUse">
<stop stop-color="#0A84FF"/>
<stop offset="1" stop-color="#1AD5FD"/>
</linearGradient>
<linearGradient id="paint3_linear" x1="55" y1="40" x2="5" y2="40" gradientUnits="userSpaceOnUse">
<stop stop-color="#0A84FF"/>
<stop offset="1" stop-color="#1AD5FD"/>
</linearGradient>
</defs>
</svg>
