<svg width="60" height="60" viewBox="0 0 60 60" fill="none" xmlns="http://www.w3.org/2000/svg">
<path opacity="0.25" d="M37.5002 5C33.4085 5.00202 29.447 6.4381 26.3045 9.05849C23.1621 11.6789 21.0375 15.3178 20.3002 19.3425C23.1451 17.7869 26.4175 17.1949 29.6271 17.6554C32.8367 18.1159 35.8106 19.604 38.1034 21.8968C40.3962 24.1895 41.8843 27.1635 42.3448 30.3731C42.8053 33.5827 42.2133 36.8551 40.6577 39.7C44.9536 38.9149 48.8005 36.5513 51.4422 33.0738C54.0839 29.5963 55.3292 25.2565 54.9335 20.9073C54.5377 16.5582 52.5295 12.5144 49.3035 9.57084C46.0776 6.62726 41.8673 4.99682 37.5002 5Z" fill="url(#paint0_linear)"/>
<path d="M17.5 55C24.4036 55 30 49.4036 30 42.5C30 35.5964 24.4036 30 17.5 30C10.5964 30 5 35.5964 5 42.5C5 49.4036 10.5964 55 17.5 55Z" fill="url(#paint1_linear)"/>
<path opacity="0.5" d="M27.5001 17.5C23.7791 17.5003 20.1912 18.8836 17.433 21.3812C14.6749 23.8788 12.9434 27.3124 12.5751 31.015C14.8709 30.0284 17.4099 29.7529 19.8639 30.2242C22.3179 30.6956 24.5741 31.892 26.3411 33.659C28.1081 35.4259 29.3045 37.6822 29.7758 40.1362C30.2472 42.5902 29.9717 45.1292 28.9851 47.425C32.8131 47.0408 36.3472 45.2003 38.8567 42.2842C41.3662 39.368 42.6593 35.5991 42.4686 31.7565C42.2779 27.914 40.618 24.2916 37.8321 21.6382C35.0463 18.9848 31.3474 17.5034 27.5001 17.5Z" fill="url(#paint2_linear)"/>
<defs>
<linearGradient id="paint0_linear" x1="55.0055" y1="22.35" x2="20.3002" y2="22.35" gradientUnits="userSpaceOnUse">
<stop stop-color="#0A84FF"/>
<stop offset="1" stop-color="#1AD5FD"/>
</linearGradient>
<linearGradient id="paint1_linear" x1="30" y1="42.5" x2="5" y2="42.5" gradientUnits="userSpaceOnUse">
<stop stop-color="#0A84FF"/>
<stop offset="1" stop-color="#1AD5FD"/>
</linearGradient>
<linearGradient id="paint2_linear" x1="42.487" y1="32.4625" x2="12.5751" y2="32.4625" gradientUnits="userSpaceOnUse">
<stop stop-color="#0A84FF"/>
<stop offset="1" stop-color="#1AD5FD"/>
</linearGradient>
</defs>
</svg>
