<svg width="223" height="63" viewBox="0 0 223 63" fill="none" xmlns="http://www.w3.org/2000/svg">
<path d="M47.433 23.9672C47.9756 23.6667 48.3831 23.1528 48.3831 22.7456C48.3831 22.3384 48.3831 21.6597 48.3831 21.1167C48.3831 20.7375 48.0852 20.4171 47.433 20.0308C46.7807 19.6446 32.9092 11.7509 32.9092 11.7509C31.0089 10.6651 28.5656 10.6651 26.5296 11.7509L14.1776 18.945C12.2773 20.0308 11.0557 22.2026 11.0557 24.3744V38.6267C11.0557 40.9342 12.2773 42.9703 14.1776 44.1919L26.5296 51.3859C27.4797 51.9289 28.5656 52.2003 29.6515 52.2003C30.7374 52.2003 31.8233 51.9289 32.7735 51.3859L47.1615 43.106C48.2474 42.4273 48.6546 41.07 47.9759 39.9841C47.2972 38.8982 45.9399 38.491 44.854 39.1697L30.4659 47.4496C29.923 47.721 29.2443 47.721 28.7014 47.4496L16.4851 40.2555C15.9422 39.9841 15.535 39.3054 15.535 38.7624V24.3744C15.535 23.8315 15.9422 23.1528 16.4851 22.8813L28.8371 15.6873C29.3801 15.4158 30.0587 15.4158 30.6017 15.6873L41.5963 22.0669L34.2666 26.2747C33.0449 25.1888 31.4161 24.5101 29.6515 24.5101C25.7152 24.5101 22.5932 27.6321 22.5932 31.5684C22.5932 35.5048 25.7152 38.6267 29.6515 38.6267C33.5879 38.6267 36.8455 35.369 36.8455 31.5684C36.8455 31.1612 36.8455 30.6183 36.7098 30.2111C36.7098 30.2111 46.8903 24.2677 47.433 23.9672ZM29.7873 34.0117C28.4299 34.0117 27.344 32.9258 27.344 31.5684C27.344 30.2111 28.4299 29.1252 29.7873 29.1252C31.1446 29.1252 32.2305 30.2111 32.2305 31.5684C32.2305 32.9258 31.1446 34.0117 29.7873 34.0117Z" fill="#FF4338"/>
<path d="M78.6523 23.4245H83.1316V25.4606C83.4031 25.1891 83.6746 24.9176 83.9461 24.7819C85.9821 23.0173 88.2896 22.6101 90.7329 23.2888C94.5335 23.9675 97.2482 27.3609 97.5197 31.433C97.7911 35.2336 96.4338 38.2198 93.3119 40.3916C90.4614 42.2919 85.7106 42.1561 83.4031 39.3057C83.4031 39.3057 83.2674 39.1699 83.1316 39.1699C83.1316 40.7988 83.1316 46.6354 83.1316 48.2643H80.9599C79.6025 48.2643 78.6523 47.1784 78.6523 45.9568V23.4245ZM88.1539 37.2696C91.0043 37.2696 93.0404 35.2336 93.0404 32.2474C93.0404 29.3969 91.0043 27.2252 88.1539 27.2252C85.3034 27.2252 83.2674 29.2612 83.2674 32.2474C83.1316 35.2336 85.3034 37.2696 88.1539 37.2696Z" fill="#26292B"/>
<path d="M131.726 34.0115C132.133 35.6403 133.083 36.7262 134.712 37.1334C137.019 37.8121 139.055 37.5406 140.82 35.6403C142.041 36.319 143.263 36.9977 144.485 37.6763C143.67 38.898 142.72 39.7124 141.499 40.3911C138.105 42.2914 133.083 41.7484 130.097 39.1694C127.789 37.1334 126.839 34.5544 127.11 31.5682C127.382 28.1748 128.875 25.3244 131.997 23.8313C137.834 20.9808 144.62 24.1027 145.299 31.0253C145.435 31.8397 145.299 32.6541 145.299 33.3328C145.299 33.8757 145.163 34.0115 144.62 34.0115C140.327 34.0115 135.996 34.0115 131.726 34.0115ZM140.684 30.6181C140.413 28.4463 138.512 27.0889 136.205 27.0889C133.762 27.0889 131.997 28.7178 131.726 30.6181C134.712 30.6181 137.698 30.6181 140.684 30.6181Z" fill="#26292B"/>
<path d="M185.477 34.2833C185.884 35.7764 186.699 36.5909 188.056 37.1338C189.956 37.8125 192.535 37.8125 194.436 35.7764C195.657 36.4551 196.879 37.1338 198.101 37.8125C197.422 38.7626 196.743 39.4413 195.793 40.12C192.4 42.4275 186.156 42.2918 183.034 38.6269C180.998 36.3194 180.319 33.6047 180.862 30.7542C181.948 23.2887 190.228 21.2527 194.979 24.3746C198.101 26.4106 199.187 29.3968 199.051 33.0617C199.051 34.2833 198.915 34.2833 197.829 34.2833C193.719 34.2833 189.563 34.2833 185.477 34.2833ZM194.3 30.6185C194.164 28.7182 192.264 27.0893 190.092 27.0893C187.649 27.0893 185.613 28.5824 185.341 30.6185C188.463 30.6185 191.314 30.6185 194.3 30.6185Z" fill="#26292B"/>
<path d="M61.821 34.1476C62.2282 35.7764 63.1783 36.7266 64.6714 37.1338C66.9789 37.8124 69.015 37.541 70.7795 35.6407C72.0012 36.3194 73.2228 36.998 74.4444 37.8124C73.9015 38.6269 73.2228 39.3055 72.4084 39.8485C68.7435 42.5632 62.6354 42.0203 59.5134 38.6269C57.3417 36.3193 56.7987 33.6046 57.2059 30.6184C57.7489 27.225 59.5134 24.7818 62.7711 23.5601C68.3363 21.3884 74.3087 24.3746 75.2588 30.6184C75.3946 31.5686 75.2588 32.6545 75.2588 33.6046C75.2588 34.0118 74.9874 34.1476 74.5802 34.1476C70.5081 34.1476 66.436 34.1476 62.4996 34.1476C62.2282 34.1476 62.0924 34.1476 61.821 34.1476ZM70.6438 30.6184C70.3723 28.8539 68.7435 27.0893 66.3003 27.0893C63.5855 27.0893 61.9567 28.8539 61.6852 30.6184C64.6714 30.6184 67.6576 30.6184 70.6438 30.6184Z" fill="#26292B"/>
<path d="M164.981 41.0695H160.366C160.366 41.0695 160.366 34.147 160.366 31.025C160.366 30.0749 160.23 29.2605 159.687 28.446C158.873 27.3602 157.244 26.8172 155.751 27.2244C154.122 27.6316 153.307 28.7175 153.036 30.2106C152.9 30.7536 152.9 31.2965 152.9 31.8394C152.9 34.8256 152.9 41.0695 152.9 41.0695H148.421C148.421 41.0695 148.421 29.2605 148.421 23.4238C149.914 23.4238 151.407 23.4238 152.9 23.4238C152.9 23.9667 152.9 24.6454 152.9 25.3241C153.172 25.0526 153.307 24.9169 153.443 24.6454C154.801 23.2881 156.429 22.8809 158.33 22.8809C161.859 23.0166 164.438 25.4598 164.709 29.1247C164.709 29.6677 164.845 30.0749 164.845 30.6178C164.981 33.8755 164.981 41.0695 164.981 41.0695Z" fill="#26292B"/>
<path d="M125.617 27.4962C124.396 28.3106 123.038 28.9893 121.817 29.8037C120.867 28.3106 119.645 27.4962 117.88 27.4962C116.523 27.4962 115.301 27.9034 114.351 28.8535C112.451 30.8896 112.587 34.283 114.623 36.0475C116.387 37.5406 120.052 37.8121 121.817 34.8259C123.174 35.5046 124.396 36.319 125.753 36.9977C124.26 39.8482 120.459 42.2914 115.98 41.477C111.501 40.6626 108.515 36.862 108.515 32.2469C108.515 27.6319 111.501 23.967 115.98 23.0169C120.324 22.2025 124.124 24.3742 125.617 27.4962Z" fill="#26292B"/>
<path d="M178.961 23.4246V27.9039H175.025V35.0979C175.025 35.0979 175.025 35.5051 175.025 35.6408C175.025 36.4553 175.432 36.8625 176.247 36.9982C176.925 37.1339 177.604 37.1339 178.283 37.1339C178.554 37.1339 178.961 37.1339 178.961 37.1339V41.3418C178.961 41.3418 176.654 41.4775 175.568 41.3418C174.889 41.3418 174.075 41.0703 173.396 40.9346C171.903 40.3916 171.089 39.3057 170.817 37.8126C170.681 36.8625 170.546 35.9123 170.546 34.9622C170.546 32.7904 170.546 27.9039 170.546 27.9039H167.424V23.4246H170.546V19.7597L175.161 18.4023V23.2888H178.961V23.4246Z" fill="#26292B"/>
<path d="M206.38 23.4248C206.38 24.3749 206.38 25.3251 206.38 26.1395C207.466 23.9677 209.366 23.1533 211.673 23.0176C211.673 24.7821 211.673 26.411 211.673 28.0398C211.13 28.0398 210.723 28.0398 210.18 28.1756C207.737 28.447 206.38 30.0759 206.38 32.5191C206.38 35.2338 206.38 41.0705 206.38 41.0705H201.9C201.9 41.0705 201.9 29.2614 201.9 23.4248C203.393 23.4248 204.887 23.4248 206.38 23.4248Z" fill="#26292B"/>
<path d="M100.642 23.4248H102.813C104.171 23.4248 105.121 24.5107 105.121 25.7323V41.0705H100.642V23.4248Z" fill="#26292B"/>
<path d="M102.949 21.2527C101.456 21.2527 100.099 20.0311 100.099 18.4022C100.099 16.9091 101.32 15.5518 102.813 15.5518C104.306 15.5518 105.664 16.7734 105.664 18.4022C105.664 20.0311 104.442 21.2527 102.949 21.2527Z" fill="#26292B"/>
</svg>
