<svg width="229" height="49" viewBox="0 0 229 49" fill="none" xmlns="http://www.w3.org/2000/svg">
<path d="M79.2391 18.7373C83.7126 18.7373 86.6072 21.7025 86.6072 25.639C86.6072 29.5755 83.7126 32.5407 79.2391 32.5407C74.7657 32.5407 71.8711 29.5755 71.8711 25.639C71.8711 21.7025 74.7657 18.7373 79.2391 18.7373ZM79.2391 29.4222C81.3969 29.4222 82.9231 27.9396 82.9231 25.639C82.9231 23.4407 81.3443 21.907 79.2391 21.907C77.1866 21.907 75.5551 23.3896 75.5551 25.639C75.5551 27.8373 77.134 29.4222 79.2391 29.4222Z" fill="#FA5E5D"/>
<path d="M89.6074 19.0951H93.0809V20.4243C93.8704 19.5552 95.344 18.8906 96.9755 18.8906C100.291 18.8906 102.554 20.4243 102.554 24.5654V32.285H99.0806V25.1788C99.0806 23.0828 97.9754 22.0603 96.0281 22.0603C94.8703 22.0603 93.8704 22.5204 93.0809 23.3384V32.285H89.6074V19.0951Z" fill="#FA5E5D"/>
<path d="M106.027 11.7842H109.501V27.2235C109.501 28.7061 109.869 29.3707 110.659 29.3707C111.185 29.3707 111.659 29.1151 112.08 28.8595L112.816 31.4157C112.027 32.0291 110.869 32.5404 109.238 32.5404C107.185 32.5404 106.027 31.3134 106.027 28.655V11.7842Z" fill="#FA5E5D"/>
<path d="M117.29 12.3975C118.29 12.3975 119.289 13.1643 119.289 14.3402C119.289 15.6694 118.29 16.4362 117.29 16.4362C116.132 16.4362 115.132 15.6694 115.132 14.3402C115.132 13.1643 116.132 12.3975 117.29 12.3975ZM115.5 19.0947H118.974V32.2334H115.5V19.0947Z" fill="#FA5E5D"/>
<path d="M123.342 19.0951H126.815V20.4243C127.605 19.5552 129.078 18.8906 130.71 18.8906C134.025 18.8906 136.288 20.4243 136.288 24.5654V32.285H132.815V25.1788C132.815 23.0828 131.71 22.0603 129.762 22.0603C128.605 22.0603 127.605 22.5204 126.815 23.3384V32.285H123.342V19.0951Z" fill="#FA5E5D"/>
<path d="M151.34 30.9038C149.972 32.0285 148.077 32.5397 146.183 32.5397C141.815 32.5397 138.92 29.779 138.92 25.638C138.92 21.8037 141.604 18.7363 146.077 18.7363C149.551 18.7363 152.498 21.1391 152.498 24.82C152.498 25.638 152.446 26.1493 152.288 26.6094H142.499C142.814 28.6032 144.446 29.6768 146.551 29.6768C148.183 29.6768 149.604 29.1144 150.393 28.501L151.34 30.9038ZM142.341 24.4111H148.972C149.025 22.8262 147.867 21.5481 145.867 21.5481C143.814 21.5481 142.709 22.6729 142.341 24.4111Z" fill="#FA5E5D"/>
<path d="M156.077 19.0947H158.498V30.0352H163.445V19.0947H165.866V30.0352H170.813V19.0947H173.234V32.2335H156.077V19.0947Z" fill="#26292B"/>
<path d="M175.866 19.0947H188.181V21.4464H183.234V32.2335H180.813V21.4464H175.866V19.0947Z" fill="#26292B"/>
<path d="M190.917 19.9639C192.127 19.2482 193.759 18.7881 195.443 18.7881C199.285 18.7881 200.653 20.7308 200.653 24.1561V32.2336H198.39V30.5465C197.601 31.5179 196.285 32.4381 194.075 32.4381C191.601 32.4381 189.917 30.9044 189.917 28.3993C189.917 25.6898 192.127 24.2072 195.022 24.2072C196.075 24.2072 197.496 24.4117 198.39 25.0763C198.39 22.6224 198.022 20.9353 195.338 20.9353C193.706 20.9353 192.706 21.3443 191.601 21.9066L190.917 19.9639ZM198.338 28.6038V26.9167C197.496 26.3544 196.496 26.0476 195.285 26.0476C193.864 26.0476 192.391 26.7123 192.391 28.1948C192.391 29.4729 193.285 30.2909 194.811 30.2909C196.601 30.2909 197.601 29.4218 198.338 28.6038Z" fill="#26292B"/>
<path d="M216.389 13.318C214.758 15.4652 212.495 14.6472 209.495 15.9253C206.969 17.05 206.232 19.8107 206.074 22.2646H206.127C207.022 20.4242 209.179 19.1972 211.495 19.1972C215.39 19.1972 217.758 21.8045 217.758 25.741C217.758 29.4219 214.916 32.4894 210.811 32.4894C206.443 32.4894 203.653 29.3708 203.653 24.3096C203.653 20.4242 204.39 15.4652 208.653 13.727C211.811 12.3978 213.653 13.2157 215.074 11.4775L216.389 13.318ZM210.758 30.291C213.39 30.291 215.232 28.2972 215.232 25.8433C215.232 23.2871 213.705 21.3955 210.916 21.3955C208.337 21.3955 206.653 23.0826 206.285 24.7697C206.232 28.1439 208.074 30.291 210.758 30.291Z" fill="#26292B"/>
<path d="M51.3458 34.278L47.9775 33.1022C48.9249 30.4948 49.3985 27.7342 49.3985 24.9224C49.3985 22.4173 49.0301 19.9122 48.2407 17.5606L51.6616 16.5381C52.5562 19.2476 52.9773 22.1106 52.9773 24.9735C52.9773 28.1432 52.451 31.3128 51.3458 34.278Z" fill="#26292B"/>
<path d="M58.6612 36.5275L55.293 35.4028C56.5034 32.0286 57.0823 28.5522 57.0823 24.9736C57.0823 21.7017 56.5561 18.4809 55.5561 15.3623L58.977 14.3398C60.0822 17.8163 60.6611 21.3949 60.6611 25.0247C60.6611 28.9101 59.9769 32.7955 58.6612 36.5275Z" fill="#26292B"/>
<path d="M44.0304 32.0799L40.6621 30.8529C41.3989 28.9613 41.7673 26.9675 41.7673 24.9737C41.7673 23.2355 41.5042 21.4973 40.9779 19.8613L44.3988 18.8389C45.0303 20.8327 45.3987 22.9288 45.3987 25.0248C45.2935 27.3765 44.8724 29.7793 44.0304 32.0799Z" fill="#26292B"/>
<path d="M37.3461 24.9736C37.3461 31.9264 31.5043 37.6523 24.2941 37.6523C17.1366 37.6523 11.2422 31.9775 11.2422 24.9736C11.2422 18.0208 17.084 12.2949 24.2941 12.2949C31.5043 12.2949 37.3461 17.9697 37.3461 24.9736ZM17.1892 24.9736C17.1892 28.7567 20.3996 31.8753 24.2941 31.8753C28.1887 31.8753 31.399 28.7567 31.399 24.9736C31.399 21.1904 28.1887 18.0719 24.2941 18.0719C20.3996 18.0719 17.1892 21.1393 17.1892 24.9736Z" fill="#FA5E5D"/>
</svg>
